<svg xmlns="http://www.w3.org/2000/svg" xmlns:cc="http://web.resource.org/cc/" xmlns:s="http://inkscape.sourceforge.net/DTD/s odipodi-0.dtd" xmlns:svg="http://www.w3.org/2000/svg" xmlns:xlink="http://www.w3.org/1999/xlink" id="svg11300" width="24" height="24" version="1.0" s:docbase="/home/jimmac/src/cvs/gnome/gimp/themes/Default/images" s:docname="stock-channel-alpha-32.svg" s:version=".32"><defs id="defs3"><linearGradient id="linearGradient4616"><stop style="stop-color:#2e3436;stop-opacity:1" id="stop4618" offset="0"/><stop style="stop-color:#2e3436;stop-opacity:0" id="stop4620" offset="1"/></linearGradient><linearGradient id="linearGradient4622" x1="25.355" x2="25.355" y1="34.007" y2="32.409" gradientTransform="matrix(0.462962,0,0,0.92446,4.347921,-9.33815)" gradientUnits="userSpaceOnUse" xlink:href="#linearGradient4616"/><linearGradient id="linearGradient4928"><stop id="stop4930" offset="0" style="stop-color:#fce94f;stop-opacity:1"/><stop id="stop4932" offset="1" style="stop-color:#fce94f;stop-opacity:0"/></linearGradient><radialGradient id="radialGradient4915" cx="-6.007" cy="32.837" r="9.906" fx="-6.007" fy="32.837" gradientTransform="matrix(0.462962,0,0,0.44272,14.86446,6.713194)" gradientUnits="userSpaceOnUse" xlink:href="#linearGradient4928"/><linearGradient id="linearGradient2065"><stop style="stop-color:#555753" id="stop2067" offset="0"/><stop style="stop-color:#fcaf3e" id="stop2069" offset="1"/></linearGradient><linearGradient id="linearGradient2071" x1="-11.986" x2="-11.986" y1="13.123" y2="29.727" gradientTransform="matrix(0.485607,0,0,0.545174,21.36993,4.325833)" gradientUnits="userSpaceOnUse" xlink:href="#linearGradient2065"/><linearGradient id="linearGradient2807"><stop style="stop-color:#d3d7cf" id="stop2809" offset="0"/><stop style="stop-color:#eeeeec" id="stop2811" offset="1"/></linearGradient><linearGradient id="linearGradient2813" x1="34.197" x2="17.161" y1="33.726" y2="17.397" gradientTransform="matrix(0.51166,0,0,0.463056,3.220846,6.357789)" gradientUnits="userSpaceOnUse" xlink:href="#linearGradient2807"/><linearGradient id="linearGradient4126"><stop id="stop4128" offset="0" style="stop-color:#000;stop-opacity:1"/><stop id="stop4130" offset="1" style="stop-color:#000;stop-opacity:0"/></linearGradient><radialGradient id="radialGradient3598" cx="23.857" cy="40" r="17.143" fx="23.857" fy="40" gradientTransform="matrix(0.390828,0,0,0.215917,1.168258,4.160433)" gradientUnits="userSpaceOnUse" xlink:href="#linearGradient4126"/><linearGradient id="linearGradient4134"><stop id="stop4136" offset="0" style="stop-color:#d6d7d5;stop-opacity:1"/><stop style="stop-color:#d1d2d0;stop-opacity:1" id="stop4148" offset=".25"/><stop style="stop-color:#a5a6a3;stop-opacity:1" id="stop4142" offset=".5"/><stop id="stop4138" offset="1" style="stop-color:#dddedc;stop-opacity:1"/></linearGradient><linearGradient id="linearGradient3596" x1="9.303" x2="38.826" y1="26.719" y2="26.719" gradientTransform="matrix(0.340722,0,0,0.324638,2.199258,0.608688)" gradientUnits="userSpaceOnUse" xlink:href="#linearGradient4134"/><linearGradient id="linearGradient3594" x1="24" x2="23.434" y1="17.246" y2="8.048" gradientTransform="matrix(0.307652,0,0,0.206103,3.16081,9.871798)" gradientUnits="userSpaceOnUse" xlink:href="#linearGradient3233"/><linearGradient id="linearGradient4176"><stop id="stop4178" offset="0" style="stop-color:#fff;stop-opacity:1"/><stop id="stop4180" offset="1" style="stop-color:#fff;stop-opacity:0"/></linearGradient><linearGradient id="linearGradient3592" x1="17.16" x2="37.969" y1="14.004" y2="56.576" gradientTransform="matrix(0.298404,0,0,0.281226,3.318989,1.776169)" gradientUnits="userSpaceOnUse" xlink:href="#linearGradient4176"/><linearGradient id="linearGradient3247"><stop style="stop-color:white;stop-opacity:1" id="stop3249" offset="0"/><stop style="stop-color:white;stop-opacity:0" id="stop3251" offset="1"/></linearGradient><linearGradient id="linearGradient3590" x1="34.244" x2="34.244" y1="17.695" y2="29.918" gradientTransform="matrix(0.323846,0,0,0.318617,2.386737,1.397636)" gradientUnits="userSpaceOnUse" xlink:href="#linearGradient3247"/><linearGradient id="linearGradient3233"><stop style="stop-color:#eeeeec;stop-opacity:1" id="stop3235" offset="0"/><stop style="stop-color:#a3a398;stop-opacity:1" id="stop3237" offset="1"/></linearGradient><linearGradient id="linearGradient3588" x1="23.434" x2="23.434" y1="15.759" y2="8.048" gradientTransform="matrix(0.312781,0,0,0.254478,2.971779,2.31876)" gradientUnits="userSpaceOnUse" xlink:href="#linearGradient3233"/><linearGradient id="linearGradient8089"><stop style="stop-color:black;stop-opacity:.2783505" id="stop8091" offset="0"/><stop style="stop-color:#a8a8a8;stop-opacity:0" id="stop8093" offset="1"/></linearGradient><radialGradient id="radialGradient8095" cx="24.226" cy="30.48" r="13.354" fx="24.226" fy="30.48" gradientTransform="matrix(0.78324,0,0,0.284289,-8.450085,-1.549352)" gradientUnits="userSpaceOnUse" xlink:href="#linearGradient8089"/><linearGradient id="linearGradient6924"><stop id="stop6926" offset="0" style="stop-color:#fff;stop-opacity:1"/><stop id="stop6928" offset="1" style="stop-color:#fff;stop-opacity:0"/></linearGradient><linearGradient id="linearGradient3584" x1="16.071" x2="16.036" y1="19.5" y2="31.75" gradientTransform="matrix(0.323846,0,0,0.318617,2.845347,1.79574)" gradientUnits="userSpaceOnUse" xlink:href="#linearGradient6924"/><linearGradient id="linearGradient5148"><stop style="stop-color:#d0d0d0;stop-opacity:1" id="stop5150" offset="0"/><stop style="stop-color:#ececec;stop-opacity:1" id="stop5152" offset="1"/></linearGradient><linearGradient id="linearGradient11520"><stop id="stop11522" offset="0" style="stop-color:#fff;stop-opacity:1"/><stop id="stop11524" offset="1" style="stop-color:#dcdcdc;stop-opacity:1"/></linearGradient><linearGradient id="linearGradient11508"><stop id="stop11510" offset="0" style="stop-color:#000;stop-opacity:1"/><stop id="stop11512" offset="1" style="stop-color:#000;stop-opacity:0"/></linearGradient><linearGradient id="linearGradient11494"><stop id="stop11496" offset="0" style="stop-color:#ef2929;stop-opacity:1"/><stop id="stop11498" offset="1" style="stop-color:#ef2929;stop-opacity:0"/></linearGradient><linearGradient id="linearGradient11415"><stop id="stop11417" offset="0" style="stop-color:#204a87;stop-opacity:0"/><stop style="stop-color:#204a87;stop-opacity:1" id="stop11423" offset=".5"/><stop id="stop11419" offset="1" style="stop-color:#204a87;stop-opacity:0"/></linearGradient><linearGradient id="linearGradient11399"><stop id="stop11401" offset="0" style="stop-color:#000;stop-opacity:1"/><stop id="stop11403" offset="1" style="stop-color:#000;stop-opacity:0"/></linearGradient><linearGradient id="linearGradient11425" x1="15.828" x2="43.616" y1="3.774" y2="34.462" gradientTransform="translate(-60.28571,-0.285714)" gradientUnits="userSpaceOnUse" xlink:href="#linearGradient11415"/><linearGradient id="linearGradient11427" x1="9.696" x2="35.68" y1="9.346" y2="39.034" gradientTransform="translate(-60.57143,0)" gradientUnits="userSpaceOnUse" xlink:href="#linearGradient11415"/><linearGradient id="linearGradient11439" x1="13.267" x2="26.759" y1="19.774" y2="33.462" gradientTransform="translate(-60.85714,0.428571)" gradientUnits="userSpaceOnUse" xlink:href="#linearGradient11415"/><radialGradient id="radialGradient11441" cx="12.071" cy="39.143" r="8.5" fx="12.071" fy="39.143" gradientTransform="matrix(1,0,0,0.487395,0,20.06483)" gradientUnits="userSpaceOnUse" xlink:href="#linearGradient11399"/><radialGradient id="radialGradient11500" cx="27.577" cy="15.048" r="3.834" fx="27.577" fy="15.048" gradientTransform="matrix(1.243453,0,0,1.243453,-6.713754,-3.742847)" gradientUnits="userSpaceOnUse" xlink:href="#linearGradient11494"/><radialGradient id="radialGradient11504" cx="27.577" cy="16.049" r="3.834" fx="27.577" fy="16.049" gradientTransform="matrix(1.243453,0,0,1.243453,-6.713754,-3.742847)" gradientUnits="userSpaceOnUse" xlink:href="#linearGradient11494"/><radialGradient id="radialGradient11514" cx="30.204" cy="44.565" r="6.566" fx="30.204" fy="44.565" gradientTransform="matrix(1,0,0,0.338462,0,29.48178)" gradientUnits="userSpaceOnUse" xlink:href="#linearGradient11508"/><radialGradient id="radialGradient11526" cx="24.446" cy="35.878" r="20.531" fx="24.446" fy="35.878" gradientTransform="matrix(1.995058,0,0,1.995058,-24.32488,-35.70087)" gradientUnits="userSpaceOnUse" xlink:href="#linearGradient11520"/><radialGradient id="radialGradient11532" cx="30.204" cy="44.565" r="6.566" fx="30.204" fy="44.565" gradientTransform="matrix(1,0,0,0.338462,0,29.48178)" gradientUnits="userSpaceOnUse" xlink:href="#linearGradient11508"/><radialGradient id="radialGradient1348" cx="30.204" cy="44.565" r="6.566" fx="30.204" fy="44.565" gradientTransform="matrix(1,0,0,0.338462,0,29.48178)" gradientUnits="userSpaceOnUse" xlink:href="#linearGradient11508"/><radialGradient id="radialGradient1350" cx="24.446" cy="35.878" r="20.531" fx="24.446" fy="35.878" gradientTransform="matrix(1.995058,0,0,1.995058,-24.32488,-35.70087)" gradientUnits="userSpaceOnUse" xlink:href="#linearGradient11520"/><radialGradient id="radialGradient1352" cx="27.577" cy="16.049" r="3.834" fx="27.577" fy="16.049" gradientTransform="matrix(1.243453,0,0,1.243453,-6.713754,-3.742847)" gradientUnits="userSpaceOnUse" xlink:href="#linearGradient11494"/><radialGradient id="radialGradient1354" cx="27.577" cy="15.048" r="3.834" fx="27.577" fy="15.048" gradientTransform="matrix(1.243453,0,0,1.243453,-6.713754,-3.742847)" gradientUnits="userSpaceOnUse" xlink:href="#linearGradient11494"/><radialGradient id="radialGradient1356" cx="30.204" cy="44.565" r="6.566" fx="30.204" fy="44.565" gradientTransform="matrix(1,0,0,0.338462,0,29.48178)" gradientUnits="userSpaceOnUse" xlink:href="#linearGradient11508"/><radialGradient id="radialGradient1366" cx="24.446" cy="35.878" r="20.531" fx="24.446" fy="35.878" gradientTransform="matrix(2.049266,0,0,2.049266,-25.65002,-37.31089)" gradientUnits="userSpaceOnUse" xlink:href="#linearGradient11520"/><linearGradient id="linearGradient5154" x1="83.032" x2="66.311" y1="40.924" y2="22.766" gradientTransform="matrix(0.50475,0,0,0.513216,-19.85089,0.947684)" gradientUnits="userSpaceOnUse" xlink:href="#linearGradient5148"/></defs><s:namedview width="32" height="32" fill="#eeeeec" stroke="#ef2929" bordercolor="#666666" borderopacity=".255" pagecolor="#ffffff" showgrid="false"/><metadata id="metadata4"/><g id="layer1"><rect style="opacity:1;color:#000;fill:url(#linearGradient5154);fill-opacity:1;fill-rule:evenodd;stroke:#9b9c98;stroke-width:1.03970253;stroke-linecap:round;stroke-linejoin:round;marker:none;marker-start:none;marker-mid:none;marker-end:none;stroke-miterlimit:10;stroke-dasharray:none;stroke-dashoffset:0;stroke-opacity:1;visibility:visible;display:inline;overflow:visible" id="rect4273" width="17.593" height="10.92" x="9.316" y="11.24" transform="matrix(1,0,-0.379767,0.925082,0,0)"/><rect id="rect5156" width="15.441" height="7.595" x="10.559" y="12.405" ry="0" transform="matrix(1,0,-0.379981,0.924994,0,0)" style="opacity:1;color:#000;fill:none;fill-opacity:1;fill-rule:evenodd;stroke:#fff;stroke-width:1.03975415;stroke-linecap:butt;stroke-linejoin:miter;marker:none;marker-start:none;marker-mid:none;marker-end:none;stroke-miterlimit:10;stroke-dasharray:none;stroke-dashoffset:0;stroke-opacity:1;visibility:visible;display:inline;overflow:visible"/><g id="g2403" transform="matrix(0.764284,0,0,0.764284,-2.884013,-5.597831)"><g style="opacity:.58241763" id="g3799" transform="matrix(0.557846,0,0,0.461866,-85.36183,64.50698)"><path style="opacity:.04787233;fill-rule:evenodd;stroke-width:3pt" id="path1196" d="M 162.36286,-88.911137 C 160.1183,-88.911137 158.3113,-86.711005 158.3113,-83.978106 C 158.3113,-81.245207 160.1183,-79.045075 162.36286,-79.045075 L 199.63718,-79.045075 C 201.88174,-79.045075 203.68873,-81.245207 203.68873,-83.978106 C 203.68873,-86.711005 201.88174,-88.911137 199.63718,-88.911137 L 162.36286,-88.911137 z"/><path style="opacity:.04787233;fill-rule:evenodd;stroke-width:3pt" id="path1195" d="M 162.36286,-88.582269 C 160.26794,-88.582269 158.58141,-86.528812 158.58141,-83.978106 C 158.58141,-81.4274 160.26794,-79.373944 162.36286,-79.373944 L 199.63718,-79.373944 C 201.7321,-79.373944 203.41863,-81.4274 203.41863,-83.978106 C 203.41863,-86.528812 201.7321,-88.582269 199.63718,-88.582269 L 162.36286,-88.582269 z"/><path style="opacity:.04787233;fill-rule:evenodd;stroke-width:3pt" id="path1194" d="M 162.36286,-88.2534 C 160.41757,-88.2534 158.85151,-86.346619 158.85151,-83.978106 C 158.85151,-81.609593 160.41757,-79.702812 162.36286,-79.702812 L 199.63718,-79.702812 C 201.58246,-79.702812 203.14853,-81.609593 203.14853,-83.978106 C 203.14853,-86.346619 201.58246,-88.2534 199.63718,-88.2534 L 162.36286,-88.2534 z"/><path style="opacity:.04787233;fill-rule:evenodd;stroke-width:3pt" id="path1193" d="M 162.36286,-87.924531 C 160.56721,-87.924531 159.12162,-86.164426 159.12162,-83.978106 C 159.12162,-81.791787 160.56721,-80.031681 162.36286,-80.031681 L 199.63718,-80.031681 C 201.43283,-80.031681 202.87842,-81.791787 202.87842,-83.978106 C 202.87842,-86.164426 201.43283,-87.924531 199.63718,-87.924531 L 162.36286,-87.924531 z"/><path style="opacity:.04787233;fill-rule:evenodd;stroke-width:3pt" id="path1192" d="M 162.36309,-87.595662 C 160.71708,-87.595662 159.39195,-85.982232 159.39195,-83.978106 C 159.39195,-81.97398 160.71708,-80.36055 162.36309,-80.36055 L 199.63707,-80.36055 C 201.28308,-80.36055 202.60821,-81.97398 202.60821,-83.978106 C 202.60821,-85.982232 201.28308,-87.595662 199.63707,-87.595662 L 162.36309,-87.595662 z"/><path style="opacity:.04787233;fill-rule:evenodd;stroke-width:3pt" id="path1191" d="M 162.36286,-87.266794 C 160.86649,-87.266794 159.66182,-85.800039 159.66182,-83.978106 C 159.66182,-82.156173 160.86649,-80.689419 162.36286,-80.689419 L 199.63718,-80.689419 C 201.13355,-80.689419 202.33821,-82.156173 202.33821,-83.978106 C 202.33821,-85.800039 201.13355,-87.266794 199.63718,-87.266794 L 162.36286,-87.266794 z"/><path style="opacity:.04787233;fill-rule:evenodd;stroke-width:3pt" id="path1190" d="M 162.36286,-86.937925 C 161.01612,-86.937925 159.93193,-85.617846 159.93193,-83.978106 C 159.93193,-82.338367 161.01612,-81.018287 162.36286,-81.018287 L 199.63718,-81.018287 C 200.98391,-81.018287 202.06811,-82.338367 202.06811,-83.978106 C 202.06811,-85.617846 200.98391,-86.937925 199.63718,-86.937925 L 162.36286,-86.937925 z"/><path style="opacity:.04787233;fill-rule:evenodd;stroke-width:3pt" id="path1189" d="M 162.36286,-86.609056 C 161.16576,-86.609056 160.20203,-85.435652 160.20203,-83.978106 C 160.20203,-82.52056 161.16576,-81.347156 162.36286,-81.347156 L 199.63718,-81.347156 C 200.83428,-81.347156 201.79801,-82.52056 201.79801,-83.978106 C 201.79801,-85.435652 200.83428,-86.609056 199.63718,-86.609056 L 162.36286,-86.609056 z"/></g><rect id="rect2073" width="22" height="18.522" x="4.5" y="7.978" rx="2.385" ry="2.379" style="opacity:1;fill:url(#linearGradient2813);fill-opacity:1;stroke:#8a8a8a;stroke-width:1.30841267;stroke-linecap:round;stroke-linejoin:round;stroke-miterlimit:4;stroke-dasharray:none;stroke-dashoffset:0;stroke-opacity:1"/><rect id="rect2063" width="17.009" height="13.084" x="7.045" y="10.595" rx=".265" ry=".264" style="opacity:1;fill:url(#linearGradient2071);fill-opacity:1;stroke:#888a85;stroke-width:1.30841386;stroke-linecap:round;stroke-linejoin:round;stroke-miterlimit:4;stroke-dasharray:none;stroke-dashoffset:0;stroke-opacity:1"/><path id="path4898" d="M 11.79411,16.401215 C 9.401159,16.552686 7.497239,18.55129 7.497239,20.976579 C 7.497239,21.070239 7.506133,21.158543 7.511707,21.250813 L 16.655216,21.250813 C 16.66079,21.158543 16.669684,21.070239 16.669684,20.976579 C 16.669684,18.4527 14.61333,16.401215 12.083461,16.401215 C 11.984638,16.401215 11.891384,16.395058 11.79411,16.401215 z" style="opacity:1;color:#000;fill:url(#radialGradient4915);fill-opacity:1;fill-rule:evenodd;stroke:none;stroke-width:1;stroke-linecap:round;stroke-linejoin:round;marker:none;marker-start:none;marker-mid:none;marker-end:none;stroke-miterlimit:4;stroke-dasharray:none;stroke-dashoffset:0;stroke-opacity:1;visibility:visible;display:inline;overflow:visible"/><rect id="rect1324" width="15.741" height="1.849" x="7.589" y="21.169" rx="0" ry="0" style="opacity:1;fill:url(#linearGradient4622);fill-opacity:1;stroke:none;stroke-width:1;stroke-linecap:round;stroke-linejoin:round;stroke-miterlimit:4;stroke-dasharray:none;stroke-dashoffset:0;stroke-opacity:1"/><rect id="rect2077" width="19.764" height="15.701" x="5.736" y="9.287" rx="1.866" ry="1.861" style="opacity:1;fill:none;fill-opacity:1;stroke:#fff;stroke-width:1.30841362;stroke-linecap:round;stroke-linejoin:round;stroke-miterlimit:4;stroke-dasharray:none;stroke-dashoffset:0;stroke-opacity:1"/><path id="path2079" d="M 18.031043,21.675958 C 18.031043,21.675958 17.77383,20.25186 17.77383,19.379433 C 17.780965,18.981443 21.378784,15.880975 21.388067,15.419148 L 20.551605,16.146367 L 19.965879,14.55665 L 21.940492,14.760768 L 22.866417,13.837035 L 21.817728,14.605079 L 21.457067,14.523431 L 21.014567,12.913302 L 21.239627,14.482608 L 19.605217,14.400961 L 20.116726,15.699711 L 18.699755,14.298902 L 20.198568,16.248654 C 20.198605,16.683514 17.244461,19.338172 17.249489,18.880431 L 16.024282,17.241 L 15.921981,15.024692 L 16.847906,14.760768 L 17.659085,12.765218 L 16.589772,14.609596 L 15.754976,14.57186 L 13.88628,12.997353 L 11.320439,12.017586 L 13.51249,13.21948 L 11.755318,13.375169 L 14.070131,13.375169 L 15.459018,14.760768 L 15.622699,17.154151 L 13.144206,14.760768 L 14.186474,16.01109 L 12.681243,17.0701 L 14.334682,16.146367 L 16.950206,19.433063 L 16.847906,21.675958 L 18.031043,21.675958 z" style="fill:#000;fill-opacity:1;fill-rule:evenodd;stroke:none;stroke-width:1px;stroke-linecap:butt;stroke-linejoin:miter;stroke-opacity:1"/><path style="opacity:1;color:#000;fill:#fef39e;fill-opacity:1;fill-rule:evenodd;stroke:none;stroke-width:1;stroke-linecap:round;stroke-linejoin:round;marker:none;marker-start:none;marker-mid:none;marker-end:none;stroke-miterlimit:4;stroke-dasharray:none;stroke-dashoffset:0;stroke-opacity:1;visibility:visible;display:inline;overflow:visible" id="path4924" d="M 11.925565,18.563623 C 10.619762,18.646279 9.580816,19.736893 9.580816,21.060343 C 9.580816,21.111452 9.585669,21.159639 9.588711,21.209989 L 14.578209,21.209989 C 14.581251,21.159639 14.586108,21.111452 14.586108,21.060343 C 14.586108,19.683094 13.463979,18.563623 12.083461,18.563623 C 12.029534,18.563623 11.978647,18.560263 11.925565,18.563623 z"/><path id="path4926" d="M 11.963041,19.163267 C 10.967168,19.226305 10.174815,20.058063 10.174815,21.067395 C 10.174815,21.106373 10.178517,21.143122 10.180836,21.181522 L 13.986085,21.181522 C 13.988405,21.143122 13.992108,21.106373 13.992108,21.067395 C 13.992108,20.017033 13.136315,19.163267 12.083461,19.163267 C 12.042334,19.163267 12.003525,19.160705 11.963041,19.163267 z" style="opacity:1;color:#000;fill:#fffbd7;fill-opacity:.55681817;fill-rule:evenodd;stroke:none;stroke-width:1;stroke-linecap:round;stroke-linejoin:round;marker:none;marker-start:none;marker-mid:none;marker-end:none;stroke-miterlimit:4;stroke-dasharray:none;stroke-dashoffset:0;stroke-opacity:1;visibility:visible;display:inline;overflow:visible"/></g></g></svg>