<svg xmlns="http://www.w3.org/2000/svg" xmlns:cc="http://web.resource.org/cc/" xmlns:svg="http://www.w3.org/2000/svg" xmlns:xlink="http://www.w3.org/1999/xlink" id="svg11300" width="24" height="24" version="1.0"><defs id="defs3"><linearGradient id="linearGradient5132"><stop style="stop-color:white;stop-opacity:1" id="stop5134" offset="0"/><stop style="stop-color:white;stop-opacity:0" id="stop5136" offset="1"/></linearGradient><linearGradient id="linearGradient2326"><stop style="stop-color:#fff;stop-opacity:1" id="stop2328" offset="0"/><stop style="stop-color:#fff;stop-opacity:0" id="stop2330" offset="1"/></linearGradient><linearGradient id="linearGradient2308"><stop style="stop-color:#edd400;stop-opacity:1" id="stop2310" offset="0"/><stop style="stop-color:#fff492;stop-opacity:1" id="stop2312" offset="1"/></linearGradient><linearGradient id="linearGradient8662"><stop style="stop-color:#000;stop-opacity:1" id="stop8664" offset="0"/><stop style="stop-color:#000;stop-opacity:0" id="stop8666" offset="1"/></linearGradient><radialGradient id="radialGradient8668" cx="24.837" cy="36.421" r="15.645" fx="24.837" fy="36.421" gradientTransform="matrix(1,0,0,0.536723,0,16.87306)" gradientUnits="userSpaceOnUse" xlink:href="#linearGradient8662"/><linearGradient id="linearGradient2187"><stop id="stop2189" offset="0" style="stop-color:#fff;stop-opacity:1"/><stop id="stop2191" offset="1" style="stop-color:#fff;stop-opacity:0"/></linearGradient><linearGradient id="linearGradient1764" x1="17.061" x2="12.624" y1="11.395" y2="12.584" gradientTransform="matrix(0,-0.478687,-0.479362,0,19.35812,23.94517)" gradientUnits="userSpaceOnUse" xlink:href="#linearGradient2187"/><radialGradient id="radialGradient2332" cx="15.094" cy="13.283" r="10.165" fx="15.094" fy="13.283" gradientTransform="matrix(1.020973,0,0,0.939745,-9.80565,-5.434477)" gradientUnits="userSpaceOnUse" xlink:href="#linearGradient2326"/><linearGradient id="linearGradient1899" x1="22.312" x2="22.312" y1="18.721" y2="16.143" gradientTransform="matrix(0.439315,0,0,0.43826,1.669036,6.6387e-2)" gradientUnits="userSpaceOnUse" xlink:href="#linearGradient2308"/><linearGradient id="linearGradient1901" x1="17" x2="18.23" y1="10.29" y2="11.527" gradientUnits="userSpaceOnUse" xlink:href="#linearGradient5132"/><linearGradient id="linearGradient1903" x1="22.312" x2="22.312" y1="18.721" y2="16.143" gradientTransform="matrix(0.439315,0,0,0.43826,1.669036,6.6387e-2)" gradientUnits="userSpaceOnUse" xlink:href="#linearGradient2308"/><linearGradient id="linearGradient1905" x1="17" x2="18.23" y1="10.29" y2="11.527" gradientUnits="userSpaceOnUse" xlink:href="#linearGradient5132"/></defs><metadata id="metadata4"/><g id="layer1"><path id="path8660" d="M 40.481863 36.421127 A 15.644737 8.3968935 0 1 1 9.1923885,36.421127 A 15.644737 8.3968935 0 1 1 40.481863 36.421127 z" transform="matrix(-0.770376,0,0,-0.408974,30.89493,35.17255)" style="opacity:.14117647;color:#000;fill:url(#radialGradient8668);fill-opacity:1;fill-rule:evenodd;stroke:none;stroke-width:1;stroke-linecap:butt;stroke-linejoin:miter;marker:none;marker-start:none;marker-mid:none;marker-end:none;stroke-miterlimit:10;stroke-dasharray:none;stroke-dashoffset:0;stroke-opacity:1;visibility:visible;display:inline;overflow:visible"/><g id="g1889" transform="translate(4.084077,-0.934739)" style="opacity:.4"><path id="path1432" d="M 15.350687,18.438748 C 22.957308,14.140988 18.853371,5.4720537 11.53711,5.5436033 L 11.53711,1.4347386 L 4.2231828,7.8274487 L 11.53711,14.531739 C 11.53711,14.531739 11.53711,10.481978 11.53711,10.481978 C 16.078881,10.29319 17.899732,13.866915 13.919443,16.639159 C 12.780255,17.432597 13.56941,19.445174 15.350687,18.438748 z" style="opacity:1;color:#000;fill:url(#linearGradient1903);fill-opacity:1;fill-rule:nonzero;stroke:#c4a000;stroke-width:.99999893;stroke-linecap:butt;stroke-linejoin:miter;marker:none;marker-start:none;marker-mid:none;marker-end:none;stroke-miterlimit:4;stroke-dasharray:none;stroke-dashoffset:0;stroke-opacity:1;visibility:visible;display:block;overflow:visible"/><path id="path4247" d="M 10.5625,3.53125 L 5.65625,7.8125 L 10.5625,12.3125 C 10.5625,11.39848 10.5625,10.46875 10.5625,10.46875 C 10.564108,9.9464564 10.97804,9.518727 11.5,9.5 C 14.030538,9.394813 16.071197,10.340609 16.8125,12.0625 C 17.183152,12.923446 17.161272,13.943613 16.75,14.875 C 16.338728,15.806387 15.572606,16.668672 14.46875,17.4375 C 14.304635,17.551805 14.347637,17.671718 14.375,17.71875 C 14.388681,17.742266 14.373799,17.743583 14.40625,17.75 C 14.438701,17.756417 14.578268,17.761404 14.875,17.59375 C 18.369057,15.6196 18.963839,12.97513 18.125,10.6875 C 17.286161,8.39987 14.803156,6.4680023 11.53125,6.5 C 10.997048,6.4980154 10.564485,6.0654517 10.5625,5.53125 L 10.5625,3.53125 z" xlink:href="#path1432" style="opacity:.61797755;color:#000;fill:none;fill-opacity:1;fill-rule:nonzero;stroke:url(#linearGradient1905);stroke-width:.99999893;stroke-linecap:butt;stroke-linejoin:miter;marker:none;marker-start:none;marker-mid:none;marker-end:none;stroke-miterlimit:4;stroke-dasharray:none;stroke-dashoffset:0;stroke-opacity:1;visibility:visible;display:block;overflow:visible"/></g><g id="g1893" transform="translate(-2.723183,-0.214572)"><path style="opacity:1;color:#000;fill:url(#linearGradient1899);fill-opacity:1;fill-rule:nonzero;stroke:#c4a000;stroke-width:.99999893;stroke-linecap:butt;stroke-linejoin:miter;marker:none;marker-start:none;marker-mid:none;marker-end:none;stroke-miterlimit:4;stroke-dasharray:none;stroke-dashoffset:0;stroke-opacity:1;visibility:visible;display:block;overflow:visible" id="path1895" d="M 15.350687,18.438748 C 22.957308,14.140988 18.853371,5.4720537 11.53711,5.5436033 L 11.53711,1.4347386 L 4.2231828,7.8274487 L 11.53711,14.531739 C 11.53711,14.531739 11.53711,10.481978 11.53711,10.481978 C 16.078881,10.29319 17.899732,13.866915 13.919443,16.639159 C 12.780255,17.432597 13.56941,19.445174 15.350687,18.438748 z"/><path style="opacity:.61797755;color:#000;fill:none;fill-opacity:1;fill-rule:nonzero;stroke:url(#linearGradient1901);stroke-width:.99999893;stroke-linecap:butt;stroke-linejoin:miter;marker:none;marker-start:none;marker-mid:none;marker-end:none;stroke-miterlimit:4;stroke-dasharray:none;stroke-dashoffset:0;stroke-opacity:1;visibility:visible;display:block;overflow:visible" id="path1897" d="M 10.5625,3.53125 L 5.65625,7.8125 L 10.5625,12.3125 C 10.5625,11.39848 10.5625,10.46875 10.5625,10.46875 C 10.564108,9.9464564 10.97804,9.518727 11.5,9.5 C 14.030538,9.394813 16.071197,10.340609 16.8125,12.0625 C 17.183152,12.923446 17.161272,13.943613 16.75,14.875 C 16.338728,15.806387 15.572606,16.668672 14.46875,17.4375 C 14.304635,17.551805 14.347637,17.671718 14.375,17.71875 C 14.388681,17.742266 14.373799,17.743583 14.40625,17.75 C 14.438701,17.756417 14.578268,17.761404 14.875,17.59375 C 18.369057,15.6196 18.963839,12.97513 18.125,10.6875 C 17.286161,8.39987 14.803156,6.4680023 11.53125,6.5 C 10.997048,6.4980154 10.564485,6.0654517 10.5625,5.53125 L 10.5625,3.53125 z" xlink:href="#path1432"/></g></g></svg>