<svg xmlns="http://www.w3.org/2000/svg" xmlns:cc="http://web.resource.org/cc/" xmlns:svg="http://www.w3.org/2000/svg" xmlns:xlink="http://www.w3.org/1999/xlink" id="svg7854" width="24" height="24" version="1.0"><defs id="defs7856"><linearGradient id="linearGradient5140"><stop style="stop-color:#eeeeec;stop-opacity:1" id="stop5142" offset="0"/><stop style="stop-color:#d4d4cf;stop-opacity:1" id="stop5144" offset="1"/></linearGradient><linearGradient id="linearGradient5146" x1="12" x2="12" y1="1.268" y2="21.252" gradientTransform="matrix(1.0003114,0,0,0.9852831,-3.7371613e-3,0.9889921)" gradientUnits="userSpaceOnUse" xlink:href="#linearGradient5140"/></defs><metadata id="metadata7859"/><g id="layer1"><rect style="opacity:1;color:#000;fill:url(#linearGradient5146);fill-opacity:1;fill-rule:evenodd;stroke:#888a85;stroke-width:.98378372;stroke-linecap:butt;stroke-linejoin:miter;marker:none;marker-start:none;marker-mid:none;marker-end:none;stroke-miterlimit:4;stroke-dasharray:none;stroke-dashoffset:0;stroke-opacity:1;visibility:visible;display:inline;overflow:visible;enable-background:accumulate" id="rect4559" width="23.016" height="23.016" x=".492" y=".492" rx="1.406" ry="1.541"/><rect style="opacity:1;color:#000;fill:#2e3436;fill-opacity:1;fill-rule:evenodd;stroke:none;stroke-width:3;stroke-linecap:butt;stroke-linejoin:miter;marker:none;marker-start:none;marker-mid:none;marker-end:none;stroke-miterlimit:4;stroke-dasharray:none;stroke-dashoffset:0;stroke-opacity:1;visibility:visible;display:inline;overflow:visible;enable-background:accumulate" id="rect4547" width="3.028" height="3.028" x="2.834" y="18"/><rect id="rect4549" width="3.028" height="3.028" x="5.861" y="18" style="opacity:1;color:#000;fill:#555753;fill-opacity:1;fill-rule:evenodd;stroke:none;stroke-width:3;stroke-linecap:butt;stroke-linejoin:miter;marker:none;marker-start:none;marker-mid:none;marker-end:none;stroke-miterlimit:4;stroke-dasharray:none;stroke-dashoffset:0;stroke-opacity:1;visibility:visible;display:inline;overflow:visible;enable-background:accumulate"/><rect style="opacity:1;color:#000;fill:#888a85;fill-opacity:1;fill-rule:evenodd;stroke:none;stroke-width:3;stroke-linecap:butt;stroke-linejoin:miter;marker:none;marker-start:none;marker-mid:none;marker-end:none;stroke-miterlimit:4;stroke-dasharray:none;stroke-dashoffset:0;stroke-opacity:1;visibility:visible;display:inline;overflow:visible;enable-background:accumulate" id="rect4551" width="3.028" height="3.028" x="8.889" y="18"/><rect id="rect4553" width="3.028" height="3.028" x="11.917" y="18" style="opacity:1;color:#000;fill:#babdb6;fill-opacity:1;fill-rule:evenodd;stroke:none;stroke-width:3;stroke-linecap:butt;stroke-linejoin:miter;marker:none;marker-start:none;marker-mid:none;marker-end:none;stroke-miterlimit:4;stroke-dasharray:none;stroke-dashoffset:0;stroke-opacity:1;visibility:visible;display:inline;overflow:visible;enable-background:accumulate"/><rect style="opacity:1;color:#000;fill:#d3d7cf;fill-opacity:1;fill-rule:evenodd;stroke:none;stroke-width:3;stroke-linecap:butt;stroke-linejoin:miter;marker:none;marker-start:none;marker-mid:none;marker-end:none;stroke-miterlimit:4;stroke-dasharray:none;stroke-dashoffset:0;stroke-opacity:1;visibility:visible;display:inline;overflow:visible;enable-background:accumulate" id="rect4555" width="3.028" height="3.028" x="14.945" y="18"/><rect id="rect4557" width="3.028" height="3.028" x="17.972" y="18" style="opacity:1;color:#000;fill:#eeeeec;fill-opacity:1;fill-rule:evenodd;stroke:none;stroke-width:3;stroke-linecap:butt;stroke-linejoin:miter;marker:none;marker-start:none;marker-mid:none;marker-end:none;stroke-miterlimit:4;stroke-dasharray:none;stroke-dashoffset:0;stroke-opacity:1;visibility:visible;display:inline;overflow:visible;enable-background:accumulate"/><path style="opacity:1;color:#000;fill:none;fill-opacity:1;fill-rule:evenodd;stroke:#babdb6;stroke-width:1;stroke-linecap:round;stroke-linejoin:miter;marker:none;marker-start:none;marker-mid:none;marker-end:none;stroke-miterlimit:4;stroke-dasharray:none;stroke-dashoffset:0;stroke-opacity:1;visibility:visible;display:inline;overflow:visible;enable-background:accumulate" id="path5195" d="M 5.4375,14.5 L 18.5625,3.4375"/><path style="opacity:1;color:#000;fill:none;fill-opacity:1;fill-rule:evenodd;stroke:#000;stroke-width:.89426965;stroke-linecap:round;stroke-linejoin:miter;marker:none;marker-start:none;marker-mid:none;marker-end:none;stroke-miterlimit:4;stroke-dasharray:none;stroke-dashoffset:0;stroke-opacity:1;visibility:visible;display:inline;overflow:visible;enable-background:accumulate" id="path4561" d="M 5.4471348,14.552865 C 11.4067,12.818598 15.963436,9.2721004 18.552865,3.4471348"/><rect id="rect5148" width="21.126" height="21.098" x="1.437" y="1.451" rx=".64" ry=".63" style="opacity:1;color:#000;fill:none;fill-opacity:1;fill-rule:evenodd;stroke:#fff;stroke-width:.90239233;stroke-linecap:butt;stroke-linejoin:miter;marker:none;marker-start:none;marker-mid:none;marker-end:none;stroke-miterlimit:4;stroke-dasharray:none;stroke-dashoffset:0;stroke-opacity:1;visibility:visible;display:inline;overflow:visible;enable-background:accumulate"/><g id="g5166" transform="translate(-17.000001,1.7655914e-8)"><path id="path5150" d="M 20.815455,2.5216315 A 0.30935922,0.30935922 0 1 1 20.196737,2.5216315 A 0.30935922,0.30935922 0 1 1 20.815455,2.5216315 z" transform="matrix(1.6162441,0,0,1.6162441,-12.642856,-1.575572)" style="opacity:1;color:#000;fill:#555753;fill-opacity:1;fill-rule:evenodd;stroke:none;stroke-width:1;stroke-linecap:round;stroke-linejoin:miter;marker:none;marker-start:none;marker-mid:none;marker-end:none;stroke-miterlimit:4;stroke-dasharray:none;stroke-dashoffset:0;stroke-opacity:1;visibility:visible;display:inline;overflow:visible;enable-background:accumulate"/><path style="opacity:1;color:#000;fill:#555753;fill-opacity:1;fill-rule:evenodd;stroke:none;stroke-width:1;stroke-linecap:round;stroke-linejoin:miter;marker:none;marker-start:none;marker-mid:none;marker-end:none;stroke-miterlimit:4;stroke-dasharray:none;stroke-dashoffset:0;stroke-opacity:1;visibility:visible;display:inline;overflow:visible;enable-background:accumulate" id="path5152" d="M 20.815455,2.5216315 A 0.30935922,0.30935922 0 1 1 20.196737,2.5216315 A 0.30935922,0.30935922 0 1 1 20.815455,2.5216315 z" transform="matrix(1.6162441,0,0,1.6162441,-12.642856,0.424428)"/><path id="path5154" d="M 20.815455,2.5216315 A 0.30935922,0.30935922 0 1 1 20.196737,2.5216315 A 0.30935922,0.30935922 0 1 1 20.815455,2.5216315 z" transform="matrix(1.6162441,0,0,1.6162441,-12.642856,2.424428)" style="opacity:1;color:#000;fill:#555753;fill-opacity:1;fill-rule:evenodd;stroke:none;stroke-width:1;stroke-linecap:round;stroke-linejoin:miter;marker:none;marker-start:none;marker-mid:none;marker-end:none;stroke-miterlimit:4;stroke-dasharray:none;stroke-dashoffset:0;stroke-opacity:1;visibility:visible;display:inline;overflow:visible;enable-background:accumulate"/><path style="opacity:1;color:#000;fill:#555753;fill-opacity:1;fill-rule:evenodd;stroke:none;stroke-width:1;stroke-linecap:round;stroke-linejoin:miter;marker:none;marker-start:none;marker-mid:none;marker-end:none;stroke-miterlimit:4;stroke-dasharray:none;stroke-dashoffset:0;stroke-opacity:1;visibility:visible;display:inline;overflow:visible;enable-background:accumulate" id="path5156" d="M 20.815455,2.5216315 A 0.30935922,0.30935922 0 1 1 20.196737,2.5216315 A 0.30935922,0.30935922 0 1 1 20.815455,2.5216315 z" transform="matrix(1.6162441,0,0,1.6162441,-12.642856,4.424428)"/><path id="path5158" d="M 20.815455,2.5216315 A 0.30935922,0.30935922 0 1 1 20.196737,2.5216315 A 0.30935922,0.30935922 0 1 1 20.815455,2.5216315 z" transform="matrix(1.6162441,0,0,1.6162441,-12.642856,6.424428)" style="opacity:1;color:#000;fill:#555753;fill-opacity:1;fill-rule:evenodd;stroke:none;stroke-width:1;stroke-linecap:round;stroke-linejoin:miter;marker:none;marker-start:none;marker-mid:none;marker-end:none;stroke-miterlimit:4;stroke-dasharray:none;stroke-dashoffset:0;stroke-opacity:1;visibility:visible;display:inline;overflow:visible;enable-background:accumulate"/><path style="opacity:1;color:#000;fill:#555753;fill-opacity:1;fill-rule:evenodd;stroke:none;stroke-width:1;stroke-linecap:round;stroke-linejoin:miter;marker:none;marker-start:none;marker-mid:none;marker-end:none;stroke-miterlimit:4;stroke-dasharray:none;stroke-dashoffset:0;stroke-opacity:1;visibility:visible;display:inline;overflow:visible;enable-background:accumulate" id="path5160" d="M 20.815455,2.5216315 A 0.30935922,0.30935922 0 1 1 20.196737,2.5216315 A 0.30935922,0.30935922 0 1 1 20.815455,2.5216315 z" transform="matrix(1.6162441,0,0,1.6162441,-12.642856,8.424428)"/><path id="path5162" d="M 20.815455,2.5216315 A 0.30935922,0.30935922 0 1 1 20.196737,2.5216315 A 0.30935922,0.30935922 0 1 1 20.815455,2.5216315 z" transform="matrix(1.6162441,0,0,1.6162441,-12.642856,10.424428)" style="opacity:1;color:#000;fill:#555753;fill-opacity:1;fill-rule:evenodd;stroke:none;stroke-width:1;stroke-linecap:round;stroke-linejoin:miter;marker:none;marker-start:none;marker-mid:none;marker-end:none;stroke-miterlimit:4;stroke-dasharray:none;stroke-dashoffset:0;stroke-opacity:1;visibility:visible;display:inline;overflow:visible;enable-background:accumulate"/><path style="opacity:1;color:#000;fill:#555753;fill-opacity:1;fill-rule:evenodd;stroke:none;stroke-width:1;stroke-linecap:round;stroke-linejoin:miter;marker:none;marker-start:none;marker-mid:none;marker-end:none;stroke-miterlimit:4;stroke-dasharray:none;stroke-dashoffset:0;stroke-opacity:1;visibility:visible;display:inline;overflow:visible;enable-background:accumulate" id="path5164" d="M 20.815455,2.5216315 A 0.30935922,0.30935922 0 1 1 20.196737,2.5216315 A 0.30935922,0.30935922 0 1 1 20.815455,2.5216315 z" transform="matrix(1.6162441,0,0,1.6162441,-12.642856,12.424428)"/></g><g id="g5176" transform="matrix(0,-1,1,0,3,37.000001)"><path style="opacity:1;color:#000;fill:#555753;fill-opacity:1;fill-rule:evenodd;stroke:none;stroke-width:1;stroke-linecap:round;stroke-linejoin:miter;marker:none;marker-start:none;marker-mid:none;marker-end:none;stroke-miterlimit:4;stroke-dasharray:none;stroke-dashoffset:0;stroke-opacity:1;visibility:visible;display:inline;overflow:visible;enable-background:accumulate" id="path5178" d="M 20.815455,2.5216315 A 0.30935922,0.30935922 0 1 1 20.196737,2.5216315 A 0.30935922,0.30935922 0 1 1 20.815455,2.5216315 z" transform="matrix(1.6162441,0,0,1.6162441,-12.642856,-1.575572)"/><path id="path5180" d="M 20.815455,2.5216315 A 0.30935922,0.30935922 0 1 1 20.196737,2.5216315 A 0.30935922,0.30935922 0 1 1 20.815455,2.5216315 z" transform="matrix(1.6162441,0,0,1.6162441,-12.642856,0.424428)" style="opacity:1;color:#000;fill:#555753;fill-opacity:1;fill-rule:evenodd;stroke:none;stroke-width:1;stroke-linecap:round;stroke-linejoin:miter;marker:none;marker-start:none;marker-mid:none;marker-end:none;stroke-miterlimit:4;stroke-dasharray:none;stroke-dashoffset:0;stroke-opacity:1;visibility:visible;display:inline;overflow:visible;enable-background:accumulate"/><path style="opacity:1;color:#000;fill:#555753;fill-opacity:1;fill-rule:evenodd;stroke:none;stroke-width:1;stroke-linecap:round;stroke-linejoin:miter;marker:none;marker-start:none;marker-mid:none;marker-end:none;stroke-miterlimit:4;stroke-dasharray:none;stroke-dashoffset:0;stroke-opacity:1;visibility:visible;display:inline;overflow:visible;enable-background:accumulate" id="path5182" d="M 20.815455,2.5216315 A 0.30935922,0.30935922 0 1 1 20.196737,2.5216315 A 0.30935922,0.30935922 0 1 1 20.815455,2.5216315 z" transform="matrix(1.6162441,0,0,1.6162441,-12.642856,2.424428)"/><path id="path5184" d="M 20.815455,2.5216315 A 0.30935922,0.30935922 0 1 1 20.196737,2.5216315 A 0.30935922,0.30935922 0 1 1 20.815455,2.5216315 z" transform="matrix(1.6162441,0,0,1.6162441,-12.642856,4.424428)" style="opacity:1;color:#000;fill:#555753;fill-opacity:1;fill-rule:evenodd;stroke:none;stroke-width:1;stroke-linecap:round;stroke-linejoin:miter;marker:none;marker-start:none;marker-mid:none;marker-end:none;stroke-miterlimit:4;stroke-dasharray:none;stroke-dashoffset:0;stroke-opacity:1;visibility:visible;display:inline;overflow:visible;enable-background:accumulate"/><path style="opacity:1;color:#000;fill:#555753;fill-opacity:1;fill-rule:evenodd;stroke:none;stroke-width:1;stroke-linecap:round;stroke-linejoin:miter;marker:none;marker-start:none;marker-mid:none;marker-end:none;stroke-miterlimit:4;stroke-dasharray:none;stroke-dashoffset:0;stroke-opacity:1;visibility:visible;display:inline;overflow:visible;enable-background:accumulate" id="path5186" d="M 20.815455,2.5216315 A 0.30935922,0.30935922 0 1 1 20.196737,2.5216315 A 0.30935922,0.30935922 0 1 1 20.815455,2.5216315 z" transform="matrix(1.6162441,0,0,1.6162441,-12.642856,6.424428)"/><path id="path5188" d="M 20.815455,2.5216315 A 0.30935922,0.30935922 0 1 1 20.196737,2.5216315 A 0.30935922,0.30935922 0 1 1 20.815455,2.5216315 z" transform="matrix(1.6162441,0,0,1.6162441,-12.642856,8.424428)" style="opacity:1;color:#000;fill:#555753;fill-opacity:1;fill-rule:evenodd;stroke:none;stroke-width:1;stroke-linecap:round;stroke-linejoin:miter;marker:none;marker-start:none;marker-mid:none;marker-end:none;stroke-miterlimit:4;stroke-dasharray:none;stroke-dashoffset:0;stroke-opacity:1;visibility:visible;display:inline;overflow:visible;enable-background:accumulate"/><path style="opacity:1;color:#000;fill:#555753;fill-opacity:1;fill-rule:evenodd;stroke:none;stroke-width:1;stroke-linecap:round;stroke-linejoin:miter;marker:none;marker-start:none;marker-mid:none;marker-end:none;stroke-miterlimit:4;stroke-dasharray:none;stroke-dashoffset:0;stroke-opacity:1;visibility:visible;display:inline;overflow:visible;enable-background:accumulate" id="path5190" d="M 20.815455,2.5216315 A 0.30935922,0.30935922 0 1 1 20.196737,2.5216315 A 0.30935922,0.30935922 0 1 1 20.815455,2.5216315 z" transform="matrix(1.6162441,0,0,1.6162441,-12.642856,10.424428)"/><path id="path5192" d="M 20.815455,2.5216315 A 0.30935922,0.30935922 0 1 1 20.196737,2.5216315 A 0.30935922,0.30935922 0 1 1 20.815455,2.5216315 z" transform="matrix(1.6162441,0,0,1.6162441,-12.642856,12.424428)" style="opacity:1;color:#000;fill:#555753;fill-opacity:1;fill-rule:evenodd;stroke:none;stroke-width:1;stroke-linecap:round;stroke-linejoin:miter;marker:none;marker-start:none;marker-mid:none;marker-end:none;stroke-miterlimit:4;stroke-dasharray:none;stroke-dashoffset:0;stroke-opacity:1;visibility:visible;display:inline;overflow:visible;enable-background:accumulate"/></g></g></svg>