<svg xmlns="http://www.w3.org/2000/svg" xmlns:cc="http://web.resource.org/cc/" xmlns:svg="http://www.w3.org/2000/svg" xmlns:xlink="http://www.w3.org/1999/xlink" id="svg3081" width="48" height="48" version="1.0"><defs id="defs3083"><linearGradient id="linearGradient3285"><stop style="stop-color:#41618e;stop-opacity:1" id="stop3287" offset="0"/><stop style="stop-color:#354d74;stop-opacity:1" id="stop3289" offset="1"/></linearGradient><linearGradient id="linearGradient3269"><stop style="stop-color:#729fcf;stop-opacity:1" id="stop3271" offset="0"/><stop style="stop-color:#d9e5f2;stop-opacity:1" id="stop3273" offset="1"/></linearGradient><linearGradient id="linearGradient2371"><stop style="stop-color:#555753;stop-opacity:1" id="stop2373" offset="0"/><stop style="stop-color:#939590;stop-opacity:1" id="stop2375" offset="1"/></linearGradient><linearGradient id="linearGradient3542"><stop id="stop3544" offset="0" style="stop-color:#fff;stop-opacity:.79607844"/><stop id="stop3546" offset="1" style="stop-color:#fff;stop-opacity:.11673152"/></linearGradient><linearGradient id="linearGradient3407"><stop id="stop3409" offset="0" style="stop-color:#fff;stop-opacity:.79607844"/><stop id="stop3411" offset="1" style="stop-color:#fff;stop-opacity:.11372549"/></linearGradient><linearGradient id="linearGradient3401"><stop id="stop3403" offset="0" style="stop-color:#fff;stop-opacity:.79607844"/><stop id="stop3405" offset="1" style="stop-color:#fff;stop-opacity:.11372549"/></linearGradient><linearGradient id="linearGradient3251"><stop style="stop-color:#729fcf;stop-opacity:1" id="stop3253" offset="0"/><stop style="stop-color:#adc7e3;stop-opacity:1" id="stop3255" offset="1"/></linearGradient><linearGradient id="linearGradient3204"><stop style="stop-color:#000;stop-opacity:1" id="stop3206" offset="0"/><stop style="stop-color:#000;stop-opacity:0" id="stop3208" offset="1"/></linearGradient><linearGradient id="linearGradient3116"><stop style="stop-color:#fff;stop-opacity:.79607844" id="stop3118" offset="0"/><stop style="stop-color:#fff;stop-opacity:.21568628" id="stop3120" offset="1"/></linearGradient><linearGradient id="linearGradient3310" x1="4.812" x2="7.464" y1="18.403" y2="8.249" gradientTransform="matrix(-2.181818,0,0,2.181818,48.04545,1.6e-5)" gradientUnits="userSpaceOnUse" xlink:href="#linearGradient3401"/><linearGradient id="linearGradient3323" x1="31.567" x2="17.833" y1="20.709" y2="-.709" gradientUnits="userSpaceOnUse" xlink:href="#linearGradient3401"/><radialGradient id="radialGradient3325" cx="11" cy="22" r="8" fx="11" fy="22" gradientTransform="matrix(1,0,0,0.25,1.249434e-15,16.5)" gradientUnits="userSpaceOnUse" xlink:href="#linearGradient3204"/><linearGradient id="linearGradient3348" x1="26.145" x2="21.771" y1="7.983" y2="1.999" gradientTransform="matrix(0.925512,0,0,0.960943,1.826505,0.182345)" gradientUnits="userSpaceOnUse" xlink:href="#linearGradient3542"/><linearGradient id="linearGradient3356" x1="5.483" x2="7.922" y1="21.099" y2="8.184" gradientTransform="matrix(2.181818,0,0,2.181818,-4.544991e-2,1.6e-5)" gradientUnits="userSpaceOnUse" xlink:href="#linearGradient3407"/><linearGradient id="linearGradient3368" x1="24" x2="24" y1="24.429" y2="31.929" gradientTransform="translate(4.768372e-7,0.958322)" gradientUnits="userSpaceOnUse" xlink:href="#linearGradient2371"/><linearGradient id="linearGradient3376" x1="28.155" x2="23.381" y1="35.458" y2="23.601" gradientUnits="userSpaceOnUse" xlink:href="#linearGradient2371"/><linearGradient id="linearGradient3489" x1="43.762" x2="41.19" y1="38.667" y2="32.762" gradientUnits="userSpaceOnUse" xlink:href="#linearGradient3116"/><linearGradient id="linearGradient3540" x1="24.994" x2="23.429" y1="5.143" y2="4" gradientUnits="userSpaceOnUse" xlink:href="#linearGradient3251"/><linearGradient id="linearGradient3275" x1="16.464" x2="16.25" y1="27.172" y2="19.851" gradientUnits="userSpaceOnUse" xlink:href="#linearGradient3269"/><linearGradient id="linearGradient3283" x1="31.25" x2="29.214" y1="23.351" y2="16.994" gradientUnits="userSpaceOnUse" xlink:href="#linearGradient3269"/><linearGradient id="linearGradient3291" x1="34.571" x2="34" y1="31.779" y2="20.279" gradientUnits="userSpaceOnUse" xlink:href="#linearGradient3285"/><linearGradient id="linearGradient3299" x1="15.143" x2="16" y1="35.994" y2="21.065" gradientUnits="userSpaceOnUse" xlink:href="#linearGradient3285"/><linearGradient id="linearGradient3315" x1="22.779" x2="25.429" y1="3.214" y2="5.5" gradientUnits="userSpaceOnUse" xlink:href="#linearGradient3285"/></defs><metadata id="metadata3086"/><g id="layer1"><rect style="color:#000;fill:url(#linearGradient3376);fill-opacity:1;fill-rule:nonzero;stroke:#555753;stroke-width:.99999923;stroke-linecap:round;stroke-linejoin:miter;marker:none;marker-start:none;marker-mid:none;marker-end:none;stroke-miterlimit:4;stroke-dasharray:none;stroke-dashoffset:17.85;stroke-opacity:1;visibility:visible;display:block;overflow:visible" id="rect3094" width="35.024" height="2" x="6.5" y="28.458" rx="1.347" ry="1"/><path style="color:#000;fill:url(#linearGradient3283);fill-opacity:1;fill-rule:nonzero;stroke:#41618e;stroke-width:.99999982;stroke-linecap:round;stroke-linejoin:miter;marker:none;marker-start:none;marker-mid:none;marker-end:none;stroke-miterlimit:4;stroke-dashoffset:17.85;stroke-opacity:1;visibility:visible;display:block;overflow:visible" id="path3350" d="M 33,21 L 28,17 L 24,16 L 29,23 L 35,39 L 35.999999,43.272725 L 38.5,37 L 33,21 z"/><path style="color:#000;fill:url(#linearGradient3275);fill-opacity:1;fill-rule:nonzero;stroke:#41618e;stroke-width:.99999982;stroke-linecap:round;stroke-linejoin:miter;marker:none;marker-start:none;marker-mid:none;marker-end:none;stroke-miterlimit:4;stroke-dashoffset:17.85;stroke-opacity:1;visibility:visible;display:block;overflow:visible" id="rect1319" d="M 15,21 L 20,17 L 24,16 L 19,23 L 13,39 L 12.000001,43.272725 L 9.5,37 L 15,21 z"/><path style="opacity:.2;color:#000;fill:url(#radialGradient3325);fill-opacity:1;fill-rule:nonzero;stroke:none;stroke-width:1;stroke-linecap:round;stroke-linejoin:miter;marker:none;marker-start:none;marker-mid:none;marker-end:none;stroke-miterlimit:4;stroke-dasharray:none;stroke-dashoffset:17.85;stroke-opacity:1;visibility:visible;display:block;overflow:visible" id="path3202" d="M 19 22 A 8 2 0 1 1 3,22 A 8 2 0 1 1 19 22 z" transform="matrix(3,0,0,1.636363,-8.954541,8.727288)"/><rect style="color:#000;fill:url(#linearGradient3540);fill-opacity:1;fill-rule:nonzero;stroke:url(#linearGradient3315);stroke-width:1.00000048;stroke-linecap:round;stroke-linejoin:miter;marker:none;marker-start:none;marker-mid:none;marker-end:none;stroke-miterlimit:4;stroke-dasharray:none;stroke-dashoffset:17.85;stroke-opacity:1;visibility:visible;display:block;overflow:visible" id="rect3078" width="5.006" height="6.996" x="21.494" y=".502" rx="1.252" ry="1.399"/><path style="color:#000;fill:none;fill-opacity:1;fill-rule:nonzero;stroke:url(#linearGradient3310);stroke-width:.99999982;stroke-linecap:round;stroke-linejoin:miter;marker:none;marker-start:none;marker-mid:none;marker-end:none;stroke-miterlimit:4;stroke-dashoffset:17.85;stroke-opacity:1;visibility:visible;display:block;overflow:visible" id="path3241" d="M 32,21.5 L 27,17.5 L 27,18.5 L 30,22.5 L 35.5,37.5 L 36,42 L 37.5,37 L 32,21.5 z"/><path style="color:#000;fill:none;fill-opacity:1;fill-rule:nonzero;stroke:url(#linearGradient3291);stroke-width:.99999982;stroke-linecap:round;stroke-linejoin:miter;marker:none;marker-start:none;marker-mid:none;marker-end:none;stroke-miterlimit:4;stroke-dashoffset:17.85;stroke-opacity:1;visibility:visible;display:block;overflow:visible" id="path3352" d="M 33,21 L 28,17 L 24,16 L 29,23 L 35,39 L 35.999999,43.272725 L 38.5,37 L 33,21 z"/><rect style="color:#000;fill:none;fill-opacity:1;fill-rule:nonzero;stroke:url(#linearGradient3348);stroke-width:1.00000095;stroke-linecap:round;stroke-linejoin:miter;marker:none;marker-start:none;marker-mid:none;marker-end:none;stroke-miterlimit:4;stroke-dasharray:none;stroke-dashoffset:17.85;stroke-opacity:1;visibility:visible;display:block;overflow:visible" id="rect3338" width="3.048" height="5.008" x="22.476" y="1.492" rx=".512" ry=".502"/><path style="color:#000;fill:none;fill-opacity:1;fill-rule:nonzero;stroke:url(#linearGradient3356);stroke-width:.99999982;stroke-linecap:round;stroke-linejoin:miter;marker:none;marker-start:none;marker-mid:none;marker-end:none;stroke-miterlimit:4;stroke-dashoffset:17.85;stroke-opacity:1;visibility:visible;display:block;overflow:visible" id="path3354" d="M 16,21.5 L 21,17.5 L 21,18.5 L 18,22.5 L 12.5,38 L 12,42 L 10.5,37 L 16,21.5 z"/><path style="color:#000;fill:none;fill-opacity:1;fill-rule:nonzero;stroke:url(#linearGradient3299);stroke-width:.99999982;stroke-linecap:round;stroke-linejoin:miter;marker:none;marker-start:none;marker-mid:none;marker-end:none;stroke-miterlimit:4;stroke-dashoffset:17.85;stroke-opacity:1;visibility:visible;display:block;overflow:visible" id="path3358" d="M 15,21 L 20,17 L 24,16 L 19,23 L 13,39 L 12.000001,43.272725 L 9.5,37 L 15,21 z"/><path style="color:#000;fill:#babdb6;fill-opacity:1;fill-rule:nonzero;stroke:#555753;stroke-width:1;stroke-linecap:round;stroke-linejoin:miter;marker:none;marker-start:none;marker-mid:none;marker-end:none;stroke-miterlimit:4;stroke-dasharray:none;stroke-dashoffset:17.85;stroke-opacity:1;visibility:visible;display:block;overflow:visible" id="path1317" d="M 23.84375 7.5 C 20.873237 7.5753421 18.5 10.011438 18.5 13 C 18.5 16.035999 20.964 18.5 24 18.5 C 27.036 18.5 29.499999 16.035999 29.5 13 C 29.5 9.964001 27.036001 7.5000002 24 7.5 C 23.952562 7.5 23.890901 7.4988041 23.84375 7.5 z M 23.75 10.5 C 23.834009 10.49146 23.91375 10.5 24 10.5 C 25.379998 10.5 26.5 11.620002 26.5 13 C 26.5 14.379998 25.379999 15.5 24 15.5 C 22.62 15.5 21.5 14.379998 21.5 13 C 21.5 11.706252 22.489869 10.6281 23.75 10.5 z"/><path style="color:#000;fill:none;fill-opacity:1;fill-rule:nonzero;stroke:url(#linearGradient3323);stroke-width:2.07780226;stroke-linecap:round;stroke-linejoin:miter;marker:none;marker-start:none;marker-mid:none;marker-end:none;stroke-miterlimit:4;stroke-dasharray:none;stroke-dashoffset:17.85;stroke-opacity:1;visibility:visible;display:block;overflow:visible" id="path3112" d="M 33.791409 10 A 9.0414085 9.636549 0 1 1 15.708591,10 A 9.0414085 9.636549 0 1 1 33.791409 10 z" transform="matrix(0.496857,0,0,0.466187,11.70029,8.335676)"/><rect style="opacity:1;color:#000;fill:url(#linearGradient3368);fill-opacity:1;fill-rule:nonzero;stroke:#555753;stroke-width:1.00000012;stroke-linecap:round;stroke-linejoin:miter;marker:none;marker-start:none;marker-mid:none;marker-end:none;stroke-miterlimit:4;stroke-dasharray:none;stroke-dashoffset:17.85;stroke-opacity:1;visibility:visible;display:block;overflow:visible" id="rect3360" width="3" height="10.083" x="22.5" y="24.417" rx="1.25" ry=".917"/><g id="g3394" style="fill:#fff;fill-opacity:1;opacity:.48627451"><rect id="rect3384" width="2" height="1" x="23" y="33" rx="1.25" ry=".917" style="opacity:1;color:#000;fill:#fff;fill-opacity:1;fill-rule:nonzero;stroke:none;stroke-width:1;stroke-linecap:round;stroke-linejoin:miter;marker:none;marker-start:none;marker-mid:none;marker-end:none;stroke-miterlimit:4;stroke-dasharray:none;stroke-dashoffset:17.85;stroke-opacity:1;visibility:visible;display:block;overflow:visible"/><rect id="rect3386" width="2" height="1" x="23" y="31" rx="1.25" ry=".917" style="opacity:1;color:#000;fill:#fff;fill-opacity:1;fill-rule:nonzero;stroke:none;stroke-width:1;stroke-linecap:round;stroke-linejoin:miter;marker:none;marker-start:none;marker-mid:none;marker-end:none;stroke-miterlimit:4;stroke-dasharray:none;stroke-dashoffset:17.85;stroke-opacity:1;visibility:visible;display:block;overflow:visible"/><rect id="rect3388" width="2" height="1" x="23" y="29" rx="1.25" ry=".917" style="opacity:1;color:#000;fill:#fff;fill-opacity:1;fill-rule:nonzero;stroke:none;stroke-width:1;stroke-linecap:round;stroke-linejoin:miter;marker:none;marker-start:none;marker-mid:none;marker-end:none;stroke-miterlimit:4;stroke-dasharray:none;stroke-dashoffset:17.85;stroke-opacity:1;visibility:visible;display:block;overflow:visible"/><rect id="rect3390" width="2" height="1" x="23" y="25" rx="1.25" ry=".917" style="opacity:1;color:#000;fill:#fff;fill-opacity:1;fill-rule:nonzero;stroke:none;stroke-width:1;stroke-linecap:round;stroke-linejoin:miter;marker:none;marker-start:none;marker-mid:none;marker-end:none;stroke-miterlimit:4;stroke-dasharray:none;stroke-dashoffset:17.85;stroke-opacity:1;visibility:visible;display:block;overflow:visible"/><rect id="rect3392" width="2" height="1" x="23" y="27" rx="1.25" ry=".917" style="opacity:1;color:#000;fill:#fff;fill-opacity:1;fill-rule:nonzero;stroke:none;stroke-width:1;stroke-linecap:round;stroke-linejoin:miter;marker:none;marker-start:none;marker-mid:none;marker-end:none;stroke-miterlimit:4;stroke-dasharray:none;stroke-dashoffset:17.85;stroke-opacity:1;visibility:visible;display:block;overflow:visible"/></g><path style="opacity:1;color:#000;fill:#babdb6;fill-opacity:1;fill-rule:nonzero;stroke:#555753;stroke-width:.80000001;stroke-linecap:round;stroke-linejoin:miter;marker:none;marker-start:none;marker-mid:none;marker-end:none;stroke-miterlimit:4;stroke-dasharray:none;stroke-dashoffset:17.85;stroke-opacity:1;visibility:visible;display:block;overflow:visible" id="path3413" d="M 45 36 A 2 2 0 1 1 41,36 A 2 2 0 1 1 45 36 z" transform="matrix(1.25,0,0,1.25,-18.75,-9)"/><path style="opacity:1;color:#000;fill:none;fill-opacity:1;fill-rule:nonzero;stroke:url(#linearGradient3489);stroke-width:1.33333337;stroke-linecap:round;stroke-linejoin:miter;marker:none;marker-start:none;marker-mid:none;marker-end:none;stroke-miterlimit:4;stroke-dasharray:none;stroke-dashoffset:17.85;stroke-opacity:1;visibility:visible;display:block;overflow:visible" id="path3481" d="M 45 36 A 2 2 0 1 1 41,36 A 2 2 0 1 1 45 36 z" transform="matrix(0.75,0,0,0.75,2.75,9)"/></g></svg>