<svg xmlns="http://www.w3.org/2000/svg" xmlns:cc="http://web.resource.org/cc/" xmlns:svg="http://www.w3.org/2000/svg" xmlns:xlink="http://www.w3.org/1999/xlink" id="svg11300" width="32" height="32" version="1.0"><metadata id="metadata4738"/><defs id="defs3"><linearGradient id="linearGradient5274"><stop style="stop-color:#555753;stop-opacity:1" id="stop5276" offset="0"/><stop style="stop-color:#cacbc9;stop-opacity:1" id="stop5278" offset="1"/></linearGradient><linearGradient id="linearGradient5260"><stop id="stop5264" offset="0" style="stop-color:#fff;stop-opacity:1"/><stop id="stop5262" offset="1" style="stop-color:#c9c9c3;stop-opacity:1"/></linearGradient><linearGradient id="linearGradient5238"><stop style="stop-color:#888a85;stop-opacity:1" id="stop5240" offset="0"/><stop style="stop-color:#70726d;stop-opacity:1" id="stop5242" offset="1"/></linearGradient><linearGradient id="linearGradient5503"><stop style="stop-color:#000;stop-opacity:1" id="stop5505" offset="0"/><stop style="stop-color:#000;stop-opacity:0" id="stop5507" offset="1"/></linearGradient><linearGradient id="linearGradient5371"><stop style="stop-color:#fff;stop-opacity:1" id="stop5373" offset="0"/><stop style="stop-color:#fff;stop-opacity:0" id="stop5375" offset="1"/></linearGradient><linearGradient id="linearGradient8542"><stop style="stop-color:#5b676b;stop-opacity:1" id="stop8544" offset="0"/><stop style="stop-color:#141718;stop-opacity:1" id="stop8546" offset="1"/></linearGradient><linearGradient id="linearGradient8534"><stop style="stop-color:black;stop-opacity:1" id="stop8536" offset="0"/><stop style="stop-color:black;stop-opacity:0" id="stop8538" offset="1"/></linearGradient><linearGradient id="linearGradient8524"><stop style="stop-color:white;stop-opacity:1" id="stop8526" offset="0"/><stop style="stop-color:white;stop-opacity:0" id="stop8528" offset="1"/></linearGradient><linearGradient id="linearGradient2446"><stop style="stop-color:white;stop-opacity:1" id="stop2448" offset="0"/><stop style="stop-color:white;stop-opacity:0" id="stop2450" offset="1"/></linearGradient><linearGradient id="linearGradient2452" x1="13.236" x2="7.752" y1="37.752" y2="42.282" gradientTransform="matrix(0.755165,0.395143,-0.395143,0.755165,-25.91245,6.532586)" gradientUnits="userSpaceOnUse" xlink:href="#linearGradient2446"/><linearGradient id="linearGradient6963"><stop style="stop-color:#696969;stop-opacity:1" id="stop6965" offset="0"/><stop style="stop-color:black;stop-opacity:1" id="stop6967" offset="1"/></linearGradient><radialGradient id="radialGradient6969" cx="15.415" cy="35.357" r="7.579" fx="15.415" fy="35.357" gradientTransform="matrix(1.572694,0,0,1.532639,-55.36682,-21.35823)" gradientUnits="userSpaceOnUse" xlink:href="#linearGradient6963"/><linearGradient id="linearGradient6939"><stop style="stop-color:#bdbdbd;stop-opacity:1" id="stop6941" offset="0"/><stop style="stop-color:#e2e2e2;stop-opacity:1" id="stop6947" offset=".333"/><stop style="stop-color:#a3a3a3;stop-opacity:1" id="stop6949" offset=".667"/><stop style="stop-color:#ddd;stop-opacity:1" id="stop6943" offset="1"/></linearGradient><linearGradient id="linearGradient6945" x1="19.395" x2="23.109" y1="30.001" y2="33.439" gradientTransform="translate(-46.40695,-1.802856)" gradientUnits="userSpaceOnUse" xlink:href="#linearGradient6939"/><linearGradient id="linearGradient6951"><stop style="stop-color:#6e3d09;stop-opacity:1" id="stop6953" offset="0"/><stop style="stop-color:#ea8113;stop-opacity:1" id="stop6959" offset=".242"/><stop style="stop-color:#5c3307;stop-opacity:1" id="stop6961" offset=".621"/><stop style="stop-color:#e07c12;stop-opacity:1" id="stop6955" offset="1"/></linearGradient><linearGradient id="linearGradient6957" x1="37.018" x2="27.754" y1="19.24" y2="11.182" gradientTransform="translate(-49.30496,1.877723)" gradientUnits="userSpaceOnUse" xlink:href="#linearGradient6951"/><linearGradient id="linearGradient6500"><stop style="stop-color:#857c63;stop-opacity:1" id="stop6502" offset="0"/><stop style="stop-color:#221f19;stop-opacity:1" id="stop6504" offset="1"/></linearGradient><linearGradient id="linearGradient6492"><stop style="stop-color:black;stop-opacity:1" id="stop6494" offset="0"/><stop style="stop-color:black;stop-opacity:0" id="stop6496" offset="1"/></linearGradient><linearGradient id="linearGradient6482"><stop style="stop-color:black;stop-opacity:1" id="stop6484" offset="0"/><stop style="stop-color:black;stop-opacity:0" id="stop6486" offset="1"/></linearGradient><linearGradient id="linearGradient6468"><stop style="stop-color:white;stop-opacity:1" id="stop6470" offset="0"/><stop style="stop-color:#b9b9b0;stop-opacity:1" id="stop6472" offset="1"/></linearGradient><linearGradient id="linearGradient6452"><stop style="stop-color:white;stop-opacity:1" id="stop6454" offset="0"/><stop style="stop-color:white;stop-opacity:0" id="stop6456" offset="1"/></linearGradient><linearGradient id="linearGradient6458" x1="6.305" x2="5.985" y1="23.362" y2="31.57" gradientUnits="userSpaceOnUse" xlink:href="#linearGradient6452"/><radialGradient id="radialGradient6474" cx="69.473" cy="19.598" r="3.515" fx="69.473" fy="19.598" gradientTransform="matrix(1.318488,0,0,1.318488,-22.1264,-6.241691)" gradientUnits="userSpaceOnUse" xlink:href="#linearGradient6468"/><radialGradient id="radialGradient6498" cx="23" cy="33.938" r="18.25" fx="23" fy="33.938" gradientTransform="matrix(1,0,0,0.284247,0,24.29088)" gradientUnits="userSpaceOnUse" xlink:href="#linearGradient6492"/><linearGradient id="linearGradient8530" x1="14.969" x2="39.525" y1="19.111" y2="46.986" gradientUnits="userSpaceOnUse" xlink:href="#linearGradient8524"/><radialGradient id="radialGradient8548" cx="6.024" cy="25.271" r="4.831" fx="6.024" fy="25.271" gradientTransform="matrix(0.916159,9.318684e-2,-0.108765,1.069309,3.253668,-3.029272)" gradientUnits="userSpaceOnUse" xlink:href="#linearGradient8542"/><linearGradient id="linearGradient4330" x1="26.163" x2="24.329" y1="30.543" y2="30.985" gradientUnits="userSpaceOnUse" xlink:href="#linearGradient8534"/><linearGradient id="linearGradient4351" x1="32.35" x2="21.213" y1="28.083" y2="30.293" gradientTransform="translate(-3.836549,0.345971)" gradientUnits="userSpaceOnUse" xlink:href="#linearGradient6482"/><radialGradient id="radialGradient4354" cx="18.558" cy="22.3" r="19.229" fx="18.558" fy="22.3" gradientTransform="matrix(1.77275,0,0,1.29668,-16.3404,-6.615959)" gradientUnits="userSpaceOnUse" xlink:href="#linearGradient6500"/><radialGradient id="radialGradient4363" cx="69.473" cy="19.598" r="3.515" fx="69.473" fy="19.598" gradientTransform="matrix(1.318488,0,0,1.318488,-22.1264,-6.241691)" gradientUnits="userSpaceOnUse" xlink:href="#linearGradient6468"/><radialGradient id="radialGradient4778" cx="23" cy="33.938" r="18.25" fx="23" fy="33.938" gradientTransform="matrix(1,0,0,0.434932,-1.6364745,1.8623189)" gradientUnits="userSpaceOnUse" xlink:href="#linearGradient6492"/><filter id="filter5403"><feGaussianBlur id="feGaussianBlur5405" stdDeviation=".13"/></filter><filter id="filter5493" width="1.342" height="1.787" x="-.171" y="-.394"><feGaussianBlur id="feGaussianBlur5495" stdDeviation="2.603"/></filter><radialGradient id="radialGradient5499" cx="23" cy="33.938" r="18.25" fx="23" fy="33.938" gradientTransform="matrix(1,0,0,0.434932,-2.441038,42.186435)" gradientUnits="userSpaceOnUse" xlink:href="#linearGradient6492"/><filter id="filter5559" width="1.198" height="1.649" x="-.099" y="-.324"><feGaussianBlur id="feGaussianBlur5561" stdDeviation="1.724"/></filter><filter id="filter5234" width="2.032" height="1.095" x="-.516" y="-.047"><feGaussianBlur id="feGaussianBlur5236" stdDeviation=".538"/></filter><radialGradient id="radialGradient5309" cx="18.558" cy="22.3" r="19.229" fx="18.558" fy="22.3" gradientTransform="matrix(1.77275,0,0,1.29668,2.6784679,-6.9555816)" gradientUnits="userSpaceOnUse" xlink:href="#linearGradient6500"/><linearGradient id="linearGradient5311" x1="14.969" x2="39.525" y1="19.111" y2="46.986" gradientTransform="translate(19.018868,-0.3396226)" gradientUnits="userSpaceOnUse" xlink:href="#linearGradient8524"/><radialGradient id="radialGradient5313" cx="69.473" cy="19.598" r="3.515" fx="69.473" fy="19.598" gradientTransform="matrix(1.684735,0,0,1.684735,-84.380372,-14.822902)" gradientUnits="userSpaceOnUse" xlink:href="#linearGradient6468"/><radialGradient id="radialGradient5315" cx="6.024" cy="25.271" r="4.831" fx="6.024" fy="25.271" gradientTransform="matrix(0.797511,-0.4604432,0.5374129,0.9308275,5.1072979,2.247187)" gradientUnits="userSpaceOnUse" xlink:href="#linearGradient8542"/><linearGradient id="linearGradient5317" x1="6.305" x2="5.985" y1="23.362" y2="31.57" gradientTransform="matrix(0.800389,-0.599481,0.599481,0.800389,3.7444679,6.9882174)" gradientUnits="userSpaceOnUse" xlink:href="#linearGradient6452"/><radialGradient id="radialGradient5319" cx="69.473" cy="19.598" r="3.515" fx="69.473" fy="19.598" gradientTransform="matrix(1.977732,0,0,1.977732,-96.338942,-20.620679)" gradientUnits="userSpaceOnUse" xlink:href="#linearGradient6468"/><radialGradient id="radialGradient5323" cx="47.928" cy="33.067" r="1.913" fx="47.928" fy="33.067" gradientTransform="matrix(1.7525219,0,0,1.554122,-36.067051,-18.506723)" gradientUnits="userSpaceOnUse" xlink:href="#linearGradient5371"/><radialGradient id="radialGradient5339" cx="17.375" cy="65.13" r="20.875" fx="17.375" fy="65.13" gradientTransform="matrix(1.8982036,0.1736527,-5.260577e-2,0.5750355,-12.180079,17.655779)" gradientUnits="userSpaceOnUse" xlink:href="#linearGradient5503"/><radialGradient id="radialGradient5341" cx="26.461" cy="29.594" r="5.148" fx="26.461" fy="29.594" gradientTransform="matrix(2.0574682,0,0,1.8483445,-28.101416,-25.56526)" gradientUnits="userSpaceOnUse" xlink:href="#linearGradient5260"/><radialGradient id="radialGradient5343" cx="12.086" cy="27.437" r="5.148" fx="12.086" fy="27.437" gradientTransform="matrix(1,0,0,0.8983587,1.4397924,2.7887843)" gradientUnits="userSpaceOnUse" xlink:href="#linearGradient5260"/><linearGradient id="linearGradient5345" x1="17.75" x2="2.625" y1="44.25" y2="54" gradientUnits="userSpaceOnUse" xlink:href="#linearGradient5238"/><linearGradient id="linearGradient5347" x1="30" x2="44.5" y1="35.875" y2="44.25" gradientTransform="matrix(1.0680689,0,0,0.9837398,-1.2252408,0.4695122)" gradientUnits="userSpaceOnUse" xlink:href="#linearGradient5238"/><linearGradient id="linearGradient5349" x1="30" x2="30" y1="35.875" y2="28.371" gradientTransform="matrix(1.0680689,0,0,0.9837398,-1.2252408,0.4695122)" gradientUnits="userSpaceOnUse" xlink:href="#linearGradient5274"/></defs><path id="path6490" d="M 39.613525,16.622805 C 39.613525,21.006564 31.442722,24.560303 21.363525,24.560303 C 11.284328,24.560303 3.1135255,21.006564 3.1135255,16.622805 C 3.1135255,12.239047 11.284328,8.6853079 21.363525,8.6853079 C 31.442722,8.6853079 39.613525,12.239047 39.613525,16.622805 z" transform="matrix(0.5991204,0,0,0.5991204,7.3267637,5.6030827)" style="opacity:.51807233;color:#000;fill:url(#radialGradient4778);fill-opacity:1;fill-rule:evenodd;stroke:none;stroke-width:.9999997;stroke-linecap:butt;stroke-linejoin:miter;marker:none;marker-start:none;marker-mid:none;marker-end:none;stroke-miterlimit:10;stroke-dasharray:none;stroke-dashoffset:0;stroke-opacity:1;visibility:visible;display:inline;overflow:visible;filter:url(#filter5493)"/><g id="g5294" transform="matrix(0.6179617,0,0,0.6179617,-4.5317763,-4.0068505)"><path style="color:#000;fill:url(#radialGradient5309);fill-opacity:1;fill-rule:evenodd;stroke:#2e3436;stroke-width:1.61822295;stroke-linecap:butt;stroke-linejoin:miter;marker:none;marker-start:none;marker-mid:none;marker-end:none;stroke-miterlimit:10;stroke-dasharray:none;stroke-dashoffset:0;stroke-opacity:1;visibility:visible;display:inline;overflow:visible" id="path4323" d="M 29.393237,12.128261 C 29.393237,12.128261 32.267746,18.055895 38.992479,17.888668 C 53.084994,17.535115 55.556188,10.183718 55.909741,9.1230578 C 56.263295,8.0623976 56.804275,8.2230599 56.929348,9.2033244 C 61.525542,50.922624 25.032417,33.0225 23.736382,25.916844 C 30.984227,23.795524 29.21646,19.729659 29.21646,19.729659 L 29.393237,12.128261 z"/><path style="opacity:.18539327;color:#000;fill:none;fill-opacity:1;fill-rule:evenodd;stroke:url(#linearGradient5311);stroke-width:1.61822295;stroke-linecap:butt;stroke-linejoin:miter;marker:none;marker-start:none;marker-mid:none;marker-end:none;stroke-miterlimit:10;stroke-dasharray:none;stroke-dashoffset:0;stroke-opacity:1;visibility:visible;display:inline;overflow:visible" id="path8520" d="M 55.987618,11.504127 C 55.42564,12.431022 54.581126,13.537293 53.300118,14.597877 C 50.6682,16.776919 46.249555,18.760224 39.018868,18.941627 C 34.794495,19.046676 32.066127,17.007478 30.393868,15.191627 L 30.268868,19.660377 C 30.404975,20.079179 30.684323,21.050875 30.206368,22.379127 C 29.692054,23.808423 28.051854,25.27049 25.237618,26.379127 C 25.487948,26.90116 25.733102,27.422747 26.487618,28.160377 C 27.515568,29.165322 28.944651,30.248426 30.643868,31.222877 C 34.042301,33.171779 38.445451,34.716089 42.550118,34.785377 C 46.654785,34.854665 50.407244,33.550827 52.987618,29.785377 C 55.366362,26.314159 56.670091,20.437434 55.987618,11.504127 z"/><path style="color:#000;fill:url(#radialGradient5313);fill-opacity:1;fill-rule:evenodd;stroke:#888a85;stroke-width:1.61822319;stroke-linecap:butt;stroke-linejoin:miter;marker:none;marker-start:none;marker-mid:none;marker-end:none;stroke-miterlimit:10;stroke-dasharray:none;stroke-dashoffset:0;stroke-opacity:1;visibility:visible;display:inline;overflow:visible" id="path4357" d="M 36.729505,21.055494 C 36.730068,23.301407 34.909553,25.122378 32.663639,25.122378 C 30.417727,25.122378 28.597212,23.301407 28.597775,21.055494 C 28.597212,18.80958 30.417727,16.98861 32.663641,16.98861 C 34.909553,16.98861 36.730068,18.80958 36.729505,21.055494 z"/><path style="color:#000;fill:url(#radialGradient5315);fill-opacity:1;fill-rule:evenodd;stroke:#000;stroke-width:1.61822355;stroke-linecap:butt;stroke-linejoin:miter;marker:none;marker-start:none;marker-mid:none;marker-end:none;stroke-miterlimit:10;stroke-dasharray:none;stroke-dashoffset:0;stroke-opacity:1;visibility:visible;display:inline;overflow:visible" id="path5198" d="M 28.63007,22.587402 C 30.600742,25.319017 30.625734,28.667917 28.685892,30.067379 C 26.746049,31.466842 23.575951,30.386919 21.60528,27.655304 C 19.634608,24.923689 19.609616,21.57479 21.549459,20.175327 C 23.489301,18.775865 26.659399,19.855788 28.63007,22.587402 L 28.63007,22.587402 z"/><path style="color:#000;fill:#2e3436;fill-opacity:1;fill-rule:evenodd;stroke:#000;stroke-width:1.61822343;stroke-linecap:butt;stroke-linejoin:miter;marker:none;marker-start:none;marker-mid:none;marker-end:none;stroke-miterlimit:10;stroke-dasharray:none;stroke-dashoffset:0;stroke-opacity:1;visibility:visible;display:inline;overflow:visible" id="path4359" d="M 32.718984,22.618613 C 32.719089,22.977489 32.428192,23.268472 32.069316,23.268472 C 31.71044,23.268472 31.419543,22.977489 31.419649,22.618613 C 31.419543,22.259737 31.71044,21.968754 32.069316,21.968754 C 32.428192,21.968754 32.719089,22.259737 32.718984,22.618613 L 32.718984,22.618613 z"/><path style="opacity:.28089887;color:#000;fill:none;fill-opacity:1;fill-rule:evenodd;stroke:url(#linearGradient5317);stroke-width:1.61822355;stroke-linecap:butt;stroke-linejoin:miter;marker:none;marker-start:none;marker-mid:none;marker-end:none;stroke-miterlimit:10;stroke-dasharray:none;stroke-dashoffset:0;stroke-opacity:1;visibility:visible;display:inline;overflow:visible" id="path6450" d="M 21.904089,21.068748 C 21.265179,21.547284 20.928452,22.356931 20.958791,23.455636 C 20.98913,24.554341 21.422728,25.89955 22.312685,27.087765 C 23.202643,28.275979 24.371607,29.070409 25.417431,29.408529 C 26.463255,29.746649 27.334925,29.651222 27.973834,29.172687 C 28.612744,28.694152 28.950689,27.845839 28.925411,26.742054 C 28.900133,25.638269 28.47827,24.320564 27.59025,23.134937 C 26.702231,21.94931 25.556362,21.173876 24.504239,20.839185 C 23.452116,20.504493 22.542999,20.590213 21.904089,21.068748 z"/><path style="color:#000;fill:#fff;fill-opacity:1;fill-rule:evenodd;stroke:none;stroke-width:.9999997;stroke-linecap:butt;stroke-linejoin:miter;marker:none;marker-start:none;marker-mid:none;marker-end:none;stroke-miterlimit:10;stroke-dasharray:none;stroke-dashoffset:0;stroke-opacity:1;visibility:visible;display:inline;overflow:visible" id="path6446" d="M 24.852499,22.91164 C 24.852731,24.08341 24.061207,25.033465 23.084732,25.033465 C 22.108257,25.033465 21.316733,24.08341 21.316965,22.91164 C 21.316733,21.73987 22.108257,20.789815 23.084732,20.789815 C 24.061207,20.789815 24.852731,21.73987 24.852499,22.91164 L 24.852499,22.91164 z"/><path style="color:#000;fill:#fff;fill-opacity:1;fill-rule:evenodd;stroke:none;stroke-width:.9999997;stroke-linecap:butt;stroke-linejoin:miter;marker:none;marker-start:none;marker-mid:none;marker-end:none;stroke-miterlimit:10;stroke-dasharray:none;stroke-dashoffset:0;stroke-opacity:1;visibility:visible;display:inline;overflow:visible" id="path4361" d="M 35.216711,19.723047 C 35.216711,20.592364 34.511991,21.297084 33.642674,21.297084 C 32.773358,21.297084 32.068638,20.592364 32.068638,19.723047 C 32.068638,18.853731 32.773358,18.14901 33.642674,18.14901 C 34.511991,18.14901 35.216711,18.853731 35.216711,19.723047 L 35.216711,19.723047 z"/><path style="color:#000;fill:url(#radialGradient5319);fill-opacity:1;fill-rule:evenodd;stroke:#888a85;stroke-width:1.61822283;stroke-linecap:butt;stroke-linejoin:miter;marker:none;marker-start:none;marker-mid:none;marker-end:none;stroke-miterlimit:10;stroke-dasharray:none;stroke-dashoffset:0;stroke-opacity:1;visibility:visible;display:inline;overflow:visible" id="path6462" d="M 45.833494,21.497431 C 45.834155,24.133937 43.697029,26.271598 41.060522,26.271598 C 38.424018,26.271598 36.286891,24.133937 36.287552,21.497431 C 36.286891,18.860924 38.424018,16.723264 41.060524,16.723264 C 43.697029,16.723264 45.834155,18.860924 45.833494,21.497431 z"/><path style="color:#000;fill:#2e3436;fill-opacity:1;fill-rule:evenodd;stroke:#000;stroke-width:1.61822295;stroke-linecap:butt;stroke-linejoin:miter;marker:none;marker-start:none;marker-mid:none;marker-end:none;stroke-miterlimit:10;stroke-dasharray:none;stroke-dashoffset:0;stroke-opacity:1;visibility:visible;display:inline;overflow:visible" id="path6464" d="M 40.550002,23.218529 C 40.550141,23.69005 40.167915,24.072369 39.696374,24.072369 C 39.224828,24.072369 38.842605,23.69005 38.842744,23.218529 C 38.842605,22.747011 39.224828,22.364694 39.696374,22.364694 C 40.167915,22.364694 40.550141,22.747011 40.550002,23.218529 L 40.550002,23.218529 z"/><path style="color:#000;fill:#fff;fill-opacity:1;fill-rule:evenodd;stroke:none;stroke-width:.9999997;stroke-linecap:butt;stroke-linejoin:miter;marker:none;marker-start:none;marker-mid:none;marker-end:none;stroke-miterlimit:10;stroke-dasharray:none;stroke-dashoffset:0;stroke-opacity:1;visibility:visible;display:inline;overflow:visible" id="path6466" d="M 44.446223,19.831373 C 44.446223,20.986195 43.510056,21.922364 42.355233,21.922364 C 41.20041,21.922364 40.264243,20.986195 40.264243,19.831373 C 40.264243,18.676552 41.20041,17.740383 42.355233,17.740383 C 43.510056,17.740383 44.446223,18.676552 44.446223,19.831373 L 44.446223,19.831373 z"/><path id="path4782" d="M 47.886791,31.452829 A 1.981132,1.981132 0 1 1 43.924527,31.452829 A 1.981132,1.981132 0 1 1 47.886791,31.452829 z" transform="matrix(0.8262849,0,0,0.8135222,9.8390986,3.5450011)" style="opacity:1;color:#000;fill:#000;fill-opacity:1;fill-rule:nonzero;stroke:none;stroke-width:1;stroke-linecap:round;stroke-linejoin:miter;marker:none;marker-start:none;marker-mid:none;marker-end:none;stroke-miterlimit:4;stroke-dasharray:none;stroke-dashoffset:0;stroke-opacity:1;visibility:visible;display:inline;overflow:visible;enable-background:accumulate"/><path id="path5369" d="M 44.8125,32.625 C 47.187941,33.384725 48.775899,31.842155 48.1875,29.75 C 49.589462,32.485164 47.509383,34.003128 44.8125,32.625 z" transform="matrix(1.0778009,0,0,1.2153934,-2.1787386,-8.6274489)" style="opacity:.71084337;color:#000;fill:url(#radialGradient5323);fill-opacity:1;fill-rule:nonzero;stroke:none;stroke-width:1;stroke-linecap:round;stroke-linejoin:miter;marker:none;marker-start:none;marker-mid:none;marker-end:none;stroke-miterlimit:4;stroke-dasharray:none;stroke-dashoffset:0;stroke-opacity:1;visibility:visible;display:inline;overflow:visible;filter:url(#filter5403);enable-background:accumulate"/></g><g id="g5325" transform="matrix(0.5209085,0,0,0.5209085,0.7804689,-1.2006293)"><path id="path5501" d="M 4.75,50.5 L 14.25,61.75 L 46.5,58.75 L 46.25,53 L 18,58 L 9,49 L 4.75,50.5 z" style="opacity:.74096386;color:#000;fill:url(#radialGradient5339);fill-opacity:1;fill-rule:nonzero;stroke:none;stroke-width:1;stroke-linecap:round;stroke-linejoin:miter;marker:none;marker-start:none;marker-mid:none;marker-end:none;stroke-miterlimit:4;stroke-dasharray:none;stroke-dashoffset:0;stroke-opacity:1;visibility:visible;display:inline;overflow:visible;filter:url(#filter5559);enable-background:accumulate"/><path id="path5270" d="M 14.380017,32.135034 C 14.692517,32.135034 43.402378,31.232222 43.402378,31.232222 L 39.954844,27.010034 C 14.431204,26.285072 14.789564,30.118083 14.380017,32.135034 z" style="opacity:1;color:#000;fill:url(#radialGradient5341);fill-opacity:1;fill-rule:nonzero;stroke:none;stroke-width:1;stroke-linecap:round;stroke-linejoin:miter;marker:none;marker-start:none;marker-mid:none;marker-end:none;stroke-miterlimit:4;stroke-dasharray:none;stroke-dashoffset:0;stroke-opacity:1;visibility:visible;display:inline;overflow:visible;enable-background:accumulate"/><path id="path5258" d="M 5.7522924,23.0625 L 16.002296,32.0625 C 16.309508,29.625205 15.261892,26.899648 7.8147924,22.8125 L 5.7522924,23.0625 z" style="opacity:1;color:#000;fill:url(#radialGradient5343);fill-opacity:1;fill-rule:nonzero;stroke:none;stroke-width:1;stroke-linecap:round;stroke-linejoin:miter;marker:none;marker-start:none;marker-mid:none;marker-end:none;stroke-miterlimit:4;stroke-dasharray:none;stroke-dashoffset:0;stroke-opacity:1;visibility:visible;display:inline;overflow:visible;enable-background:accumulate"/><path id="path5407" d="M 3.25,22.5 L 4.5,48.75 L 14.25,57.5 L 12.75,30 L 3.25,22.5 z" style="opacity:1;color:#000;fill:url(#linearGradient5345);fill-opacity:1;fill-rule:nonzero;stroke:none;stroke-width:1;stroke-linecap:round;stroke-linejoin:miter;marker:none;marker-start:none;marker-mid:none;marker-end:none;stroke-miterlimit:4;stroke-dasharray:none;stroke-dashoffset:0;stroke-opacity:1;visibility:visible;display:inline;overflow:visible;enable-background:accumulate"/><path id="path5411" d="M 17.999999,31.334348 L 19.602103,59.124998 L 45.534927,59.18827 L 45.419943,31.754583 L 17.999999,31.334348 z" style="opacity:1;color:#000;fill:url(#linearGradient5347);fill-opacity:1;fill-rule:nonzero;stroke:url(#linearGradient5349);stroke-width:1.9197228;stroke-linecap:round;stroke-linejoin:miter;marker:none;marker-start:none;marker-mid:none;marker-end:none;stroke-miterlimit:4;stroke-dasharray:none;stroke-dashoffset:0;stroke-opacity:1;visibility:visible;display:inline;overflow:visible;enable-background:accumulate"/><path id="path5409" d="M 12.5,30.125 L 14.296533,57.625 C 14.521539,61.30861 16.678539,61.48871 20.674203,59.964362 L 18.917609,30.490957 C 15.74227,32.283234 14.410793,30.862934 12.5,30.125 z" style="opacity:1;color:#000;fill:#e35302;fill-opacity:1;fill-rule:nonzero;stroke:none;stroke-width:1;stroke-linecap:round;stroke-linejoin:miter;marker:none;marker-start:none;marker-mid:none;marker-end:none;stroke-miterlimit:4;stroke-dasharray:none;stroke-dashoffset:0;stroke-opacity:1;visibility:visible;display:inline;overflow:visible;enable-background:accumulate"/><path id="path4635" d="M 14,32.375 L 15.25,58.125 L 16.5,59.625 L 15.25,32.875 L 14,32.375 z" style="opacity:.63253012;color:#000;fill:#fff;fill-opacity:1;fill-rule:nonzero;stroke:none;stroke-width:.5546875;stroke-linecap:butt;stroke-linejoin:miter;marker:none;marker-start:none;marker-mid:none;marker-end:none;stroke-miterlimit:4;stroke-dasharray:none;stroke-dashoffset:0;stroke-opacity:1;visibility:visible;display:inline;overflow:visible;filter:url(#filter5234);enable-background:accumulate"/><path id="path5256" d="M 3.2703689,22.545865 L 12.727922,30.058874 C 13.636572,33.38524 15.723093,32.168386 17.766058,31.119535 L 44.781677,31.195892 L 42.81795,29.314158 L 17.797653,29.300989 C 15.918184,30.725252 15.475524,32.079668 14.256102,29.048613 L 5.8088102,22.369088 L 3.2703689,22.545865 z" style="opacity:1;color:#000;fill:#babdb6;fill-opacity:1;fill-rule:nonzero;stroke:none;stroke-width:1;stroke-linecap:round;stroke-linejoin:miter;marker:none;marker-start:none;marker-mid:none;marker-end:none;stroke-miterlimit:4;stroke-dasharray:none;stroke-dashoffset:0;stroke-opacity:1;visibility:visible;display:inline;overflow:visible;enable-background:accumulate"/></g><g id="g5532" transform="translate(0,-3.375)" style="opacity:.52409639"><path id="path5514" d="M 22.057517,19.507477 C 22.01489,19.528428 21.967934,19.593638 21.931111,19.704108 C 21.832917,19.998698 21.140034,22.035728 17.225977,22.133924 C 15.358249,22.18037 14.571439,20.532775 14.571439,20.532775 L 14.515259,22.653595 C 14.515259,22.653595 14.684535,23.056865 14.388851,23.510351 C 14.373642,23.487684 14.362868,23.462514 14.346716,23.440125 C 13.799381,22.681446 12.919164,22.391315 12.380393,22.780002 C 11.841619,23.168688 11.861147,24.100009 12.408482,24.858689 C 12.863622,25.489573 13.537992,25.780946 14.065812,25.645218 C 16.711269,27.614774 23.253362,29.184437 22.212014,19.7322 C 22.190303,19.562037 22.128563,19.472559 22.057517,19.507477 z" style="color:#000;fill:#d3d7cf;fill-opacity:1;fill-rule:evenodd;stroke:none;stroke-width:.99999982;stroke-linecap:butt;stroke-linejoin:miter;marker:none;marker-start:none;marker-mid:none;marker-end:none;stroke-miterlimit:10;stroke-dasharray:none;stroke-dashoffset:0;stroke-opacity:1;visibility:visible;display:inline;overflow:visible"/><path id="path5524" d="M 17.0625,23.25 A 0.8125,0.8125 0 1 1 15.4375,23.25 A 0.8125,0.8125 0 1 1 17.0625,23.25 z" transform="matrix(1.2307692,0,0,1.2307692,-3.875,-5.3028846)" style="opacity:.71084337;color:#000;fill:#555753;fill-opacity:1;fill-rule:nonzero;stroke:none;stroke-width:1;stroke-linecap:round;stroke-linejoin:miter;marker:none;marker-start:none;marker-mid:none;marker-end:none;stroke-miterlimit:4;stroke-dasharray:none;stroke-dashoffset:0;stroke-opacity:1;visibility:visible;display:inline;overflow:visible;enable-background:accumulate"/><path style="opacity:.71084337;color:#000;fill:#555753;fill-opacity:1;fill-rule:nonzero;stroke:none;stroke-width:1;stroke-linecap:round;stroke-linejoin:miter;marker:none;marker-start:none;marker-mid:none;marker-end:none;stroke-miterlimit:4;stroke-dasharray:none;stroke-dashoffset:0;stroke-opacity:1;visibility:visible;display:inline;overflow:visible;enable-background:accumulate" id="path5526" d="M 17.0625,23.25 A 0.8125,0.8125 0 1 1 15.4375,23.25 A 0.8125,0.8125 0 1 1 17.0625,23.25 z" transform="matrix(1.8461538,0,0,1.8461538,-11.1875,-19.298077)"/></g><text style="font-size:4.0671401px;font-style:normal;font-weight:400;writing-mode:lr-tb;fill:#eeeeec;fill-opacity:1;stroke:none;stroke-width:1px;stroke-linecap:butt;stroke-linejoin:miter;stroke-opacity:1;font-family:Bitstream Vera Sans;opacity:.52409639" id="text5528" x="12.57" y="27.987" xml:space="preserve"><tspan id="tspan5530" x="12.57" y="27.987">GIMP</tspan></text></svg>