<svg xmlns="http://www.w3.org/2000/svg" xmlns:svg="http://www.w3.org/2000/svg" id="svg6361" width="16" height="16" version="1.1" viewBox="0 0 16 16"><metadata id="metadata4"/><g id="layer1" transform="translate(0,-32)"><g id="g4239"><g id="g4238"><circle style="fill:#3465a4;fill-opacity:1;stroke:#204a87;stroke-width:.35752407" id="path2093" cx="8" cy="40" r="7.821"/><ellipse id="path2209" cx="7.999" cy="40.001" rx="7.127" ry="7.126" style="opacity:.96022728;fill:none;fill-opacity:1;stroke:#fff;stroke-width:.98728555;stroke-miterlimit:4;stroke-dasharray:none;stroke-opacity:1"/></g><path id="path5121" d="M 6.504125,41.935698 6.47075,41.493009 C 6.437,40.62426 6.70475,39.738884 7.4568125,38.836126 7.99175,38.189193 8.426,37.627283 8.426,37.04818 c 0,-0.578914 -0.3841875,-0.987593 -1.203375,-1.004787 -0.5679375,0 -1.219875,0.18743 -1.6711875,0.493891 L 5,34.698325 C 5.6015,34.340471 6.5875625,34 7.7909375,34 9.980375,34 11,35.24323 11,36.639501 c 0,1.31106 -0.802312,2.1458 -1.4375625,2.877756 -0.6016875,0.681131 -0.8690625,1.345446 -0.852375,2.11179 v 0.306462 H 6.504125 Z" style="overflow:visible;fill:#fff;stroke-width:.18821897;filter:url(#filter5125)"/><ellipse id="circle5123" cx="7.672" cy="44.488" rx="1.5" ry="1.512" style="overflow:visible;fill:#fff;stroke-width:.18821897;filter:url(#filter5125)"/></g></g></svg>