<svg xmlns="http://www.w3.org/2000/svg" xmlns:svg="http://www.w3.org/2000/svg" id="gimp-warning" width="100%" height="16" version="1.1" viewBox="0 0 16 16"><metadata id="metadata90"/><g style="display:inline" id="g4237" transform="translate(-66.497722,-189.99994)"><g id="g4239" transform="translate(-1.9352593,1.3196741)"><rect id="rect6639-9" width="16" height="16" x="68.433" y="188.68" style="fill:none;stroke-width:.2"/><g transform="matrix(0.73770495,0,0,0.7757716,-155.30857,51.771056)" style="display:inline;enable-background:new"><path style="fill:#f57900;fill-opacity:1;fill-rule:nonzero;stroke:#f57900;stroke-width:1.00000024;stroke-miterlimit:4;stroke-dasharray:none;stroke-opacity:1" id="path10109" d="m 324.33756,194.52932 -8.97696,-16.82114 c -0.25803,-0.46725 -0.72492,-0.72684 -1.24489,-0.72684 -0.51997,0 -0.98926,0.31151 -1.2512,0.77876 l -8.91011,16.82114 c -0.20974,0.41533 -0.21213,0.98642 0.0461,1.40176 0.25825,0.41534 0.67335,0.623 1.19333,0.623 h 17.88707 c 0.51997,0 0.98904,-0.25958 1.19877,-0.67492 0.26173,-0.41534 0.26391,-0.93451 0.0579,-1.40176 z"/><path style="opacity:1;fill:#f57900;fill-opacity:1;fill-rule:nonzero;stroke:#fff;stroke-width:.96627188;stroke-miterlimit:4;stroke-dasharray:none;stroke-opacity:1" id="path1325" d="m 322.61753,193.53672 -7.72376,-14.45791 c -0.32893,-0.62467 -0.27639,-0.82509 -0.7763,-0.82509 -0.42997,0 -0.4844,0.29189 -0.79511,0.88153 l -7.63803,14.44622 c -0.44352,0.81347 -0.70421,1.11107 -0.49072,1.46911 0.21347,0.35804 0.53021,0.253 1.54298,0.27635 h 15.01208 c 0.94288,0.0117 1.15527,0.0252 1.32875,-0.33278 0.21648,-0.35805 -0.0461,-0.72765 -0.45989,-1.45743 z"/><g style="fill:#121312;fill-opacity:1;fill-rule:nonzero;stroke:#000;stroke-width:1.76948965;stroke-miterlimit:4" id="g10114" transform="matrix(0.58937196,0,0,0.51857899,300.05254,174.31075)"><path style="fill:#121312;fill-opacity:1;stroke:none;stroke-width:1.89166403" id="path10116" d="m 23.9,36.5 c -1.3,0 -2.3,-1.000007 -2.3,-2.485721 0,-1.6 0.9,-2.485715 2.3,-2.485715 1.4,0 2.2,0.885715 2.3,2.485715 C 26.2,35.499993 25.3,36.5 23.9,36.5 Z M 23.167629,28.004862 21.9,16.614286 h 4 l -1.267629,13.26802 z"/></g></g></g></g></svg>