<svg xmlns="http://www.w3.org/2000/svg" xmlns:svg="http://www.w3.org/2000/svg" id="svg30571" width="16" height="16" version="1.1" viewBox="0 0 16 16"><metadata id="metadata30576"/><g id="layer1" transform="translate(0,-1036.3622)"><g id="g3955" transform="matrix(1.0245539,0,0,1.0189104,-0.20220792,-19.772315)"><g id="g3954" transform="matrix(1.1313232,0,0,0.99887966,0.19305194,2.0228594)"><path style="opacity:1;fill:#eee;fill-opacity:1;stroke:none;stroke-width:.30670676;stroke-linecap:round;stroke-linejoin:round;stroke-miterlimit:4;stroke-dasharray:none;stroke-opacity:1" id="rect3946-6" d="m 10.241139,1035.6707 3.502209,3.9373 H 3.0346144 l -3.03080472,-3.9373 z"/><g id="g3997" transform="matrix(0,0.92849574,-1.3747391,0,1432.3008,1064.2865)"><g id="g3967"><path style="opacity:1;fill:#eee;fill-opacity:1;stroke:none;stroke-width:.27147084;stroke-linecap:round;stroke-linejoin:round;stroke-miterlimit:4;stroke-dasharray:none;stroke-opacity:1" id="rect3946-2" d="m -22.386928,1034.4127 4.240423,-2.5476 v 7.7897 l -4.240423,2.2046 z"/><path style="opacity:.5;fill:#e69614;fill-opacity:1;stroke:none;stroke-width:.27147084;stroke-linecap:round;stroke-linejoin:round;stroke-miterlimit:4;stroke-dasharray:none;stroke-opacity:1" id="rect3946-0" d="m -22.385737,1034.4065 -4.240423,-2.5476 v 7.7897 l 4.240423,2.2046 z"/><path style="opacity:.5;fill:#e69614;fill-opacity:1;stroke:none;stroke-width:.27147084;stroke-linecap:round;stroke-linejoin:round;stroke-miterlimit:4;stroke-dasharray:none;stroke-opacity:1" id="rect3946-3" d="m -13.888204,1034.3747 -4.240425,-2.5475 v 7.7896 l 4.240425,2.2047 z"/><path style="opacity:1;fill:#555753;fill-opacity:1;stroke:none;stroke-width:.08151923;stroke-linecap:round;stroke-linejoin:round;stroke-miterlimit:4;stroke-dasharray:none;stroke-opacity:1" id="rect3946" d="m -29.761319,1034.3375 2.116415,-1.2552 0.02023,6.2757 -2.13665,1.2551 z"/></g></g><path style="opacity:1;fill:#555753;fill-opacity:1;stroke:none;stroke-width:.1;stroke-linecap:round;stroke-linejoin:round;stroke-miterlimit:4;stroke-dasharray:none;stroke-opacity:1" id="rect3946-35" d="m 10.356655,1044.5136 1.725475,1.9651 H 3.4547582 l -1.7254742,-1.9651 z"/><path style="opacity:1;fill:#555753;fill-opacity:1;stroke:none;stroke-width:.1;stroke-linecap:round;stroke-linejoin:round;stroke-miterlimit:4;stroke-dasharray:none;stroke-opacity:1" id="rect3946-28" d="m 10.356655,1042.5485 1.725475,-1.9651 H 3.4547582 l -1.6887769,1.9651 z"/><path style="opacity:1;fill:#555753;fill-opacity:1;stroke:none;stroke-width:.1;stroke-linecap:round;stroke-linejoin:round;stroke-miterlimit:4;stroke-dasharray:none;stroke-opacity:1" id="rect3946-5" d="m 10.356655,1050.4088 1.725475,-1.9651 -8.6273718,-0.037 -1.7254742,2.0021 z"/></g></g></g></svg>