<svg xmlns="http://www.w3.org/2000/svg" xmlns:svg="http://www.w3.org/2000/svg" id="svg30571" width="16" height="16" version="1.1" viewBox="0 0 16 16"><metadata id="metadata30576"/><g id="layer1" transform="translate(0,-1036.3622)"><g id="g4253"><g id="g4249"><rect id="rect4192" width="8" height="16" x="-1048.362" y="-16" rx="1" ry="1" transform="matrix(0,-1,-1,0,0,0)" style="fill:#888a85;fill-opacity:1;stroke:none"/><rect id="rect4194" width="10" height="4" x="3" y="-1040.362" rx="0" ry="0" transform="scale(1,-1)" style="fill:#888a85;fill-opacity:1;stroke:none"/><rect style="fill:#888a85;fill-opacity:1;stroke:none" id="rect4196" width="10" height="7" x="3" y="-1052.362" rx="0" ry="0" transform="scale(1,-1)"/><rect style="fill:#fff;fill-opacity:1;stroke:none;stroke-width:.82807869" id="rect4196-6" width="8" height="6" x="4" y="-1051.362" rx="0" ry="0" transform="scale(1,-1)"/><rect id="rect4194-6" width="8" height="3" x="4" y="-1040.362" rx="0" ry="0" transform="scale(1,-1)" style="fill:#fff;fill-opacity:1;stroke:none;stroke-width:.77459663"/><rect id="rect4192-0" width="6" height="14" x="-1047.362" y="-15" rx=".75" ry=".875" transform="matrix(0,-1,-1,0,0,0)" style="fill:#000;fill-opacity:1;stroke:none;stroke-width:.81009263"/><rect style="opacity:.91000001;fill:#f57900;stroke:none;stroke-width:1.4524008;stroke-linecap:square;stroke-linejoin:miter;stroke-miterlimit:0;stroke-dasharray:none;stroke-opacity:1;paint-order:markers fill stroke" id="rect4356" width="1" height="1" x="13" y="1042.362"/><rect style="opacity:.91000001;fill:#000;stroke:none;stroke-width:1.4524008;stroke-linecap:square;stroke-linejoin:miter;stroke-miterlimit:0;stroke-dasharray:none;stroke-opacity:1;paint-order:markers fill stroke" id="rect4356-4" width="1" height="1" x="5" y="1048.362"/><rect style="opacity:.91000001;fill:#000;stroke:none;stroke-width:1.4524008;stroke-linecap:square;stroke-linejoin:miter;stroke-miterlimit:0;stroke-dasharray:none;stroke-opacity:1;paint-order:markers fill stroke" id="rect4356-4-6" width="1" height="1" x="6" y="1049.362"/><rect style="opacity:.91000001;fill:#000;stroke:none;stroke-width:1.4524008;stroke-linecap:square;stroke-linejoin:miter;stroke-miterlimit:0;stroke-dasharray:none;stroke-opacity:1;paint-order:markers fill stroke" id="rect4356-4-5" width="1" height="1" x="7" y="1048.362"/></g><rect style="opacity:.91000001;fill:#73d216;stroke:none;stroke-width:1.4524008;stroke-linecap:square;stroke-linejoin:miter;stroke-miterlimit:0;stroke-dasharray:none;stroke-opacity:1;paint-order:markers fill stroke" id="rect4356-8" width="1" height="1" x="11" y="1042.362"/></g></g></svg>