<svg xmlns="http://www.w3.org/2000/svg" xmlns:svg="http://www.w3.org/2000/svg" id="svg30571" width="16" height="16" version="1.1" viewBox="0 0 16 16"><metadata id="metadata30576"/><g id="layer1" transform="translate(0,-1036.3622)"><g id="g4237" transform="matrix(-1,0,0,1,16,0)"><g style="fill:#4e9a06" id="g3946" transform="matrix(1.0376102,0,0,1.0091341,0.21299748,-8.8594611)"><g style="fill:#4e9a06" id="refresh" transform="matrix(0.74272062,0,0,0.74272062,31.29055,291.82008)"><path style="color:#000;font-style:normal;font-variant:normal;font-weight:400;font-stretch:normal;font-size:medium;line-height:normal;font-family:sans-serif;text-indent:0;text-align:start;text-decoration:none;text-decoration-line:none;text-decoration-style:solid;text-decoration-color:#000;letter-spacing:normal;word-spacing:normal;text-transform:none;writing-mode:lr-tb;direction:ltr;baseline-shift:baseline;text-anchor:start;white-space:normal;clip-rule:nonzero;display:inline;overflow:visible;visibility:visible;opacity:1;isolation:auto;mix-blend-mode:normal;color-interpolation:sRGB;color-interpolation-filters:linearRGB;solid-color:#000;solid-opacity:1;fill:#fcaf3e;fill-opacity:1;fill-rule:nonzero;stroke:#ce5c00;stroke-width:.5;stroke-linecap:butt;stroke-linejoin:miter;stroke-miterlimit:4;stroke-dasharray:none;stroke-dashoffset:0;stroke-opacity:1;color-rendering:auto;image-rendering:auto;shape-rendering:auto;text-rendering:auto;enable-background:accumulate" id="path4874" d="M 1.1015625,0 V 6.9609375 C 1.1015625,6.9609375 1.5901871,6.94 8,7 L 5.515625,4.4785156 C 6.4432651,3.8887268 7.5903941,3.6364861 8.7558594,3.8417969 10.84703,4.2102534 12.401187,5.9316712 12.509766,8.0019531 12.618349,10.07231 11.24925,11.907225 9.2050781,12.4375 7.1609078,12.96785 5.0144734,12.047594 4.015625,10.208984 L 2.0410156,11.207031 C 3.524897,13.938376 6.7607333,15.330769 9.8046875,14.541016 12.848642,13.751188 14.905339,10.987856 14.744141,7.9140625 14.582944,4.8404936 12.245147,2.2498843 9.1308594,1.7011719 8.3522864,1.5637877 7.5771439,1.5648766 6.8320312,1.6855469 5.7797883,1.8559596 4.8035125,2.2861265 3.9589844,2.8984375 Z" transform="matrix(-1.2975984,0,0,1.3342144,-21.645016,1002.9627)"/></g></g><rect id="rect3999-8" width="16" height="16" x="0" y="1036.362" style="color:#000;clip-rule:nonzero;display:inline;overflow:visible;visibility:visible;opacity:1;isolation:auto;mix-blend-mode:normal;color-interpolation:sRGB;color-interpolation-filters:linearRGB;solid-color:#000;solid-opacity:1;fill:none;fill-opacity:1;fill-rule:nonzero;stroke:none;stroke-width:.10246458;stroke-linecap:round;stroke-linejoin:round;stroke-miterlimit:4;stroke-dasharray:none;stroke-dashoffset:0;stroke-opacity:1;color-rendering:auto;image-rendering:auto;shape-rendering:auto;text-rendering:auto;enable-background:accumulate"/></g></g></svg>