<svg xmlns="http://www.w3.org/2000/svg" xmlns:svg="http://www.w3.org/2000/svg" xmlns:xlink="http://www.w3.org/1999/xlink" id="svg30571" width="16" height="16" version="1.1" viewBox="0 0 16 16"><defs id="defs30573"><linearGradient id="linearGradient4991"><stop style="stop-color:#fff;stop-opacity:1" id="stop4993" offset="0"/><stop style="stop-color:#fff;stop-opacity:0" id="stop4995" offset="1"/></linearGradient><linearGradient id="linearGradient4234" x1="7.605" x2="36.183" y1="28.481" y2="40.944" gradientTransform="matrix(0.32678414,0,0,0.32678414,-53.918925,1015.5923)" gradientUnits="userSpaceOnUse" xlink:href="#linearGradient4228"/><linearGradient id="linearGradient4228"><stop id="stop4230" offset="0" style="stop-color:#bbb;stop-opacity:1"/><stop id="stop4232" offset="1" style="stop-color:#9f9f9f;stop-opacity:1"/></linearGradient><radialGradient id="radialGradient4250" cx="15.571" cy="2.959" r="20.936" fx="15.571" fy="2.959" gradientTransform="matrix(0.42032349,0.25544651,-0.23227229,0.38219105,-54.688288,1013.9987)" gradientUnits="userSpaceOnUse" xlink:href="#linearGradient4244"/><linearGradient id="linearGradient4244"><stop id="stop4246" offset="0" style="stop-color:#e4e4e4;stop-opacity:1"/><stop id="stop4248" offset="1" style="stop-color:#d3d3d3;stop-opacity:1"/></linearGradient><linearGradient id="linearGradient4260" x1="12.378" x2="44.096" y1="4.433" y2="47.621" gradientTransform="matrix(0.32678414,0,0,0.32678414,-53.918925,1015.5923)" gradientUnits="userSpaceOnUse" xlink:href="#linearGradient4991"/></defs><metadata id="metadata30576"/><g id="layer1" transform="translate(0,-1036.3622)"><g id="g4258"><g id="g4124" transform="matrix(1.116248,0,0,1.1126945,59.353582,-92.213571)"><path id="path4196" d="m -50.23094,1018.1944 c -0.20424,0 -0.336996,0.095 -0.418692,0.2757 0,0 -2.113885,5.5892 -2.113885,5.5892 0,0 -0.0817,0.2194 -0.0817,0.5821 0,0 0,3.1534 0,3.1534 0,0.3538 0.214954,0.5311 0.541236,0.5311 h 12.601613 c 0.321834,0 0.520812,-0.2347 0.520812,-0.6026 v -3.1534 c 0,0 0.03463,-0.2518 -0.03064,-0.4289 l -2.195581,-5.6198 c -0.0603,-0.1673 -0.20813,-0.3229 -0.367632,-0.3268 h -8.455539 z" style="fill:none;fill-opacity:1;fill-rule:evenodd;stroke:#535353;stroke-width:.65356827;stroke-linecap:round;stroke-linejoin:round;stroke-miterlimit:4;stroke-dasharray:none;stroke-opacity:1"/><path id="path4170" d="m -52.849167,1024.4145 0.24986,-0.2262 12.29025,0.02 1.131459,0.1037 v 3.4111 c 0,0.3678 -0.198364,0.6024 -0.520198,0.6024 h -12.608308 c -0.326283,0 -0.543063,-0.1771 -0.543063,-0.5309 v -3.3805 z" style="fill:url(#linearGradient4234);fill-opacity:1;fill-rule:evenodd;stroke:none;stroke-width:1.02044296px;stroke-linecap:butt;stroke-linejoin:miter;stroke-opacity:1"/><path id="path3093" d="m -52.75914,1024.0607 c -0.233418,0.4786 -2.02e-4,0.782 0.338455,0.782 0,0 12.74458,0 12.74458,0 0.365687,-0.01 0.602995,-0.3307 0.466835,-0.7003 l -2.194122,-5.6241 c -0.0603,-0.1673 -0.213966,-0.3229 -0.373468,-0.3268 h -8.449704 c -0.20424,0 -0.338455,0.099 -0.42015,0.2801 0,0 -2.112426,5.5891 -2.112426,5.5891 z" style="fill:url(#radialGradient4250);fill-opacity:1;fill-rule:evenodd;stroke:none;stroke-width:1px;stroke-linecap:butt;stroke-linejoin:miter;stroke-opacity:1"/><path id="path4201" d="m -39.28025,1023.9674 c 0.02076,0.4085 -0.135289,0.7568 -0.432046,0.7659 0,0 -12.456592,0 -12.456592,0 -0.421301,0 -0.610346,-0.1062 -0.681035,-0.2837 0.02999,0.3086 0.269864,0.539 0.681035,0.539 0,0 12.456592,0 12.456592,0 0.351622,-0.011 0.572789,-0.4654 0.441865,-0.9787 l -0.0098,-0.042 z" style="fill:#fff;fill-opacity:1;fill-rule:evenodd;stroke:none;stroke-width:1px;stroke-linecap:butt;stroke-linejoin:miter;stroke-opacity:1"/><path style="fill:none;fill-opacity:1;fill-rule:evenodd;stroke:url(#linearGradient4260);stroke-width:.32678422;stroke-linecap:round;stroke-linejoin:round;stroke-miterlimit:4;stroke-dasharray:none;stroke-opacity:1" id="path4252" d="m -50.114336,1018.3425 c -0.196623,0 -0.324428,0.091 -0.403077,0.2654 0,0 -2.096325,5.4216 -2.096325,5.4216 0,0 -0.07865,0.2113 -0.07865,0.5604 0,0 0,3.0358 0,3.0358 0,0.4427 0.145111,0.5317 0.521052,0.5317 h 12.315482 c 0.432377,0 0.501391,-0.1034 0.501391,-0.6005 v -3.0359 c 0,0 0.03333,-0.2423 -0.02949,-0.4129 l -2.154551,-5.4919 c -0.05805,-0.161 -0.179944,-0.27 -0.333498,-0.2737 h -8.242331 z"/></g><path id="rect4157" d="m 6.2931459,1036.5595 v 5.0129 l -1.8800295,0.027 1.8417981,2.3265 1.8417981,2.1366 1.7495965,-2.1741 1.7495949,-2.3635 -2.0374466,0.022 v -4.9927 z" style="color:#000;clip-rule:nonzero;display:inline;overflow:visible;visibility:visible;opacity:1;isolation:auto;mix-blend-mode:normal;color-interpolation:sRGB;color-interpolation-filters:linearRGB;solid-color:#000;solid-opacity:1;fill:#8ae234;fill-opacity:1;fill-rule:nonzero;stroke:#4e9a06;stroke-width:.38341436;stroke-linecap:butt;stroke-linejoin:miter;stroke-miterlimit:4;stroke-dasharray:none;stroke-dashoffset:0;stroke-opacity:1;color-rendering:auto;image-rendering:auto;shape-rendering:auto;text-rendering:auto;enable-background:accumulate"/></g></g></svg>