<svg xmlns="http://www.w3.org/2000/svg" xmlns:svg="http://www.w3.org/2000/svg" id="svg2" width="16" height="16" version="1.1" viewBox="0 0 16 16"><metadata id="metadata90"/><g id="g4179"><g id="g1978" transform="matrix(0.39024481,0,0,0.38153129,-1.3818978,-1.1943225)" style="display:inline"><path style="color:#000;display:block;overflow:visible;visibility:visible;fill:#eeeeec;fill-opacity:1;fill-rule:nonzero;stroke:#555753;stroke-width:1.00035387;stroke-linecap:round;stroke-linejoin:round;stroke-miterlimit:4;stroke-dashoffset:0;stroke-opacity:1;marker:none;marker-start:none;marker-mid:none;marker-end:none;stroke-dasharray:none" id="rect15391" d="m 7.7526014,3.6464462 23.4470146,-0.015625 10.278937,12.3134538 4e-6,27.473617 c 0,0.636573 -0.512476,1.149048 -1.149049,1.149048 l -32.5769026,0 c -0.6365729,0 -1.1490486,-0.512475 -1.1490486,-1.149048 l 0,-38.6223972 c 0,-0.6365729 0.5124757,-1.1490486 1.1490446,-1.1490486 z"/><path style="color:#000;display:block;overflow:visible;visibility:visible;opacity:1;fill:url(#radialGradient1996);fill-opacity:1;fill-rule:nonzero;stroke:#555753;stroke-width:1;stroke-linecap:butt;stroke-linejoin:round;stroke-miterlimit:4;stroke-dasharray:none;stroke-dashoffset:0;stroke-opacity:1;marker:none;marker-start:none;marker-mid:none;marker-end:none" id="path2210" d="M 41.41056,15.872435 31.175441,3.6354934 31.234655,15.968145 Z"/><path id="path2247" d="m 39.121563,14.816434 -6.9251,-8.3787965 0.04198,8.2560805 z" style="color:#000;display:inline;overflow:visible;visibility:visible;opacity:1;fill:#eeeeec;fill-opacity:1;fill-rule:evenodd;stroke:url(#linearGradient3976);stroke-width:1.00000024;stroke-linecap:butt;stroke-linejoin:miter;stroke-miterlimit:4;stroke-dasharray:none;stroke-dashoffset:0;stroke-opacity:1;marker:none;marker-start:none;marker-mid:none;marker-end:none"/></g><rect id="rect4010" width="16" height="16" x="0" y="0" rx=".344" ry=".34" style="color:#000;clip-rule:nonzero;display:inline;overflow:visible;visibility:visible;opacity:1;isolation:auto;mix-blend-mode:normal;color-interpolation:sRGB;color-interpolation-filters:linearRGB;solid-color:#000;solid-opacity:1;fill:none;fill-opacity:1;fill-rule:nonzero;stroke:none;stroke-width:.39511237;stroke-linecap:round;stroke-linejoin:miter;stroke-miterlimit:4;stroke-dasharray:none;stroke-dashoffset:0;stroke-opacity:1;color-rendering:auto;image-rendering:auto;shape-rendering:auto;text-rendering:auto;enable-background:accumulate"/></g><path style="fill:#000;fill-opacity:1;stroke:#fff;stroke-width:.28914681;stroke-miterlimit:4;stroke-dasharray:none;stroke-opacity:1" id="rect11686-8" d="M 3.0361434,0.14464155 V 3.0357415 H 0.14457342 v 1.9287 H 3.0361434 v 2.8911 h 1.9277132 v -2.8911 h 2.89157 v -1.9287 h -2.89157 V 0.14464155 Z"/></svg>