<svg xmlns="http://www.w3.org/2000/svg" xmlns:svg="http://www.w3.org/2000/svg" id="svg30571" width="16" height="16" version="1.1" viewBox="0 0 16 16"><metadata id="metadata30576"/><g id="layer1" transform="translate(0,-1036.3622)"><g id="g4246"><g id="g3941"><rect style="color:#000;clip-rule:nonzero;display:inline;overflow:visible;visibility:visible;opacity:1;isolation:auto;mix-blend-mode:normal;color-interpolation:sRGB;color-interpolation-filters:linearRGB;solid-color:#000;solid-opacity:1;fill:none;fill-opacity:1;fill-rule:nonzero;stroke:none;stroke-width:.4848485;stroke-linecap:round;stroke-linejoin:round;stroke-miterlimit:4;stroke-dasharray:none;stroke-dashoffset:0;stroke-opacity:1;color-rendering:auto;image-rendering:auto;shape-rendering:auto;text-rendering:auto;enable-background:accumulate" id="rect3999" width="16" height="16" x="0" y="1036.362"/></g><g style="fill:#d3d7cf;stroke:#000;stroke-width:.99985313;stroke-linejoin:round;stroke-miterlimit:4;stroke-dasharray:none;stroke-opacity:1" id="layer12" transform="matrix(0.94145151,0,0,0.92307505,-112.50359,540.3633)"><g style="fill:#d3d7cf;stroke:#000;stroke-width:.99985313;stroke-linejoin:round;stroke-miterlimit:4;stroke-dasharray:none;stroke-opacity:1" id="g27035" transform="translate(79,-222)"><path style="color:#000;fill:#d3d7cf;stroke:#000;stroke-width:.99985313;stroke-linejoin:round;stroke-miterlimit:4;stroke-dasharray:none;stroke-opacity:1" id="path27041" d="m 126,540 -6,6 6,6 h 9.0353 c 0.53,-0.02 0.96,-0.49 0.96,-1 v -10 c 0,-0.53079 -0.34561,-1 -1.0089,-1 h -8.99 z m 1,3 h 1 c 0.0104,-1.2e-4 0.0208,-4.6e-4 0.0313,0 0.25495,0.0112 0.50987,0.12858 0.6875,0.3125 l 1.2812,1.2812 1.3125,-1.2812 c 0.27,-0.23 0.45,-0.3 0.69,-0.31 h 0.98745 l 0.0126,1 c 0.004,0.28645 -0.0343,0.55065 -0.25,0.75 l -1.2812,1.2812 1.25,1.25 c 0.19,0.19 0.28,0.45 0.28,0.72 l -0.0113,1 h -0.98865 c -0.2653,-10e-6 -0.53059,-0.0931 -0.71875,-0.28125 l -1.28,-1.28 -1.2812,1.2812 c -0.19,0.19 -0.45,0.28 -0.72,0.28 h -1.06588 l 0.0659,-1 c 0.0174,-0.26469 0.0931,-0.53058 0.28125,-0.71875 l 1.2812,-1.25 -1.2812,-1.2812 c -0.21,-0.19 -0.3,-0.47 -0.28,-0.75 l -0.0671,-1 z" transform="translate(-79,222)"/></g></g></g></g></svg>