<svg xmlns="http://www.w3.org/2000/svg" xmlns:svg="http://www.w3.org/2000/svg" xmlns:xlink="http://www.w3.org/1999/xlink" id="svg12061" width="16" height="16" version="1.1" viewBox="0 0 16 16"><defs id="defs12063"><linearGradient id="linearGradient10762-2" x1="18.113" x2="15.515" y1="31.368" y2="6.18" gradientUnits="userSpaceOnUse" xlink:href="#linearGradient3096"/><linearGradient id="linearGradient3096"><stop id="stop3098" stop-color="#424242"/><stop id="stop3100" offset="1" stop-color="#777"/></linearGradient><linearGradient id="linearGradient10764-8" x1="22.176" x2="22.065" y1="36.988" y2="32.05" gradientUnits="userSpaceOnUse" xlink:href="#linearGradient9766"/><linearGradient id="linearGradient9766"><stop id="stop9768" stop-color="#6194cb"/><stop id="stop9770" offset="1" stop-color="#729fcf"/></linearGradient><linearGradient id="linearGradient12041" x1="13.036" x2="12.854" y1="32.567" y2="46.689" gradientTransform="matrix(1.317489,0,0,0.816256,-0.879573,-1.318166)" gradientUnits="userSpaceOnUse" xlink:href="#linearGradient8340"/><linearGradient id="linearGradient8340"><stop id="stop8342" stop-color="#fff" stop-opacity=".796"/><stop id="stop8344" offset="1" stop-color="#fff" stop-opacity=".216"/></linearGradient></defs><metadata id="metadata12066"/><g id="layer1" transform="translate(0,-1036.3622)"><g style="display:inline" id="folder-new" transform="translate(616.99995,739.36225)"><g id="g12052"><g style="display:inline" id="folder-2" transform="translate(32.999995,1.1320498e-5)"><rect id="rect11969-3" width="16" height="16" x="-650" y="297" style="opacity:1;fill:none;fill-opacity:1;fill-rule:evenodd;stroke:none;stroke-width:4;stroke-miterlimit:4;stroke-dasharray:none;stroke-opacity:1"/><g id="folder-1-7" transform="matrix(0.39058603,0,0,0.40095619,-651.18613,295.95889)" style="display:inline"><path id="path216-5-6-5" d="m 4.5217805,38.687417 c 0.021796,0.416304 0.4599049,0.832609 0.8762095,0.832609 l 31.327021,0 c 0.416302,0 0.810812,-0.416305 0.789016,-0.832609 L 36.577584,11.460682 c -0.0218,-0.416303 -0.459897,-0.832616 -0.876201,-0.832616 l -13.270873,0 c -0.485057,0 -1.234473,-0.315589 -1.401644,-1.1066322 L 20.417475,6.6283628 C 20.262006,5.8926895 19.535261,5.5904766 19.118957,5.5904766 l -14.7788595,0 c -0.4163128,0 -0.8108208,0.4163041 -0.7890249,0.8326083 z" style="fill:#fff;fill-opacity:1;fill-rule:nonzero;stroke:url(#linearGradient10762-2);stroke-width:1;stroke-linecap:round;stroke-linejoin:round;stroke-miterlimit:4;stroke-dasharray:none;stroke-opacity:1"/><path style="color:#000;display:block;visibility:visible;fill:url(#linearGradient10764-8);fill-opacity:1;fill-rule:nonzero;stroke:#3465a4;stroke-width:1;stroke-linecap:butt;stroke-linejoin:round;stroke-miterlimit:4;stroke-dasharray:none;stroke-dashoffset:0;stroke-opacity:1;marker:none;marker-start:none;marker-mid:none;marker-end:none" id="path233-5-05-9" d="m 39.783532,39.51062 c 1.143894,-0.04406 1.963076,-1.096299 2.047035,-2.321005 0.791787,-11.548687 1.65936,-21.231949 1.65936,-21.231949 0.07215,-0.247484 -0.167911,-0.494967 -0.48014,-0.494967 l -34.3711566,0 c 0,0 -1.8503191,21.866892 -1.8503191,21.866892 -0.1145551,0.982066 -0.4660075,1.804718 -1.5498358,2.183713 l 34.5450565,-0.0027 z"/><path id="path304-3-72-2" d="m 9.6202444,16.463921 32.7910986,0.06481 -1.574046,20.001979 c -0.08432,1.071511 -0.450678,1.428215 -1.872656,1.428215 -1.871502,0 -28.677968,-0.03241 -31.394742,-0.03241 0.2335983,-0.320811 0.3337557,-0.988623 0.3350963,-1.004612 z" style="opacity:.46590911;fill:none;fill-opacity:1;fill-rule:evenodd;stroke:url(#linearGradient12041);stroke-width:.9999997px;stroke-linecap:round;stroke-linejoin:miter;stroke-opacity:1"/></g></g><path style="fill:#000;fill-opacity:1;stroke:#fff;stroke-width:.28914681;stroke-miterlimit:4;stroke-dasharray:none;stroke-opacity:1" id="rect11686-8" d="m -613.96381,297.14448 0,2.8911 -2.89157,0 0,1.9287 2.89157,0 0,2.8911 1.92772,0 0,-2.8911 2.89157,0 0,-1.9287 -2.89157,0 0,-2.8911 z"/></g></g></g></svg>