<svg xmlns="http://www.w3.org/2000/svg" xmlns:svg="http://www.w3.org/2000/svg" id="svg11300" width="24" height="24" version="1.0" viewBox="0 0 24 24"><metadata id="metadata4"/><g id="layer1" transform="translate(0,8)"><g id="g4378"><g id="g4450"><path style="display:inline;fill:#fff;fill-opacity:1;fill-rule:evenodd;stroke:#000;stroke-width:1.00291049;stroke-linecap:butt;stroke-linejoin:miter;stroke-miterlimit:4;stroke-dasharray:none;stroke-opacity:1" id="path8347-7" d="m 12.308604,9.194147 h 4.189778 v 2.683424 h -4.189778 v 2.683408 H 10.912017 L 6.7222534,10.535867 10.912017,6.5107391 h 1.396587 z"/><rect style="color:#000;clip-rule:nonzero;display:inline;overflow:visible;visibility:visible;opacity:0;isolation:auto;mix-blend-mode:normal;color-interpolation:sRGB;color-interpolation-filters:linearRGB;solid-color:#000;solid-opacity:1;fill:#fff;fill-opacity:1;fill-rule:nonzero;stroke:none;stroke-width:.75;stroke-linecap:round;stroke-linejoin:round;stroke-miterlimit:4;stroke-dasharray:none;stroke-dashoffset:0;stroke-opacity:1;color-rendering:auto;image-rendering:auto;shape-rendering:auto;text-rendering:auto;enable-background:accumulate" id="rect4013" width="24" height="24" x="0" y="-8" rx=".415" ry="2.122"/></g><path style="display:inline;fill:#bebebe;fill-opacity:1;stroke:#000;stroke-width:.29934892;stroke-miterlimit:4;stroke-dasharray:none;stroke-opacity:1" id="path7162" d="m 4.1496752,-5.1236597 v 4.4804889 c 0,0 0,1.49349634 1.5,1.49349634 1.5,0 4.4999998,0 4.4999998,0 l 1.5,-2.29566814 1.5,2.29566814 h 4.500001 c 1.5,0 3,-2.98699264 0,-2.98699264 h -1.5 l 1.5,1.4934963 h -4.500001 l -1.5,-2.2956681 -1.5,2.2956681 H 5.6496752 v -4.4804889 z"/><rect style="display:inline;opacity:1;fill:#bebebe;fill-opacity:1;stroke:#000;stroke-width:.29934892;stroke-miterlimit:4;stroke-dasharray:none;stroke-opacity:1" id="rect7164" width="1.5" height="1.493" x="16.15" y="-4.946"/><rect id="rect7174" width="1.5" height="1.493" x="13.366" y="-4.873" style="display:inline;opacity:1;fill:#bebebe;fill-opacity:1;stroke:#000;stroke-width:.29934892;stroke-miterlimit:4;stroke-dasharray:none;stroke-opacity:1"/></g></g></svg>