<svg xmlns="http://www.w3.org/2000/svg" xmlns:svg="http://www.w3.org/2000/svg" xmlns:xlink="http://www.w3.org/1999/xlink" id="svg11300" width="16" height="16" version="1.0" viewBox="0 0 16 16"><defs id="defs3"><radialGradient id="radialGradient7780" cx="18.558" cy="22.3" r="19.229" gradientTransform="matrix(0.48589225,0,0,0.36880698,-3.4176632,-0.94729292)" gradientUnits="userSpaceOnUse" xlink:href="#linearGradient6500"/><linearGradient id="linearGradient6500"><stop id="stop6502" stop-color="#857c63"/><stop id="stop6504" offset="1" stop-color="#221f19"/></linearGradient><linearGradient id="linearGradient7782" x1="32.35" x2="21.213" y1="28.083" y2="30.293" gradientTransform="matrix(0.27408955,0,0,0.28442405,0.00951144,1.0328474)" gradientUnits="userSpaceOnUse" xlink:href="#linearGradient3204-1"/><linearGradient id="linearGradient3204-1"><stop id="stop3206"/><stop id="stop3208" offset="1" stop-opacity="0"/></linearGradient><linearGradient id="linearGradient7784" x1="14.969" x2="39.525" y1="19.111" y2="46.986" gradientTransform="matrix(0.27408955,0,0,0.28442405,1.0610697,0.93444493)" gradientUnits="userSpaceOnUse" xlink:href="#linearGradient8340"/><linearGradient id="linearGradient8340"><stop id="stop8342" stop-color="#fff" stop-opacity=".796"/><stop id="stop8344" offset="1" stop-color="#fff" stop-opacity=".216"/></linearGradient><radialGradient id="radialGradient7786" cx="6.024" cy="25.271" r="4.831" gradientTransform="matrix(0.25439024,0.02617891,-0.03020082,0.30040022,-3.2149172,-0.31239465)" gradientUnits="userSpaceOnUse" xlink:href="#linearGradient8542"/><linearGradient id="linearGradient8542"><stop id="stop8544" stop-color="#5b676b"/><stop id="stop8546" offset="1" stop-color="#141718"/></linearGradient><linearGradient id="linearGradient7788" x1="6.305" x2="5.985" y1="23.362" y2="31.57" gradientTransform="matrix(0.21937826,-0.17050681,0.16431148,0.22764988,-3.0517975,3.0689386)" gradientUnits="userSpaceOnUse" xlink:href="#linearGradient8340"/><radialGradient id="radialGradient7790" cx="69.473" cy="19.598" r="3.515" gradientTransform="matrix(0.54207568,0,0,0.56251455,-30.557298,-4.8339753)" gradientUnits="userSpaceOnUse" xlink:href="#linearGradient6468"/><linearGradient id="linearGradient6468"><stop id="stop6470" stop-color="#fff"/><stop id="stop6472" offset="1" stop-color="#b9b9b0"/></linearGradient><linearGradient id="linearGradient7792" x1="37.018" x2="27.754" y1="19.24" y2="11.182" gradientTransform="matrix(-0.03225678,-0.15023193,0.14477328,-0.03347301,13.73053,15.067795)" gradientUnits="userSpaceOnUse" xlink:href="#linearGradient6951"/><linearGradient id="linearGradient6951"><stop id="stop6953" stop-color="#6e3d09"/><stop id="stop6959" offset=".242" stop-color="#ea8113"/><stop id="stop6961" offset=".621" stop-color="#5c3307"/><stop id="stop6955" offset="1" stop-color="#e07c12"/></linearGradient><linearGradient id="linearGradient7794" x1="19.395" x2="23.109" y1="30.001" y2="33.439" gradientTransform="matrix(-0.03225678,-0.15023193,0.14477328,-0.03347301,12.179148,14.266765)" gradientUnits="userSpaceOnUse" xlink:href="#linearGradient6939"/><linearGradient id="linearGradient6939"><stop id="stop6941" stop-color="#bdbdbd"/><stop id="stop6947" offset=".333" stop-color="#e2e2e2"/><stop id="stop6949" offset=".667" stop-color="#a3a3a3"/><stop id="stop6943" offset="1" stop-color="#ddd"/></linearGradient><radialGradient id="radialGradient7796" cx="15.415" cy="35.357" r="7.579" gradientTransform="matrix(-0.02573447,-0.39992155,0.37557504,-0.02602476,6.0724737,17.939968)" gradientUnits="userSpaceOnUse" xlink:href="#linearGradient6963"/><linearGradient id="linearGradient6963"><stop id="stop6965" stop-color="#696969"/><stop id="stop6967" offset="1"/></linearGradient><linearGradient id="linearGradient7798" x1="13.236" x2="7.752" y1="37.752" y2="42.282" gradientTransform="matrix(0.03284689,-0.1266765,0.12207373,0.03408538,12.595827,10.69246)" gradientUnits="userSpaceOnUse" xlink:href="#linearGradient8340"/><radialGradient id="radialGradient4175" cx="39.75" cy="7.75" r="7" gradientTransform="matrix(0.42857142,0,0,0.42857145,-4.0357128,-0.32142901)" gradientUnits="userSpaceOnUse" xlink:href="#linearGradient4169-3"/><linearGradient id="linearGradient4169-3"><stop id="stop4171" stop-color="#fff"/><stop id="stop4177" offset=".5" stop-color="#e6ff8f" stop-opacity=".932"/><stop id="stop4173" offset="1" stop-color="#ff3a20" stop-opacity=".019"/></linearGradient></defs><metadata id="metadata4"/><g id="layer1"><g id="g4337"><rect id="rect7400" width="15" height="15" x=".5" y=".5" rx=".615" ry=".638" style="color:#000;display:inline;overflow:visible;visibility:visible;fill:#eeeeec;fill-opacity:1;fill-rule:evenodd;stroke:#888a85;stroke-width:1.00000012;stroke-linecap:butt;stroke-linejoin:miter;stroke-miterlimit:4;stroke-dasharray:none;stroke-dashoffset:0;stroke-opacity:1;marker:none;marker-start:none;marker-mid:none;marker-end:none"/><rect id="rect2063-2" width="11.635" height="9.635" x="2.183" y="3.183" rx=".145" ry=".176" style="opacity:1;fill:#709bd2;stroke:#204a87;stroke-width:.36516976;stroke-linecap:round;stroke-linejoin:round;fill-opacity:1"/><path style="color:#000;fill:url(#radialGradient7780);fill-rule:evenodd;stroke:#2e3436;stroke-width:.35937324;stroke-miterlimit:10" id="path4323-2" stroke-miterlimit="10" d="m 3.9045758,4.480611 c 0,0 0.7878729,1.6859617 2.631052,1.6383983 3.8626112,-0.100559 4.5399392,-2.1914731 4.6368442,-2.4931505 0.09691,-0.3016773 0.245183,-0.255981 0.279464,0.02283 C 12.711705,15.514661 2.7093206,10.423435 2.354091,8.4024156 4.3406496,7.7990612 3.8561231,6.6426314 3.8561231,6.6426314 Z"/><path style="color:#000;fill:url(#linearGradient7782);fill-rule:evenodd;stroke-width:.27920899;stroke-miterlimit:10" id="path6480-1" stroke-miterlimit="10" d="M 5.3746335,9.4859524 C 7.2216955,9.8693096 8.1623136,9.5138515 8.7128181,9.0727479 8.5674602,8.8779146 8.3191405,8.6642265 8.3191405,8.6642265 c 0,0 0.3594345,0.070504 0.5935448,0.3268172 C 9.072923,9.1664782 9.0876268,9.4498825 9.0525822,9.8380255 9.0175377,9.6730937 8.9590031,9.5703868 8.9135462,9.4537874 8.418467,10.075984 7.0759978,10.109331 5.3746335,9.4859524 Z"/><path style="color:#000;opacity:.18539303;fill:none;fill-rule:evenodd;stroke:url(#linearGradient7784);stroke-width:.35937324;stroke-miterlimit:10" id="path8520-9" stroke-miterlimit="10" d="M 11.192212,4.2919821 C 11.038796,4.5577698 10.808097,4.877039 10.45399,5.1824737 9.733897,5.8035896 8.5248285,6.372453 6.5428607,6.4240512 5.3846029,6.4539402 4.6379186,5.8681285 4.1793736,5.350795 l -0.028908,1.2743529 c 0.036951,0.1189794 0.1077333,0.3971905 -0.02409,0.7749446 -0.1416053,0.4057858 -0.5927784,0.8153129 -1.3624178,1.1304744 0.068255,0.1486803 0.1320337,0.3051611 0.3399353,0.516074 0.2817978,0.2858798 0.6792559,0.5921453 1.1450732,0.8693822 0.931635,0.5544739 2.1391889,0.9922459 3.2644496,1.0121499 1.1252604,0.0199 2.1480776,-0.348524 2.8554561,-1.419343 0.653277,-0.9889197 1.012783,-2.6681871 0.82334,-5.2168479 z" xlink:href="##path4323-2"/><ellipse style="color:#000;fill:url(#radialGradient7786);fill-rule:evenodd;stroke:#000;stroke-width:.35948408;stroke-miterlimit:10" id="path5198-2" cx="-2.425" cy="8.188" stroke-miterlimit="10" rx="1.203" ry="1.713" transform="matrix(0.80052518,-0.59929912,0.57082421,0.8210723,0,0)"/><path style="color:#000;opacity:.28089899;fill:none;fill-rule:evenodd;stroke:url(#linearGradient7788);stroke-width:.35937351;stroke-miterlimit:10" id="path6450-92" stroke-miterlimit="10" d="M 1.4490737,6.6341577 C 1.2803644,6.7512054 1.1717196,6.9747037 1.1656932,7.2812541 1.2550424,7.8481324 1.7319295,8.5009883 2.230847,8.7292008 a 0.2970694,0.28627544 89.999986 0 1 0.065713,0.04193 C 2.6603958,9.0804022 3.0813284,9.1780813 3.3463598,9.0885927 3.6049643,9.0012738 3.7666775,8.7528806 3.7734697,8.3672651 3.6832854,7.8006897 3.206859,7.14911 2.7084217,6.9213182 A 0.2970694,0.28627544 89.999986 0 1 2.6427091,6.879388 C 2.4245737,6.6940162 2.1814138,6.5769222 1.9687248,6.5405142 1.7560358,6.5041062 1.5795084,6.5437232 1.4490737,6.6341577 Z" xlink:href="##path5198-2"/><ellipse style="color:#000;fill:#fff;fill-rule:evenodd;stroke-width:.27920899;stroke-miterlimit:10" id="path6446-61" cx="2.175" cy="7.548" stroke-miterlimit="10" rx=".485" ry=".603"/><ellipse style="color:#000;fill:#eeeeec;fill-rule:evenodd;stroke:#888a85;stroke-width:.35937324;stroke-miterlimit:10" id="path6460-1" cx="4.792" cy="7.145" stroke-miterlimit="10" rx=".872" ry=".905"/><ellipse style="color:#000;fill:url(#radialGradient7790);fill-rule:evenodd;stroke:#888a85;stroke-width:.35937339;stroke-miterlimit:10" id="path6462-26" cx="7.102" cy="7.145" stroke-miterlimit="10" rx="1.308" ry="1.358"/><ellipse style="color:#000;fill:#2e3436;fill-rule:evenodd;stroke:#000;stroke-width:.35937324;stroke-miterlimit:10" id="path6464-8" cx="7.408" cy="7.347" stroke-miterlimit="10" rx=".63" ry=".654"/><ellipse style="color:#000;fill:#fff;fill-rule:evenodd;stroke-width:.25128809;stroke-miterlimit:10" id="path6466-7" cx="7.166" cy="7.045" stroke-miterlimit="10" rx=".436" ry=".453"/><ellipse style="color:#000;fill:#2e3436;fill-rule:evenodd;stroke:#000;stroke-width:.35937363;stroke-miterlimit:10" id="path6476-6" cx="5.074" cy="7.271" stroke-miterlimit="10" rx=".388" ry=".402"/><ellipse style="color:#000;fill:#fff;fill-rule:evenodd;stroke-width:.15463878;stroke-miterlimit:10" id="path6478-3" cx="4.925" cy="7.085" stroke-miterlimit="10" rx=".268" ry=".278"/><path style="color:#000;fill:url(#linearGradient7792);stroke:#673907;stroke-width:.35937351;stroke-linecap:round" id="path6937-85" d="m 10.863464,11.092449 0.419088,-0.738044 C 10.528307,9.8472548 9.6086014,9.579963 8.9185494,9.2952932 c 0,0 -0.3816954,0.2721654 -0.3816954,0.2721654 0.6609294,0.4434174 1.473947,1.0448774 2.32661,1.5249904 z"/><path style="color:#000;fill:url(#linearGradient7794);stroke:#888a85;stroke-width:.35937351;stroke-linecap:round" id="path6935-7" d="m 12.606411,11.92764 0.207506,-0.402199 -1.340499,-1.029288 -0.111057,-0.0177 -0.03788,-0.163819 c -0.212096,0.118029 -0.539724,0.588637 -0.479242,0.870322 l 0.155168,-0.04881 0.07663,0.08793 z"/><path style="color:#000;fill:url(#radialGradient7796);stroke-width:.0558418;stroke-linecap:round" id="path6933-90" d="m 14.091153,14.095862 c -0.108085,-1.679672 0.0027,-2.967756 -1.19052,-3.127487 -0.961527,-0.12872 -1.32912,1.256918 -0.438723,1.869237 0.857734,0.589856 1.629243,1.25825 1.629243,1.25825 z"/><ellipse style="color:#000;opacity:.52777866;fill:#fff;stroke-width:.29728192;stroke-linecap:round" id="path6971-7" cx="-14.162" cy="10.055" rx=".378" ry=".365" transform="matrix(-0.20992971,-0.97771648,0.97429679,-0.22526821,0,0)"/><path style="color:#000;opacity:.427778;fill:url(#linearGradient7798);stroke-width:.27920899;stroke-linecap:round" id="path1571-1" d="m 13.817415,12.817415 c 0,0 -0.131333,-0.793627 -0.531229,-0.925673 -0.141482,-0.04672 -0.03714,-0.242791 0.110222,-0.166054 0.318305,0.165751 0.421007,1.091727 0.421007,1.091727 z"/><path style="color:#000;opacity:.17525802;fill:none;fill-rule:evenodd;stroke:#fff;stroke-width:.35937351;stroke-linecap:round;stroke-linejoin:round" id="path4219" d="m 10.815134,10.369603 c 0,0 -0.617771,-0.314247 -1.4778054,-0.6410645"/><circle id="path4167" cx="13" cy="3" r="3" stroke-miterlimit="10" style="color:#000;fill:url(#radialGradient4175);stroke-width:.21428572;stroke-linecap:round;stroke-linejoin:round;stroke-miterlimit:10"/></g></g></svg>