<svg xmlns="http://www.w3.org/2000/svg" xmlns:svg="http://www.w3.org/2000/svg" id="svg30571" width="16" height="16" version="1.1" viewBox="0 0 16 16"><defs id="defs30573"><filter style="color-interpolation-filters:sRGB" id="filter4579" width="1.165" height="1.171" x="-.083" y="-.085"><feGaussianBlur id="feGaussianBlur4581" stdDeviation=".452"/></filter></defs><metadata id="metadata30576"/><g id="layer1" transform="translate(0,-1036.3622)"><g id="g4245" transform="matrix(-1,0,0,1,16,0)"><g id="g4459"><g id="g4364"><g id="g4267"><g id="g4533"><g id="g4434" style="fill:#eeeeec;fill-opacity:1"><rect style="opacity:1;fill:#eeeeec;fill-opacity:1;stroke:#bebebe;stroke-width:.94152987;stroke-linecap:square;stroke-linejoin:round;stroke-miterlimit:4;stroke-dasharray:none;stroke-opacity:1" id="rect4276" width="15.058" height="15.058" x=".471" y="1036.833"/></g></g></g></g></g><path style="fill:none;fill-rule:evenodd;stroke:#204a87;stroke-width:1px;stroke-linecap:butt;stroke-linejoin:miter;stroke-opacity:1;filter:url(#filter4579)" id="path4144" d="m 7.4174604,1044.8324 c 0.2214148,0.3091 -0.3073662,0.4509 -0.5136752,0.368 -0.5590849,-0.2247 -0.529563,-0.9835 -0.2223367,-1.3954 0.5495558,-0.7366 1.6466643,-0.6522 2.2770378,-0.077 0.9250984,0.8447 0.7803199,2.3194 -0.069002,3.1587 -1.1320125,1.1187 -2.9955662,0.9107 -4.0404001,-0.2147 -1.3148169,-1.4161 -1.0423312,-3.6734 0.3603406,-4.9221 1.6988236,-1.5122 4.3522643,-1.1746 5.8037623,0.5061 1.710541,1.9806 1.30748,5.0316 -0.651679,6.6854 -2.2619261,1.9093 -5.7114943,1.4406 -7.5671251,-0.7973 -2.10848556,-2.5429 -1.5738978,-6.3916 0.943018,-8.4489 2.8235992,-2.3078 7.0718781,-1.7073 9.3304871,1.0887 2.507485,3.1042 1.84095,7.7524 -1.234356,10.2122" transform="matrix(0.91574797,0,0,0.93962469,0.62849361,62.797129)"/></g></g></svg>