<svg xmlns="http://www.w3.org/2000/svg" xmlns:svg="http://www.w3.org/2000/svg" xmlns:xlink="http://www.w3.org/1999/xlink" id="svg11300" width="16" height="16" version="1.0" viewBox="0 0 16 16"><metadata id="metadata4"/><g id="layer1"><g id="g12821" transform="scale(0.99974012,1)"><g id="join_miter" transform="matrix(0.66399643,0,0,0.66354548,-597.26421,-105.00607)" style="display:inline"><path id="path18365" d="m 900.04,181.75 -0.04,-23 h 23 v 17.5 h -6 v 5.5" style="fill:#729fcf;fill-opacity:1;fill-rule:evenodd;stroke:none;stroke-width:1px;stroke-linecap:square;stroke-linejoin:miter;stroke-opacity:1"/><rect id="rect18367" width="24" height="24" x="899.5" y="158.25" style="display:inline;opacity:1;fill:none;fill-opacity:1;fill-rule:evenodd;stroke:none;stroke-width:9;stroke-linecap:square;stroke-linejoin:round;stroke-miterlimit:0;stroke-dasharray:none;stroke-dashoffset:0;stroke-opacity:1;marker:none;marker-start:none;marker-mid:none;marker-end:none"/><path style="fill:none;fill-opacity:1;fill-rule:evenodd;stroke:#204a87;stroke-width:1px;stroke-linecap:square;stroke-linejoin:miter;stroke-opacity:1" id="path18369" d="m 900.04,181.75 -0.04,-23 h 23 m -6,23 v -6 h 6"/><use id="use18373" width="1250" height="1250" x="0" y="0" transform="translate(-3.999997)" xlink:href="#use5673"/><use id="use18375" width="1250" height="1250" x="0" y="0" transform="translate(-7.999997)" xlink:href="#use5673"/><use id="use18377" width="1250" height="1250" x="0" y="0" transform="translate(-12)" xlink:href="#use5673"/><use id="use18379" width="1250" height="1250" x="0" y="0" transform="translate(-12,4)" xlink:href="#use5673"/><use id="use18381" width="1250" height="1250" x="0" y="0" transform="translate(-12,8)" xlink:href="#use5673"/><use id="use18383" width="1250" height="1250" x="0" y="0" transform="translate(-12,12)" xlink:href="#use5673"/><path style="opacity:.5;fill:none;fill-opacity:1;fill-rule:evenodd;stroke:#fff;stroke-width:.89924371px;stroke-linecap:square;stroke-linejoin:miter;stroke-opacity:1" id="path32260" d="m 900.9881,181.9102 -0.1501,-22.1908 h 22.1908 m -6.9833,22.1339 -0.0569,-6.9931 7.1539,0.0568"/></g><path id="path12803" d="M 5.0120563,5.7709155 H 16.002859 Z M 5.770869,5.944495 V 16 Z" style="fill:none;fill-rule:evenodd;stroke:#fff;stroke-width:1.54183102;stroke-linecap:butt;stroke-linejoin:miter;stroke-miterlimit:4;stroke-dasharray:none;stroke-opacity:1"/></g></g></svg>