<svg xmlns="http://www.w3.org/2000/svg" xmlns:svg="http://www.w3.org/2000/svg" id="svg8" width="16" height="16" version="1.1" viewBox="0 0 4.233 4.233"><metadata id="metadata5"/><g id="layer1" transform="translate(0,-292.76666)"><g id="gimp-tool-shadows-highlights" transform="matrix(0.66666436,0,0,0.66666436,1.9397808e-6,99.000683)" style="stroke-width:1.50000525"><circle id="path2159" cx="3.175" cy="293.825" r="2.381" style="color:#000;overflow:visible;opacity:1;fill:#000;fill-opacity:1;fill-rule:evenodd;stroke:#000;stroke-width:.79375279;stroke-linecap:round;stroke-linejoin:miter;stroke-opacity:1;paint-order:normal"/><circle style="color:#000;overflow:visible;opacity:1;fill:#fff;fill-opacity:1;fill-rule:evenodd;stroke:none;stroke-width:.39687639;stroke-linecap:round;stroke-linejoin:miter;stroke-opacity:1;paint-order:normal" id="circle2161" cx="3.175" cy="293.825" r="2.381"/><path style="color:#000;overflow:visible;opacity:1;fill:#000;fill-opacity:1;fill-rule:evenodd;stroke:none;stroke-width:2;stroke-linecap:round;stroke-linejoin:miter;stroke-opacity:1;paint-order:normal" id="rect2163" d="M 6 2 L 3.3339844 3.3339844 L 1.3378906 7.8984375 L 3.3339844 12.666016 L 6 14 L 6 12.492188 C 6 12.152347 6.2888714 12 6.484375 12 L 8 12 L 9 12 C 9.5539734 12 10 11.553973 10 11 C 10 10.446027 9.5539734 10 9 10 L 6.6660156 10 L 6.6660156 9 L 9 9 C 9.5539986 9 10 8.5539653 10 8 C 10 7.4459969 9.5539986 7 9 7 L 6.6660156 7 L 6.6660156 6 L 9.0039062 6 C 9.5579027 6 10.003906 5.5539963 10.003906 5 C 10.003906 4.4460037 9.5579027 4 9.0039062 4 L 7 4 C 6.3905883 4 6 3.5078156 6 3 L 6 2 z" transform="matrix(0.39687638,0,0,0.39687638,-2.9096813e-6,290.64997)"/><rect style="color:#000;overflow:visible;opacity:1;fill:#fff;fill-opacity:1;fill-rule:evenodd;stroke:none;stroke-width:.79375279;stroke-linecap:round;stroke-linejoin:miter;stroke-opacity:1;paint-order:normal" id="rect2177" width="1.588" height=".397" x="2.381" y="293.031" rx=".198" ry=".198"/><rect id="rect2179" width="1.194" height=".397" x="2.381" y="294.221" rx=".199" ry=".199" style="color:#000;overflow:visible;opacity:1;fill:#fff;fill-opacity:1;fill-rule:evenodd;stroke:none;stroke-width:.79375279;stroke-linecap:round;stroke-linejoin:miter;stroke-opacity:1;paint-order:normal"/></g></g></svg>