<svg xmlns="http://www.w3.org/2000/svg" xmlns:svg="http://www.w3.org/2000/svg" id="svg8" width="16" height="16" version="1.1" viewBox="0 0 4.233 4.233"><defs id="defs2"><marker id="Arrow1Mstart" orient="auto" refX="0" refY="0" style="overflow:visible"><path id="path2579" d="M 0.0,0.0 L 5.0,-5.0 L -12.5,0.0 L 5.0,5.0 L 0.0,0.0 z" transform="scale(0.4) translate(10,0)" style="fill-rule:evenodd;stroke:#bebebe;stroke-width:1pt;stroke-opacity:1;fill:#bebebe;fill-opacity:1"/></marker></defs><metadata id="metadata5"/><g id="layer1" transform="translate(0,-292.76666)" style="display:inline"><g id="g3386"><circle id="path3956" cx="2.117" cy="294.883" r=".529" style="fill:#729fcf;fill-opacity:1;stroke:#204a87;stroke-width:.13229167;stroke-linejoin:miter;stroke-miterlimit:4;stroke-dasharray:none;stroke-opacity:1"/><g style="stroke-width:.13229167;stroke-miterlimit:4;stroke-dasharray:none;stroke-linejoin:miter" id="g12965"><path id="path3958" d="M 8.0019531 2.2480469 L 8.0019531 3.7539062 C 9.7230717 3.7539062 11.271044 4.7829618 11.929688 6.3730469 C 12.588331 7.9631697 12.222873 9.7849453 11.005859 11.001953 C 9.7888447 12.218999 7.9611996 12.584402 6.3710938 11.925781 C 4.781594 11.267374 3.7507855 9.7203323 3.75 8 L 5.5 8 L 3 4.0507812 L 0.5 8 L 2.2519531 8 C 2.2527461 10.322721 3.6567033 12.42358 5.8027344 13.3125 C 7.9493722 14.201672 10.427347 13.709405 12.070312 12.066406 C 13.713278 10.423446 14.19776 7.9454864 13.308594 5.7988281 C 12.419427 3.6522077 10.325457 2.2480469 8.0019531 2.2480469 z" transform="matrix(0.26458333,0,0,0.26458333,0,292.76666)" style="color:#000;font-style:normal;font-variant:normal;font-weight:400;font-stretch:normal;font-size:medium;line-height:normal;font-family:sans-serif;font-variant-ligatures:normal;font-variant-position:normal;font-variant-caps:normal;font-variant-numeric:normal;font-variant-alternates:normal;font-feature-settings:normal;text-indent:0;text-align:start;text-decoration:none;text-decoration-line:none;text-decoration-style:solid;text-decoration-color:#000;letter-spacing:normal;word-spacing:normal;text-transform:none;writing-mode:lr-tb;direction:ltr;text-orientation:mixed;dominant-baseline:auto;baseline-shift:baseline;text-anchor:start;white-space:normal;shape-padding:0;clip-rule:nonzero;display:inline;overflow:visible;visibility:visible;opacity:1;isolation:auto;mix-blend-mode:normal;color-interpolation:sRGB;color-interpolation-filters:linearRGB;solid-color:#000;solid-opacity:1;vector-effect:none;fill:#729fcf;fill-opacity:1;fill-rule:nonzero;stroke:#204a87;stroke-width:.50000001;stroke-linecap:butt;stroke-linejoin:miter;stroke-miterlimit:4;stroke-dasharray:none;stroke-dashoffset:0;stroke-opacity:1;color-rendering:auto;image-rendering:auto;shape-rendering:auto;text-rendering:auto;enable-background:accumulate"/></g></g></g></svg>