<svg xmlns="http://www.w3.org/2000/svg" xmlns:svg="http://www.w3.org/2000/svg" xmlns:xlink="http://www.w3.org/1999/xlink" id="svg1" width="16" height="16" x="0" y="0" version="1.0" viewBox="0 0 16 16"><metadata id="metadata162"/><defs id="defs3"><linearGradient id="linearGradient2824"><stop style="stop-color:#eeeeec;stop-opacity:1" id="stop2826" offset="0"/><stop style="stop-color:#eeeeec;stop-opacity:0" id="stop2828" offset="1"/></linearGradient><linearGradient id="linearGradient2864"><stop style="stop-color:#8ae234;stop-opacity:1" id="stop2866" offset="0"/><stop style="stop-color:#4e9a06;stop-opacity:1" id="stop2868" offset="1"/></linearGradient><linearGradient id="linearGradient1925" x1="30.936" x2="30.936" y1="44.294" y2="-11.761" gradientTransform="matrix(0.580111,0,0,0.529015,-11.37627,-7.683753)" gradientUnits="userSpaceOnUse" xlink:href="#linearGradient2864"/><linearGradient id="linearGradient1935" x1="30.936" x2="30.936" y1="44.294" y2="-11.761" gradientTransform="matrix(0.580111,0,0,0.529015,-11.37627,-7.683753)" gradientUnits="userSpaceOnUse" xlink:href="#linearGradient2864"/><linearGradient id="linearGradient2830" x1=".442" x2="18.12" y1="-1.722" y2="22.408" gradientUnits="userSpaceOnUse" xlink:href="#linearGradient2824"/></defs><g id="layer2" style="display:inline"><g id="g3950" transform="matrix(1.0007265,0,0,1.0009139,-0.01167147,-0.01582108)"><path id="path2848" d="m 9.087845,0.51597742 c -0.5801115,0 -2.0303895,0.30048037 -2.0303895,1.32253698 C 7.0574555,2.3762421 7.512819,2.4479271 7.5,3.5 h -4 v 4 c -1,0 -1.4015319,-1 -2,-1 -1,0 -1,1.5 -0.98398901,2.009229 C 0.54715112,9.49964 0.37923519,11.49573 1.5,11.5 c 0.5,0 1,-1 2,-1 v 5 L 7.474135,15.4901 C 7.474135,14.167585 6.5,14.558546 6.5,13.5 c 0,-0.793522 1.1298329,-1 2,-1 1.414485,0 2,-0.05855 2,1 0,0.650543 -1,0.941971 -1,2 h 6 V 10.448002 C 14.5,10.5 14.16256,11.5 13.5,11.5 c -0.5,0 -1,-0.5 -1,-2 0,-1.5 0.5,-2 1,-2 1,0 1,1 2,1 v -5 h -5 c -0.0207,-1.2975569 1.722462,-1.0562274 1.714419,-1.851125 0,-1.1328975 -1.589654,-1.13289758 -3.126574,-1.13289758 z" style="color:#000;display:inline;overflow:visible;visibility:visible;fill:url(#linearGradient1925);fill-opacity:1;fill-rule:nonzero;stroke:#4e9a06;stroke-width:.99999917;stroke-linecap:square;stroke-linejoin:miter;stroke-miterlimit:4;stroke-dasharray:none;stroke-dashoffset:1.5;stroke-opacity:1;marker:none;marker-start:none;marker-mid:none;marker-end:none"/><path id="path1933" d="m 9.09375,1.4570312 c -0.135398,0 -0.5818267,0.067991 -0.8457031,0.1894532 -0.1319382,0.060731 -0.2177962,0.1291192 -0.2441407,0.1601562 -0.026344,0.031037 -0.015625,8.884e-4 -0.015625,0.037109 0,0.010174 -0.025957,-0.074396 0.1210938,0.2109375 0.1470511,0.2853339 0.3244293,0.798567 0.3164062,1.4570313 A 0.92679958,0.92679958 0 0 1 7.5,4.4257812 H 4.4257812 V 7.5 A 0.92679958,0.92679958 0 0 1 3.5,8.4257812 c -0.8089023,0 -1.4049168,-0.4303844 -1.7441406,-0.7128906 C 1.4898876,7.4913889 1.4981325,7.4993769 1.5546875,7.4882812 c -0.012556,0.028621 -0.012876,0.018636 -0.025391,0.064453 -0.069061,0.25283 -0.079669,0.6825148 -0.072266,0.9179687 0.017981,0.5718817 -0.00855,1.2782849 0.066406,1.7558589 0.016009,0.101999 0.029663,0.109289 0.050781,0.177735 0.058096,-0.04773 0.085634,-0.06929 0.1601562,-0.128906 C 2.0939408,9.987738 2.6910977,9.5742188 3.5,9.5742188 A 0.92679958,0.92679958 0 0 1 4.4257812,10.5 v 4.074219 h 1.453125 C 5.6912728,14.289751 5.5742188,13.898705 5.5742188,13.5 c 0,-0.418291 0.1785797,-0.837976 0.4316406,-1.115234 C 6.2589202,12.107507 6.553713,11.948187 6.8398438,11.837891 7.4121053,11.617297 7.9916184,11.574219 8.5,11.574219 c 0.6944569,0 1.2125135,-0.07307 1.847656,0.158203 0.317572,0.115636 0.670828,0.382742 0.855469,0.726562 0.184641,0.343821 0.222656,0.690948 0.222656,1.041016 0,0.400055 -0.165761,0.74369 -0.320312,0.966797 -0.03393,0.04898 -0.05708,0.06539 -0.08984,0.107422 h 3.558594 v -2.541016 c -0.257827,0.204572 -0.57779,0.392578 -1.074219,0.392578 -0.558902,0 -1.164039,-0.356081 -1.482422,-0.886719 C 11.699195,11.008425 11.574219,10.352967 11.574219,9.5 c 0,-0.8529674 0.124976,-1.5084248 0.443359,-2.0390625 0.318383,-0.5306377 0.92352,-0.8867187 1.482422,-0.8867187 0.428887,0 0.784773,0.1453212 1.074219,0.3203124 v -2.46875 H 10.5 A 0.92679958,0.92679958 0 0 1 9.5742188,3.515625 C 9.5657321,2.9837787 9.7814839,2.4653641 10.083984,2.1425781 10.376944,1.8299731 10.692036,1.6807408 10.939453,1.5664062 10.521657,1.4799814 9.8317959,1.4570312 9.09375,1.4570312 Z" style="color:#000;display:inline;overflow:visible;visibility:visible;fill:url(#linearGradient1935);fill-opacity:1;fill-rule:nonzero;stroke:url(#linearGradient2830);stroke-width:.99999917;stroke-linecap:square;stroke-linejoin:round;stroke-miterlimit:4;stroke-dasharray:none;stroke-dashoffset:1.5;stroke-opacity:1;marker:none;marker-start:none;marker-mid:none;marker-end:none"/></g></g></svg>