<svg xmlns="http://www.w3.org/2000/svg" xmlns:svg="http://www.w3.org/2000/svg" id="svg30571" width="12" height="12" version="1.1" viewBox="0 0 12 12"><metadata id="metadata30576"/><g id="layer1" transform="translate(0,-1040.3622)"><g id="g4240"><path id="rect5232" d="m 2,1040.3622 c -1.108,0 -2,0.892 -2,2 v 8 c 0,1.108 0.892,2 2,2 h 8 c 1.108,0 2,-0.892 2,-2 v -8 c 0,-1.108 -0.892,-2 -2,-2 z m 0.4375,1 h 7.125 c 0.78971,0 1.4375,0.6478 1.4375,1.4375 v 7.125 c 0,0.7897 -0.64779,1.4375 -1.4375,1.4375 H 2.4375 C 1.64779,1051.3622 1,1050.7144 1,1049.9247 v -7.125 c 0,-0.7897 0.64779,-1.4375 1.4375,-1.4375 z" style="fill:#000"/><path style="fill:#eeeeec;stroke-width:.83333123" id="rect5232-5" d="m 2.6666666,1041.3623 c -0.9233333,0 -1.66666661,0.7434 -1.66666661,1.6667 v 6.6666 c 0,0.9232 0.74333331,1.6666 1.66666661,1.6666 H 9.3333334 C 10.256667,1051.3622 11,1050.6188 11,1049.6956 v -6.6666 c 0,-0.9233 -0.743333,-1.6667 -1.6666666,-1.6667 z m 0.3645833,0.8333 h 5.937501 c 0.6580912,0 1.1979151,0.5398 1.1979151,1.1978 v 5.9375 c 0,0.6582 -0.5398239,1.1979 -1.1979151,1.1979 h -5.937501 c -0.6580917,0 -1.1979166,-0.5397 -1.1979166,-1.1979 v -5.9375 c 0,-0.658 0.5398249,-1.1978 1.1979166,-1.1978 z"/><g style="fill:#000" id="gimp-close" transform="matrix(0.91040483,0,0,0.91039019,-38.610159,694.04184)"><path id="path4934" d="m 385.4707,111.98438 v 1.52343 l 3.04883,3.04688 -3.04883,3.04883 v 1.52343 h 1.52344 l 3.04883,-3.04883 3.04687,3.04883 h 1.52344 v -1.52343 l -3.04687,-3.04883 3.04687,-3.04688 v -1.52343 h -1.52344 l -3.04687,3.04687 -3.04883,-3.04687 z" transform="matrix(0.87500003,0,0,0.87500003,-292.28642,285.01318)" style="fill:#eeeeec;fill-opacity:.94117647;stroke:#000;stroke-width:.89999998;stroke-miterlimit:4;stroke-dasharray:none;stroke-opacity:1"/></g></g></g></svg>