<svg xmlns="http://www.w3.org/2000/svg" xmlns:svg="http://www.w3.org/2000/svg" xmlns:xlink="http://www.w3.org/1999/xlink" id="svg30571" width="16" height="16" version="1.1" viewBox="0 0 16 16"><defs id="defs30573"><linearGradient id="linearGradient8668" x1="304.763" x2="309.059" y1="160.461" y2="160.461" gradientTransform="matrix(0.9014429,0,0,0.96677306,-0.21487333,6.1653533)" gradientUnits="userSpaceOnUse" xlink:href="#linearGradient3095"/><linearGradient id="linearGradient3095"><stop id="stop3097" offset="0" style="stop-color:#fff;stop-opacity:1"/><stop style="stop-color:#fffaa6;stop-opacity:0" id="stop3099" offset="1"/></linearGradient><linearGradient id="linearGradient8668-4" x1="304.763" x2="309.059" y1="160.461" y2="160.461" gradientTransform="matrix(0.9014429,0,0,0.96677306,8.3148039,6.1012263)" gradientUnits="userSpaceOnUse" xlink:href="#linearGradient3095"/></defs><metadata id="metadata30576"/><g id="layer1" transform="translate(0,-1036.3622)"><g id="g4261"><rect id="rect8700" width="15.924" height="16" x="0" y="1036.362" style="color:#000;clip-rule:nonzero;display:inline;overflow:visible;visibility:visible;opacity:0;isolation:auto;mix-blend-mode:normal;color-interpolation:sRGB;color-interpolation-filters:linearRGB;solid-color:#000;solid-opacity:1;fill:#fff;fill-opacity:1;fill-rule:nonzero;stroke:none;stroke-width:.49782965;stroke-linecap:round;stroke-linejoin:round;stroke-miterlimit:4;stroke-dasharray:none;stroke-dashoffset:0;stroke-opacity:1;color-rendering:auto;image-rendering:auto;shape-rendering:auto;text-rendering:auto;enable-background:accumulate"/><g style="opacity:1" id="g8694" transform="matrix(1.003358,0,0,1.0366308,-273.5846,880.24138)"><g id="g8718" transform="matrix(0.96596111,0,0,1.0006489,136.71349,-448.56934)" style="fill:#729fcf;stroke:#000;stroke-width:.5;stroke-miterlimit:4;stroke-dasharray:none;stroke-opacity:1"><path style="fill:#729fcf;stroke:#000;stroke-width:.49157602;stroke-miterlimit:4;stroke-dasharray:none;stroke-opacity:1" id="path8303" d="m 653.01562,307.90039 c -0.83722,-0.0499 -1.46249,0.30706 -1.87109,0.61328 -0.4086,0.30622 -0.63281,0.64844 -0.63281,0.64844 -0.0105,0.0109 -0.0216,0.0233 -0.0312,0.0352 l -3.42137,6.91697 c -0.24555,0.38136 -0.2706,0.90608 -0.32085,1.29201 0,1.93425 1.51366,3.50195 3.38086,3.50195 1.70518,0 3.05451,-1.91276 3.27811,-2.55601 0.12052,-0.27677 -0.1054,0.49729 0.0745,-0.27542 0.05,-0.21449 0.91333,-0.1066 1.90463,-0.1066 0,0 0.0959,2.9e-4 0.13941,0.0533 0.15483,1.52957 1.59132,2.88471 3.2965,2.88471 1.8672,0 3.38086,-1.5677 3.38086,-3.50195 -0.0142,-0.36215 -0.13219,-1.03973 -0.2524,-1.36139 l -3.49372,-6.84759 c -0.01,-0.0119 -0.0208,-0.0242 -0.0312,-0.0352 0,0 -0.22264,-0.34222 -0.62696,-0.64844 -0.40433,-0.30622 -1.02153,-0.61328 -1.85156,-0.61328 -0.27235,-0.0435 -0.54883,0.23087 -0.54883,0.54492 0,0.31406 0.27648,0.59031 0.54883,0.54688 0,0 1.13535,-0.46765 1.70312,0.7832 l 2.20313,4.3125 c -0.32696,-0.10909 -0.66926,-0.18359 -1.03125,-0.18359 -1.3761,0 -2.57443,0.64838 -3.1021,1.87065 -0.0875,0.21024 -0.0766,0.38617 -0.18676,0.38806 l -2.02364,0.0348 c -0.11016,0.002 -0.14919,-0.26581 -0.19261,-0.36947 -0.52767,-1.22227 -1.81215,-1.92394 -3.18825,-1.92394 -0.37063,0 -0.72099,0.0772 -1.05469,0.1914 l 2.23047,-4.32031 c 0.57378,-1.25085 1.7207,-0.7832 1.7207,-0.7832 0.27525,0.0434 0.55665,-0.23282 0.55665,-0.54688 0,-0.31405 -0.22624,-0.46202 -0.40238,-0.5358 z m -2.83593,7.41016 c 1.13609,0 2.05273,0.93617 2.05273,2.0957 0,1.15953 -0.91664,2.0957 -2.05273,2.0957 -1.1361,0 -2.05274,-0.93617 -2.05274,-2.0957 0,-1.15953 0.91664,-2.0957 2.05274,-2.0957 z m 8.69336,0 c 1.13609,0 2.05273,0.93617 2.05273,2.0957 0,1.15953 -0.91664,2.0957 -2.05273,2.0957 -1.1361,0 -2.05274,-0.93617 -2.05274,-2.0957 0,-1.15953 0.91664,-2.0957 2.05274,-2.0957 z" transform="matrix(1.0352384,0,0,0.99935152,-528.52754,292.29967)"/></g><ellipse style="color:#000;clip-rule:nonzero;display:inline;overflow:visible;visibility:visible;opacity:1;isolation:auto;mix-blend-mode:normal;color-interpolation:sRGB;color-interpolation-filters:linearRGB;solid-color:#000;solid-opacity:1;fill:url(#linearGradient8668);fill-opacity:1;fill-rule:nonzero;stroke:none;stroke-width:.39209896;stroke-linecap:round;stroke-linejoin:round;stroke-miterlimit:4;stroke-dasharray:none;stroke-dashoffset:0;stroke-opacity:1;color-rendering:auto;image-rendering:auto;shape-rendering:auto;text-rendering:auto;enable-background:accumulate" id="path8651" cx="276.448" cy="161.295" rx="1.76" ry="1.866"/><ellipse style="color:#000;clip-rule:nonzero;display:inline;overflow:visible;visibility:visible;opacity:1;isolation:auto;mix-blend-mode:normal;color-interpolation:sRGB;color-interpolation-filters:linearRGB;solid-color:#000;solid-opacity:1;fill:url(#linearGradient8668-4);fill-opacity:1;fill-rule:nonzero;stroke:none;stroke-width:.39209896;stroke-linecap:round;stroke-linejoin:round;stroke-miterlimit:4;stroke-dasharray:none;stroke-dashoffset:0;stroke-opacity:1;color-rendering:auto;image-rendering:auto;shape-rendering:auto;text-rendering:auto;enable-background:accumulate" id="path8651-1" cx="284.978" cy="161.231" rx="1.76" ry="1.866"/></g></g></g></svg>