<svg xmlns="http://www.w3.org/2000/svg" xmlns:svg="http://www.w3.org/2000/svg" id="svg30571" width="16" height="16" version="1.1" viewBox="0 0 16 16"><metadata id="metadata30576"/><g id="layer1" transform="translate(0,-1036.3622)"><g id="g17" transform="rotate(90,8,1044.3622)"><rect id="rect10176" width="16" height="16" x="-1052.362" y="0" transform="rotate(-90)" style="fill:none;stroke:none;stroke-width:1"/><path id="path15848" d="M 6.4179688,2.2421875 C 3.0330807,2.2421875 0.2890625,5.1566 0.2890625,8.75 c 0,0.1713 -0.055132,0.8985062 -0.0429687,1.0664062 H 2.1992188 c -0.017633,-0.1669999 0,-0.8436249 0,-1.015625 0,-2.4876999 1.8753732,-4.5566406 4.21875,-4.5566406 2.3433768,0 4.3828122,2.0181594 4.3828122,4.5058594 0,0.172 0.01764,1.299897 0,1.466797 H 8.1992188 L 11.800781,13.671875 15.375,10.216797 h -2.589844 c 0.01225,-0.1678 0.0293,-1.295497 0.0293,-1.466797 0,-3.5934 -3.0115959,-6.5078125 -6.3964842,-6.5078125 z" transform="translate(0,1036.3622)" style="fill:#fcaf3e;fill-opacity:1;stroke:#ce5c00;stroke-width:.4857651;stroke-miterlimit:4;stroke-dasharray:none;stroke-opacity:1"/></g></g></svg>