<svg xmlns="http://www.w3.org/2000/svg" xmlns:svg="http://www.w3.org/2000/svg" xmlns:xlink="http://www.w3.org/1999/xlink" id="svg11300" width="24" height="24" version="1.0" viewBox="0 0 24 24"><defs id="defs3"><linearGradient id="linearGradient3473"><stop id="stop3475" offset="0" style="stop-color:#888a85;stop-opacity:1"/><stop id="stop3481" offset=".5" style="stop-color:#eeeeec;stop-opacity:1"/><stop id="stop3477" offset="1" style="stop-color:#cecec8;stop-opacity:1"/></linearGradient><linearGradient id="linearGradient4397" x1="7.461" x2="9.334" y1="8.23" y2="8.23" gradientTransform="matrix(1.6044074,0,0,1.5859698,-1.4734335,-9.0529675)" gradientUnits="userSpaceOnUse" xlink:href="#linearGradient3473"/><linearGradient id="linearGradient4355-2-8" x1="-16.12" x2="-.81" y1=".469" y2="12.573" gradientTransform="matrix(0.70828848,0,0,0.55938517,11.473979,-0.10075031)" gradientUnits="userSpaceOnUse" xlink:href="#linearGradient3473"/><linearGradient id="linearGradient4355-2-8-6" x1="-16.12" x2="-.81" y1=".469" y2="12.573" gradientTransform="matrix(0.70828848,0,0,0.55938517,11.473979,-0.10075031)" gradientUnits="userSpaceOnUse" xlink:href="#linearGradient3473"/></defs><metadata id="metadata4"/><g id="layer1" transform="translate(0,8)"><g id="g4428" transform="rotate(-90,12,3.9503918)"><rect id="rect4273" width="24" height="23.896" x="0" y="-7.998" style="opacity:0;fill:#000;fill-opacity:1;stroke:none;stroke-width:.61922789;stroke-miterlimit:4;stroke-dasharray:none;stroke-opacity:1"/><g id="g4326-1-5" transform="matrix(1.1016893,0,0,0.81351157,16.633402,-8.1441799)"><path style="opacity:1;fill:url(#linearGradient4355-2-8);fill-opacity:1;stroke:#555753;stroke-width:.47580397;stroke-miterlimit:4;stroke-dasharray:none;stroke-opacity:1" id="rect4317-8-2" d="m 8.3476562,0.43374531 c 0,0 -1.577383,0.0639087 -2.0585937,0.48242188 C 5.3925784,1.6958473 5.5253906,3.8203125 5.5253906,3.8203125 c 0,0 -0.1159983,2.2652449 0.7636719,3.0214844 0.4952643,0.4257715 2.109375,0.4824219 2.109375,0.4824219 0,-10e-8 1.7641675,-0.02518 2.3125005,-0.4824219 0.835865,-0.6970091 0.738281,-2.8203125 0.738281,-2.8203125 0,0 0.222677,-2.2847032 -0.738281,-3.10531721 C 10.158382,0.44431037 8.3476562,0.43374531 8.3476562,0.43374531 Z M 7.2092898,2.240386 h 2.5716451 v 3.2967234 l -2.5716451,0 z" transform="matrix(1.4118541,0,0,1.787677,-16.199584,0.18010901)"/></g><g id="g4326-1-5-5" transform="matrix(1.1016893,0,0,0.81351157,16.633402,4.8558312)"><path style="opacity:1;fill:url(#linearGradient4355-2-8-6);fill-opacity:1;stroke:#555753;stroke-width:.47580397;stroke-miterlimit:4;stroke-dasharray:none;stroke-opacity:1" id="rect4317-8-2-2" d="m 8.3476562,0.23632812 c 0,0 -1.577383,0.0639087 -2.0585937,0.48242188 -0.8964841,0.7796801 -0.7636719,3.1015625 -0.7636719,3.1015625 0,0 -0.1159983,2.0678277 0.7636719,2.8240672 0.4952643,0.4257715 2.109375,0.4824219 2.109375,0.4824219 0,-1e-7 1.7641675,-0.02518 2.3125005,-0.4824219 0.835865,-0.6970091 0.738281,-2.6228953 0.738281,-2.6228953 0,0 0.222677,-2.4821204 -0.738281,-3.3027344 C 10.158382,0.24689318 8.3476562,0.23632812 8.3476562,0.23632812 Z M 7.2092898,2.0429688 H 9.7809349 V 5.3396922 H 7.2092898 Z" transform="matrix(1.4118541,0,0,1.787677,-16.199584,0.18010901)"/></g><rect id="rect4357" width="2.202" height="10.202" x="10.899" y="-1.101" style="opacity:1;fill:url(#linearGradient4397);fill-opacity:1;stroke:#555753;stroke-width:.79758096;stroke-linejoin:round;stroke-miterlimit:4;stroke-dasharray:none;stroke-opacity:1"/></g></g></svg>