<svg xmlns="http://www.w3.org/2000/svg" xmlns:svg="http://www.w3.org/2000/svg" id="svg8" width="16" height="16" version="1.1" viewBox="0 0 4.233 4.233"><metadata id="metadata5"/><g id="layer1" transform="translate(0,-292.76665)"><g style="display:inline" id="gimp-color-temperature" transform="translate(-2.2756732e-4,292.76562)"><path id="circle13731" d="m 1.1908899,1.0583333 c -0.07329,0 -0.1322917,0.059002 -0.1322917,0.1322917 V 2.7326497 C 0.84459499,2.7921607 0.69647099,2.9869828 0.69634639,3.2091063 0.69621589,3.4823728 0.91762339,3.7040118 1.1908899,3.7041666 1.4643582,3.7042973 1.6860808,3.4825746 1.6859501,3.2091063 1.6855292,2.9870288 1.5372051,2.7924328 1.3231815,2.7331664 V 1.190625 c 0,-0.07329 -0.059002,-0.1322917 -0.1322916,-0.1322917 z" style="color:#000;overflow:visible;opacity:1;fill:#c00;fill-opacity:1;fill-rule:evenodd;stroke:none;stroke-width:.26458332;stroke-linecap:round;stroke-linejoin:round;stroke-opacity:1"/><rect style="color:#000;overflow:visible;opacity:1;fill:#edd400;fill-opacity:1;fill-rule:evenodd;stroke:none;stroke-width:.26458332;stroke-linecap:round;stroke-linejoin:round;stroke-opacity:1" id="rect13692" width=".265" height=".529" x="-1.226" y="-4.284" rx=".132" ry=".132" transform="rotate(135)"/><rect id="rect13690" width=".265" height=".529" x="1.187" y="-4.188" rx=".132" ry=".132" transform="rotate(90)" style="color:#000;overflow:visible;opacity:1;fill:#edd400;fill-opacity:1;fill-rule:evenodd;stroke:none;stroke-width:.26458332;stroke-linecap:round;stroke-linejoin:round;stroke-opacity:1"/><rect id="rect13694" width=".265" height=".529" x="2.82" y="-2.416" rx=".132" ry=".132" transform="rotate(45)" style="color:#000;overflow:visible;opacity:1;fill:#edd400;fill-opacity:1;fill-rule:evenodd;stroke:none;stroke-width:.26458332;stroke-linecap:round;stroke-linejoin:round;stroke-opacity:1"/><rect id="rect13686" width=".265" height=".529" x="2.646" y="0" rx=".132" ry=".132" style="color:#000;overflow:visible;opacity:1;fill:#edd400;fill-opacity:1;fill-rule:evenodd;stroke:none;stroke-width:.26458332;stroke-linecap:round;stroke-linejoin:round;stroke-opacity:1"/><rect style="color:#000;overflow:visible;opacity:1;fill:#edd400;fill-opacity:1;fill-rule:evenodd;stroke:none;stroke-width:.26458332;stroke-linecap:round;stroke-linejoin:round;stroke-opacity:1" id="rect13688" width=".265" height=".529" x="2.646" y="2.117" rx=".132" ry=".132"/><path id="path13718" d="M 2.3855749,0.96329745 C 2.4863157,0.85137727 2.6298225,0.7874701 2.7804042,0.7874701 c 0.2933837,3e-8 0.5312182,0.2378346 0.5312182,0.5312183 v 0 c 0,0.2933837 -0.2378345,0.5312183 -0.5312182,0.5312183 -0.1505807,0 -0.2981859,-0.063906 -0.3989266,-0.1758252" style="color:#000;overflow:visible;opacity:1;fill:none;fill-opacity:1;fill-rule:evenodd;stroke:#edd400;stroke-width:.26458332;stroke-linecap:round;stroke-linejoin:round;stroke-opacity:1"/><path id="path13729" d="M 1.1856973,0 C 0.81081037,0 0.52940663,0.35163286 0.52940663,0.75757647 V 2.356962 C 0.2897416,2.5513305 0.1330484,2.8446986 0.1330484,3.1760334 c 0,0.5829721 0.4758783,1.0583333 1.0588501,1.0583333 0.5967032,0 1.0583333,-0.4780922 1.0583333,-1.0583333 0,-0.3341984 -0.1557236,-0.6295171 -0.3979085,-0.8237222 V 0.75757647 C 1.8523233,0.35163283 1.5704027,0 1.1955158,0 Z m 0,0.26561685 h 0.00982 c 0.2052578,0 0.3922242,0.20489139 0.3922242,0.49195962 V 1.7466634 h 5.159e-4 L 1.58774,2.545581 c 0.2223138,0.1407058 0.3968749,0.3466191 0.3968749,0.6304524 0,0.4399807 -0.3527359,0.7927166 -0.7927164,0.7927166 -0.43998035,0 -0.79530031,-0.3527359 -0.79530029,-0.7927166 -2e-8,-0.2840283 0.17405842,-0.4897985 0.39739175,-0.6304524 l -0.001034,-0.7921997 h 0.001034 V 0.75757647 c 0,-0.28706825 0.18644968,-0.4919596 0.39170734,-0.49195962 z" style="color:#000;font-style:normal;font-variant:normal;font-weight:400;font-stretch:normal;font-size:medium;line-height:normal;font-family:sans-serif;font-variant-ligatures:normal;font-variant-position:normal;font-variant-caps:normal;font-variant-numeric:normal;font-variant-alternates:normal;font-variant-east-asian:normal;font-feature-settings:normal;font-variation-settings:normal;text-indent:0;text-align:start;text-decoration:none;text-decoration-line:none;text-decoration-style:solid;text-decoration-color:#000;letter-spacing:normal;word-spacing:normal;text-transform:none;writing-mode:lr-tb;direction:ltr;text-orientation:mixed;dominant-baseline:auto;baseline-shift:baseline;text-anchor:start;white-space:normal;shape-padding:0;shape-margin:0;inline-size:0;clip-rule:nonzero;display:inline;overflow:visible;visibility:visible;opacity:1;isolation:auto;mix-blend-mode:normal;color-interpolation:sRGB;color-interpolation-filters:linearRGB;solid-color:#000;solid-opacity:1;vector-effect:none;fill:#3465a4;fill-opacity:1;fill-rule:evenodd;stroke:none;stroke-width:.26458332;stroke-linecap:round;stroke-linejoin:round;stroke-miterlimit:4;stroke-dasharray:none;stroke-dashoffset:0;stroke-opacity:1;color-rendering:auto;image-rendering:auto;shape-rendering:auto;text-rendering:auto;enable-background:accumulate"/></g></g></svg>