<svg xmlns="http://www.w3.org/2000/svg" xmlns:svg="http://www.w3.org/2000/svg" id="svg30571" width="12" height="12" version="1.1" viewBox="0 0 12 12"><metadata id="metadata30576"/><g id="layer1" transform="translate(0,-1040.3622)"><g id="g4302"><path id="rect4266" d="M 0 0 L 0 12 L 12 12 L 12 0 L 0 0 z M 3 3 L 9 3 L 9 9 L 3 9 L 3 3 z" transform="translate(0,1040.3622)" style="opacity:1;fill:#000;fill-opacity:1;stroke:none;stroke-width:.87908608;stroke-linecap:square;stroke-miterlimit:4;stroke-dasharray:none;stroke-opacity:1"/><path style="fill:#babdb6;stroke-width:1.00349033" id="rect17311" d="m 0,1040.3622 v 12 h 11.999999 v -12 z m 0.999995,1 h 0.9999998 v 1 H 0.999995 Z m 1.9999999,0 h 1 v 1 h -1 z m 1.9999999,0 h 1 v 1 h -1 z m 2,0 h 1 v 1 h -1 z m 2,0 h 1 v 1 h -1 z m -6,2 h 6 v 6 h -6 z m -1.9999998,0 h 0.9999998 v 1 H 0.999995 Z m 8.9999998,1 h 0.9999992 v 1 H 9.9999948 Z m -8.9999998,1 h 0.9999998 v 1 H 0.999995 Z m 8.9999998,1 h 0.9999992 v 1 H 9.9999948 Z m -8.9999998,1 h 0.9999998 v 1 H 0.999995 Z m 8.9999998,1 h 0.9999992 v 1 H 9.9999948 Z m -8,2 h 1 v 1 h -1 z m 2,0 h 1 v 1 h -1 z m 2,0 h 1 v 1 h -1 z m 2,0 h 1 v 1 h -1 z m 2,0 h 0.9999992 v 1 H 9.9999948 Z"/></g></g></svg>