<svg xmlns="http://www.w3.org/2000/svg" xmlns:svg="http://www.w3.org/2000/svg" id="svg30571" width="16" height="16" version="1.1" viewBox="0 0 16 16"><metadata id="metadata30576"/><g id="layer1" transform="translate(0,-1036.3622)"><g id="g4028"><g id="gimp-invert" transform="matrix(1.1428571,0,0,1.1428571,-185.14308,464.93365)"><path style="fill:#000" id="path7206" d="m -79,283 v 14 l 3.46875,-3.46875 C -76.436072,292.62643 -77,291.38071 -77,290 c 0,-2.76142 2.238576,-5 5,-5 1.380712,0 2.626428,0.56393 3.53125,1.46875 L -65,283 Z" transform="translate(241.0002,217)"/></g><path style="fill:#fff;stroke-width:1.14285707" id="path7206-3" d="m 15.999998,1052.3622 v -16 l -3.964286,3.9643 c 1.034083,1.0341 1.678572,2.4577 1.678572,4.0357 0,3.1559 -2.558373,5.7143 -5.7142857,5.7143 -1.5779565,0 -3.0016325,-0.6445 -4.0357145,-1.6786 l -3.96428502858,3.9643 z"/><g id="g18" transform="matrix(1.05,0,0,1.05,-0.39999875,-52.218154)"><path id="path7221" d="m 174.0002,507 c 0,2.76142 -2.23858,5 -5,5 -1.38071,0 -2.62643,-0.56393 -3.53125,-1.46875 l 7.0625,-7.0625 c 0.90482,0.90482 1.46875,2.15054 1.46875,3.53125 z" transform="matrix(1.1428571,0,0,1.1428571,-185.14308,464.93365)" style="fill:#000"/><path id="path7221-9" d="m 2.285713,1044.3622 c 0,-3.1559 2.558377,-5.7143 5.7142856,-5.7143 1.5779541,0 3.0016344,0.6445 4.0357144,1.6786 l -8.071429,8.0714 c -1.03408,-1.0341 -1.678571,-2.4578 -1.678571,-4.0357 z" style="fill:#fff;stroke-width:1.14285707"/></g></g></g></svg>