<svg xmlns="http://www.w3.org/2000/svg" xmlns:svg="http://www.w3.org/2000/svg" xmlns:xlink="http://www.w3.org/1999/xlink" id="svg11300" width="16" height="16" version="1.0" viewBox="0 0 16 16"><defs id="defs3"><linearGradient id="XMLID_897_" x1="292.972" x2="296.94" y1="4.759" y2="10.711" gradientUnits="userSpaceOnUse"><stop style="stop-color:#eeeeec" id="stop45093" offset="0"/><stop style="stop-color:#fff;stop-opacity:1" id="stop45095" offset="1"/></linearGradient><linearGradient id="linearGradient2229"><stop style="stop-color:#e2e2e2;stop-opacity:1" id="stop2231" offset="0"/><stop style="stop-color:#d8d8d8;stop-opacity:1" id="stop2233" offset="1"/></linearGradient><linearGradient id="linearGradient16968" x1="292.972" x2="296.94" y1="4.759" y2="10.711" gradientTransform="matrix(-1.2317617,0,0,1.1711927,372.55697,-3.3228576)" gradientUnits="userSpaceOnUse" xlink:href="#XMLID_897_"/><linearGradient id="linearGradient4150" x1="20.288" x2="24.326" y1="6.46" y2="23.943" gradientTransform="matrix(0.32711789,0,0,0.31608888,0.01178188,0.0096679)" gradientUnits="userSpaceOnUse" xlink:href="#linearGradient2229"/><linearGradient id="linearGradient16974" x1="292.972" x2="296.94" y1="4.759" y2="10.711" gradientTransform="matrix(1.3259485,0,0,1.3075336,-384.44437,-2.647134)" gradientUnits="userSpaceOnUse" xlink:href="#XMLID_897_"/><linearGradient id="linearGradient2237" x1="20.288" x2="24.326" y1="6.46" y2="23.943" gradientTransform="matrix(0.32711789,0,0,0.31608888,0.0941632,1.1158883)" gradientUnits="userSpaceOnUse" xlink:href="#linearGradient2229"/></defs><metadata id="metadata4"/><g id="layer1"><g id="g4017"><rect id="rect4327" width="16" height="16" x="0" y="0" style="opacity:0;fill:#3465a4;fill-opacity:1;stroke:none;stroke-width:1;stroke-linecap:square;stroke-linejoin:miter;stroke-miterlimit:4;stroke-dasharray:none;stroke-opacity:1;paint-order:stroke fill markers"/><polygon id="polygon45129" points="295.133 14.719 294.732 13.673 295.747 11.96 297.044 12.3 296.399 13.385" transform="matrix(1.5752023,0,0,1.324641,-458.73418,-7.6536506)" style="fill:#204a87;fill-opacity:1;stroke:#000200;stroke-width:.13128687;stroke-linecap:round;stroke-linejoin:round;stroke-miterlimit:4;stroke-dasharray:none;stroke-opacity:1"/><path style="fill:#3465a4;fill-opacity:1;stroke:#000;stroke-width:.162893;stroke-miterlimit:4;stroke-dasharray:none;stroke-opacity:1" id="path45138" d="m 5.7945878,9.865862 c 1.5075327,0.256494 2.0297315,1.809919 1.1644644,3.47029 C 6.0940127,14.997333 4.1713497,16.136554 2.6638455,15.882646 1.1556865,15.62629 0.63432627,14.07354 1.4995932,12.413171 2.3642203,10.752947 4.287508,9.6135899 5.7945878,9.865862 Z M 5.2450951,10.923873 C 4.575927,10.810978 3.3932653,11.517804 2.8128703,12.634344 2.2307802,13.751258 2.5446106,14.713341 3.213013,14.825622 3.8819883,14.940127 5.0654017,14.231562 5.6457956,13.115025 6.2284554,11.997987 5.9142504,11.036771 5.2450951,10.923873 Z"/><path style="fill:#3465a4;fill-opacity:1;stroke:#000;stroke-width:.16501015;stroke-miterlimit:4;stroke-dasharray:none;stroke-opacity:1" id="path11967" d="m 9.1530668,8.7694754 -2.0552734,0.352415 0.9866461,1.3757936 0.6981242,0.761921 c -0.1910624,0.79632 0.040027,1.803869 0.7267543,2.739423 1.148011,1.564921 3.109178,2.324468 4.382546,1.699423 1.273379,-0.627811 1.374859,-2.402672 0.226835,-3.966672 -1.147428,-1.563995 -3.109179,-2.3246589 -4.382547,-1.701453 -0.01,0.005 -0.016555,0.01323 -0.026432,0.01832 z m 1.8405912,2.1868816 c 0.80836,0.146114 1.43926,0.52977 2.017293,1.318829 0.772293,1.052079 0.716614,2.151216 0.151955,2.428034 -0.564646,0.279328 -1.775129,-0.197556 -2.545839,-1.249633 -0.35479,-0.482989 -0.503118,-0.898417 -0.563786,-1.390064 -0.03846,-0.311713 -0.09446,-0.70064 0.133557,-0.93307 0.185498,-0.189081 0.535782,-0.223088 0.80682,-0.174096 z"/><g id="g4094" transform="matrix(0.92203377,0,0,0.93498041,0.67606476,-0.21171934)"><g id="g4469"><path style="fill:url(#linearGradient16968);stroke:#555753;stroke-width:.29066882;stroke-linecap:round;stroke-linejoin:round;stroke-miterlimit:4;stroke-dasharray:none;stroke-opacity:1" id="path16717" d="m 11.395136,0.5078667 c 0.06324,0.0194041 -0.05214,-0.0297022 0.0096,-0.009079 0.794951,0.9635596 1.272205,1.321729 0.929506,1.9411905 C 11.192574,4.2464525 10.059071,6.0768957 8.9259334,7.8976163 8.7033961,7.9392085 8.4789085,7.961862 8.2539864,7.9668952 7.7805925,7.9782798 7.2946213,7.9118279 6.8453269,7.7590585 8.3525534,5.3379428 9.8604143,2.9114876 11.395136,0.5078667 Z" transform="matrix(1.1330815,0,0,1.0688983,-0.88571613,0.97907154)"/><path style="fill:url(#linearGradient4150);fill-opacity:1;stroke:none;stroke-width:.40194511;stroke-linecap:round;stroke-linejoin:round;stroke-miterlimit:4;stroke-dasharray:none;stroke-opacity:1" id="path16719" d="M 11.22827,1.3530456 C 11.15267,1.4502286 11.081193,1.6283407 11.003857,1.7185234 9.680058,3.852986 8.3339175,5.9838517 7.0052274,8.1094455 6.9854204,8.1894529 6.7389767,8.4294194 7.0012889,8.4075056 7.3648991,8.4700532 7.744418,8.5183276 8.1068908,8.4255353 9.3365233,6.4603446 10.54257,4.4799808 11.769396,2.5140963 11.881425,2.3916834 11.903225,2.2216326 11.785541,2.0993938 11.612163,1.8412731 11.436526,1.570035 11.258872,1.3234123 l -0.02308,0.022351 z" transform="matrix(1.1330815,0,0,1.0688983,-0.88571613,0.97907154)"/><path id="polygon45097" d="m 4.3336434,1.6295326 c -0.068084,0.021663 -5.95e-4,0.00796 -0.067,0.030986 -0.6095714,0.7448 -1.3128196,1.4344723 -0.943915,2.1260466 1.2289646,2.0167695 2.4491415,4.0602983 3.6689245,6.0929726 0.239554,0.046434 0.4812071,0.071725 0.7233277,0.077344 0.5095921,0.01271 1.032723,-0.061478 1.5163726,-0.2320313 C 7.6088766,7.0218876 5.9857173,4.3129639 4.3336434,1.6295326 Z" style="fill:url(#linearGradient16974);stroke:#555753;stroke-width:.32155609;stroke-linecap:round;stroke-linejoin:round;stroke-miterlimit:4;stroke-dasharray:none;stroke-opacity:1"/><path id="path16635" d="M 4.2549938,2.459266 C 4.1296962,2.8153968 3.7807838,3.0775247 3.6940481,3.4569216 4.9071717,5.4780293 6.1379273,7.4931009 7.3502127,9.5119992 7.7422197,9.5936446 8.1445992,9.541446 8.5322058,9.4626103 8.4704548,9.2285645 8.2907271,9.0419178 8.1952799,8.8210921 6.9212856,6.7442219 5.6360077,4.6696351 4.3751966,2.5876771 4.3704007,2.539755 4.3043095,2.4346475 4.2549938,2.459266 Z" style="fill:url(#linearGradient2237);fill-opacity:1;stroke:none;stroke-width:.40194511;stroke-linecap:round;stroke-linejoin:round;stroke-miterlimit:4;stroke-dasharray:none;stroke-opacity:1"/></g></g><circle id="path4483" cx="8" cy="2.5" r=".5" style="opacity:1;fill:#ce5c00;fill-opacity:1;stroke:none;stroke-width:.40032148;stroke-linecap:square;stroke-linejoin:miter;stroke-miterlimit:4;stroke-dasharray:none;stroke-opacity:1;paint-order:stroke fill markers"/><circle id="path4483-2" cx="8" cy=".5" r=".5" style="opacity:1;fill:#ce5c00;fill-opacity:1;stroke:none;stroke-width:.40032148;stroke-linecap:square;stroke-linejoin:miter;stroke-miterlimit:4;stroke-dasharray:none;stroke-opacity:1;paint-order:stroke fill markers"/><circle id="path4483-0" cx="8" cy="4.5" r=".5" style="opacity:1;fill:#ce5c00;fill-opacity:1;stroke:none;stroke-width:.40032148;stroke-linecap:square;stroke-linejoin:miter;stroke-miterlimit:4;stroke-dasharray:none;stroke-opacity:1;paint-order:stroke fill markers"/><circle id="path4483-2-2" cx="10" cy=".5" r=".5" style="opacity:1;fill:#ce5c00;fill-opacity:1;stroke:none;stroke-width:.40032148;stroke-linecap:square;stroke-linejoin:miter;stroke-miterlimit:4;stroke-dasharray:none;stroke-opacity:1;paint-order:stroke fill markers"/><circle id="path4483-2-3" cx="12" cy=".5" r=".5" style="opacity:1;fill:#ce5c00;fill-opacity:1;stroke:none;stroke-width:.40032148;stroke-linecap:square;stroke-linejoin:miter;stroke-miterlimit:4;stroke-dasharray:none;stroke-opacity:1;paint-order:stroke fill markers"/><circle id="path4483-2-8" cx="14" cy=".5" r=".5" style="opacity:1;fill:#ce5c00;fill-opacity:1;stroke:none;stroke-width:.40032148;stroke-linecap:square;stroke-linejoin:miter;stroke-miterlimit:4;stroke-dasharray:none;stroke-opacity:1;paint-order:stroke fill markers"/><circle id="path4483-0-5" cx="8" cy="3.5" r=".5" style="opacity:1;fill:#f57900;fill-opacity:1;stroke:none;stroke-width:.40032148;stroke-linecap:square;stroke-linejoin:miter;stroke-miterlimit:4;stroke-dasharray:none;stroke-opacity:1;paint-order:stroke fill markers"/><circle id="path4483-0-5-9" cx="8" cy="1.5" r=".5" style="opacity:1;fill:#f57900;fill-opacity:1;stroke:none;stroke-width:.40032148;stroke-linecap:square;stroke-linejoin:miter;stroke-miterlimit:4;stroke-dasharray:none;stroke-opacity:1;paint-order:stroke fill markers"/><circle id="path4483-0-5-7" cx="9" cy=".5" r=".5" style="opacity:1;fill:#f57900;fill-opacity:1;stroke:none;stroke-width:.40032148;stroke-linecap:square;stroke-linejoin:miter;stroke-miterlimit:4;stroke-dasharray:none;stroke-opacity:1;paint-order:stroke fill markers"/><circle id="path4483-0-5-7-0" cx="11" cy=".5" r=".5" style="opacity:1;fill:#f57900;fill-opacity:1;stroke:none;stroke-width:.40032148;stroke-linecap:square;stroke-linejoin:miter;stroke-miterlimit:4;stroke-dasharray:none;stroke-opacity:1;paint-order:stroke fill markers"/><circle id="path4483-0-5-7-1" cx="13" cy=".5" r=".5" style="opacity:1;fill:#f57900;fill-opacity:1;stroke:none;stroke-width:.40032148;stroke-linecap:square;stroke-linejoin:miter;stroke-miterlimit:4;stroke-dasharray:none;stroke-opacity:1;paint-order:stroke fill markers"/></g></g></svg>