<svg xmlns="http://www.w3.org/2000/svg" xmlns:svg="http://www.w3.org/2000/svg" id="svg30571" width="16" height="16" version="1.1" viewBox="0 0 16 16"><metadata id="metadata30576"/><g id="layer1" transform="translate(0,-1036.3622)"><g id="g4142"><g id="gimp-layer" transform="translate(-2.3293809,1035.84)" style="display:inline"><rect style="color:#000;clip-rule:nonzero;display:inline;overflow:visible;visibility:visible;opacity:0;isolation:auto;mix-blend-mode:normal;color-interpolation:sRGB;color-interpolation-filters:linearRGB;solid-color:#000;solid-opacity:1;fill:none;fill-opacity:1;fill-rule:nonzero;stroke:#000;stroke-width:.41550624;stroke-linecap:round;stroke-linejoin:miter;stroke-miterlimit:4;stroke-dasharray:none;stroke-dashoffset:0;stroke-opacity:1;color-rendering:auto;image-rendering:auto;shape-rendering:auto;text-rendering:auto;enable-background:accumulate" id="rect4002" width="15.584" height="15.584" x="2.537" y=".73"/></g><path id="rect4899" d="m 2.6283162,1036.7111 8.0297108,0 3.993058,4.0012 0,10.0499 c 0,0.6931 -0.570613,1.251 -1.279401,1.251 l -10.7433678,0 c -0.7087883,0 -1.2794013,-0.5579 -1.2794013,-1.251 l 0,-12.8001 c 0,-0.6931 0.570613,-1.251 1.2794013,-1.251 z" style="color:#000;display:inline;overflow:visible;visibility:visible;fill:#fff;fill-opacity:1;fill-rule:evenodd;stroke:#888a85;stroke-width:.69782978px;stroke-linecap:butt;stroke-linejoin:miter;stroke-miterlimit:4;stroke-dashoffset:0;stroke-opacity:1;marker:none;marker-start:none;marker-mid:none;marker-end:none;enable-background:accumulate"/><g id="g6116" transform="matrix(0.74678851,0,0,0.71959243,-0.85098746,1036.9418)"><circle style="color:#000;display:inline;overflow:visible;visibility:visible;opacity:1;fill:#555753;fill-opacity:1;fill-rule:evenodd;stroke:none;stroke-width:.99999982px;stroke-linecap:butt;stroke-linejoin:miter;stroke-miterlimit:4;stroke-dasharray:none;stroke-dashoffset:0;stroke-opacity:1;marker:none;marker-start:none;marker-mid:none;marker-end:none;enable-background:accumulate" id="path6068" cx="12.238" cy="10.028" r="3.32" transform="matrix(0.9948357,0,0,1.0050216,-0.1749648,-1.8830157)"/><path style="color:#000;display:inline;overflow:visible;visibility:visible;fill:#555753;fill-opacity:1;fill-rule:evenodd;stroke:none;stroke-width:.98647004px;stroke-linecap:butt;stroke-linejoin:miter;stroke-miterlimit:4;stroke-dashoffset:0;stroke-opacity:1;marker:none;marker-start:none;marker-mid:none;marker-end:none;enable-background:accumulate" id="path6070" d="m 17.208335,16.45 c 0,3.036001 -2.399608,2.200002 -5.356268,2.200002 -2.9566614,0 -5.3562696,0.835999 -5.3562696,-2.200002 0,-3.036 2.3996082,-5.5 5.3562696,-5.5 2.95666,0 5.356268,2.464 5.356268,5.5 z"/></g><path style="color:#000;display:inline;overflow:visible;visibility:visible;fill:none;fill-opacity:1;fill-rule:evenodd;stroke:#fff;stroke-width:.69782972px;stroke-linecap:butt;stroke-linejoin:miter;stroke-miterlimit:4;stroke-dashoffset:0;stroke-opacity:1;marker:none;marker-start:none;marker-mid:none;marker-end:none;enable-background:accumulate" id="path6084" d="m 3.3435361,1037.4066 6.9116179,0 3.695817,3.9976 -0.02615,8.6499 c 0,0.7 -0.577351,1.2636 -1.294507,1.2636 l -9.2867779,0 c -0.717157,0 -1.2945071,-0.5636 -1.2945071,-1.2636 l 0,-11.3838 c 0,-0.7001 0.5773501,-1.2637 1.2945071,-1.2637 z"/><path id="path6074" d="m 14.5,1040.9922 -4.102492,0 -0.02746,-4.1274" style="fill:#fff;fill-opacity:1;fill-rule:evenodd;stroke:#888a85;stroke-width:.74011785px;stroke-linecap:butt;stroke-linejoin:miter;stroke-opacity:1"/></g></g></svg>