<svg xmlns="http://www.w3.org/2000/svg" xmlns:svg="http://www.w3.org/2000/svg" xmlns:xlink="http://www.w3.org/1999/xlink" id="svg30571" width="16" height="16" version="1.1" viewBox="0 0 16 16"><defs id="defs30573"><linearGradient id="linearGradient4246"><stop style="stop-color:#888a85;stop-opacity:1" id="stop4242" offset="0"/><stop style="stop-color:#888a85;stop-opacity:0" id="stop4244" offset="1"/></linearGradient><linearGradient id="linearGradient4248" x1="7.595" x2="13.031" y1="1044.331" y2="1044.3" gradientUnits="userSpaceOnUse" xlink:href="#linearGradient4246"/></defs><metadata id="metadata30576"/><g id="layer1" transform="translate(0,-1036.3622)"><g id="g4246" transform="matrix(1.0000724,0,0,0.99990512,-6.2108389e-4,0.09914465)"><g id="g3940" transform="matrix(0.99960142,0,0,0.99699157,0.04404047,3.1178624)"><g id="g3988" transform="matrix(0.9981699,0,0,1.0131162,37.647145,-9.2038037)"><path id="path3938-8" d="m -29.696996,1032.5269 c -4.132275,-0.018 -7.525279,3.3498 -7.560267,7.4806 l 2.031963,-0.1153 c 0.09809,-3.043 2.53709,-5.375 5.582717,-5.3644 3.045856,0.015 5.340276,2.3577 5.412062,5.4016 l 2.007541,0.041 c 3.22e-4,-4.1315 -3.341087,-7.4245 -7.474016,-7.4413 z" style="opacity:1;fill:#fff;fill-opacity:1;stroke:#555357;stroke-width:.99579221;stroke-miterlimit:4;stroke-dasharray:none;stroke-opacity:1"/><path style="opacity:1;fill:#000;fill-opacity:1;stroke:#555357;stroke-width:.99579221;stroke-miterlimit:4;stroke-dasharray:none;stroke-opacity:1" id="path3938" d="m -22.236748,1039.869 -1.993773,0.053 c -0.0054,3.0945 -2.308278,5.3753 -5.403902,5.3882 -3.095736,0.014 -5.55885,-2.2395 -5.590648,-5.3338 l -2.032191,-0.052 c 0.03644,4.1297 3.406327,7.4667 7.537663,7.449 4.130471,-0.019 7.48136,-3.2656 7.482851,-7.3946 z"/></g></g><circle id="path4240" cx="8" cy="1044.362" r="5" style="opacity:1;fill:url(#linearGradient4248);fill-opacity:1;stroke:none;stroke-width:2.03843188;stroke-linecap:square;stroke-miterlimit:4;stroke-dasharray:none;stroke-opacity:1"/></g></g></svg>