<svg xmlns="http://www.w3.org/2000/svg" xmlns:osb="http://www.openswatchbook.org/uri/2009/osb" xmlns:svg="http://www.w3.org/2000/svg" xmlns:xlink="http://www.w3.org/1999/xlink" id="svg2" width="16" height="16.032" version="1.1" viewBox="0 0 16 16.032"><metadata id="metadata90"/><defs id="defs7386"><linearGradient id="linearGradient8340"><stop id="stop8342" stop-color="#fff" stop-opacity=".796"/><stop id="stop8344" offset="1" stop-color="#fff" stop-opacity=".216"/></linearGradient><linearGradient id="linearGradient19282" gradientTransform="matrix(0,-735328.32,170712.69,0,2464326300,577972450)" osb:paint="solid"><stop id="stop19284" stop-color="#b4b4b4"/></linearGradient><linearGradient id="linearGradient6057" x1="231.55" x2="320.7" gradientTransform="matrix(0.01502614,0,0,0.01468232,2.9686133,1037.3257)" gradientUnits="userSpaceOnUse" osb:paint="gradient"><stop id="stop6053" stop-color="#a11f7c"/><stop id="stop6055" offset="1" stop-color="#541f31" stop-opacity=".984"/></linearGradient><linearGradient id="linearGradient3096"><stop id="stop3098" stop-color="#424242"/><stop id="stop3100" offset="1" stop-color="#777"/></linearGradient><linearGradient id="linearGradient9766"><stop id="stop9768" stop-color="#6194cb"/><stop id="stop9770" offset="1" stop-color="#729fcf"/></linearGradient><linearGradient id="linearGradient3991" x1="1.204" x2="14.824" y1="8.016" y2="8.016" gradientTransform="translate(-223.65347,854.15041)" gradientUnits="userSpaceOnUse" xlink:href="#linearGradient3096"/><linearGradient id="linearGradient9022" x1="18.113" x2="15.515" y1="31.368" y2="6.18" gradientTransform="matrix(0.3907116,0,0,0.3907116,746.77222,246.18429)" gradientUnits="userSpaceOnUse" xlink:href="#linearGradient3096"/><linearGradient id="linearGradient9024" x1="22.176" x2="22.065" y1="36.988" y2="32.05" gradientTransform="matrix(0.3907116,0,0,0.3907116,746.77222,246.18429)" gradientUnits="userSpaceOnUse" xlink:href="#linearGradient9766"/><linearGradient id="linearGradient9026" x1="13.036" x2="12.854" y1="32.567" y2="46.689" gradientTransform="matrix(0.51475824,0,0,0.31892069,746.42857,245.66926)" gradientUnits="userSpaceOnUse" xlink:href="#linearGradient8340"/><linearGradient id="linearGradient5487" osb:paint="solid"><stop id="stop5485" offset="0" style="stop-color:#888a85;stop-opacity:1"/></linearGradient></defs><g style="display:inline" id="preferences" transform="translate(-370.93949,-57.740573)"><g id="gimp-prefs-folders-plug-ins" transform="translate(370.93949,25.77295)"><path id="path216-5-8" d="m 0.57499669,47.479335 c 0.008516,0.162654 0.17969018,0.32531 0.34234522,0.32531 l 12.23983009,0 c 0.162654,0 0.316794,-0.162656 0.308278,-0.32531 L 13.099571,36.841533 c -0.0085,-0.162654 -0.179687,-0.325312 -0.342342,-0.325312 l -5.1850839,0 c -0.1895174,0 -0.482323,-0.123305 -0.5476386,-0.432374 L 6.7856289,34.95349 C 6.7248854,34.666054 6.4409377,34.547976 6.2782829,34.547976 l -5.77427186,0 c -0.16265824,0 -0.31679709,0.162655 -0.30828118,0.32531 z" style="fill:#fff;fill-opacity:1;fill-rule:nonzero;stroke:url(#linearGradient9022);stroke-width:.39071161;stroke-linecap:round;stroke-linejoin:round;stroke-miterlimit:4;stroke-dasharray:none;stroke-opacity:1"/><path style="color:#000;display:inline;overflow:visible;visibility:visible;fill:#73d216;fill-opacity:1;fill-rule:nonzero;stroke:url(#linearGradient3991);stroke-width:.5;stroke-linecap:square;stroke-linejoin:round;stroke-miterlimit:4;stroke-dasharray:none;stroke-dashoffset:1.5;stroke-opacity:1;marker:none;marker-start:none;marker-mid:none;marker-end:none" id="path1933" d="m 9.09375,1.4570312 c -0.135398,0 -0.5818267,0.067991 -0.8457031,0.1894532 -0.1319382,0.060731 -0.2177962,0.1291192 -0.2441407,0.1601562 -0.026344,0.031037 -0.015625,8.884e-4 -0.015625,0.037109 0,0.010174 -0.025957,-0.074396 0.1210938,0.2109375 0.1470511,0.2853339 0.3244293,0.798567 0.3164062,1.4570313 A 0.92679958,0.92679958 0 0 1 7.5,4.4257812 l -3.0742188,0 0,3.0742188 A 0.92679958,0.92679958 0 0 1 3.5,8.4257812 c -0.8089023,0 -1.4049168,-0.4303844 -1.7441406,-0.7128906 C 1.4898876,7.4913889 1.4981325,7.4993769 1.5546875,7.4882812 c -0.012556,0.028621 -0.012876,0.018636 -0.025391,0.064453 -0.069061,0.25283 -0.079669,0.6825148 -0.072266,0.9179687 0.017981,0.5718817 -0.00855,1.2782849 0.066406,1.7558591 0.016009,0.101999 0.029663,0.109289 0.050781,0.177735 0.058096,-0.04773 0.085634,-0.06929 0.1601562,-0.128906 C 2.0939408,9.987738 2.6910977,9.5742188 3.5,9.5742188 A 0.92679958,0.92679958 0 0 1 4.4257812,10.5 l 0,4.074219 1.453125,0 C 5.6912728,14.289751 5.5742188,13.898705 5.5742188,13.5 c 0,-0.418291 0.1785797,-0.837976 0.4316406,-1.115234 C 6.2589202,12.107507 6.553713,11.948187 6.8398438,11.837891 7.4121053,11.617297 7.9916184,11.574219 8.5,11.574219 c 0.6944569,0 1.2125135,-0.07307 1.847656,0.158203 0.317572,0.115636 0.670828,0.382742 0.855469,0.726562 0.184641,0.343821 0.222656,0.690948 0.222656,1.041016 0,0.400055 -0.165761,0.74369 -0.320312,0.966797 -0.03393,0.04898 -0.05708,0.06539 -0.08984,0.107422 l 3.558594,0 0,-2.541016 c -0.257827,0.204572 -0.57779,0.392578 -1.074219,0.392578 -0.558902,0 -1.164039,-0.356081 -1.482422,-0.886719 C 11.699195,11.008425 11.574219,10.352967 11.574219,9.5 c 0,-0.8529674 0.124976,-1.5084248 0.443359,-2.0390625 0.318383,-0.5306377 0.92352,-0.8867187 1.482422,-0.8867187 0.428887,0 0.784773,0.1453212 1.074219,0.3203124 l 0,-2.46875 -4.074219,0 A 0.92679958,0.92679958 0 0 1 9.5742188,3.515625 C 9.5657321,2.9837787 9.7814839,2.4653641 10.083984,2.1425781 10.376944,1.8299731 10.692036,1.6807408 10.939453,1.5664062 10.521657,1.4799814 9.8317959,1.4570312 9.09375,1.4570312 Z" transform="matrix(0.01969,-0.88083746,0.88083746,0.01969,2.1629229,44.938261)"/><path style="color:#000;display:block;visibility:visible;fill:url(#linearGradient9024);fill-opacity:1;fill-rule:nonzero;stroke:#3465a4;stroke-width:.39071161;stroke-linecap:butt;stroke-linejoin:round;stroke-miterlimit:4;stroke-dasharray:none;stroke-dashoffset:0;stroke-opacity:1;marker:none;marker-start:none;marker-mid:none;marker-end:none" id="path233-5-0" d="m 14.352172,47.80097 c 0.446933,-0.01722 0.766997,-0.428337 0.7998,-0.906844 0.309361,-4.512206 0.648332,-8.295569 0.648332,-8.295569 0.02819,-0.09669 -0.0656,-0.193389 -0.187597,-0.193389 l -13.4292093,0 c 0,0 -0.7229411,8.543648 -0.7229411,8.543648 -0.044758,0.383705 -0.1820746,0.705124 -0.60553886,0.853202 l 13.49715426,-0.0011 z"/><path id="path304-3-5" d="m 2.5670257,38.796357 12.8118623,0.02532 -0.614998,7.815005 c -0.03294,0.418652 -0.176085,0.55802 -0.731668,0.55802 -0.731218,0 -11.2048149,-0.01266 -12.26629,-0.01266 0.091269,-0.125344 0.1304022,-0.386266 0.130926,-0.392513 z" style="opacity:.46590911;fill:none;fill-opacity:1;fill-rule:evenodd;stroke:url(#linearGradient9026);stroke-width:.39071149px;stroke-linecap:round;stroke-linejoin:miter;stroke-opacity:1"/><rect style="color:#000;clip-rule:nonzero;display:inline;overflow:visible;visibility:visible;opacity:0;isolation:auto;mix-blend-mode:normal;color-interpolation:sRGB;color-interpolation-filters:linearRGB;solid-color:#000;solid-opacity:1;fill:#bebebe;fill-opacity:1;fill-rule:nonzero;stroke:none;stroke-width:.493;stroke-linecap:round;stroke-linejoin:miter;stroke-miterlimit:4;stroke-dasharray:none;stroke-dashoffset:0;stroke-opacity:1;color-rendering:auto;image-rendering:auto;shape-rendering:auto;text-rendering:auto;enable-background:accumulate" id="rect3965-5-78" width="16" height="16" x="0" y="32"/></g></g></svg>