<svg xmlns="http://www.w3.org/2000/svg" xmlns:svg="http://www.w3.org/2000/svg" id="svg30571" width="24" height="24" version="1.1" viewBox="0 0 24 24"><metadata id="metadata30576"/><g id="layer1" transform="translate(0,-1028.3622)"><g id="g4399" transform="rotate(90,12,1040.3655)"><rect style="fill:none;stroke:none;stroke-width:1.49979532" id="rect12107" width="23.993" height="24" x="-1052.362" y="-24" rx=".75" ry="0" transform="matrix(0,-1,-1,0,0,0)"/><path id="path12109" d="m 12,1043.073 -5.8066205,5.8595 h 4.4106755 c 0.0029,0.9787 -0.0087,1.9553 -0.06801,2.9299 h 2.900788 c 0.01886,-0.9739 0.0015,-1.9521 0.0029,-2.9299 h 4.357082 z" style="fill:#fff;fill-opacity:1;stroke:#000;stroke-width:.99969947;stroke-miterlimit:4;stroke-dasharray:none;stroke-opacity:1"/><rect style="fill:#fff;fill-opacity:1;stroke:#000;stroke-width:1.00016689;stroke-miterlimit:4;stroke-dasharray:none;stroke-opacity:1" id="rect12113" width="3" height="19" x="-1041.862" y="-21.5" transform="matrix(0,-1,-1,0,0,0)"/><path id="path12109-9" d="m 12.005671,1037.6518 -5.8066204,-5.8595 h 4.4106754 c 0.0029,-0.9787 -0.0087,-1.9553 -0.06801,-2.9299 h 2.900788 c 0.01886,0.9739 0.0015,1.9521 0.0029,2.9299 h 4.357082 z" style="fill:#fff;fill-opacity:1;stroke:#000;stroke-width:.99969947;stroke-miterlimit:4;stroke-dasharray:none;stroke-opacity:1"/></g></g></svg>