<svg xmlns="http://www.w3.org/2000/svg" xmlns:svg="http://www.w3.org/2000/svg" xmlns:xlink="http://www.w3.org/1999/xlink" id="svg2" width="16" height="16" version="1.1" viewBox="0 0 16 16"><metadata id="metadata90"/><defs id="defs7386"><linearGradient id="linearGradient4293"><stop style="stop-color:#000;stop-opacity:1" id="stop4289" offset="0"/><stop style="stop-color:#000;stop-opacity:0" id="stop4291" offset="1"/></linearGradient><linearGradient id="linearGradient5148"><stop id="stop5150" stop-color="#d0d0d0"/><stop id="stop5152" offset="1" stop-color="#ececec"/></linearGradient><linearGradient id="linearGradient7321" x1="83.032" x2="66.311" y1="40.924" y2="22.766" gradientTransform="matrix(0.3410129,0,0,0.39513284,572.96639,416.15408)" gradientUnits="userSpaceOnUse" xlink:href="#linearGradient5148"/><linearGradient id="linearGradient2853"><stop style="stop-color:#2e3436;stop-opacity:1" id="stop2855" offset="0"/><stop style="stop-color:#8c999d;stop-opacity:1" id="stop2857" offset="1"/></linearGradient><linearGradient id="linearGradient5704"><stop style="stop-color:#5a5a5a;stop-opacity:1" id="stop5706" offset="0"/><stop style="stop-color:#000;stop-opacity:1" id="stop5708" offset="1"/></linearGradient><linearGradient id="linearGradient4295" x1="6" x2="12" y1="3" y2="5" gradientUnits="userSpaceOnUse" xlink:href="#linearGradient4293"/></defs><g id="g4303"><g id="g19"><g id="g3998" transform="matrix(1.0047718,0,0,1.0477684,0.01157618,-3.8010831)"><rect id="rect4273-3" width="11.827" height="9.119" x="7.03" y="10.423" transform="matrix(1,0,-0.33324929,0.94283875,0,0)" style="color:#000;display:inline;overflow:visible;visibility:visible;opacity:1;fill:url(#linearGradient7321);fill-opacity:1;fill-rule:evenodd;stroke:#9b9c98;stroke-width:1.00379252;stroke-linecap:round;stroke-linejoin:round;stroke-miterlimit:10;stroke-dasharray:none;stroke-dashoffset:0;stroke-opacity:1;marker:none;marker-start:none;marker-mid:none;marker-end:none"/><rect style="color:#000;display:inline;overflow:visible;visibility:visible;opacity:1;fill:#d3d7cf;fill-opacity:1;fill-rule:evenodd;stroke:#fff;stroke-width:1.06549037;stroke-linecap:butt;stroke-linejoin:miter;stroke-miterlimit:10;stroke-dasharray:none;stroke-dashoffset:0;stroke-opacity:1;marker:none;marker-start:none;marker-mid:none;marker-end:none" id="rect5156-3" width="9.632" height="5.793" x="8.177" y="11.497" ry="0" transform="matrix(1,0,-0.33197498,0.94328819,0,0)"/></g></g><path id="text1950-9" d="M 10,0 V 2.7064896 H 9.7372295 C 9.5815047,2.0821122 9.4087565,1.6347185 9.2189869,1.3643068 9.0291976,1.0889963 8.7688615,0.8702157 8.4379718,0.7079646 8.2530524,0.6194786 8.0897726,0.5752308 7.6274986,0.5752214 H 6.8902809 v 7.7138641 c -6.9e-6,0.5113081 0.026753,0.8308755 0.08029,0.9587015 0.058383,0.127828 0.1678753,0.240905 0.3284641,0.339234 0.1654409,0.09341 0.3892829,0.140118 0.671525,0.140117 H 8.2990232 V 10 H 2.5634563 V 9.727138 h 0.3284641 c 0.2870983,10e-7 0.5182387,-0.05163 0.6934233,-0.154867 0.1265154,-0.06883 0.2262715,-0.186823 0.2992655,-0.353982 0.053526,-0.117993 0.08029,-0.4277281 0.08029,-0.9292035 V 0.5752214 H 3.194784 C 2.5281229,0.5752308 2.3819747,0.7178068 2.0802777,1.00295 1.6569233,1.4011887 1.3892859,1.9690346 1.2773664,2.7064896 H 1 V 0 h 9" style="color:#000;font-style:normal;font-variant:normal;font-weight:700;font-stretch:normal;font-size:36.17139816px;line-height:100%;font-family:'Times New Roman';text-indent:0;text-align:start;text-decoration:none;text-decoration-line:none;letter-spacing:normal;word-spacing:normal;text-transform:none;writing-mode:lr-tb;direction:ltr;text-anchor:start;display:inline;overflow:visible;visibility:visible;opacity:1;fill:url(#linearGradient4295);fill-opacity:1;fill-rule:evenodd;stroke:none;stroke-width:.99039966;stroke-linecap:butt;stroke-linejoin:miter;stroke-miterlimit:4;stroke-dashoffset:0;stroke-opacity:1;marker:none;marker-start:none;marker-mid:none;marker-end:none"/></g></svg>