<svg xmlns="http://www.w3.org/2000/svg" xmlns:svg="http://www.w3.org/2000/svg" xmlns:xlink="http://www.w3.org/1999/xlink" id="svg11300" width="16" height="16" version="1.0" viewBox="0 0 16 16"><defs id="defs3"><linearGradient id="linearGradient4254"><stop style="stop-color:#d3d7cf;stop-opacity:1" id="stop4250" offset="0"/><stop style="stop-color:#fff;stop-opacity:1" id="stop4252" offset="1"/></linearGradient><linearGradient id="linearGradient11494"><stop id="stop11496" offset="0" style="stop-color:#ef2929;stop-opacity:1"/><stop id="stop11498" offset="1" style="stop-color:#ef2929;stop-opacity:0"/></linearGradient><linearGradient id="linearGradient11399"><stop id="stop11401" offset="0" style="stop-color:#000;stop-opacity:1"/><stop id="stop11403" offset="1" style="stop-color:#000;stop-opacity:0"/></linearGradient><linearGradient id="linearGradient4045" x1="-2.293" x2="4.289" y1="1.013" y2="1.013" gradientTransform="matrix(1.2431372,-0.00620646,0.00687886,1.1216216,10.069405,3.3396076)" gradientUnits="userSpaceOnUse" xlink:href="#linearGradient11494"/><linearGradient id="linearGradient4304" x1="8.59" x2="15.262" y1="11.755" y2="11.755" gradientTransform="matrix(1.1324688,0,0,1.1303123,-2.010834,-0.16136399)" gradientUnits="userSpaceOnUse" xlink:href="#linearGradient11399"/><linearGradient id="linearGradient4256" x1="7.47" x2="4.624" y1="8.395" y2="10.765" gradientTransform="matrix(1.1321798,0,0,1.1628752,-2.0380654,-0.0028837)" gradientUnits="userSpaceOnUse" xlink:href="#linearGradient4254"/><linearGradient id="linearGradient3995" x1="13.866" x2="10.768" y1="1.301" y2="4.152" gradientTransform="matrix(1.0412136,0,0,1.0343691,-0.67309832,-0.40995999)" gradientUnits="userSpaceOnUse" xlink:href="#linearGradient4254"/></defs><metadata id="metadata4"/><g id="layer1"><g id="g4070"><path id="rect4287" d="m 9.1807466,10.270783 c 0,0 -1.4373728,2.891252 -0.6414788,3.679973 0.7475391,0.740805 1.9006222,-0.914336 2.9258272,-1.103617 1.200014,-0.221556 2.948183,-1.005053 3.661077,-0.01643 0.651853,0.903964 -1.077182,3.163561 -1.077182,3.163561 0.06205,0.06322 0.04645,-0.4214 -0.136441,-0.242593 -0.1829,0.178807 -0.3801,0.271852 -0.442154,0.208619 0,0 1.741442,-1.980743 1.158874,-2.810229 -0.56553,-0.805229 -1.985405,-0.05981 -2.95306,0.125158 -1.260127,0.240867 -2.6384796,2.074725 -3.6338433,1.266691 -0.9474641,-0.769154 0.478091,-3.625618 0.478091,-3.625618 -0.062053,-0.06323 0.035236,-0.258089 0.2181354,-0.436895 0.1829005,-0.178808 0.3801008,-0.271851 0.4421545,-0.208619 z" style="color:#000;clip-rule:nonzero;display:inline;overflow:visible;visibility:visible;opacity:1;isolation:auto;mix-blend-mode:normal;color-interpolation:sRGB;color-interpolation-filters:linearRGB;solid-color:#000;solid-opacity:1;fill:url(#linearGradient4304);fill-opacity:1;fill-rule:nonzero;stroke:none;stroke-width:.57371247;stroke-linecap:round;stroke-linejoin:round;stroke-miterlimit:4;stroke-dasharray:none;stroke-dashoffset:0;stroke-opacity:1;color-rendering:auto;image-rendering:auto;shape-rendering:auto;text-rendering:auto;enable-background:accumulate"/><path style="color:#000;clip-rule:nonzero;display:inline;overflow:visible;visibility:visible;opacity:1;isolation:auto;mix-blend-mode:normal;color-interpolation:sRGB;color-interpolation-filters:linearRGB;solid-color:#000;solid-opacity:1;fill:url(#linearGradient4256);fill-opacity:1;fill-rule:nonzero;stroke:#183436;stroke-width:.42772946;stroke-linecap:round;stroke-linejoin:round;stroke-miterlimit:4;stroke-dasharray:none;stroke-dashoffset:0;stroke-opacity:1;color-rendering:auto;image-rendering:auto;shape-rendering:auto;text-rendering:auto;enable-background:accumulate" id="rect3979" d="M 14.477176,0.21386099 C 13.953457,0.23205037 13.749177,0.38707937 13.141375,0.92624405 9.3538443,4.3218911 5.8528686,7.6201446 2.3748826,11.195524 l -0.021595,0.05909 -1.0711524,2.809027 3.1853825,-0.884674 c 0.7739825,-0.778913 1.5832643,-1.573062 2.4079327,-2.373268 0.249376,0.158841 0.5494284,0.244374 0.8573539,0.244396 0.8079749,1.6e-4 1.4628399,-0.57613 1.4620373,-1.2866137 C 9.1940298,9.4546275 9.0667706,9.1563548 8.8363508,8.9232468 10.948368,6.9093134 13.076898,4.9721273 15.131754,3.0174605 15.542802,2.5404308 15.785415,2.1464074 15.786135,1.6264529 15.785736,0.8239717 15.244226,0.21440899 14.477176,0.21386099 Z M 1.2821346,14.063644 c -0.064153,-0.08574 -0.1688581,-0.136964 -0.2807458,-0.13735 -0.19113649,-6.86e-4 -0.34626811,0.144405 -0.3455331,0.323171 4.6295e-4,0.177975 0.15524189,0.321831 0.3455331,0.321148 0.1894485,-4.32e-4 0.3429117,-0.143962 0.3433734,-0.321148 1.466e-4,-0.0665 -0.021731,-0.131418 -0.062628,-0.185821 z"/><path style="color:#000;clip-rule:nonzero;display:inline;overflow:visible;visibility:visible;opacity:1;isolation:auto;mix-blend-mode:normal;color-interpolation:sRGB;color-interpolation-filters:linearRGB;solid-color:#000;solid-opacity:1;fill:red;fill-opacity:1;fill-rule:nonzero;stroke:url(#linearGradient4045);stroke-width:.81148911;stroke-linecap:round;stroke-linejoin:round;stroke-miterlimit:4;stroke-dasharray:none;stroke-dashoffset:0;stroke-opacity:1;color-rendering:auto;image-rendering:auto;shape-rendering:auto;text-rendering:auto;enable-background:accumulate" id="rect3979-1" d="M 14.542833,0.66044908 C 14.192012,0.69802556 13.99925,0.85523076 13.841844,1.0207111 L 7.1630064,7.3001625 8.438913,8.4342955 14.971898,2.423638 C 15.218319,2.2217657 15.485088,1.8642411 15.432557,1.5346506 15.367115,1.1240558 14.956246,0.61616846 14.542833,0.66044908 Z"/><path id="path3987" d="M 7.1716255,6.9409373 13.841296,0.80551275" style="fill:none;fill-rule:evenodd;stroke:url(#linearGradient3995);stroke-width:.25944641;stroke-linecap:round;stroke-linejoin:miter;stroke-miterlimit:4;stroke-dasharray:none;stroke-opacity:1"/><path id="path4003-3" d="M 6.9083897,8.6691482 5.0039002,5.3692939 8.8674562,5.2651386 Z" style="color:#000;clip-rule:nonzero;display:inline;overflow:visible;visibility:visible;opacity:1;isolation:auto;mix-blend-mode:normal;color-interpolation:sRGB;color-interpolation-filters:linearRGB;solid-color:#000;solid-opacity:1;fill:#3465a4;fill-opacity:1;fill-rule:nonzero;stroke:none;stroke-width:.22948499;stroke-linecap:round;stroke-linejoin:round;stroke-miterlimit:4;stroke-dasharray:none;stroke-dashoffset:0;stroke-opacity:1;color-rendering:auto;image-rendering:auto;shape-rendering:auto;text-rendering:auto;enable-background:accumulate"/><path id="path4003-3-3" d="M 6.9959791,8.6678241 5.1114027,5.3283246 7.0550875,5.3034651 c 0.00504,0.015929 -0.00612,0.1747271 -0.059108,3.364359 z" style="color:#000;clip-rule:nonzero;display:inline;overflow:visible;visibility:visible;opacity:1;isolation:auto;mix-blend-mode:normal;color-interpolation:sRGB;color-interpolation-filters:linearRGB;solid-color:#000;solid-opacity:1;fill:#729fcf;fill-opacity:1;fill-rule:nonzero;stroke:none;stroke-width:.22948499;stroke-linecap:round;stroke-linejoin:round;stroke-miterlimit:4;stroke-dasharray:none;stroke-dashoffset:0;stroke-opacity:1;color-rendering:auto;image-rendering:auto;shape-rendering:auto;text-rendering:auto;enable-background:accumulate"/><path style="color:#000;clip-rule:nonzero;display:inline;overflow:visible;visibility:visible;opacity:1;isolation:auto;mix-blend-mode:normal;color-interpolation:sRGB;color-interpolation-filters:linearRGB;solid-color:#000;solid-opacity:1;fill:none;fill-opacity:1;fill-rule:nonzero;stroke:#183436;stroke-width:.40409178;stroke-linecap:round;stroke-linejoin:round;stroke-miterlimit:4;stroke-dasharray:none;stroke-dashoffset:0;stroke-opacity:1;color-rendering:auto;image-rendering:auto;shape-rendering:auto;text-rendering:auto;enable-background:accumulate" id="rect4041-4" d="m 5.444148,2.3549841 c -0.355851,0 -0.6428099,0.3090121 -0.6428099,0.6924643 v 1.8560907 c 0,0.069349 0.012522,0.1346072 0.029975,0.1977034 0.4853831,1.3667017 1.4820174,2.5177971 2.197802,3.7725691 L 8.6721694,5.7531332 C 8.8205738,5.6265682 8.9176763,5.1242207 8.9176763,4.9035391 V 3.0474484 c 0,-0.3834522 -0.2869587,-0.6924643 -0.6428001,-0.6924643 z"/><ellipse id="path4056-4" cx="1.012" cy="14.254" rx=".163" ry=".163" style="color:#000;clip-rule:nonzero;display:inline;overflow:visible;visibility:visible;opacity:1;isolation:auto;mix-blend-mode:normal;color-interpolation:sRGB;color-interpolation-filters:linearRGB;solid-color:#000;solid-opacity:1;fill:#3465a4;fill-opacity:1;fill-rule:nonzero;stroke:none;stroke-width:.57371247;stroke-linecap:round;stroke-linejoin:round;stroke-miterlimit:4;stroke-dasharray:none;stroke-dashoffset:0;stroke-opacity:1;color-rendering:auto;image-rendering:auto;shape-rendering:auto;text-rendering:auto;enable-background:accumulate"/><circle id="path4076" cx=".5" cy="-15.5" r=".429" transform="scale(1,-1)" style="opacity:1;fill:#729fcf;fill-opacity:1;stroke:#fff;stroke-width:.14275688;stroke-linecap:round;stroke-linejoin:miter;stroke-miterlimit:4;stroke-dasharray:none;stroke-dashoffset:0;stroke-opacity:1"/></g></g></svg>