<svg xmlns="http://www.w3.org/2000/svg" xmlns:svg="http://www.w3.org/2000/svg" id="svg11300" width="16" height="16" version="1.0" viewBox="0 0 16 16"><metadata id="metadata4"/><g id="layer1"><g id="g26517"><g id="gimp-tool-rect-select" transform="translate(-41.000198,-217)" style="display:inline"><rect style="fill:none;stroke:none" id="rect74851" width="16" height="16" x="41" y="217"/><rect style="fill:#eeeeec;fill-opacity:1;stroke:none" id="rect74853" width="1" height="1" x="41" y="220"/><rect style="fill:#eeeeec;fill-opacity:1;stroke:none" id="rect74855" width="1" height="1" x="53" y="220"/><rect style="fill:#eeeeec;fill-opacity:1;stroke:none" id="rect74857" width="1" height="1" x="55" y="220"/><rect style="fill:#eeeeec;fill-opacity:1;stroke:none" id="rect74859" width="1" height="1" x="41" y="222"/><rect style="fill:#eeeeec;fill-opacity:1;stroke:none" id="rect74861" width="1" height="1" x="51" y="220"/><rect style="fill:#eeeeec;fill-opacity:1;stroke:none" id="rect74863" width="1" height="1" x="43" y="220"/><rect style="fill:#eeeeec;fill-opacity:1;stroke:none" id="rect74865" width="1" height="1" x="45" y="220"/><rect style="fill:#eeeeec;fill-opacity:1;stroke:none" id="rect74867" width="1" height="1" x="47" y="220"/><rect style="fill:#eeeeec;fill-opacity:1;stroke:none" id="rect74869" width="1" height="1" x="49" y="220"/><rect style="fill:#eeeeec;fill-opacity:1;stroke:none" id="rect74871" width="1" height="1" x="41" y="224"/><rect style="fill:#eeeeec;fill-opacity:1;stroke:none" id="rect74873" width="1" height="1" x="41" y="226"/><rect style="fill:#eeeeec;fill-opacity:1;stroke:none" id="rect74875" width="1" height="1" x="43" y="230"/><rect style="fill:#eeeeec;fill-opacity:1;stroke:none" id="rect74877" width="1" height="1" x="45" y="230"/><rect style="fill:#eeeeec;fill-opacity:1;stroke:none" id="rect74879" width="1" height="1" x="47" y="230"/><rect style="fill:#eeeeec;fill-opacity:1;stroke:none" id="rect74881" width="1" height="1" x="49" y="230"/><rect style="fill:#eeeeec;fill-opacity:1;stroke:none" id="rect74883" width="1" height="1" x="51" y="230"/><rect style="fill:#eeeeec;fill-opacity:1;stroke:none" id="rect74885" width="1" height="1" x="53" y="230"/><rect style="fill:#eeeeec;fill-opacity:1;stroke:none" id="rect74887" width="1" height="1" x="55" y="230"/><rect style="fill:#eeeeec;fill-opacity:1;stroke:none" id="rect74889" width="1" height="1" x="55" y="228"/><rect style="fill:#eeeeec;fill-opacity:1;stroke:none" id="rect74891" width="1" height="1" x="55" y="226"/><rect style="fill:#eeeeec;fill-opacity:1;stroke:none" id="rect74893" width="1" height="1" x="55" y="224"/><rect style="fill:#eeeeec;fill-opacity:1;stroke:none" id="rect74895" width="1" height="1" x="55" y="222"/><rect style="fill:#d3d7cf;fill-opacity:1;stroke:none;stroke-width:1.30809462" id="rect74897" width="11" height="7" x="43" y="222"/><rect style="fill:#eeeeec;fill-opacity:1;stroke:none" id="rect74899" width="1" height="1" x="41" y="228"/><rect style="fill:#eeeeec;fill-opacity:1;stroke:none" id="rect74901" width="1" height="1" x="41" y="230"/></g><rect style="display:inline;fill:#2e3436;fill-opacity:1;stroke:none" id="rect74853-5" width="1" height="1" x="3" y="3"/><rect style="display:inline;fill:#2e3436;fill-opacity:1;stroke:none" id="rect74853-5-1" width="1" height="1" x="1" y="3"/><rect style="display:inline;fill:#2e3436;fill-opacity:1;stroke:none" id="rect74853-5-0" width="1" height="1" x="5" y="3"/><rect style="display:inline;fill:#2e3436;fill-opacity:1;stroke:none" id="rect74853-5-4" width="1" height="1" x="7" y="3"/><rect style="display:inline;fill:#2e3436;fill-opacity:1;stroke:none" id="rect74853-5-2" width="1" height="1" x="9" y="3"/><rect style="display:inline;fill:#2e3436;fill-opacity:1;stroke:none" id="rect74853-5-9" width="1" height="1" x="11" y="3"/><rect style="display:inline;fill:#2e3436;fill-opacity:1;stroke:none" id="rect74853-5-8" width="1" height="1" x="13" y="3"/><rect style="display:inline;fill:#2e3436;fill-opacity:1;stroke:none" id="rect74853-5-12" width="1" height="1" x="0" y="12"/><rect style="display:inline;fill:#2e3436;fill-opacity:1;stroke:none" id="rect74853-5-12-0" width="1" height="1" x="0" y="10"/><rect style="display:inline;fill:#2e3436;fill-opacity:1;stroke:none" id="rect74853-5-12-3" width="1" height="1" x="0" y="8"/><rect style="display:inline;fill:#2e3436;fill-opacity:1;stroke:none" id="rect74853-5-12-02" width="1" height="1" x="0" y="6"/><rect style="display:inline;fill:#2e3436;fill-opacity:1;stroke:none" id="rect74853-5-12-2" width="1" height="1" x="0" y="4"/><rect style="display:inline;fill:#2e3436;fill-opacity:1;stroke:none" id="rect74853-5-12-37" width="1" height="1" x="1" y="13"/><rect style="display:inline;fill:#2e3436;fill-opacity:1;stroke:none" id="rect74853-5-12-37-4" width="1" height="1" x="3" y="13"/><rect style="display:inline;fill:#2e3436;fill-opacity:1;stroke:none" id="rect74853-5-12-37-0" width="1" height="1" x="5" y="13"/><rect style="display:inline;fill:#2e3436;fill-opacity:1;stroke:none" id="rect74853-5-12-37-7" width="1" height="1" x="7" y="13"/><rect style="display:inline;fill:#2e3436;fill-opacity:1;stroke:none" id="rect74853-5-12-37-3" width="1" height="1" x="9" y="13"/><rect style="display:inline;fill:#2e3436;fill-opacity:1;stroke:none" id="rect74853-5-12-37-48" width="1" height="1" x="11" y="13"/><rect style="display:inline;fill:#2e3436;fill-opacity:1;stroke:none" id="rect74853-5-12-37-03" width="1" height="1" x="13" y="13"/><rect style="display:inline;fill:#2e3436;fill-opacity:1;stroke:none" id="rect74853-5-12-37-1" width="1" height="1" x="14" y="12"/><rect style="display:inline;fill:#2e3436;fill-opacity:1;stroke:none" id="rect74853-5-12-37-1-1" width="1" height="1" x="14" y="10"/><rect style="display:inline;fill:#2e3436;fill-opacity:1;stroke:none" id="rect74853-5-12-37-1-0" width="1" height="1" x="14" y="8"/><rect style="display:inline;fill:#2e3436;fill-opacity:1;stroke:none" id="rect74853-5-12-37-1-3" width="1" height="1" x="14" y="6"/><rect style="display:inline;fill:#2e3436;fill-opacity:1;stroke:none" id="rect74853-5-12-37-1-01" width="1" height="1" x="14" y="4"/></g></g></svg>