<svg xmlns="http://www.w3.org/2000/svg" xmlns:svg="http://www.w3.org/2000/svg" xmlns:xlink="http://www.w3.org/1999/xlink" id="svg11300" width="16" height="16" version="1.0" viewBox="0 0 16 16"><defs id="defs3"><linearGradient id="linearGradient3233"><stop style="stop-color:#eeeeec;stop-opacity:1" id="stop3235" offset="0"/><stop style="stop-color:#a3a398;stop-opacity:1" id="stop3237" offset="1"/></linearGradient><linearGradient id="linearGradient8089"><stop style="stop-color:black;stop-opacity:.2783505" id="stop8091" offset="0"/><stop style="stop-color:#a8a8a8;stop-opacity:0" id="stop8093" offset="1"/></linearGradient><radialGradient id="radialGradient8095-9" cx="24.226" cy="30.48" r="13.354" fx="24.226" fy="30.48" gradientTransform="matrix(0.72679317,0,0,0.31115485,-9.5837955,-4.5410585)" gradientUnits="userSpaceOnUse" xlink:href="#linearGradient8089"/><linearGradient id="linearGradient3588-9" x1="23.434" x2="23.434" y1="15.759" y2="8.048" gradientTransform="matrix(0.39479932,0,0,0.37886712,-1.5099397,-2.1987974)" gradientUnits="userSpaceOnUse" xlink:href="#linearGradient3233"/></defs><metadata id="metadata4"/><g id="g4323"><g id="g4006" transform="matrix(0.63449913,0,0,0.69458915,-5.6695722,-3.4729625)"><path id="path3068" d="m 21.464547,5.500002 c -4.895979,0 -8.876945,1.7334382 -8.876946,3.8658299 0,0.1530151 0,14.1442051 0,14.3035631 0,2.132392 3.980966,3.865829 8.876946,3.865829 4.895981,0 9.035466,-1.733438 9.035464,-3.865829 0,-0.126218 0,-14.177345 0,-14.3035631 0,-2.1323917 -4.139483,-3.8658299 -9.035464,-3.8658299 z" style="color:#000;display:block;overflow:visible;visibility:visible;opacity:1;fill:#babdb6;fill-opacity:1;fill-rule:nonzero;stroke:#767973;stroke-width:1.00000036;stroke-linecap:butt;stroke-linejoin:miter;stroke-miterlimit:10;stroke-dasharray:none;stroke-dashoffset:0;stroke-opacity:1;marker:none;marker-start:none;marker-mid:none;marker-end:none"/><ellipse style="color:#000;display:block;overflow:visible;visibility:visible;opacity:.23626374;fill:#d3d7cf;fill-opacity:1;fill-rule:nonzero;stroke:url(#linearGradient3594);stroke-width:1.79112864;stroke-linecap:butt;stroke-linejoin:miter;stroke-miterlimit:10;stroke-dasharray:none;stroke-dashoffset:0;stroke-opacity:1;marker:none;marker-start:none;marker-mid:none;marker-end:none" id="path3241" cx="24" cy="14.071" rx="12.857" ry="5.5" transform="matrix(0.61236,0,0,0.509025,6.93016,16.53765)"/><path style="color:#000;display:block;overflow:visible;visibility:visible;opacity:.5443038;fill:none;fill-opacity:1;fill-rule:nonzero;stroke:url(#linearGradient3592);stroke-width:1;stroke-linecap:butt;stroke-linejoin:miter;stroke-miterlimit:10;stroke-dasharray:none;stroke-dashoffset:0;stroke-opacity:1;marker:none;marker-start:none;marker-mid:none;marker-end:none" id="path4174" d="m 21.470844,6.4999985 c -4.350694,0 -7.888282,1.5424173 -7.888283,3.4398227 0,0.1361548 0,12.9194288 0,13.0612248 0,1.897408 3.537589,3.439823 7.888283,3.439823 4.350692,0 8.029144,-1.542415 8.029142,-3.439823 0,-0.112308 0,-12.948914 0,-13.0612248 0,-1.8974064 -3.67845,-3.4398227 -8.029142,-3.4398227 z"/></g><g id="g4057" transform="matrix(4.275971,0,0,2.237021,-677.77458,-539.19759)"><path id="rect145_1_" d="m 160.15009,244.20423 h 0.35665 c 0.0872,0 0.15794,0.0707 0.15794,0.15797 v 0.35668 c 0,0.0872 -0.0707,0.15791 -0.15794,0.15791 h -0.35665 c -0.0873,0 -0.15797,-0.0707 -0.15797,-0.15791 v -0.35668 c 0,-0.0872 0.0707,-0.15797 0.15797,-0.15797 z" style="fill:#73d216;fill-opacity:1;stroke-width:.02929395"/><path id="rect146_1_" d="m 160.15009,242.46959 h 0.35665 c 0.0872,0 0.15794,0.0707 0.15794,0.15797 v 0.35668 c 0,0.0872 -0.0707,0.15791 -0.15794,0.15791 h -0.35665 c -0.0873,0 -0.15797,-0.0707 -0.15797,-0.15791 v -0.35668 c 0,-0.0872 0.0707,-0.15797 0.15797,-0.15797 z" style="fill:#f57900;stroke-width:.02929395"/><path id="rect147_3_" d="m 160.15019,245.0715 h 0.35665 c 0.0872,0 0.15794,0.0707 0.15794,0.15791 v 0.35665 c 0,0.0872 -0.0707,0.15797 -0.15794,0.15797 h -0.35665 c -0.0873,0 -0.15797,-0.0707 -0.15797,-0.15797 v -0.35665 c 0,-0.0872 0.0707,-0.15791 0.15797,-0.15791 z" style="fill:#3465a4;stroke-width:.02929395"/><path id="rect302_1_" d="m 160.15009,241.6023 h 0.35665 c 0.0872,0 0.15794,0.0707 0.15794,0.15791 v 0.35668 c 0,0.0872 -0.0707,0.15794 -0.15794,0.15794 h -0.35665 c -0.0873,0 -0.15797,-0.0707 -0.15797,-0.15794 v -0.35668 c 0,-0.0872 0.0707,-0.15791 0.15797,-0.15791 z" style="fill:#edd400;stroke-width:.02929395"/><path id="rect306_1_" d="m 160.15009,243.33694 h 0.35665 c 0.0872,0 0.15794,0.0707 0.15794,0.15794 v 0.35664 c 0,0.0872 -0.0707,0.15795 -0.15794,0.15795 h -0.35665 c -0.0873,0 -0.15797,-0.0707 -0.15797,-0.15795 v -0.35664 c 0,-0.0873 0.0707,-0.15794 0.15797,-0.15794 z" style="fill:#c17d11;stroke-width:.02929395"/><path id="rect147_2_" d="m 160.17634,245.9171 h 0.35665 c 0.0872,0 0.15794,0.0707 0.15794,0.15791 v 0.35665 c 0,0.0873 -0.0707,0.15797 -0.15794,0.15797 h -0.35665 c -0.0873,0 -0.15797,-0.0707 -0.15797,-0.15797 v -0.35665 c 0,-0.0872 0.0707,-0.15791 0.15797,-0.15791 z" style="fill:#75507b;stroke-width:.02929395"/><path id="rect182_1_" d="m 160.19011,246.76467 h 0.35665 c 0.0872,0 0.15794,0.0708 0.15794,0.15797 v 0.35668 c 0,0.0872 -0.0707,0.15797 -0.15794,0.15797 h -0.35665 c -0.0873,0 -0.15797,-0.0708 -0.15797,-0.15797 v -0.35668 c 0,-0.0872 0.0707,-0.15797 0.15797,-0.15797 z" style="fill:#c00;stroke-width:.02929395"/></g><rect id="rect4060" width="15.319" height="15.319" x=".341" y=".341" style="color:#000;clip-rule:nonzero;display:inline;overflow:visible;visibility:visible;opacity:0;isolation:auto;mix-blend-mode:normal;color-interpolation:sRGB;color-interpolation-filters:linearRGB;solid-color:#000;solid-opacity:1;fill:none;fill-opacity:1;fill-rule:nonzero;stroke:#bebebe;stroke-width:.68136525;stroke-linecap:round;stroke-linejoin:miter;stroke-miterlimit:4;stroke-dasharray:none;stroke-dashoffset:0;stroke-opacity:1;color-rendering:auto;image-rendering:auto;shape-rendering:auto;text-rendering:auto;enable-background:accumulate"/><ellipse id="path3364-0" cx="7.965" cy="3.132" rx="5.076" ry="2.084" style="color:#000;display:block;overflow:visible;visibility:visible;opacity:.77319587;fill:url(#radialGradient8095-9);fill-opacity:1;fill-rule:nonzero;stroke:url(#linearGradient3588-9);stroke-width:.66386402;stroke-linecap:butt;stroke-linejoin:miter;stroke-miterlimit:10;stroke-dasharray:none;stroke-dashoffset:0;stroke-opacity:1;marker:none;marker-start:none;marker-mid:none;marker-end:none"/></g></svg>