<svg xmlns="http://www.w3.org/2000/svg" xmlns:svg="http://www.w3.org/2000/svg" id="svg8" width="16" height="16" version="1.1" viewBox="0 0 4.233 4.233"><metadata id="metadata5"/><g id="layer1" transform="translate(0,-292.76665)"><g id="g15517"><path id="rect8574-3" d="m -0.75390625,0.24804688 c 0,0 0,0.75195312 0,0.75195312 0,0 0,15.753906 0,15.753906 0,0 16.50781225,-2.875977 16.50781225,-2.875977 0,0 0,-10.7539052 0,-10.7539052 0,0 -16.50781225,-2.87597692 -16.50781225,-2.87597692 z" transform="matrix(0.19233318,0,0,0.25647458,0.67416786,292.70303)" style="color:#000;font-style:normal;font-variant:normal;font-weight:400;font-stretch:normal;font-size:medium;line-height:normal;font-family:sans-serif;font-variant-ligatures:normal;font-variant-position:normal;font-variant-caps:normal;font-variant-numeric:normal;font-variant-alternates:normal;font-feature-settings:normal;text-indent:0;text-align:start;text-decoration:none;text-decoration-line:none;text-decoration-style:solid;text-decoration-color:#000;letter-spacing:normal;word-spacing:normal;text-transform:none;writing-mode:lr-tb;direction:ltr;text-orientation:mixed;dominant-baseline:auto;baseline-shift:baseline;text-anchor:start;white-space:normal;shape-padding:0;clip-rule:nonzero;display:inline;overflow:visible;visibility:visible;opacity:1;isolation:auto;mix-blend-mode:normal;color-interpolation:sRGB;color-interpolation-filters:linearRGB;solid-color:#000;solid-opacity:1;vector-effect:none;fill:#729fcf;fill-opacity:1;fill-rule:nonzero;stroke:none;stroke-width:1.5;stroke-linecap:butt;stroke-linejoin:miter;stroke-miterlimit:4;stroke-dasharray:none;stroke-dashoffset:0;stroke-opacity:1;color-rendering:auto;image-rendering:auto;shape-rendering:auto;text-rendering:auto;enable-background:accumulate"/><g id="g15509"><path style="color:#000;font-style:normal;font-variant:normal;font-weight:400;font-stretch:normal;font-size:medium;line-height:normal;font-family:sans-serif;font-variant-ligatures:normal;font-variant-position:normal;font-variant-caps:normal;font-variant-numeric:normal;font-variant-alternates:normal;font-feature-settings:normal;text-indent:0;text-align:start;text-decoration:none;text-decoration-line:none;text-decoration-style:solid;text-decoration-color:#000;letter-spacing:normal;word-spacing:normal;text-transform:none;writing-mode:lr-tb;direction:ltr;text-orientation:mixed;dominant-baseline:auto;baseline-shift:baseline;text-anchor:start;white-space:normal;shape-padding:0;clip-rule:nonzero;display:inline;overflow:visible;visibility:visible;opacity:1;isolation:auto;mix-blend-mode:normal;color-interpolation:sRGB;color-interpolation-filters:linearRGB;solid-color:#000;solid-opacity:1;vector-effect:none;fill:none;fill-opacity:1;fill-rule:nonzero;stroke:#fff;stroke-width:.39687499;stroke-linecap:butt;stroke-linejoin:miter;stroke-miterlimit:4;stroke-dasharray:none;stroke-dashoffset:0;stroke-opacity:.35294118;color-rendering:auto;image-rendering:auto;shape-rendering:auto;text-rendering:auto;enable-background:accumulate" id="rect8574-3-6" d="m 0.95343015,293.23329 v 0.85576 l 0.84749345,0.0775 v -0.77205 z m 0,1.22163 v 0.85628 l 0.84749345,-0.0419 v -0.77256 z m 0.84749345,1.14518 -0.84749345,0.077 v 0.85628 l 0.84749345,-0.16123 z"/><path style="color:#000;font-style:normal;font-variant:normal;font-weight:400;font-stretch:normal;font-size:medium;line-height:normal;font-family:sans-serif;font-variant-ligatures:normal;font-variant-position:normal;font-variant-caps:normal;font-variant-numeric:normal;font-variant-alternates:normal;font-feature-settings:normal;text-indent:0;text-align:start;text-decoration:none;text-decoration-line:none;text-decoration-style:solid;text-decoration-color:#000;letter-spacing:normal;word-spacing:normal;text-transform:none;writing-mode:lr-tb;direction:ltr;text-orientation:mixed;dominant-baseline:auto;baseline-shift:baseline;text-anchor:start;white-space:normal;shape-padding:0;clip-rule:nonzero;display:inline;overflow:visible;visibility:visible;opacity:1;isolation:auto;mix-blend-mode:normal;color-interpolation:sRGB;color-interpolation-filters:linearRGB;solid-color:#000;solid-opacity:1;vector-effect:none;fill:none;fill-opacity:1;fill-rule:nonzero;stroke:#fff;stroke-width:.33072917;stroke-linecap:butt;stroke-linejoin:miter;stroke-miterlimit:4;stroke-dasharray:none;stroke-dashoffset:0;stroke-opacity:.35294118;color-rendering:auto;image-rendering:auto;shape-rendering:auto;text-rendering:auto;enable-background:accumulate" id="rect8574-3-6-2" d="m 2.1151162,293.45395 v 0.74104 l 0.6444053,0.0589 v -0.67748 z m 0,1.05837 v 0.74156 l 0.6444053,-0.0315 v -0.678 z m 0.6444053,0.99988 -0.6444053,0.0589 v 0.74156 l 0.6444053,-0.12247 z"/><path style="color:#000;font-style:normal;font-variant:normal;font-weight:400;font-stretch:normal;font-size:medium;line-height:normal;font-family:sans-serif;font-variant-ligatures:normal;font-variant-position:normal;font-variant-caps:normal;font-variant-numeric:normal;font-variant-alternates:normal;font-feature-settings:normal;text-indent:0;text-align:start;text-decoration:none;text-decoration-line:none;text-decoration-style:solid;text-decoration-color:#000;letter-spacing:normal;word-spacing:normal;text-transform:none;writing-mode:lr-tb;direction:ltr;text-orientation:mixed;dominant-baseline:auto;baseline-shift:baseline;text-anchor:start;white-space:normal;shape-padding:0;clip-rule:nonzero;display:inline;overflow:visible;visibility:visible;opacity:1;isolation:auto;mix-blend-mode:normal;color-interpolation:sRGB;color-interpolation-filters:linearRGB;solid-color:#000;solid-opacity:1;vector-effect:none;fill:none;fill-opacity:1;fill-rule:nonzero;stroke:#fff;stroke-width:.26458333;stroke-linecap:butt;stroke-linejoin:miter;stroke-miterlimit:4;stroke-dasharray:none;stroke-dashoffset:0;stroke-opacity:.35294118;color-rendering:auto;image-rendering:auto;shape-rendering:auto;text-rendering:auto;enable-background:accumulate" id="rect8574-3-6-9" d="m 3.0029172,293.62293 v 0.65319 l 0.5059125,0.0465 v -0.60358 z m 0,0.93329 v 0.6537 l 0.5059125,-0.0248 v -0.6041 z m 0.5059125,0.88728 -0.5059125,0.0465 v 0.65371 l 0.5059125,-0.0961 z"/></g><path id="rect8574" d="m -0.75390625,0.24804688 c 0,0 0,0.75195312 0,0.75195312 0,0 0,15.753906 0,15.753906 0,0 16.50781225,-2.875977 16.50781225,-2.875977 0,0 0,-10.7539053 0,-10.7539053 0,0 -16.50781225,-2.87597682 -16.50781225,-2.87597682 z M 1.4525936,2.068179 c 0,0 4.4045654,0.6273444 4.4045654,0.6273444 0,0 0,3.0098615 0,3.0098615 0,0 -4.4045654,-0.302095 -4.4045654,-0.302095 0,0 0,-3.3351109 0,-3.3351109 z M 7.491225,2.9282643 c 0,0 3.350875,0.4772668 3.350875,0.4772668 0,0 0,2.641755 0,2.641755 0,0 -3.350875,-0.2298258 -3.350875,-0.2298258 0,0 0,-2.889196 0,-2.889196 z m 4.615892,0.6574437 c 0,0 2.632122,0.3748944 2.632122,0.3748944 0,0 0,2.353976 0,2.353976 0,0 -2.632122,-0.1805288 -2.632122,-0.1805288 0,0 0,-2.5483416 0,-2.5483416 z M 1.4525936,6.831559 c 0,0 4.4045654,0.1628063 4.4045654,0.1628063 0,0 0,3.0115417 0,3.0115417 0,0 -4.4045654,0.162625 -4.4045654,0.162625 0,0 0,-3.336973 0,-3.336973 z M 7.491225,7.0547654 c 0,0 3.350875,0.1238586 3.350875,0.1238586 0,0 0,2.6432301 0,2.6432301 0,0 -3.350875,0.1237204 -3.350875,0.1237204 0,0 0,-2.8908091 0,-2.8908091 z m 4.615892,0.1706175 c 0,0 2.632122,0.097291 2.632122,0.097291 0,0 0,2.3552903 0,2.3552903 0,0 -2.632122,0.097183 -2.632122,0.097183 0,0 0,-2.5497644 0,-2.5497644 z M 1.4525936,11.596801 c 0,0 4.4045654,-0.301913 4.4045654,-0.301913 0,0 0,3.011542 0,3.011542 0,0 -4.4045654,0.627344 -4.4045654,0.627344 0,0 0,-3.336973 0,-3.336973 z M 7.491225,11.18288 c 0,0 3.350875,-0.229688 3.350875,-0.229688 0,0 0,2.64323 0,2.64323 0,0 -3.350875,0.477267 -3.350875,0.477267 0,0 0,-2.890809 0,-2.890809 z m 4.615892,-0.316399 c 0,0 2.632122,-0.180421 2.632122,-0.180421 0,0 0,2.355291 0,2.355291 0,0 -2.632122,0.374894 -2.632122,0.374894 0,0 0,-2.549764 0,-2.549764 z" transform="matrix(0.19233318,0,0,0.25647458,0.67416786,292.70303)" style="color:#000;font-style:normal;font-variant:normal;font-weight:400;font-stretch:normal;font-size:medium;line-height:normal;font-family:sans-serif;font-variant-ligatures:normal;font-variant-position:normal;font-variant-caps:normal;font-variant-numeric:normal;font-variant-alternates:normal;font-feature-settings:normal;text-indent:0;text-align:start;text-decoration:none;text-decoration-line:none;text-decoration-style:solid;text-decoration-color:#000;letter-spacing:normal;word-spacing:normal;text-transform:none;writing-mode:lr-tb;direction:ltr;text-orientation:mixed;dominant-baseline:auto;baseline-shift:baseline;text-anchor:start;white-space:normal;shape-padding:0;clip-rule:nonzero;display:inline;overflow:visible;visibility:visible;opacity:1;isolation:auto;mix-blend-mode:normal;color-interpolation:sRGB;color-interpolation-filters:linearRGB;solid-color:#000;solid-opacity:1;vector-effect:none;fill:#204a87;fill-opacity:1;fill-rule:nonzero;stroke:none;stroke-width:1.5;stroke-linecap:butt;stroke-linejoin:miter;stroke-miterlimit:4;stroke-dasharray:none;stroke-dashoffset:0;stroke-opacity:1;color-rendering:auto;image-rendering:auto;shape-rendering:auto;text-rendering:auto;enable-background:accumulate"/></g></g></svg>