<svg xmlns="http://www.w3.org/2000/svg" xmlns:svg="http://www.w3.org/2000/svg" xmlns:xlink="http://www.w3.org/1999/xlink" id="svg7854" width="16" height="16" version="1.0" viewBox="0 0 16 16"><defs id="defs7856"><linearGradient id="linearGradient5253"><stop style="stop-color:#729fcf;stop-opacity:1" id="stop5255" offset="0"/><stop id="stop5261" offset=".204" style="stop-color:#73d216;stop-opacity:1"/><stop style="stop-color:#c17d11;stop-opacity:1" id="stop5263" offset=".522"/><stop id="stop5265" offset=".889" style="stop-color:#75507b;stop-opacity:1"/><stop style="stop-color:#a40000;stop-opacity:1" id="stop5257" offset="1"/></linearGradient><linearGradient id="linearGradient5140"><stop style="stop-color:#eeeeec;stop-opacity:1" id="stop5142" offset="0"/><stop style="stop-color:#d4d4cf;stop-opacity:1" id="stop5144" offset="1"/></linearGradient><linearGradient id="linearGradient5146" x1="12" x2="12" y1="1.268" y2="21.252" gradientTransform="matrix(0.6551903,0,0,0.6453469,0.1602414,0.8104655)" gradientUnits="userSpaceOnUse" xlink:href="#linearGradient5140"/><linearGradient id="linearGradient5259" x1="6.029" x2="18.913" y1="8.347" y2="8.347" gradientTransform="matrix(0.77524403,0,0,0.76639761,-1.5774769,1.6257792)" gradientUnits="userSpaceOnUse" xlink:href="#linearGradient5253"/></defs><metadata id="metadata7859"/><g id="layer1"><g id="g4245" transform="matrix(0.99632012,0,0,0.99632452,0.00702688,0.00696201)"><rect id="rect4559" width="15.075" height="15.075" x=".485" y=".485" rx="1.406" ry="1.541" style="color:#000;display:inline;overflow:visible;visibility:visible;opacity:1;fill:url(#linearGradient5146);fill-opacity:1;fill-rule:evenodd;stroke:#888a85;stroke-width:.98378378;stroke-linecap:butt;stroke-linejoin:miter;stroke-miterlimit:4;stroke-dasharray:none;stroke-dashoffset:0;stroke-opacity:1;marker:none;marker-start:none;marker-mid:none;marker-end:none;enable-background:accumulate"/><rect style="color:#000;display:inline;overflow:visible;visibility:visible;opacity:1;fill:none;fill-opacity:1;fill-rule:evenodd;stroke:#fff;stroke-width:.90239239;stroke-linecap:butt;stroke-linejoin:miter;stroke-miterlimit:4;stroke-dasharray:none;stroke-dashoffset:0;stroke-opacity:1;marker:none;marker-start:none;marker-mid:none;marker-end:none;enable-background:accumulate" id="rect5148" width="13.009" height="12.991" x="1.518" y="1.527" rx=".64" ry=".63"/><path id="path5245" d="M 8.0221604,4.0077687 C 4.6951756,4.0077687 1.9999993,6.6874538 2,9.9764736 2,10.701911 2.1305047,11.394503 2.3705946,12.037281 H 5.7831523 C 5.2742086,11.49736 4.9647559,10.77208 4.9647559,9.9764736 c 8e-7,-1.6683432 1.3698035,-3.0225152 3.0574045,-3.0225152 1.6876029,2e-7 3.0574056,1.354172 3.0574056,3.0225152 -10e-7,0.7979834 -0.322192,1.5203794 -0.83384,2.0608074 h 3.41256 c 0.24009,-0.642778 0.386036,-1.33537 0.386036,-2.0608074 -2e-6,-3.28902 -2.695176,-5.9687049 -6.0221616,-5.9687049 z" style="color:#000;display:inline;overflow:visible;visibility:visible;opacity:1;fill:url(#linearGradient5259);fill-opacity:1;fill-rule:evenodd;stroke:none;stroke-width:1.00771928;stroke-linecap:round;stroke-linejoin:miter;stroke-miterlimit:4;stroke-dasharray:none;stroke-dashoffset:0;stroke-opacity:1;marker:none;marker-start:none;marker-mid:none;marker-end:none;enable-background:accumulate"/></g></g></svg>