<svg xmlns="http://www.w3.org/2000/svg" xmlns:svg="http://www.w3.org/2000/svg" xmlns:xlink="http://www.w3.org/1999/xlink" id="svg30571" width="16" height="16" version="1.1" viewBox="0 0 16 16"><defs id="defs30573"><linearGradient id="linearGradient2212" x1="25.861" x2="18.3" y1="26.134" y2="19.568" gradientTransform="matrix(0.952387,0,0,1.018339,1.142599,-1.941627)" gradientUnits="userSpaceOnUse" xlink:href="#linearGradient2206"/><linearGradient id="linearGradient2206"><stop style="stop-color:#c3c6c0;stop-opacity:1" id="stop2208" offset="0"/><stop style="stop-color:#e8eae6;stop-opacity:1" id="stop2210" offset="1"/></linearGradient><linearGradient id="linearGradient2220" x1=".001" x2="47.999" y1="24.012" y2="24.012" gradientTransform="matrix(0.952387,0,0,1.018339,1.142599,-1.941627)" gradientUnits="userSpaceOnUse" xlink:href="#linearGradient2214"/><linearGradient id="linearGradient2214"><stop style="stop-color:#a9aaa7;stop-opacity:1" id="stop2216" offset="0"/><stop style="stop-color:#676964;stop-opacity:1" id="stop2218" offset="1"/></linearGradient><radialGradient id="radialGradient2229" cx="23.994" cy="32.267" r="19.089" fx="23.994" fy="32.267" gradientTransform="matrix(1.768625,0,0,1.387102,-18.44248,-15.29268)" gradientUnits="userSpaceOnUse" xlink:href="#linearGradient2222"/><linearGradient id="linearGradient2222"><stop style="stop-color:#5187d6;stop-opacity:1" id="stop2224" offset="0"/><stop style="stop-color:#1e4580;stop-opacity:1" id="stop2227" offset="1"/></linearGradient><linearGradient id="linearGradient2244" x1="20.339" x2="46.092" y1="19.637" y2="39.708" gradientTransform="matrix(0.952387,0,0,1.015657,1.142599,-0.876325)" gradientUnits="userSpaceOnUse" xlink:href="#linearGradient2238"/><linearGradient id="linearGradient2238"><stop style="stop-color:#fff;stop-opacity:1" id="stop2240" offset="0"/><stop style="stop-color:#fff;stop-opacity:0" id="stop2242" offset="1"/></linearGradient><linearGradient id="linearGradient2231" x1="35.694" x2="15.044" y1="37.334" y2="5.959" gradientUnits="userSpaceOnUse" xlink:href="#linearGradient2238"/><linearGradient id="linearGradient7319" x1="-37.5" x2="-37.5" y1="199.344" y2="204.346" gradientTransform="matrix(0.45949087,0.45589994,-0.45949087,0.45589994,121.58064,-71.627847)" gradientUnits="userSpaceOnUse" xlink:href="#linearGradient2238"/></defs><metadata id="metadata30576"/><g id="layer1" transform="translate(0,-1036.3622)"><g id="g3981"><g id="g3992" transform="matrix(0.26224071,0,0,0.28101849,-0.29369617,1040.0362)"><rect style="opacity:1;fill:url(#linearGradient2212);fill-opacity:1;fill-rule:evenodd;stroke:url(#linearGradient2220);stroke-width:.9999997;stroke-linecap:round;stroke-linejoin:round;stroke-miterlimit:4;stroke-dasharray:none;stroke-dashoffset:0;stroke-opacity:1" id="rect1316" width="44.76" height="41.702" x="1.62" y="1.66" rx="4.566" ry="4.566"/><rect style="opacity:1;fill:url(#radialGradient2229);fill-opacity:1;fill-rule:evenodd;stroke:#173562;stroke-width:.99999982;stroke-linecap:round;stroke-linejoin:round;stroke-miterlimit:4;stroke-dasharray:none;stroke-dashoffset:0;stroke-opacity:1" id="rect1314" width="37.178" height="28.955" x="5.405" y="5.482" rx="1.695" ry="1.695"/><rect style="opacity:1;fill:none;fill-opacity:1;fill-rule:evenodd;stroke:url(#linearGradient2244);stroke-width:.99999982;stroke-linecap:round;stroke-linejoin:round;stroke-miterlimit:4;stroke-dasharray:none;stroke-dashoffset:0;stroke-opacity:1" id="rect2232" width="42.895" height="39.647" x="2.554" y="2.654" rx="4.13" ry="4.13"/><rect id="rect2221" width="39.35" height="30.646" x="4.319" y="4.636" rx="2.57" ry="2.57" style="opacity:.57386361;fill:none;fill-opacity:1;fill-rule:evenodd;stroke:url(#linearGradient2231);stroke-width:1;stroke-linecap:round;stroke-linejoin:round;stroke-miterlimit:4;stroke-dasharray:none;stroke-dashoffset:0;stroke-opacity:1"/></g><g id="g4033" transform="translate(1.8228502,1035.1551)"><path style="fill:#d3d7cf;fill-opacity:1;fill-rule:evenodd;stroke:#888a85;stroke-width:.66666895px;stroke-linecap:butt;stroke-linejoin:miter;stroke-opacity:1" id="path7235" d="M 9.8343554,4.1370085 4.1204843,9.8347683 v 1.3240377 h 1.32997 L 11.164319,5.4565976 Z"/><path style="fill:#fff;fill-opacity:1;stroke:none;stroke-width:1;stroke-linecap:round;stroke-linejoin:round;stroke-miterlimit:4;stroke-dashoffset:0;stroke-opacity:1" id="path17734" d="M 9.9011892,4.516309 10.361904,4.9929007 5.1181827,10.187119 5.0952246,9.2577905 Z"/><path style="opacity:1;fill:#183968;fill-opacity:1;stroke:#2e3436;stroke-width:.66666859;stroke-linecap:round;stroke-linejoin:round;stroke-miterlimit:4;stroke-dasharray:none;stroke-dashoffset:0;stroke-opacity:1" id="path7237" d="M 13.353849,2.0284512 C 12.697656,1.3752652 11.632552,1.3752008 10.976359,2.0283867 10.675604,2.3278039 10.51107,2.7161952 10.486,3.1081971 L 9.2972677,3.6702168 11.689619,6.0516925 12.26912,4.883166 c 0.393823,-0.024952 0.783987,-0.1887799 1.084735,-0.4881326 0.656187,-0.653186 0.65618,-1.7133962 -6e-6,-2.3665822 z"/><path style="opacity:.58995816;fill:none;fill-opacity:1;stroke:url(#linearGradient7319);stroke-width:.66666883;stroke-linecap:round;stroke-linejoin:miter;stroke-miterlimit:4;stroke-dasharray:none;stroke-dashoffset:0;stroke-opacity:1" id="path7247" d="m 12.910907,2.4559782 c -0.45293,-0.4493837 -1.034368,-0.4025111 -1.457094,0.016892 -0.19375,0.1922614 -0.237119,0.7317153 -0.24478,0.9918678 l -0.624261,0.330365 0.962049,0.9545373 0.347341,-0.6050883 c 0.262195,-0.00761 0.777196,-0.022179 0.970939,-0.214376 0.422726,-0.4194678 0.498729,-1.0248141 0.04581,-1.4741978 z"/><path style="fill:#3465a4;fill-opacity:1;fill-rule:evenodd;stroke:none;stroke-width:1.00000024px;stroke-linecap:butt;stroke-linejoin:miter;stroke-opacity:1" id="path7284" d="M 7.615798,6.769288 4.4454064,9.9012409 V 10.842174 H 5.3317585 L 9.4137021,6.769288 Z"/><path style="fill:#729fcf;fill-opacity:1;stroke:none;stroke-width:1;stroke-linecap:round;stroke-linejoin:round;stroke-miterlimit:4;stroke-dashoffset:0;stroke-opacity:1" id="path7286" d="m 7.6173121,6.769288 h 0.947474 L 4.4449905,10.842174 V 9.8990488 Z"/></g></g></g></svg>