<svg xmlns="http://www.w3.org/2000/svg" xmlns:svg="http://www.w3.org/2000/svg" xmlns:xlink="http://www.w3.org/1999/xlink" id="svg11300" width="16" height="16" version="1.0" viewBox="0 0 16 16"><defs id="defs3"><radialGradient id="radialGradient4007" cx="22.904" cy="23.1" r="19.828" gradientTransform="matrix(0.41152263,0,0,0.41152263,-1.8495089,-1.8306046)" gradientUnits="userSpaceOnUse"><stop id="stop4027" offset="0" stop-color="#ccc"/><stop id="stop4029" offset="1" stop-color="#c5c5c5"/></radialGradient><linearGradient id="linearGradient4288"><stop style="stop-color:#f7ad42;stop-opacity:1" id="stop4290" offset="0"/><stop style="stop-color:#f7ad42;stop-opacity:0" id="stop4292" offset="1"/></linearGradient><linearGradient id="linearGradient4176"><stop id="stop4178" offset="0" style="stop-color:#fff;stop-opacity:1"/><stop id="stop4180" offset="1" style="stop-color:#fff;stop-opacity:0"/></linearGradient><radialGradient id="f" cx="22.904" cy="23.1" r="19.828" gradientTransform="matrix(0.41152263,0,0,0.41152263,-1.8495089,-1.8306046)" gradientUnits="userSpaceOnUse"><stop id="stop16" offset="0" stop-color="#c5c5c5"/><stop id="stop18" offset=".237" stop-color="#c8c8c8"/><stop id="stop20" offset=".408" stop-color="#d1d1d1"/><stop id="stop22" offset=".559" stop-color="#e1e1e1"/><stop id="stop24" offset=".696" stop-color="#f7f7f7"/><stop id="stop26" offset=".736" stop-color="#fff"/><stop id="stop28" offset=".819" stop-color="#fcfcfc"/><stop id="stop30" offset=".881" stop-color="#f2f2f2"/><stop id="stop32" offset=".936" stop-color="#e2e2e2"/><stop id="stop34" offset=".988" stop-color="#ccc"/><stop id="stop36" offset="1" stop-color="#c5c5c5"/></radialGradient><linearGradient id="b" x1="43.088" x2="4.911" y1="43.109" y2="4.935" gradientTransform="matrix(0.41083239,0,0,0.41022291,-1.8464808,-1.8202333)" gradientUnits="userSpaceOnUse" xlink:href="#linearGradient4176"/><linearGradient id="h" x1="-7.956" x2="56.167" y1="-11.171" y2="57.153" gradientTransform="matrix(0.41083239,0,0,0.41022291,-1.8464808,-1.8202333)" gradientUnits="userSpaceOnUse" xlink:href="#linearGradient4176"/><linearGradient id="linearGradient4296" x1="14.813" x2="9.925" y1="14.466" y2="9.943" gradientTransform="matrix(0.9983227,0,0,0.99684168,-0.09615116,-0.09468391)" gradientUnits="userSpaceOnUse" xlink:href="#linearGradient4288"/><radialGradient id="radialGradient4306" cx="12.807" cy="12.716" r="3.311" fx="12.807" fy="12.716" gradientTransform="matrix(0.9983227,0,0,1.018599,-0.09615116,-0.3713579)" gradientUnits="userSpaceOnUse" xlink:href="#radialGradient4007"/><radialGradient id="radialGradient4497" cx="22.904" cy="23.1" r="19.828" gradientTransform="matrix(0.41083239,0,0,0.41022291,-1.8464808,-1.8202333)" gradientUnits="userSpaceOnUse" xlink:href="#f"/><linearGradient id="linearGradient4296-2" x1="14.813" x2="9.925" y1="14.466" y2="9.943" gradientTransform="matrix(-0.9983227,0,0,0.99684168,16.091005,-0.04881444)" gradientUnits="userSpaceOnUse" xlink:href="#linearGradient4288"/><radialGradient id="radialGradient4306-4" cx="12.807" cy="12.716" r="3.311" fx="12.807" fy="12.716" gradientTransform="matrix(-0.9983227,0,0,1.018599,16.091005,-0.32548845)" gradientUnits="userSpaceOnUse" xlink:href="#radialGradient4007-5"/><radialGradient id="radialGradient4007-5" cx="22.904" cy="23.1" r="19.828" gradientTransform="matrix(0.41152263,0,0,0.41152263,-1.8495089,-1.8306046)" gradientUnits="userSpaceOnUse"><stop id="stop4027-7" offset="0" stop-color="#ccc"/><stop id="stop4029-4" offset="1" stop-color="#c5c5c5"/></radialGradient><linearGradient id="linearGradient4296-2-8" x1="14.813" x2="9.925" y1="14.466" y2="9.943" gradientTransform="matrix(-0.9983227,0,0,-0.99684168,16.091005,16.048816)" gradientUnits="userSpaceOnUse" xlink:href="#linearGradient4288"/><radialGradient id="radialGradient4306-4-1" cx="12.807" cy="12.716" r="3.311" fx="12.807" fy="12.716" gradientTransform="matrix(-0.9983227,0,0,-1.018599,16.091005,16.325489)" gradientUnits="userSpaceOnUse" xlink:href="#radialGradient4007-5-4"/><radialGradient id="radialGradient4007-5-4" cx="22.904" cy="23.1" r="19.828" gradientTransform="matrix(0.41152263,0,0,0.41152263,-1.8495089,-1.8306046)" gradientUnits="userSpaceOnUse"><stop id="stop4027-7-6" offset="0" stop-color="#ccc"/><stop id="stop4029-4-9" offset="1" stop-color="#c5c5c5"/></radialGradient><linearGradient id="linearGradient4296-2-8-2" x1="14.813" x2="9.925" y1="14.466" y2="9.943" gradientTransform="matrix(0.9983227,0,0,-0.99684168,-0.17092191,16.048816)" gradientUnits="userSpaceOnUse" xlink:href="#linearGradient4288"/><radialGradient id="radialGradient4306-4-1-9" cx="12.807" cy="12.716" r="3.311" fx="12.807" fy="12.716" gradientTransform="matrix(0.9983227,0,0,-1.018599,-0.17092191,16.325489)" gradientUnits="userSpaceOnUse" xlink:href="#radialGradient4007-5-4-6"/><radialGradient id="radialGradient4007-5-4-6" cx="22.904" cy="23.1" r="19.828" gradientTransform="matrix(0.41152263,0,0,0.41152263,-1.8495089,-1.8306046)" gradientUnits="userSpaceOnUse"><stop id="stop4027-7-6-0" offset="0" stop-color="#ccc"/><stop id="stop4029-4-9-0" offset="1" stop-color="#c5c5c5"/></radialGradient></defs><metadata id="metadata4"/><g id="layer1"><g id="g4150"><path id="path4270-8-6-4" d="m 12.614774,6.6454264 c -1.770134,7.01e-5 -3.2052381,-1.465154 -3.2055531,-3.2728339 3.15e-4,-1.80768 1.4354171,-3.272904 3.2055531,-3.27283387 0.885068,-3.407e-5 0.967499,1.23051657 1.547581,1.82277387 0.580081,0.5922572 1.657812,0.54622 1.657969,1.45006 -3.15e-4,1.8076789 -1.435417,3.272903 -3.20555,3.2728339 z m 0.01755,-0.6541769 c 1.45892,6.752e-4 2.64198,-1.1963233 2.642044,-2.6731729 C 15.274304,1.841228 14.091243,0.64422942 12.632324,0.64490567 11.174166,0.64531944 9.992293,1.8419984 9.992229,3.3180766 c 6.4e-5,1.4760781 1.181937,2.6727591 2.640095,2.6731729 z" style="color:#000;clip-rule:nonzero;display:inline;overflow:visible;visibility:visible;opacity:1;isolation:auto;mix-blend-mode:normal;color-interpolation:sRGB;color-interpolation-filters:linearRGB;solid-color:#000;solid-opacity:1;fill:url(#linearGradient4296-2-8-2);fill-opacity:1;fill-rule:nonzero;stroke:url(#radialGradient4306-4-1-9);stroke-width:.19951639;stroke-linecap:round;stroke-linejoin:round;stroke-miterlimit:4;stroke-dasharray:none;stroke-dashoffset:0;stroke-opacity:1;color-rendering:auto;image-rendering:auto;shape-rendering:auto;text-rendering:auto;enable-background:accumulate"/><path id="path4270-8-6" d="M 3.3053084,6.6454268 C 5.0754433,6.6454969 6.5105472,5.1802728 6.5108622,3.3725929 6.5105472,1.5649129 5.0754453,0.09968888 3.3053084,0.09975901 2.420241,0.09972494 2.33781,1.3302756 1.7577279,1.9225329 c -0.5800811,0.5922572 -1.65781271,0.54622 -1.65796971,1.45006 3.15e-4,1.8076789 1.43541731,3.272903 3.20555021,3.2728339 z M 3.2877586,5.9912499 C 1.828839,5.9919251 0.64577918,4.7949266 0.64571518,3.318077 0.64577918,1.8412284 1.82884,0.6442298 3.2877586,0.64490605 4.7459172,0.64531982 5.9277901,1.8419988 5.9278541,3.318077 5.9277901,4.7941551 4.7459172,5.9908361 3.2877586,5.9912499 Z" style="color:#000;clip-rule:nonzero;display:inline;overflow:visible;visibility:visible;opacity:1;isolation:auto;mix-blend-mode:normal;color-interpolation:sRGB;color-interpolation-filters:linearRGB;solid-color:#000;solid-opacity:1;fill:url(#linearGradient4296-2-8);fill-opacity:1;fill-rule:nonzero;stroke:url(#radialGradient4306-4-1);stroke-width:.19951639;stroke-linecap:round;stroke-linejoin:round;stroke-miterlimit:4;stroke-dasharray:none;stroke-dashoffset:0;stroke-opacity:1;color-rendering:auto;image-rendering:auto;shape-rendering:auto;text-rendering:auto;enable-background:accumulate"/><path id="path4270-8" d="m 3.3053084,9.3545745 c 1.7701349,-7.06e-5 3.2052388,1.4651535 3.2055538,3.2728335 -3.15e-4,1.80768 -1.4354169,3.272904 -3.2055538,3.272834 C 2.420241,15.900276 2.33781,14.669726 1.7577279,14.077468 1.1776468,13.485211 0.09991519,13.531248 0.09975819,12.627408 0.10007319,10.819729 1.5351755,9.3545053 3.3053084,9.3545745 Z m -0.01755,0.6541765 c -1.4589196,-6.75e-4 -2.64197942,1.196324 -2.64204342,2.673173 6.4e-5,1.476849 1.18312482,2.673847 2.64204342,2.673171 1.4581586,-4.14e-4 2.6400315,-1.197093 2.6400955,-2.673171 -6.4e-5,-1.476078 -1.1819369,-2.672759 -2.6400955,-2.673173 z" style="color:#000;clip-rule:nonzero;display:inline;overflow:visible;visibility:visible;opacity:1;isolation:auto;mix-blend-mode:normal;color-interpolation:sRGB;color-interpolation-filters:linearRGB;solid-color:#000;solid-opacity:1;fill:url(#linearGradient4296-2);fill-opacity:1;fill-rule:nonzero;stroke:url(#radialGradient4306-4);stroke-width:.19951639;stroke-linecap:round;stroke-linejoin:round;stroke-miterlimit:4;stroke-dasharray:none;stroke-dashoffset:0;stroke-opacity:1;color-rendering:auto;image-rendering:auto;shape-rendering:auto;text-rendering:auto;enable-background:accumulate"/><path id="path4270" d="m 12.689545,9.308705 c -1.770135,-7.06e-5 -3.2052388,1.465154 -3.2055537,3.272833 3.147e-4,1.80768 1.4354177,3.272904 3.2055537,3.272834 0.885067,3.4e-5 0.967498,-1.230516 1.54758,-1.822774 0.580081,-0.592257 1.657813,-0.54622 1.65797,-1.45006 -3.15e-4,-1.807678 -1.435417,-3.2729022 -3.20555,-3.272833 z m 0.01755,0.6541773 c 1.45892,-6.759e-4 2.641981,1.1963227 2.642045,2.6731717 -6.5e-5,1.476849 -1.183125,2.673848 -2.642045,2.673171 -1.458158,-4.13e-4 -2.64003,-1.197092 -2.640095,-2.673171 6.4e-5,-1.476078 1.181937,-2.6727579 2.640095,-2.6731717 z" style="color:#000;clip-rule:nonzero;display:inline;overflow:visible;visibility:visible;opacity:1;isolation:auto;mix-blend-mode:normal;color-interpolation:sRGB;color-interpolation-filters:linearRGB;solid-color:#000;solid-opacity:1;fill:url(#linearGradient4296);fill-opacity:1;fill-rule:nonzero;stroke:url(#radialGradient4306);stroke-width:.19951639;stroke-linecap:round;stroke-linejoin:round;stroke-miterlimit:4;stroke-dasharray:none;stroke-dashoffset:0;stroke-opacity:1;color-rendering:auto;image-rendering:auto;shape-rendering:auto;text-rendering:auto;enable-background:accumulate"/><ellipse id="circle92" cx="8.013" cy="8.025" rx="5.431" ry="5.423" style="fill:none;stroke:url(#radialGradient4497);stroke-width:4.51580286"/><path id="path94" d="M 4.3570881,1.2810518 6.5706528,5.1285323 C 5.832798,5.5379348 5.5049537,5.8394487 5.1384914,6.5072916 L 1.1595797,4.6374956 C 1.6513461,3.4096985 3.2092224,1.7724989 4.3570881,1.281462 m 10.3406509,3.1057976 -3.8154,2.1885392 C 10.4637,5.8718563 10.11326,5.5732141 9.5023527,5.1978602 L 11.369585,1.226082 c 1.217709,0.4865243 2.841317,2.026501 3.328154,3.1611776 M 11.666207,14.749489 9.4382629,10.88273 C 10.10833,10.506965 10.453019,10.150072 10.862207,9.4621271 l 4.041359,1.8919489 c -0.497929,1.242974 -2.158102,2.900276 -3.236949,3.395413 M 1.2429787,11.631797 5.0830289,9.4215152 C 5.4930396,10.158275 5.7950013,10.42164 6.4765723,10.851552 l -1.872574,3.972599 C 3.3743771,14.333115 1.7347451,12.695915 1.2429787,11.631797" style="fill:#c00;fill-opacity:1"/><ellipse id="circle96" cx="8.013" cy="8.025" rx="3.41" ry="3.405" style="fill:none;stroke:url(#b);stroke-width:.41052753"/><ellipse id="circle98" cx="8.013" cy="8.025" rx="7.436" ry="7.425" style="fill:none;stroke:url(#h);stroke-width:.41052753"/><g id="g100" transform="matrix(0.41083238,0,0,0.41022291,-1.8464807,-1.8202333)" style="fill:none;stroke:#606060;stroke-width:.88"><circle id="circle102" cx="24" cy="24" r="7.5"/><circle id="circle104" cx="24" cy="24" r="19"/></g></g></g></svg>