<svg xmlns="http://www.w3.org/2000/svg" xmlns:svg="http://www.w3.org/2000/svg" id="svg11300" width="16" height="16" version="1.0" viewBox="0 0 16 16"><metadata id="metadata4"/><g id="layer1"><g id="g4396"><g id="layer1-7" transform="matrix(0.31111111,0,0,0.32,0.13333334,-318.208)"><g id="g3686"><g id="g3643"><path style="fill:#6595b9" id="path3623" d="m 34.773767,1025.5492 -6.380265,-9.6919 -1.925391,-6.1553 L 41,994.4 l 10,10 -5,10 z"/><path style="fill:#da786c" id="path3617" d="m 6,1034.4 10,10 20.488568,-20.5355 0.0349,-2.7136 L 21,1014.4 l -10,10 z"/><path style="fill:#e3dbc8" id="path3615" d="m 9,1028.4 -1,2 10,10 30,-30 1,-2 -11,-11 -27,27 z"/><path style="fill:#6595b9" id="path3611" d="m 29.856992,1020.2596 3.838556,3.5989 L 49,1008.4 l 2,-4 -10,-10 c -6.666667,6.6667 -19.026357,18.8644 -18.603039,18.4411 7.460031,7.4185 0,0 7.460031,7.4185 z"/><path style="fill:#da786c" id="path3613" d="m 9,1028.4 10,10 17.523466,-17.2491 0.0058,-2.2059 L 26.167269,1008.98 11,1024.4 Z"/><path style="fill-opacity:.07843101" id="path3619" d="m 6,1034.4 5,-10 10,10 -5,10 z"/><path style="fill-opacity:.23528999" id="path3621" d="m 16,1044.4 30,-30 5,-10 -30,30 z"/></g></g></g><path id="path4326" d="m 0.00358225,15.504933 2.99283695,-0.0099" style="fill:#555753;fill-rule:evenodd;stroke:#555753;stroke-width:.99012882px;stroke-linecap:butt;stroke-linejoin:miter;stroke-opacity:1"/><path id="path4328" d="m 7.0011857,15.509651 7.9976283,-0.01932" style="fill:none;fill-rule:evenodd;stroke:#555753;stroke-width:.98069501px;stroke-linecap:butt;stroke-linejoin:miter;stroke-opacity:1"/></g></g></svg>