<svg xmlns="http://www.w3.org/2000/svg" xmlns:svg="http://www.w3.org/2000/svg" id="svg30571" width="16" height="16" version="1.1" viewBox="0 0 16 16"><metadata id="metadata30576"/><g id="layer1" transform="translate(0,-1036.3622)"><g id="g4273"><path id="path3997" d="m 0.75701562,1038.7371 c 0.48304058,0.4107 1.20758408,0.3513 1.61794238,-0.1313 0.4105581,-0.4834 0.3510346,-1.2082 -0.1319457,-1.6185 -0.4831785,-0.4107 -1.2076666,-0.3513 -1.61796329,0.1314 -0.41051924,0.4831 -0.35113809,1.2081 0.13196661,1.6184 z" style="fill:#f57900;stroke:#542900;stroke-width:.70832998"/><path id="path4045" d="m 13.436609,1043.6307 2.064939,-2.065 4e-5,10.2981 H 5.2026917 l 2.0651111,-2.0651 c 0,0 -4.1302012,-3.5935 -0.697205,-7.0265 3.356372,-3.2355 6.7075162,0.7001 6.7075162,0.7001 z" style="fill:#3465a4;fill-opacity:1;stroke:#122439;stroke-width:.99682039;stroke-miterlimit:4;stroke-dasharray:none"/><path id="path4109" d="m 12.089279,1043.7236 c 0.703466,0.5134 1.244832,1.2257 1.244832,1.2257 l 1.309792,-1.1919 -0.0017,7.2484 -7.2831851,-0.01 1.2103166,-1.2285 c -1.3230551,-1.236 -2.5456551,-2.6595 -2.4020915,-4.1428 0.072315,-0.7451 0.4060178,-1.5604 1.1703227,-2.3073 1.1441152,-1.1184 2.7524403,-1.2466 4.5402813,0.1895 z" style="opacity:.42358099;fill:none;stroke:#fff;stroke-width:.71175832;stroke-linecap:square"/><path id="path3771" d="m 0.97341534,1043.6047 c 0.68592786,0.5667 1.70187506,0.4699 2.26893806,-0.2159 0.5674497,-0.686 0.4702963,-1.7021 -0.2154705,-2.2689 -0.6859871,-0.5668 -1.701992,-0.4699 -2.268999,0.2162 -0.56730733,0.6857 -0.47040968,1.7017 0.21553144,2.2686 z" style="fill:#f57900;stroke:#542900;stroke-width:.78147501"/><path id="path3771-3" d="m 4.9734154,1039.6047 c 0.6859278,0.5667 1.701875,0.4699 2.268938,-0.2159 0.5674497,-0.686 0.4702963,-1.7021 -0.2154705,-2.2689 -0.6859871,-0.5668 -1.701992,-0.4699 -2.268999,0.2162 -0.5673073,0.6857 -0.4704096,1.7017 0.2155315,2.2686 z" style="fill:#f57900;stroke:#542900;stroke-width:.78147501"/></g></g></svg>