<svg xmlns="http://www.w3.org/2000/svg" xmlns:svg="http://www.w3.org/2000/svg" xmlns:xlink="http://www.w3.org/1999/xlink" id="svg2928" width="16" height="16" version="1.1" viewBox="0 0 16 16"><defs id="defs2930"><linearGradient id="linearGradient8200" x1="2" x2="8.918" gradientTransform="matrix(0.38179253,0,0,0.33704046,0.54501446,5.5882868)" gradientUnits="userSpaceOnUse" xlink:href="#linearGradient3932"/><linearGradient id="linearGradient3932"><stop id="stop3934" stop-color="#709bd2"/><stop id="stop3936" offset="1" stop-color="#3465a4"/></linearGradient><linearGradient id="linearGradient8202" x1="83.844" x2="119" gradientTransform="matrix(0.27983911,-0.16616902,0.16156486,0.28781334,-24.674235,24.794066)" gradientUnits="userSpaceOnUse" xlink:href="#linearGradient4394"/><linearGradient id="linearGradient4394"><stop id="stop5137" stop-color="#818181"/><stop id="stop5139" offset=".5" stop-color="#fff"/><stop id="stop4398" offset="1" stop-color="#bebebe"/></linearGradient></defs><metadata id="metadata2933"/><g id="layer1" transform="translate(0,-6)"><g id="g17431"><path id="path2900-9" d="m 7.8100226,11.651902 c 0,0 -5.585238,-0.112141 -5.585238,-0.112141 -0.7112541,0 -1.72490914,0.775732 -1.72490914,1.87537 v 4.098203 c 0,1.539298 1.98218864,1.535677 1.98218864,0.02925 l 0.038949,-4.021573 c 0,0 5.2890101,-1.869104 5.2890101,-1.869104 z" style="fill:url(#linearGradient8200);fill-rule:evenodd;stroke:#204a87;stroke-width:.99893332"/><path id="path2902-8" d="m 2.7056393,13.416999 4.4228458,7.48281 c 0.3397174,0.549789 0.8858862,0.761126 1.4123868,0.480465 L 14.959676,17.56877 c 0.488246,-0.341888 0.714671,-0.984012 0.402872,-1.546379 L 10.934652,8.6787198 Z" style="fill:url(#linearGradient8202);fill-rule:evenodd;stroke:#555753;stroke-width:.99836034"/><ellipse id="path2904-4" cx=".798" cy="16.619" rx="1.467" ry="1.467" transform="matrix(0.86559212,-0.50074972,0.49924834,0.86645894,0,0)" style="fill:#d5d5d5;fill-rule:evenodd;stroke:#555753;stroke-width:1.06785142;stroke-linecap:round;fill-opacity:1"/><path id="path2906-7" d="m 3.9781345,13.76635 3.5698039,6.081693 c 0.4550389,0.804207 0.4823421,0.789946 1.0566548,0.38685 l 5.3338278,-3.221671 c 0.637533,-0.379238 0.771146,-0.235407 0.374576,-0.943108 L 10.618736,9.9154764 Z" style="fill:none;fill-rule:evenodd;stroke:#fff;stroke-width:.93490767"/><path id="path2908-3" d="M 8.9872277,12.558589 V 8.2673616 c 0,-2.3788676 5.0005823,-2.3055712 5.0005823,0.099046 v 4.7557264" style="fill:none;fill-opacity:.75;fill-rule:evenodd;stroke:#555753;stroke-width:.99893332;stroke-linecap:round"/></g></g></svg>