<svg xmlns="http://www.w3.org/2000/svg" xmlns:osb="http://www.openswatchbook.org/uri/2009/osb" xmlns:svg="http://www.w3.org/2000/svg" xmlns:xlink="http://www.w3.org/1999/xlink" id="svg2" width="16" height="16" version="1.1" viewBox="0 0 16 16"><metadata id="metadata90"/><defs id="defs7386"><linearGradient id="linearGradient8340"><stop id="stop8342" stop-color="#fff" stop-opacity=".796"/><stop id="stop8344" offset="1" stop-color="#fff" stop-opacity=".216"/></linearGradient><linearGradient id="linearGradient19282" gradientTransform="matrix(0,-735328.32,170712.69,0,2464326300,577972450)" osb:paint="solid"><stop id="stop19284" stop-color="#b4b4b4"/></linearGradient><linearGradient id="linearGradient6057" x1="231.55" x2="320.7" gradientTransform="matrix(0.01502614,0,0,0.01468232,2.9686133,1037.3257)" gradientUnits="userSpaceOnUse" osb:paint="gradient"><stop id="stop6053" stop-color="#a11f7c"/><stop id="stop6055" offset="1" stop-color="#541f31" stop-opacity=".984"/></linearGradient><linearGradient id="linearGradient3096"><stop id="stop3098" stop-color="#424242"/><stop id="stop3100" offset="1" stop-color="#777"/></linearGradient><linearGradient id="linearGradient9766"><stop id="stop9768" stop-color="#6194cb"/><stop id="stop9770" offset="1" stop-color="#729fcf"/></linearGradient><linearGradient id="linearGradient3201"><stop id="stop3203" stop-color="#e7ce79"/><stop id="stop3205" offset="1" stop-color="#c17d11"/></linearGradient><linearGradient id="linearGradient3104-27" x1="18.113" x2="15.515" y1="31.368" y2="6.18" gradientTransform="matrix(0.3907116,0,0,0.3907116,704.65543,245.18026)" gradientUnits="userSpaceOnUse" xlink:href="#linearGradient3096"/><radialGradient id="radialGradient3297" cx="28.658" cy="33.987" r="18.572" fx="28.658" fy="33.987" gradientTransform="matrix(1.9578819,0,0,1.9776232,-140.66735,2099.5254)" gradientUnits="userSpaceOnUse" xlink:href="#linearGradient3201"/><linearGradient id="linearGradient5442" x1="4.879" x2="16.929" y1="1043.733" y2="1043.733" gradientTransform="translate(-96.394814,1118.7359)" gradientUnits="userSpaceOnUse" xlink:href="#linearGradient3096"/><linearGradient id="linearGradient3238" x1="15.3" x2="51.568" y1="9.144" y2="83.076" gradientTransform="matrix(0.32399235,0,0,0.35716019,-94.058324,2153.9078)" gradientUnits="userSpaceOnUse" xlink:href="#linearGradient8340"/><linearGradient id="linearGradient4021" x1="-13.619" x2="-9.834" y1="1044.783" y2="1044.783" gradientTransform="matrix(0.81744022,0,0,0.84959857,-73.230444,1277.3853)" gradientUnits="userSpaceOnUse" xlink:href="#linearGradient2911"/><linearGradient id="linearGradient2911"><stop id="stop2913" offset="0" style="stop-color:#8ae234;stop-opacity:1"/><stop id="stop2915-3" offset="1" style="stop-color:#73d216;stop-opacity:1"/></linearGradient><linearGradient id="linearGradient4021-5" x1="-13.619" x2="-9.834" y1="1044.783" y2="1044.783" gradientTransform="matrix(0.81744022,0,0,0.84959857,-76.808464,1279.1906)" gradientUnits="userSpaceOnUse" xlink:href="#linearGradient2866"/><linearGradient id="linearGradient2866"><stop id="stop2868" offset="0" style="stop-color:#ef2929;stop-opacity:1"/><stop id="stop2870" offset="1" style="stop-color:#c00;stop-opacity:1"/></linearGradient><linearGradient id="linearGradient4021-3" x1="-13.619" x2="-9.834" y1="1044.783" y2="1044.783" gradientTransform="matrix(0.81744022,0,0,0.84959857,-72.840114,1273.6934)" gradientUnits="userSpaceOnUse" xlink:href="#linearGradient2880"/><linearGradient id="linearGradient2880"><stop style="stop-color:#729fcf;stop-opacity:1" id="stop2882" offset="0"/><stop style="stop-color:#3465a4;stop-opacity:1" id="stop2884" offset="1"/></linearGradient><linearGradient id="linearGradient9772-1" x1="22.176" x2="22.065" y1="36.988" y2="32.05" gradientTransform="matrix(0.3907116,0,0,0.3907116,704.65543,245.18026)" gradientUnits="userSpaceOnUse" xlink:href="#linearGradient9766"/><linearGradient id="linearGradient322-7" x1="13.036" x2="12.854" y1="32.567" y2="46.689" gradientTransform="matrix(0.51475824,0,0,0.31892069,704.31177,244.66523)" gradientUnits="userSpaceOnUse" xlink:href="#linearGradient8340"/><linearGradient id="linearGradient5487" osb:paint="solid"><stop id="stop5485" offset="0" style="stop-color:#888a85;stop-opacity:1"/></linearGradient></defs><g style="display:inline" id="preferences" transform="translate(-328.26754,-57.772829)"><g id="gimp-prefs-folders-palettes" transform="translate(327.71239,26.809234)"><path id="path216-52" d="m 1.1301486,46.443051 c 0.00852,0.162654 0.1796902,0.32531 0.3423452,0.32531 l 12.2398302,0 c 0.162654,0 0.316794,-0.162656 0.308278,-0.32531 L 13.654723,35.805249 c -0.0085,-0.162654 -0.179687,-0.325312 -0.342342,-0.325312 l -5.185084,0 c -0.1895174,0 -0.482323,-0.123305 -0.5476386,-0.432374 L 7.3407808,33.917206 C 7.2800373,33.62977 6.9960896,33.511692 6.8334348,33.511692 l -5.7742718,0 c -0.16265828,0 -0.31679713,0.162655 -0.30828122,0.32531 z" style="fill:#fff;fill-opacity:1;fill-rule:nonzero;stroke:url(#linearGradient3104-27);stroke-width:.39071161;stroke-linecap:round;stroke-linejoin:round;stroke-miterlimit:4;stroke-dasharray:none;stroke-opacity:1"/><g id="gimp-color-palette" transform="matrix(0.1293392,-0.61147067,0.61147067,0.1293392,-629.01954,-94.823906)"><g id="g4007" transform="translate(-2.3419761,0.78065922)"><g id="g4010" transform="matrix(1.0501565,0,0,1.0501565,-0.29003914,-52.708266)"><path id="path2193" d="m 9.4536954,1036.7703 c -1.900788,0.028 -4.447296,0.7445 -4.404271,3.0471 0.0459,2.4561 2.752324,1.487 2.855183,2.5782 0.166241,1.7637 -3.296211,7.1293 1.964204,8.1811 3.5118376,0.7024 7.2390576,-1.7087 6.8645866,-6.5738 -0.336769,-4.3755 -3.620646,-7.1213 -6.9050856,-7.2326 -0.119994,0 -0.247897,0 -0.374617,0 z m -0.820105,1.4287 c 0.894219,0 1.6199616,0.56 1.6199616,1.2501 0,0.6899 -0.7257426,1.2499 -1.6199616,1.2499 -0.894219,0 -1.619962,-0.56 -1.619962,-1.2499 0,-0.6901 0.725743,-1.2501 1.619962,-1.2501 z" style="opacity:1;fill:url(#radialGradient3297);fill-opacity:1;fill-rule:evenodd;stroke:url(#linearGradient5442);stroke-width:.34017223;stroke-linecap:butt;stroke-linejoin:miter;stroke-miterlimit:4;stroke-dasharray:none;stroke-opacity:1"/><path id="path3230" d="m 9.4744424,1037.1363 c -0.915046,0.013 -1.983862,0.2027 -2.78431,0.6362 -0.800447,0.4334 -1.314734,1.0383 -1.295969,2.0424 0.0101,0.5408 0.155408,0.8317 0.354367,1.038 0.198958,0.2065 0.484586,0.3301 0.80998,0.4242 0.325395,0.094 0.677648,0.1497 0.992227,0.2679 0.15729,0.058 0.311383,0.1357 0.44549,0.2679 0.134106,0.1322 0.232392,0.3381 0.253119,0.558 0.05537,0.5875 -0.155169,1.2513 -0.374617,2.0202 -0.219447,0.7689 -0.468522,1.6121 -0.556861,2.4108 -0.08834,0.7988 -0.01335,1.5286 0.344241,2.1095 0.357595,0.5808 1.027285,1.0649 2.288196,1.317 1.6713306,0.3342 3.3853516,-0.074 4.6270156,-1.1273 1.241664,-1.0533 2.031962,-2.7287 1.852831,-5.056 -0.322615,-4.1915 -3.465043,-6.8028 -6.5912186,-6.9088 -0.109183,0 -0.237167,0 -0.364491,0 z" style="opacity:.67049806;fill:none;fill-opacity:1;fill-rule:evenodd;stroke:url(#linearGradient3238);stroke-width:.34017226;stroke-linecap:butt;stroke-linejoin:miter;stroke-miterlimit:4;stroke-opacity:1"/><ellipse id="path4013" cx="13.579" cy="1046.296" rx="1.343" ry="1.326" style="color:#000;clip-rule:nonzero;display:inline;overflow:visible;visibility:visible;opacity:1;isolation:auto;mix-blend-mode:normal;color-interpolation:sRGB;color-interpolation-filters:linearRGB;solid-color:#000;solid-opacity:1;fill:url(#linearGradient4021);fill-opacity:1;fill-rule:nonzero;stroke:#4e9a06;stroke-width:.41668215;stroke-linecap:round;stroke-linejoin:miter;stroke-miterlimit:4;stroke-dasharray:none;stroke-dashoffset:0;stroke-opacity:1;color-rendering:auto;image-rendering:auto;shape-rendering:auto;text-rendering:auto;enable-background:accumulate"/><ellipse id="path4013-3" cx="10.001" cy="1048.101" rx="1.343" ry="1.326" style="color:#000;clip-rule:nonzero;display:inline;overflow:visible;visibility:visible;opacity:1;isolation:auto;mix-blend-mode:normal;color-interpolation:sRGB;color-interpolation-filters:linearRGB;solid-color:#000;solid-opacity:1;fill:url(#linearGradient4021-5);fill-opacity:1;fill-rule:nonzero;stroke:#a40000;stroke-width:.41668215;stroke-linecap:round;stroke-linejoin:miter;stroke-miterlimit:4;stroke-dasharray:none;stroke-dashoffset:0;stroke-opacity:1;color-rendering:auto;image-rendering:auto;shape-rendering:auto;text-rendering:auto;enable-background:accumulate"/><ellipse id="path4013-1" cx="13.969" cy="1042.604" rx="1.343" ry="1.326" style="color:#000;clip-rule:nonzero;display:inline;overflow:visible;visibility:visible;opacity:1;isolation:auto;mix-blend-mode:normal;color-interpolation:sRGB;color-interpolation-filters:linearRGB;solid-color:#000;solid-opacity:1;fill:url(#linearGradient4021-3);fill-opacity:1;fill-rule:nonzero;stroke:#204a87;stroke-width:.41668215;stroke-linecap:round;stroke-linejoin:miter;stroke-miterlimit:4;stroke-dasharray:none;stroke-dashoffset:0;stroke-opacity:1;color-rendering:auto;image-rendering:auto;shape-rendering:auto;text-rendering:auto;enable-background:accumulate"/></g></g></g><path style="color:#000;display:block;visibility:visible;fill:url(#linearGradient9772-1);fill-opacity:1;fill-rule:nonzero;stroke:#3465a4;stroke-width:.39071161;stroke-linecap:butt;stroke-linejoin:round;stroke-miterlimit:4;stroke-dasharray:none;stroke-dashoffset:0;stroke-opacity:1;marker:none;marker-start:none;marker-mid:none;marker-end:none" id="path233-49" d="m 14.907324,46.764686 c 0.446933,-0.01722 0.766997,-0.428337 0.7998,-0.906844 0.309361,-4.512206 0.648331,-8.295569 0.648331,-8.295569 0.02819,-0.09669 -0.0656,-0.193389 -0.187596,-0.193389 l -13.4292094,0 c 0,0 -0.7229411,8.543648 -0.7229411,8.543648 -0.044758,0.383705 -0.1820745,0.705124 -0.6055388,0.853202 l 13.4971543,-0.0011 z"/><path id="path304-56" d="M 3.1221776,37.760073 15.93404,37.785395 15.319042,45.6004 c -0.03294,0.418652 -0.176085,0.55802 -0.731668,0.55802 -0.731218,0 -11.204815,-0.01266 -12.2662901,-0.01266 0.09127,-0.125344 0.1304022,-0.386266 0.130926,-0.392513 l 0.6701677,-7.993171 z" style="opacity:.46590911;fill:none;fill-opacity:1;fill-rule:evenodd;stroke:url(#linearGradient322-7);stroke-width:.39071149px;stroke-linecap:round;stroke-linejoin:miter;stroke-opacity:1"/></g></g></svg>