<svg xmlns="http://www.w3.org/2000/svg" xmlns:svg="http://www.w3.org/2000/svg" xmlns:xlink="http://www.w3.org/1999/xlink" id="svg30571" width="16" height="16" version="1.1" viewBox="0 0 16 16"><defs id="defs30573"><radialGradient id="radialGradient3851" cx="2.969" cy="14.026" r="1.823" fx="2.969" fy="14.026" gradientTransform="matrix(0.99999742,-0.00227153,0.00132959,0.58532608,-0.01864095,5.8228999)" gradientUnits="userSpaceOnUse" xlink:href="#linearGradient3845"/><linearGradient id="linearGradient3845"><stop style="stop-color:#a3bedd;stop-opacity:1" id="stop3847" offset="0"/><stop style="stop-color:#487cbc;stop-opacity:1" id="stop3849" offset="1"/></linearGradient><filter style="color-interpolation-filters:sRGB" id="filter4090" width="1.146" height="1.142" x="-.073" y="-.071"><feGaussianBlur id="feGaussianBlur4092" stdDeviation=".357"/></filter><filter style="color-interpolation-filters:sRGB" id="filter4173" width="1.304" height="1.618" x="-.152" y="-.309"><feGaussianBlur id="feGaussianBlur4175" stdDeviation=".29"/></filter></defs><metadata id="metadata30576"/><g id="layer1" transform="translate(0,-1036.3622)"><g id="g4259"><rect id="rect30123-5" width="16" height="16" x="0" y="1036.362" style="opacity:.3;fill:none;stroke:none;stroke-width:.99999732"/><path id="path30137-9" d="M 4.0230549,1046.3622 0,1042.3622 h 8 z" style="fill:#f57900;fill-opacity:1;stroke:none;stroke-width:1.00000358"/><path id="path3953" d="m -3.5552301,-1044.317 a 5.28018,5.5532227 0 0 1 -3.2777303,5.1384 5.28018,5.5532227 0 0 1 -5.7638156,-1.2411 5.28018,5.5532227 0 0 1 -1.093997,-6.0796 5.28018,5.5532227 0 0 1 4.9340443,-3.3703" transform="scale(-1)" style="opacity:1;fill:none;fill-opacity:1;stroke:#f57900;stroke-width:1.9376756;stroke-linecap:butt;stroke-linejoin:miter;stroke-miterlimit:4;stroke-dasharray:none;stroke-dashoffset:0;stroke-opacity:1"/><g id="g3857" transform="matrix(0.66870518,0,0,0.66865961,0.44882138,358.5575)"><circle style="fill:url(#radialGradient3851);fill-opacity:1;stroke:#154384;stroke-width:.77517074;stroke-miterlimit:4;stroke-dasharray:none;stroke-opacity:1" id="path4537" cx="2.969" cy="13" r="1.563" transform="matrix(1.9170741,0,0,1.9170741,-1.128608,1008.9448)"/><ellipse style="color:#bebebe;display:inline;overflow:visible;visibility:visible;fill:#adc5e1;fill-opacity:1;fill-rule:nonzero;stroke:none;stroke-width:1;marker:none;enable-background:accumulate" id="path3843" cx="4.651" cy="2.3" rx="1.757" ry="1.204" transform="translate(-0.09337855,1030.2827)"/></g><path id="path3953-9" d="m 9.5479394,1050.2853 c 2.1890946,0.034 3.9416466,-1.9312 4.7938576,-3.9748 0.85221,-2.0435 0.416258,-4.411 -1.111328,-6 -1.527587,-1.5889 -4.2336142,-2.6073 -6.2559963,-1.7579 -2.0223821,0.8494 -3.938701,3.3098 -3.938701,5.5285 0,0 0.8321601,2.4839 0.9274611,-0.053 0.065307,-1.7383 1.4573886,-4.0062 3.23374,-4.6264 1.7856564,-0.6235 4.1806362,0.2045 5.4389942,1.6165 1.160215,1.3019 1.506234,3.5156 0.905322,5.1527 -0.596495,1.625 -2.49311,3.3417 -3.9943359,3.3187 z" transform="matrix(1.0040009,0,0,1.0179355,-0.18853029,-18.632241)" style="color:#000;font-style:normal;font-variant:normal;font-weight:400;font-stretch:normal;font-size:medium;line-height:normal;font-family:sans-serif;font-variant-ligatures:normal;font-variant-position:normal;font-variant-caps:normal;font-variant-numeric:normal;font-variant-alternates:normal;font-feature-settings:normal;text-indent:0;text-align:start;text-decoration:none;text-decoration-line:none;text-decoration-style:solid;text-decoration-color:#000;letter-spacing:normal;word-spacing:normal;text-transform:none;writing-mode:lr-tb;direction:ltr;text-orientation:mixed;dominant-baseline:auto;baseline-shift:baseline;text-anchor:start;white-space:normal;shape-padding:0;clip-rule:nonzero;display:inline;overflow:visible;visibility:visible;opacity:1;isolation:auto;mix-blend-mode:normal;color-interpolation:sRGB;color-interpolation-filters:linearRGB;solid-color:#000;solid-opacity:1;fill:#ff0;fill-opacity:1;fill-rule:nonzero;stroke:none;stroke-width:1.66621447;stroke-linecap:butt;stroke-linejoin:miter;stroke-miterlimit:4;stroke-dasharray:none;stroke-dashoffset:0;stroke-opacity:1;filter:url(#filter4090);color-rendering:auto;image-rendering:auto;shape-rendering:auto;text-rendering:auto;enable-background:accumulate"/><path style="fill:#edd400;fill-opacity:1;stroke:none;stroke-width:.56633496;filter:url(#filter4173)" id="path30137-9-2" d="m 3.9914218,1045.6672 -2.296388,-2.2476 h 4.5664565 z" transform="matrix(1.0147082,0,0,0.95240848,-0.0367752,49.776585)"/></g></g></svg>