<svg xmlns="http://www.w3.org/2000/svg" xmlns:osb="http://www.openswatchbook.org/uri/2009/osb" xmlns:svg="http://www.w3.org/2000/svg" xmlns:xlink="http://www.w3.org/1999/xlink" id="svg2" width="16" height="16" version="1.1" viewBox="0 0 16 16"><metadata id="metadata90"/><defs id="defs7386"><linearGradient id="linearGradient19282" gradientTransform="matrix(0,-735328.32,170712.69,0,2464326300,577972450)" osb:paint="solid"><stop id="stop19284" stop-color="#b4b4b4"/></linearGradient><linearGradient id="linearGradient6057" x1="231.55" x2="320.7" gradientTransform="matrix(0.01502614,0,0,0.01468232,2.9686133,1037.3257)" gradientUnits="userSpaceOnUse" osb:paint="gradient"><stop id="stop6053" stop-color="#a11f7c"/><stop id="stop6055" offset="1" stop-color="#541f31" stop-opacity=".984"/></linearGradient><linearGradient id="linearGradient4092" x1="65.257" x2="264.029" y1="617.863" y2="617.863" gradientTransform="translate(13969.744,5033.3136)" gradientUnits="userSpaceOnUse" xlink:href="#linearGradient19282"/><linearGradient id="linearGradient4086" x1="234.286" x2="360" y1="616.362" y2="616.362" gradientTransform="matrix(0.04091636,0,0,0.04091636,571.76388,1221.6107)" gradientUnits="userSpaceOnUse" xlink:href="#linearGradient19282"/><linearGradient id="linearGradient5487" osb:paint="solid"><stop id="stop5485" offset="0" style="stop-color:#888a85;stop-opacity:1"/></linearGradient></defs><g style="display:inline" id="stock" transform="translate(-194.56663,-49.86487)"><g id="gimp-toilet-paper" transform="translate(194.56663,-986.49733)" style="display:inline"><g id="gimp-new-toilet-paper" transform="translate(0,1.7382813e-5)"><g id="gimp-new-toilet-paper-1" transform="matrix(0.04091636,0,0,0.04091636,0.17280194,1015.6658)"><path style="fill:#dcdcdc;fill-opacity:1;stroke:none;stroke-width:1.13499999;stroke-miterlimit:4;stroke-dasharray:none;stroke-opacity:1" id="rect3932-0" d="m 322.0353,505.95697 192.35984,0 c 0.3292,0 0.78022,0.32567 0.59422,0.59423 -66.35806,95.80927 67.67524,131.04989 0,185.11165 -2.24128,1.79043 0.0213,-0.052 0.0213,-0.052 L 357.04161,759.8161 c -3.02892,0 -45.96246,30.8141 -43.81678,-28.01111 l 8.21624,-225.25379 c 0.0121,-0.3309 0.26503,-0.59423 0.59423,-0.59423 z" transform="matrix(0.88230041,0.47068671,-0.32499327,0.94571633,0,0)"/><path style="fill:#fff;fill-opacity:1;stroke:none;stroke-width:1.13499999;stroke-miterlimit:4;stroke-dasharray:none;stroke-opacity:1" id="rect3940-5" d="m 87.355,510.36221 202.14715,0 c 0.19667,0 0.355,0.15833 0.355,0.355 l 0,211.29 c 0,0.19667 -0.15833,0.355 -0.355,0.355 l -202.14715,0 c -0.19667,0 -0.227971,-0.24605 -0.355,-0.355 -53.380966,-45.78312 -59.452394,-145.14974 0,-211.29 0.111874,-0.12446 0.515473,-10.71214 0.355,-0.355 z"/><path style="fill:url(#linearGradient4092);fill-opacity:1;stroke:none;stroke-width:1.13499999;stroke-miterlimit:4;stroke-dasharray:none;stroke-opacity:1" id="rect3940-4-7" d="m 99.870243,533.7742 163.870677,0 c 0.15943,0 0.28778,0.12835 0.28778,0.28778 l 0,171.28232 c 0,0.15943 -0.12835,0.28778 -0.28778,0.28778 l -163.870677,0 c -0.15943,0 -0.1848,-0.19946 -0.28778,-0.28778 -43.2733,-37.1141 -48.1951,-117.66569 0,-171.28232 0.0907,-0.10089 0.417867,-8.6838 0.28778,-0.28778 z"/><path style="fill:#fff;fill-opacity:1;stroke:none;stroke-width:1.13499999;stroke-miterlimit:4;stroke-dasharray:none;stroke-opacity:1" id="rect3940-8-8" d="m 108.43802,552.14223 150.32667,0 c 0.14626,0 0.264,0.10022 0.264,0.22473 l 0,133.75468 c 0,0.1245 -0.1177,0.22473 -0.264,0.22473 l -150.32667,0 c -0.14626,0 -0.16953,-0.15576 -0.264,-0.22473 -39.696742,-28.98247 -44.211754,-91.88536 0,-133.75468 0.0832,-0.0788 0.38334,-6.7812 0.264,-0.22473 z"/></g><rect id="rect3999-9" width="16" height="16" x="0" y="1036.362" style="color:#000;clip-rule:nonzero;display:inline;overflow:visible;visibility:visible;opacity:1;isolation:auto;mix-blend-mode:normal;color-interpolation:sRGB;color-interpolation-filters:linearRGB;solid-color:#000;solid-opacity:1;fill:none;fill-opacity:1;fill-rule:nonzero;stroke:none;stroke-width:.10246458;stroke-linecap:round;stroke-linejoin:round;stroke-miterlimit:4;stroke-dasharray:none;stroke-dashoffset:0;stroke-opacity:1;color-rendering:auto;image-rendering:auto;shape-rendering:auto;text-rendering:auto;enable-background:accumulate"/></g><path style="opacity:1;fill:#464646;fill-opacity:1;stroke:none;stroke-width:.12168574;stroke-linecap:round;stroke-linejoin:round;stroke-miterlimit:4;stroke-dasharray:none;stroke-opacity:1" id="rect3956" d="m 4.6471828,1044.4812 6.6155352,0 c 0.03273,0 0.05909,0.026 0.05909,0.059 l 0,0.2705 c 0,0.033 -0.02635,0.059 -0.05909,0.059 l -6.4576989,0.063 c 1.5508436,0.036 0.098749,-0.059 0.098749,-0.059 0,0 -0.825702,-0.1199 -0.7576143,-0.3967 0.03989,-0.1622 1.2890436,0.099 0.5010287,0 z"/><ellipse style="fill:url(#linearGradient4086);fill-opacity:1;stroke:none;stroke-width:1.13499999;stroke-miterlimit:4;stroke-dasharray:none;stroke-opacity:1" id="path3934-6" cx="12.331" cy="1040.885" rx="2.572" ry="4.337"/><ellipse style="fill:#464646;fill-opacity:1;stroke:none;stroke-width:1.13499999;stroke-miterlimit:4;stroke-dasharray:none;stroke-opacity:1" id="path3938-4-8" cx="12.438" cy="1040.809" rx=".643" ry="1.227"/></g></g></svg>