<svg xmlns="http://www.w3.org/2000/svg" xmlns:svg="http://www.w3.org/2000/svg" xmlns:xlink="http://www.w3.org/1999/xlink" id="svg11300" width="16" height="16" version="1.0"><defs id="defs3"><linearGradient id="linearGradient2065"><stop id="stop2067" offset="0" style="stop-color:#555753"/><stop id="stop2069" offset="1" style="stop-color:#fcaf3e"/></linearGradient><linearGradient id="linearGradient4928"><stop style="stop-color:#fce94f;stop-opacity:1" id="stop4930" offset="0"/><stop style="stop-color:#fce94f;stop-opacity:0" id="stop4932" offset="1"/></linearGradient><linearGradient id="linearGradient4616"><stop id="stop4618" offset="0" style="stop-color:#2e3436;stop-opacity:1"/><stop id="stop4620" offset="1" style="stop-color:#2e3436;stop-opacity:0"/></linearGradient><linearGradient id="linearGradient7384" x1="-11.986" x2="-11.986" y1="13.123" y2="29.727" gradientTransform="matrix(0.748925,0,0,0.748925,83.42059,16.65945)" gradientUnits="userSpaceOnUse" xlink:href="#linearGradient2065"/><radialGradient id="radialGradient7386" cx="-6.007" cy="32.837" r="9.906" fx="-6.007" fy="32.837" gradientTransform="matrix(0.748925,-1.113789e-8,1.067619e-8,0.717879,73.47172,17.83974)" gradientUnits="userSpaceOnUse" xlink:href="#linearGradient4928"/><linearGradient id="linearGradient7388" x1="25.355" x2="25.355" y1="34.007" y2="32.409" gradientTransform="matrix(0.700807,0,0,1.008068,57.61412,6.978468)" gradientUnits="userSpaceOnUse" xlink:href="#linearGradient4616"/></defs><metadata id="metadata4"/><g id="layer1"><g id="g4154"><rect id="rect7400" width="15" height="15" x=".5" y=".5" rx=".615" ry=".638" style="color:#000;display:inline;overflow:visible;visibility:visible;fill:#eeeeec;fill-opacity:1;fill-rule:evenodd;stroke:#888a85;stroke-width:1.00000012;stroke-linecap:butt;stroke-linejoin:miter;stroke-miterlimit:4;stroke-dasharray:none;stroke-dashoffset:0;stroke-opacity:1;marker:none;marker-start:none;marker-mid:none;marker-end:none"/><rect id="rect7402" width="12" height="1" x="2" y="2" rx=".111" ry=".111" style="color:#000;display:inline;overflow:visible;visibility:visible;fill:#204a87;fill-opacity:1;fill-rule:evenodd;stroke:none;stroke-width:1;stroke-linecap:butt;stroke-linejoin:miter;stroke-miterlimit:4;stroke-dasharray:none;stroke-dashoffset:0;stroke-opacity:1;marker:none;marker-start:none;marker-mid:none;marker-end:none"/><g id="g7376" transform="matrix(0.42237932,0,0,0.49627599,-23.44372,-8.0021771)"><rect style="fill:url(#linearGradient7384);fill-opacity:1;stroke:#babdb6;stroke-width:2.1765449;stroke-linecap:round;stroke-linejoin:round;stroke-miterlimit:4;stroke-dasharray:none;stroke-dashoffset:0;stroke-opacity:1" id="rect2063" width="26.233" height="17.974" x="61.327" y="25.272" rx=".496" ry=".415"/><path style="color:#000;display:inline;overflow:visible;visibility:visible;fill:url(#radialGradient7386);fill-opacity:1;fill-rule:evenodd;stroke:none;stroke-width:1;stroke-linecap:round;stroke-linejoin:round;stroke-miterlimit:4;stroke-dasharray:none;stroke-dashoffset:0;stroke-opacity:1;marker:none;marker-start:none;marker-mid:none;marker-end:none" id="path4898" d="m 68.504842,33.54904 c -3.871028,0.245613 -6.950961,3.486386 -6.950961,7.419038 0,0.151871 0.01439,0.295058 0.0234,0.444674 l 14.791269,0 c 0.009,-0.149616 0.0234,-0.292803 0.0234,-0.444674 0,-4.092517 -3.326522,-7.419038 -7.419038,-7.419038 -0.159864,0 -0.310719,-0.01 -0.468078,0 z"/><rect style="fill:url(#linearGradient7388);fill-opacity:1;stroke:none;stroke-width:1;stroke-linecap:round;stroke-linejoin:round;stroke-miterlimit:4;stroke-dasharray:none;stroke-dashoffset:0;stroke-opacity:1" id="rect1324" width="23.827" height="2.016" x="62.52" y="40.245" rx="0" ry="0"/><path style="fill:#000;fill-opacity:1;fill-rule:evenodd;stroke:none;stroke-width:1px;stroke-linecap:butt;stroke-linejoin:miter;stroke-opacity:1" id="path2079" d="m 78.594206,40.244741 c 0,0 -0.416091,-2.035335 -0.416091,-3.282216 0.01154,-0.568811 5.83166,-5.000029 5.846675,-5.660076 l -1.353125,1.039349 -0.947514,-2.272039 3.194289,0.291727 1.49785,-1.320208 -1.696439,1.097696 -0.583434,-0.116692 -0.715827,-2.301211 0.364079,2.242866 -2.643952,-0.116691 0.827453,1.856187 -2.292205,-2.002051 2.424598,2.786605 c 6.3e-5,0.621506 -4.778797,4.415568 -4.770668,3.761359 l -1.981989,-2.34309 -0.165491,-3.167568 1.49785,-0.377202 1.312233,-2.852058 -1.729807,2.636002 -1.350438,-0.05393 -3.022952,-2.2503 -4.150706,-1.400292 3.546036,1.717757 -2.842541,0.222513 3.744625,0 2.246775,1.980311 0.264785,3.420646 -4.00941,-3.420646 1.686056,1.786972 -2.434981,1.513547 2.674732,-1.320207 4.231084,4.697376 -0.165491,3.205567 1.913941,0 z"/><path id="path4924" d="m 69.424748,36.257117 c -2.478079,0.124549 -4.44973,1.767918 -4.44973,3.762133 0,0.07701 0.0092,0.149622 0.01498,0.225491 l 9.468787,0 c 0.0058,-0.07587 0.01498,-0.148478 0.01498,-0.225491 0,-2.07528 -2.129508,-3.762133 -4.749375,-3.762133 -0.102339,0 -0.198911,-0.0051 -0.299646,0 z" style="color:#000;display:inline;overflow:visible;visibility:visible;fill:#fef39e;fill-opacity:1;fill-rule:evenodd;stroke:none;stroke-width:1;stroke-linecap:round;stroke-linejoin:round;stroke-miterlimit:4;stroke-dasharray:none;stroke-dashoffset:0;stroke-opacity:1;marker:none;marker-start:none;marker-mid:none;marker-end:none"/><path style="color:#000;display:inline;overflow:visible;visibility:visible;fill:#fffbd7;fill-opacity:.55681817;fill-rule:evenodd;stroke:none;stroke-width:1;stroke-linecap:round;stroke-linejoin:round;stroke-miterlimit:4;stroke-dasharray:none;stroke-dashoffset:0;stroke-opacity:1;marker:none;marker-start:none;marker-mid:none;marker-end:none" id="path4926" d="m 69.495867,36.933941 c -1.889909,0.101664 -3.393592,1.443049 -3.393592,3.07081 0,0.06286 0.007,0.122126 0.01142,0.184054 l 7.221385,0 c 0.0044,-0.06193 0.01143,-0.121195 0.01143,-0.184054 0,-1.693931 -1.624072,-3.07081 -3.622118,-3.07081 -0.07805,0 -0.1517,-0.0041 -0.228527,0 z"/></g></g></g></svg>