<svg xmlns="http://www.w3.org/2000/svg" xmlns:svg="http://www.w3.org/2000/svg" id="svg30571" width="22" height="22" version="1.1" viewBox="0 0 22 22"><metadata id="metadata30576"/><g id="layer1" transform="translate(0,-1030.3622)"><g id="g4431"><rect id="rect5996-2-1-0-7-8-0-9" width="13" height="2.001" x="-22" y="1049.36" transform="scale(-1,1)" style="color:#555753;display:inline;overflow:visible;visibility:visible;fill:#000;fill-opacity:1;stroke:none;stroke-width:.66271162;stroke-miterlimit:4;stroke-dasharray:none;stroke-opacity:1;marker:none"/><rect id="rect5996-2-1-0-7-5-7-64" width="13" height="2.001" x="-22" y="1043.356" transform="scale(-1,1)" style="color:#555753;display:inline;overflow:visible;visibility:visible;fill:#000;fill-opacity:1;stroke:none;stroke-width:.66271162;stroke-miterlimit:4;stroke-dasharray:none;stroke-opacity:1;marker:none"/><rect id="rect5996-2-1-0-4-1-0" width="13" height="2.001" x="-22" y="1037.353" transform="scale(-1,1)" style="color:#555753;display:inline;overflow:visible;visibility:visible;fill:#000;fill-opacity:1;stroke:none;stroke-width:.66271162;stroke-miterlimit:4;stroke-dasharray:none;stroke-opacity:1;marker:none"/><rect id="rect5996-2-1-0-4-1-0-9" width="13" height="2.001" x="-22" y="1031.349" transform="scale(-1,1)" style="color:#555753;display:inline;overflow:visible;visibility:visible;fill:#000;fill-opacity:1;stroke:none;stroke-width:.66271162;stroke-miterlimit:4;stroke-dasharray:none;stroke-opacity:1;marker:none"/><g id="g4381" transform="matrix(0,1.0006457,-0.99999629,0,1052.3584,1030.3583)"><path style="color:#000;font-style:normal;font-variant:normal;font-weight:400;font-stretch:normal;font-size:medium;line-height:normal;font-family:Sans;-inkscape-font-specification:Sans;text-indent:0;text-align:start;text-decoration:none;text-decoration-line:none;letter-spacing:normal;word-spacing:normal;text-transform:none;writing-mode:lr-tb;direction:ltr;baseline-shift:baseline;text-anchor:start;display:inline;overflow:visible;visibility:visible;fill:#000;fill-opacity:1;stroke:none;stroke-width:1.62987268;marker:none;enable-background:accumulate" id="path18497-9-8" d="m 20.198619,1047.3622 v 2 H 2.2670934 v -2 z"/><path id="path17259-0-7-2-6" d="m 16.251425,1044.6138 v 0.9371 c 0,0.2406 0.115808,0.4952 0.278748,0.6736 l 2.397233,2.1377 -2.397233,2.1381 c -0.16294,0.1783 -0.278748,0.4328 -0.278748,0.6734 v 0.9371 c 0.297331,0 0.594662,-10e-5 0.891993,-10e-5 0.276028,0 0.492667,-0.084 0.668996,-0.2634 1.263661,-1.0055 2.527312,-2.4795 3.790973,-3.4851 l -3.790973,-3.485 c -0.176329,-0.1789 -0.392968,-0.2634 -0.668996,-0.2634 -0.297331,0 -0.594662,0 -0.891993,0 z" style="color:#555753;font-style:normal;font-variant:normal;font-weight:400;font-stretch:normal;font-size:medium;line-height:normal;font-family:'Bitstream Vera Sans';-inkscape-font-specification:'Bitstream Vera Sans';text-indent:0;text-align:start;text-decoration:none;text-decoration-line:none;letter-spacing:normal;word-spacing:normal;text-transform:none;writing-mode:lr-tb;direction:ltr;text-anchor:start;display:inline;overflow:visible;visibility:visible;fill:#ff9753;fill-opacity:1;stroke:#ff5000;stroke-width:.50284952;stroke-miterlimit:4;stroke-dasharray:none;stroke-opacity:1;marker:none;enable-background:accumulate"/><path id="path17259-0-7-2-6-9-30" d="m 5.7485906,1044.6141 v 0.9371 c 0,0.2407 -0.1159339,0.4951 -0.2790538,0.6733 l -2.3998633,2.1376 2.3998633,2.1379 c 0.1631193,0.1784 0.2790538,0.4328 0.2790538,0.6734 v 0.9372 c -0.2976575,0 -0.5953151,-10e-5 -0.8929725,-10e-5 -0.2763301,0 -0.4932063,-0.084 -0.669729,-0.2635 -1.2650471,-1.0054 -2.5300857,-2.4794 -3.79513275,-3.4849 l 3.79513275,-3.4847 c 0.1765227,-0.1787 0.3933989,-0.2635 0.669729,-0.2635 0.2976574,2e-4 0.595315,2e-4 0.8929725,2e-4 z" style="color:#555753;font-style:normal;font-variant:normal;font-weight:400;font-stretch:normal;font-size:medium;line-height:normal;font-family:'Bitstream Vera Sans';-inkscape-font-specification:'Bitstream Vera Sans';text-indent:0;text-align:start;text-decoration:none;text-decoration-line:none;letter-spacing:normal;word-spacing:normal;text-transform:none;writing-mode:lr-tb;direction:ltr;text-anchor:start;display:inline;overflow:visible;visibility:visible;fill:#ff9753;fill-opacity:1;stroke:#ff5000;stroke-width:.50311059;stroke-miterlimit:4;stroke-dasharray:none;stroke-opacity:1;marker:none;enable-background:accumulate"/></g></g></g></svg>