<svg xmlns="http://www.w3.org/2000/svg" xmlns:svg="http://www.w3.org/2000/svg" xmlns:xlink="http://www.w3.org/1999/xlink" id="svg2" width="16" height="16" version="1.1" viewBox="0 0 16 16"><defs id="defs4"><linearGradient id="linearGradient8313" x1="191.027" x2="173.838" y1="320.228" y2="337.294" gradientTransform="matrix(1.0292666,0,0,1.0292666,-184.64471,711.74006)" gradientUnits="userSpaceOnUse" xlink:href="#linearGradient3204-1"/><linearGradient id="linearGradient3204-1"><stop id="stop3206"/><stop id="stop3208" offset="1" stop-opacity="0"/></linearGradient></defs><metadata id="metadata7"/><g id="layer1" transform="translate(0,-1036.3622)"><g id="g3960"><path style="color:#000;display:inline;fill:#3465a4;fill-opacity:1;fill-rule:evenodd;stroke:url(#linearGradient8313);stroke-width:.50044352;stroke-linecap:round;stroke-linejoin:round;stroke-miterlimit:10;stroke-dasharray:none" id="gimp-tool-move" stroke-miterlimit="10" d="m 8,1036.6124 -3.5,2.7498 H 7 v 4 H 3.0000601 l -1.201e-4,-2.5 -2.7497286,3.5 2.7497286,3.368 v -2.368 H 7 v 4 H 4.5 l 3.5,2.7498 3.5,-2.7498 H 9 v -4 h 4 v 2.632 l 2.749789,-3.632 -2.749789,-3.5 v 2.5 H 9 v -4 h 2.5 z"/><rect id="rect3947" width="14" height=".5" x="1" y="1044.112" style="opacity:.33000004;fill:#d3d7cf;fill-opacity:1;stroke:none;stroke-width:1.21108711;stroke-linecap:round;stroke-linejoin:miter;stroke-miterlimit:4;stroke-dasharray:none;stroke-opacity:1;paint-order:stroke fill markers"/><rect id="rect3947-0" width="14" height=".5" x="1037.362" y="-8.25" transform="rotate(90)" style="opacity:.33000004;fill:#d3d7cf;fill-opacity:1;stroke:none;stroke-width:1.21108711;stroke-linecap:round;stroke-linejoin:miter;stroke-miterlimit:4;stroke-dasharray:none;stroke-opacity:1;paint-order:stroke fill markers"/><path id="path3964" d="m -7.6210137,1032.1795 -1.700032,-1.45 2.1058261,-0.7473 z" transform="matrix(0.86531148,-0.32410991,0.7095743,0.39524547,-716.63553,627.75291)" style="opacity:.5;fill:#d3d7cf;fill-opacity:1;stroke:none;stroke-width:2;stroke-linecap:round;stroke-linejoin:miter;stroke-miterlimit:4;stroke-dasharray:none;stroke-opacity:1;paint-order:stroke fill markers"/><path id="path3964-3" d="m -7.6210137,1032.1795 -1.700032,-1.45 2.1058261,-0.7473 z" transform="matrix(0.86531148,0.32410991,0.7095743,-0.39524547,-716.62169,1460.984)" style="opacity:.5;fill:#d3d7cf;fill-opacity:1;stroke:none;stroke-width:2;stroke-linecap:round;stroke-linejoin:miter;stroke-miterlimit:4;stroke-dasharray:none;stroke-opacity:1;paint-order:stroke fill markers"/><path id="path3964-3-2" d="m -7.6210137,1032.1795 -1.700032,-1.45 2.1058261,-0.7473 z" transform="matrix(0.32410991,-0.86531148,-0.39524547,-0.7095743,424.64115,1769.0065)" style="opacity:.5;fill:#d3d7cf;fill-opacity:1;stroke:none;stroke-width:2;stroke-linecap:round;stroke-linejoin:miter;stroke-miterlimit:4;stroke-dasharray:none;stroke-opacity:1;paint-order:stroke fill markers"/><path id="path3964-3-2-8" d="m -7.6210137,1032.1795 -1.700032,-1.45 2.1058261,-0.7473 z" transform="matrix(-0.32410991,-0.86531148,0.39524547,-0.7095743,-408.63197,1768.9313)" style="opacity:.5;fill:#d3d7cf;fill-opacity:1;stroke:none;stroke-width:2;stroke-linecap:round;stroke-linejoin:miter;stroke-miterlimit:4;stroke-dasharray:none;stroke-opacity:1;paint-order:stroke fill markers"/></g></g></svg>