<svg xmlns="http://www.w3.org/2000/svg" xmlns:svg="http://www.w3.org/2000/svg" id="svg11300" width="16" height="16" version="1.0" viewBox="0 0 16 16"><metadata id="metadata4"/><g id="layer1"><g id="g4244"><rect id="rect4236" width="16" height="16" x="0" y="0" style="opacity:.00000001;fill:#000;fill-opacity:1;stroke:none;stroke-width:1.15470064;stroke-miterlimit:4;stroke-dasharray:none"/><g id="g4312" transform="matrix(0.39011433,0,0,0.40016098,-1.1677912,-1.0034397)"><path id="path216" d="m 0.50390625,2.1953125 c -0.16263963,0 -0.31710869,0.1670602 -0.30859375,0.3339844 L 0.57421875,15.466797 c 0.008515,0.166924 0.17916045,0.332031 0.34179687,0.332031 H 13.15625 c 0.162635,0 0.315156,-0.165107 0.306641,-0.332031 L 13.320312,11.199219 12.199219,14 H 4 L 6.7011719,7.2480469 6.8007812,7 H 13.179688 L 13.097656,4.5488281 C 13.08914,4.3819044 12.918496,4.2148438 12.755859,4.2148438 H 7.5703125 c -0.1894957,0 -0.4815668,-0.1261773 -0.546875,-0.4433594 L 6.7851562,2.6113281 C 6.7244197,2.3163475 6.4399799,2.1953125 6.2773438,2.1953125 Z m 6.77539065,5.65625 -2.1191407,5.2968755 h 6.5605468 l 1.537109,-3.8398442 -0.04883,-1.4570313 z" transform="matrix(2.5623875,0,0,2.4991487,3.000235,0.01393478)" style="fill:#babdb6;fill-opacity:1;fill-rule:nonzero;stroke:#424242;stroke-width:.39516774;stroke-linecap:round;stroke-linejoin:round;stroke-miterlimit:4;stroke-dasharray:none;stroke-opacity:1"/><path id="path233" d="M 2.2949219,5.9511719 1.578125,14.902344 C 1.533742,15.304414 1.3984325,15.64171 0.97851562,15.796875 H 14.361328 c 0.443189,-0.01804 0.76044,-0.449762 0.792969,-0.951172 0.306768,-4.728173 0.644531,-8.6914061 0.644531,-8.6914061 0.02795,-0.1013229 -0.06653,-0.203125 -0.1875,-0.203125 z M 6.8007812,7 H 15 l -2.800781,7 H 4 L 6.7011719,7.2480469 Z M 7.2792969,7.8515625 5.1601562,13.148438 h 6.5605468 l 2.119141,-5.2968755 z" transform="matrix(2.5623875,0,0,2.4991487,3.000235,0.01393478)" style="color:#000;display:block;visibility:visible;fill:#fcaf3e;fill-opacity:1;fill-rule:nonzero;stroke:#ce5c00;stroke-width:.40000001;stroke-linecap:butt;stroke-linejoin:round;stroke-miterlimit:4;stroke-dasharray:none;stroke-dashoffset:0;stroke-opacity:1;marker:none;marker-start:none;marker-mid:none;marker-end:none"/><path id="path304" d="m 9.6202444,16.463921 32.7910986,0.06481 -1.574046,20.001979 c -0.08432,1.071511 -0.450678,1.428215 -1.872656,1.428215 -1.871502,0 -28.677968,-0.03241 -31.394742,-0.03241 0.2335983,-0.320811 0.3337557,-0.988623 0.3350963,-1.004612 z" transform="matrix(0.993091,0,0,0.997896,0.297716,0.06983586)" style="opacity:.46590911;fill:none;fill-opacity:1;fill-rule:evenodd;stroke:url(#linearGradient322);stroke-width:1.00452948px;stroke-linecap:round;stroke-linejoin:miter;stroke-opacity:1"/></g></g></g></svg>