<svg xmlns="http://www.w3.org/2000/svg" xmlns:svg="http://www.w3.org/2000/svg" xmlns:xlink="http://www.w3.org/1999/xlink" id="svg30571" width="16" height="16" version="1.1" viewBox="0 0 16 16"><title id="title7666">GIMP Offset Tool</title><defs id="defs30573"><linearGradient id="linearGradient8313" x1="191.027" x2="173.838" y1="320.228" y2="337.294" gradientTransform="matrix(1.0292666,0,0,1.0292666,-184.64471,711.74006)" gradientUnits="userSpaceOnUse" xlink:href="#linearGradient3204-1"/><linearGradient id="linearGradient3204-1"><stop id="stop3206"/><stop id="stop3208" offset="1" stop-opacity="0"/></linearGradient></defs><metadata id="metadata30576"/><g id="layer1" transform="translate(0,-1036.3622)"><g id="gimp-tool-offset"><g id="gimp-grid" transform="matrix(0.96327079,0,0,0.96336725,0.2938523,1036.6552)"><rect style="color:#000;display:inline;overflow:visible;visibility:visible;opacity:1;fill:#d3d7cf;fill-opacity:1;fill-rule:nonzero;stroke:#888a85;stroke-width:.99999905;stroke-linecap:butt;stroke-linejoin:miter;stroke-miterlimit:4;stroke-dasharray:none;stroke-dashoffset:0;stroke-opacity:1;marker:none;marker-start:none;marker-mid:none;marker-end:none" id="rect1908-2" width="15.61" height="15.609" x=".195" y=".196" rx=".487" ry=".489"/></g><g style="stroke-width:1.34784341" id="g3960" transform="matrix(0.74181427,0,0,0.74203773,2.0654856,269.40607)"><path id="gimp-tool-move" stroke-miterlimit="10" d="m 8,1036.6124 -3.5,2.7498 H 7 v 4 H 3.0000601 l -1.201e-4,-2.5 -2.7497286,3.5 2.7497286,3.368 v -2.368 H 7 v 4 H 4.5 l 3.5,2.7498 3.5,-2.7498 H 9 v -4 h 4 v 2.632 l 2.749789,-3.632 -2.749789,-3.5 v 2.5 H 9 v -4 h 2.5 z" style="color:#000;display:inline;fill:#3465a4;fill-opacity:1;fill-rule:evenodd;stroke:url(#linearGradient8313);stroke-width:.67451942;stroke-linecap:round;stroke-linejoin:round;stroke-miterlimit:10;stroke-dasharray:none"/><rect style="opacity:.33000004;fill:#d3d7cf;fill-opacity:1;stroke:none;stroke-width:1.63235557;stroke-linecap:round;stroke-linejoin:miter;stroke-miterlimit:4;stroke-dasharray:none;stroke-opacity:1;paint-order:stroke fill markers" id="rect3947" width="14" height=".5" x="1" y="1044.112"/><rect style="opacity:.33000004;fill:#d3d7cf;fill-opacity:1;stroke:none;stroke-width:1.63235557;stroke-linecap:round;stroke-linejoin:miter;stroke-miterlimit:4;stroke-dasharray:none;stroke-opacity:1;paint-order:stroke fill markers" id="rect3947-0" width="14" height=".5" x="1037.362" y="-8.25" transform="rotate(90)"/><path style="opacity:.5;fill:#d3d7cf;fill-opacity:1;stroke:none;stroke-width:2.69568682;stroke-linecap:round;stroke-linejoin:miter;stroke-miterlimit:4;stroke-dasharray:none;stroke-opacity:1;paint-order:stroke fill markers" id="path3964" d="m -7.6210137,1032.1795 -1.700032,-1.45 2.1058261,-0.7473 z" transform="matrix(0.86531148,-0.32410991,0.7095743,0.39524547,-716.63553,627.75291)"/><path style="opacity:.5;fill:#d3d7cf;fill-opacity:1;stroke:none;stroke-width:2.69568682;stroke-linecap:round;stroke-linejoin:miter;stroke-miterlimit:4;stroke-dasharray:none;stroke-opacity:1;paint-order:stroke fill markers" id="path3964-3" d="m -7.6210137,1032.1795 -1.700032,-1.45 2.1058261,-0.7473 z" transform="matrix(0.86531148,0.32410991,0.7095743,-0.39524547,-716.62169,1460.984)"/><path style="opacity:.5;fill:#d3d7cf;fill-opacity:1;stroke:none;stroke-width:2.69568682;stroke-linecap:round;stroke-linejoin:miter;stroke-miterlimit:4;stroke-dasharray:none;stroke-opacity:1;paint-order:stroke fill markers" id="path3964-3-2" d="m -7.6210137,1032.1795 -1.700032,-1.45 2.1058261,-0.7473 z" transform="matrix(0.32410991,-0.86531148,-0.39524547,-0.7095743,424.64115,1769.0065)"/><path style="opacity:.5;fill:#d3d7cf;fill-opacity:1;stroke:none;stroke-width:2.69568682;stroke-linecap:round;stroke-linejoin:miter;stroke-miterlimit:4;stroke-dasharray:none;stroke-opacity:1;paint-order:stroke fill markers" id="path3964-3-2-8" d="m -7.6210137,1032.1795 -1.700032,-1.45 2.1058261,-0.7473 z" transform="matrix(-0.32410991,-0.86531148,0.39524547,-0.7095743,-408.63197,1768.9313)"/></g></g></g></svg>