<svg xmlns="http://www.w3.org/2000/svg" xmlns:svg="http://www.w3.org/2000/svg" id="svg30571" width="16" height="16" version="1.1" viewBox="0 0 16 16"><metadata id="metadata30576"/><g id="layer1" transform="translate(0,-1036.3622)"><g id="g4291"><g id="g3993" transform="matrix(0.99615992,0,0,1.0000236,0.06131843,-0.02482106)"><g id="g10052"><g id="g3964"><rect style="opacity:1;fill:#fff;fill-opacity:1;stroke:#fff;stroke-width:.39024392;stroke-linecap:square;stroke-linejoin:round;stroke-miterlimit:4;stroke-dasharray:none;stroke-dashoffset:0;stroke-opacity:1" id="rect3944" width="15.61" height="15.61" x="-15.805" y="-1052.167" transform="scale(-1)"/></g></g><rect id="rect3966-7" width="16.062" height="12" x="-.062" y="1036.362" style="opacity:1;fill:#d3d7cf;fill-opacity:1;stroke:none;stroke-width:.65009254;stroke-linecap:square;stroke-linejoin:round;stroke-miterlimit:4;stroke-dasharray:none;stroke-dashoffset:0;stroke-opacity:1"/></g><path id="rect5422-9" d="m 0,1048.3622 v 2.6667 1.3333 h 16 v -1.3333 -2.6667 h -1.142857 v 2.6667 H 8 v -2.6667 H 6.857143 v 2.6667 H 1.142857 v -2.6667 z" style="fill:#000;stroke-width:1.23442674"/><path style="fill:#729fcf;stroke-width:1.72411859" id="path5449-8-5" d="m 0,1048.2936 c 0.5980054,-1.6674 3.7225717,-7.4357 1.5751296,-3.3615 0.3052501,-0.8114 1.0447585,-3.5768 1.8238342,-5.0422 0.3028626,-0.5698 0.648635,-1.154 1.0777202,-1.4009 0.4970777,-0.2853 1.0500908,0 1.5751296,0 0.4421372,0 0.8859722,-0.064 1.3264249,0 0.4752182,0.069 0.9521873,0.1906 1.4093263,0.4202 0.605036,0.3051 1.199354,0.7125 1.7409332,1.2607 0.151783,0.1538 0.282661,0.3609 0.414508,0.5603 0.232959,0.3523 0.409586,0.8117 0.663212,1.1205 0.937384,1.2148 0.770679,-0.2085 1.098452,-0.5251 0.205384,-0.6773 0.449207,-1.5696 0.891185,-1.7161 0.06062,-0.022 0.113277,0.084 0.165803,0.1386 0.352604,0.3682 0.738686,0.71 0.994819,1.2606 0.390128,0.8388 0.561608,1.9211 0.746114,2.9413 0.258945,1.4319 0.497409,4.4122 0.497409,4.4122 l -0.0829,-0.069 z"/></g></g></svg>