<svg xmlns="http://www.w3.org/2000/svg" xmlns:svg="http://www.w3.org/2000/svg" id="svg30571" width="16" height="16" version="1.1" viewBox="0 0 16 16"><metadata id="metadata30576"/><g id="layer1" transform="translate(0,-1036.3622)"><g id="g4268"><g id="g4016"><g id="g3993" transform="matrix(0.99615992,0,0,1.0000236,0.06131843,-0.02482106)"><g id="g10052"><g id="g3964"><rect id="rect3944" width="15.61" height="15.61" x="-15.805" y="-1052.167" transform="scale(-1)" style="opacity:1;fill:#fff;fill-opacity:1;stroke:#fff;stroke-width:.39024392;stroke-linecap:square;stroke-linejoin:round;stroke-miterlimit:4;stroke-dasharray:none;stroke-dashoffset:0;stroke-opacity:1"/></g></g><rect style="opacity:1;fill:#d3d7cf;fill-opacity:1;stroke:none;stroke-width:.65009254;stroke-linecap:square;stroke-linejoin:round;stroke-miterlimit:4;stroke-dasharray:none;stroke-dashoffset:0;stroke-opacity:1" id="rect3966-7" width="16.062" height="12" x="-.062" y="1036.362"/></g></g><path id="rect5422-9" d="m 0,1048.3622 v 2.6667 1.3333 h 16 v -1.3333 -2.6667 h -1.142857 v 2.6667 H 8 v -2.6667 H 6.857143 v 2.6667 H 1.142857 v -2.6667 z" style="fill:#000;stroke-width:1.23442674"/><path id="path5449-8" d="m 0,1048.3622 0.8333333,-1.1687 0.5,-1.0312 h 1.3333333 v 0 L 4,1037.3622 h 1.3333333 l 1.3333333,4.4 c 0,0 0,0 1.3333333,0 l 1.3333332,2.1999 1.3333329,2.2002 v 0 L 12,1043.9621 v -2.1999 0 0 0 l 1.333333,2.1999 1.333334,2.2002 v 0 L 16,1047.0561 v 1.3061 z" style="fill:#729fcf;stroke-width:1.7126931"/></g></g></svg>