<svg xmlns="http://www.w3.org/2000/svg" xmlns:svg="http://www.w3.org/2000/svg" xmlns:xlink="http://www.w3.org/1999/xlink" id="svg30571" width="12" height="12" version="1.1" viewBox="0 0 12 12"><defs id="defs30573"><linearGradient id="linearGradient10471-7-1-0-0-8"><stop id="stop10473-7-5-7-0-6" stop-color="#ece9e4"/><stop id="stop10475-9-1-21-0-0" offset="1" stop-color="#ece9e4" stop-opacity="0"/></linearGradient><radialGradient id="radialGradient5136-4" cx="-188.333" cy="95.87" r="108.278" gradientTransform="matrix(2.04423,0,0,2.04423,192.121,-107.219)" gradientUnits="userSpaceOnUse" xlink:href="#linearGradient3932"/><linearGradient id="linearGradient3932"><stop id="stop3934" stop-color="#709bd2"/><stop id="stop3936" offset="1" stop-color="#3465a4"/></linearGradient><linearGradient id="linearGradient8336-3" x1="305.458" x2="314.417" gradientTransform="matrix(19.3538,0,0,19.3543,-6293.4268,-4355.62)" gradientUnits="userSpaceOnUse" xlink:href="#linearGradient8340"/><linearGradient id="linearGradient8340"><stop id="stop8342" stop-color="#fff" stop-opacity=".796"/><stop id="stop8344" offset="1" stop-color="#fff" stop-opacity=".216"/></linearGradient><linearGradient id="linearGradient4003" x1="85.129" x2="92.711" y1="210.459" y2="210.406" gradientUnits="userSpaceOnUse" xlink:href="#linearGradient10471-7-1-0-0-8"/></defs><metadata id="metadata30576"/><g id="layer1" transform="translate(0,-1040.3622)"><g id="g4255"><rect id="rect4031" width="11" height="11" x=".5" y="1040.862" style="opacity:.61000001;fill:#555753;fill-opacity:1;stroke:#000;stroke-width:.99990487;stroke-linecap:round;stroke-linejoin:miter;stroke-miterlimit:4;stroke-dasharray:none;stroke-dashoffset:0;stroke-opacity:1"/><g id="gimp-tool-zoom-5" transform="matrix(0.57143306,0,0,0.5714275,-171.14431,917.21968)"><g id="g8493-2-0" transform="matrix(-0.0576773,0,0,0.057676,292.987,223.889)"><path style="color:#000;fill:#3465a4;stroke:#204a87;stroke-width:17.33799934" id="path8495-8-2" d="m -294.97129,-76.100257 c 62.2081,0 112.69583,50.488972 112.69583,112.698599 0,62.209627 -50.48773,112.698598 -112.69583,112.698598 -62.20809,0 -112.69582,-50.488971 -112.69582,-112.698598 0,-62.209627 50.48773,-112.698599 112.69582,-112.698599 z m 0,34.676492 c -43.06714,0 -78.02018,34.9539039 -78.02018,78.022107 0,43.068203 34.95304,78.022108 78.02018,78.022108 43.06715,0 78.02019,-34.953905 78.02019,-78.022108 0,-43.0682031 -34.95304,-78.022107 -78.02019,-78.022107 z"/><circle style="color:#000;fill:none;stroke:url(#radialGradient5136-4);stroke-width:19.44400024" id="path8501-1-1" cx="-126" cy="184.5" r="107.197" transform="matrix(0.890153,0,0,0.893231,-182.812,-128.53)"/><ellipse style="color:#000;fill:none;stroke:url(#linearGradient8336-3);stroke-width:17.33803558" id="path9439-5" cx="-294.958" cy="36.596" rx="78.02" ry="78.022"/></g></g><g id="g74833" transform="matrix(0.73093404,0,0,0.72614276,-59.514991,893.57648)" style="display:inline"><ellipse id="path74836" cx="89.632" cy="210.406" rx="2.517" ry="2.538" style="color:#000;display:inline;overflow:visible;visibility:visible;fill:none;stroke:url(#linearGradient4003);stroke-width:1.12276733;stroke-linecap:round;stroke-linejoin:round;stroke-miterlimit:4;stroke-dasharray:none;stroke-dashoffset:0;stroke-opacity:1;marker:none;enable-background:new"/></g></g></g></svg>