<svg xmlns="http://www.w3.org/2000/svg" xmlns:svg="http://www.w3.org/2000/svg" id="svg30571" width="12" height="12" version="1.1" viewBox="0 0 12 12"><metadata id="metadata30576"/><g id="layer1" transform="translate(0,-1040.3622)"><path id="rect17311" d="m 5e-6,1040.3622 v 12 h 12 v -12 z m 0.999995,1 h 1 v 1 H 1 Z m 2,0 h 1 v 1 H 3 Z m 2,0 h 1 v 1 H 5 Z m 2,0 h 1 v 1 H 7 Z m 2,0 h 1 v 1 H 9 Z m -6,2 h 6 v 6 H 3 Z m -2,0 h 1 v 1 H 1 Z m 9,1 h 1 v 1 h -1 z m -9,1 h 1 v 1 H 1 Z m 9,1 h 1 v 1 h -1 z m -9,1 h 1 v 1 H 1 Z m 9,1 h 1 v 1 h -1 z m -8,2 h 1 v 1 H 2 Z m 2,0 h 1 v 1 H 4 Z m 2,0 h 1 v 1 H 6 Z m 2,0 h 1 v 1 H 8 Z m 2,0 h 1 v 1 h -1 z" style="fill:#c00;stroke-width:1.00349033"/></g></svg>