<svg xmlns="http://www.w3.org/2000/svg" xmlns:svg="http://www.w3.org/2000/svg" id="svg30571" width="12" height="12" version="1.1" viewBox="0 0 12 12"><metadata id="metadata30576"/><g id="layer1" transform="translate(0,-1040.3622)"><g id="g4058" transform="matrix(-0.75000002,0,0,0.75000002,12.000001,263.09053)"><g style="fill:#000" id="gimp-menu-left" transform="matrix(1.3333333,0,0,1.3333333,-110.66693,448.36222)"><path style="fill:#000" id="rect5232" d="m -156,224 c -1.108,0 -2,0.892 -2,2 v 8 c 0,1.108 0.892,2 2,2 h 8 c 1.108,0 2,-0.892 2,-2 v -8 c 0,-1.108 -0.892,-2 -2,-2 z m 0.4375,1 h 7.125 c 0.78971,0 1.4375,0.64779 1.4375,1.4375 v 7.125 c 0,0.78971 -0.64779,1.4375 -1.4375,1.4375 h -7.125 c -0.78971,0 -1.4375,-0.64779 -1.4375,-1.4375 v -7.125 c 0,-0.78971 0.64779,-1.4375 1.4375,-1.4375 z" transform="translate(241.0002,217)"/><path style="fill:#eeeeec;stroke:#000200;stroke-width:.57080811;stroke-miterlimit:4;stroke-dasharray:none;stroke-opacity:1" id="path5241" d="m 92.214796,450.05558 v -6.10989 l -6.528533,3.05495 z"/></g><path style="fill:#eeeeec;stroke-width:1.1111083" id="rect5232-5" d="m 3.5555552,1037.6956 c -1.2311111,0 -2.2222221,0.9912 -2.2222221,2.2223 v 8.8888 c 0,1.231 0.991111,2.2222 2.2222221,2.2222 h 8.8888888 c 1.231111,0 2.222222,-0.9912 2.222222,-2.2222 v -8.8888 c 0,-1.2311 -0.991111,-2.2223 -2.222222,-2.2223 z m 0.4861111,1.1111 h 7.9166677 c 0.877455,0 1.59722,0.7198 1.59722,1.5971 v 7.9167 c 0,0.8775 -0.719765,1.5972 -1.59722,1.5972 H 4.0416663 c -0.8774556,0 -1.5972221,-0.7197 -1.5972221,-1.5972 v -7.9167 c 0,-0.8773 0.7197665,-1.5971 1.5972221,-1.5971 z"/></g></g></svg>