<svg xmlns="http://www.w3.org/2000/svg" xmlns:svg="http://www.w3.org/2000/svg" id="svg30571" width="16" height="16" version="1.1" viewBox="0 0 16 16"><metadata id="metadata30576"/><g id="layer1" transform="translate(0,-1036.3622)"><g id="g4262" transform="matrix(1.000785,0,0,1.0024585,0.00102095,-2.5906223)"><g id="g4246"><g id="g3940" transform="matrix(0.99960142,0,0,0.99699157,0.04404047,3.1178624)"><g id="g3988" transform="matrix(0.99825878,0,0,1.0103202,37.649785,-6.2747135)"><path style="opacity:1;fill:#fff;fill-opacity:1;stroke:#555357;stroke-width:.99579221;stroke-miterlimit:4;stroke-dasharray:none;stroke-opacity:1" id="path3938-8" d="m -29.696996,1032.5269 c -4.132275,-0.018 -7.526535,3.271 -7.561523,7.4018 h 2.004287 c 0.09809,-3.043 2.566022,-5.4115 5.611649,-5.4009 3.045856,0.015 5.339022,2.357 5.410808,5.4009 h 1.993137 c 3.22e-4,-4.1315 -3.325429,-7.3828 -7.458358,-7.3996 z"/><path id="path3938" d="m -22.236748,1039.869 -2.074335,0.06 c -0.0054,3.0945 -2.227716,5.3681 -5.32334,5.381 -3.095736,0.014 -5.55885,-2.287 -5.590648,-5.3813 h -2.032191 c 0.03644,4.1297 3.406327,7.4621 7.537663,7.4444 4.101648,0.1238 7.470146,-3.2596 7.482851,-7.4441 z" style="opacity:1;fill:#000;fill-opacity:1;stroke:#555357;stroke-width:.99579221;stroke-miterlimit:4;stroke-dasharray:none;stroke-opacity:1"/></g></g></g><path id="path4074" d="m 13.317648,1044.5077 a 5.2789292,5.3422523 0 0 1 -5.2549048,5.3422 5.2789292,5.3422523 0 0 1 -5.3027346,-5.2936 5.2789292,5.3422523 0 0 1 5.2066404,-5.3904 5.2789292,5.3422523 0 0 1 5.350125,5.2445" style="opacity:1;fill:#fff;fill-opacity:1;stroke:none;stroke-width:.14977558;stroke-miterlimit:4;stroke-dasharray:none;stroke-opacity:1"/><path id="path3948" d="m 10.11419,1040.8622 a 1.5,1.5 0 0 1 -1.4931765,1.5 1.5,1.5 0 0 1 -1.5067613,-1.4864 1.5,1.5 0 0 1 1.4794683,-1.5135 1.5,1.5 0 0 1 1.5202215,1.4726" style="opacity:1;fill:#edd400;fill-opacity:1;stroke:none;stroke-width:.09367748;stroke-miterlimit:4;stroke-dasharray:none;stroke-opacity:1"/><path id="path3948-5" d="m 7.1766901,1041.8622 a 1.5,1.5 0 0 1 -1.4931766,1.5 1.5,1.5 0 0 1 -1.5067613,-1.4864 1.5,1.5 0 0 1 1.4794683,-1.5135 1.5,1.5 0 0 1 1.5202213,1.4726" style="opacity:1;fill:#73d216;fill-opacity:1;stroke:none;stroke-width:.09367748;stroke-miterlimit:4;stroke-dasharray:none;stroke-opacity:1"/><path id="path3948-5-1" d="m 5.8954401,1044.8622 a 1.5,1.5 0 0 1 -1.4931766,1.5 1.5,1.5 0 0 1 -1.5067613,-1.4864 1.5,1.5 0 0 1 1.4794683,-1.5135 1.5,1.5 0 0 1 1.5202213,1.4726" style="opacity:1;fill:#fcaf3e;fill-opacity:1;stroke:none;stroke-width:.09367748;stroke-miterlimit:4;stroke-dasharray:none;stroke-opacity:1"/><path id="path3948-5-1-9" d="m 7.4891901,1047.6122 a 1.5,1.5 0 0 1 -1.4931766,1.5 1.5,1.5 0 0 1 -1.5067613,-1.4864 1.5,1.5 0 0 1 1.4794683,-1.5135 1.5,1.5 0 0 1 1.5202213,1.4726" style="opacity:1;fill:#729fcf;fill-opacity:1;stroke:none;stroke-width:.09367748;stroke-miterlimit:4;stroke-dasharray:none;stroke-opacity:1"/><path id="path3948-5-1-9-5" d="m 10.64544,1047.8622 a 1.5,1.5 0 0 1 -1.4931765,1.5 1.5,1.5 0 0 1 -1.5067613,-1.4864 1.5,1.5 0 0 1 1.4794683,-1.5135 1.5,1.5 0 0 1 1.5202215,1.4726" style="opacity:1;fill:#ad7fa8;fill-opacity:1;stroke:none;stroke-width:.09367748;stroke-miterlimit:4;stroke-dasharray:none;stroke-opacity:1"/><path id="path3948-5-1-9-5-5" d="m 12.89544,1045.8622 a 1.5,1.5 0 0 1 -1.493176,1.5 1.5,1.5 0 0 1 -1.5067618,-1.4864 1.5,1.5 0 0 1 1.4794678,-1.5135 1.5,1.5 0 0 1 1.520222,1.4726" style="opacity:1;fill:#e9b96e;fill-opacity:1;stroke:none;stroke-width:.09367748;stroke-miterlimit:4;stroke-dasharray:none;stroke-opacity:1"/><path id="path3948-5-1-9-5-5-8" d="m 12.61419,1042.8622 a 1.5,1.5 0 0 1 -1.493176,1.5 1.5,1.5 0 0 1 -1.5067618,-1.4864 1.5,1.5 0 0 1 1.4794678,-1.5135 1.5,1.5 0 0 1 1.520222,1.4726" style="opacity:1;fill:#ef2929;fill-opacity:1;stroke:none;stroke-width:.09367748;stroke-miterlimit:4;stroke-dasharray:none;stroke-opacity:1"/><path id="path3948-5-1-9-5-5-8-7" d="m 9.5,1044.3622 a 1.5,1.5 0 0 1 -1.4931766,1.5 1.5,1.5 0 0 1 -1.5067613,-1.4864 1.5,1.5 0 0 1 1.4794683,-1.5135 1.5,1.5 0 0 1 1.5202213,1.4726" style="opacity:1;fill:#000;fill-opacity:1;stroke:none;stroke-width:.09367748;stroke-miterlimit:4;stroke-dasharray:none;stroke-opacity:1"/></g></g></svg>