<svg xmlns="http://www.w3.org/2000/svg" xmlns:svg="http://www.w3.org/2000/svg" xmlns:xlink="http://www.w3.org/1999/xlink" id="svg2" width="16" height="16" version="1.1" viewBox="0 0 16 16"><metadata id="metadata90"/><defs id="defs7386"><linearGradient id="linearGradient5148"><stop id="stop5150" stop-color="#d0d0d0"/><stop id="stop5152" offset="1" stop-color="#ececec"/></linearGradient><linearGradient id="linearGradient7321" x1="83.032" x2="66.311" y1="40.924" y2="22.766" gradientTransform="matrix(0.3410129,0,0,0.39513284,572.96639,416.15408)" gradientUnits="userSpaceOnUse" xlink:href="#linearGradient5148"/><linearGradient id="linearGradient2813" x1="34.197" x2="17.161" y1="33.726" y2="17.397" gradientTransform="matrix(0.51166,0,0,0.475019,3.220846,5.837432)" gradientUnits="userSpaceOnUse" xlink:href="#linearGradient2807"/><linearGradient id="linearGradient2807"><stop style="stop-color:#d3d7cf" id="stop2809" offset="0"/><stop style="stop-color:#eeeeec" id="stop2811" offset="1"/></linearGradient><linearGradient id="linearGradient2071" x1="-11.986" x2="-11.986" y1="13.123" y2="29.727" gradientTransform="matrix(0.462962,0,0,0.466802,21.0145,5.928547)" gradientUnits="userSpaceOnUse" xlink:href="#linearGradient2065"/><linearGradient id="linearGradient2065"><stop style="stop-color:#555753" id="stop2067" offset="0"/><stop style="stop-color:#fcaf3e" id="stop2069" offset="1"/></linearGradient><radialGradient id="radialGradient4915" cx="-6.007" cy="32.837" r="9.906" fx="-6.007" fy="32.837" gradientTransform="matrix(0.462962,0,0,0.44272,14.86446,6.713194)" gradientUnits="userSpaceOnUse" xlink:href="#linearGradient4928"/><linearGradient id="linearGradient4928"><stop id="stop4930" offset="0" style="stop-color:#fce94f;stop-opacity:1"/><stop id="stop4932" offset="1" style="stop-color:#fce94f;stop-opacity:0"/></linearGradient><linearGradient id="linearGradient4622" x1="25.355" x2="25.355" y1="34.007" y2="32.409" gradientTransform="matrix(0.462962,0,0,0.461866,4.347921,5.985305)" gradientUnits="userSpaceOnUse" xlink:href="#linearGradient4616"/><linearGradient id="linearGradient4616"><stop style="stop-color:#2e3436;stop-opacity:1" id="stop4618" offset="0"/><stop style="stop-color:#2e3436;stop-opacity:0" id="stop4620" offset="1"/></linearGradient><linearGradient id="linearGradient3955" x1="8.134" x2="18.521" y1="1044.246" y2="1044.184" gradientTransform="matrix(0.31330834,0,0,0.31859479,11.429497,-328.71148)" gradientUnits="userSpaceOnUse" xlink:href="#linearGradient3953"/><linearGradient id="linearGradient3953"><stop style="stop-color:#ff3200;stop-opacity:1" id="stop3955" offset="0"/><stop style="stop-color:#ff3200;stop-opacity:0" id="stop3957" offset="1"/></linearGradient></defs><g id="g4362"><g id="g19"><g id="g3998" transform="matrix(1.0047718,0,0,1.0477684,0.01157618,-3.8010831)"><rect id="rect4273-3" width="11.827" height="9.119" x="7.03" y="10.423" transform="matrix(1,0,-0.33324929,0.94283875,0,0)" style="color:#000;display:inline;overflow:visible;visibility:visible;opacity:1;fill:url(#linearGradient7321);fill-opacity:1;fill-rule:evenodd;stroke:#9b9c98;stroke-width:1.00379252;stroke-linecap:round;stroke-linejoin:round;stroke-miterlimit:10;stroke-dasharray:none;stroke-dashoffset:0;stroke-opacity:1;marker:none;marker-start:none;marker-mid:none;marker-end:none"/><rect style="color:#000;display:inline;overflow:visible;visibility:visible;opacity:1;fill:#d3d7cf;fill-opacity:1;fill-rule:evenodd;stroke:#fff;stroke-width:1.06549037;stroke-linecap:butt;stroke-linejoin:miter;stroke-miterlimit:10;stroke-dasharray:none;stroke-dashoffset:0;stroke-opacity:1;marker:none;marker-start:none;marker-mid:none;marker-end:none" id="rect5156-3" width="9.632" height="5.793" x="8.177" y="11.497" ry="0" transform="matrix(1,0,-0.33197498,0.94328819,0,0)"/></g></g><g id="g4028" transform="matrix(0.47825773,0,0,0.49998853,16.602037,2.618731)"><g id="g2403" transform="translate(-38.71351,-12.237062)"><rect id="rect2073" width="22" height="19" x="4.5" y="7.5" rx="1.823" ry="1.819" style="opacity:1;fill:url(#linearGradient2813);fill-opacity:1;stroke:#8a8a8a;stroke-width:.99999869;stroke-linecap:round;stroke-linejoin:round;stroke-miterlimit:4;stroke-dasharray:none;stroke-dashoffset:0;stroke-opacity:1"/><rect id="rect2063" width="16.216" height="11.203" x="7.357" y="11.297" rx=".203" ry=".202" style="opacity:1;fill:url(#linearGradient2071);fill-opacity:1;stroke:#888a85;stroke-width:.99999893;stroke-linecap:round;stroke-linejoin:round;stroke-miterlimit:4;stroke-dasharray:none;stroke-dashoffset:0;stroke-opacity:1"/><path id="path4898" d="m 11.79411,16.401215 c -2.392951,0.151471 -4.296871,2.150075 -4.296871,4.575364 0,0.09366 0.00889,0.181964 0.014468,0.274234 h 9.143509 c 0.0056,-0.09227 0.01447,-0.180574 0.01447,-0.274234 0,-2.523879 -2.056354,-4.575364 -4.586223,-4.575364 -0.09882,0 -0.192077,-0.0062 -0.289351,0 z" style="color:#000;display:inline;overflow:visible;visibility:visible;opacity:1;fill:url(#radialGradient4915);fill-opacity:1;fill-rule:evenodd;stroke:none;stroke-width:1;stroke-linecap:round;stroke-linejoin:round;stroke-miterlimit:4;stroke-dasharray:none;stroke-dashoffset:0;stroke-opacity:1;marker:none;marker-start:none;marker-mid:none;marker-end:none"/><rect id="rect1324" width="15.741" height=".924" x="7.589" y="21.227" rx="0" ry="0" style="opacity:1;fill:url(#linearGradient4622);fill-opacity:1;stroke:none;stroke-width:1;stroke-linecap:round;stroke-linejoin:round;stroke-miterlimit:4;stroke-dasharray:none;stroke-dashoffset:0;stroke-opacity:1"/><rect id="rect2077" width="20" height="17" x="5.5" y="8.5" rx="1.426" ry="1.423" style="opacity:1;fill:none;fill-opacity:1;stroke:#fff;stroke-width:.99999893;stroke-linecap:round;stroke-linejoin:round;stroke-miterlimit:4;stroke-dasharray:none;stroke-dashoffset:0;stroke-opacity:1"/><path id="path2079" d="m 18.031043,21.675958 c 0,0 -0.257213,-1.424098 -0.257213,-2.296525 0.0071,-0.39799 3.604954,-3.498458 3.614237,-3.960285 l -0.836462,0.727219 -0.585726,-1.589717 1.974613,0.204118 0.925925,-0.923733 -1.048689,0.768044 -0.360661,-0.08165 -0.4425,-1.610129 0.22506,1.569306 -1.63441,-0.08165 0.511509,1.29875 -1.416971,-1.400809 1.498813,1.949752 c 3.7e-5,0.43486 -2.954107,3.089518 -2.949079,2.631777 L 16.024282,17.241 l -0.102301,-2.216308 0.925925,-0.263924 0.811179,-1.99555 -1.069313,1.844378 -0.834796,-0.03774 -1.868696,-1.574507 -2.565841,-0.979767 2.192051,1.201894 -1.757172,0.155689 h 2.314813 l 1.388887,1.385599 0.163681,2.393383 -2.478493,-2.393383 1.042268,1.250322 -1.505231,1.05901 1.653439,-0.923733 2.615524,3.286696 -0.1023,2.242895 h 1.183137 z" style="fill:#000;fill-opacity:1;fill-rule:evenodd;stroke:none;stroke-width:1px;stroke-linecap:butt;stroke-linejoin:miter;stroke-opacity:1"/><path style="color:#000;display:inline;overflow:visible;visibility:visible;opacity:1;fill:#fef39e;fill-opacity:1;fill-rule:evenodd;stroke:none;stroke-width:1;stroke-linecap:round;stroke-linejoin:round;stroke-miterlimit:4;stroke-dasharray:none;stroke-dashoffset:0;stroke-opacity:1;marker:none;marker-start:none;marker-mid:none;marker-end:none" id="path4924" d="m 11.925565,18.563623 c -1.305803,0.08266 -2.344749,1.17327 -2.344749,2.49672 0,0.05111 0.00485,0.0993 0.00789,0.149646 h 4.989498 c 0.003,-0.05035 0.0079,-0.09854 0.0079,-0.149646 0,-1.377249 -1.122129,-2.49672 -2.502647,-2.49672 -0.05393,0 -0.104814,-0.0034 -0.157896,0 z"/><path id="path4926" d="m 11.963041,19.163267 c -0.995873,0.06304 -1.788226,0.894796 -1.788226,1.904128 0,0.03898 0.0037,0.07573 0.006,0.114127 h 3.805249 c 0.0023,-0.0384 0.006,-0.07515 0.006,-0.114127 0,-1.050362 -0.855793,-1.904128 -1.908647,-1.904128 -0.04113,0 -0.07994,-0.0026 -0.12042,0 z" style="color:#000;display:inline;overflow:visible;visibility:visible;opacity:1;fill:#fffbd7;fill-opacity:.55681817;fill-rule:evenodd;stroke:none;stroke-width:1;stroke-linecap:round;stroke-linejoin:round;stroke-miterlimit:4;stroke-dasharray:none;stroke-dashoffset:0;stroke-opacity:1;marker:none;marker-start:none;marker-mid:none;marker-end:none"/></g></g><path style="color:#000;font-style:normal;font-variant:normal;font-weight:400;font-stretch:normal;font-size:medium;line-height:normal;font-family:Sans;-inkscape-font-specification:Sans;text-indent:0;text-align:start;text-decoration:none;text-decoration-line:none;letter-spacing:normal;word-spacing:normal;text-transform:none;writing-mode:lr-tb;direction:ltr;baseline-shift:baseline;text-anchor:start;display:inline;overflow:visible;visibility:visible;fill:#ff4b00;fill-opacity:1;stroke:url(#linearGradient3955);stroke-width:.15797026;stroke-miterlimit:4;stroke-dasharray:none;stroke-opacity:1;marker:none;enable-background:accumulate" id="path8334" d="m 14.114953,2.0791557 a 0.31333967,0.31862665 0 0 1 0.06915,0.00733 0.31333967,0.31862665 0 0 1 0.156653,0.5476006 l -1.026815,1.0441296 h 2.606211 v 0.6371896 h -2.608659 l 1.029266,1.0466475 a 0.31846728,0.32384078 0 1 1 -0.45038,0.45798 l -1.566541,-1.5929739 -0.2154,-0.2290059 0.2154,-0.2289741 1.566541,-1.5929739 a 0.31333967,0.31862665 0 0 1 0.224578,-0.097076 z"/></g></svg>