<svg xmlns="http://www.w3.org/2000/svg" xmlns:osb="http://www.openswatchbook.org/uri/2009/osb" xmlns:svg="http://www.w3.org/2000/svg" xmlns:xlink="http://www.w3.org/1999/xlink" id="svg2" width="16" height="16" version="1.1" viewBox="0 0 16 16"><metadata id="metadata90"/><defs id="defs7386"><linearGradient id="linearGradient10234"><stop id="stop10230" offset="0" style="stop-color:#ef2929;stop-opacity:1"/><stop id="stop10232" offset="1" style="stop-color:#ef2929;stop-opacity:0"/></linearGradient><linearGradient id="linearGradient8340"><stop id="stop8342" stop-color="#fff" stop-opacity=".796"/><stop id="stop8344" offset="1" stop-color="#fff" stop-opacity=".216"/></linearGradient><linearGradient id="linearGradient6500"><stop id="stop6502" stop-color="#857c63"/><stop id="stop6504" offset="1" stop-color="#221f19"/></linearGradient><linearGradient id="linearGradient6468"><stop id="stop6470" stop-color="#fff"/><stop id="stop6472" offset="1" stop-color="#b9b9b0"/></linearGradient><linearGradient id="linearGradient8542"><stop id="stop8544" stop-color="#5b676b"/><stop id="stop8546" offset="1" stop-color="#141718"/></linearGradient><linearGradient id="linearGradient19282" gradientTransform="matrix(0,-735328.32,170712.69,0,2464326300,577972450)" osb:paint="solid"><stop id="stop19284" stop-color="#b4b4b4"/></linearGradient><linearGradient id="linearGradient6057" x1="231.55" x2="320.7" gradientTransform="matrix(0.01502614,0,0,0.01468232,2.9686133,1037.3257)" gradientUnits="userSpaceOnUse" osb:paint="gradient"><stop id="stop6053" stop-color="#a11f7c"/><stop id="stop6055" offset="1" stop-color="#541f31" stop-opacity=".984"/></linearGradient><radialGradient id="radialGradient8656-7" cx="18.558" cy="22.3" r="19.229" gradientTransform="matrix(0.61738346,0.00180157,-0.00131776,0.45158584,-5.868912,1033.0796)" gradientUnits="userSpaceOnUse" xlink:href="#linearGradient6500"/><radialGradient id="radialGradient8663-94" cx="6.024" cy="25.271" r="4.831" gradientTransform="matrix(0.31906576,0.03245368,-0.037879,0.37240249,-607.93398,839.24516)" gradientUnits="userSpaceOnUse" xlink:href="#linearGradient8542"/><radialGradient id="radialGradient8665-4" cx="69.473" cy="19.598" r="3.515" gradientTransform="matrix(0.78341761,0,0,0.77248826,-43.857771,1026.4587)" gradientUnits="userSpaceOnUse" xlink:href="#linearGradient6468"/><linearGradient id="linearGradient8241-7" x1="238.072" x2="241.943" y1="455.616" y2="456.646" gradientTransform="matrix(0.28037346,0,0,0.28213736,-669.22303,714.69705)" gradientUnits="userSpaceOnUse" xlink:href="#linearGradient8340"/><radialGradient id="radialGradient4159" cx="9.729" cy="1048.093" r="1.667" fx="9.729" fy="1048.093" gradientTransform="matrix(1.3721366,-0.38472605,0.92782403,3.3091108,-976.23495,-2416.4771)" gradientUnits="userSpaceOnUse" xlink:href="#linearGradient10234"/><filter id="filter4200" width="2.027" height="2.027" x="-.514" y="-.514" style="color-interpolation-filters:sRGB"><feGaussianBlur id="feGaussianBlur4202" stdDeviation=".192"/></filter><linearGradient id="linearGradient9812" x1="14.969" x2="39.525" y1="19.111" y2="46.986" gradientUnits="userSpaceOnUse" xlink:href="#linearGradient8340"/><linearGradient id="linearGradient5487" osb:paint="solid"><stop id="stop5485" offset="0" style="stop-color:#888a85;stop-opacity:1"/></linearGradient></defs><g style="display:inline" id="stock" transform="translate(-10.879368,-169.19512)"><g id="gimp-wilber-eek" transform="translate(10.879368,-867.16707)"><rect style="color:#000;clip-rule:nonzero;display:inline;overflow:visible;visibility:visible;opacity:0;isolation:auto;mix-blend-mode:normal;color-interpolation:sRGB;color-interpolation-filters:linearRGB;solid-color:#000;solid-opacity:1;fill:none;fill-opacity:1;fill-rule:nonzero;stroke:#000;stroke-width:.41550624;stroke-linecap:round;stroke-linejoin:miter;stroke-miterlimit:4;stroke-dasharray:none;stroke-dashoffset:0;stroke-opacity:1;color-rendering:auto;image-rendering:auto;shape-rendering:auto;text-rendering:auto;enable-background:accumulate" id="rect4002-28" width="15.584" height="15.584" x=".208" y="1036.57"/><path style="color:#000;fill:url(#radialGradient8656-7);fill-rule:evenodd;stroke:#2e3436;stroke-width:.34256876;stroke-miterlimit:10" id="path8887-7" stroke-miterlimit="10" d="m 3.415463,1039.7529 c 0,0 0.9950614,2.0673 3.337208,2.0159 4.908263,-0.1088 5.696862,-2.646 6.229308,-3.2772 1.719687,14.8592 -11.1064629,8.5336 -11.5506027,6.0577 2.5263128,-0.7315 1.9147967,-2.1492 1.9147967,-2.1492 z"/><path style="color:#000;fill-opacity:1;fill-rule:evenodd;stroke-width:.34455287;stroke-miterlimit:10" id="path8889-1" stroke-miterlimit="10" d="m 10.20941,1045.4866 c 0.21098,0.2994 0.30366,0.9652 -0.06486,1.0893 -0.3562086,0.12 -1.3563651,0.2226 -1.3563651,0.2226 -4.513565,-0.438 -2.9869597,-1.5622 -0.2868607,-1.7221 0.6934239,0 1.489142,0.3427 1.7080858,0.4102 z"/><path style="color:#000;opacity:.18539303;fill:none;fill-rule:evenodd;stroke:url(#linearGradient9812);stroke-width:.98364502;stroke-miterlimit:10" id="path8891-2" stroke-miterlimit="10" d="m 55.982422,11.464844 c -0.559728,0.934477 -1.401421,2.056988 -2.69336,3.130859 -2.627217,2.183768 -7.038435,4.183821 -14.269531,4.365235 -4.227328,0.105122 -6.951762,-1.956149 -8.625,-3.775391 l -0.103515,4.484375 c 0.134837,0.418235 0.393122,1.394849 -0.08789,2.722656 -0.516707,1.426339 -2.162779,2.866699 -4.970703,3.97461 0.249023,0.522741 0.481717,1.072908 1.240234,1.814453 1.028124,1.005117 2.478226,2.08191 4.177735,3.05664 3.399016,1.949462 7.804707,3.488614 11.910156,3.558594 4.105448,0.06998 7.837138,-1.225365 10.417969,-4.990234 2.383441,-3.476921 3.695078,-9.381018 3.003906,-18.341797 z" transform="matrix(0.34826313,0.00101626,-0.00101626,0.34826313,-6.8494857,1035.2512)" xlink:href="##path4323"/><ellipse style="color:#000;fill:url(#radialGradient8663-94);fill-rule:evenodd;stroke:#000;stroke-width:.34256876;stroke-miterlimit:10" id="path8893-72" cx="-606.943" cy="849.783" stroke-miterlimit="10" rx="1.508" ry="2.124" transform="matrix(0.8126875,-0.58269977,0.58269977,0.8126875,0,0)"/><ellipse style="color:#000;fill:#fff;fill-rule:evenodd;stroke-width:.3482646;stroke-miterlimit:10" id="path8897-3" cx="4.252" cy="1043.494" stroke-miterlimit="10" rx=".616" ry=".739" transform="matrix(0.99999574,0.00291807,-0.00291807,0.99999574,0,0)"/><circle style="color:#000;fill:#eeeeec;fill-rule:evenodd;stroke:#888a85;stroke-width:.34256876;stroke-miterlimit:10" id="path8899-5" cx="7.1" cy="1042.291" r="1.108" stroke-miterlimit="10" transform="matrix(0.99999574,0.00291807,-0.00291807,0.99999574,0,0)"/><ellipse style="color:#000;fill:url(#radialGradient8665-4);fill-rule:evenodd;stroke:#888a85;stroke-width:.38691297;stroke-miterlimit:10" id="path8901-00" cx="10.569" cy="1042.91" stroke-miterlimit="10" rx="1.891" ry="1.864" transform="matrix(0.99999586,0.00287735,-0.00295936,0.99999562,0,0)"/><ellipse style="color:#000;fill:#2e3436;fill-rule:evenodd;stroke:#000;stroke-width:.39334634;stroke-miterlimit:10" id="path8903-8" cx="10.618" cy="1042.26" stroke-miterlimit="10" rx=".91" ry=".898" transform="matrix(0.99999586,0.00287735,-0.00295936,0.99999562,0,0)"/><ellipse style="color:#000;fill:#fff;fill-rule:evenodd;stroke-width:.35401174;stroke-miterlimit:10" id="path8905-8" cx="10.597" cy="1041.756" stroke-miterlimit="10" rx=".63" ry=".621" transform="matrix(0.99999586,0.00287735,-0.00295936,0.99999562,0,0)"/><circle style="color:#000;fill:#2e3436;fill-rule:evenodd;stroke:#000;stroke-width:.34826484;stroke-miterlimit:10" id="path8907-1" cx="7.458" cy="1042.445" r=".493" stroke-miterlimit="10" transform="matrix(0.99999574,0.00291807,-0.00291807,0.99999574,0,0)"/><circle style="color:#000;fill:#fff;fill-rule:evenodd;stroke-width:.19288497;stroke-miterlimit:10" id="path8909-1" cx="7.639" cy="1042.665" r=".341" stroke-miterlimit="10" transform="matrix(0.99999574,0.00291807,-0.00291807,0.99999574,0,0)"/><ellipse style="color:#000;opacity:.25;fill:none;fill-rule:evenodd;stroke:url(#linearGradient8241-7);stroke-width:.28125402;stroke-miterlimit:10" id="path8893-8-9" cx="-599.148" cy="844.065" stroke-miterlimit="10" rx="1.234" ry="1.749" transform="matrix(0.80724286,-0.59021942,0.5751774,0.8180287,0,0)"/><path style="opacity:1;fill:#fff;fill-opacity:1;stroke:#a40000;stroke-width:.32410994;stroke-linecap:butt;stroke-linejoin:miter;stroke-miterlimit:4;stroke-dasharray:none;stroke-dashoffset:0;stroke-opacity:1" id="rect3319-9" d="m 8.0870262,1046.2113 1.566596,-0.5844 c 0,0 1.4214158,1.3056 1.4125708,2.3812 -0.0027,0.3345 -0.0288,0.8303 -0.240682,1.1658 -0.201191,0.3186 -0.535044,0.5939 -0.9013492,0.6821 -0.4172117,0.1004 -0.8885512,-0.023 -1.2677179,-0.2244 -0.2188099,-0.116 -0.4434362,-0.2966 -0.5178127,-0.5328 -0.1346825,-0.4277 0.2177345,-0.8795 0.2157819,-1.3279 -0.0023,-0.5274 -0.2673869,-1.5596 -0.2673869,-1.5596 z"/><path style="opacity:1;fill:url(#radialGradient4159);fill-opacity:1;stroke:#a40000;stroke-width:.32410994;stroke-linecap:butt;stroke-linejoin:miter;stroke-miterlimit:4;stroke-dasharray:none;stroke-dashoffset:0;stroke-opacity:1" id="rect3319" d="m 8.0870262,1046.2113 1.566596,-0.5844 c 0,0 1.4214158,1.3056 1.4125708,2.3812 -0.0027,0.3345 -0.0288,0.8303 -0.240682,1.1658 -0.201191,0.3186 -0.535044,0.5939 -0.9013492,0.6821 -0.4172117,0.1004 -0.8885512,-0.023 -1.2677179,-0.2244 -0.2188099,-0.116 -0.4434362,-0.2966 -0.5178127,-0.5328 -0.1346825,-0.4277 0.2177345,-0.8795 0.2157819,-1.3279 -0.0023,-0.5274 -0.2673869,-1.5596 -0.2673869,-1.5596 z"/><path style="opacity:1;fill:#a40000;fill-opacity:1;stroke:#a40000;stroke-width:.11300593;stroke-linecap:butt;stroke-linejoin:miter;stroke-miterlimit:4;stroke-dasharray:none;stroke-dashoffset:0;stroke-opacity:1" id="rect4163-0" d="m 9.29355,1046.5393 0.099936,-0.067 c 0,0 0.5232436,0.7024 0.664079,1.3824 0.159282,0.769 -0.02341,0.6113 -0.068379,0.2424 -0.065377,-0.5361 -0.4091674,-1.0716 -0.4091674,-1.0716 z"/><circle style="opacity:1;fill:#c00;fill-opacity:1;stroke:none;stroke-width:.30000001;stroke-linecap:butt;stroke-linejoin:miter;stroke-miterlimit:4;stroke-dasharray:none;stroke-dashoffset:0;stroke-opacity:1;filter:url(#filter4200)" id="path4166" cx="9.569" cy="1048.647" r=".448" transform="matrix(1.3948446,0,0,1.8737411,-3.7651915,-917.15571)"/></g></g></svg>