<svg xmlns="http://www.w3.org/2000/svg" xmlns:svg="http://www.w3.org/2000/svg" xmlns:xlink="http://www.w3.org/1999/xlink" id="svg11300" width="24" height="24" version="1.0" viewBox="0 0 24 24"><defs id="defs3"><linearGradient id="linearGradient3473"><stop id="stop3475" offset="0" style="stop-color:#888a85;stop-opacity:1"/><stop id="stop3481" offset=".5" style="stop-color:#eeeeec;stop-opacity:1"/><stop id="stop3477" offset="1" style="stop-color:#cecec8;stop-opacity:1"/></linearGradient><linearGradient id="linearGradient4355-2-8-6-98" x1="-16.12" x2="-.81" y1=".469" y2="12.573" gradientTransform="matrix(0.70828848,0,0,0.55938517,11.473979,-0.10075031)" gradientUnits="userSpaceOnUse" xlink:href="#linearGradient3473"/><linearGradient id="linearGradient4397-05" x1="7.461" x2="9.334" y1="8.23" y2="8.23" gradientTransform="matrix(1.6044074,0,0,1.5859698,-1.4734335,-1.0529675)" gradientUnits="userSpaceOnUse" xlink:href="#linearGradient3473"/><linearGradient id="linearGradient12668" x1="-16.12" x2="-.81" y1=".469" y2="12.573" gradientTransform="matrix(0.70828848,0,0,0.55938517,11.473979,-0.10075031)" gradientUnits="userSpaceOnUse" xlink:href="#linearGradient3473"/></defs><metadata id="metadata4"/><g id="layer1" transform="translate(0,8)"><g style="display:inline" id="gimp-vchain-broken-24"><rect id="rect4273-2" width="24" height="23.896" x="0" y="-7.998" style="opacity:0;fill:#000;fill-opacity:1;stroke:none;stroke-width:.61922789;stroke-miterlimit:4;stroke-dasharray:none;stroke-opacity:1"/><g id="g4326-1-5-9" transform="matrix(1.1016893,0,0,0.81351157,16.633402,-8.1441799)"><path style="opacity:1;fill:url(#linearGradient12668);fill-opacity:1;stroke:#555753;stroke-width:.47580397;stroke-miterlimit:4;stroke-dasharray:none;stroke-opacity:1" id="rect4317-8-2-58" d="m 8.3476562,0.23632812 c 0,0 -1.577383,0.0639087 -2.0585937,0.48242188 -0.8964841,0.7796801 -0.7636719,3.1015625 -0.7636719,3.1015625 0,0 -0.1159983,2.0753155 0.7636719,2.831555 0.4952643,0.4257715 2.109375,0.4824219 2.109375,0.4824219 0,-1e-7 1.7641675,-0.02518 2.3125005,-0.4824219 0.835865,-0.6970091 0.738281,-2.6303831 0.738281,-2.6303831 0,0 0.222677,-2.4821204 -0.738281,-3.3027344 C 10.158382,0.24689318 8.3476562,0.23632812 8.3476562,0.23632812 Z M 7.2092898,2.0429688 H 9.7809349 V 5.34718 H 7.2092898 Z" transform="matrix(1.4118541,0,0,1.787677,-16.199584,0.18010901)"/></g><g id="g4326-1-5-5-7" transform="matrix(1.1016893,0,0,0.81351157,16.633402,4.8558312)"><path style="opacity:1;fill:url(#linearGradient4355-2-8-6-98);fill-opacity:1;stroke:#555753;stroke-width:.47580397;stroke-miterlimit:4;stroke-dasharray:none;stroke-opacity:1" id="rect4317-8-2-2-9" d="m 8.3476562,0.42625754 c 0,0 -1.577383,0.0639087 -2.0585937,0.48242188 C 5.3925784,1.6883595 5.5253906,3.8203125 5.5253906,3.8203125 c 0,0 -0.1159983,2.2652449 0.7636719,3.0214844 0.4952643,0.4257715 2.109375,0.4824219 2.109375,0.4824219 0,-10e-8 1.7641675,-0.02518 2.3125005,-0.4824219 0.835865,-0.6970091 0.738281,-2.8203125 0.738281,-2.8203125 0,0 0.222677,-2.292191 -0.738281,-3.11280498 C 10.158382,0.4368226 8.3476562,0.42625754 8.3476562,0.42625754 Z M 7.2092898,2.2328982 H 9.7809349 V 5.5371094 H 7.2092898 Z" transform="matrix(1.4118541,0,0,1.787677,-16.199584,0.18010901)"/></g><path style="opacity:1;fill:url(#linearGradient4397-05);fill-opacity:1;stroke:#555753;stroke-width:1;stroke-linejoin:round;stroke-miterlimit:4;stroke-dasharray:none;stroke-opacity:1" id="rect4357-8" d="m 10.500001,7.2550364 -0.0078,2.9843746 3.005915,0.0073 0.01318,-3.0196456 z m -0.0078,6.5211776 0.01563,3 2.999999,0.0078 v -2.992188 z" transform="translate(0,-8)"/></g></g></svg>