<svg xmlns="http://www.w3.org/2000/svg" xmlns:svg="http://www.w3.org/2000/svg" xmlns:xlink="http://www.w3.org/1999/xlink" id="svg11300" width="16" height="16" version="1.0" viewBox="0 0 16 16"><defs id="defs3"><linearGradient id="linearGradient4134"><stop id="stop4136" offset="0" style="stop-color:#d6d7d5;stop-opacity:1"/><stop style="stop-color:#d1d2d0;stop-opacity:1" id="stop4148" offset=".25"/><stop style="stop-color:#a5a6a3;stop-opacity:1" id="stop4142" offset=".5"/><stop id="stop4138" offset="1" style="stop-color:#dddedc;stop-opacity:1"/></linearGradient><linearGradient id="linearGradient3247"><stop style="stop-color:white;stop-opacity:1" id="stop3249" offset="0"/><stop style="stop-color:white;stop-opacity:0" id="stop3251" offset="1"/></linearGradient><linearGradient id="linearGradient3233"><stop style="stop-color:#eeeeec;stop-opacity:1" id="stop3235" offset="0"/><stop style="stop-color:#a3a398;stop-opacity:1" id="stop3237" offset="1"/></linearGradient><linearGradient id="linearGradient8089"><stop style="stop-color:black;stop-opacity:.2783505" id="stop8091" offset="0"/><stop style="stop-color:#a8a8a8;stop-opacity:0" id="stop8093" offset="1"/></linearGradient><linearGradient id="linearGradient3596" x1="9.303" x2="38.826" y1="26.719" y2="26.719" gradientTransform="matrix(0.622944,0,0,0.618533,6.55283,-0.00879974)" gradientUnits="userSpaceOnUse" xlink:href="#linearGradient4134"/><linearGradient id="linearGradient3594" x1="24" x2="23.434" y1="17.246" y2="8.048" gradientUnits="userSpaceOnUse" xlink:href="#linearGradient3233"/><linearGradient id="linearGradient3592" x1="17.16" x2="37.969" y1="14.004" y2="56.576" gradientTransform="matrix(0.593728,0,0,0.590305,7.25337,0.782569)" gradientUnits="userSpaceOnUse" xlink:href="#linearGradient3247"/><linearGradient id="linearGradient3590-6" x1="34.244" x2="34.244" y1="17.695" y2="29.918" gradientTransform="matrix(0.622768,0,0,0.616853,6.55454,1.31626)" gradientUnits="userSpaceOnUse" xlink:href="#linearGradient3247"/><radialGradient id="radialGradient8095" cx="24.226" cy="30.48" r="13.354" fx="24.226" fy="30.48" gradientTransform="matrix(1.840918,0,0,0.821277,-20.45053,-6.182276)" gradientUnits="userSpaceOnUse" xlink:href="#linearGradient8089"/><linearGradient id="linearGradient3588" x1="23.434" x2="23.434" y1="15.759" y2="8.048" gradientUnits="userSpaceOnUse" xlink:href="#linearGradient3233"/><linearGradient id="linearGradient3584" x1="16.071" x2="16.036" y1="19.5" y2="31.75" gradientTransform="matrix(0.622768,0,0,0.616853,6.55454,1.845)" gradientUnits="userSpaceOnUse" xlink:href="#linearGradient3247"/></defs><metadata id="metadata4"/><g id="g4314"><g id="g4006" transform="matrix(0.63450179,0,0,0.69458935,-5.6696044,-3.4733981)"><path id="path3068" d="m 21.464547,5.500002 c -4.895979,0 -8.876945,1.7334382 -8.876946,3.8658299 0,0.1530151 0,14.1442051 0,14.3035631 0,2.132392 3.980966,3.865829 8.876946,3.865829 4.895981,0 9.035466,-1.733438 9.035464,-3.865829 0,-0.126218 0,-14.177345 0,-14.3035631 0,-2.1323917 -4.139483,-3.8658299 -9.035464,-3.8658299 z" style="color:#000;display:block;overflow:visible;visibility:visible;opacity:1;fill:url(#linearGradient3596);fill-opacity:1;fill-rule:nonzero;stroke:#767973;stroke-width:1.00000036;stroke-linecap:butt;stroke-linejoin:miter;stroke-miterlimit:10;stroke-dasharray:none;stroke-dashoffset:0;stroke-opacity:1;marker:none;marker-start:none;marker-mid:none;marker-end:none"/><ellipse style="color:#000;display:block;overflow:visible;visibility:visible;opacity:.23626374;fill:#d3d7cf;fill-opacity:1;fill-rule:nonzero;stroke:url(#linearGradient3594);stroke-width:1.79112864;stroke-linecap:butt;stroke-linejoin:miter;stroke-miterlimit:10;stroke-dasharray:none;stroke-dashoffset:0;stroke-opacity:1;marker:none;marker-start:none;marker-mid:none;marker-end:none" id="path3241" cx="24" cy="14.071" rx="12.857" ry="5.5" transform="matrix(0.61236,0,0,0.509025,6.93016,16.53765)"/><path style="color:#000;display:block;overflow:visible;visibility:visible;opacity:.5443038;fill:none;fill-opacity:1;fill-rule:nonzero;stroke:url(#linearGradient3592);stroke-width:1;stroke-linecap:butt;stroke-linejoin:miter;stroke-miterlimit:10;stroke-dasharray:none;stroke-dashoffset:0;stroke-opacity:1;marker:none;marker-start:none;marker-mid:none;marker-end:none" id="path4174" d="m 21.470844,6.4999985 c -4.350694,0 -7.888282,1.5424173 -7.888283,3.4398227 0,0.1361548 0,12.9194288 0,13.0612248 0,1.897408 3.537589,3.439823 7.888283,3.439823 4.350692,0 8.029144,-1.542415 8.029142,-3.439823 0,-0.112308 0,-12.948914 0,-13.0612248 0,-1.8974064 -3.67845,-3.4398227 -8.029142,-3.4398227 z"/><path style="color:#000;display:block;overflow:visible;visibility:visible;opacity:1;fill:url(#linearGradient3590-6);fill-opacity:1;fill-rule:nonzero;stroke:none;stroke-width:.99999946;stroke-linecap:butt;stroke-linejoin:miter;stroke-miterlimit:10;stroke-dasharray:none;stroke-dashoffset:0;stroke-opacity:1;marker:none;marker-start:none;marker-mid:none;marker-end:none" id="path3245" d="M 28.887273,8.524194 C 28.196552,7.916527 27.612506,7.731515 27,7.433743 l 0.188727,11.527631 1.698546,1.993968 z"/><ellipse id="path3364" cx="24" cy="14.071" rx="12.857" ry="5.5" transform="matrix(0.622222,0,0,0.545455,6.56666,1.824673)" style="color:#000;display:block;overflow:visible;visibility:visible;opacity:.77319587;fill:url(#radialGradient8095);fill-opacity:1;fill-rule:nonzero;stroke:url(#linearGradient3588);stroke-width:1.71651447;stroke-linecap:butt;stroke-linejoin:miter;stroke-miterlimit:10;stroke-dasharray:none;stroke-dashoffset:0;stroke-opacity:1;marker:none;marker-start:none;marker-mid:none;marker-end:none"/><path id="path6922" d="m 15.139846,12.375547 0.222416,10.354311 2.846942,0.793096 -0.08897,-10.310249 c 0,0 1.207451,-0.05452 3.298174,-0.186706 -4.04636,-0.03083 -6.689424,-0.973498 -8.146872,-2.368826 0.882401,1.290564 1.868306,1.718374 1.868306,1.718374 z" style="color:#000;display:block;overflow:visible;visibility:visible;opacity:1;fill:url(#linearGradient3584);fill-opacity:1;fill-rule:nonzero;stroke:none;stroke-width:1;stroke-linecap:butt;stroke-linejoin:miter;stroke-miterlimit:4;stroke-dasharray:none;stroke-dashoffset:0;stroke-opacity:1;marker:none;marker-start:none;marker-mid:none;marker-end:none"/></g><rect id="rect4060" width="15.319" height="15.288" x=".34" y=".356" style="color:#000;clip-rule:nonzero;display:inline;overflow:visible;visibility:visible;opacity:0;isolation:auto;mix-blend-mode:normal;color-interpolation:sRGB;color-interpolation-filters:linearRGB;solid-color:#000;solid-opacity:1;fill:none;fill-opacity:1;fill-rule:nonzero;stroke:#bebebe;stroke-width:.68069369;stroke-linecap:round;stroke-linejoin:miter;stroke-miterlimit:4;stroke-dasharray:none;stroke-dashoffset:0;stroke-opacity:1;color-rendering:auto;image-rendering:auto;shape-rendering:auto;text-rendering:auto;enable-background:accumulate"/></g></svg>