<svg xmlns="http://www.w3.org/2000/svg" xmlns:osb="http://www.openswatchbook.org/uri/2009/osb" xmlns:svg="http://www.w3.org/2000/svg" xmlns:xlink="http://www.w3.org/1999/xlink" id="svg8" width="16" height="16" version="1.1" viewBox="0 0 4.233 4.233"><defs id="defs2"><marker id="Arrow1Mstart" orient="auto" refX="0" refY="0" style="overflow:visible"><path id="path2579" d="M 0.0,0.0 L 5.0,-5.0 L -12.5,0.0 L 5.0,5.0 L 0.0,0.0 z" transform="scale(0.4) translate(10,0)" style="fill-rule:evenodd;stroke:#bebebe;stroke-width:1pt;stroke-opacity:1;fill:#bebebe;fill-opacity:1"/></marker><linearGradient id="linearGradient7060-0" x1="295.703" x2="311.703" y1="305.369" y2="305.369" gradientTransform="matrix(0.23151041,0,0,0.23151043,1.0890012,293.03123)" gradientUnits="userSpaceOnUse" xlink:href="#linearGradient19282-4"/><linearGradient id="linearGradient19282-4" gradientTransform="matrix(0.34682586,0,0,0.30620888,-53.35239,564.0385)" osb:paint="solid"><stop id="stop19284-0" offset="0" style="stop-color:#bebebe;stop-opacity:1"/></linearGradient></defs><metadata id="metadata5"/><g id="layer1" transform="translate(0,-292.76666)"><path style="display:inline;fill:#729fcf;fill-opacity:1;stroke:#204a87;stroke-width:.13229167;stroke-opacity:1;stroke-miterlimit:4;stroke-dasharray:none" id="path74740" d="m 2.1216418,293.03125 -0.6995064,0.69815 h 0.4702579 v 0.93101 c -0.3110135,-0.003 -0.622175,-0.004 -0.93327863,-0.007 v -0.46166 l -0.69453134,0.68887 0.69453134,0.6986 v -0.46438 c 0.31109443,-1e-5 0.62218183,-7e-4 0.93327863,0 v 0.46302 0.46393 H 1.4221354 l 0.6995064,0.69362 0.6895561,-0.69362 H 2.3481772 v -0.46393 -0.46302 c 0.3086821,2.1e-4 0.6173641,9.2e-4 0.9260416,0 v 0.46438 l 0.6945312,-0.6986 -0.6945312,-0.68866 v 0.46213 c -0.3086545,0.006 -0.617246,0.008 -0.9260416,0.008 v -0.93282 h 0.4630207 z"/></g></svg>