<svg xmlns="http://www.w3.org/2000/svg" xmlns:osb="http://www.openswatchbook.org/uri/2009/osb" xmlns:svg="http://www.w3.org/2000/svg" xmlns:xlink="http://www.w3.org/1999/xlink" id="svg2" width="16" height="16" version="1.1" viewBox="0 0 16 16"><metadata id="metadata90"/><defs id="defs7386"><linearGradient id="linearGradient8340"><stop id="stop8342" stop-color="#fff" stop-opacity=".796"/><stop id="stop8344" offset="1" stop-color="#fff" stop-opacity=".216"/></linearGradient><linearGradient id="linearGradient3204-1"><stop id="stop3206"/><stop id="stop3208" offset="1" stop-opacity="0"/></linearGradient><linearGradient id="linearGradient5260"><stop id="stop5264" stop-color="#fff"/><stop id="stop5262" offset="1" stop-color="#c9c9c3"/></linearGradient><linearGradient id="linearGradient5238"><stop id="stop5240" stop-color="#888a85"/><stop id="stop5242" offset="1" stop-color="#70726d"/></linearGradient><linearGradient id="linearGradient5274"><stop id="stop5276" stop-color="#555753"/><stop id="stop5278" offset="1" stop-color="#cacbc9"/></linearGradient><linearGradient id="linearGradient6500"><stop id="stop6502" stop-color="#857c63"/><stop id="stop6504" offset="1" stop-color="#221f19"/></linearGradient><linearGradient id="linearGradient6468"><stop id="stop6470" stop-color="#fff"/><stop id="stop6472" offset="1" stop-color="#b9b9b0"/></linearGradient><linearGradient id="linearGradient8542"><stop id="stop8544" stop-color="#5b676b"/><stop id="stop8546" offset="1" stop-color="#141718"/></linearGradient><linearGradient id="linearGradient19282" gradientTransform="matrix(0,-735328.32,170712.69,0,2464326300,577972450)" osb:paint="solid"><stop id="stop19284" stop-color="#b4b4b4"/></linearGradient><radialGradient id="radialGradient4778-5" cx="23" cy="33.938" r="18.25" gradientTransform="matrix(1,0,0,0.434932,-1.6364745,1.8623189)" gradientUnits="userSpaceOnUse" xlink:href="#linearGradient3204-1"/><filter id="filter5493" width="1.342" height="1.787" x="-.171" y="-.394"><feGaussianBlur id="feGaussianBlur5495" stdDeviation="2.603"/></filter><radialGradient id="radialGradient5309" cx="18.558" cy="22.3" r="19.229" gradientTransform="matrix(1.77275,0,0,1.29668,2.6784679,-6.9555816)" gradientUnits="userSpaceOnUse" xlink:href="#linearGradient6500"/><linearGradient id="linearGradient5311" x1="14.969" x2="39.525" y1="19.111" y2="46.986" gradientTransform="translate(19.018868,-0.3396226)" gradientUnits="userSpaceOnUse" xlink:href="#linearGradient8340"/><radialGradient id="radialGradient5313" cx="69.473" cy="19.598" r="3.515" gradientTransform="matrix(1.684735,0,0,1.684735,-84.380372,-14.822902)" gradientUnits="userSpaceOnUse" xlink:href="#linearGradient6468"/><radialGradient id="radialGradient5315" cx="6.024" cy="25.271" r="4.831" gradientTransform="matrix(0.797511,-0.4604432,0.5374129,0.9308275,5.1072979,2.247187)" gradientUnits="userSpaceOnUse" xlink:href="#linearGradient8542"/><linearGradient id="linearGradient5317" x1="6.305" x2="5.985" y1="23.362" y2="31.57" gradientTransform="matrix(0.80038899,-0.599481,0.599481,0.80038899,3.744468,6.9882171)" gradientUnits="userSpaceOnUse" xlink:href="#linearGradient8340"/><radialGradient id="radialGradient5319" cx="69.473" cy="19.598" r="3.515" gradientTransform="matrix(1.977732,0,0,1.977732,-96.338942,-20.620679)" gradientUnits="userSpaceOnUse" xlink:href="#linearGradient6468"/><radialGradient id="radialGradient5323" cx="47.928" cy="33.067" r="1.913" gradientTransform="matrix(1.7525219,0,0,1.554122,-36.067051,-18.506723)" gradientUnits="userSpaceOnUse" xlink:href="#linearGradient8340"/><filter id="filter5403"><feGaussianBlur id="feGaussianBlur5405" stdDeviation=".13"/></filter><radialGradient id="radialGradient5341" cx="26.461" cy="29.594" r="5.148" gradientTransform="matrix(2.0574682,0,0,1.8483445,-28.101416,-25.56526)" gradientUnits="userSpaceOnUse" xlink:href="#linearGradient5260"/><radialGradient id="radialGradient5343" cx="12.086" cy="27.437" r="5.148" gradientTransform="matrix(1,0,0,0.8983587,1.4397924,2.7887843)" gradientUnits="userSpaceOnUse" xlink:href="#linearGradient5260"/><linearGradient id="linearGradient5345" x1="17.75" x2="2.625" y1="44.25" y2="54" gradientUnits="userSpaceOnUse" xlink:href="#linearGradient5238"/><linearGradient id="linearGradient5347" x1="30" x2="44.5" y1="35.875" y2="44.25" gradientTransform="matrix(1.0680689,0,0,0.9837398,-1.2252408,0.4695122)" gradientUnits="userSpaceOnUse" xlink:href="#linearGradient5238"/><linearGradient id="linearGradient5349" x2="0" y1="35.875" y2="28.371" gradientTransform="matrix(1.0680689,0,0,0.9837398,-1.2252408,0.4695122)" gradientUnits="userSpaceOnUse" xlink:href="#linearGradient5274"/><filter id="filter5234" width="2.032" height="1.095" x="-.516" y="-.047"><feGaussianBlur id="feGaussianBlur5236" stdDeviation=".538"/></filter><linearGradient id="linearGradient6057" x1="231.55" x2="320.7" gradientTransform="matrix(0.01502614,0,0,0.01468232,2.9686133,1037.3257)" gradientUnits="userSpaceOnUse" osb:paint="gradient"><stop id="stop6053" stop-color="#a11f7c"/><stop id="stop6055" offset="1" stop-color="#541f31" stop-opacity=".984"/></linearGradient><linearGradient id="linearGradient5487" osb:paint="solid"><stop id="stop5485" offset="0" style="stop-color:#888a85;stop-opacity:1"/></linearGradient></defs><g id="g4210"><g id="stock" transform="translate(52.444672,-169.1955)" style="display:inline"><g id="gimp-user-manual" transform="matrix(1.0248239,0,0,1.042046,-53.678586,150.42756)"><path id="path6490" stroke-miterlimit="10" d="m 39.613525,16.622805 c 0,4.383759 -8.170803,7.937498 -18.25,7.937498 -10.079197,0 -18.2499995,-3.553739 -18.2499995,-7.937498 0,-4.383758 8.1708025,-7.9374971 18.2499995,-7.9374971 10.079197,0 18.25,3.5537391 18.25,7.9374971 z" transform="matrix(0.27753047,0,0,0.28357678,4.0884886,20.34019)" style="color:#000;opacity:.51807203;fill:url(#radialGradient4778-5);fill-rule:evenodd;stroke-miterlimit:10;filter:url(#filter5493)"/><g id="g5294" transform="matrix(0.28625832,0,0,0.29249478,-1.4047414,15.791598)"><path id="path4323" stroke-miterlimit="10" d="m 29.393237,12.128261 c 0,0 2.874509,5.927634 9.599242,5.760407 14.092515,-0.353553 16.563709,-7.70495 16.917262,-8.7656102 0.353554,-1.0606602 0.894534,-0.8999979 1.019607,0.080267 C 61.525542,50.922624 25.032417,33.0225 23.736382,25.916844 c 7.247845,-2.12132 5.480078,-6.187185 5.480078,-6.187185 z" style="color:#000;fill:url(#radialGradient5309);fill-rule:evenodd;stroke:#2e3436;stroke-width:1.61822295;stroke-miterlimit:10"/><path id="path8520" stroke-miterlimit="10" d="m 55.987618,11.504127 c -0.561978,0.926895 -1.406492,2.033166 -2.6875,3.09375 -2.631918,2.179042 -7.050563,4.162347 -14.28125,4.34375 -4.224373,0.105049 -6.952741,-1.934149 -8.625,-3.75 l -0.125,4.46875 c 0.136107,0.418802 0.415455,1.390498 -0.0625,2.71875 -0.514314,1.429296 -2.154514,2.891363 -4.96875,4 0.25033,0.522033 0.495484,1.04362 1.25,1.78125 1.02795,1.004945 2.457033,2.088049 4.15625,3.0625 3.398433,1.948902 7.801583,3.493212 11.90625,3.5625 4.104667,0.06929 7.857126,-1.23455 10.4375,-5 2.378744,-3.471218 3.682473,-9.347943 3,-18.28125 z" style="color:#000;opacity:.18539303;fill:none;fill-rule:evenodd;stroke:url(#linearGradient5311);stroke-width:1.61822295;stroke-miterlimit:10"/><path id="path4357" stroke-miterlimit="10" d="m 36.729505,21.055494 c 5.63e-4,2.245913 -1.819952,4.066884 -4.065866,4.066884 -2.245912,0 -4.066427,-1.820971 -4.065864,-4.066884 -5.63e-4,-2.245914 1.819952,-4.066884 4.065866,-4.066884 2.245912,0 4.066427,1.82097 4.065864,4.066884 z" style="color:#000;fill:url(#radialGradient5313);fill-rule:evenodd;stroke:#888a85;stroke-width:1.61822295;stroke-miterlimit:10"/><path id="path5198" stroke-miterlimit="10" d="m 28.63007,22.587402 c 1.970672,2.731615 1.995664,6.080515 0.05582,7.479977 -1.939843,1.399463 -5.109941,0.31954 -7.080612,-2.412075 -1.970672,-2.731615 -1.995664,-6.080514 -0.05582,-7.479977 1.939842,-1.399462 5.10994,-0.319539 7.080611,2.412075 l 0,0 z" style="color:#000;fill:url(#radialGradient5315);fill-rule:evenodd;stroke:#000;stroke-width:1.61822402;stroke-miterlimit:10"/><path id="path4359" stroke-miterlimit="10" d="m 32.718984,22.618613 c 1.05e-4,0.358876 -0.290792,0.649859 -0.649668,0.649859 -0.358876,0 -0.649773,-0.290983 -0.649667,-0.649859 -1.06e-4,-0.358876 0.290791,-0.649859 0.649667,-0.649859 0.358876,0 0.649773,0.290983 0.649668,0.649859 z" style="color:#000;fill:#2e3436;fill-rule:evenodd;stroke:#000;stroke-width:1.61822295;stroke-miterlimit:10"/><path id="path6450" stroke-miterlimit="10" d="m 21.904089,21.068748 c -0.63891,0.478536 -0.975637,1.288183 -0.945298,2.386888 0.03034,1.098705 0.463937,2.443914 1.353894,3.632129 0.889958,1.188214 2.058922,1.982644 3.104746,2.320764 1.045824,0.33812 1.917494,0.242693 2.556403,-0.235842 0.63891,-0.478535 0.976855,-1.326848 0.951577,-2.430633 -0.02528,-1.103785 -0.447141,-2.42149 -1.335161,-3.607117 -0.888019,-1.185627 -2.033888,-1.961061 -3.086011,-2.295752 -1.052123,-0.334692 -1.96124,-0.248972 -2.60015,0.229563 z" style="color:#000;opacity:.28089899;fill:none;fill-rule:evenodd;stroke:url(#linearGradient5317);stroke-width:1.61822402;stroke-miterlimit:10"/><path id="path6446" stroke-miterlimit="10" d="m 24.852499,22.91164 c 2.32e-4,1.17177 -0.791292,2.121825 -1.767767,2.121825 -0.976475,0 -1.767999,-0.950055 -1.767767,-2.121825 -2.32e-4,-1.17177 0.791292,-2.121825 1.767767,-2.121825 0.976475,0 1.767999,0.950055 1.767767,2.121825 z" style="color:#000;fill:#fff;fill-rule:evenodd;stroke-miterlimit:10"/><path id="path4361" stroke-miterlimit="10" d="m 35.216711,19.723047 c 0,0.869317 -0.70472,1.574037 -1.574037,1.574037 -0.869316,0 -1.574036,-0.70472 -1.574036,-1.574037 0,-0.869316 0.70472,-1.574037 1.574036,-1.574037 0.869317,0 1.574037,0.704721 1.574037,1.574037 z" style="color:#000;fill:#fff;fill-rule:evenodd;stroke-miterlimit:10"/><path id="path6462" stroke-miterlimit="10" d="m 45.833494,21.497431 c 6.61e-4,2.636506 -2.136465,4.774167 -4.772972,4.774167 -2.636504,0 -4.773631,-2.137661 -4.77297,-4.774167 -6.61e-4,-2.636507 2.136466,-4.774167 4.772972,-4.774167 2.636505,0 4.773631,2.13766 4.77297,4.774167 z" style="color:#000;fill:url(#radialGradient5319);fill-rule:evenodd;stroke:#888a85;stroke-width:1.61822295;stroke-miterlimit:10"/><path id="path6464" stroke-miterlimit="10" d="m 40.550002,23.218529 c 1.39e-4,0.471521 -0.382087,0.85384 -0.853628,0.85384 -0.471546,0 -0.853769,-0.382319 -0.85363,-0.85384 -1.39e-4,-0.471518 0.382084,-0.853835 0.85363,-0.853835 0.471541,0 0.853767,0.382317 0.853628,0.853835 z" style="color:#000;fill:#2e3436;fill-rule:evenodd;stroke:#000;stroke-width:1.61822295;stroke-miterlimit:10"/><path id="path6466" stroke-miterlimit="10" d="m 44.446223,19.831373 c 0,1.154822 -0.936167,2.090991 -2.09099,2.090991 -1.154823,0 -2.09099,-0.936169 -2.09099,-2.090991 0,-1.154821 0.936167,-2.09099 2.09099,-2.09099 1.154823,0 2.09099,0.936169 2.09099,2.09099 z" style="color:#000;fill:#fff;fill-rule:evenodd;stroke-miterlimit:10"/><circle id="path4782" cx="45.906" cy="31.453" r="1.981" transform="matrix(0.8262849,0,0,0.8135222,9.8390986,3.5450011)" style="color:#000;stroke-linecap:round"/><path id="path5369" d="m 44.8125,32.625 c 2.375441,0.759725 3.963399,-0.782845 3.375,-2.875 1.401962,2.735164 -0.678117,4.253128 -3.375,2.875 z" transform="matrix(1.0778009,0,0,1.2153934,-2.1787386,-8.6274489)" style="color:#000;opacity:.71084302;fill:url(#radialGradient5323);stroke-linecap:round;filter:url(#filter5403)"/></g><g id="g5325" transform="matrix(0.24130037,0,0,0.24655738,1.0560492,17.119844)"><path id="path5270" d="m 14.380017,32.135034 c 0.3125,0 29.022361,-0.902812 29.022361,-0.902812 l -3.447534,-4.222188 c -25.52364,-0.724962 -25.16528,3.108049 -25.574827,5.125 z" style="color:#000;fill:url(#radialGradient5341);stroke-linecap:round"/><path id="path5258" d="m 5.7522924,23.0625 10.2500036,9 c 0.307212,-2.437295 -0.740404,-5.162852 -8.1875036,-9.25 z" style="color:#000;fill:url(#radialGradient5343);stroke-linecap:round"/><path id="path5407" d="M 3.25,22.5 4.5,48.75 14.25,57.5 12.75,30 Z" style="color:#000;fill:url(#linearGradient5345);stroke-linecap:round"/><path id="path5411" d="m 17.999999,31.334348 1.602104,27.79065 25.932824,0.06327 -0.114984,-27.433687 -27.419944,-0.420235 z" style="color:#000;fill:url(#linearGradient5347);stroke:url(#linearGradient5349);stroke-width:1.91972303;stroke-linecap:round"/><path id="path5409" d="m 12.5,30.125 1.796533,27.5 c 0.225006,3.68361 2.382006,3.86371 6.37767,2.339362 L 18.917609,30.490957 C 15.74227,32.283234 14.410793,30.862934 12.5,30.125 Z" style="color:#000;fill:#e35302;stroke-linecap:round"/><path id="path4635" d="m 14,32.375 1.25,25.75 1.25,1.5 -1.25,-26.75 z" style="color:#000;opacity:.63253;fill:#fff;stroke-width:.55468798;filter:url(#filter5234)"/><path id="path5256-7" d="m 3.2703689,22.545865 9.4575531,7.513009 c 0.90865,3.326366 2.995171,2.109512 5.038136,1.060661 l 27.015619,0.07636 -1.963727,-1.881734 -25.020297,-0.01317 c -1.879469,1.424263 -2.322129,2.778679 -3.541551,-0.252376 L 5.8088102,22.369088 Z" style="color:#000;fill:#babdb6;stroke-linecap:round"/></g></g></g><rect id="rect4208" width="16" height="16" x="0" y="0" style="opacity:0;fill:#eeeeec;fill-opacity:1;stroke:none;stroke-width:.97000003;stroke-linejoin:miter;stroke-miterlimit:4;stroke-dasharray:none;stroke-opacity:1"/></g></svg>