<svg xmlns="http://www.w3.org/2000/svg" xmlns:svg="http://www.w3.org/2000/svg" xmlns:xlink="http://www.w3.org/1999/xlink" id="svg30571" width="16" height="16" version="1.1" viewBox="0 0 16 16"><defs id="defs30573"><linearGradient id="linearGradient3950"><stop style="stop-color:#000;stop-opacity:1" id="stop3946" offset="0"/><stop style="stop-color:#000;stop-opacity:0" id="stop3948" offset="1"/></linearGradient><linearGradient id="linearGradient3952" x1="3.299" x2="19.243" y1="1048.099" y2="1048.099" gradientTransform="matrix(1.0073616,0,0,1.0227088,-2.3712764,-22.704243)" gradientUnits="userSpaceOnUse" xlink:href="#linearGradient3950"/></defs><metadata id="metadata30576"/><g id="layer1" transform="translate(0,-1036.3622)"><g id="g4912"><g id="g4025"><g id="g10052" transform="matrix(0.99615992,0,0,1.0000236,0.06131843,-0.02482106)"><g id="g3964"><g id="g4155" transform="translate(-1.0132303,2.1666045)"><rect id="rect5216" width="16.062" height="2" x=".952" y="1048.196" style="fill:url(#linearGradient3952);fill-opacity:1;stroke:none;stroke-width:1.79227746"/><path style="opacity:1;fill:#000;fill-opacity:1;stroke:#ce5c00;stroke-width:.68503547;stroke-linecap:square;stroke-linejoin:round;stroke-miterlimit:4;stroke-dasharray:none;stroke-dashoffset:0;stroke-opacity:1" id="path3998" d="m -9.0839653,1041.3845 -1.6835687,-1.0424 -1.683568,-1.0423 1.744472,-0.9369 1.7444715,-0.9368 -0.060903,1.9792 z" transform="matrix(0.73866688,-0.38084261,0.44854712,0.62036354,-455.72963,400.4501)"/></g></g></g><rect id="rect3966-7" width="16" height="13" x="0" y="1036.362" style="opacity:1;fill:#d3d7cf;fill-opacity:1;stroke:none;stroke-width:.67533737;stroke-linecap:square;stroke-linejoin:round;stroke-miterlimit:4;stroke-dasharray:none;stroke-dashoffset:0;stroke-opacity:1"/><path style="fill:#729fcf;fill-opacity:1;stroke:none;stroke-width:1.38743985" id="path5209" d="m 1,1040.1122 1.4,-1.3749 v 6.8749 l 1.4,-2.7501 1.4,2.7501 v -5.5 h 1.3999997 v 1.375 l 1.3999999,1.3749 v 1.3751 l 1.3999998,1.375 1.3999996,-1.375 v -2.75 l 1.399999,1.3749 v 0 -5.4999 l 1.400003,1.3751 v 2.7499 L 15,1042.8621 v 5.5001 H 1 Z"/><path style="opacity:1;fill:#babdb6;fill-opacity:1;stroke:#ce5c00;stroke-width:.68503547;stroke-linecap:square;stroke-linejoin:round;stroke-miterlimit:4;stroke-dasharray:none;stroke-dashoffset:0;stroke-opacity:1" id="path3998-1" d="m -9.0839653,1041.3845 -1.6835687,-1.0424 -1.683568,-1.0423 1.744472,-0.9369 1.7444715,-0.9368 -0.060903,1.9792 z" transform="matrix(0.73598715,-0.38073026,0.44691988,0.62018054,-449.02498,402.80802)"/><path style="opacity:1;fill:#fff;fill-opacity:1;stroke:#ce5c00;stroke-width:.68503547;stroke-linecap:square;stroke-linejoin:round;stroke-miterlimit:4;stroke-dasharray:none;stroke-dashoffset:0;stroke-opacity:1" id="path3998-6" d="m -9.0839653,1041.3845 -1.6835687,-1.0424 -1.683568,-1.0423 1.744472,-0.9369 1.7444715,-0.9368 -0.060903,1.9792 z" transform="matrix(0.73598715,-0.38073026,0.44691988,0.62018054,-443.02498,402.80802)"/></g></g></g></svg>