<svg xmlns="http://www.w3.org/2000/svg" xmlns:svg="http://www.w3.org/2000/svg" id="svg2" width="16" height="16" version="1.1" viewBox="0 0 16 16"><metadata id="metadata90"/><g id="g4260"><rect id="rect4242" width="16" height="16" x="0" y="0" style="opacity:1;fill:none;fill-opacity:1;stroke:none;stroke-width:.80000001;stroke-linecap:square;stroke-linejoin:round;stroke-miterlimit:4;stroke-dasharray:none;stroke-opacity:1;paint-order:stroke fill markers"/><g id="g4296" transform="matrix(0.99995479,0,0,1.000002,1.2518391e-5,-1.5658474e-5)"><g style="display:inline" id="template" transform="matrix(1.0000297,0,0,0.99913445,-349.27423,64.972788)"><g style="enable-background:new" id="g4246" transform="matrix(0.18716422,0,0,0.17557411,341.45688,-65.660281)"><path style="color:#000;fill:#eeeeec;fill-opacity:1;stroke:#396db1;stroke-width:5.67699289" id="path9501-4-0" d="m 53.654979,17.835941 c -5.046255,0 -9.105893,4.059639 -9.105893,9.105892 v 44.515095 c 0,5.046256 4.059638,9.105893 9.105893,9.105893 h 61.598841 c 5.04626,0 9.10589,-4.059637 9.10589,-9.105893 V 26.941833 c 0,-5.046253 -4.05963,-9.105892 -9.10589,-9.105892 z"/></g></g><g id="g4111" transform="matrix(0.99983241,0,0,0.99804861,0.00437674,-1.4742087)"><g id="g4826" transform="matrix(0.83398328,0,0,1.0518199,0.37910829,-1.4266322)"><path id="path4308" d="M 7.6775054,14.989937 H 4.3952646 c -0.9299683,0 -1.8506764,-0.339668 -2.1881602,-1.307782 C 1.8866232,12.762815 2.1524003,11.0121 4.2311526,9.5953356 h 3.883985 c 2.0787524,1.3077814 2.3385304,3.0962914 1.8599362,4.1413094 -0.487572,1.064621 -1.3128961,1.253292 -2.2975684,1.253292 z" style="color:#000;display:inline;overflow:visible;visibility:visible;opacity:1;fill:#73d216;fill-opacity:1;fill-rule:evenodd;stroke:#4e9a06;stroke-width:.3088493px;stroke-linecap:round;stroke-linejoin:round;stroke-miterlimit:4;stroke-dasharray:none;stroke-dashoffset:0;stroke-opacity:1;marker:none;marker-start:none;marker-mid:none;marker-end:none"/><path style="color:#000;display:inline;overflow:visible;visibility:visible;opacity:.21518986;fill:none;fill-opacity:1;fill-rule:evenodd;stroke:#fff;stroke-width:.30884925px;stroke-linecap:round;stroke-linejoin:round;stroke-miterlimit:4;stroke-dasharray:none;stroke-dashoffset:0;stroke-opacity:1;marker:none;marker-start:none;marker-mid:none;marker-end:none" id="path4314" d="m 7.6267926,14.686845 -3.2472247,-0.0068 c -0.8168692,0 -1.6256044,-0.298359 -1.9220449,-1.148735 C 2.1760174,12.723776 2.486834,11.185976 4.3127778,9.9415135 L 7.8791342,9.8665774 C 9.705077,11.015312 10.058491,12.58631 9.6312639,13.579163 9.2040361,14.572015 8.5806069,14.680034 7.6267926,14.686845 Z"/></g><g id="g4822" transform="matrix(0.88172237,0,0,0.88526497,0.11512501,0.89010591)"><ellipse id="path4320" cx="-6.091" cy="8.015" rx="2.68" ry="2.67" transform="scale(-1,1)" style="color:#000;display:inline;overflow:visible;visibility:visible;opacity:1;fill:#fcaf3e;fill-opacity:1;fill-rule:evenodd;stroke:#c17d11;stroke-width:.3088493px;stroke-linecap:round;stroke-linejoin:round;stroke-miterlimit:4;stroke-dasharray:none;stroke-dashoffset:0;stroke-opacity:1;marker:none;marker-start:none;marker-mid:none;marker-end:none"/><ellipse style="color:#000;display:inline;overflow:visible;visibility:visible;opacity:.19620254;fill:none;fill-opacity:1;fill-rule:evenodd;stroke:#fff;stroke-width:.30884957px;stroke-linecap:round;stroke-linejoin:round;stroke-miterlimit:4;stroke-dasharray:none;stroke-dashoffset:0;stroke-opacity:1;marker:none;marker-start:none;marker-mid:none;marker-end:none" id="path4322" cx="-6.091" cy="8.015" rx="2.351" ry="2.342" transform="scale(-1,1)"/></g></g><rect style="opacity:1;fill:#000;fill-opacity:1;stroke:none;stroke-width:.44721359;stroke-linecap:square;stroke-linejoin:round;stroke-miterlimit:4;stroke-dasharray:none;stroke-opacity:1;paint-order:stroke fill markers" id="rect4260" width="4" height="1" x="10" y="4"/><rect style="opacity:1;fill:#000;fill-opacity:1;stroke:none;stroke-width:.44721359;stroke-linecap:square;stroke-linejoin:round;stroke-miterlimit:4;stroke-dasharray:none;stroke-opacity:1;paint-order:stroke fill markers" id="rect4260-3" width="4" height="1" x="10" y="6"/><rect style="opacity:1;fill:#000;fill-opacity:1;stroke:none;stroke-width:.44721359;stroke-linecap:square;stroke-linejoin:round;stroke-miterlimit:4;stroke-dasharray:none;stroke-opacity:1;paint-order:stroke fill markers" id="rect4260-6" width="4" height="1" x="10" y="8"/></g></g></svg>