<svg xmlns="http://www.w3.org/2000/svg" xmlns:svg="http://www.w3.org/2000/svg" id="svg30571" width="16" height="16" version="1.1" viewBox="0 0 16 16"><metadata id="metadata30576"/><g id="layer1" transform="translate(0,-1036.3622)"><g id="g11669"><g id="g7349"><rect id="rect7185" width="16" height="16" x="0" y="1036.362" style="fill:none;stroke:none"/><path style="fill:#000;fill-opacity:1;stroke:#d3d7cf;stroke-width:.30000001;stroke-miterlimit:4;stroke-dasharray:none;stroke-opacity:1" id="path7187" d="M 13.5,1 A 1.5,1.5000001 0 0 0 12,2.5 1.5,1.5000001 0 0 0 12.849609,3.8496094 L 11.392578,10.46875 8.5078125,4.8105469 6.6445312,8.7050781 4.4570312,3.3515625 2.2324219,12.025391 A 1.5,1.5000001 0 0 0 1,13.5 1.5,1.5000001 0 0 0 2.5,15 1.5,1.5000001 0 0 0 4,13.5 1.5,1.5000001 0 0 0 3.2226562,12.1875 L 4.6757812,6.5273438 6.5742188,11.173828 8.5371094,7.0683594 11.771484,13.410156 13.849609,3.9570312 A 1.5,1.5000001 0 0 0 15,2.5 1.5,1.5000001 0 0 0 13.5,1 Z" transform="translate(0,1036.3622)"/></g></g></g></svg>