<svg xmlns="http://www.w3.org/2000/svg" xmlns:svg="http://www.w3.org/2000/svg" id="svg30571" width="16" height="16" version="1.1" viewBox="0 0 16 16"><metadata id="metadata30576"/><g id="layer1" transform="translate(0,-1036.3622)"><g id="g4273" transform="matrix(0.99920937,0,0,1.0008091,0.00621934,-0.84502272)"><rect id="rect1316" width="15.65" height="15.625" x=".175" y="1036.55" rx="1.598" ry="1.709" style="opacity:1;fill:#c3c6c0;fill-opacity:1;fill-rule:evenodd;stroke:#676964;stroke-width:.36195505;stroke-linecap:round;stroke-linejoin:round;stroke-miterlimit:4;stroke-dasharray:none;stroke-dashoffset:0;stroke-opacity:1"/><rect id="rect1314" width="13.617" height="11.617" x="1.192" y="1037.554" rx=".577" ry=".622" style="opacity:1;fill:#3465a4;fill-opacity:1;fill-rule:evenodd;stroke:#173562;stroke-width:.38333207;stroke-linecap:round;stroke-linejoin:round;stroke-miterlimit:4;stroke-dasharray:none;stroke-dashoffset:0;stroke-opacity:1"/><rect id="rect2232" width="14.998" height="14.855" x=".501" y="1036.922" rx="1.445" ry="1.546" style="opacity:1;fill:none;fill-opacity:1;fill-rule:evenodd;stroke:#fff;stroke-width:.36195508;stroke-linecap:round;stroke-linejoin:round;stroke-miterlimit:4;stroke-dasharray:none;stroke-dashoffset:0;stroke-opacity:0"/><path style="color:#000;font-style:normal;font-variant:normal;font-weight:400;font-stretch:normal;font-size:medium;line-height:normal;font-family:Sans;-inkscape-font-specification:Sans;text-indent:0;text-align:start;text-decoration:none;text-decoration-line:none;letter-spacing:normal;word-spacing:normal;text-transform:none;writing-mode:lr-tb;direction:ltr;baseline-shift:baseline;text-anchor:start;display:inline;overflow:visible;visibility:visible;fill:#fcaf3e;fill-opacity:1;stroke:#ce5c00;stroke-width:.39487001;stroke-miterlimit:4;stroke-dasharray:none;stroke-opacity:1;marker:none;enable-background:accumulate" id="path8334" d="m 7.7114605,1038.5613 a 0.78352951,0.79615894 0 0 0 -0.1729099,0.018 0.78352951,0.79615894 0 0 0 -0.3917257,1.3683 l 2.5676381,2.609 H 3.197435 v 1.5922 h 6.5231492 l -2.5737593,2.6154 a 0.79635148,0.80918757 0 1 0 1.126211,1.1443 l 3.9172561,-3.9804 0.538624,-0.5721 -0.538624,-0.5722 -3.9172561,-3.9804 a 0.78352951,0.79615894 0 0 0 -0.5615754,-0.2427 z"/></g></g></svg>