<svg xmlns="http://www.w3.org/2000/svg" xmlns:svg="http://www.w3.org/2000/svg" id="svg11300" width="16" height="16" version="1.0" viewBox="0 0 16 16"><metadata id="metadata4"/><g id="layer1"><g id="g4289"><g id="g4154"><rect style="color:#000;display:inline;overflow:visible;visibility:visible;fill:#eeeeec;fill-opacity:1;fill-rule:evenodd;stroke:#888a85;stroke-width:1.00000012;stroke-linecap:butt;stroke-linejoin:miter;stroke-miterlimit:4;stroke-dasharray:none;stroke-dashoffset:0;stroke-opacity:1;marker:none;marker-start:none;marker-mid:none;marker-end:none" id="rect7400" width="15" height="15" x=".5" y=".5" rx=".615" ry=".638"/><rect style="color:#000;display:inline;overflow:visible;visibility:visible;fill:#204a87;fill-opacity:1;fill-rule:evenodd;stroke:none;stroke-width:1;stroke-linecap:butt;stroke-linejoin:miter;stroke-miterlimit:4;stroke-dasharray:none;stroke-dashoffset:0;stroke-opacity:1;marker:none;marker-start:none;marker-mid:none;marker-end:none" id="rect7402" width="12" height="1" x="2" y="2" rx=".111" ry=".111"/></g><g id="g4935" transform="matrix(0.01267839,0.01367737,-0.01363488,0.01271791,9.3411529,-0.76650886)"><path id="60" d="m 161.78,597.91 c 42.21,0 84.42,0 126.63,0 -6.67,-94.44 -14.13,-188.88 -20.3,-283.33 1.37,-21.21 11.74,-41.74 31.21,-51.71 25.77,-19.34 64.62,-8.66 81.81,17.1 19.75,21.62 5.39,51.61 5.67,77.23 -6.58,75.66 -7.87,151.63 -11.68,227.45 43.52,4.42 87.05,8.84 130.57,13.25 9.06,-93 19.19,-185.96 27.58,-278.99 0.7,-44.61 -14.13,-89.79 -46.5,-121.48 -20.35,-21.68 -49.02,-34.89 -77.33,-42.73 -57.48,-14.28 -120.38,-14.84 -176.19,6.45 -41.59,15.85 -76.4,49.8 -89.01,92.98 -12.61,35.53 -13.36,74.22 -7.77,111.28 8.44,77.5 16.85,155.02 25.31,232.51 z" style="fill:#d0411a;fill-rule:evenodd;stroke:#888a85;stroke-width:18.76000023;stroke-miterlimit:4"/><path id="path4933" d="m 152.02,507.66 10.38,91.25 h 125.94 l -6.92,-91.25 z m 228.12,0 -6.84,91.25 131.39,0.61 10.21,-91.86 -128.14,-0.24" style="fill:#959ba3;fill-rule:evenodd;stroke:#888a85;stroke-width:18.76000023;stroke-miterlimit:4"/><path id="path4709" d="m 380.14,507.66 -6.84,91.25 131.39,0.61 10.21,-91.86 -128.14,-0.24 z" style="fill:#959ba3;fill-rule:evenodd;stroke:#888a85;stroke-width:18.76000023;stroke-miterlimit:4"/></g></g></g></svg>