<svg xmlns="http://www.w3.org/2000/svg" xmlns:osb="http://www.openswatchbook.org/uri/2009/osb" xmlns:svg="http://www.w3.org/2000/svg" xmlns:xlink="http://www.w3.org/1999/xlink" id="svg2" width="16" height="16" version="1.1" viewBox="0 0 16 16"><metadata id="metadata90"/><defs id="defs7386"><linearGradient id="linearGradient19282" gradientTransform="matrix(0,-735328.32,170712.69,0,2464326300,577972450)" osb:paint="solid"><stop id="stop19284" stop-color="#b4b4b4"/></linearGradient><linearGradient id="linearGradient6057" x1="231.55" x2="320.7" gradientTransform="matrix(0.01502614,0,0,0.01468232,2.9686133,1037.3257)" gradientUnits="userSpaceOnUse" osb:paint="gradient"><stop id="stop6053" stop-color="#a11f7c"/><stop id="stop6055" offset="1" stop-color="#541f31" stop-opacity=".984"/></linearGradient><linearGradient id="linearGradient5137"><stop id="stop5139-6" stop-color="#eeeeec"/><stop id="stop5141" offset="1" stop-color="#e6e6e3"/></linearGradient><linearGradient id="linearGradient2160" x1="17.248" x2="39.904" y1="6.376" y2="38.876" gradientTransform="matrix(0.33964448,0,0,0.38029587,768.34509,90.89677)" gradientUnits="userSpaceOnUse" xlink:href="#linearGradient5137"/><radialGradient id="radialGradient2157" cx="24.006" cy="32.997" r="19" gradientTransform="matrix(0.4284513,0,0,0.29601926,766.39202,91.71608)" gradientUnits="userSpaceOnUse" xlink:href="#linearGradient5233"/><linearGradient id="linearGradient5233"><stop id="stop5235" stop-color="#729fcf"/><stop id="stop5237" offset="1" stop-color="#326194"/></linearGradient><linearGradient id="linearGradient5487" osb:paint="solid"><stop id="stop5485" offset="0" style="stop-color:#888a85;stop-opacity:1"/></linearGradient></defs><g id="g4185" transform="matrix(0.99896709,0,0,1.0010832,0.00808135,-0.0084687)"><path id="path2096" d="m 4.6500074,12.3805 c 0,0 0.422974,1.876608 -1.3404216,1.894225 -0.8447396,0.0083 -0.67171,1.534551 -0.67171,1.534551 L 13.3598,15.797345 c 0,0 0.145445,-1.48139 -0.702902,-1.498758 -1.733594,-0.03504 -1.324502,-1.941949 -1.324502,-1.941949 l -6.6823886,0.02386 z" style="color:#000;fill:#eeeeec;fill-opacity:1;fill-rule:evenodd;stroke:#888a85;stroke-width:.36357537"/><path id="path2098" d="m 1.3524719,0.19014832 13.2532031,0 c 0.703911,0 1.216905,0.54293111 1.216905,1.37900638 l 0.0038,9.9652113 c 0,0.643486 -0.183648,0.842443 -0.707226,0.842443 L 0.88094417,12.369608 C 0.47104121,12.358658 0.17930048,12.18149 0.17379691,11.601675 l 0.005275,-10.1039188 c 0,-0.67457863 0.53508268,-1.30760788 1.17339969,-1.30760788 z" style="fill:url(#linearGradient2160);fill-rule:evenodd;stroke:#888a85;stroke-width:.36357537"/><rect id="rect2100" width="12.861" height="8.746" x="1.567" y="1.72" style="fill:url(#radialGradient2157);fill-rule:evenodd;stroke:#204a87;stroke-width:.36357537"/><rect id="rect4355" width="4.178" height="8.74" x="1.62" y="1.727" style="color:#000;fill:#c00;fill-rule:evenodd;stroke:#a40000;stroke-width:.36357537;stroke-dashoffset:.80000001"/><path id="path2102" d="m 1.3260111,0.51922359 c -0.43573938,0 -0.84725068,0.48978341 -0.84725068,0.97450821 l 0,10.1097792 c 0.002131,0.229702 0.048186,0.301741 0.0943653,0.345386 0.0461793,0.04364 0.14129879,0.08171 0.30414128,0.08616 l 13.896134,0.01188 c 0.219528,0 0.287867,-0.04049 0.315682,-0.07353 0.02781,-0.03305 0.07536,-0.150366 0.07536,-0.437489 l 0,-9.9708828 c 0,-0.68888708 -0.349048,-1.04581361 -0.8907,-1.04581361 l -12.9477289,0 z" xlink:href="##rect5040" style="fill:none;fill-rule:evenodd;stroke:#fff;stroke-width:.36399999;stroke-miterlimit:4;stroke-dasharray:none"/><rect id="rect5232-4" width="4.178" height="8.74" x="5.791" y="1.72" style="color:#000;fill:#73d216;fill-rule:evenodd;stroke:#4e9a06;stroke-width:.36357537;stroke-dashoffset:.80000001"/><rect id="rect5234" width="4.178" height="8.74" x="9.962" y="1.72" style="color:#000;fill:#3465a4;fill-rule:evenodd;stroke:#204a87;stroke-width:.36357537;stroke-dashoffset:.80000001"/></g></svg>