<svg xmlns="http://www.w3.org/2000/svg" xmlns:svg="http://www.w3.org/2000/svg" id="svg30571" width="16" height="16" version="1.1" viewBox="0 0 16 16"><metadata id="metadata30576"/><g id="layer1" transform="translate(0,-1036.3622)"><g id="g4253" transform="matrix(-1,0,0,1,16.000021,0)"><g id="g4240"><rect style="fill:none;stroke:none" id="rect28186-4" width="16" height="16" x="-16" y="1036.362" rx="0" transform="scale(-1,1)"/><rect style="opacity:.3;fill:none;stroke:none" id="rect6884" width="16" height="16" x="-16" y="1036.362" transform="scale(-1,1)"/><path style="color:#000;font-style:normal;font-variant:normal;font-weight:400;font-stretch:normal;font-size:medium;line-height:normal;font-family:Sans;-inkscape-font-specification:Sans;text-indent:0;text-align:start;text-decoration:none;text-decoration-line:none;letter-spacing:normal;word-spacing:normal;text-transform:none;writing-mode:lr-tb;direction:ltr;baseline-shift:baseline;text-anchor:start;display:inline;overflow:visible;visibility:visible;fill:#f57900;fill-opacity:1;stroke:#ce5c00;stroke-width:.47388944;stroke-miterlimit:4;stroke-dasharray:none;stroke-opacity:1;marker:none;enable-background:accumulate" id="path8334" d="m 10.346279,1038.5999 a 0.94022976,0.95557994 0 0 1 0.207491,0.022 0.94022976,0.95557994 0 0 1 0.470068,1.6423 l -3.0811477,3.1313 h 7.8203857 v 1.911 H 7.9353452 l 3.0884928,3.139 a 0.95562919,0.9712309 0 1 1 -1.3514455,1.3735 l -4.7006785,-4.7774 -0.6463433,-0.6867 0.6463433,-0.6869 4.7006785,-4.7773 a 0.94022976,0.95557994 0 0 1 0.6738865,-0.2912 z"/></g><path style="color:#000;font-style:normal;font-variant:normal;font-weight:400;font-stretch:normal;font-size:medium;line-height:normal;font-family:Sans;-inkscape-font-specification:Sans;text-indent:0;text-align:start;text-decoration:none;text-decoration-line:none;letter-spacing:normal;word-spacing:normal;text-transform:none;writing-mode:lr-tb;direction:ltr;baseline-shift:baseline;text-anchor:start;display:inline;overflow:visible;visibility:visible;fill:#f57900;fill-opacity:1;stroke:#ce5c00;stroke-width:.50742769;stroke-miterlimit:4;stroke-dasharray:none;stroke-opacity:1;marker:none;enable-background:accumulate" id="path8334-3" d="m 1.7462862,1038.6284 v 11.4801 H 0.25371382 v -11.491 z"/></g></g></svg>