<svg xmlns="http://www.w3.org/2000/svg" xmlns:svg="http://www.w3.org/2000/svg" id="svg30571" width="16" height="16" version="1.1" viewBox="0 0 16 16"><metadata id="metadata30576"/><g id="layer1" transform="translate(0,-1036.3622)"><g id="g57" transform="matrix(1,0,0,-1,0,2088.7244)"><rect id="rect28186-4" width="16" height="16" x="0" y="1036.362" rx="0" style="fill:none;stroke:none"/><rect id="rect6884" width="16" height="16" x="0" y="1036.362" style="opacity:.3;fill:none;stroke:none"/><rect style="color:#bebebe;display:inline;overflow:visible;visibility:visible;fill:#f57900;fill-opacity:1;fill-rule:nonzero;stroke:#ce5c00;stroke-width:.42904922;stroke-miterlimit:4;stroke-dasharray:none;stroke-opacity:1;marker:none;enable-background:accumulate" id="rect8382" width="1.571" height="11.571" x="1048.577" y="-13.785" rx="0" ry="0" transform="rotate(90)"/><path id="path47623" d="m 8.0000002,1046.0116 -5.4856688,-5.6937 c -0.1878864,-0.195 -0.2697888,-0.4611 -0.2697888,-0.7156 v -0.9955 h 0.9592433 c 0.2452019,0 0.5015691,0.085 0.6894557,0.2799 l 4.1067586,4.2625 4.1067578,-4.2625 c 0.187888,-0.1949 0.444255,-0.2799 0.689457,-0.2799 h 0.959242 v 0.9955 c 0,0.2545 -0.08192,0.5206 -0.269787,0.7156 z" style="fill:#f57900;fill-opacity:1;stroke:#ce5c00;stroke-width:.48908517;stroke-miterlimit:4;stroke-dasharray:none;stroke-opacity:1"/></g></g></svg>