<svg xmlns="http://www.w3.org/2000/svg" xmlns:svg="http://www.w3.org/2000/svg" id="svg30571" width="16" height="16" version="1.1" viewBox="0 0 16 16"><metadata id="metadata30576"/><g id="layer1" transform="translate(0,-1036.3622)"><g id="g4253"><rect id="rect4253" width="16" height="16" x="0" y="1036.362" style="opacity:.75;fill:none;fill-opacity:1;stroke:none;stroke-width:.17814535;stroke-linecap:round;stroke-linejoin:round;stroke-miterlimit:4;stroke-dasharray:none;stroke-opacity:1;paint-order:stroke fill markers"/><g id="g3943" transform="matrix(0.8529282,0,0,0.8480413,-0.70677318,160.6212)"><g id="g3939" transform="matrix(0.75258206,0.75039082,-0.75039082,0.75258206,803.6233,277.20486)"><g id="g3936"><path style="color:#000;clip-rule:nonzero;display:inline;overflow:visible;visibility:visible;opacity:1;isolation:auto;mix-blend-mode:normal;color-interpolation:sRGB;color-interpolation-filters:linearRGB;solid-color:#000;solid-opacity:1;fill:#d3d7cf;fill-opacity:1;fill-rule:nonzero;stroke:#555753;stroke-width:2.91148043;stroke-linecap:butt;stroke-linejoin:miter;stroke-miterlimit:4;stroke-dasharray:none;stroke-dashoffset:0;stroke-opacity:1;color-rendering:auto;image-rendering:auto;shape-rendering:auto;text-rendering:auto;enable-background:accumulate" id="path3937" d="m -20.433217,1049.479 -0.243616,-0.2772 -0.243616,-0.2772 0.361875,-0.072 0.361875,-0.072 -0.118259,0.3495 z" transform="matrix(0.52647596,0.10929736,-0.10929736,0.52647596,105.00246,497.44584)"/></g></g></g><g style="fill:#3465a4;stroke:#555753;stroke-width:21.63107872;stroke-miterlimit:4;stroke-dasharray:none;stroke-opacity:1" id="g4498" transform="matrix(0.01989485,-0.01993646,0.01350408,0.01332378,-8.7454509,1045.6083)"><path style="fill:#3465a4;stroke:#555753;stroke-width:21.63107872;stroke-miterlimit:4;stroke-dasharray:none;stroke-opacity:1" id="path4510" d="m 218.20736,576.6367 -0.84712,-73.39348 564.56871,1.54144 v 140.4 l -564.84685,1.11701 z"/></g><path style="fill:#204a87;stroke:none;stroke-width:.3941181;stroke-miterlimit:4;stroke-dasharray:none;stroke-opacity:1" id="path4510-7" d="m 3.9397518,1049.0928 10.8741082,-10.8217 0.369866,0.4029 -10.7944691,10.8393 z"/><path id="rect4254" d="m 2.034939,1048.2477 2.026924,2.035 -1.3426608,1.173 -1.77689279,-1.8034 z" style="opacity:.75;fill:#e9b96e;fill-opacity:1;stroke:#f57900;stroke-width:.30000001;stroke-linecap:round;stroke-linejoin:miter;stroke-miterlimit:4;stroke-dasharray:none;stroke-opacity:1;paint-order:stroke fill markers"/><path style="fill:#729fcf;stroke:none;stroke-width:.3941181;stroke-miterlimit:4;stroke-dasharray:none;stroke-opacity:1" id="path4510-7-2" d="m 2.6485165,1047.8124 10.8236475,-10.7697 0.298384,0.313 -10.7438097,10.8119 z"/><path id="rect4240" d="m 271.97339,1014.1378 0.42576,0.2564 -0.45058,2.0261 -0.002,-0.019 z" transform="rotate(14.970952)" style="opacity:.75;fill:#eeeeec;fill-opacity:1;stroke:none;stroke-width:1;stroke-linecap:round;stroke-linejoin:round;stroke-miterlimit:4;stroke-dasharray:none;stroke-opacity:1;paint-order:stroke fill markers"/><path id="rect4240-2" d="m 1.9948962,1051.2267 0.2887783,0.351 -1.89579813,0.5863 -0.0240079,-0.028 z" style="opacity:.75;fill:#000;fill-opacity:1;stroke:none;stroke-width:1;stroke-linecap:round;stroke-linejoin:round;stroke-miterlimit:4;stroke-dasharray:none;stroke-opacity:1;paint-order:stroke fill markers"/></g></g></svg>