<svg xmlns="http://www.w3.org/2000/svg" xmlns:svg="http://www.w3.org/2000/svg" id="svg7384" width="16" height="16" version="1.1" viewBox="0 0 16 16"><metadata id="metadata90"/><g id="g4256"><rect style="opacity:1;fill:none;fill-opacity:1;stroke:none;stroke-width:1.35169733;stroke-linecap:square;stroke-linejoin:miter;stroke-miterlimit:4;stroke-dasharray:none;stroke-opacity:1;paint-order:stroke fill markers" id="rect4257" width="16" height="16" x="0" y="0"/></g><path id="path67" d="m 7.9549515,15.20505 c -0.736079,0 -1.8727276,-4.246301 -2.3932141,-4.766787 C 5.0412509,9.9177761 0.79494952,8.7811279 0.79494953,8.0450489 0.79494954,7.3089699 5.041251,6.1723213 5.5617374,5.6518348 6.0822239,5.1313484 7.2188721,0.88504695 7.9549511,0.88504696 c 0.736079,10e-9 1.8727276,4.24630144 2.3932139,4.76678794 0.520487,0.5204864 4.766788,1.6571346 4.766788,2.3932136 0,0.736079 -4.246301,1.8727276 -4.766788,2.3932145 -0.5204863,0.520486 -1.6571345,4.766787 -2.3932135,4.766787 z" transform="matrix(0.97800065,0,0,0.97804133,0.21984218,0.13150819)" style="color:#000;display:inline;overflow:visible;visibility:visible;opacity:1;fill:#edd400;fill-opacity:1;fill-rule:nonzero;stroke:#c4a000;stroke-width:1.01697958px;stroke-linecap:butt;stroke-linejoin:miter;stroke-miterlimit:4;stroke-dasharray:none;stroke-dashoffset:0;stroke-opacity:1;marker:none;marker-start:none;marker-mid:none;marker-end:none;enable-background:accumulate"/></svg>