<svg xmlns="http://www.w3.org/2000/svg" xmlns:svg="http://www.w3.org/2000/svg" id="svg30571" width="16" height="16" version="1.1" viewBox="0 0 16 16"><metadata id="metadata30576"/><g id="layer1" transform="translate(0,-1036.3622)"><g id="g4056"><g id="g3998" transform="matrix(1.0513727,0,0,1.0000079,-0.42042887,-0.00816417)"><g id="g3997" transform="matrix(1.1103359,0,0,1.1103359,-0.9653036,-114.34049)"><g id="g3972" transform="matrix(0.32618936,0,0,0.35238757,0.25300329,1035.2745)"><path style="fill:#3465a4;fill-opacity:1;stroke:#25375f;stroke-width:1.00000012;stroke-linecap:round;stroke-linejoin:round;stroke-miterlimit:4;stroke-dashoffset:0;stroke-opacity:1" id="rect2259" d="M 4.5577604,3.5675797 H 43.448063 c 0.589294,0 1.063708,0.4744141 1.063708,1.0637086 V 42.396499 c 0,0.589294 -0.474414,1.063708 -1.063708,1.063708 H 6.5577604 c 0,0 -3.0637085,-3.063708 -3.0637085,-3.063708 V 4.6312883 c 0,-0.5892945 0.474414,-1.0637086 1.0637085,-1.0637086 z"/><rect style="opacity:1;fill:#fff;fill-opacity:1;stroke:none;stroke-width:.90393138;stroke-linecap:butt;stroke-linejoin:miter;stroke-miterlimit:4;stroke-dasharray:none;stroke-dashoffset:0;stroke-opacity:1" id="rect2328" width="31.514" height="17.89" x="8.246" y="8.179"/><rect id="rect2330" width="31.514" height="5.112" x="8.246" y="4.09" rx=".133" ry=".161" style="opacity:1;fill:#d31c00;fill-opacity:1;stroke:none;stroke-width:1.15860498;stroke-linecap:butt;stroke-linejoin:miter;stroke-miterlimit:4;stroke-dasharray:none;stroke-dashoffset:0;stroke-opacity:1"/><rect style="opacity:.73863639;fill:#000;fill-opacity:1;stroke:none;stroke-width:1;stroke-linecap:butt;stroke-linejoin:miter;stroke-miterlimit:4;stroke-dasharray:none;stroke-dashoffset:0;stroke-opacity:1" id="rect2332" width="2" height="2" x="6" y="6" rx=".126" ry=".126"/><path style="opacity:.59659095;fill:none;fill-opacity:1;stroke:url(#linearGradient2283);stroke-width:1;stroke-linecap:round;stroke-linejoin:miter;stroke-miterlimit:4;stroke-dashoffset:0;stroke-opacity:1" id="rect2273" d="M 4.6189226,4.5276647 H 43.387404 c 0.06992,0 0.126208,0.056289 0.126208,0.1262077 V 42.302111 c 0,0.06992 -0.05629,0.126208 -0.126208,0.126208 H 6.9282818 c 0,0 -2.4355669,-2.391373 -2.4355669,-2.391373 V 4.6538724 c 0,-0.069919 0.056289,-0.1262077 0.1262077,-0.1262077 z"/><path style="fill:#d3d7cf;fill-opacity:1;stroke:#525252;stroke-width:.97580624;stroke-linecap:butt;stroke-linejoin:miter;stroke-miterlimit:4;stroke-dashoffset:0;stroke-opacity:1" id="rect2340" d="m 14.255326,29.113111 h 19.495182 c 0.876522,0 1.58217,0.724355 1.58217,1.624113 V 43.47192 c 0,0 -22.659522,0 -22.659522,0 V 30.737224 c 0,-0.899758 0.705648,-1.624113 1.58217,-1.624113 z"/><rect style="opacity:1;fill:#4967a2;fill-opacity:1;stroke:#525252;stroke-width:.89586031;stroke-linecap:butt;stroke-linejoin:miter;stroke-miterlimit:4;stroke-dasharray:none;stroke-dashoffset:0;stroke-opacity:1" id="rect2359" width="4.356" height="9.327" x="16.572" y="31.629" rx=".651" ry=".696"/></g></g></g></g></g></svg>