<svg xmlns="http://www.w3.org/2000/svg" xmlns:svg="http://www.w3.org/2000/svg" id="svg30571" width="16" height="16" version="1.1" viewBox="0 0 16 16"><metadata id="metadata30576"/><g id="layer1" transform="translate(0,-1036.3622)"><g id="g17"><rect id="rect10176" width="16" height="16" x="-1052.362" y="0" transform="rotate(-90)" style="fill:none;stroke:none;stroke-width:1"/><path id="path15848" d="M 6.4179688 2.2421875 C 3.0330807 2.2421875 0.2890625 5.1566 0.2890625 8.75 C 0.2890625 8.9213 0.23393045 9.6485062 0.24609375 9.8164062 L 2.1992188 9.8164062 C 2.1815857 9.6494063 2.1992188 8.9727813 2.1992188 8.8007812 C 2.1992188 6.3130813 4.074592 4.2441406 6.4179688 4.2441406 C 8.7613456 4.2441406 10.800781 6.2623 10.800781 8.75 C 10.800781 8.922 10.818421 10.049897 10.800781 10.216797 L 8.1992188 10.216797 L 11.800781 13.671875 L 15.375 10.216797 L 12.785156 10.216797 C 12.797406 10.048997 12.814453 8.9213 12.814453 8.75 C 12.814453 5.1566 9.8028571 2.2421875 6.4179688 2.2421875 z" transform="translate(0,1036.3622)" style="fill:#fcaf3e;fill-opacity:1;stroke:#ce5c00;stroke-width:.4857651;stroke-miterlimit:4;stroke-dasharray:none;stroke-opacity:1"/></g></g></svg>