<svg xmlns="http://www.w3.org/2000/svg" xmlns:svg="http://www.w3.org/2000/svg" id="svg11300" width="16" height="16" version="1.1" viewBox="0 0 16 16"><metadata id="metadata4"/><g id="layer1" transform="translate(0,-32)"><g id="g4287" transform="matrix(0.40296593,0,0,0.39312274,-1.9421927,30.115325)"><path id="path2140" d="M 17.906713,21.215676 36.899302,40.6474 c 0.768486,0.87827 3.20351,1.557061 4.830485,0 1.571126,-1.503613 1.207621,-3.622864 -0.329351,-5.159837 L 23.176333,15.946056 c 2.25,-6.25 -2.303889,-11.499568 -8.178889,-10.374568 l -1.262514,1.1527294 3.952215,3.7326476 0.219568,3.293516 -2.950842,2.693603 -3.526399,-0.388144 -3.6228634,-3.403296 c 0,0 -1.2701213,1.254904 -1.2701213,1.254904 -0.5907635,5.641317 5.3077257,10.683228 11.3702257,7.308228 z" style="color:#000;display:inline;overflow:visible;visibility:visible;opacity:1;fill:#eeeeec;fill-opacity:1;fill-rule:nonzero;stroke:#555753;stroke-width:1.25162303;stroke-linecap:butt;stroke-linejoin:miter;stroke-miterlimit:4;stroke-dasharray:none;stroke-dashoffset:0;stroke-opacity:1;marker:none;marker-start:none;marker-mid:none;marker-end:none"/><path id="path2144" d="M 22.498794,30.12538 C 23.332335,29.410917 35.782628,16.676871 35.782628,16.676871 l 3.073945,-0.219568 4.830485,-6.6968124 -4.024327,-3.5851919 -6.257674,5.3794063 v 3.073946 L 20.670142,27.857593 c -0.60381,0.60381 1.060166,2.926489 1.828652,2.267787 z" style="color:#000;display:inline;overflow:visible;visibility:visible;opacity:1;fill:#babdb6;fill-opacity:1;fill-rule:nonzero;stroke:#555753;stroke-width:1.25162303;stroke-linecap:butt;stroke-linejoin:miter;stroke-miterlimit:4;stroke-dasharray:none;stroke-dashoffset:0;stroke-opacity:1;marker:none;marker-start:none;marker-mid:none;marker-end:none"/><path id="path2142" d="m 8.4653111,43.611561 c 1.3165875,1.465229 4.9736849,2.128165 6.5954439,-0.709914 0.707107,-1.237436 2.093943,-4.702802 8.281128,-10.271268 1.039146,-0.934171 2.139909,-3.071138 1.206747,-4.223867 l -2.415243,-2.415243 c -0.988053,-1.097837 -3.734414,-0.585749 -4.861175,0.950876 -3.358757,4.596194 -8.8460727,8.25488 -10.0835097,8.696822 -2.3679195,0.845685 -2.1014106,4.336149 -0.5348231,5.996487 z" style="color:#000;display:inline;overflow:visible;visibility:visible;fill:#3465a4;fill-opacity:1;fill-rule:nonzero;stroke:#204a87;stroke-width:1.24774945;stroke-linecap:butt;stroke-linejoin:miter;stroke-miterlimit:4;stroke-dasharray:none;stroke-dashoffset:0;stroke-opacity:1;marker:none;marker-start:none;marker-mid:none;marker-end:none"/></g></g></svg>