<svg xmlns="http://www.w3.org/2000/svg" xmlns:svg="http://www.w3.org/2000/svg" id="svg30571" width="16" height="16" version="1.1" viewBox="0 0 16 16"><metadata id="metadata30576"/><g id="layer1" transform="translate(0,-1036.3622)"><g id="g4237"><g style="fill:#4e9a06" id="g3946" transform="matrix(1.0376102,0,0,1.0091341,0.21343527,-9.8486241)"><g style="fill:#4e9a06" id="refresh" transform="matrix(0.74272062,0,0,0.74272062,31.29055,291.82008)"><path id="path4874" d="M 13.669922,0.76171875 A 1.1490108,1.1490108 0 0 0 12.539062,1.9277344 V 2.875 C 11.580602,2.023266 10.401786,1.4430604 9.125,1.2304688 8.3630798,1.1036306 7.5695734,1.1033626 6.7734375,1.2480469 3.5888993,1.8249458 1.198036,4.5477589 1.0332031,7.7792969 0.86836872,11.010911 2.9713663,13.915672 6.0839844,14.746094 9.1966032,15.576439 12.506084,14.113891 14.023438,11.242188 L 12.003906,10.191406 C 10.982525,12.124462 8.7875478,13.09283 6.6972656,12.535156 4.6069827,11.977635 3.2073278,10.047869 3.3183594,7.8710938 3.4293887,5.6943955 5.0198611,3.885378 7.1582031,3.4980469 8.78968,3.2025274 10.3876,3.8003497 11.419922,4.9902344 H 9.4746094 a 1.149414,1.149414 0 1 0 0,2.2988281 H 14.835938 V 1.9277344 A 1.1490108,1.1490108 0 0 0 13.669922,0.76171875 Z" transform="matrix(1.3056012,0,0,1.3056012,-42.119746,1003.0953)" style="color:#000;font-style:normal;font-variant:normal;font-weight:400;font-stretch:normal;font-size:medium;line-height:normal;font-family:sans-serif;text-indent:0;text-align:start;text-decoration:none;text-decoration-line:none;text-decoration-style:solid;text-decoration-color:#000;letter-spacing:normal;word-spacing:normal;text-transform:none;writing-mode:lr-tb;direction:ltr;baseline-shift:baseline;text-anchor:start;white-space:normal;clip-rule:nonzero;display:inline;overflow:visible;visibility:visible;opacity:1;isolation:auto;mix-blend-mode:normal;color-interpolation:sRGB;color-interpolation-filters:linearRGB;solid-color:#000;solid-opacity:1;fill:#73d216;fill-opacity:1;fill-rule:nonzero;stroke:#4e9a06;stroke-width:.5;stroke-linecap:butt;stroke-linejoin:miter;stroke-miterlimit:4;stroke-dasharray:none;stroke-dashoffset:0;stroke-opacity:1;color-rendering:auto;image-rendering:auto;shape-rendering:auto;text-rendering:auto;enable-background:accumulate"/></g></g><rect id="rect3999-8" width="16" height="16" x="0" y="1036.362" style="color:#000;clip-rule:nonzero;display:inline;overflow:visible;visibility:visible;opacity:1;isolation:auto;mix-blend-mode:normal;color-interpolation:sRGB;color-interpolation-filters:linearRGB;solid-color:#000;solid-opacity:1;fill:none;fill-opacity:1;fill-rule:nonzero;stroke:none;stroke-width:.10246458;stroke-linecap:round;stroke-linejoin:round;stroke-miterlimit:4;stroke-dasharray:none;stroke-dashoffset:0;stroke-opacity:1;color-rendering:auto;image-rendering:auto;shape-rendering:auto;text-rendering:auto;enable-background:accumulate"/></g></g></svg>