<svg xmlns="http://www.w3.org/2000/svg" xmlns:cc="http://web.resource.org/cc/" xmlns:svg="http://www.w3.org/2000/svg" xmlns:xlink="http://www.w3.org/1999/xlink" id="svg11300" width="48" height="48"><defs id="defs3"><radialGradient id="radialGradient5031" cx="605.714" cy="486.648" r="117.143" fx="605.714" fy="486.648" gradientTransform="matrix(-2.774389,0,0,1.969706,112.7623,-872.8854)" gradientUnits="userSpaceOnUse" xlink:href="#linearGradient5060"/><linearGradient id="linearGradient5060"><stop style="stop-color:black;stop-opacity:1" id="stop5062" offset="0"/><stop style="stop-color:black;stop-opacity:0" id="stop5064" offset="1"/></linearGradient><radialGradient id="radialGradient5029" cx="605.714" cy="486.648" r="117.143" fx="605.714" fy="486.648" gradientTransform="matrix(2.774389,0,0,1.969706,-1891.633,-872.8854)" gradientUnits="userSpaceOnUse" xlink:href="#linearGradient5060"/><linearGradient id="linearGradient5027" x1="302.857" x2="302.857" y1="366.648" y2="609.505" gradientTransform="matrix(2.774389,0,0,1.969706,-1892.179,-872.8854)" gradientUnits="userSpaceOnUse" xlink:href="#linearGradient5048"/><linearGradient id="linearGradient5048"><stop style="stop-color:black;stop-opacity:0" id="stop5050" offset="0"/><stop id="stop5056" offset=".5" style="stop-color:black;stop-opacity:1"/><stop style="stop-color:black;stop-opacity:0" id="stop5052" offset="1"/></linearGradient><linearGradient id="linearGradient3844"><stop style="stop-color:#000;stop-opacity:1" id="stop3846" offset="0"/><stop style="stop-color:#000;stop-opacity:0" id="stop3848" offset="1"/></linearGradient><linearGradient id="linearGradient3832"><stop style="stop-color:#fff;stop-opacity:1" id="stop3834" offset="0"/><stop style="stop-color:#e0e0e0;stop-opacity:1" id="stop3836" offset="1"/></linearGradient><linearGradient id="linearGradient2402"><stop style="stop-color:#d8d8d8;stop-opacity:1" id="stop2404" offset="0"/><stop style="stop-color:#fff;stop-opacity:1" id="stop2406" offset="1"/></linearGradient><linearGradient id="linearGradient2392"><stop id="stop2394" offset="0" style="stop-color:#a0a0a0;stop-opacity:1"/><stop id="stop2396" offset="1" style="stop-color:#e7e7e7;stop-opacity:1"/></linearGradient><linearGradient id="linearGradient10314"><stop id="stop10316" offset="0" style="stop-color:#f3f3f3;stop-opacity:1"/><stop id="stop10318" offset="1" style="stop-color:#838383;stop-opacity:1"/></linearGradient><radialGradient id="radialGradient3854" cx="35.188" cy="43.875" r="6.688" fx="35.188" fy="43.875" gradientTransform="matrix(1.000000,0.000000,0.000000,0.355140,1.780868e-14,28.29322)" gradientUnits="userSpaceOnUse" xlink:href="#linearGradient3844"/><linearGradient id="linearGradient3866" x1="17.881" x2="17.881" y1="11.073" y2="21.768" gradientTransform="translate(0,-0.441941)" gradientUnits="userSpaceOnUse" xlink:href="#linearGradient3832"/><linearGradient id="linearGradient4207" x1="37.018" x2="27.754" y1="19.24" y2="11.182" gradientTransform="matrix(-0.117687,-0.528197,0.528197,-0.117687,46.2238,49.69112)" gradientUnits="userSpaceOnUse" xlink:href="#linearGradient6951"/><linearGradient id="linearGradient4204" x1="19.395" x2="23.109" y1="30.001" y2="33.439" gradientTransform="matrix(-0.117687,-0.528197,0.528197,-0.117687,40.56367,46.8748)" gradientUnits="userSpaceOnUse" xlink:href="#linearGradient6939"/><radialGradient id="radialGradient4201" cx="15.415" cy="35.357" r="7.579" fx="15.415" fy="35.357" gradientTransform="matrix(-9.389073e-2,-1.406075,1.370264,-9.149987e-2,18.28382,59.78933)" gradientUnits="userSpaceOnUse" xlink:href="#linearGradient6963"/><linearGradient id="linearGradient4197" x1="13.236" x2="7.752" y1="37.752" y2="42.282" gradientTransform="matrix(0.11984,-0.445379,0.445379,0.11984,42.0839,34.30798)" gradientUnits="userSpaceOnUse" xlink:href="#linearGradient2446"/><radialGradient id="radialGradient4502" cx="23" cy="33.938" r="18.25" fx="23" fy="33.938" gradientTransform="matrix(1,0,0,0.284247,0,24.29088)" gradientUnits="userSpaceOnUse" xlink:href="#linearGradient6492"/><linearGradient id="linearGradient4500" x1="14.969" x2="39.525" y1="19.111" y2="46.986" gradientUnits="userSpaceOnUse" xlink:href="#linearGradient8524"/><linearGradient id="linearGradient4498" x1="6.305" x2="5.985" y1="23.362" y2="31.57" gradientUnits="userSpaceOnUse" xlink:href="#linearGradient6452"/><radialGradient id="radialGradient4496" cx="6.024" cy="25.271" r="4.831" fx="6.024" fy="25.271" gradientTransform="matrix(0.916159,9.318684e-2,-0.108765,1.069309,3.253668,-3.029272)" gradientUnits="userSpaceOnUse" xlink:href="#linearGradient8542"/><radialGradient id="radialGradient4494" cx="69.473" cy="19.598" r="3.515" fx="69.473" fy="19.598" gradientTransform="matrix(1.318488,0,0,1.318488,-22.1264,-6.241691)" gradientUnits="userSpaceOnUse" xlink:href="#linearGradient6468"/><radialGradient id="radialGradient4491" cx="18.558" cy="22.3" r="19.229" fx="18.558" fy="22.3" gradientTransform="matrix(1.77275,0,0,1.29668,-16.3404,-6.615959)" gradientUnits="userSpaceOnUse" xlink:href="#linearGradient6500"/><linearGradient id="linearGradient4488" x1="32.35" x2="21.213" y1="28.083" y2="30.293" gradientTransform="translate(-3.83655,0.345971)" gradientUnits="userSpaceOnUse" xlink:href="#linearGradient6482"/><linearGradient id="linearGradient4467" x1="26.163" x2="24.329" y1="30.543" y2="30.985" gradientUnits="userSpaceOnUse" xlink:href="#linearGradient8534"/><radialGradient id="radialGradient8548" cx="6.024" cy="25.271" r="4.831" fx="6.024" fy="25.271" gradientTransform="matrix(0.916159,9.318684e-2,-0.108765,1.069309,3.253668,-3.029272)" gradientUnits="userSpaceOnUse" xlink:href="#linearGradient8542"/><linearGradient id="linearGradient8540" x1="26.163" x2="24.329" y1="30.543" y2="30.985" gradientUnits="userSpaceOnUse" xlink:href="#linearGradient8534"/><linearGradient id="linearGradient8530" x1="14.969" x2="39.525" y1="19.111" y2="46.986" gradientUnits="userSpaceOnUse" xlink:href="#linearGradient8524"/><radialGradient id="radialGradient8522" cx="18.558" cy="22.3" r="19.229" fx="18.558" fy="22.3" gradientTransform="matrix(1.77275,-1.847562e-16,1.351402e-16,1.29668,-16.3404,-6.615959)" gradientUnits="userSpaceOnUse" xlink:href="#linearGradient6500"/><radialGradient id="radialGradient6498" cx="23" cy="33.938" r="18.25" fx="23" fy="33.938" gradientTransform="matrix(1,0,0,0.284247,0,24.29088)" gradientUnits="userSpaceOnUse" xlink:href="#linearGradient6492"/><linearGradient id="linearGradient6488" x1="32.35" x2="21.213" y1="28.083" y2="30.293" gradientTransform="translate(-3.836549,0.345971)" gradientUnits="userSpaceOnUse" xlink:href="#linearGradient6482"/><radialGradient id="radialGradient6474" cx="69.473" cy="19.598" r="3.515" fx="69.473" fy="19.598" gradientTransform="matrix(1.318488,1.207574e-15,-1.207574e-15,1.318488,-22.1264,-6.241691)" gradientUnits="userSpaceOnUse" xlink:href="#linearGradient6468"/><linearGradient id="linearGradient6458" x1="6.305" x2="5.985" y1="23.362" y2="31.57" gradientUnits="userSpaceOnUse" xlink:href="#linearGradient6452"/><radialGradient id="radialGradient1366" cx="24.446" cy="35.878" r="20.531" fx="24.446" fy="35.878" gradientTransform="matrix(2.049266,-1.696401e-32,0.000000,2.049266,-25.65002,-37.31089)" gradientUnits="userSpaceOnUse" xlink:href="#linearGradient11520"/><radialGradient id="radialGradient1356" cx="30.204" cy="44.565" r="6.566" fx="30.204" fy="44.565" gradientTransform="matrix(1.000000,0.000000,0.000000,0.338462,2.220359e-14,29.48178)" gradientUnits="userSpaceOnUse" xlink:href="#linearGradient11508"/><radialGradient id="radialGradient1354" cx="27.577" cy="15.048" r="3.834" fx="27.577" fy="15.048" gradientTransform="matrix(1.243453,2.106784e-16,-2.106784e-16,1.243453,-6.713754,-3.742847)" gradientUnits="userSpaceOnUse" xlink:href="#linearGradient11494"/><radialGradient id="radialGradient1352" cx="27.577" cy="16.049" r="3.834" fx="27.577" fy="16.049" gradientTransform="matrix(1.243453,2.106784e-16,-2.106784e-16,1.243453,-6.713754,-3.742847)" gradientUnits="userSpaceOnUse" xlink:href="#linearGradient11494"/><radialGradient id="radialGradient1350" cx="24.446" cy="35.878" r="20.531" fx="24.446" fy="35.878" gradientTransform="matrix(1.995058,-1.651527e-32,0.000000,1.995058,-24.32488,-35.70087)" gradientUnits="userSpaceOnUse" xlink:href="#linearGradient11520"/><radialGradient id="radialGradient1348" cx="30.204" cy="44.565" r="6.566" fx="30.204" fy="44.565" gradientTransform="matrix(1.000000,0.000000,0.000000,0.338462,-1.353344e-14,29.48178)" gradientUnits="userSpaceOnUse" xlink:href="#linearGradient11508"/><radialGradient id="radialGradient11532" cx="30.204" cy="44.565" r="6.566" fx="30.204" fy="44.565" gradientTransform="matrix(1.000000,0.000000,0.000000,0.338462,3.185827e-15,29.48178)" gradientUnits="userSpaceOnUse" xlink:href="#linearGradient11508"/><radialGradient id="radialGradient11526" cx="24.446" cy="35.878" r="20.531" fx="24.446" fy="35.878" gradientTransform="matrix(1.995058,-1.651527e-32,0.000000,1.995058,-24.32488,-35.70087)" gradientUnits="userSpaceOnUse" xlink:href="#linearGradient11520"/><radialGradient id="radialGradient11514" cx="30.204" cy="44.565" r="6.566" fx="30.204" fy="44.565" gradientTransform="matrix(1.000000,0.000000,0.000000,0.338462,2.166583e-14,29.48178)" gradientUnits="userSpaceOnUse" xlink:href="#linearGradient11508"/><radialGradient id="radialGradient11504" cx="27.577" cy="16.049" r="3.834" fx="27.577" fy="16.049" gradientTransform="matrix(1.243453,2.106784e-16,-2.106784e-16,1.243453,-6.713754,-3.742847)" gradientUnits="userSpaceOnUse" xlink:href="#linearGradient11494"/><radialGradient id="radialGradient11500" cx="27.577" cy="15.048" r="3.834" fx="27.577" fy="15.048" gradientTransform="matrix(1.243453,2.106784e-16,-2.106784e-16,1.243453,-6.713754,-3.742847)" gradientUnits="userSpaceOnUse" xlink:href="#linearGradient11494"/><radialGradient id="radialGradient11441" cx="12.071" cy="39.143" r="8.5" fx="12.071" fy="39.143" gradientTransform="matrix(1.000000,0.000000,0.000000,0.487395,0.000000,20.06483)" gradientUnits="userSpaceOnUse" xlink:href="#linearGradient11399"/><linearGradient id="linearGradient11439" x1="13.267" x2="26.759" y1="19.774" y2="33.462" gradientTransform="translate(-60.85714,0.428571)" gradientUnits="userSpaceOnUse" xlink:href="#linearGradient11415"/><linearGradient id="linearGradient11427" x1="9.696" x2="35.68" y1="9.346" y2="39.034" gradientTransform="translate(-60.57143,0.000000)" gradientUnits="userSpaceOnUse" xlink:href="#linearGradient11415"/><linearGradient id="linearGradient11425" x1="15.828" x2="43.616" y1="3.774" y2="34.462" gradientTransform="translate(-60.28571,-0.285714)" gradientUnits="userSpaceOnUse" xlink:href="#linearGradient11415"/><linearGradient id="linearGradient11399"><stop style="stop-color:#000;stop-opacity:1" id="stop11401" offset="0"/><stop style="stop-color:#000;stop-opacity:0" id="stop11403" offset="1"/></linearGradient><linearGradient id="linearGradient11415"><stop style="stop-color:#204a87;stop-opacity:0" id="stop11417" offset="0"/><stop id="stop11423" offset=".5" style="stop-color:#204a87;stop-opacity:1"/><stop style="stop-color:#204a87;stop-opacity:0" id="stop11419" offset="1"/></linearGradient><linearGradient id="linearGradient11494"><stop style="stop-color:#ef2929;stop-opacity:1" id="stop11496" offset="0"/><stop style="stop-color:#ef2929;stop-opacity:0" id="stop11498" offset="1"/></linearGradient><linearGradient id="linearGradient11508"><stop style="stop-color:#000;stop-opacity:1" id="stop11510" offset="0"/><stop style="stop-color:#000;stop-opacity:0" id="stop11512" offset="1"/></linearGradient><linearGradient id="linearGradient11520"><stop style="stop-color:#fff;stop-opacity:1" id="stop11522" offset="0"/><stop style="stop-color:#dcdcdc;stop-opacity:1" id="stop11524" offset="1"/></linearGradient><linearGradient id="linearGradient6452"><stop id="stop6454" offset="0" style="stop-color:white;stop-opacity:1"/><stop id="stop6456" offset="1" style="stop-color:white;stop-opacity:0"/></linearGradient><linearGradient id="linearGradient6468"><stop id="stop6470" offset="0" style="stop-color:white;stop-opacity:1"/><stop id="stop6472" offset="1" style="stop-color:#b9b9b0;stop-opacity:1"/></linearGradient><linearGradient id="linearGradient6482"><stop id="stop6484" offset="0" style="stop-color:black;stop-opacity:1"/><stop id="stop6486" offset="1" style="stop-color:black;stop-opacity:0"/></linearGradient><linearGradient id="linearGradient6492"><stop id="stop6494" offset="0" style="stop-color:black;stop-opacity:1"/><stop id="stop6496" offset="1" style="stop-color:black;stop-opacity:0"/></linearGradient><linearGradient id="linearGradient6500"><stop id="stop6502" offset="0" style="stop-color:#857c63;stop-opacity:1"/><stop id="stop6504" offset="1" style="stop-color:#221f19;stop-opacity:1"/></linearGradient><linearGradient id="linearGradient6951"><stop id="stop6953" offset="0" style="stop-color:#6e3d09;stop-opacity:1"/><stop style="stop-color:#ea8113;stop-opacity:1" id="stop6959" offset=".242"/><stop id="stop6961" offset=".621" style="stop-color:#5c3307;stop-opacity:1"/><stop id="stop6955" offset="1" style="stop-color:#e07c12;stop-opacity:1"/></linearGradient><linearGradient id="linearGradient6939"><stop id="stop6941" offset="0" style="stop-color:#bdbdbd;stop-opacity:1"/><stop style="stop-color:#e2e2e2;stop-opacity:1" id="stop6947" offset=".333"/><stop id="stop6949" offset=".667" style="stop-color:#a3a3a3;stop-opacity:1"/><stop id="stop6943" offset="1" style="stop-color:#ddd;stop-opacity:1"/></linearGradient><linearGradient id="linearGradient6963"><stop id="stop6965" offset="0" style="stop-color:#696969;stop-opacity:1"/><stop id="stop6967" offset="1" style="stop-color:#000;stop-opacity:1"/></linearGradient><linearGradient id="linearGradient2446"><stop id="stop2448" offset="0" style="stop-color:#fff;stop-opacity:1"/><stop id="stop2450" offset="1" style="stop-color:#fff;stop-opacity:0"/></linearGradient><linearGradient id="linearGradient8524"><stop id="stop8526" offset="0" style="stop-color:white;stop-opacity:1"/><stop id="stop8528" offset="1" style="stop-color:white;stop-opacity:0"/></linearGradient><linearGradient id="linearGradient8534"><stop id="stop8536" offset="0" style="stop-color:black;stop-opacity:1"/><stop id="stop8538" offset="1" style="stop-color:black;stop-opacity:0"/></linearGradient><linearGradient id="linearGradient8542"><stop id="stop8544" offset="0" style="stop-color:#5b676b;stop-opacity:1"/><stop id="stop8546" offset="1" style="stop-color:#141718;stop-opacity:1"/></linearGradient><linearGradient id="linearGradient3780" x1="24.512" x2="24.512" y1="5.873" y2="16.561" gradientTransform="translate(156.1887,-121.9111)" gradientUnits="userSpaceOnUse" xlink:href="#linearGradient2622"/><linearGradient id="linearGradient3776" x1="32.828" x2="60.071" y1="7.921" y2="7.868" gradientTransform="matrix(0.750458,0,0,1.33252,156.1887,-121.9111)" gradientUnits="userSpaceOnUse" xlink:href="#linearGradient2580"/><linearGradient id="linearGradient3773" x1="24.588" x2="22.436" y1="39.067" y2="15.192" gradientTransform="translate(156.1887,-121.9111)" gradientUnits="userSpaceOnUse" xlink:href="#linearGradient2614"/><linearGradient id="linearGradient3770" x1="21.53" x2="25.375" y1="20.313" y2="26.625" gradientTransform="translate(156.1887,-121.9111)" gradientUnits="userSpaceOnUse" xlink:href="#linearGradient2630"/><linearGradient id="linearGradient3766" x1="25.851" x2="24.996" y1="37.625" y2="25.25" gradientTransform="translate(156.1887,-121.9111)" gradientUnits="userSpaceOnUse" xlink:href="#linearGradient2339"/><linearGradient id="linearGradient3762" x1="25.851" x2="24.996" y1="37.625" y2="25.25" gradientUnits="userSpaceOnUse" xlink:href="#linearGradient2339"/><linearGradient id="linearGradient3760" x1="21.53" x2="25.375" y1="20.313" y2="26.625" gradientUnits="userSpaceOnUse" xlink:href="#linearGradient2630"/><linearGradient id="linearGradient3758" x1="24.588" x2="22.436" y1="39.067" y2="15.192" gradientUnits="userSpaceOnUse" xlink:href="#linearGradient2614"/><linearGradient id="linearGradient3756" x1="32.828" x2="60.071" y1="7.921" y2="7.868" gradientTransform="scale(0.750458,1.33252)" gradientUnits="userSpaceOnUse" xlink:href="#linearGradient2580"/><linearGradient id="linearGradient3754" x1="24.512" x2="24.512" y1="5.873" y2="16.561" gradientUnits="userSpaceOnUse" xlink:href="#linearGradient2622"/><linearGradient id="linearGradient2630"><stop style="stop-color:#fff;stop-opacity:1" id="stop2632" offset="0"/><stop style="stop-color:#fff;stop-opacity:0" id="stop2634" offset="1"/></linearGradient><linearGradient id="linearGradient2622"><stop style="stop-color:#e4a05d;stop-opacity:1" id="stop2624" offset="0"/><stop style="stop-color:#af651d;stop-opacity:1" id="stop2626" offset="1"/></linearGradient><linearGradient id="linearGradient2614"><stop style="stop-color:#e3aa57;stop-opacity:1" id="stop2616" offset="0"/><stop style="stop-color:#eabd7c;stop-opacity:1" id="stop2618" offset="1"/></linearGradient><linearGradient id="linearGradient2580"><stop id="stop2582" offset="0" style="stop-color:#fff;stop-opacity:1"/><stop id="stop2586" offset="1" style="stop-color:#729fcf;stop-opacity:0"/></linearGradient><linearGradient id="linearGradient2339"><stop style="stop-color:#fff;stop-opacity:1" id="stop2341" offset="0"/><stop style="stop-color:#fff;stop-opacity:0" id="stop2343" offset="1"/></linearGradient><linearGradient id="linearGradient320" x1="32.828" x2="60.071" y1="7.921" y2="7.868" gradientTransform="scale(0.750458,1.33252)" gradientUnits="userSpaceOnUse" xlink:href="#linearGradient2580"/><linearGradient id="linearGradient2345" x1="25.851" x2="24.996" y1="37.625" y2="25.25" gradientUnits="userSpaceOnUse" xlink:href="#linearGradient2339"/><linearGradient id="linearGradient2620" x1="24.588" x2="22.436" y1="39.067" y2="15.192" gradientUnits="userSpaceOnUse" xlink:href="#linearGradient2614"/><linearGradient id="linearGradient2628" x1="24.512" x2="24.512" y1="5.873" y2="16.561" gradientUnits="userSpaceOnUse" xlink:href="#linearGradient2622"/><linearGradient id="linearGradient2636" x1="21.53" x2="25.375" y1="20.313" y2="26.625" gradientUnits="userSpaceOnUse" xlink:href="#linearGradient2630"/><linearGradient id="linearGradient4622" x1="25.355" x2="25.355" y1="34.007" y2="32.409" gradientUnits="userSpaceOnUse" xlink:href="#linearGradient4616"/><radialGradient id="radialGradient4915" cx="-6.007" cy="32.837" r="9.906" fx="-6.007" fy="32.837" gradientTransform="matrix(1,-1.487184e-8,1.425535e-8,0.958546,22.7158,1.575973)" gradientUnits="userSpaceOnUse" xlink:href="#linearGradient4928"/><radialGradient id="radialGradient2823" cx="23.584" cy="43.636" r="22.728" fx="23.584" fy="43.636" gradientTransform="matrix(0.917623,-1.354978e-3,3.632022e-4,0.148463,1.926889,37.03865)" gradientUnits="userSpaceOnUse" xlink:href="#linearGradient2817"/><linearGradient id="linearGradient2813" x1="34.197" x2="17.161" y1="33.726" y2="17.397" gradientUnits="userSpaceOnUse" xlink:href="#linearGradient2807"/><linearGradient id="linearGradient2071" x1="-11.986" x2="-11.986" y1="13.123" y2="29.727" gradientTransform="translate(36,2.980232e-8)" gradientUnits="userSpaceOnUse" xlink:href="#linearGradient2065"/><linearGradient id="linearGradient2065"><stop id="stop2067" offset="0" style="stop-color:#555753"/><stop id="stop2069" offset="1" style="stop-color:#fcaf3e"/></linearGradient><linearGradient id="linearGradient2807"><stop id="stop2809" offset="0" style="stop-color:#d3d7cf"/><stop id="stop2811" offset="1" style="stop-color:#eeeeec"/></linearGradient><linearGradient id="linearGradient2817"><stop id="stop2819" offset="0" style="stop-color:#000;stop-opacity:1"/><stop id="stop2821" offset="1" style="stop-color:#000;stop-opacity:0"/></linearGradient><linearGradient id="linearGradient4928"><stop style="stop-color:#fce94f;stop-opacity:1" id="stop4930" offset="0"/><stop style="stop-color:#fce94f;stop-opacity:0" id="stop4932" offset="1"/></linearGradient><linearGradient id="linearGradient4616"><stop id="stop4618" offset="0" style="stop-color:#2e3436;stop-opacity:1"/><stop id="stop4620" offset="1" style="stop-color:#2e3436;stop-opacity:0"/></linearGradient><linearGradient id="linearGradient7356" x1="25.355" x2="25.355" y1="34.007" y2="32.409" gradientTransform="matrix(0.748925,0,0,0.748925,56.45929,16.65945)" gradientUnits="userSpaceOnUse" xlink:href="#linearGradient4616"/><radialGradient id="radialGradient7359" cx="-6.007" cy="32.837" r="9.906" fx="-6.007" fy="32.837" gradientTransform="matrix(0.748925,-1.113789e-8,1.067619e-8,0.717879,73.47172,17.83974)" gradientUnits="userSpaceOnUse" xlink:href="#linearGradient4928"/><linearGradient id="linearGradient7362" x1="-11.986" x2="-11.986" y1="13.123" y2="29.727" gradientTransform="matrix(0.748925,0,0,0.748925,83.42059,16.65945)" gradientUnits="userSpaceOnUse" xlink:href="#linearGradient2065"/><linearGradient id="linearGradient7365" x1="34.197" x2="17.161" y1="33.726" y2="17.397" gradientTransform="matrix(0.748925,0,0,0.748925,56.45929,16.65945)" gradientUnits="userSpaceOnUse" xlink:href="#linearGradient2807"/><linearGradient id="linearGradient7384" x1="-11.986" x2="-11.986" y1="13.123" y2="29.727" gradientTransform="matrix(0.748925,0,0,0.748925,83.42059,16.65945)" gradientUnits="userSpaceOnUse" xlink:href="#linearGradient2065"/><radialGradient id="radialGradient7386" cx="-6.007" cy="32.837" r="9.906" fx="-6.007" fy="32.837" gradientTransform="matrix(0.748925,-1.113789e-8,1.067619e-8,0.717879,73.47172,17.83974)" gradientUnits="userSpaceOnUse" xlink:href="#linearGradient4928"/><linearGradient id="linearGradient7388" x1="25.355" x2="25.355" y1="34.007" y2="32.409" gradientTransform="matrix(0.748925,0,0,0.748925,56.45929,16.65945)" gradientUnits="userSpaceOnUse" xlink:href="#linearGradient4616"/><linearGradient id="linearGradient7404" x1="302.857" x2="302.857" y1="366.648" y2="609.505" gradientTransform="matrix(2.774389,0,0,1.969706,-1892.179,-872.8854)" gradientUnits="userSpaceOnUse" xlink:href="#linearGradient5048"/><radialGradient id="radialGradient7406" cx="605.714" cy="486.648" r="117.143" fx="605.714" fy="486.648" gradientTransform="matrix(2.774389,0,0,1.969706,-1891.633,-872.8854)" gradientUnits="userSpaceOnUse" xlink:href="#linearGradient5060"/><radialGradient id="radialGradient7408" cx="605.714" cy="486.648" r="117.143" fx="605.714" fy="486.648" gradientTransform="matrix(-2.774389,0,0,1.969706,112.7623,-872.8854)" gradientUnits="userSpaceOnUse" xlink:href="#linearGradient5060"/><linearGradient id="linearGradient7410" x1="17.881" x2="17.881" y1="11.073" y2="21.768" gradientTransform="translate(0,-0.441941)" gradientUnits="userSpaceOnUse" xlink:href="#linearGradient3832"/></defs><metadata id="metadata4"/><g id="layer1"><g style="display:inline" id="g5022" transform="matrix(1.721897e-2,0,0,1.929202e-2,35.10897,27.43928)"><rect id="rect4173" width="1339.633" height="478.357" x="-1559.252" y="-150.697" style="opacity:.40206185;color:#000;fill:url(#linearGradient5027);fill-opacity:1;fill-rule:nonzero;stroke:none;stroke-width:1;stroke-linecap:round;stroke-linejoin:miter;marker:none;marker-start:none;marker-mid:none;marker-end:none;stroke-miterlimit:4;stroke-dasharray:none;stroke-dashoffset:0;stroke-opacity:1;visibility:visible;display:inline;overflow:visible"/><path id="path5058" d="M -219.61876,-150.68038 C -219.61876,-150.68038 -219.61876,327.65041 -219.61876,327.65041 C -76.744594,328.55086 125.78146,220.48075 125.78138,88.454235 C 125.78138,-43.572302 -33.655436,-150.68036 -219.61876,-150.68038 z" style="opacity:.40206185;color:#000;fill:url(#radialGradient5029);fill-opacity:1;fill-rule:nonzero;stroke:none;stroke-width:1;stroke-linecap:round;stroke-linejoin:miter;marker:none;marker-start:none;marker-mid:none;marker-end:none;stroke-miterlimit:4;stroke-dasharray:none;stroke-dashoffset:0;stroke-opacity:1;visibility:visible;display:inline;overflow:visible"/><path style="opacity:.40206185;color:#000;fill:url(#radialGradient5031);fill-opacity:1;fill-rule:nonzero;stroke:none;stroke-width:1;stroke-linecap:round;stroke-linejoin:miter;marker:none;marker-start:none;marker-mid:none;marker-end:none;stroke-miterlimit:4;stroke-dasharray:none;stroke-dashoffset:0;stroke-opacity:1;visibility:visible;display:inline;overflow:visible" id="path5018" d="M -1559.2523,-150.68038 C -1559.2523,-150.68038 -1559.2523,327.65041 -1559.2523,327.65041 C -1702.1265,328.55086 -1904.6525,220.48075 -1904.6525,88.454235 C -1904.6525,-43.572302 -1745.2157,-150.68036 -1559.2523,-150.68038 z"/></g><g id="g3860" transform="matrix(1.677266,0,0,1.637709,-2.89505,-7.809027)"><rect style="opacity:1;color:#000;fill:url(#linearGradient3866);fill-opacity:1;fill-rule:evenodd;stroke:#888a85;stroke-width:.60336596;stroke-linecap:butt;stroke-linejoin:miter;marker:none;marker-start:none;marker-mid:none;marker-end:none;stroke-miterlimit:4;stroke-dasharray:none;stroke-dashoffset:0;stroke-opacity:1;visibility:visible;display:inline;overflow:visible" id="rect3862" width="16.087" height="15.884" x="5.5" y="7.55" rx=".659" ry=".675"/><rect style="opacity:1;color:#000;fill:#555753;fill-opacity:1;fill-rule:evenodd;stroke:none;stroke-width:1;stroke-linecap:butt;stroke-linejoin:miter;marker:none;marker-start:none;marker-mid:none;marker-end:none;stroke-miterlimit:4;stroke-dasharray:none;stroke-dashoffset:0;stroke-opacity:1;visibility:visible;display:inline;overflow:visible" id="rect3864" width="14.309" height="1.221" x="6.384" y="8.47" rx=".133" ry=".136"/></g><g id="g3180" transform="matrix(0.427649,0,0,0.427649,9.482596,8.092104)"><path id="path6490" d="M 41.25 33.9375 A 18.25 5.1875 0 1 1 4.75,33.9375 A 18.25 5.1875 0 1 1 41.25 33.9375 z" transform="matrix(1,0,0,1.53012,0.125,-19.99096)" style="color:#000;fill:url(#radialGradient4502);fill-opacity:1;fill-rule:evenodd;stroke:none;stroke-width:.9999997;stroke-linecap:butt;stroke-linejoin:miter;marker:none;marker-start:none;marker-mid:none;marker-end:none;stroke-miterlimit:10;stroke-dasharray:none;stroke-dashoffset:0;stroke-opacity:1;visibility:visible;display:inline;overflow:visible"/><path id="path4323" d="M 10.374369,12.467884 C 10.374369,12.467884 13.248878,18.395518 19.973611,18.228291 C 34.066126,17.874738 37.663697,10.833367 38.01725,9.7727069 C 38.370804,8.7120467 38.808442,8.5626825 38.933515,9.542947 C 42.652822,50.604581 6.2327708,35.115898 4.717514,26.256467 C 11.965359,24.135147 10.197592,20.069282 10.197592,20.069282 L 10.374369,12.467884 z" style="color:#000;fill:url(#radialGradient4491);fill-opacity:1;fill-rule:evenodd;stroke:#2e3436;stroke-width:2.33836317;stroke-linecap:butt;stroke-linejoin:miter;marker:none;marker-start:none;marker-mid:none;marker-end:none;stroke-miterlimit:10;stroke-dasharray:none;stroke-dashoffset:0;stroke-opacity:1;visibility:visible;display:inline;overflow:visible"/><path id="path6480" d="M 15.73779,30.066049 C 22.47669,31.413886 25.908481,30.164142 27.916965,28.613273 C 27.386635,27.928263 26.480655,27.176962 26.480655,27.176962 C 26.480655,27.176962 27.792031,27.424844 28.646169,28.326011 C 29.230787,28.942817 29.284433,29.939232 29.156575,31.303895 C 29.028717,30.724015 28.815157,30.36291 28.64931,29.952961 C 26.843042,32.140529 21.94512,32.257773 15.73779,30.066049 z" style="color:#000;fill:url(#linearGradient4488);fill-opacity:1;fill-rule:evenodd;stroke:none;stroke-width:.9999997;stroke-linecap:butt;stroke-linejoin:miter;marker:none;marker-start:none;marker-mid:none;marker-end:none;stroke-miterlimit:10;stroke-dasharray:none;stroke-dashoffset:0;stroke-opacity:1;visibility:visible;display:inline;overflow:visible"/><path id="path8520" d="M 37.25,13.875 C 36.641178,14.502237 36.154924,15.113598 35.21875,15.78125 C 32.187536,17.943024 27.348207,19.878148 20,20.0625 C 16.456978,20.150606 13.934868,18.729565 12.09375,17.1875 L 12.03125,19.9375 C 12.202198,20.546919 12.407582,21.606781 11.90625,23 C 11.352442,24.539051 9.8978367,26.034574 7.34375,27.1875 C 8.1724048,28.47299 9.6729429,30.132289 12.15625,31.5625 C 15.467326,33.469448 19.769673,34.850853 23.75,34.78125 C 27.730327,34.711647 31.31128,33.33594 33.875,29.65625 C 36.046541,26.539451 37.402344,21.406333 37.25,13.875 z" transform="matrix(0.913236,0,0,0.911233,1.881412,2.601469)" xlink:href="#path4323" style="opacity:.18539327;color:#000;fill:none;fill-opacity:1;fill-rule:evenodd;stroke:url(#linearGradient4500);stroke-width:2.56333804;stroke-linecap:butt;stroke-linejoin:miter;marker:none;marker-start:none;marker-mid:none;marker-end:none;stroke-miterlimit:10;stroke-dasharray:none;stroke-dashoffset:0;stroke-opacity:1;visibility:visible;display:inline;overflow:visible"/><path id="path5198" d="M 10.429825 27.228739 A 4.3310289 6.0987959 0 1 1 1.767767,27.228739 A 4.3310289 6.0987959 0 1 1 10.429825 27.228739 z" transform="matrix(0.810984,-0.585069,0.585069,0.810984,-14.77791,6.947121)" style="color:#000;fill:url(#radialGradient4496);fill-opacity:1;fill-rule:evenodd;stroke:#000;stroke-width:2.33836317;stroke-linecap:butt;stroke-linejoin:miter;marker:none;marker-start:none;marker-mid:none;marker-end:none;stroke-miterlimit:10;stroke-dasharray:none;stroke-dashoffset:0;stroke-opacity:1;visibility:visible;display:inline;overflow:visible"/><path id="path6450" d="M 6.09375,22.15625 C 5.2955008,22.15625 4.5406196,22.602421 3.90625,23.5 C 3.2718804,24.397579 2.8125,25.734204 2.8125,27.21875 C 2.8125,28.703296 3.2718804,30.039921 3.90625,30.9375 C 4.5406196,31.835079 5.2955011,32.28125 6.09375,32.28125 C 6.8919992,32.28125 7.6710339,31.804861 8.3125,30.90625 C 8.9539661,30.007639 9.40625,28.700064 9.40625,27.21875 C 9.40625,25.737436 8.9539662,24.429861 8.3125,23.53125 C 7.6710338,22.632639 6.8919989,22.15625 6.09375,22.15625 z" transform="matrix(0.577435,-0.384189,0.432491,0.512945,-9.100876,14.01754)" xlink:href="#path5198" style="opacity:.28089887;color:#000;fill:none;fill-opacity:1;fill-rule:evenodd;stroke:url(#linearGradient4498);stroke-width:3.43895483;stroke-linecap:butt;stroke-linejoin:miter;marker:none;marker-start:none;marker-mid:none;marker-end:none;stroke-miterlimit:10;stroke-dasharray:none;stroke-dashoffset:0;stroke-opacity:1;visibility:visible;display:inline;overflow:visible"/><path id="path6446" d="M 5.833631 23.251263 A 1.767767 2.1213202 0 1 1 2.2980971,23.251263 A 1.767767 2.1213202 0 1 1 5.833631 23.251263 z" style="color:#000;fill:#fff;fill-opacity:1;fill-rule:evenodd;stroke:none;stroke-width:.9999997;stroke-linecap:butt;stroke-linejoin:miter;marker:none;marker-start:none;marker-mid:none;marker-end:none;stroke-miterlimit:10;stroke-dasharray:none;stroke-dashoffset:0;stroke-opacity:1;visibility:visible;display:inline;overflow:visible"/><path id="path6460" d="M 72.655224 21.837049 A 3.1819806 3.1819806 0 1 1 66.291263,21.837049 A 3.1819806 3.1819806 0 1 1 72.655224 21.837049 z" transform="matrix(1.309929,0,0,1.309929,-75.01862,-5.854794)" style="color:#000;fill:#eeeeec;fill-opacity:1;fill-rule:evenodd;stroke:#888a85;stroke-width:.89255488;stroke-linecap:butt;stroke-linejoin:miter;marker:none;marker-start:none;marker-mid:none;marker-end:none;stroke-miterlimit:10;stroke-dasharray:none;stroke-dashoffset:0;stroke-opacity:1;visibility:visible;display:inline;overflow:visible"/><path style="color:#000;fill:url(#radialGradient4494);fill-opacity:1;fill-rule:evenodd;stroke:#888a85;stroke-width:.77945542;stroke-linecap:butt;stroke-linejoin:miter;marker:none;marker-start:none;marker-mid:none;marker-end:none;stroke-miterlimit:10;stroke-dasharray:none;stroke-dashoffset:0;stroke-opacity:1;visibility:visible;display:inline;overflow:visible" id="path6462" d="M 72.655224 21.837049 A 3.1819806 3.1819806 0 1 1 66.291263,21.837049 A 3.1819806 3.1819806 0 1 1 72.655224 21.837049 z" transform="matrix(1.5,0,0,1.5,-81.31945,-9.894336)"/><path id="path6464" d="M 24.041631 21.837049 A 2.2980971 2.2980971 0 1 1 19.445437,21.837049 A 2.2980971 2.2980971 0 1 1 24.041631 21.837049 z" transform="matrix(0.552574,0,0,0.552574,12.04025,11.86598)" style="color:#000;fill:#2e3436;fill-opacity:1;fill-rule:evenodd;stroke:#000;stroke-width:4.23176527;stroke-linecap:butt;stroke-linejoin:miter;marker:none;marker-start:none;marker-mid:none;marker-end:none;stroke-miterlimit:10;stroke-dasharray:none;stroke-dashoffset:0;stroke-opacity:1;visibility:visible;display:inline;overflow:visible"/><path id="path6466" d="M 23.157747 20.953165 A 1.767767 1.767767 0 1 1 19.622213,20.953165 A 1.767767 1.767767 0 1 1 23.157747 20.953165 z" transform="matrix(0.66139,0,0,0.66139,9.149562,9.216814)" style="color:#000;fill:#fff;fill-opacity:1;fill-rule:evenodd;stroke:none;stroke-width:.9999997;stroke-linecap:butt;stroke-linejoin:miter;marker:none;marker-start:none;marker-mid:none;marker-end:none;stroke-miterlimit:10;stroke-dasharray:none;stroke-dashoffset:0;stroke-opacity:1;visibility:visible;display:inline;overflow:visible"/><path style="color:#000;fill:#2e3436;fill-opacity:1;fill-rule:evenodd;stroke:#000;stroke-width:8.37371731;stroke-linecap:butt;stroke-linejoin:miter;marker:none;marker-start:none;marker-mid:none;marker-end:none;stroke-miterlimit:10;stroke-dasharray:none;stroke-dashoffset:0;stroke-opacity:1;visibility:visible;display:inline;overflow:visible" id="path6476" d="M 24.041631 21.837049 A 2.2980971 2.2980971 0 1 1 19.445437,21.837049 A 2.2980971 2.2980971 0 1 1 24.041631 21.837049 z" transform="matrix(0.27925,0,0,0.27925,10.23139,17.36042)"/><path style="color:#000;fill:#fff;fill-opacity:1;fill-rule:evenodd;stroke:none;stroke-width:.9999997;stroke-linecap:butt;stroke-linejoin:miter;marker:none;marker-start:none;marker-mid:none;marker-end:none;stroke-miterlimit:10;stroke-dasharray:none;stroke-dashoffset:0;stroke-opacity:1;visibility:visible;display:inline;overflow:visible" id="path6478" d="M 23.157747 20.953165 A 1.767767 1.767767 0 1 1 19.622213,20.953165 A 1.767767 1.767767 0 1 1 23.157747 20.953165 z" transform="matrix(0.553846,0,0,0.553846,3.934689,11.35029)"/><path id="path6937" d="M 35.763473,35.714292 L 37.292491,33.119422 C 34.540671,31.336344 31.185179,30.396579 28.667564,29.395715 C 28.667564,29.395715 27.27497,30.352615 27.27497,30.352615 C 29.686333,31.911615 32.652581,34.026276 35.763473,35.714292 z" style="color:#000;fill:url(#linearGradient4207);fill-opacity:1;fill-rule:nonzero;stroke:#673907;stroke-width:1.16918314;stroke-linecap:round;stroke-linejoin:miter;marker:none;marker-start:none;marker-mid:none;marker-end:none;stroke-miterlimit:4;stroke-dasharray:none;stroke-dashoffset:0;stroke-opacity:1;visibility:visible;display:inline;overflow:visible"/><path id="path6935" d="M 42.122514,38.650724 L 42.879589,37.236639 L 37.988857,33.617789 L 37.58367,33.555569 L 37.445463,32.979604 C 36.671643,33.394577 35.476313,35.049179 35.696976,36.039548 L 36.263098,35.867939 L 36.542676,36.177102 L 42.122514,38.650724 z" style="color:#000;fill:url(#linearGradient4204);fill-opacity:1;fill-rule:nonzero;stroke:#888a85;stroke-width:1.16918314;stroke-linecap:round;stroke-linejoin:miter;marker:none;marker-start:none;marker-mid:none;marker-end:none;stroke-miterlimit:4;stroke-dasharray:none;stroke-dashoffset:0;stroke-opacity:1;visibility:visible;display:inline;overflow:visible"/><path id="path6933" d="M 47.53951,46.273923 C 47.145171,40.368406 47.549165,35.839658 43.195967,35.278066 C 39.687893,34.825501 38.346748,39.697235 41.595313,41.850071 C 44.724705,43.923932 47.53951,46.273923 47.53951,46.273923 z" style="color:#000;fill:url(#radialGradient4201);fill-opacity:1;fill-rule:nonzero;stroke:none;stroke-width:.2;stroke-linecap:round;stroke-linejoin:miter;marker:none;marker-start:none;marker-mid:none;marker-end:none;stroke-miterlimit:4;stroke-dasharray:none;stroke-dashoffset:0;stroke-opacity:1;visibility:visible;display:inline;overflow:visible"/><path id="path6971" d="M 8.8749989 37.75 A 1.2499999 1.2499999 0 1 1 6.3749992,37.75 A 1.2499999 1.2499999 0 1 1 8.8749989 37.75 z" transform="matrix(-0.23154,-1.039181,1.039181,-0.23154,5.254334,54.09927)" style="opacity:.52777782;color:#000;fill:#fff;fill-opacity:1;fill-rule:nonzero;stroke:none;stroke-width:1;stroke-linecap:round;stroke-linejoin:miter;marker:none;marker-start:none;marker-mid:none;marker-end:none;stroke-miterlimit:4;stroke-dasharray:none;stroke-dashoffset:0;stroke-opacity:1;visibility:visible;display:inline;overflow:visible"/><path id="path1571" d="M 46.540795,41.779063 C 46.540795,41.779063 46.061634,38.988768 44.602635,38.524511 C 44.086446,38.360258 44.46712,37.670885 45.004774,37.940685 C 46.166091,38.523445 46.540795,41.779063 46.540795,41.779063 z" style="opacity:.42777776;color:#000;fill:url(#linearGradient4197);fill-opacity:1;fill-rule:nonzero;stroke:none;stroke-width:1;stroke-linecap:round;stroke-linejoin:miter;marker:none;marker-start:none;marker-mid:none;marker-end:none;stroke-miterlimit:4;stroke-dasharray:none;stroke-dashoffset:0;stroke-opacity:1;visibility:visible;display:inline;overflow:visible"/></g><g id="g7390" transform="matrix(1.721897e-2,0,0,1.929202e-2,46.2381,40.20911)" style="display:inline"><rect style="opacity:.40206185;color:#000;fill:url(#linearGradient7404);fill-opacity:1;fill-rule:nonzero;stroke:none;stroke-width:1;stroke-linecap:round;stroke-linejoin:miter;marker:none;marker-start:none;marker-mid:none;marker-end:none;stroke-miterlimit:4;stroke-dasharray:none;stroke-dashoffset:0;stroke-opacity:1;visibility:visible;display:inline;overflow:visible" id="rect7392" width="1339.633" height="478.357" x="-1559.252" y="-150.697"/><path style="opacity:.40206185;color:#000;fill:url(#radialGradient7406);fill-opacity:1;fill-rule:nonzero;stroke:none;stroke-width:1;stroke-linecap:round;stroke-linejoin:miter;marker:none;marker-start:none;marker-mid:none;marker-end:none;stroke-miterlimit:4;stroke-dasharray:none;stroke-dashoffset:0;stroke-opacity:1;visibility:visible;display:inline;overflow:visible" id="path7394" d="M -219.61876,-150.68038 C -219.61876,-150.68038 -219.61876,327.65041 -219.61876,327.65041 C -76.744594,328.55086 125.78146,220.48075 125.78138,88.454235 C 125.78138,-43.572302 -33.655436,-150.68036 -219.61876,-150.68038 z"/><path id="path7396" d="M -1559.2523,-150.68038 C -1559.2523,-150.68038 -1559.2523,327.65041 -1559.2523,327.65041 C -1702.1265,328.55086 -1904.6525,220.48075 -1904.6525,88.454235 C -1904.6525,-43.572302 -1745.2157,-150.68036 -1559.2523,-150.68038 z" style="opacity:.40206185;color:#000;fill:url(#radialGradient7408);fill-opacity:1;fill-rule:nonzero;stroke:none;stroke-width:1;stroke-linecap:round;stroke-linejoin:miter;marker:none;marker-start:none;marker-mid:none;marker-end:none;stroke-miterlimit:4;stroke-dasharray:none;stroke-dashoffset:0;stroke-opacity:1;visibility:visible;display:inline;overflow:visible"/></g><g id="g7398" transform="matrix(1.677266,0,0,1.637709,8.234069,5.225957)"><rect id="rect7400" width="16.087" height="15.884" x="5.5" y="7.55" rx=".659" ry=".675" style="opacity:1;color:#000;fill:url(#linearGradient7410);fill-opacity:1;fill-rule:evenodd;stroke:#888a85;stroke-width:.60336596;stroke-linecap:butt;stroke-linejoin:miter;marker:none;marker-start:none;marker-mid:none;marker-end:none;stroke-miterlimit:4;stroke-dasharray:none;stroke-dashoffset:0;stroke-opacity:1;visibility:visible;display:inline;overflow:visible"/><rect id="rect7402" width="14.309" height="1.221" x="6.384" y="8.47" rx=".133" ry=".136" style="opacity:1;color:#000;fill:#204a87;fill-opacity:1;fill-rule:evenodd;stroke:none;stroke-width:1;stroke-linecap:butt;stroke-linejoin:miter;marker:none;marker-start:none;marker-mid:none;marker-end:none;stroke-miterlimit:4;stroke-dasharray:none;stroke-dashoffset:0;stroke-opacity:1;visibility:visible;display:inline;overflow:visible"/></g><g id="g7376" transform="matrix(0.881296,0,0,1.054063,-34.60686,-4.111339)"><rect id="rect2063" width="26.233" height="17.974" x="61.327" y="25.272" rx=".496" ry=".415" style="fill:url(#linearGradient7384);fill-opacity:1;stroke:#babdb6;stroke-width:1.03754199;stroke-linecap:round;stroke-linejoin:round;stroke-miterlimit:4;stroke-dasharray:none;stroke-dashoffset:0;stroke-opacity:1"/><path id="path4898" d="M 68.504842,33.54904 C 64.633814,33.794653 61.553881,37.035426 61.553881,40.968078 C 61.553881,41.119949 61.568268,41.263136 61.577285,41.412752 L 76.368554,41.412752 C 76.377572,41.263136 76.391958,41.119949 76.391958,40.968078 C 76.391958,36.875561 73.065436,33.54904 68.97292,33.54904 C 68.813056,33.54904 68.662201,33.539056 68.504842,33.54904 z" style="color:#000;fill:url(#radialGradient7386);fill-opacity:1;fill-rule:evenodd;stroke:none;stroke-width:1;stroke-linecap:round;stroke-linejoin:round;marker:none;marker-start:none;marker-mid:none;marker-end:none;stroke-miterlimit:4;stroke-dasharray:none;stroke-dashoffset:0;stroke-opacity:1;visibility:visible;display:inline;overflow:visible"/><rect id="rect1324" width="25.463" height="1.498" x="61.702" y="41.374" rx="0" ry="0" style="fill:url(#linearGradient7388);fill-opacity:1;stroke:none;stroke-width:1;stroke-linecap:round;stroke-linejoin:round;stroke-miterlimit:4;stroke-dasharray:none;stroke-dashoffset:0;stroke-opacity:1"/><path id="path2079" d="M 78.594206,42.102134 C 78.594206,42.102134 78.178115,39.792932 78.178115,38.378275 C 78.189655,37.732927 84.009775,32.705461 84.02479,31.9566 L 82.671665,33.1358 L 81.724151,30.558044 L 84.91844,30.889025 L 86.41629,29.391175 L 84.719851,30.636572 L 84.136417,30.504179 L 83.42059,27.893325 L 83.784669,30.437983 L 81.140717,30.305591 L 81.96817,32.411539 L 79.675965,30.1401 L 82.100563,33.30166 C 82.100626,34.006794 77.321766,38.311371 77.329895,37.569134 L 75.347906,34.910766 L 75.182415,31.316982 L 76.680265,30.889025 L 77.992498,27.653204 L 76.262691,30.643897 L 74.912253,30.582707 L 71.889301,28.029615 L 67.738595,26.440905 L 71.284631,28.389797 L 68.44209,28.64225 L 72.186715,28.64225 L 74.43349,30.889025 L 74.698275,34.76994 L 70.688865,30.889025 L 72.374921,32.916445 L 69.93994,34.63365 L 72.614672,33.1358 L 76.845756,38.465238 L 76.680265,42.102134 L 78.594206,42.102134 z" style="fill:#000;fill-opacity:1;fill-rule:evenodd;stroke:none;stroke-width:1px;stroke-linecap:butt;stroke-linejoin:miter;stroke-opacity:1"/><path style="color:#000;fill:#fef39e;fill-opacity:1;fill-rule:evenodd;stroke:none;stroke-width:1;stroke-linecap:round;stroke-linejoin:round;marker:none;marker-start:none;marker-mid:none;marker-end:none;stroke-miterlimit:4;stroke-dasharray:none;stroke-dashoffset:0;stroke-opacity:1;visibility:visible;display:inline;overflow:visible" id="path4924" d="M 68.717495,38.055881 C 66.605123,38.158661 64.924442,39.514806 64.924442,41.160476 C 64.924442,41.224029 64.932292,41.283947 64.937212,41.346556 L 73.008626,41.346556 C 73.013548,41.283947 73.021398,41.224029 73.021398,41.160476 C 73.021398,39.447909 71.206156,38.055881 68.97292,38.055881 C 68.885684,38.055881 68.803364,38.051703 68.717495,38.055881 z"/><path id="path4926" d="M 68.778119,38.614411 C 67.167116,38.698306 65.885342,39.805247 65.885342,41.148511 C 65.885342,41.200384 65.891329,41.249292 65.895081,41.300396 L 72.050757,41.300396 C 72.05451,41.249292 72.060498,41.200384 72.060498,41.148511 C 72.060498,39.750642 70.676101,38.614411 68.97292,38.614411 C 68.906389,38.614411 68.843608,38.611002 68.778119,38.614411 z" style="color:#000;fill:#fffbd7;fill-opacity:.55681817;fill-rule:evenodd;stroke:none;stroke-width:1;stroke-linecap:round;stroke-linejoin:round;marker:none;marker-start:none;marker-mid:none;marker-end:none;stroke-miterlimit:4;stroke-dasharray:none;stroke-dashoffset:0;stroke-opacity:1;visibility:visible;display:inline;overflow:visible"/></g></g></svg>