<svg xmlns="http://www.w3.org/2000/svg" xmlns:svg="http://www.w3.org/2000/svg" xmlns:xlink="http://www.w3.org/1999/xlink" id="svg1" width="48" height="48" x="0" y="0" version="1.0"><metadata id="metadata162"/><defs id="defs3"><linearGradient id="linearGradient4734"><stop style="stop-color:#cccdbc;stop-opacity:1" id="stop4736" offset="0"/><stop style="stop-color:#b9baa4;stop-opacity:1" id="stop4738" offset="1"/></linearGradient><linearGradient id="linearGradient2339"><stop style="stop-color:#fff;stop-opacity:1" id="stop2341" offset="0"/><stop style="stop-color:#fff;stop-opacity:0" id="stop2343" offset="1"/></linearGradient><linearGradient id="linearGradient2345" x1="25.851" x2="24.996" y1="37.625" y2="25.25" gradientUnits="userSpaceOnUse" xlink:href="#linearGradient2339"/><linearGradient id="linearGradient356"><stop style="stop-color:#fffff3;stop-opacity:1" id="stop357" offset="0"/><stop style="stop-color:#fffff3;stop-opacity:0" id="stop358" offset="1"/></linearGradient><linearGradient id="linearGradient311"><stop style="stop-color:#cfcfc4;stop-opacity:1" id="stop312" offset="0"/><stop style="stop-color:#cfcfc4;stop-opacity:1" id="stop335" offset=".327"/><stop style="stop-color:#cfcfc4;stop-opacity:0" id="stop313" offset="1"/></linearGradient><linearGradient id="linearGradient235"><stop style="stop-color:#59594a;stop-opacity:1" id="stop236" offset="0"/><stop style="stop-color:#a2a491;stop-opacity:1" id="stop237" offset="1"/></linearGradient><linearGradient id="linearGradient253" x1="24.983" x2="24.983" y1="22.828" y2="8.374" gradientTransform="scale(1.068312,0.936056)" gradientUnits="userSpaceOnUse" xlink:href="#linearGradient235"/><linearGradient id="linearGradient320" x1="32.828" x2="60.071" y1="7.921" y2="7.868" gradientTransform="scale(0.750458,1.332520)" gradientUnits="userSpaceOnUse" xlink:href="#linearGradient311"/><linearGradient id="linearGradient355" x1="23.643" x2="28.443" y1="12.818" y2="25.232" gradientTransform="scale(0.806859,1.239374)" gradientUnits="userSpaceOnUse" xlink:href="#linearGradient356"/><linearGradient id="linearGradient4740" x1="24.588" x2="24.588" y1="1.899" y2="40.859" gradientUnits="userSpaceOnUse" xlink:href="#linearGradient4734"/><linearGradient id="linearGradient6951"><stop id="stop6953" offset="0" style="stop-color:#6e3d09;stop-opacity:1"/><stop style="stop-color:#ea8113;stop-opacity:1" id="stop6959" offset=".242"/><stop id="stop6961" offset=".621" style="stop-color:#5c3307;stop-opacity:1"/><stop id="stop6955" offset="1" style="stop-color:#e07c12;stop-opacity:1"/></linearGradient><linearGradient id="linearGradient6939"><stop id="stop6941" offset="0" style="stop-color:#bdbdbd;stop-opacity:1"/><stop style="stop-color:#e2e2e2;stop-opacity:1" id="stop6947" offset=".333"/><stop id="stop6949" offset=".667" style="stop-color:#a3a3a3;stop-opacity:1"/><stop id="stop6943" offset="1" style="stop-color:#ddd;stop-opacity:1"/></linearGradient><linearGradient id="linearGradient6975"><stop id="stop6977" offset="0" style="stop-color:#000;stop-opacity:1"/><stop id="stop6979" offset="1" style="stop-color:#000;stop-opacity:0"/></linearGradient><linearGradient id="linearGradient6963"><stop id="stop6965" offset="0" style="stop-color:#696969;stop-opacity:1"/><stop id="stop6967" offset="1" style="stop-color:#000;stop-opacity:1"/></linearGradient><linearGradient id="linearGradient2075" x1="28.059" x2="33.437" y1="18.868" y2="23.743" gradientTransform="matrix(0.573976,-5.028503e-2,5.028503e-2,0.573976,-3.900241,-2.419328)" gradientUnits="userSpaceOnUse" xlink:href="#linearGradient6951"/><linearGradient id="linearGradient2077" x1="19.395" x2="23.109" y1="30.001" y2="33.439" gradientTransform="matrix(0.885182,-0.14859,0.14859,0.885182,-12.79968,-11.59047)" gradientUnits="userSpaceOnUse" xlink:href="#linearGradient6939"/><radialGradient id="radialGradient2079" cx="26.782" cy="42.343" r="14.407" fx="26.782" fy="42.343" gradientTransform="matrix(1,0,0,0.282209,0,30.39355)" gradientUnits="userSpaceOnUse" xlink:href="#linearGradient6975"/><radialGradient id="radialGradient2081" cx="15.415" cy="35.357" r="7.579" fx="15.415" fy="35.357" gradientTransform="matrix(0.3814,0,0,0.371686,0.265529,4.587942)" gradientUnits="userSpaceOnUse" xlink:href="#linearGradient6963"/><radialGradient id="radialGradient2971" cx="15.415" cy="35.357" r="7.579" fx="15.415" fy="35.357" gradientTransform="matrix(0.584317,0,0,0.549734,17.99491,22.19836)" gradientUnits="userSpaceOnUse" xlink:href="#linearGradient6963"/><linearGradient id="linearGradient2975" x1="19.395" x2="23.109" y1="30.001" y2="33.439" gradientTransform="matrix(1.356127,-0.219769,0.227645,1.309208,-2.021409,-1.729948)" gradientUnits="userSpaceOnUse" xlink:href="#linearGradient6939"/><linearGradient id="linearGradient2979" x1="28.059" x2="33.437" y1="18.868" y2="23.743" gradientTransform="matrix(0.87935,-7.437292e-2,7.703828e-2,0.848926,11.61282,11.83442)" gradientUnits="userSpaceOnUse" xlink:href="#linearGradient6951"/><radialGradient id="radialGradient2981" cx="26.782" cy="42.343" r="14.407" fx="26.782" fy="42.343" gradientTransform="matrix(1,0,0,0.282209,0,30.39355)" gradientUnits="userSpaceOnUse" xlink:href="#linearGradient6975"/><linearGradient id="linearGradient3782" x1="7.689" x2="7.689" y1="1038.814" y2="1052.522" gradientTransform="matrix(-1.0835957,0,4.1532145e-8,1.0362997,22.714477,-38.456346)" gradientUnits="userSpaceOnUse" xlink:href="#linearGradient4121"/><linearGradient id="linearGradient4119" x1="7.689" x2="7.689" y1="1038.814" y2="1052.522" gradientTransform="matrix(-1.0835957,0,4.1532145e-8,1.0362997,22.714477,-38.456346)" gradientUnits="userSpaceOnUse" xlink:href="#linearGradient4121"/><linearGradient id="linearGradient4111" x1="4.785" x2="15.973" y1="1039.255" y2="1051.917" gradientUnits="userSpaceOnUse" xlink:href="#linearGradient4026"/><linearGradient id="linearGradient4087" x1="4.785" x2="15.973" y1="1039.255" y2="1051.917" gradientUnits="userSpaceOnUse" xlink:href="#linearGradient4026"/><linearGradient id="linearGradient3971"><stop id="stop3973" offset="0" style="stop-color:#c00;stop-opacity:1"/><stop id="stop3975" offset="1" style="stop-color:#fffcfc;stop-opacity:1"/></linearGradient><linearGradient id="linearGradient4016"><stop id="stop4018" offset="0" style="stop-color:#eeeeec;stop-opacity:1"/><stop id="stop4020" offset="1" style="stop-color:#eeeeec;stop-opacity:1"/></linearGradient><linearGradient id="linearGradient4026"><stop id="stop4028" offset="0" style="stop-color:#888a85;stop-opacity:1"/><stop id="stop4030" offset="1" style="stop-color:#f2f2f2;stop-opacity:1"/></linearGradient><linearGradient id="linearGradient4121"><stop style="stop-color:#3466a4;stop-opacity:1" id="stop4123" offset="0"/><stop id="stop4057" offset="1" style="stop-color:#99b2d1;stop-opacity:1"/></linearGradient><linearGradient id="linearGradient4055" x1="24.942" x2="39.938" y1="38.113" y2="38.113" gradientUnits="userSpaceOnUse" xlink:href="#linearGradient4121"/></defs><g id="layer2" style="display:inline"><g id="g1197" transform="matrix(0.216083,0.000000,0.000000,0.263095,-0.893233,-10.24236)"><path style="opacity:.047872309;fill-rule:evenodd;stroke-width:3pt" id="path1196" d="M 32.706693,164.36026 C 22.319193,164.36026 13.956693,172.72276 13.956693,183.11026 C 13.956693,193.49776 22.319193,201.86026 32.706693,201.86026 L 205.20669,201.86026 C 215.59419,201.86026 223.95669,193.49776 223.95669,183.11026 C 223.95669,172.72276 215.59419,164.36026 205.20669,164.36026 L 32.706693,164.36026 z"/><path style="opacity:.047872309;fill-rule:evenodd;stroke-width:3pt" id="path1195" d="M 32.706693,165.61026 C 23.011693,165.61026 15.206693,173.41526 15.206693,183.11026 C 15.206693,192.80526 23.011693,200.61026 32.706693,200.61026 L 205.20669,200.61026 C 214.90169,200.61026 222.70669,192.80526 222.70669,183.11026 C 222.70669,173.41526 214.90169,165.61026 205.20669,165.61026 L 32.706693,165.61026 z"/><path style="opacity:.047872309;fill-rule:evenodd;stroke-width:3pt" id="path1194" d="M 32.706694,166.86026 C 23.704194,166.86026 16.456694,174.10776 16.456694,183.11026 C 16.456694,192.11276 23.704194,199.36026 32.706694,199.36026 L 205.20669,199.36026 C 214.20919,199.36026 221.45669,192.11276 221.45669,183.11026 C 221.45669,174.10776 214.20919,166.86026 205.20669,166.86026 L 32.706694,166.86026 z"/><path style="opacity:.047872309;fill-rule:evenodd;stroke-width:3pt" id="path1193" d="M 32.706694,168.11026 C 24.396694,168.11026 17.706694,174.80026 17.706694,183.11026 C 17.706694,191.42026 24.396694,198.11026 32.706694,198.11026 L 205.20669,198.11026 C 213.51669,198.11026 220.20669,191.42026 220.20669,183.11026 C 220.20669,174.80026 213.51669,168.11026 205.20669,168.11026 L 32.706694,168.11026 z"/><path style="opacity:.047872309;fill-rule:evenodd;stroke-width:3pt" id="path1192" d="M 32.707764,169.36026 C 25.090264,169.36026 18.957764,175.49276 18.957764,183.11026 C 18.957764,190.72776 25.090264,196.86026 32.707764,196.86026 L 205.20618,196.86026 C 212.82368,196.86026 218.95618,190.72776 218.95618,183.11026 C 218.95618,175.49276 212.82368,169.36026 205.20618,169.36026 L 32.707764,169.36026 z"/><path style="opacity:.047872309;fill-rule:evenodd;stroke-width:3pt" id="path1191" d="M 32.706694,170.61026 C 25.781694,170.61026 20.206694,176.18526 20.206694,183.11026 C 20.206694,190.03526 25.781694,195.61026 32.706694,195.61026 L 205.20669,195.61026 C 212.13169,195.61026 217.70669,190.03526 217.70669,183.11026 C 217.70669,176.18526 212.13169,170.61026 205.20669,170.61026 L 32.706694,170.61026 z"/><path style="opacity:.047872309;fill-rule:evenodd;stroke-width:3pt" id="path1190" d="M 32.706694,171.86026 C 26.474194,171.86026 21.456694,176.87776 21.456694,183.11026 C 21.456694,189.34276 26.474194,194.36026 32.706694,194.36026 L 205.20669,194.36026 C 211.43919,194.36026 216.45669,189.34276 216.45669,183.11026 C 216.45669,176.87776 211.43919,171.86026 205.20669,171.86026 L 32.706694,171.86026 z"/><path style="opacity:.047872309;fill-rule:evenodd;stroke-width:3pt" id="path1189" d="M 32.706694,173.11026 C 27.166694,173.11026 22.706694,177.57026 22.706694,183.11026 C 22.706694,188.65026 27.166694,193.11026 32.706694,193.11026 L 205.20669,193.11026 C 210.74669,193.11026 215.20669,188.65026 215.20669,183.11026 C 215.20669,177.57026 210.74669,173.11026 205.20669,173.11026 L 32.706694,173.11026 z"/></g><path style="fill:url(#linearGradient253);fill-opacity:1;fill-rule:evenodd;stroke:#555753;stroke-width:1;stroke-miterlimit:4;stroke-opacity:1" id="path895" d="M 5.4186638,5.4561100 C 4.9536872,5.4561100 4.6035534,5.6913368 4.6035534,6.1828330 L 4.6035534,39.203794 C 4.6035534,39.930940 5.0906584,40.415354 5.7526104,40.415354 L 43.489564,40.415354 C 44.155366,40.415354 44.419872,39.962588 44.419872,39.328794 L 44.419872,10.425912 C 44.419872,9.8829469 44.019585,9.5893540 43.520814,9.5893540 L 24.411490,9.5893540 C 24.074477,9.5893540 23.714810,9.3909280 23.517009,9.1180670 L 20.914778,5.9180580 C 20.696913,5.6175190 20.272703,5.4561250 19.901500,5.4561250 L 5.4186638,5.4561100 z"/><path style="fill:url(#linearGradient320);fill-opacity:1;fill-rule:evenodd;stroke:none;stroke-width:.25pt;stroke-linecap:butt;stroke-linejoin:miter;stroke-opacity:1;opacity:1;color:#000;marker:none;marker-start:none;marker-mid:none;marker-end:none;stroke-miterlimit:4;stroke-dasharray:none;stroke-dashoffset:0;visibility:visible;display:inline;overflow:visible" id="path315" d="M 5.0625000,7.9062500 L 5.0625000,36.156250 L 6.0312500,31.781250 L 6.2500000,9.1562500 C 6.2500000,8.4058274 6.7614657,8.0312500 7.4869586,8.0312500 L 19.093750,8.0312500 C 20.655346,8.0312500 22.108598,11.218750 24.411417,11.218750 C 30.383036,11.218750 43.749813,11.306338 43.750000,11.218750 L 43.750000,10.187500 L 24.218750,10.062500 C 22.362615,10.050621 21.088324,6.9062500 19.656250,6.9062500 L 6.2838336,6.9062500 C 5.4685048,6.9062500 5.0625000,7.2604161 5.0625000,7.9062500 z"/><path style="color:#000;fill:url(#linearGradient4740);fill-opacity:1;fill-rule:evenodd;stroke:#555753;stroke-width:.99999988;stroke-linecap:butt;stroke-linejoin:round;marker:none;marker-start:none;marker-mid:none;marker-end:none;stroke-miterlimit:4;stroke-dashoffset:0;stroke-opacity:1;visibility:visible;display:inline;overflow:visible" id="rect337" d="M 7.6864537,16.296282 L 15.619799,16.296282 C 16.361533,16.296282 16.987769,15.915471 17.306966,15.414278 C 17.443709,15.199569 18.574948,13.28855 18.66464,13.158052 C 18.963427,12.723328 19.437557,12.399136 20.006622,12.399136 L 43.048855,12.399136 C 43.851692,12.399136 44.498018,13.042925 44.498018,13.84261 L 44.498018,38.915459 C 44.498018,39.715143 43.851692,40.358932 43.048855,40.358932 L 6.1279084,40.358932 C 5.3250725,40.358932 4.6787461,39.715143 4.6787461,38.915459 L 4.6787461,19.481904 C 4.6787461,17.507539 5.8190623,16.296282 7.6864537,16.296282 z"/><path style="fill:url(#linearGradient355);fill-opacity:1;fill-rule:evenodd;stroke:none;stroke-width:.25pt;stroke-linecap:butt;stroke-linejoin:miter;stroke-miterlimit:4;stroke-opacity:1;opacity:1;color:#000;marker:none;marker-start:none;marker-mid:none;marker-end:none;stroke-dasharray:none;stroke-dashoffset:0;visibility:visible;display:inline;overflow:visible" id="path349" d="M 20.500000,13.750000 C 19.853581,13.750000 19.490960,14.031698 19.125000,14.500000 C 18.759040,14.968302 18.343502,15.671815 18.062500,16.218750 C 17.781498,16.765685 17.493409,17.272919 17.218750,17.625000 C 16.944091,17.977081 16.729167,18.125000 16.500000,18.125000 C 15.250000,18.125000 7.3428301,18.125000 6.8428301,18.125000 C 6.3844968,18.125000 6.0073599,18.355519 5.6865801,18.656250 C 5.3658003,18.956981 5.0928301,19.362500 5.0928301,19.875000 C 5.0928302,20.499998 5.0928301,39.250000 5.0928301,39.250000 L 6.0928301,39.250000 C 6.0928301,39.250000 6.0928302,20.500002 6.0928301,19.875000 C 6.0928301,19.762500 6.1948599,19.543019 6.3740801,19.375000 C 6.5533003,19.206981 6.8011635,19.125000 6.8428301,19.125000 C 7.3428301,19.125000 15.250000,19.125000 16.500000,19.125000 C 17.145833,19.125000 17.634731,18.718232 18.000000,18.250000 C 18.365269,17.781768 18.656559,17.203065 18.937500,16.656250 C 19.218441,16.109435 19.568667,15.477011 19.843750,15.125000 C 20.118833,14.772989 20.269189,14.750000 20.500000,14.750000 C 21.716667,14.750000 43.750000,14.875000 43.750000,14.875000 L 43.750000,13.875000 C 43.750000,13.875000 21.783333,13.750000 20.500000,13.750000 z"/><rect style="color:#000;fill:#fffffd;fill-opacity:1;fill-rule:evenodd;stroke:none;stroke-width:.25pt;stroke-linecap:butt;stroke-linejoin:miter;stroke-miterlimit:4;stroke-dashoffset:0;stroke-opacity:1;marker:none;marker-start:none;marker-mid:none;marker-end:none;visibility:visible;display:inline;overflow:visible" id="rect459" width="1.25" height="1.25" x="5.529" y="7.36" rx="1.443" ry="1.25"/><rect style="opacity:.28571429;color:#000;fill:none;fill-opacity:1;fill-rule:evenodd;stroke:url(#linearGradient2345);stroke-width:1.00000024;stroke-linecap:square;stroke-linejoin:round;marker:none;marker-start:none;marker-mid:none;marker-end:none;stroke-miterlimit:4;stroke-dasharray:none;stroke-dashoffset:0;stroke-opacity:1;visibility:visible;display:inline;overflow:visible" id="rect2337" width="37.958" height="23.625" x="5.538" y="15.75" rx=".438" ry=".438"/><path style="opacity:.3;color:#000;fill:url(#radialGradient2981);fill-opacity:1;fill-rule:nonzero;stroke:none;stroke-width:1;marker:none;visibility:visible;display:inline;overflow:visible" id="path6973" d="m 41.188971,42.343147 a 14.407301,4.0658641 0 1 1 -28.814602,0 14.407301,4.0658641 0 1 1 28.814602,0 z" transform="matrix(0.70059791,-0.00246067,0.00123295,0.72753074,13.968447,14.378119)"/><path style="fill:#e9b96e;fill-opacity:1;stroke:#5c3901;stroke-width:1.00649285;stroke-opacity:1" id="path3969" d="m 31.41547,42.722653 c 1.00047,0.234044 4.657428,-13.624099 4.957972,-14.866705 0.300919,-1.243082 0.142867,-2.344954 -0.8574,-2.578879 -1.000846,-0.232974 -1.644861,0.679785 -1.945301,1.92251 -0.30084,1.242726 -3.155754,15.289031 -2.155271,15.523074 z"/><path style="fill:#ef2929;fill-opacity:1;stroke:#a40000;stroke-width:.92069298;stroke-linejoin:round;stroke-miterlimit:4;stroke-opacity:1;stroke-dasharray:none" id="path3971" d="m 35.134647,25.83478 c 0.954334,0.369193 2.022278,-0.152265 2.385263,-1.164513 0.363496,-1.012366 -0.130335,-3.817681 -1.084377,-4.187111 -0.416039,1.847745 -1.990864,1.865574 -2.371856,2.849532 -0.363441,1.012129 0.116772,2.132543 1.07097,2.502092 z"/><path id="path3973" d="m 31.502819,42.94386 c 1.012246,-0.176276 -1.047715,-14.359988 -1.257602,-15.621137 -0.209728,-1.261625 -0.786516,-2.213728 -1.798527,-2.037452 -1.012172,0.177464 -1.24747,1.26947 -1.037441,2.530619 0.209661,1.261388 3.081314,15.304245 4.09357,15.12797 z" style="fill:#e9b96e;fill-opacity:1;stroke:#5c3901;stroke-width:1.00649285;stroke-opacity:1"/><path id="path3975" d="m 28.451759,26.095806 c 1.333056,-0.220968 1.763983,-0.977539 1.733221,-1.556765 -0.03077,-0.579225 -1.231236,-3.084289 -1.231236,-3.084289 -0.752962,0.063 -1.487405,0.211816 -2.225923,0.360753 0,0 -0.43167,2.787604 -0.327995,3.317025 0.103673,0.529303 0.719096,1.185433 2.052061,0.964108 z" style="fill:#fce94f;fill-opacity:1;stroke:#c4a000;stroke-width:.80430472;stroke-linejoin:round;stroke-miterlimit:4;stroke-opacity:1;stroke-dasharray:none"/><path style="fill:url(#linearGradient4055);fill-opacity:1;stroke:#122439;stroke-width:1.18864225999999995;stroke-opacity:1" id="path3977" d="m 25.997045,31.594227 12.944513,0.01189 c 0,0 0.351979,0.352908 0.343179,0.661836 -0.0088,0.308928 0.188806,2.836219 -0.09206,5.415573 -0.280871,2.579354 -0.567842,5.082991 -1.494486,5.890911 -1.065805,0.929281 -3.525985,1.063003 -5.235248,1.05813 -1.709263,0 -4.264717,0.02377 -5.27587,-0.99216 -1.011154,-1.015576 -1.242404,-3.543937 -1.514618,-6.05221 -0.272213,-2.508273 -0.05861,-4.975181 -0.02687,-5.316559 0.03174,-0.341259 0.351457,-0.676813 0.351461,-0.676813 z"/><path id="path4003" d="m 26.213205,32.685281 11.966748,-0.01189 c 0.153969,2.427089 -0.151236,9.106783 -1.15506,10.057697 -0.845936,0.801263 -2.895131,0.803997 -4.451369,0.799837 -1.556239,0 -4.009004,0.255202 -4.777276,-0.902655 -0.69428,-1.046362 -1.325702,-6.705607 -1.082132,-9.902579 z" style="fill:none;stroke:#a9c5e2;stroke-width:1.0335393;stroke-opacity:1"/></g></svg>