<svg xmlns="http://www.w3.org/2000/svg" xmlns:cc="http://web.resource.org/cc/" xmlns:svg="http://www.w3.org/2000/svg" xmlns:xlink="http://www.w3.org/1999/xlink" id="svg1306" width="48" height="48"><defs id="defs1308"><linearGradient id="linearGradient4169"><stop style="stop-color:white;stop-opacity:1" id="stop4171" offset="0"/><stop id="stop4177" offset=".5" style="stop-color:#e6ff8f;stop-opacity:.93203884"/><stop style="stop-color:#ff3a20;stop-opacity:.01941748" id="stop4173" offset="1"/></linearGradient><linearGradient id="linearGradient3932"><stop style="stop-color:#709bd2;stop-opacity:1" id="stop3934" offset="0"/><stop style="stop-color:#3465a4;stop-opacity:1" id="stop3936" offset="1"/></linearGradient><linearGradient id="linearGradient4928"><stop id="stop4930" offset="0" style="stop-color:#fce94f;stop-opacity:1"/><stop id="stop4932" offset="1" style="stop-color:#fce94f;stop-opacity:0"/></linearGradient><linearGradient id="linearGradient2817"><stop style="stop-color:#000;stop-opacity:1" id="stop2819" offset="0"/><stop style="stop-color:#000;stop-opacity:0" id="stop2821" offset="1"/></linearGradient><linearGradient id="linearGradient2807"><stop style="stop-color:#d3d7cf" id="stop2809" offset="0"/><stop style="stop-color:#eeeeec" id="stop2811" offset="1"/></linearGradient><linearGradient id="linearGradient2813" x1="34.197" x2="17.161" y1="33.726" y2="17.397" gradientUnits="userSpaceOnUse" xlink:href="#linearGradient2807"/><radialGradient id="radialGradient2823" cx="23.584" cy="43.636" r="22.728" fx="23.584" fy="43.636" gradientTransform="matrix(0.917623,-1.354978e-3,3.632022e-4,0.148463,1.926889,37.03865)" gradientUnits="userSpaceOnUse" xlink:href="#linearGradient2817"/><linearGradient id="linearGradient2636" x1="21.53" x2="25.375" y1="20.313" y2="26.625" gradientUnits="userSpaceOnUse" xlink:href="#linearGradient2630"/><linearGradient id="linearGradient2628" x1="24.512" x2="24.512" y1="5.873" y2="16.561" gradientUnits="userSpaceOnUse" xlink:href="#linearGradient2622"/><linearGradient id="linearGradient2620" x1="24.588" x2="22.436" y1="39.067" y2="15.192" gradientUnits="userSpaceOnUse" xlink:href="#linearGradient2614"/><linearGradient id="linearGradient2345" x1="25.851" x2="24.996" y1="37.625" y2="25.25" gradientUnits="userSpaceOnUse" xlink:href="#linearGradient2339"/><linearGradient id="linearGradient320" x1="32.828" x2="60.071" y1="7.921" y2="7.868" gradientTransform="scale(0.750458,1.33252)" gradientUnits="userSpaceOnUse" xlink:href="#linearGradient2580"/><linearGradient id="linearGradient2339"><stop id="stop2341" offset="0" style="stop-color:#fff;stop-opacity:1"/><stop id="stop2343" offset="1" style="stop-color:#fff;stop-opacity:0"/></linearGradient><linearGradient id="linearGradient2580"><stop style="stop-color:#fff;stop-opacity:1" id="stop2582" offset="0"/><stop style="stop-color:#729fcf;stop-opacity:0" id="stop2586" offset="1"/></linearGradient><linearGradient id="linearGradient2614"><stop id="stop2616" offset="0" style="stop-color:#e3aa57;stop-opacity:1"/><stop id="stop2618" offset="1" style="stop-color:#eabd7c;stop-opacity:1"/></linearGradient><linearGradient id="linearGradient2622"><stop id="stop2624" offset="0" style="stop-color:#e4a05d;stop-opacity:1"/><stop id="stop2626" offset="1" style="stop-color:#af651d;stop-opacity:1"/></linearGradient><linearGradient id="linearGradient2630"><stop id="stop2632" offset="0" style="stop-color:#fff;stop-opacity:1"/><stop id="stop2634" offset="1" style="stop-color:#fff;stop-opacity:0"/></linearGradient><linearGradient id="linearGradient3754" x1="24.512" x2="24.512" y1="5.873" y2="16.561" gradientUnits="userSpaceOnUse" xlink:href="#linearGradient2622"/><linearGradient id="linearGradient3756" x1="32.828" x2="60.071" y1="7.921" y2="7.868" gradientTransform="scale(0.750458,1.33252)" gradientUnits="userSpaceOnUse" xlink:href="#linearGradient2580"/><linearGradient id="linearGradient3758" x1="24.588" x2="22.436" y1="39.067" y2="15.192" gradientUnits="userSpaceOnUse" xlink:href="#linearGradient2614"/><linearGradient id="linearGradient3760" x1="21.53" x2="25.375" y1="20.313" y2="26.625" gradientUnits="userSpaceOnUse" xlink:href="#linearGradient2630"/><linearGradient id="linearGradient3762" x1="25.851" x2="24.996" y1="37.625" y2="25.25" gradientUnits="userSpaceOnUse" xlink:href="#linearGradient2339"/><linearGradient id="linearGradient3766" x1="25.851" x2="24.996" y1="37.625" y2="25.25" gradientTransform="translate(156.1887,-121.9111)" gradientUnits="userSpaceOnUse" xlink:href="#linearGradient2339"/><linearGradient id="linearGradient3770" x1="21.53" x2="25.375" y1="20.313" y2="26.625" gradientTransform="translate(156.1887,-121.9111)" gradientUnits="userSpaceOnUse" xlink:href="#linearGradient2630"/><linearGradient id="linearGradient3773" x1="24.588" x2="22.436" y1="39.067" y2="15.192" gradientTransform="translate(156.1887,-121.9111)" gradientUnits="userSpaceOnUse" xlink:href="#linearGradient2614"/><linearGradient id="linearGradient3776" x1="32.828" x2="60.071" y1="7.921" y2="7.868" gradientTransform="matrix(0.750458,0,0,1.33252,156.1887,-121.9111)" gradientUnits="userSpaceOnUse" xlink:href="#linearGradient2580"/><linearGradient id="linearGradient3780" x1="24.512" x2="24.512" y1="5.873" y2="16.561" gradientTransform="translate(156.1887,-121.9111)" gradientUnits="userSpaceOnUse" xlink:href="#linearGradient2622"/><radialGradient id="radialGradient3938" cx="24.897" cy="39.804" r="18.014" fx="24.897" fy="39.804" gradientTransform="matrix(1.507398,0,0,1.401048,-12.6329,-20.95362)" gradientUnits="userSpaceOnUse" xlink:href="#linearGradient3932"/><linearGradient id="linearGradient4207" x1="37.018" x2="27.754" y1="19.24" y2="11.182" gradientTransform="matrix(-0.117687,-0.528197,0.528197,-0.117687,46.2238,49.69112)" gradientUnits="userSpaceOnUse" xlink:href="#linearGradient6951"/><linearGradient id="linearGradient4204" x1="19.395" x2="23.109" y1="30.001" y2="33.439" gradientTransform="matrix(-0.117687,-0.528197,0.528197,-0.117687,40.56367,46.8748)" gradientUnits="userSpaceOnUse" xlink:href="#linearGradient6939"/><radialGradient id="radialGradient4201" cx="15.415" cy="35.357" r="7.579" fx="15.415" fy="35.357" gradientTransform="matrix(-9.389073e-2,-1.406075,1.370264,-9.149987e-2,18.28382,59.78933)" gradientUnits="userSpaceOnUse" xlink:href="#linearGradient6963"/><linearGradient id="linearGradient4197" x1="13.236" x2="7.752" y1="37.752" y2="42.282" gradientTransform="matrix(0.11984,-0.445379,0.445379,0.11984,42.0839,34.30798)" gradientUnits="userSpaceOnUse" xlink:href="#linearGradient2446"/><radialGradient id="radialGradient4502" cx="23" cy="33.938" r="18.25" fx="23" fy="33.938" gradientTransform="matrix(1,0,0,0.284247,0,24.29088)" gradientUnits="userSpaceOnUse" xlink:href="#linearGradient6492"/><linearGradient id="linearGradient4500" x1="14.969" x2="39.525" y1="19.111" y2="46.986" gradientUnits="userSpaceOnUse" xlink:href="#linearGradient8524"/><linearGradient id="linearGradient4498" x1="6.305" x2="5.985" y1="23.362" y2="31.57" gradientUnits="userSpaceOnUse" xlink:href="#linearGradient6452"/><radialGradient id="radialGradient4496" cx="6.024" cy="25.271" r="4.831" fx="6.024" fy="25.271" gradientTransform="matrix(0.916159,9.318684e-2,-0.108765,1.069309,3.253668,-3.029272)" gradientUnits="userSpaceOnUse" xlink:href="#linearGradient8542"/><radialGradient id="radialGradient4494" cx="69.473" cy="19.598" r="3.515" fx="69.473" fy="19.598" gradientTransform="matrix(1.318488,0,0,1.318488,-22.1264,-6.241691)" gradientUnits="userSpaceOnUse" xlink:href="#linearGradient6468"/><radialGradient id="radialGradient4491" cx="18.558" cy="22.3" r="19.229" fx="18.558" fy="22.3" gradientTransform="matrix(1.77275,0,0,1.29668,-16.3404,-6.615959)" gradientUnits="userSpaceOnUse" xlink:href="#linearGradient6500"/><linearGradient id="linearGradient4488" x1="32.35" x2="21.213" y1="28.083" y2="30.293" gradientTransform="translate(-3.83655,0.345971)" gradientUnits="userSpaceOnUse" xlink:href="#linearGradient6482"/><linearGradient id="linearGradient4467" x1="26.163" x2="24.329" y1="30.543" y2="30.985" gradientUnits="userSpaceOnUse" xlink:href="#linearGradient8534"/><radialGradient id="radialGradient8548" cx="6.024" cy="25.271" r="4.831" fx="6.024" fy="25.271" gradientTransform="matrix(0.916159,9.318684e-2,-0.108765,1.069309,3.253668,-3.029272)" gradientUnits="userSpaceOnUse" xlink:href="#linearGradient8542"/><linearGradient id="linearGradient8540" x1="26.163" x2="24.329" y1="30.543" y2="30.985" gradientUnits="userSpaceOnUse" xlink:href="#linearGradient8534"/><linearGradient id="linearGradient8530" x1="14.969" x2="39.525" y1="19.111" y2="46.986" gradientUnits="userSpaceOnUse" xlink:href="#linearGradient8524"/><radialGradient id="radialGradient8522" cx="18.558" cy="22.3" r="19.229" fx="18.558" fy="22.3" gradientTransform="matrix(1.77275,-1.847562e-16,1.351402e-16,1.29668,-16.3404,-6.615959)" gradientUnits="userSpaceOnUse" xlink:href="#linearGradient6500"/><radialGradient id="radialGradient6498" cx="23" cy="33.938" r="18.25" fx="23" fy="33.938" gradientTransform="matrix(1,0,0,0.284247,0,24.29088)" gradientUnits="userSpaceOnUse" xlink:href="#linearGradient6492"/><linearGradient id="linearGradient6488" x1="32.35" x2="21.213" y1="28.083" y2="30.293" gradientTransform="translate(-3.836549,0.345971)" gradientUnits="userSpaceOnUse" xlink:href="#linearGradient6482"/><radialGradient id="radialGradient6474" cx="69.473" cy="19.598" r="3.515" fx="69.473" fy="19.598" gradientTransform="matrix(1.318488,1.207574e-15,-1.207574e-15,1.318488,-22.1264,-6.241691)" gradientUnits="userSpaceOnUse" xlink:href="#linearGradient6468"/><linearGradient id="linearGradient6458" x1="6.305" x2="5.985" y1="23.362" y2="31.57" gradientUnits="userSpaceOnUse" xlink:href="#linearGradient6452"/><radialGradient id="radialGradient1366" cx="24.446" cy="35.878" r="20.531" fx="24.446" fy="35.878" gradientTransform="matrix(2.049266,-1.696401e-32,0.000000,2.049266,-25.65002,-37.31089)" gradientUnits="userSpaceOnUse" xlink:href="#linearGradient11520"/><radialGradient id="radialGradient1356" cx="30.204" cy="44.565" r="6.566" fx="30.204" fy="44.565" gradientTransform="matrix(1.000000,0.000000,0.000000,0.338462,2.220359e-14,29.48178)" gradientUnits="userSpaceOnUse" xlink:href="#linearGradient11508"/><radialGradient id="radialGradient1354" cx="27.577" cy="15.048" r="3.834" fx="27.577" fy="15.048" gradientTransform="matrix(1.243453,2.106784e-16,-2.106784e-16,1.243453,-6.713754,-3.742847)" gradientUnits="userSpaceOnUse" xlink:href="#linearGradient11494"/><radialGradient id="radialGradient1352" cx="27.577" cy="16.049" r="3.834" fx="27.577" fy="16.049" gradientTransform="matrix(1.243453,2.106784e-16,-2.106784e-16,1.243453,-6.713754,-3.742847)" gradientUnits="userSpaceOnUse" xlink:href="#linearGradient11494"/><radialGradient id="radialGradient1350" cx="24.446" cy="35.878" r="20.531" fx="24.446" fy="35.878" gradientTransform="matrix(1.995058,-1.651527e-32,0.000000,1.995058,-24.32488,-35.70087)" gradientUnits="userSpaceOnUse" xlink:href="#linearGradient11520"/><radialGradient id="radialGradient1348" cx="30.204" cy="44.565" r="6.566" fx="30.204" fy="44.565" gradientTransform="matrix(1.000000,0.000000,0.000000,0.338462,-1.353344e-14,29.48178)" gradientUnits="userSpaceOnUse" xlink:href="#linearGradient11508"/><radialGradient id="radialGradient11532" cx="30.204" cy="44.565" r="6.566" fx="30.204" fy="44.565" gradientTransform="matrix(1.000000,0.000000,0.000000,0.338462,3.185827e-15,29.48178)" gradientUnits="userSpaceOnUse" xlink:href="#linearGradient11508"/><radialGradient id="radialGradient11526" cx="24.446" cy="35.878" r="20.531" fx="24.446" fy="35.878" gradientTransform="matrix(1.995058,-1.651527e-32,0.000000,1.995058,-24.32488,-35.70087)" gradientUnits="userSpaceOnUse" xlink:href="#linearGradient11520"/><radialGradient id="radialGradient11514" cx="30.204" cy="44.565" r="6.566" fx="30.204" fy="44.565" gradientTransform="matrix(1.000000,0.000000,0.000000,0.338462,2.166583e-14,29.48178)" gradientUnits="userSpaceOnUse" xlink:href="#linearGradient11508"/><radialGradient id="radialGradient11504" cx="27.577" cy="16.049" r="3.834" fx="27.577" fy="16.049" gradientTransform="matrix(1.243453,2.106784e-16,-2.106784e-16,1.243453,-6.713754,-3.742847)" gradientUnits="userSpaceOnUse" xlink:href="#linearGradient11494"/><radialGradient id="radialGradient11500" cx="27.577" cy="15.048" r="3.834" fx="27.577" fy="15.048" gradientTransform="matrix(1.243453,2.106784e-16,-2.106784e-16,1.243453,-6.713754,-3.742847)" gradientUnits="userSpaceOnUse" xlink:href="#linearGradient11494"/><radialGradient id="radialGradient11441" cx="12.071" cy="39.143" r="8.5" fx="12.071" fy="39.143" gradientTransform="matrix(1.000000,0.000000,0.000000,0.487395,0.000000,20.06483)" gradientUnits="userSpaceOnUse" xlink:href="#linearGradient11399"/><linearGradient id="linearGradient11439" x1="13.267" x2="26.759" y1="19.774" y2="33.462" gradientTransform="translate(-60.85714,0.428571)" gradientUnits="userSpaceOnUse" xlink:href="#linearGradient11415"/><linearGradient id="linearGradient11427" x1="9.696" x2="35.68" y1="9.346" y2="39.034" gradientTransform="translate(-60.57143,0.000000)" gradientUnits="userSpaceOnUse" xlink:href="#linearGradient11415"/><linearGradient id="linearGradient11425" x1="15.828" x2="43.616" y1="3.774" y2="34.462" gradientTransform="translate(-60.28571,-0.285714)" gradientUnits="userSpaceOnUse" xlink:href="#linearGradient11415"/><linearGradient id="linearGradient11399"><stop style="stop-color:#000;stop-opacity:1" id="stop11401" offset="0"/><stop style="stop-color:#000;stop-opacity:0" id="stop11403" offset="1"/></linearGradient><linearGradient id="linearGradient11415"><stop style="stop-color:#204a87;stop-opacity:0" id="stop11417" offset="0"/><stop id="stop11423" offset=".5" style="stop-color:#204a87;stop-opacity:1"/><stop style="stop-color:#204a87;stop-opacity:0" id="stop11419" offset="1"/></linearGradient><linearGradient id="linearGradient11494"><stop style="stop-color:#ef2929;stop-opacity:1" id="stop11496" offset="0"/><stop style="stop-color:#ef2929;stop-opacity:0" id="stop11498" offset="1"/></linearGradient><linearGradient id="linearGradient11508"><stop style="stop-color:#000;stop-opacity:1" id="stop11510" offset="0"/><stop style="stop-color:#000;stop-opacity:0" id="stop11512" offset="1"/></linearGradient><linearGradient id="linearGradient11520"><stop style="stop-color:#fff;stop-opacity:1" id="stop11522" offset="0"/><stop style="stop-color:#dcdcdc;stop-opacity:1" id="stop11524" offset="1"/></linearGradient><linearGradient id="linearGradient6452"><stop id="stop6454" offset="0" style="stop-color:white;stop-opacity:1"/><stop id="stop6456" offset="1" style="stop-color:white;stop-opacity:0"/></linearGradient><linearGradient id="linearGradient6468"><stop id="stop6470" offset="0" style="stop-color:white;stop-opacity:1"/><stop id="stop6472" offset="1" style="stop-color:#b9b9b0;stop-opacity:1"/></linearGradient><linearGradient id="linearGradient6482"><stop id="stop6484" offset="0" style="stop-color:black;stop-opacity:1"/><stop id="stop6486" offset="1" style="stop-color:black;stop-opacity:0"/></linearGradient><linearGradient id="linearGradient6492"><stop id="stop6494" offset="0" style="stop-color:black;stop-opacity:1"/><stop id="stop6496" offset="1" style="stop-color:black;stop-opacity:0"/></linearGradient><linearGradient id="linearGradient6500"><stop id="stop6502" offset="0" style="stop-color:#857c63;stop-opacity:1"/><stop id="stop6504" offset="1" style="stop-color:#221f19;stop-opacity:1"/></linearGradient><linearGradient id="linearGradient6951"><stop id="stop6953" offset="0" style="stop-color:#6e3d09;stop-opacity:1"/><stop style="stop-color:#ea8113;stop-opacity:1" id="stop6959" offset=".242"/><stop id="stop6961" offset=".621" style="stop-color:#5c3307;stop-opacity:1"/><stop id="stop6955" offset="1" style="stop-color:#e07c12;stop-opacity:1"/></linearGradient><linearGradient id="linearGradient6939"><stop id="stop6941" offset="0" style="stop-color:#bdbdbd;stop-opacity:1"/><stop style="stop-color:#e2e2e2;stop-opacity:1" id="stop6947" offset=".333"/><stop id="stop6949" offset=".667" style="stop-color:#a3a3a3;stop-opacity:1"/><stop id="stop6943" offset="1" style="stop-color:#ddd;stop-opacity:1"/></linearGradient><linearGradient id="linearGradient6963"><stop id="stop6965" offset="0" style="stop-color:#696969;stop-opacity:1"/><stop id="stop6967" offset="1" style="stop-color:#000;stop-opacity:1"/></linearGradient><linearGradient id="linearGradient2446"><stop id="stop2448" offset="0" style="stop-color:#fff;stop-opacity:1"/><stop id="stop2450" offset="1" style="stop-color:#fff;stop-opacity:0"/></linearGradient><linearGradient id="linearGradient8524"><stop id="stop8526" offset="0" style="stop-color:white;stop-opacity:1"/><stop id="stop8528" offset="1" style="stop-color:white;stop-opacity:0"/></linearGradient><linearGradient id="linearGradient8534"><stop id="stop8536" offset="0" style="stop-color:black;stop-opacity:1"/><stop id="stop8538" offset="1" style="stop-color:black;stop-opacity:0"/></linearGradient><linearGradient id="linearGradient8542"><stop id="stop8544" offset="0" style="stop-color:#5b676b;stop-opacity:1"/><stop id="stop8546" offset="1" style="stop-color:#141718;stop-opacity:1"/></linearGradient><radialGradient id="radialGradient4175" cx="39.75" cy="7.75" r="7" fx="39.75" fy="7.75" gradientUnits="userSpaceOnUse" xlink:href="#linearGradient4169"/></defs><metadata id="metadata1311"/><g id="layer1"><g id="g3799" transform="matrix(1.055093,0,0,1,-167.2219,125.75)" style="opacity:.58241763"><path id="path1196" d="M 162.36286,-88.911137 C 160.1183,-88.911137 158.3113,-86.711005 158.3113,-83.978106 C 158.3113,-81.245207 160.1183,-79.045075 162.36286,-79.045075 L 199.63718,-79.045075 C 201.88174,-79.045075 203.68873,-81.245207 203.68873,-83.978106 C 203.68873,-86.711005 201.88174,-88.911137 199.63718,-88.911137 L 162.36286,-88.911137 z" style="opacity:.04787233;fill-rule:evenodd;stroke-width:3pt"/><path id="path1195" d="M 162.36286,-88.582269 C 160.26794,-88.582269 158.58141,-86.528812 158.58141,-83.978106 C 158.58141,-81.4274 160.26794,-79.373944 162.36286,-79.373944 L 199.63718,-79.373944 C 201.7321,-79.373944 203.41863,-81.4274 203.41863,-83.978106 C 203.41863,-86.528812 201.7321,-88.582269 199.63718,-88.582269 L 162.36286,-88.582269 z" style="opacity:.04787233;fill-rule:evenodd;stroke-width:3pt"/><path id="path1194" d="M 162.36286,-88.2534 C 160.41757,-88.2534 158.85151,-86.346619 158.85151,-83.978106 C 158.85151,-81.609593 160.41757,-79.702812 162.36286,-79.702812 L 199.63718,-79.702812 C 201.58246,-79.702812 203.14853,-81.609593 203.14853,-83.978106 C 203.14853,-86.346619 201.58246,-88.2534 199.63718,-88.2534 L 162.36286,-88.2534 z" style="opacity:.04787233;fill-rule:evenodd;stroke-width:3pt"/><path id="path1193" d="M 162.36286,-87.924531 C 160.56721,-87.924531 159.12162,-86.164426 159.12162,-83.978106 C 159.12162,-81.791787 160.56721,-80.031681 162.36286,-80.031681 L 199.63718,-80.031681 C 201.43283,-80.031681 202.87842,-81.791787 202.87842,-83.978106 C 202.87842,-86.164426 201.43283,-87.924531 199.63718,-87.924531 L 162.36286,-87.924531 z" style="opacity:.04787233;fill-rule:evenodd;stroke-width:3pt"/><path id="path1192" d="M 162.36309,-87.595662 C 160.71708,-87.595662 159.39195,-85.982232 159.39195,-83.978106 C 159.39195,-81.97398 160.71708,-80.36055 162.36309,-80.36055 L 199.63707,-80.36055 C 201.28308,-80.36055 202.60821,-81.97398 202.60821,-83.978106 C 202.60821,-85.982232 201.28308,-87.595662 199.63707,-87.595662 L 162.36309,-87.595662 z" style="opacity:.04787233;fill-rule:evenodd;stroke-width:3pt"/><path id="path1191" d="M 162.36286,-87.266794 C 160.86649,-87.266794 159.66182,-85.800039 159.66182,-83.978106 C 159.66182,-82.156173 160.86649,-80.689419 162.36286,-80.689419 L 199.63718,-80.689419 C 201.13355,-80.689419 202.33821,-82.156173 202.33821,-83.978106 C 202.33821,-85.800039 201.13355,-87.266794 199.63718,-87.266794 L 162.36286,-87.266794 z" style="opacity:.04787233;fill-rule:evenodd;stroke-width:3pt"/><path id="path1190" d="M 162.36286,-86.937925 C 161.01612,-86.937925 159.93193,-85.617846 159.93193,-83.978106 C 159.93193,-82.338367 161.01612,-81.018287 162.36286,-81.018287 L 199.63718,-81.018287 C 200.98391,-81.018287 202.06811,-82.338367 202.06811,-83.978106 C 202.06811,-85.617846 200.98391,-86.937925 199.63718,-86.937925 L 162.36286,-86.937925 z" style="opacity:.04787233;fill-rule:evenodd;stroke-width:3pt"/><path id="path1189" d="M 162.36286,-86.609056 C 161.16576,-86.609056 160.20203,-85.435652 160.20203,-83.978106 C 160.20203,-82.52056 161.16576,-81.347156 162.36286,-81.347156 L 199.63718,-81.347156 C 200.83428,-81.347156 201.79801,-82.52056 201.79801,-83.978106 C 201.79801,-85.435652 200.83428,-86.609056 199.63718,-86.609056 L 162.36286,-86.609056 z" style="opacity:.04787233;fill-rule:evenodd;stroke-width:3pt"/></g><rect style="opacity:1;fill:url(#linearGradient2813);fill-opacity:1;stroke:#8a8a8a;stroke-width:.99999928;stroke-linecap:round;stroke-linejoin:round;stroke-miterlimit:4;stroke-dasharray:none;stroke-dashoffset:0;stroke-opacity:1" id="rect2073" width="42.997" height="39.998" x="2.5" y="3.5" rx="3.937" ry="3.937"/><rect style="opacity:1;fill:url(#radialGradient3938);fill-opacity:1;stroke:#204a87;stroke-width:.99999994;stroke-linecap:round;stroke-linejoin:round;stroke-miterlimit:4;stroke-dasharray:none;stroke-dashoffset:0;stroke-opacity:1" id="rect2063" width="35.027" height="24" x="6.5" y="11.5" rx=".438" ry=".438"/><rect style="opacity:1;fill:none;fill-opacity:1;stroke:#fff;stroke-width:.99999964;stroke-linecap:round;stroke-linejoin:round;stroke-miterlimit:4;stroke-dasharray:none;stroke-dashoffset:0;stroke-opacity:1" id="rect2077" width="41.043" height="38.047" x="3.48" y="4.477" rx="3.08" ry="3.08"/><g id="g4146" transform="matrix(0.776933,0,0,0.776933,3.972788,5.026201)"><path id="path6490" d="M 41.25 33.9375 A 18.25 5.1875 0 1 1 4.75,33.9375 A 18.25 5.1875 0 1 1 41.25 33.9375 z" transform="matrix(1,0,0,1.53012,0.125,-19.99096)" style="color:#000;fill:url(#radialGradient4502);fill-opacity:1;fill-rule:evenodd;stroke:none;stroke-width:.9999997;stroke-linecap:butt;stroke-linejoin:miter;marker:none;marker-start:none;marker-mid:none;marker-end:none;stroke-miterlimit:10;stroke-dasharray:none;stroke-dashoffset:0;stroke-opacity:1;visibility:visible;display:inline;overflow:visible"/><path id="path4323" d="M 10.374369,12.467884 C 10.374369,12.467884 13.248878,18.395518 19.973611,18.228291 C 34.066126,17.874738 36.53732,10.523341 36.890873,9.4626804 C 37.244427,8.4020202 37.785407,8.5626825 37.91048,9.542947 C 42.506674,51.262247 6.013549,33.362123 4.717514,26.256467 C 11.965359,24.135147 10.197592,20.069282 10.197592,20.069282 L 10.374369,12.467884 z" style="color:#000;fill:url(#radialGradient4491);fill-opacity:1;fill-rule:evenodd;stroke:#2e3436;stroke-width:1.28711236;stroke-linecap:butt;stroke-linejoin:miter;marker:none;marker-start:none;marker-mid:none;marker-end:none;stroke-miterlimit:10;stroke-dasharray:none;stroke-dashoffset:0;stroke-opacity:1;visibility:visible;display:inline;overflow:visible"/><path id="path6480" d="M 15.73779,30.066049 C 22.47669,31.413886 25.908481,30.164142 27.916965,28.613273 C 27.386635,27.928263 26.480655,27.176962 26.480655,27.176962 C 26.480655,27.176962 27.792031,27.424844 28.646169,28.326011 C 29.230787,28.942817 29.284433,29.939232 29.156575,31.303895 C 29.028717,30.724015 28.815157,30.36291 28.64931,29.952961 C 26.843042,32.140529 21.94512,32.257773 15.73779,30.066049 z" style="color:#000;fill:url(#linearGradient4488);fill-opacity:1;fill-rule:evenodd;stroke:none;stroke-width:.9999997;stroke-linecap:butt;stroke-linejoin:miter;marker:none;marker-start:none;marker-mid:none;marker-end:none;stroke-miterlimit:10;stroke-dasharray:none;stroke-dashoffset:0;stroke-opacity:1;visibility:visible;display:inline;overflow:visible"/><path id="path8520" d="M 36.96875,11.84375 C 36.406772,12.770645 35.562258,13.876916 34.28125,14.9375 C 31.649332,17.116542 27.230687,19.099847 20,19.28125 C 15.775627,19.386299 13.047259,17.347101 11.375,15.53125 L 11.25,20 C 11.386107,20.418802 11.665455,21.390498 11.1875,22.71875 C 10.673186,24.148046 9.0329864,25.610113 6.21875,26.71875 C 6.4690804,27.240783 6.7142344,27.76237 7.46875,28.5 C 8.4967004,29.504945 9.9257833,30.588049 11.625,31.5625 C 15.023433,33.511402 19.426583,35.055712 23.53125,35.125 C 27.635917,35.194288 31.388376,33.89045 33.96875,30.125 C 36.347494,26.653782 37.651223,20.777057 36.96875,11.84375 z" xlink:href="#path4323" style="opacity:.18539327;color:#000;fill:none;fill-opacity:1;fill-rule:evenodd;stroke:url(#linearGradient4500);stroke-width:1.28711236;stroke-linecap:butt;stroke-linejoin:miter;marker:none;marker-start:none;marker-mid:none;marker-end:none;stroke-miterlimit:10;stroke-dasharray:none;stroke-dashoffset:0;stroke-opacity:1;visibility:visible;display:inline;overflow:visible"/><path id="path5198" d="M 10.429825 27.228739 A 4.3310289 6.0987959 0 1 1 1.767767,27.228739 A 4.3310289 6.0987959 0 1 1 10.429825 27.228739 z" transform="matrix(0.810984,-0.585069,0.585069,0.810984,-14.77791,6.947121)" style="color:#000;fill:url(#radialGradient4496);fill-opacity:1;fill-rule:evenodd;stroke:#000;stroke-width:1.28711236;stroke-linecap:butt;stroke-linejoin:miter;marker:none;marker-start:none;marker-mid:none;marker-end:none;stroke-miterlimit:10;stroke-dasharray:none;stroke-dashoffset:0;stroke-opacity:1;visibility:visible;display:inline;overflow:visible"/><path id="path6450" d="M 6.09375,22.15625 C 5.2955008,22.15625 4.5406196,22.602421 3.90625,23.5 C 3.2718804,24.397579 2.8125,25.734204 2.8125,27.21875 C 2.8125,28.703296 3.2718804,30.039921 3.90625,30.9375 C 4.5406196,31.835079 5.2955011,32.28125 6.09375,32.28125 C 6.8919992,32.28125 7.6710339,31.804861 8.3125,30.90625 C 8.9539661,30.007639 9.40625,28.700064 9.40625,27.21875 C 9.40625,25.737436 8.9539662,24.429861 8.3125,23.53125 C 7.6710338,22.632639 6.8919989,22.15625 6.09375,22.15625 z" transform="matrix(0.800389,-0.599481,0.599481,0.800389,-15.00556,7.504617)" xlink:href="#path5198" style="opacity:.28089887;color:#000;fill:none;fill-opacity:1;fill-rule:evenodd;stroke:url(#linearGradient4498);stroke-width:1.28711295;stroke-linecap:butt;stroke-linejoin:miter;marker:none;marker-start:none;marker-mid:none;marker-end:none;stroke-miterlimit:10;stroke-dasharray:none;stroke-dashoffset:0;stroke-opacity:1;visibility:visible;display:inline;overflow:visible"/><path id="path6446" d="M 5.833631 23.251263 A 1.767767 2.1213202 0 1 1 2.2980971,23.251263 A 1.767767 2.1213202 0 1 1 5.833631 23.251263 z" style="color:#000;fill:#fff;fill-opacity:1;fill-rule:evenodd;stroke:none;stroke-width:.9999997;stroke-linecap:butt;stroke-linejoin:miter;marker:none;marker-start:none;marker-mid:none;marker-end:none;stroke-miterlimit:10;stroke-dasharray:none;stroke-dashoffset:0;stroke-opacity:1;visibility:visible;display:inline;overflow:visible"/><path id="path6460" d="M 72.655224 21.837049 A 3.1819806 3.1819806 0 1 1 66.291263,21.837049 A 3.1819806 3.1819806 0 1 1 72.655224 21.837049 z" transform="translate(-55.86145,0)" style="color:#000;fill:#eeeeec;fill-opacity:1;fill-rule:evenodd;stroke:#888a85;stroke-width:1.28711236;stroke-linecap:butt;stroke-linejoin:miter;marker:none;marker-start:none;marker-mid:none;marker-end:none;stroke-miterlimit:10;stroke-dasharray:none;stroke-dashoffset:0;stroke-opacity:1;visibility:visible;display:inline;overflow:visible"/><path style="color:#000;fill:url(#radialGradient4494);fill-opacity:1;fill-rule:evenodd;stroke:#888a85;stroke-width:.8580749;stroke-linecap:butt;stroke-linejoin:miter;marker:none;marker-start:none;marker-mid:none;marker-end:none;stroke-miterlimit:10;stroke-dasharray:none;stroke-dashoffset:0;stroke-opacity:1;visibility:visible;display:inline;overflow:visible" id="path6462" d="M 72.655224 21.837049 A 3.1819806 3.1819806 0 1 1 66.291263,21.837049 A 3.1819806 3.1819806 0 1 1 72.655224 21.837049 z" transform="matrix(1.5,0,0,1.5,-82.1682,-10.91852)"/><path id="path6464" d="M 24.041631 21.837049 A 2.2980971 2.2980971 0 1 1 19.445437,21.837049 A 2.2980971 2.2980971 0 1 1 24.041631 21.837049 z" transform="translate(1.41422,0.707108)" style="color:#000;fill:#2e3436;fill-opacity:1;fill-rule:evenodd;stroke:#000;stroke-width:1.28711236;stroke-linecap:butt;stroke-linejoin:miter;marker:none;marker-start:none;marker-mid:none;marker-end:none;stroke-miterlimit:10;stroke-dasharray:none;stroke-dashoffset:0;stroke-opacity:1;visibility:visible;display:inline;overflow:visible"/><path id="path6466" d="M 23.157747 20.953165 A 1.767767 1.767767 0 1 1 19.622213,20.953165 A 1.767767 1.767767 0 1 1 23.157747 20.953165 z" transform="matrix(0.9,0,0,0.9,3.02288,2.625648)" style="color:#000;fill:#fff;fill-opacity:1;fill-rule:evenodd;stroke:none;stroke-width:.9999997;stroke-linecap:butt;stroke-linejoin:miter;marker:none;marker-start:none;marker-mid:none;marker-end:none;stroke-miterlimit:10;stroke-dasharray:none;stroke-dashoffset:0;stroke-opacity:1;visibility:visible;display:inline;overflow:visible"/><path style="color:#000;fill:#2e3436;fill-opacity:1;fill-rule:evenodd;stroke:#000;stroke-width:2.0915575;stroke-linecap:butt;stroke-linejoin:miter;marker:none;marker-start:none;marker-mid:none;marker-end:none;stroke-miterlimit:10;stroke-dasharray:none;stroke-dashoffset:0;stroke-opacity:1;visibility:visible;display:inline;overflow:visible" id="path6476" d="M 24.041631 21.837049 A 2.2980971 2.2980971 0 1 1 19.445437,21.837049 A 2.2980971 2.2980971 0 1 1 24.041631 21.837049 z" transform="matrix(0.615385,0,0,0.615385,1.2589,8.840808)"/><path style="color:#000;fill:#fff;fill-opacity:1;fill-rule:evenodd;stroke:none;stroke-width:.9999997;stroke-linecap:butt;stroke-linejoin:miter;marker:none;marker-start:none;marker-mid:none;marker-end:none;stroke-miterlimit:10;stroke-dasharray:none;stroke-dashoffset:0;stroke-opacity:1;visibility:visible;display:inline;overflow:visible" id="path6478" d="M 23.157747 20.953165 A 1.767767 1.767767 0 1 1 19.622213,20.953165 A 1.767767 1.767767 0 1 1 23.157747 20.953165 z" transform="matrix(0.553846,0,0,0.553846,2.24885,10.02145)"/><path id="path6937" d="M 35.763473,35.714292 L 37.292491,33.119422 C 34.540671,31.336344 31.185179,30.396579 28.667564,29.395715 C 28.667564,29.395715 27.27497,30.352615 27.27497,30.352615 C 29.686333,31.911615 32.652581,34.026276 35.763473,35.714292 z" style="color:#000;fill:url(#linearGradient4207);fill-opacity:1;fill-rule:nonzero;stroke:#673907;stroke-width:1.28711259;stroke-linecap:round;stroke-linejoin:miter;marker:none;marker-start:none;marker-mid:none;marker-end:none;stroke-miterlimit:4;stroke-dasharray:none;stroke-dashoffset:0;stroke-opacity:1;visibility:visible;display:inline;overflow:visible"/><path id="path6935" d="M 42.122514,38.650724 L 42.879589,37.236639 L 37.988857,33.617789 L 37.58367,33.555569 L 37.445463,32.979604 C 36.671643,33.394577 35.476313,35.049179 35.696976,36.039548 L 36.263098,35.867939 L 36.542676,36.177102 L 42.122514,38.650724 z" style="color:#000;fill:url(#linearGradient4204);fill-opacity:1;fill-rule:nonzero;stroke:#888a85;stroke-width:1.28711259;stroke-linecap:round;stroke-linejoin:miter;marker:none;marker-start:none;marker-mid:none;marker-end:none;stroke-miterlimit:4;stroke-dasharray:none;stroke-dashoffset:0;stroke-opacity:1;visibility:visible;display:inline;overflow:visible"/><path id="path6933" d="M 47.53951,46.273923 C 47.145171,40.368406 47.549165,35.839658 43.195967,35.278066 C 39.687893,34.825501 38.346748,39.697235 41.595313,41.850071 C 44.724705,43.923932 47.53951,46.273923 47.53951,46.273923 z" style="color:#000;fill:url(#radialGradient4201);fill-opacity:1;fill-rule:nonzero;stroke:none;stroke-width:.2;stroke-linecap:round;stroke-linejoin:miter;marker:none;marker-start:none;marker-mid:none;marker-end:none;stroke-miterlimit:4;stroke-dasharray:none;stroke-dashoffset:0;stroke-opacity:1;visibility:visible;display:inline;overflow:visible"/><path id="path6971" d="M 8.8749989 37.75 A 1.2499999 1.2499999 0 1 1 6.3749992,37.75 A 1.2499999 1.2499999 0 1 1 8.8749989 37.75 z" transform="matrix(-0.23154,-1.039181,1.039181,-0.23154,5.254334,54.09927)" style="opacity:.52777782;color:#000;fill:#fff;fill-opacity:1;fill-rule:nonzero;stroke:none;stroke-width:1;stroke-linecap:round;stroke-linejoin:miter;marker:none;marker-start:none;marker-mid:none;marker-end:none;stroke-miterlimit:4;stroke-dasharray:none;stroke-dashoffset:0;stroke-opacity:1;visibility:visible;display:inline;overflow:visible"/><path id="path1571" d="M 46.540795,41.779063 C 46.540795,41.779063 46.061634,38.988768 44.602635,38.524511 C 44.086446,38.360258 44.46712,37.670885 45.004774,37.940685 C 46.166091,38.523445 46.540795,41.779063 46.540795,41.779063 z" style="opacity:.42777776;color:#000;fill:url(#linearGradient4197);fill-opacity:1;fill-rule:nonzero;stroke:none;stroke-width:1;stroke-linecap:round;stroke-linejoin:miter;marker:none;marker-start:none;marker-mid:none;marker-end:none;stroke-miterlimit:4;stroke-dasharray:none;stroke-dashoffset:0;stroke-opacity:1;visibility:visible;display:inline;overflow:visible"/><path id="path4219" d="M 35.587145,33.172855 C 35.587145,33.172855 33.333242,32.068001 30.195456,30.918952" style="opacity:.17525772;color:#000;fill:none;fill-opacity:1;fill-rule:evenodd;stroke:#fff;stroke-width:1.28711271;stroke-linecap:round;stroke-linejoin:round;marker:none;marker-start:none;marker-mid:none;marker-end:none;stroke-miterlimit:4;stroke-dasharray:none;stroke-dashoffset:0;stroke-opacity:1;visibility:visible;display:inline;overflow:visible"/></g><path style="opacity:1;color:#000;fill:url(#radialGradient4175);fill-opacity:1;fill-rule:nonzero;stroke:none;stroke-width:.5;stroke-linecap:round;stroke-linejoin:round;marker:none;marker-start:none;marker-mid:none;marker-end:none;stroke-miterlimit:10;stroke-dasharray:none;stroke-dashoffset:0;stroke-opacity:1;visibility:visible;display:inline;overflow:visible" id="path4167" d="M 46.75 7.75 A 7 7 0 1 1 32.75,7.75 A 7 7 0 1 1 46.75 7.75 z" transform="matrix(1.285714,0,0,1.285714,-12.75359,-0.671393)"/></g></svg>