<svg xmlns="http://www.w3.org/2000/svg" xmlns:svg="http://www.w3.org/2000/svg" xmlns:xlink="http://www.w3.org/1999/xlink" id="svg1" width="48" height="48" x="0" y="0" version="1.0"><metadata id="metadata162"/><defs id="defs3"><linearGradient id="linearGradient4734"><stop style="stop-color:#cccdbc;stop-opacity:1" id="stop4736" offset="0"/><stop style="stop-color:#b9baa4;stop-opacity:1" id="stop4738" offset="1"/></linearGradient><linearGradient id="linearGradient2339"><stop style="stop-color:#fff;stop-opacity:1" id="stop2341" offset="0"/><stop style="stop-color:#fff;stop-opacity:0" id="stop2343" offset="1"/></linearGradient><linearGradient id="linearGradient2345" x1="25.851" x2="24.996" y1="37.625" y2="25.25" gradientUnits="userSpaceOnUse" xlink:href="#linearGradient2339"/><linearGradient id="linearGradient356"><stop style="stop-color:#fffff3;stop-opacity:1" id="stop357" offset="0"/><stop style="stop-color:#fffff3;stop-opacity:0" id="stop358" offset="1"/></linearGradient><linearGradient id="linearGradient311"><stop style="stop-color:#cfcfc4;stop-opacity:1" id="stop312" offset="0"/><stop style="stop-color:#cfcfc4;stop-opacity:1" id="stop335" offset=".327"/><stop style="stop-color:#cfcfc4;stop-opacity:0" id="stop313" offset="1"/></linearGradient><linearGradient id="linearGradient235"><stop style="stop-color:#59594a;stop-opacity:1" id="stop236" offset="0"/><stop style="stop-color:#a2a491;stop-opacity:1" id="stop237" offset="1"/></linearGradient><linearGradient id="linearGradient253" x1="24.983" x2="24.983" y1="22.828" y2="8.374" gradientTransform="scale(1.068312,0.936056)" gradientUnits="userSpaceOnUse" xlink:href="#linearGradient235"/><linearGradient id="linearGradient320" x1="32.828" x2="60.071" y1="7.921" y2="7.868" gradientTransform="scale(0.750458,1.332520)" gradientUnits="userSpaceOnUse" xlink:href="#linearGradient311"/><linearGradient id="linearGradient355" x1="23.643" x2="28.443" y1="12.818" y2="25.232" gradientTransform="scale(0.806859,1.239374)" gradientUnits="userSpaceOnUse" xlink:href="#linearGradient356"/><linearGradient id="linearGradient4740" x1="24.588" x2="24.588" y1="1.899" y2="40.859" gradientUnits="userSpaceOnUse" xlink:href="#linearGradient4734"/><linearGradient id="linearGradient6951"><stop id="stop6953" offset="0" style="stop-color:#6e3d09;stop-opacity:1"/><stop style="stop-color:#ea8113;stop-opacity:1" id="stop6959" offset=".242"/><stop id="stop6961" offset=".621" style="stop-color:#5c3307;stop-opacity:1"/><stop id="stop6955" offset="1" style="stop-color:#e07c12;stop-opacity:1"/></linearGradient><linearGradient id="linearGradient6939"><stop id="stop6941" offset="0" style="stop-color:#bdbdbd;stop-opacity:1"/><stop style="stop-color:#e2e2e2;stop-opacity:1" id="stop6947" offset=".333"/><stop id="stop6949" offset=".667" style="stop-color:#a3a3a3;stop-opacity:1"/><stop id="stop6943" offset="1" style="stop-color:#ddd;stop-opacity:1"/></linearGradient><linearGradient id="linearGradient6975"><stop id="stop6977" offset="0" style="stop-color:#000;stop-opacity:1"/><stop id="stop6979" offset="1" style="stop-color:#000;stop-opacity:0"/></linearGradient><linearGradient id="linearGradient6963"><stop id="stop6965" offset="0" style="stop-color:#696969;stop-opacity:1"/><stop id="stop6967" offset="1" style="stop-color:#000;stop-opacity:1"/></linearGradient><linearGradient id="linearGradient2075" x1="28.059" x2="33.437" y1="18.868" y2="23.743" gradientTransform="matrix(0.573976,-5.028503e-2,5.028503e-2,0.573976,-3.900241,-2.419328)" gradientUnits="userSpaceOnUse" xlink:href="#linearGradient6951"/><linearGradient id="linearGradient2077" x1="19.395" x2="23.109" y1="30.001" y2="33.439" gradientTransform="matrix(0.885182,-0.14859,0.14859,0.885182,-12.79968,-11.59047)" gradientUnits="userSpaceOnUse" xlink:href="#linearGradient6939"/><radialGradient id="radialGradient2079" cx="26.782" cy="42.343" r="14.407" fx="26.782" fy="42.343" gradientTransform="matrix(1,0,0,0.282209,0,30.39355)" gradientUnits="userSpaceOnUse" xlink:href="#linearGradient6975"/><radialGradient id="radialGradient2081" cx="15.415" cy="35.357" r="7.579" fx="15.415" fy="35.357" gradientTransform="matrix(0.3814,0,0,0.371686,0.265529,4.587942)" gradientUnits="userSpaceOnUse" xlink:href="#linearGradient6963"/><radialGradient id="radialGradient2971" cx="15.415" cy="35.357" r="7.579" fx="15.415" fy="35.357" gradientTransform="matrix(0.584317,0,0,0.549734,17.99491,22.19836)" gradientUnits="userSpaceOnUse" xlink:href="#linearGradient6963"/><linearGradient id="linearGradient2975" x1="19.395" x2="23.109" y1="30.001" y2="33.439" gradientTransform="matrix(1.356127,-0.219769,0.227645,1.309208,-2.021409,-1.729948)" gradientUnits="userSpaceOnUse" xlink:href="#linearGradient6939"/><linearGradient id="linearGradient2979" x1="28.059" x2="33.437" y1="18.868" y2="23.743" gradientTransform="matrix(0.87935,-7.437292e-2,7.703828e-2,0.848926,11.61282,11.83442)" gradientUnits="userSpaceOnUse" xlink:href="#linearGradient6951"/><radialGradient id="radialGradient2981" cx="26.782" cy="42.343" r="14.407" fx="26.782" fy="42.343" gradientTransform="matrix(1,0,0,0.282209,0,30.39355)" gradientUnits="userSpaceOnUse" xlink:href="#linearGradient6975"/><linearGradient id="linearGradient3782" x1="7.689" x2="7.689" y1="1038.814" y2="1052.522" gradientTransform="matrix(-1.0835957,0,4.1532145e-8,1.0362997,22.714477,-38.456346)" gradientUnits="userSpaceOnUse" xlink:href="#linearGradient4121"/><linearGradient id="linearGradient4119" x1="7.689" x2="7.689" y1="1038.814" y2="1052.522" gradientTransform="matrix(-1.0835957,0,4.1532145e-8,1.0362997,22.714477,-38.456346)" gradientUnits="userSpaceOnUse" xlink:href="#linearGradient4121"/><linearGradient id="linearGradient4111" x1="4.785" x2="15.973" y1="1039.255" y2="1051.917" gradientUnits="userSpaceOnUse" xlink:href="#linearGradient4026"/><linearGradient id="linearGradient4087" x1="4.785" x2="15.973" y1="1039.255" y2="1051.917" gradientUnits="userSpaceOnUse" xlink:href="#linearGradient4026"/><linearGradient id="linearGradient3971"><stop id="stop3973" offset="0" style="stop-color:#c00;stop-opacity:1"/><stop id="stop3975" offset="1" style="stop-color:#fffcfc;stop-opacity:1"/></linearGradient><linearGradient id="linearGradient4016"><stop id="stop4018" offset="0" style="stop-color:#eeeeec;stop-opacity:1"/><stop id="stop4020" offset="1" style="stop-color:#eeeeec;stop-opacity:1"/></linearGradient><linearGradient id="linearGradient4026"><stop id="stop4028" offset="0" style="stop-color:#888a85;stop-opacity:1"/><stop id="stop4030" offset="1" style="stop-color:#f2f2f2;stop-opacity:1"/></linearGradient><linearGradient id="linearGradient4121"><stop style="stop-color:#3465a4;stop-opacity:1" id="stop4123" offset="0"/><stop style="stop-color:#fff;stop-opacity:1" id="stop4125" offset="1"/></linearGradient></defs><g id="layer2" style="display:inline"><g id="g1197" transform="matrix(0.216083,0.000000,0.000000,0.263095,-0.893233,-10.24236)"><path style="opacity:.047872309;fill-rule:evenodd;stroke-width:3pt" id="path1196" d="M 32.706693,164.36026 C 22.319193,164.36026 13.956693,172.72276 13.956693,183.11026 C 13.956693,193.49776 22.319193,201.86026 32.706693,201.86026 L 205.20669,201.86026 C 215.59419,201.86026 223.95669,193.49776 223.95669,183.11026 C 223.95669,172.72276 215.59419,164.36026 205.20669,164.36026 L 32.706693,164.36026 z"/><path style="opacity:.047872309;fill-rule:evenodd;stroke-width:3pt" id="path1195" d="M 32.706693,165.61026 C 23.011693,165.61026 15.206693,173.41526 15.206693,183.11026 C 15.206693,192.80526 23.011693,200.61026 32.706693,200.61026 L 205.20669,200.61026 C 214.90169,200.61026 222.70669,192.80526 222.70669,183.11026 C 222.70669,173.41526 214.90169,165.61026 205.20669,165.61026 L 32.706693,165.61026 z"/><path style="opacity:.047872309;fill-rule:evenodd;stroke-width:3pt" id="path1194" d="M 32.706694,166.86026 C 23.704194,166.86026 16.456694,174.10776 16.456694,183.11026 C 16.456694,192.11276 23.704194,199.36026 32.706694,199.36026 L 205.20669,199.36026 C 214.20919,199.36026 221.45669,192.11276 221.45669,183.11026 C 221.45669,174.10776 214.20919,166.86026 205.20669,166.86026 L 32.706694,166.86026 z"/><path style="opacity:.047872309;fill-rule:evenodd;stroke-width:3pt" id="path1193" d="M 32.706694,168.11026 C 24.396694,168.11026 17.706694,174.80026 17.706694,183.11026 C 17.706694,191.42026 24.396694,198.11026 32.706694,198.11026 L 205.20669,198.11026 C 213.51669,198.11026 220.20669,191.42026 220.20669,183.11026 C 220.20669,174.80026 213.51669,168.11026 205.20669,168.11026 L 32.706694,168.11026 z"/><path style="opacity:.047872309;fill-rule:evenodd;stroke-width:3pt" id="path1192" d="M 32.707764,169.36026 C 25.090264,169.36026 18.957764,175.49276 18.957764,183.11026 C 18.957764,190.72776 25.090264,196.86026 32.707764,196.86026 L 205.20618,196.86026 C 212.82368,196.86026 218.95618,190.72776 218.95618,183.11026 C 218.95618,175.49276 212.82368,169.36026 205.20618,169.36026 L 32.707764,169.36026 z"/><path style="opacity:.047872309;fill-rule:evenodd;stroke-width:3pt" id="path1191" d="M 32.706694,170.61026 C 25.781694,170.61026 20.206694,176.18526 20.206694,183.11026 C 20.206694,190.03526 25.781694,195.61026 32.706694,195.61026 L 205.20669,195.61026 C 212.13169,195.61026 217.70669,190.03526 217.70669,183.11026 C 217.70669,176.18526 212.13169,170.61026 205.20669,170.61026 L 32.706694,170.61026 z"/><path style="opacity:.047872309;fill-rule:evenodd;stroke-width:3pt" id="path1190" d="M 32.706694,171.86026 C 26.474194,171.86026 21.456694,176.87776 21.456694,183.11026 C 21.456694,189.34276 26.474194,194.36026 32.706694,194.36026 L 205.20669,194.36026 C 211.43919,194.36026 216.45669,189.34276 216.45669,183.11026 C 216.45669,176.87776 211.43919,171.86026 205.20669,171.86026 L 32.706694,171.86026 z"/><path style="opacity:.047872309;fill-rule:evenodd;stroke-width:3pt" id="path1189" d="M 32.706694,173.11026 C 27.166694,173.11026 22.706694,177.57026 22.706694,183.11026 C 22.706694,188.65026 27.166694,193.11026 32.706694,193.11026 L 205.20669,193.11026 C 210.74669,193.11026 215.20669,188.65026 215.20669,183.11026 C 215.20669,177.57026 210.74669,173.11026 205.20669,173.11026 L 32.706694,173.11026 z"/></g><path style="fill:url(#linearGradient253);fill-opacity:1;fill-rule:evenodd;stroke:#555753;stroke-width:1;stroke-miterlimit:4;stroke-opacity:1" id="path895" d="M 5.4186638,5.4561100 C 4.9536872,5.4561100 4.6035534,5.6913368 4.6035534,6.1828330 L 4.6035534,39.203794 C 4.6035534,39.930940 5.0906584,40.415354 5.7526104,40.415354 L 43.489564,40.415354 C 44.155366,40.415354 44.419872,39.962588 44.419872,39.328794 L 44.419872,10.425912 C 44.419872,9.8829469 44.019585,9.5893540 43.520814,9.5893540 L 24.411490,9.5893540 C 24.074477,9.5893540 23.714810,9.3909280 23.517009,9.1180670 L 20.914778,5.9180580 C 20.696913,5.6175190 20.272703,5.4561250 19.901500,5.4561250 L 5.4186638,5.4561100 z"/><path style="fill:url(#linearGradient320);fill-opacity:1;fill-rule:evenodd;stroke:none;stroke-width:.25pt;stroke-linecap:butt;stroke-linejoin:miter;stroke-opacity:1;opacity:1;color:#000;marker:none;marker-start:none;marker-mid:none;marker-end:none;stroke-miterlimit:4;stroke-dasharray:none;stroke-dashoffset:0;visibility:visible;display:inline;overflow:visible" id="path315" d="M 5.0625000,7.9062500 L 5.0625000,36.156250 L 6.0312500,31.781250 L 6.2500000,9.1562500 C 6.2500000,8.4058274 6.7614657,8.0312500 7.4869586,8.0312500 L 19.093750,8.0312500 C 20.655346,8.0312500 22.108598,11.218750 24.411417,11.218750 C 30.383036,11.218750 43.749813,11.306338 43.750000,11.218750 L 43.750000,10.187500 L 24.218750,10.062500 C 22.362615,10.050621 21.088324,6.9062500 19.656250,6.9062500 L 6.2838336,6.9062500 C 5.4685048,6.9062500 5.0625000,7.2604161 5.0625000,7.9062500 z"/><path style="color:#000;fill:url(#linearGradient4740);fill-opacity:1;fill-rule:evenodd;stroke:#555753;stroke-width:.99999988;stroke-linecap:butt;stroke-linejoin:round;marker:none;marker-start:none;marker-mid:none;marker-end:none;stroke-miterlimit:4;stroke-dashoffset:0;stroke-opacity:1;visibility:visible;display:inline;overflow:visible" id="rect337" d="M 7.6864537,16.296282 L 15.619799,16.296282 C 16.361533,16.296282 16.987769,15.915471 17.306966,15.414278 C 17.443709,15.199569 18.574948,13.28855 18.66464,13.158052 C 18.963427,12.723328 19.437557,12.399136 20.006622,12.399136 L 43.048855,12.399136 C 43.851692,12.399136 44.498018,13.042925 44.498018,13.84261 L 44.498018,38.915459 C 44.498018,39.715143 43.851692,40.358932 43.048855,40.358932 L 6.1279084,40.358932 C 5.3250725,40.358932 4.6787461,39.715143 4.6787461,38.915459 L 4.6787461,19.481904 C 4.6787461,17.507539 5.8190623,16.296282 7.6864537,16.296282 z"/><path style="fill:url(#linearGradient355);fill-opacity:1;fill-rule:evenodd;stroke:none;stroke-width:.25pt;stroke-linecap:butt;stroke-linejoin:miter;stroke-miterlimit:4;stroke-opacity:1;opacity:1;color:#000;marker:none;marker-start:none;marker-mid:none;marker-end:none;stroke-dasharray:none;stroke-dashoffset:0;visibility:visible;display:inline;overflow:visible" id="path349" d="M 20.500000,13.750000 C 19.853581,13.750000 19.490960,14.031698 19.125000,14.500000 C 18.759040,14.968302 18.343502,15.671815 18.062500,16.218750 C 17.781498,16.765685 17.493409,17.272919 17.218750,17.625000 C 16.944091,17.977081 16.729167,18.125000 16.500000,18.125000 C 15.250000,18.125000 7.3428301,18.125000 6.8428301,18.125000 C 6.3844968,18.125000 6.0073599,18.355519 5.6865801,18.656250 C 5.3658003,18.956981 5.0928301,19.362500 5.0928301,19.875000 C 5.0928302,20.499998 5.0928301,39.250000 5.0928301,39.250000 L 6.0928301,39.250000 C 6.0928301,39.250000 6.0928302,20.500002 6.0928301,19.875000 C 6.0928301,19.762500 6.1948599,19.543019 6.3740801,19.375000 C 6.5533003,19.206981 6.8011635,19.125000 6.8428301,19.125000 C 7.3428301,19.125000 15.250000,19.125000 16.500000,19.125000 C 17.145833,19.125000 17.634731,18.718232 18.000000,18.250000 C 18.365269,17.781768 18.656559,17.203065 18.937500,16.656250 C 19.218441,16.109435 19.568667,15.477011 19.843750,15.125000 C 20.118833,14.772989 20.269189,14.750000 20.500000,14.750000 C 21.716667,14.750000 43.750000,14.875000 43.750000,14.875000 L 43.750000,13.875000 C 43.750000,13.875000 21.783333,13.750000 20.500000,13.750000 z"/><rect style="color:#000;fill:#fffffd;fill-opacity:1;fill-rule:evenodd;stroke:none;stroke-width:.25pt;stroke-linecap:butt;stroke-linejoin:miter;stroke-miterlimit:4;stroke-dashoffset:0;stroke-opacity:1;marker:none;marker-start:none;marker-mid:none;marker-end:none;visibility:visible;display:inline;overflow:visible" id="rect459" width="1.25" height="1.25" x="5.529" y="7.36" rx="1.443" ry="1.25"/><rect style="opacity:.28571429;color:#000;fill:none;fill-opacity:1;fill-rule:evenodd;stroke:url(#linearGradient2345);stroke-width:1.00000024;stroke-linecap:square;stroke-linejoin:round;marker:none;marker-start:none;marker-mid:none;marker-end:none;stroke-miterlimit:4;stroke-dasharray:none;stroke-dashoffset:0;stroke-opacity:1;visibility:visible;display:inline;overflow:visible" id="rect2337" width="37.958" height="23.625" x="5.538" y="15.75" rx=".438" ry=".438"/><g id="layer1-6" transform="translate(20.270584,-1013.1006)"><path id="path3997" d="m 2.0119733,1034.6024 c 0.648928,0.5443 1.622296,0.4657 2.173581,-0.1742 0.551553,-0.6408 0.471588,-1.6019 -0.177259,-2.146 -0.649113,-0.5444 -1.622407,-0.4658 -2.173609,0.1741 -0.551501,0.6406 -0.471727,1.6018 0.177287,2.1461 z" style="fill:#f57900;fill-opacity:1;stroke:#542900;stroke-width:.94537663;stroke-opacity:1"/><path id="path3989" d="m 6.9693083,1035.5522 c 0.833963,0.6823 2.068973,0.5657 2.758248,-0.26 0.6898517,-0.8257 0.5718297,-2.049 -0.261849,-2.7312 -0.834057,-0.6825 -2.069067,-0.5658 -2.758443,0.2601 -0.689679,0.8254 -0.571742,2.0487 0.262044,2.7311 z" style="fill:#f57900;fill-opacity:1;stroke:#542900;stroke-width:.94537663;stroke-opacity:1"/><path style="fill:#396db1;fill-opacity:1;stroke:#122439;stroke-width:1;stroke-opacity:1" id="path4045" d="m 17.636674,1039.9422 2.742975,-2.7177 5.3e-5,13.5524 -13.6806057,0 2.743204,-2.7177 c 0,0 -5.48638,-4.7291 -0.926137,-9.2468 4.4584587,-4.2581 9.1202007,1.1295 9.1202007,1.1295 z"/><path id="path4109" d="m 15.781042,1039.5854 c 0.991265,0.7191 1.902779,1.7169 1.902779,1.7169 l 1.696975,-1.6697 -0.0025,10.1537 -10.262821,-0.01 1.705471,-1.7211 c -1.864333,-1.7315 -3.301764,-3.7064 -3.099467,-5.7843 0.101903,-1.0438 0.435448,-1.7614 1.512439,-2.8079 1.612187,-1.5666 4.027167,-1.8939 6.546439,0.1192 z" style="opacity:.42358081;fill:none;stroke:#fff;stroke-width:1;stroke-linecap:square;stroke-miterlimit:4;stroke-opacity:1"/><path style="fill:#f57900;fill-opacity:1;stroke:#542900;stroke-width:.94537663;stroke-opacity:1" id="path3771" d="m 2.4141683,1040.1073 c 0.833865,0.6824 2.068926,0.5658 2.75829,-0.2599 0.689834,-0.8258 0.571727,-2.049 -0.261942,-2.7313 -0.833937,-0.6825 -2.069068,-0.5658 -2.758364,0.26 -0.689661,0.8256 -0.571865,2.0488 0.262016,2.7312 z"/></g></g></svg>