<svg xmlns="http://www.w3.org/2000/svg" xmlns:svg="http://www.w3.org/2000/svg" id="svg6361" width="24" height="24" version="1.1" viewBox="0 0 24 24"><metadata id="metadata4"/><g id="layer1" transform="translate(0,-24)"><g id="g4251"><g id="g4238" transform="matrix(1.5,0,0,1.5,3.7252901e-8,-23.999999)"><circle style="fill:#3465a4;fill-opacity:1;stroke:#204a87;stroke-width:.35752407" id="path2093" cx="8" cy="40" r="7.821"/><ellipse id="path2209" cx="7.999" cy="40.001" rx="7.127" ry="7.126" style="opacity:.96022728;fill:none;fill-opacity:1;stroke:#fff;stroke-width:.98728555;stroke-miterlimit:4;stroke-dasharray:none;stroke-opacity:1"/></g><path id="path5121" d="m 10.256187,39 -0.05006,-0.669415 c -0.05063,-1.313682 0.351,-2.652507 1.479094,-4.017616 0.802406,-0.978262 1.453781,-1.827958 1.453781,-2.70365 0,-0.875408 -0.576281,-1.493393 -1.805062,-1.519394 -0.851907,0 -1.829813,0.283424 -2.5067817,0.74684 L 8,28.055975 C 8.90225,27.514844 10.381344,27 12.186406,27 15.470563,27 17,28.879956 17,30.991333 c 0,1.982525 -1.203468,3.244781 -2.156344,4.35161 -0.902531,1.029976 -1.303593,2.034522 -1.278562,3.193354 v 0.463418 h -3.308907 z" style="overflow:visible;fill:#fff;stroke-width:.28346997;filter:url(#filter5125)"/><circle id="circle5123" cx="12" cy="42" r="2" style="overflow:visible;fill:#fff;stroke-width:.25;filter:url(#filter5125)"/></g></g></svg>