<svg xmlns="http://www.w3.org/2000/svg" xmlns:svg="http://www.w3.org/2000/svg" width="24" height="24" enable-background="new 0 0 139 139" overflow="visible" version="1.0" viewBox="0 0 26.063 26.063" xml:space="preserve" style="overflow:visible"><metadata id="metadata3164"/><g id="g4240" transform="matrix(1.0845755,0,0,1.0859678,0.0162043,8.6870199)"><rect style="fill:none;stroke-width:.29999164" id="rect6639-9" width="23.999" height="23.999" x="0" y="-7.999"/><path style="fill:#f57900;fill-opacity:1;fill-rule:nonzero;stroke:#f57900;stroke-width:1.13471687;stroke-miterlimit:4;stroke-dasharray:none;stroke-opacity:1" id="path10109" d="M 23.285155,13.001741 13.351911,-6.5717568 c -0.285517,-0.5437038 -0.802143,-0.8457691 -1.377504,-0.8457691 -0.57536,0 -1.094642,0.3624808 -1.384486,0.9061845 L 0.73064839,13.062156 c -0.23208287,0.483288 -0.23472746,1.147823 0.0510109,1.631123 0.28576041,0.4833 0.74507961,0.724938 1.32045121,0.724938 H 21.894627 c 0.575361,0 1.094399,-0.302054 1.326471,-0.785354 0.289611,-0.4833 0.292024,-1.087419 0.06407,-1.631122 z"/><path style="opacity:.99;fill:#f57900;fill-opacity:1;fill-rule:nonzero;stroke:#fff;stroke-width:1.1486274;stroke-miterlimit:4;stroke-dasharray:none;stroke-opacity:1" id="path1325" d="M 21.814395,12.231872 12.874287,-5.4183886 c -0.38073,-0.7625991 -0.319916,-1.0072725 -0.898552,-1.0072725 -0.497683,0 -0.560685,0.3563402 -0.920326,1.0761746 L 2.2145317,12.286504 c -0.5133663,0.993087 -0.81511,1.356397 -0.5679993,1.793494 0.2470875,0.437096 0.6137082,0.308863 1.7859707,0.337368 H 20.808707 c 1.091366,0.01428 1.337204,0.03076 1.538004,-0.406259 0.250572,-0.437109 -0.05336,-0.888317 -0.532316,-1.779235 z"/><g style="fill:#121312;fill-opacity:1;fill-rule:nonzero;stroke:#000;stroke-width:1.76948965;stroke-miterlimit:4" id="g10114" transform="matrix(0.65469027,0,0,0.56034483,-3.6413098,-9.4525615)"><path style="fill:#121312;fill-opacity:1;stroke:none;stroke-width:2.44517136" id="path10116" d="m 23.891356,40.069328 c -1.728839,0 -3.058716,-1.702516 -3.058716,-3.569131 0,-2.010201 1.196889,-3.569131 3.058716,-3.569131 1.861827,0 2.925728,1.55893 3.058716,3.569131 0,1.866615 -1.196889,3.569131 -3.058716,3.569131 z M 22.917393,29.396247 21.231603,15.08541 h 5.319506 l -1.68579,16.669612 z"/></g></g></svg>