<svg xmlns="http://www.w3.org/2000/svg" xmlns:svg="http://www.w3.org/2000/svg" id="svg30571" width="24" height="24" version="1.1" viewBox="0 0 24 24"><metadata id="metadata30576"/><g id="layer1" transform="translate(0,-1028.3622)"><g id="g4284"><rect id="rect28186-4" width="24" height="24" x="0" y="1028.362" rx="0" style="fill:none;stroke:none;stroke-width:1.49999392"/><rect id="rect6884" width="24" height="24" x="0" y="1028.362" style="opacity:.3;fill:none;stroke:none;stroke-width:1.49999392"/><path id="path8334" d="m 4.7052411,1035.6105 a 0.77382059,0.78762418 0 0 0 -0.1707675,0.018 0.77382059,0.78762418 0 0 0 -0.3868718,1.3536 l 2.5358222,2.5808 H 0.24715011 v 1.5751 H 6.689469 l -2.5418672,2.5873 a 0.78649587,0.80052556 0 1 0 1.1122559,1.1319 l 3.8687162,-3.9377 0.5319482,-0.5659 -0.5319482,-0.5662 -3.8687162,-3.9376 a 0.77382059,0.78762418 0 0 0 -0.5546166,-0.24 z" style="color:#000;font-style:normal;font-variant:normal;font-weight:400;font-stretch:normal;font-size:medium;line-height:normal;font-family:Sans;-inkscape-font-specification:Sans;text-indent:0;text-align:start;text-decoration:none;text-decoration-line:none;letter-spacing:normal;word-spacing:normal;text-transform:none;writing-mode:lr-tb;direction:ltr;baseline-shift:baseline;text-anchor:start;display:inline;overflow:visible;visibility:visible;fill:#fcaf3e;fill-opacity:1;stroke:#ce5c00;stroke-width:.49430022;stroke-miterlimit:4;stroke-dasharray:none;stroke-opacity:1;marker:none;enable-background:accumulate"/><path id="path8334-2" d="m 19.294439,1035.6105 a 0.77382059,0.78762418 0 0 1 0.170768,0.018 0.77382059,0.78762418 0 0 1 0.386871,1.3536 l -2.535822,2.5808 h 6.436274 v 1.5751 h -6.442319 l 2.541867,2.5873 a 0.78649587,0.80052556 0 1 1 -1.112256,1.1319 l -3.868716,-3.9377 -0.531948,-0.5659 0.531948,-0.5662 3.868716,-3.9376 a 0.77382059,0.78762418 0 0 1 0.554617,-0.24 z" style="color:#000;font-style:normal;font-variant:normal;font-weight:400;font-stretch:normal;font-size:medium;line-height:normal;font-family:Sans;-inkscape-font-specification:Sans;text-indent:0;text-align:start;text-decoration:none;text-decoration-line:none;letter-spacing:normal;word-spacing:normal;text-transform:none;writing-mode:lr-tb;direction:ltr;baseline-shift:baseline;text-anchor:start;display:inline;overflow:visible;visibility:visible;fill:#fcaf3e;fill-opacity:1;stroke:#ce5c00;stroke-width:.49430022;stroke-miterlimit:4;stroke-dasharray:none;stroke-opacity:1;marker:none;enable-background:accumulate"/><path id="path8334-0" d="m 16.751659,1033.0678 a 0.78769949,0.77381836 0 0 0 -0.018,-0.1707 0.78769949,0.77381836 0 0 0 -1.35373,-0.3869 l -2.581047,2.5358 v -6.4362 h -1.57525 v 6.4423 l -2.5875481,-2.5419 a 0.8006021,0.7864936 0 1 0 -1.1320082,1.1123 l 3.9380773,3.8687 0.565954,0.5319 0.566254,-0.5319 3.937977,-3.8687 a 0.78769949,0.77381836 0 0 0 0.240022,-0.5547 z" style="color:#000;font-style:normal;font-variant:normal;font-weight:400;font-stretch:normal;font-size:medium;line-height:normal;font-family:Sans;-inkscape-font-specification:Sans;text-indent:0;text-align:start;text-decoration:none;text-decoration-line:none;letter-spacing:normal;word-spacing:normal;text-transform:none;writing-mode:lr-tb;direction:ltr;baseline-shift:baseline;text-anchor:start;display:inline;overflow:visible;visibility:visible;fill:#fcaf3e;fill-opacity:1;stroke:#ce5c00;stroke-width:.49432313;stroke-miterlimit:4;stroke-dasharray:none;stroke-opacity:1;marker:none;enable-background:accumulate"/><path id="path8334-0-6" d="m 16.751659,1047.657 a 0.78769949,0.77381836 0 0 1 -0.018,0.1707 0.78769949,0.77381836 0 0 1 -1.35373,0.3869 l -2.581047,-2.5358 v 6.4362 h -1.57525 v -6.4423 l -2.5875485,2.5419 a 0.8006021,0.7864936 0 1 1 -1.1320083,-1.1123 l 3.9380778,-3.8687 0.565954,-0.5319 0.566254,0.5319 3.937977,3.8687 a 0.78769949,0.77381836 0 0 1 0.240022,0.5547 z" style="color:#000;font-style:normal;font-variant:normal;font-weight:400;font-stretch:normal;font-size:medium;line-height:normal;font-family:Sans;-inkscape-font-specification:Sans;text-indent:0;text-align:start;text-decoration:none;text-decoration-line:none;letter-spacing:normal;word-spacing:normal;text-transform:none;writing-mode:lr-tb;direction:ltr;baseline-shift:baseline;text-anchor:start;display:inline;overflow:visible;visibility:visible;fill:#fcaf3e;fill-opacity:1;stroke:#ce5c00;stroke-width:.49432313;stroke-miterlimit:4;stroke-dasharray:none;stroke-opacity:1;marker:none;enable-background:accumulate"/></g></g></svg>