<svg xmlns="http://www.w3.org/2000/svg" xmlns:svg="http://www.w3.org/2000/svg" xmlns:xlink="http://www.w3.org/1999/xlink" id="svg97" width="24" height="24" version="1.1" viewBox="0 0 24 24"><defs id="defs3"><linearGradient id="linearGradient9766"><stop style="stop-color:#6194cb;stop-opacity:1" id="stop9768" offset="0"/><stop style="stop-color:#729fcf;stop-opacity:1" id="stop9770" offset="1"/></linearGradient><linearGradient id="linearGradient3096"><stop id="stop3098" offset="0" style="stop-color:#424242;stop-opacity:1"/><stop id="stop3100" offset="1" style="stop-color:#777;stop-opacity:1"/></linearGradient><linearGradient id="linearGradient3104-5" x1="18.113" x2="15.515" y1="31.368" y2="6.18" gradientTransform="matrix(0.6008182,0,0,0.60098717,-1.8363771,23.944582)" gradientUnits="userSpaceOnUse" xlink:href="#linearGradient3096"/><linearGradient id="linearGradient9772" x1="22.176" x2="22.065" y1="36.988" y2="32.05" gradientTransform="matrix(0.58583149,0,0,0.59874372,-1.3064445,24.343264)" gradientUnits="userSpaceOnUse" xlink:href="#linearGradient9766"/><linearGradient id="linearGradient322-1" x1="13.036" x2="12.854" y1="32.567" y2="46.689" gradientTransform="matrix(0.77184067,0,0,0.50168839,-1.8879464,23.335751)" gradientUnits="userSpaceOnUse" xlink:href="#linearGradient8340"/><linearGradient id="linearGradient8340"><stop id="stop8342" stop-color="#fff" stop-opacity=".796"/><stop id="stop8344" offset="1" stop-color="#fff" stop-opacity=".216"/></linearGradient><radialGradient id="radialGradient3297" cx="28.658" cy="33.987" r="18.572" fx="28.658" fy="33.987" gradientTransform="matrix(1.9578819,0,0,1.9776232,-140.66735,2099.5254)" gradientUnits="userSpaceOnUse" xlink:href="#linearGradient3201"/><linearGradient id="linearGradient3201"><stop id="stop3203" stop-color="#e7ce79"/><stop id="stop3205" offset="1" stop-color="#c17d11"/></linearGradient><linearGradient id="linearGradient5442" x1="4.879" x2="16.929" y1="1043.733" y2="1043.733" gradientTransform="translate(-96.394814,1118.7359)" gradientUnits="userSpaceOnUse" xlink:href="#linearGradient3096"/><linearGradient id="linearGradient3238" x1="15.3" x2="51.568" y1="9.144" y2="83.076" gradientTransform="matrix(0.32399235,0,0,0.35716019,-94.058324,2153.9078)" gradientUnits="userSpaceOnUse" xlink:href="#linearGradient8340"/><linearGradient id="linearGradient4021" x1="-13.619" x2="-9.834" y1="1044.783" y2="1044.783" gradientTransform="matrix(0.81744022,0,0,0.84959857,-73.230444,1277.3853)" gradientUnits="userSpaceOnUse" xlink:href="#linearGradient2911"/><linearGradient id="linearGradient2911"><stop id="stop2913" offset="0" style="stop-color:#8ae234;stop-opacity:1"/><stop id="stop2915-3" offset="1" style="stop-color:#73d216;stop-opacity:1"/></linearGradient><linearGradient id="linearGradient4021-5" x1="-13.619" x2="-9.834" y1="1044.783" y2="1044.783" gradientTransform="matrix(0.81744022,0,0,0.84959857,-76.808464,1279.1906)" gradientUnits="userSpaceOnUse" xlink:href="#linearGradient2866"/><linearGradient id="linearGradient2866"><stop id="stop2868" offset="0" style="stop-color:#ef2929;stop-opacity:1"/><stop id="stop2870" offset="1" style="stop-color:#c00;stop-opacity:1"/></linearGradient><linearGradient id="linearGradient4021-3" x1="-13.619" x2="-9.834" y1="1044.783" y2="1044.783" gradientTransform="matrix(0.81744022,0,0,0.84959857,-72.840114,1273.6934)" gradientUnits="userSpaceOnUse" xlink:href="#linearGradient2880"/><linearGradient id="linearGradient2880"><stop style="stop-color:#729fcf;stop-opacity:1" id="stop2882" offset="0"/><stop style="stop-color:#3465a4;stop-opacity:1" id="stop2884" offset="1"/></linearGradient></defs><metadata id="metadata4"/><g id="g4366" transform="matrix(0.9998394,0,0,1,0.00385441,0)"><path style="fill:#fff;fill-opacity:1;fill-rule:nonzero;stroke:url(#linearGradient3104-5);stroke-width:.60090262;stroke-linecap:round;stroke-linejoin:round;stroke-miterlimit:4;stroke-dasharray:none;stroke-opacity:1" id="path216-5" d="M 0.88039079,47.195223 C 0.89348593,47.445417 1.15671,47.695611 1.4068334,47.695611 H 20.228677 c 0.250122,0 0.48715,-0.250194 0.474055,-0.500388 L 20.1401,30.832305 C 20.127,30.582112 19.863786,30.331913 19.613663,30.331913 h -7.973382 c -0.291431,0 -0.741694,-0.189664 -0.842133,-0.665071 l -0.367335,-1.738699 c -0.09341,-0.44213 -0.53005,-0.623756 -0.7801735,-0.623756 H 0.77123237 c -0.2501283,0 -0.48715589,0.250193 -0.47406051,0.500387 z" transform="translate(0,-24)"/><rect id="rect3965-5" width="24" height="23.996" x="0" y="24" transform="translate(0,-24)" style="color:#000;clip-rule:nonzero;display:inline;overflow:visible;visibility:visible;opacity:0;isolation:auto;mix-blend-mode:normal;color-interpolation:sRGB;color-interpolation-filters:linearRGB;solid-color:#000;solid-opacity:1;fill:#bebebe;fill-opacity:1;fill-rule:nonzero;stroke:none;stroke-width:.73943967;stroke-linecap:round;stroke-linejoin:miter;stroke-miterlimit:4;stroke-dasharray:none;stroke-dashoffset:0;stroke-opacity:1;color-rendering:auto;image-rendering:auto;shape-rendering:auto;text-rendering:auto;enable-background:accumulate"/><g id="gimp-color-palette" transform="matrix(0.20273474,-0.92872881,0.95845921,0.19644613,-986.9221,-190.05174)"><g id="g4007" transform="translate(-2.3419761,0.78065922)"><g id="g4010" transform="matrix(1.0501565,0,0,1.0501565,-0.29003914,-52.708266)"><path style="opacity:1;fill:#e9b96e;fill-opacity:1;fill-rule:evenodd;stroke:url(#linearGradient5442);stroke-width:.34017223;stroke-linecap:butt;stroke-linejoin:miter;stroke-miterlimit:4;stroke-dasharray:none;stroke-opacity:1" id="path2193" d="m 9.4536954,1036.7703 c -1.900788,0.028 -4.447296,0.7445 -4.404271,3.0471 0.0459,2.4561 2.752324,1.487 2.855183,2.5782 0.166241,1.7637 -3.296211,7.1293 1.964204,8.1811 3.5118376,0.7024 7.2390576,-1.7087 6.8645866,-6.5738 -0.336769,-4.3755 -3.620646,-7.1213 -6.9050856,-7.2326 -0.119994,0 -0.247897,0 -0.374617,0 z m -0.820105,1.4287 c 0.894219,0 1.6199616,0.56 1.6199616,1.2501 0,0.6899 -0.7257426,1.2499 -1.6199616,1.2499 -0.894219,0 -1.619962,-0.56 -1.619962,-1.2499 0,-0.6901 0.725743,-1.2501 1.619962,-1.2501 z"/><path style="opacity:.67049806;fill:none;fill-opacity:1;fill-rule:evenodd;stroke:url(#linearGradient3238);stroke-width:.34017226;stroke-linecap:butt;stroke-linejoin:miter;stroke-miterlimit:4;stroke-opacity:1" id="path3230" d="m 9.4744424,1037.1363 c -0.915046,0.013 -1.983862,0.2027 -2.78431,0.6362 -0.800447,0.4334 -1.314734,1.0383 -1.295969,2.0424 0.0101,0.5408 0.155408,0.8317 0.354367,1.038 0.198958,0.2065 0.484586,0.3301 0.80998,0.4242 0.325395,0.094 0.677648,0.1497 0.992227,0.2679 0.15729,0.058 0.311383,0.1357 0.44549,0.2679 0.134106,0.1322 0.232392,0.3381 0.253119,0.558 0.05537,0.5875 -0.155169,1.2513 -0.374617,2.0202 -0.219447,0.7689 -0.468522,1.6121 -0.556861,2.4108 -0.08834,0.7988 -0.01335,1.5286 0.344241,2.1095 0.357595,0.5808 1.027285,1.0649 2.288196,1.317 1.6713306,0.3342 3.3853516,-0.074 4.6270156,-1.1273 1.241664,-1.0533 2.031962,-2.7287 1.852831,-5.056 -0.322615,-4.1915 -3.465043,-6.8028 -6.5912186,-6.9088 -0.109183,0 -0.237167,0 -0.364491,0 z"/><ellipse style="color:#000;clip-rule:nonzero;display:inline;overflow:visible;visibility:visible;opacity:1;isolation:auto;mix-blend-mode:normal;color-interpolation:sRGB;color-interpolation-filters:linearRGB;solid-color:#000;solid-opacity:1;fill:url(#linearGradient4021);fill-opacity:1;fill-rule:nonzero;stroke:#4e9a06;stroke-width:.41668215;stroke-linecap:round;stroke-linejoin:miter;stroke-miterlimit:4;stroke-dasharray:none;stroke-dashoffset:0;stroke-opacity:1;color-rendering:auto;image-rendering:auto;shape-rendering:auto;text-rendering:auto;enable-background:accumulate" id="path4013" cx="13.579" cy="1046.296" rx="1.343" ry="1.326"/><ellipse style="color:#000;clip-rule:nonzero;display:inline;overflow:visible;visibility:visible;opacity:1;isolation:auto;mix-blend-mode:normal;color-interpolation:sRGB;color-interpolation-filters:linearRGB;solid-color:#000;solid-opacity:1;fill:url(#linearGradient4021-5);fill-opacity:1;fill-rule:nonzero;stroke:#a40000;stroke-width:.41668215;stroke-linecap:round;stroke-linejoin:miter;stroke-miterlimit:4;stroke-dasharray:none;stroke-dashoffset:0;stroke-opacity:1;color-rendering:auto;image-rendering:auto;shape-rendering:auto;text-rendering:auto;enable-background:accumulate" id="path4013-3" cx="10.001" cy="1048.101" rx="1.343" ry="1.326"/><ellipse style="color:#000;clip-rule:nonzero;display:inline;overflow:visible;visibility:visible;opacity:1;isolation:auto;mix-blend-mode:normal;color-interpolation:sRGB;color-interpolation-filters:linearRGB;solid-color:#000;solid-opacity:1;fill:url(#linearGradient4021-3);fill-opacity:1;fill-rule:nonzero;stroke:#204a87;stroke-width:.41668215;stroke-linecap:round;stroke-linejoin:miter;stroke-miterlimit:4;stroke-dasharray:none;stroke-dashoffset:0;stroke-opacity:1;color-rendering:auto;image-rendering:auto;shape-rendering:auto;text-rendering:auto;enable-background:accumulate" id="path4013-1" cx="13.969" cy="1042.604" rx="1.343" ry="1.326"/></g></g></g><g id="g4420" transform="matrix(0.99965663,0,0,1.0005166,-0.46580058,-24.322559)"><path style="color:#000;display:block;visibility:visible;fill:url(#linearGradient9772);fill-opacity:1;fill-rule:nonzero;stroke:#3465a4;stroke-width:.59225792;stroke-linecap:butt;stroke-linejoin:round;stroke-miterlimit:4;stroke-dasharray:none;stroke-dashoffset:0;stroke-opacity:1;marker:none;marker-start:none;marker-mid:none;marker-end:none" id="path233-5" d="m 22,48 c 0.670129,-0.02638 1.150031,-0.656403 1.199218,-1.389688 0.463853,-6.914704 0.972105,-12.712496 0.972105,-12.712496 0.04227,-0.14818 -0.09837,-0.296359 -0.281282,-0.296359 H 3.7543369 c 0,0 -1.0839751,13.092665 -1.0839751,13.092665 -0.06711,0.588005 -0.2730018,1.080563 -0.9079425,1.307485 L 22,48.000007 Z"/><path id="path304-3" d="m 4.26329,34.265001 19.21041,0.03984 -0.922143,12.293645 c -0.0494,0.658573 -0.264026,0.877811 -1.097081,0.877811 -1.096404,0 -16.8007637,-0.01992 -18.3923649,-0.01992 0.1368518,-0.197177 0.1955282,-0.607628 0.1963136,-0.617456 z" style="opacity:.46590911;fill:none;fill-opacity:1;fill-rule:evenodd;stroke:url(#linearGradient322-1);stroke-width:.60005915px;stroke-linecap:round;stroke-linejoin:miter;stroke-opacity:1"/></g></g></svg>