<svg xmlns="http://www.w3.org/2000/svg" xmlns:svg="http://www.w3.org/2000/svg" xmlns:xlink="http://www.w3.org/1999/xlink" id="svg11300" width="24" height="24" version="1.0"><defs id="defs3"><linearGradient id="linearGradient2065"><stop id="stop2067" offset="0" style="stop-color:#555753"/><stop id="stop2069" offset="1" style="stop-color:#fcaf3e"/></linearGradient><linearGradient id="linearGradient4928"><stop style="stop-color:#fce94f;stop-opacity:1" id="stop4930" offset="0"/><stop style="stop-color:#fce94f;stop-opacity:0" id="stop4932" offset="1"/></linearGradient><linearGradient id="linearGradient4616"><stop id="stop4618" offset="0" style="stop-color:#2e3436;stop-opacity:1"/><stop id="stop4620" offset="1" style="stop-color:#2e3436;stop-opacity:0"/></linearGradient><linearGradient id="linearGradient7384" x1="-11.986" x2="-11.986" y1="13.123" y2="29.727" gradientTransform="matrix(0.748925,0,0,0.748925,83.42059,16.65945)" gradientUnits="userSpaceOnUse" xlink:href="#linearGradient2065"/><radialGradient id="radialGradient7386" cx="-6.007" cy="32.837" r="9.906" fx="-6.007" fy="32.837" gradientTransform="matrix(0.748925,-1.113789e-8,1.067619e-8,0.717879,73.47172,17.83974)" gradientUnits="userSpaceOnUse" xlink:href="#linearGradient4928"/><linearGradient id="linearGradient7388" x1="25.355" x2="25.355" y1="34.007" y2="32.409" gradientTransform="matrix(0.748925,0,0,0.748925,56.45929,16.65945)" gradientUnits="userSpaceOnUse" xlink:href="#linearGradient4616"/></defs><metadata id="metadata4"/><g id="layer1" transform="translate(0,2)"><g id="g4173"><rect id="rect7400" width="22.769" height="22.769" x=".616" y="-1.384" rx=".933" ry=".968" style="color:#000;display:inline;overflow:visible;visibility:visible;fill:#eeeeec;fill-opacity:1;fill-rule:evenodd;stroke:#888a85;stroke-width:1.23119533;stroke-linecap:butt;stroke-linejoin:miter;stroke-miterlimit:4;stroke-dasharray:none;stroke-dashoffset:0;stroke-opacity:1;marker:none;marker-start:none;marker-mid:none;marker-end:none"/><rect id="rect7402" width="20" height="2" x="2" y="0" rx=".185" ry=".222" style="color:#000;display:inline;overflow:visible;visibility:visible;fill:#204a87;fill-opacity:1;fill-rule:evenodd;stroke:none;stroke-width:1;stroke-linecap:butt;stroke-linejoin:miter;stroke-miterlimit:4;stroke-dasharray:none;stroke-dashoffset:0;stroke-opacity:1;marker:none;marker-start:none;marker-mid:none;marker-end:none"/><g id="g7376" transform="matrix(0.71874047,0,0,0.86893116,-41.505635,-18.284803)"><rect style="fill:url(#linearGradient7384);fill-opacity:1;stroke:#babdb6;stroke-width:1.61019588;stroke-linecap:round;stroke-linejoin:round;stroke-miterlimit:4;stroke-dasharray:none;stroke-dashoffset:0;stroke-opacity:1" id="rect2063" width="26.233" height="17.974" x="61.327" y="25.272" rx=".496" ry=".415"/><path style="color:#000;display:inline;overflow:visible;visibility:visible;fill:url(#radialGradient7386);fill-opacity:1;fill-rule:evenodd;stroke:none;stroke-width:1;stroke-linecap:round;stroke-linejoin:round;stroke-miterlimit:4;stroke-dasharray:none;stroke-dashoffset:0;stroke-opacity:1;marker:none;marker-start:none;marker-mid:none;marker-end:none" id="path4898" d="m 68.504842,33.54904 c -3.871028,0.245613 -6.950961,3.486386 -6.950961,7.419038 0,0.151871 0.01439,0.295058 0.0234,0.444674 l 14.791269,0 c 0.009,-0.149616 0.0234,-0.292803 0.0234,-0.444674 0,-4.092517 -3.326522,-7.419038 -7.419038,-7.419038 -0.159864,0 -0.310719,-0.01 -0.468078,0 z"/><rect style="fill:url(#linearGradient7388);fill-opacity:1;stroke:none;stroke-width:1;stroke-linecap:round;stroke-linejoin:round;stroke-miterlimit:4;stroke-dasharray:none;stroke-dashoffset:0;stroke-opacity:1" id="rect1324" width="25.463" height="1.498" x="61.702" y="41.374" rx="0" ry="0"/><path style="fill:#000;fill-opacity:1;fill-rule:evenodd;stroke:none;stroke-width:1px;stroke-linecap:butt;stroke-linejoin:miter;stroke-opacity:1" id="path2079" d="m 78.594206,42.102134 c 0,0 -0.416091,-2.309202 -0.416091,-3.723859 0.01154,-0.645348 5.83166,-5.672814 5.846675,-6.421675 l -1.353125,1.1792 -0.947514,-2.577756 3.194289,0.330981 1.49785,-1.49785 -1.696439,1.245397 -0.583434,-0.132393 -0.715827,-2.610854 0.364079,2.544658 -2.643952,-0.132392 0.827453,2.105948 -2.292205,-2.271439 2.424598,3.16156 c 6.3e-5,0.705134 -4.778797,5.009711 -4.770668,4.267474 l -1.981989,-2.658368 -0.165491,-3.593784 1.49785,-0.427957 1.312233,-3.235821 -1.729807,2.990693 -1.350438,-0.06119 -3.022952,-2.553092 -4.150706,-1.58871 3.546036,1.948892 -2.842541,0.252453 3.744625,0 2.246775,2.246775 0.264785,3.880915 -4.00941,-3.880915 1.686056,2.02742 -2.434981,1.717205 2.674732,-1.49785 4.231084,5.329438 -0.165491,3.636896 1.913941,0 z"/><path id="path4924" d="m 68.717495,38.055881 c -2.112372,0.10278 -3.793053,1.458925 -3.793053,3.104595 0,0.06355 0.0079,0.123471 0.01277,0.18608 l 8.071414,0 c 0.0049,-0.06261 0.01277,-0.122527 0.01277,-0.18608 0,-1.712567 -1.815242,-3.104595 -4.048478,-3.104595 -0.08724,0 -0.169556,-0.0042 -0.255425,0 z" style="color:#000;display:inline;overflow:visible;visibility:visible;fill:#fef39e;fill-opacity:1;fill-rule:evenodd;stroke:none;stroke-width:1;stroke-linecap:round;stroke-linejoin:round;stroke-miterlimit:4;stroke-dasharray:none;stroke-dashoffset:0;stroke-opacity:1;marker:none;marker-start:none;marker-mid:none;marker-end:none"/><path style="color:#000;display:inline;overflow:visible;visibility:visible;fill:#fffbd7;fill-opacity:.55681817;fill-rule:evenodd;stroke:none;stroke-width:1;stroke-linecap:round;stroke-linejoin:round;stroke-miterlimit:4;stroke-dasharray:none;stroke-dashoffset:0;stroke-opacity:1;marker:none;marker-start:none;marker-mid:none;marker-end:none" id="path4926" d="m 68.778119,38.614411 c -1.611003,0.0839 -2.892777,1.190836 -2.892777,2.5341 0,0.05187 0.006,0.100781 0.0097,0.151885 l 6.155676,0 c 0.0038,-0.0511 0.0097,-0.100012 0.0097,-0.151885 0,-1.397869 -1.384397,-2.5341 -3.087578,-2.5341 -0.06653,0 -0.129312,-0.0034 -0.194801,0 z"/></g></g></g></svg>