<svg xmlns="http://www.w3.org/2000/svg" xmlns:svg="http://www.w3.org/2000/svg" xmlns:xlink="http://www.w3.org/1999/xlink" id="svg2" width="24" height="24" version="1.1" viewBox="0 0 24 24"><defs id="defs4"><linearGradient id="linearGradient6395"><stop style="stop-color:#fff;stop-opacity:1" id="stop6397" offset="0"/><stop style="stop-color:#fff;stop-opacity:0" id="stop6399" offset="1"/></linearGradient><linearGradient id="linearGradient6957" x1="28.059" x2="33.437" y1="18.868" y2="23.743" gradientTransform="translate(-3.90695,-1.802856)" gradientUnits="userSpaceOnUse" xlink:href="#linearGradient6951"/><linearGradient id="linearGradient6951"><stop style="stop-color:#6e3d09;stop-opacity:1" id="stop6953" offset="0"/><stop id="stop6959" offset=".242" style="stop-color:#ea8113;stop-opacity:1"/><stop style="stop-color:#5c3307;stop-opacity:1" id="stop6961" offset=".621"/><stop style="stop-color:#e07c12;stop-opacity:1" id="stop6955" offset="1"/></linearGradient><linearGradient id="linearGradient6945" x1="19.395" x2="23.109" y1="30.001" y2="33.439" gradientTransform="translate(-3.90695,-1.802856)" gradientUnits="userSpaceOnUse" xlink:href="#linearGradient6939"/><linearGradient id="linearGradient6939"><stop style="stop-color:#bdbdbd;stop-opacity:1" id="stop6941" offset="0"/><stop id="stop6947" offset=".333" style="stop-color:#e2e2e2;stop-opacity:1"/><stop style="stop-color:#a3a3a3;stop-opacity:1" id="stop6949" offset=".667"/><stop style="stop-color:#ddd;stop-opacity:1" id="stop6943" offset="1"/></linearGradient><radialGradient id="radialGradient6969" cx="15.415" cy="35.357" r="7.579" fx="15.415" fy="35.357" gradientTransform="matrix(0.994655,0,0,0.969322,-4.583017,0.165919)" gradientUnits="userSpaceOnUse" xlink:href="#linearGradient6963"/><linearGradient id="linearGradient6963"><stop style="stop-color:#696969;stop-opacity:1" id="stop6965" offset="0"/><stop style="stop-color:#000;stop-opacity:1" id="stop6967" offset="1"/></linearGradient><linearGradient id="linearGradient2452" x1="13.236" x2="7.752" y1="37.752" y2="42.282" gradientTransform="matrix(0.852298,0,0,0.852298,-1.675107,3.753977)" gradientUnits="userSpaceOnUse" xlink:href="#linearGradient6395"/><linearGradient id="linearGradient6343" x1="48.906" x2="50.988" y1="17.376" y2="22.251" gradientTransform="matrix(-0.20794881,0.64270974,0.6977481,0.18847085,-0.96708262,1014.5145)" gradientUnits="userSpaceOnUse" xlink:href="#linearGradient2966"/><linearGradient id="linearGradient2966"><stop style="stop-color:#ffd1d1;stop-opacity:1" id="stop2968" offset="0"/><stop id="stop3006" offset=".5" style="stop-color:#ff1d1d;stop-opacity:1"/><stop style="stop-color:#6f0000;stop-opacity:1" id="stop2970" offset="1"/></linearGradient><linearGradient id="linearGradient6345" x1="46" x2="47.688" y1="19.813" y2="22.625" gradientTransform="matrix(-0.20794881,0.64270974,0.6977481,0.18847085,-0.96706868,1014.5145)" gradientUnits="userSpaceOnUse" xlink:href="#linearGradient2974"/><linearGradient id="linearGradient2974"><stop style="stop-color:#c1c1c1;stop-opacity:1" id="stop2976" offset="0"/><stop style="stop-color:#acacac;stop-opacity:1" id="stop2978" offset="1"/></linearGradient><radialGradient id="radialGradient6347" cx="29.053" cy="27.641" r="3.241" fx="29.053" fy="27.641" gradientTransform="matrix(-0.60795187,1.8790037,1.4162314,0.38254256,-2.4873851,967.03555)" gradientUnits="userSpaceOnUse" xlink:href="#linearGradient2984"/><linearGradient id="linearGradient2984"><stop style="stop-color:#e7e2b8;stop-opacity:1" id="stop2986" offset="0"/><stop style="stop-color:#e7e2b8;stop-opacity:0" id="stop2988" offset="1"/></linearGradient><linearGradient id="linearGradient6349" x1="25.719" x2="25.515" y1="31.047" y2="30.703" gradientTransform="matrix(-0.20794881,0.64270974,0.6977481,0.18847085,5.467018,1008.1325)" gradientUnits="userSpaceOnUse" xlink:href="#linearGradient2994"/><linearGradient id="linearGradient2994"><stop style="stop-color:#000;stop-opacity:1" id="stop2996" offset="0"/><stop style="stop-color:#c9c9c9;stop-opacity:1" id="stop2998" offset="1"/></linearGradient><linearGradient id="0" x1="6.155" x2="9.604" y1="3.449" y2="8.987" gradientUnits="userSpaceOnUse"><stop id="stop19" stop-color="gray"/><stop id="stop21" offset="1" stop-color="#4d4d4d"/></linearGradient><linearGradient id="1" x1="2.979" x2="6" y1="3.147" y2="7.842" gradientTransform="matrix(1.0037513,-0.00235379,-0.00224555,1.001409,-0.02074974,0.01301976)" gradientUnits="userSpaceOnUse"><stop id="stop24" stop-color="#fff"/><stop id="stop26" offset="1" stop-color="gray"/></linearGradient><linearGradient id="2" x1="1.721" x2="8.313" y1="4.02" y2="-.101" gradientUnits="userSpaceOnUse"><stop id="stop14" stop-color="#acacac"/><stop id="stop16" offset="1" stop-color="#6b6b6b" stop-opacity=".882"/></linearGradient><linearGradient id="linearGradient4028" x1="8.51" x2="14.391" y1="12.352" y2="12.352" gradientUnits="userSpaceOnUse" xlink:href="#linearGradient6951"/><linearGradient id="linearGradient4032" x1="-.371" x2="14.168" y1="17.926" y2="10.166" gradientTransform="matrix(0.86541111,-0.5478357,0.56946778,0.90186401,-0.78579382,-0.98077276)" gradientUnits="userSpaceOnUse" xlink:href="#linearGradient4034"/><linearGradient id="linearGradient4034"><stop id="stop4036" offset="0" style="stop-color:#6e3d09;stop-opacity:1"/><stop style="stop-color:#ea8113;stop-opacity:1" id="stop4038" offset=".21"/><stop id="stop4040" offset=".406" style="stop-color:#5c3307;stop-opacity:1"/><stop id="stop4042" offset="1" style="stop-color:#e07c12;stop-opacity:1"/></linearGradient></defs><metadata id="metadata7"/><g id="layer1" transform="translate(0,-1028.3622)"><g id="g4350"><g id="g4052" transform="matrix(1.3580435,0.79206081,-0.81294209,1.2623157,7.0208154,1022.0105)"><path id="path28" d="M 1.737,3.942 C 2.644,6.823 8.323,10.878 9.911,9.76 11.521,8.627 9.838,2.482 8.061,0.01" style="fill:url(#0)"/><path style="fill:url(#1);stroke-width:1.00257683" id="path30" d="M 1.713912,3.957487 C 2.1065808,5.2093222 3.6701558,6.6687065 5.3250631,8.1318823 5.670138,7.3319529 6.5781736,5.6995383 9.907785,4.2737427 9.2982475,2.600825 8.7128675,0.89780848 8.0704667,0.00405996"/><path style="fill:url(#2)" id="path32" d="M 1.737,3.943 C 1.748,3.977 1.76,4.011 1.773,4.046 L 8.119,0.093 C 8.1,0.065 8.081,0.036 8.062,0.01 L 1.738,3.943"/><g id="g34" style="fill:url(#linearGradient4028);fill-opacity:1;fill-rule:evenodd"><path id="path36" d="m 8.2136077,9.745556 2.1332043,-1.3503983 3.890991,6.5000133 -2.133019,1.350282 z" style="fill:url(#linearGradient4032);fill-opacity:1;stroke:#673907;stroke-width:.31921029;stroke-miterlimit:4;stroke-dasharray:none;stroke-opacity:1"/></g></g><g id="g4000" transform="matrix(-0.11242376,0.5339904,-0.68270907,-0.06330713,28.80494,1030.0016)"><path style="color:#000;display:inline;overflow:visible;visibility:visible;opacity:1;fill:url(#linearGradient6957);fill-opacity:1;fill-rule:nonzero;stroke:#673907;stroke-width:1;stroke-linecap:round;stroke-linejoin:miter;stroke-miterlimit:4;stroke-dasharray:none;stroke-dashoffset:0;stroke-opacity:1;marker:none;marker-start:none;marker-mid:none;marker-end:none" id="path6937" d="m 19.651682,22.586735 4.065864,3.800698 c 7.187499,-7.062499 17.78306,-23.9772875 17.78306,-23.9772875 0.42949,-1.2244462 -1.087245,-1.99589286 -1.846352,-1.170495 0,0 -13.690073,14.0970855 -20.002572,21.3470845 z"/><path style="color:#000;display:inline;overflow:visible;visibility:visible;opacity:1;fill:url(#linearGradient6945);fill-opacity:1;fill-rule:nonzero;stroke:#888a85;stroke-width:1;stroke-linecap:round;stroke-linejoin:miter;stroke-miterlimit:4;stroke-dasharray:none;stroke-dashoffset:0;stroke-opacity:1;marker:none;marker-start:none;marker-mid:none;marker-end:none" id="path6935" d="m 12.050285,32.813894 2.24632,1.93382 8.492766,-7.367031 0.275061,-0.705828 1.094405,-0.01782 c -0.4375,-1.5625 -2.941514,-4.383455 -4.816514,-4.383455 l 0.08202,1.090075 -0.669991,0.380027 -6.704066,9.070207 z"/><path style="color:#000;display:inline;overflow:visible;visibility:visible;opacity:1;fill:url(#radialGradient6969);fill-opacity:1;fill-rule:nonzero;stroke:none;stroke-width:.2;stroke-linecap:round;stroke-linejoin:miter;stroke-miterlimit:4;stroke-dasharray:none;stroke-dashoffset:0;stroke-opacity:1;marker:none;marker-start:none;marker-mid:none;marker-end:none" id="path6933" d="m 1.757709,40.723915 c 6.6053126,0 11.618187,0.786601 12.567225,-4.019073 C 15.089727,32.832133 9.7646096,30.976482 7.1258026,34.433791 4.583799,37.76427 1.757709,40.723915 1.757709,40.723915 Z"/><circle style="color:#000;display:inline;overflow:visible;visibility:visible;opacity:.52777782;fill:#fff;fill-opacity:1;fill-rule:nonzero;stroke:none;stroke-width:1;stroke-linecap:round;stroke-linejoin:miter;stroke-miterlimit:4;stroke-dasharray:none;stroke-dashoffset:0;stroke-opacity:1;marker:none;marker-start:none;marker-mid:none;marker-end:none" id="path6971" cx="7.625" cy="37.75" r="1.25" transform="matrix(0.852298,0,0,0.852298,3.733554,2.575604)"/><path style="color:#000;display:inline;overflow:visible;visibility:visible;opacity:.42777776;fill:url(#linearGradient2452);fill-opacity:1;fill-rule:nonzero;stroke:none;stroke-width:1;stroke-linecap:round;stroke-linejoin:miter;stroke-miterlimit:4;stroke-dasharray:none;stroke-dashoffset:0;stroke-opacity:1;marker:none;marker-start:none;marker-mid:none;marker-end:none" id="path1571" d="m 3.0708872,40.068976 c 0,0 3.3411114,-1.641821 4.7648284,-4.086829 0.503707,-0.865037 1.644373,-0.126836 0.941666,0.734499 -1.517828,1.860458 -5.7064944,3.35233 -5.7064944,3.35233 z"/></g><path id="path2960" d="m 23.239507,1029.1478 -5.09467,2.5525 -17.33414267,17.3592 c -1.54805649,1.8512 1.27619637,3.966 3.00793257,2.4261 l 17.0594821,-17.3897 z" style="color:#000;display:inline;overflow:visible;visibility:visible;fill:#cb9022;fill-opacity:1;fill-rule:evenodd;stroke:#5c410c;stroke-width:.69795847;stroke-linecap:butt;stroke-linejoin:miter;stroke-miterlimit:4;stroke-dasharray:none;stroke-dashoffset:0;stroke-opacity:1;marker:none;marker-start:none;marker-mid:none;marker-end:none"/><path style="color:#000;display:inline;overflow:visible;visibility:visible;fill:url(#linearGradient6343);fill-opacity:1;fill-rule:evenodd;stroke:none;stroke-width:.69831294;stroke-linecap:butt;stroke-linejoin:miter;stroke-miterlimit:4;stroke-dasharray:none;stroke-dashoffset:0;stroke-opacity:1;marker:none;marker-start:none;marker-mid:none;marker-end:none" id="path2964" d="m 3.8381292,1046.5632 c 0,0 -0.233513,0.9415 0.5217014,1.5387 0.7780279,0.6151 1.8533929,0.5006 1.8533929,0.5006 l -2.7688075,2.7683 c 0,0 -0.9169208,0.7672 -2.120688,-0.1142 -1.18732344,-0.8692 -0.2479087,-1.9451 -0.2479087,-1.9451 z"/><path id="path2962" d="m 3.8381292,1046.5632 c 0,0 -0.233513,0.9415 0.5217014,1.5387 0.7780279,0.6151 1.8533929,0.5006 1.8533929,0.5006 l -1.1136459,1.097 c 0,0 -1.0922169,0.283 -1.9206863,-0.3659 -0.8512402,-0.6668 -0.4544082,-1.6735 -0.4544082,-1.6735 z" style="color:#000;display:inline;overflow:visible;visibility:visible;fill:url(#linearGradient6345);fill-opacity:1;fill-rule:evenodd;stroke:none;stroke-width:.69831294;stroke-linecap:butt;stroke-linejoin:miter;stroke-miterlimit:4;stroke-dasharray:none;stroke-dashoffset:0;stroke-opacity:1;marker:none;marker-start:none;marker-mid:none;marker-end:none"/><path id="path2982" d="m 22.440865,1029.9055 -4.075637,2.0441 c 0.254997,1.1171 1.030136,1.8725 2.204847,1.9059 z" style="color:#000;display:inline;overflow:visible;visibility:visible;fill:url(#radialGradient6347);fill-opacity:1;fill-rule:evenodd;stroke:none;stroke-width:.69831294;stroke-linecap:butt;stroke-linejoin:miter;stroke-miterlimit:4;stroke-dasharray:none;stroke-dashoffset:0;stroke-opacity:1;marker:none;marker-start:none;marker-mid:none;marker-end:none"/><path id="path2992" d="m 21.180224,1030.5041 1.449954,-0.7441 -0.705427,1.4475 c -0.546995,0.01 -0.702367,-0.3207 -0.744527,-0.7034 z" style="color:#000;display:inline;overflow:visible;visibility:visible;fill:url(#linearGradient6349);fill-opacity:1;fill-rule:evenodd;stroke:none;stroke-width:.69831294;stroke-linecap:butt;stroke-linejoin:miter;stroke-miterlimit:4;stroke-dasharray:none;stroke-dashoffset:0;stroke-opacity:1;marker:none;marker-start:none;marker-mid:none;marker-end:none"/><path id="path3002" d="m 18.343424,1031.9437 0.547265,1.2398 -14.6132496,14.8435 c -0.5048839,-0.4469 -0.4985516,-1.0025 -0.4151609,-1.4424 z" style="color:#000;display:inline;overflow:visible;visibility:visible;fill:#fff;fill-opacity:.36363639;fill-rule:evenodd;stroke:none;stroke-width:.69831294;stroke-linecap:butt;stroke-linejoin:miter;stroke-miterlimit:4;stroke-dasharray:none;stroke-dashoffset:0;stroke-opacity:1;marker:none;marker-start:none;marker-mid:none;marker-end:none"/><path id="path3004" d="m 20.613684,1033.8672 -0.562301,-0.021 -14.4070749,14.7699 c 0,0 0.4510649,0.045 0.5677495,0 z" style="color:#000;display:inline;overflow:visible;visibility:visible;fill:#000;fill-opacity:.36363639;fill-rule:evenodd;stroke:none;stroke-width:.69831294;stroke-linecap:butt;stroke-linejoin:miter;stroke-miterlimit:4;stroke-dasharray:none;stroke-dashoffset:0;stroke-opacity:1;marker:none;marker-start:none;marker-mid:none;marker-end:none"/></g></g></svg>