<svg xmlns="http://www.w3.org/2000/svg" xmlns:svg="http://www.w3.org/2000/svg" id="svg11300" width="24" height="24" version="1.0" viewBox="0 0 24 24" style="display:inline;enable-background:new"><defs id="defs3"><clipPath id="clipPath4169" clipPathUnits="userSpaceOnUse"><path id="path4171" d="m 471.43078,685.92888 c 0,22.09674 -12.84202,40.00973 -12.84202,40.00973 0,0 -12.84203,-17.91299 -12.84203,-40.00973 0,-22.09678 12.84203,-40.00974 12.84203,-40.00974 0,0 12.84202,17.91296 12.84202,40.00974 z" style="color:#000;display:inline;overflow:visible;visibility:visible;fill:#edd400;fill-opacity:1;fill-rule:evenodd;stroke:none;stroke-width:12;marker:none;enable-background:new"/></clipPath><filter id="filter4173" width="1.494" height="1.159" x="-.247" y="-.079" style="color-interpolation-filters:sRGB"><feGaussianBlur id="feGaussianBlur4175" stdDeviation="2.643"/></filter><clipPath id="clipPath4145" clipPathUnits="userSpaceOnUse"><path style="color:#000;display:inline;overflow:visible;visibility:visible;fill:#3465a4;fill-opacity:1;fill-rule:evenodd;stroke:none;stroke-width:12;marker:none;enable-background:new" id="path4147" d="m 401.43078,865.80173 c 0,22.09677 -12.84202,40.00973 -12.84202,40.00973 0,0 -12.84203,-17.91296 -12.84203,-40.00973 0,-22.09675 12.84203,-40.00974 12.84203,-40.00974 0,0 12.84202,17.91299 12.84202,40.00974 z"/></clipPath><filter id="filter4149" width="1.494" height="1.159" x="-.247" y="-.079" style="color-interpolation-filters:sRGB"><feGaussianBlur id="feGaussianBlur4151" stdDeviation="2.643"/></filter><clipPath id="clipPath4181" clipPathUnits="userSpaceOnUse"><path id="path4183" d="m 348.71074,698.72614 c -22.06442,0 -39.95118,-12.86084 -39.95118,-12.86084 0,0 17.88676,-12.86084 39.95118,-12.86084 22.06446,0 39.95119,12.86084 39.95119,12.86084 0,0 -17.88673,12.86084 -39.95119,12.86084 z" style="color:#000;display:inline;overflow:visible;visibility:visible;fill:#ef2929;fill-opacity:1;fill-rule:evenodd;stroke:none;stroke-width:12;marker:none;enable-background:new"/></clipPath><filter id="filter4189" width="1.159" height="1.493" x="-.079" y="-.246" style="color-interpolation-filters:sRGB"><feGaussianBlur id="feGaussianBlur4191" stdDeviation="2.641"/></filter><clipPath id="clipPath4197" clipPathUnits="userSpaceOnUse"><path style="color:#000;display:inline;overflow:visible;visibility:visible;fill:#75507b;fill-opacity:1;fill-rule:evenodd;stroke:none;stroke-width:12;marker:none;enable-background:new" id="path4199" d="m 299.47143,763.19859 c -15.60192,15.62478 -37.33043,19.19718 -37.33043,19.19718 0,0 3.56716,-21.76037 19.16908,-37.38511 15.60192,-15.62479 37.33043,-19.19719 37.33043,-19.19719 0,0 -3.56717,21.76037 -19.16908,37.38512 z"/></clipPath><filter id="filter4201" width="1.24" height="1.24" x="-.12" y="-.12" style="color-interpolation-filters:sRGB"><feGaussianBlur id="feGaussianBlur4203" stdDeviation="2.827"/></filter><clipPath id="clipPath4133" clipPathUnits="userSpaceOnUse"><path style="color:#000;display:inline;overflow:visible;visibility:visible;fill:#65c808;fill-opacity:1;fill-rule:evenodd;stroke:none;stroke-width:12;marker:none;enable-background:new" id="path4135" d="m 538.46677,738.72614 c -22.06443,0 -39.95119,-12.86084 -39.95119,-12.86084 0,0 17.88676,-12.86084 39.95119,-12.86084 22.06442,0 39.95119,12.86084 39.95119,12.86084 0,0 -17.88677,12.86084 -39.95119,12.86084 z"/></clipPath><filter id="filter4137" width="1.159" height="1.493" x="-.079" y="-.246" style="color-interpolation-filters:sRGB"><feGaussianBlur id="feGaussianBlur4139" stdDeviation="2.641"/></filter><clipPath id="clipPath4071" clipPathUnits="userSpaceOnUse"><path id="path4073" d="m 515.86743,706.71995 c -15.60192,15.62478 -37.33043,19.19718 -37.33043,19.19718 0,0 3.56717,-21.76037 19.16909,-37.38511 15.60192,-15.62478 37.33043,-19.19719 37.33043,-19.19719 0,0 -3.56717,21.76034 -19.16909,37.38512 z" style="color:#000;display:inline;overflow:visible;visibility:visible;fill:#afea2c;fill-opacity:1;fill-rule:evenodd;stroke:none;stroke-width:12;marker:none;enable-background:new"/></clipPath><filter id="filter4075" width="1.24" height="1.24" x="-.12" y="-.12" style="color-interpolation-filters:sRGB"><feGaussianBlur id="feGaussianBlur4077" stdDeviation="2.827"/></filter><clipPath id="clipPath4083" clipPathUnits="userSpaceOnUse"><path id="path4085" d="m 515.86743,745.01066 c 15.60192,15.62474 19.16909,37.38511 19.16909,37.38511 0,0 -21.72851,-3.5724 -37.33043,-19.19718 -15.60192,-15.62475 -19.16909,-37.38512 -19.16909,-37.38512 0,0 21.72851,3.5724 37.33043,19.19719 z" style="color:#000;display:inline;overflow:visible;visibility:visible;fill:#729fcf;fill-opacity:1;fill-rule:evenodd;stroke:none;stroke-width:12;marker:none;enable-background:new"/></clipPath><filter id="filter4087" width="1.24" height="1.24" x="-.12" y="-.12" style="color-interpolation-filters:sRGB"><feGaussianBlur id="feGaussianBlur4089" stdDeviation="2.827"/></filter><clipPath id="clipPath4157" clipPathUnits="userSpaceOnUse"><path style="color:#000;display:inline;overflow:visible;visibility:visible;fill:#f57900;fill-opacity:1;fill-rule:evenodd;stroke:none;stroke-width:12;marker:none;enable-background:new" id="path4159" d="m 269.47143,688.53202 c 15.60191,15.62474 19.16908,37.38511 19.16908,37.38511 0,0 -21.72851,-3.5724 -37.33043,-19.19718 -15.60192,-15.62478 -19.16908,-37.38512 -19.16908,-37.38512 0,0 21.72851,3.57241 37.33043,19.19719 z"/></clipPath><filter id="filter4161" width="1.24" height="1.24" x="-.12" y="-.12" style="color-interpolation-filters:sRGB"><feGaussianBlur id="feGaussianBlur4163" stdDeviation="2.827"/></filter></defs><metadata id="metadata4"/><g id="layer1" transform="translate(-30.407115,-253.7175)" style="display:inline"><g id="layer6" style="display:none"><rect id="rect6284" width="48" height="48" x="296.063" y="49.996" style="display:inline;overflow:visible;visibility:visible;fill:#eeeeec;fill-opacity:1;fill-rule:nonzero;stroke:none;stroke-width:2;marker:none;enable-background:accumulate"/><rect style="display:inline;overflow:visible;visibility:visible;fill:#eeeeec;fill-opacity:1;fill-rule:nonzero;stroke:none;stroke-width:2;marker:none;enable-background:accumulate" id="rect6592" width="32" height="32" x="303" y="125.996"/><rect style="display:inline;overflow:visible;visibility:visible;fill:#fff;fill-opacity:1;fill-rule:nonzero;stroke:none;stroke-width:2;marker:none;enable-background:accumulate" id="rect8104" width="24" height="24" x="302" y="176"/><rect id="rect6749" width="22" height="22" x="303" y="177.059" style="display:inline;overflow:visible;visibility:visible;fill:#eeeeec;fill-opacity:1;fill-rule:nonzero;stroke:none;stroke-width:2;marker:none;enable-background:accumulate"/><rect style="display:inline;overflow:visible;visibility:visible;fill:#eeeeec;fill-opacity:1;fill-rule:nonzero;stroke:none;stroke-width:2;marker:none;enable-background:accumulate" id="rect6833" width="16" height="16" x="303" y="219"/><rect id="rect3068" width="256" height="256" x="16.063" y="31.996" style="display:inline;overflow:visible;visibility:visible;fill:#eeeeec;fill-opacity:1;fill-rule:nonzero;stroke:none;stroke-width:2;marker:none;enable-background:accumulate"/><text style="font-style:normal;font-weight:400;font-size:18.30070686px;font-family:'Bitstream Vera Sans';display:inline;fill:#000;fill-opacity:1;stroke:none;enable-background:new" id="context" x="20.971" y="21.514" xml:space="preserve"><tspan id="tspan2716" x="20.971" y="21.514">apps</tspan></text><text id="text3021" x="191.971" y="21.514" xml:space="preserve" style="font-style:normal;font-variant:normal;font-weight:700;font-stretch:normal;font-size:18.30070686px;line-height:125%;font-family:'Droid Sans';-inkscape-font-specification:'Droid Sans Bold';text-align:start;writing-mode:lr-tb;text-anchor:start;display:inline;fill:#000;fill-opacity:1;stroke:none;enable-background:new"><tspan id="tspan3023" x="191.971" y="21.514">gnome-color-manager</tspan></text></g></g><g id="g4017" transform="matrix(0.12086366,0,0,0.12067409,-4.719475,-6.9516539)"><path style="color:#000;display:inline;overflow:visible;visibility:visible;fill:#d5be00;fill-opacity:1;fill-rule:evenodd;stroke:none;stroke-width:12;marker:none;enable-background:new" id="path3689" d="m 154.30526,107.37313 c 0,27.48513 -15.97192,49.76628 -15.97192,49.76628 0,0 -15.97193,-22.28115 -15.97193,-49.76628 0,-27.485174 15.97193,-49.766288 15.97193,-49.766288 0,0 15.97192,22.281114 15.97192,49.766288 z"/><path id="path4165" d="m 471.43078,685.92888 c 0,22.09674 -12.84202,40.00973 -12.84202,40.00973 0,0 -12.84203,-17.91299 -12.84203,-40.00973 0,-22.09678 12.84203,-40.00974 12.84203,-40.00974 0,0 12.84202,17.91296 12.84202,40.00974 z" clip-path="url(#clipPath4169)" transform="matrix(1.2437231,0,0,1.2438544,-432.02409,-745.82249)" style="color:#000;display:inline;overflow:visible;visibility:visible;fill:#edd400;fill-opacity:1;fill-rule:evenodd;stroke:none;stroke-width:12;marker:none;filter:url(#filter4173);enable-background:new"/><path id="path3691" d="m 154.30526,206.72332 c 0,27.48517 -15.97192,49.76628 -15.97192,49.76628 0,0 -15.97193,-22.28111 -15.97193,-49.76628 0,-27.48514 15.97193,-49.76629 15.97193,-49.76629 0,0 15.97192,22.28115 15.97192,49.76629 z" style="color:#000;display:inline;overflow:visible;visibility:visible;fill:#23446e;fill-opacity:1;fill-rule:evenodd;stroke:none;stroke-width:12;marker:none;enable-background:new"/><path id="path3693" d="m 187.93055,173.04523 c -27.44205,0 -49.68822,-15.99701 -49.68822,-15.99701 0,0 22.24617,-15.99701 49.68822,-15.99701 27.44202,0 49.68821,15.99701 49.68821,15.99701 0,0 -22.24619,15.99701 -49.68821,15.99701 z" style="color:#000;display:inline;overflow:visible;visibility:visible;fill:#56aa07;fill-opacity:1;fill-rule:evenodd;stroke:none;stroke-width:12;marker:none;enable-background:new"/><path style="color:#000;display:inline;overflow:visible;visibility:visible;fill:#ca0f0f;fill-opacity:1;fill-rule:evenodd;stroke:none;stroke-width:12;marker:none;enable-background:new" id="path3695" d="m 88.736129,173.04523 c -27.442028,0 -49.688205,-15.99701 -49.688205,-15.99701 0,0 22.246177,-15.99701 49.688205,-15.99701 27.442081,0 49.688221,15.99701 49.688221,15.99701 0,0 -22.24614,15.99701 -49.688221,15.99701 z"/><path style="color:#000;display:inline;overflow:visible;visibility:visible;fill:#85b912;fill-opacity:1;fill-rule:evenodd;stroke:none;stroke-width:12;marker:none;enable-background:new" id="path3697" d="m 184.69769,133.23419 c -19.40447,19.43496 -46.42872,23.8785 -46.42872,23.8785 0,0 4.43657,-27.06673 23.84104,-46.50163 19.40447,-19.434952 46.42872,-23.87851 46.42872,-23.87851 0,0 -4.43657,27.06669 -23.84104,46.50164 z"/><path style="color:#000;display:inline;overflow:visible;visibility:visible;fill:#3465a4;fill-opacity:1;fill-rule:evenodd;stroke:none;stroke-width:12;marker:none;filter:url(#filter4149);enable-background:new" id="path4141" d="m 401.43078,865.80173 c 0,22.09677 -12.84202,40.00973 -12.84202,40.00973 0,0 -12.84203,-17.91296 -12.84203,-40.00973 0,-22.09675 12.84203,-40.00974 12.84203,-40.00974 0,0 12.84202,17.91299 12.84202,40.00974 z" clip-path="url(#clipPath4145)" transform="matrix(1.2437231,0,0,1.2438544,-344.96347,-870.20793)"/><path id="path4177" d="m 348.71074,698.72614 c -22.06442,0 -39.95118,-12.86084 -39.95118,-12.86084 0,0 17.88676,-12.86084 39.95118,-12.86084 22.06446,0 39.95119,12.86084 39.95119,12.86084 0,0 -17.88673,12.86084 -39.95119,12.86084 z" clip-path="url(#clipPath4181)" transform="matrix(1.2437231,0,0,1.2438544,-344.96347,-696.06832)" style="color:#000;display:inline;overflow:visible;visibility:visible;fill:#ef2929;fill-opacity:1;fill-rule:evenodd;stroke:none;stroke-width:12;marker:none;filter:url(#filter4189);enable-background:new"/><path id="path3699" d="m 114.55668,203.4854 c -19.404469,19.43495 -46.428719,23.87849 -46.428719,23.87849 0,0 4.436559,-27.06673 23.841028,-46.50163 19.404471,-19.43496 46.428721,-23.87851 46.428721,-23.87851 0,0 -4.43658,27.06673 -23.84103,46.50165 z" style="color:#000;display:inline;overflow:visible;visibility:visible;fill:#593d5e;fill-opacity:1;fill-rule:evenodd;stroke:none;stroke-width:12;marker:none;enable-background:new"/><path id="path3701" d="m 114.55668,110.61106 c 19.40445,19.4349 23.84103,46.50163 23.84103,46.50163 0,0 -27.02425,-4.44354 -46.428721,-23.8785 C 72.56452,113.79924 68.127961,86.73255 68.127961,86.73255 c 0,0 27.02425,4.443558 46.428719,23.87851 z" style="color:#000;display:inline;overflow:visible;visibility:visible;fill:#c96300;fill-opacity:1;fill-rule:evenodd;stroke:none;stroke-width:12;marker:none;enable-background:new"/><path style="color:#000;display:inline;overflow:visible;visibility:visible;fill:#75507b;fill-opacity:1;fill-rule:evenodd;stroke:none;stroke-width:12;marker:none;filter:url(#filter4201);enable-background:new" id="path4193" d="m 299.47143,763.19859 c -15.60192,15.62478 -37.33043,19.19718 -37.33043,19.19718 0,0 3.56716,-21.76037 19.16908,-37.38511 15.60192,-15.62479 37.33043,-19.19719 37.33043,-19.19719 0,0 -3.56717,21.76037 -19.16908,37.38512 z" clip-path="url(#clipPath4197)" transform="matrix(1.2437231,0,0,1.2438544,-257.90286,-745.82249)"/><path style="color:#000;display:inline;overflow:visible;visibility:visible;fill:#3f7bba;fill-opacity:1;fill-rule:evenodd;stroke:none;stroke-width:12;marker:none;enable-background:new" id="path3703" d="m 184.69769,180.86226 c 19.40447,19.4349 23.84104,46.50163 23.84104,46.50163 0,0 -27.02425,-4.44354 -46.42872,-23.87849 -19.40447,-19.43492 -23.84104,-46.50165 -23.84104,-46.50165 0,0 27.02425,4.44355 46.42872,23.87851 z"/><path style="color:#000;display:inline;overflow:visible;visibility:visible;fill:#65c808;fill-opacity:1;fill-rule:evenodd;stroke:none;stroke-width:12;marker:none;filter:url(#filter4137);enable-background:new" id="path4129" d="m 538.46677,738.72614 c -22.06443,0 -39.95119,-12.86084 -39.95119,-12.86084 0,0 17.88676,-12.86084 39.95119,-12.86084 22.06442,0 39.95119,12.86084 39.95119,12.86084 0,0 -17.88677,12.86084 -39.95119,12.86084 z" clip-path="url(#clipPath4133)" transform="matrix(1.2437231,0,0,1.2438544,-481.77301,-745.82249)"/><path id="path4067" d="m 515.86743,706.71995 c -15.60192,15.62478 -37.33043,19.19718 -37.33043,19.19718 0,0 3.56717,-21.76037 19.16909,-37.38511 15.60192,-15.62478 37.33043,-19.19719 37.33043,-19.19719 0,0 -3.56717,21.76034 -19.16909,37.38512 z" clip-path="url(#clipPath4071)" transform="matrix(1.2437231,0,0,1.2438544,-456.89855,-745.82249)" style="color:#000;display:inline;overflow:visible;visibility:visible;fill:#afea2c;fill-opacity:1;fill-rule:evenodd;stroke:none;stroke-width:12;marker:none;filter:url(#filter4075);enable-background:new"/><path id="path4079" d="m 515.86743,745.01066 c 15.60192,15.62474 19.16909,37.38511 19.16909,37.38511 0,0 -21.72851,-3.5724 -37.33043,-19.19718 -15.60192,-15.62475 -19.16909,-37.38512 -19.16909,-37.38512 0,0 21.72851,3.5724 37.33043,19.19719 z" clip-path="url(#clipPath4083)" transform="matrix(1.2437231,0,0,1.2438544,-456.89855,-745.82249)" style="color:#000;display:inline;overflow:visible;visibility:visible;fill:#729fcf;fill-opacity:1;fill-rule:evenodd;stroke:none;stroke-width:12;marker:none;filter:url(#filter4087);enable-background:new"/><path style="color:#000;display:inline;overflow:visible;visibility:visible;fill:#f57900;fill-opacity:1;fill-rule:evenodd;stroke:none;stroke-width:12;marker:none;filter:url(#filter4161);enable-background:new" id="path4153" d="m 269.47143,688.53202 c 15.60191,15.62474 19.16908,37.38511 19.16908,37.38511 0,0 -21.72851,-3.5724 -37.33043,-19.19718 -15.60192,-15.62478 -19.16908,-37.38512 -19.16908,-37.38512 0,0 21.72851,3.57241 37.33043,19.19719 z" clip-path="url(#clipPath4157)" transform="matrix(1.2437231,0,0,1.2438544,-220.59116,-745.82249)"/></g></svg>