<svg xmlns="http://www.w3.org/2000/svg" xmlns:svg="http://www.w3.org/2000/svg" id="svg30571" width="24" height="24" version="1.1" viewBox="0 0 24 24"><metadata id="metadata30576"/><g id="layer1" transform="translate(0,-1028.3622)"><g id="g4272"><g id="g4001"><path style="color:#000;font-style:normal;font-variant:normal;font-weight:400;font-stretch:normal;font-size:medium;line-height:normal;font-family:sans-serif;font-variant-ligatures:normal;font-variant-position:normal;font-variant-caps:normal;font-variant-numeric:normal;font-variant-alternates:normal;font-feature-settings:normal;text-indent:0;text-align:start;text-decoration:none;text-decoration-line:none;text-decoration-style:solid;text-decoration-color:#000;letter-spacing:normal;word-spacing:normal;text-transform:none;writing-mode:lr-tb;direction:ltr;text-orientation:mixed;dominant-baseline:auto;baseline-shift:baseline;text-anchor:start;white-space:normal;shape-padding:0;clip-rule:nonzero;display:inline;overflow:visible;visibility:visible;opacity:1;isolation:auto;mix-blend-mode:normal;color-interpolation:sRGB;color-interpolation-filters:linearRGB;solid-color:#000;solid-opacity:1;fill:#fff;fill-opacity:1;fill-rule:evenodd;stroke:#000;stroke-width:.49134082;stroke-linecap:butt;stroke-linejoin:miter;stroke-miterlimit:4;stroke-dasharray:none;stroke-dashoffset:0;stroke-opacity:1;color-rendering:auto;image-rendering:auto;shape-rendering:auto;text-rendering:auto;enable-background:accumulate" id="path13886-4-6" d="m 12.635236,1029.9843 h -0.01319 c -0.386784,0.02 -0.632833,0.1911 -1.034373,0.4242 -0.401541,0.2332 -0.886687,0.551 -1.428153,0.9268 -1.0829316,0.7516 -2.3898436,1.7314 -3.6269035,2.6883 -1.2370601,0.957 -2.4043845,1.8899 -3.2048639,2.5417 -0.4002398,0.3258 -0.7075659,0.5801 -0.8911821,0.7371 -0.091808,0.078 -0.1297185,0.1057 -0.2015993,0.1818 -0.00898,0.01 -0.01869,0.02 -0.037682,0.045 -0.00949,0.012 -0.039241,0.06 -0.039567,0.061 -3.248e-4,6e-4 -0.065916,0.2108 -0.065943,0.2112 -2.76e-5,3e-4 0.3332148,0.5219 0.3334867,0.522 2.72e-4,0 0.2688534,0.01 0.2694272,0.01 5.737e-4,-2e-4 0.057971,-0.02 0.07348,-0.027 0.015509,-0.01 0.027295,-0.013 0.035798,-0.018 0.068022,-0.037 0.074415,-0.047 0.109278,-0.072 l -0.5482747,-0.8172 c 0.00527,0 0.00956,-0.01 0.018841,-0.01 0.013753,-0.01 0.072169,-0.026 0.071596,-0.025 -5.738e-4,2e-4 0.2640468,0.01 0.2637748,0.01 -2.719e-4,-10e-5 0.3334591,0.5205 0.3334867,0.5202 2.76e-5,-4e-4 -0.064384,0.2097 -0.064059,0.2092 3.249e-4,-6e-4 -0.029426,0.044 -0.037682,0.055 -0.016512,0.022 -0.022204,0.029 -0.026378,0.033 -0.033392,0.035 0.040824,-0.038 0.1262351,-0.1114 0.1708235,-0.146 0.4773812,-0.3983 0.8742251,-0.7215 0.7936875,-0.6462 1.9546901,-1.575 3.1841386,-2.526 1.2294487,-0.9511 2.5271794,-1.9246 3.5854533,-2.6591 0.529137,-0.3671 1.000915,-0.6748 1.364093,-0.8856 0.363178,-0.2109 0.68999,-0.3032 0.612335,-0.2992 h 2.882681 0.01319 c 0.281574,-0.015 1.003233,0.2953 1.541198,0.8291 0.537965,0.5336 0.894233,1.2286 0.838428,1.8064 l 0.959009,0.1001 c 0.09947,-1.0299 -0.453778,-1.9583 -1.130463,-2.6297 -0.676685,-0.6714 -1.47497,-1.1482 -2.260927,-1.1046 h 0.02637 z"/><rect style="display:inline;overflow:visible;visibility:visible;opacity:1;fill:#d3d7cf;fill-opacity:1;fill-rule:evenodd;stroke:#2e3436;stroke-width:1.00401402;stroke-linecap:square;stroke-linejoin:round;stroke-miterlimit:4;stroke-dasharray:none;stroke-dashoffset:0;stroke-opacity:1;marker:none;marker-start:none;marker-mid:none;marker-end:none;enable-background:accumulate" id="rect14212" width="1.996" height="6.496" x="17.502" y="1033.367" ry="1.01"/><rect style="display:inline;overflow:visible;visibility:visible;opacity:1;fill:#edd400;fill-opacity:1;fill-rule:evenodd;stroke:#c4a000;stroke-width:1.29499996;stroke-linecap:square;stroke-linejoin:round;stroke-miterlimit:4;stroke-dasharray:none;stroke-dashoffset:0;stroke-opacity:1;marker:none;marker-start:none;marker-mid:none;marker-end:none;enable-background:accumulate" id="rect14215" width="5.705" height="4.705" x="15.648" y="1038.512"/><rect id="rect14220" width="3.288" height="1.788" x="16.856" y="1039.783" style="display:inline;overflow:visible;visibility:visible;opacity:1;fill:#edd400;fill-opacity:1;fill-rule:evenodd;stroke:none;stroke-width:1.21221447;stroke-linecap:square;stroke-linejoin:round;stroke-miterlimit:4;stroke-dasharray:none;stroke-dashoffset:0;stroke-opacity:1;marker:none;marker-start:none;marker-mid:none;marker-end:none;enable-background:accumulate"/><path style="display:inline;overflow:visible;visibility:visible;fill:#3465a4;fill-opacity:1;fill-rule:evenodd;stroke:#204a87;stroke-width:1.01455832;stroke-linecap:square;stroke-linejoin:round;stroke-miterlimit:4;stroke-dasharray:none;stroke-dashoffset:0;stroke-opacity:1;marker:none;marker-start:none;marker-mid:none;marker-end:none;enable-background:accumulate" id="rect14217" d="m 13.507279,1051.8549 v -7.9138 c 0,-0.5351 1.734966,-2.0716 2.339089,-2.0716 h 5.307263 c 0.604121,0 2.33909,1.5365 2.33909,2.0716 v 7.9138"/><path id="path14222" d="m 15.054699,1051.8075 v -7.4351 c 0,-0.398 0.888889,-1.2055 1.363192,-1.2055 h 4.16422 c 0.474306,0 1.36319,0.8075 1.36319,1.2055 v 7.4351" style="display:inline;overflow:visible;visibility:visible;fill:none;fill-opacity:1;fill-rule:evenodd;stroke:#729fcf;stroke-width:1.10939789;stroke-linecap:square;stroke-linejoin:round;stroke-miterlimit:4;stroke-dashoffset:0;stroke-opacity:1;marker:none;marker-start:none;marker-mid:none;marker-end:none;enable-background:accumulate"/><g style="display:inline;fill:#bebebd;fill-opacity:1" id="g6670-1-9" transform="matrix(1.6825479,0,1.9167481e-8,1.4706892,-172.9833,768.51795)"><path id="path82013-7-7" d="m 103.01917,176.83448 v 3.33618 h 1.07038 v 3.31337 c -0.53394,0.21185 -1.07004,0.74923 -1.07014,1.35893 -9e-5,0.60994 0.5362,1.14804 1.07014,1.3599 v 3.31153 h -1.07038 v 3.33704 h 2.67594 v -3.33704 h -1.07038 v -3.31153 c 0.53394,-0.21186 1.07053,-0.74984 1.07062,-1.3599 10e-5,-0.61031 -0.53608,-1.1488 -1.07062,-1.3609 v -3.3114 h 1.07038 v -3.33618 z" style="fill:#fff;fill-opacity:1;stroke:#000;stroke-width:.29881841;stroke-miterlimit:4;stroke-dasharray:none;stroke-opacity:1"/></g></g></g></g></svg>