<svg xmlns="http://www.w3.org/2000/svg" xmlns:svg="http://www.w3.org/2000/svg" id="svg30571" width="24" height="24" version="1.1" viewBox="0 0 24 24"><metadata id="metadata30576"/><g id="layer1" transform="translate(0,-1028.3622)"><g id="g4086"><g id="g4605"><g style="display:inline" id="gimp-tool-rect-select-24" transform="translate(4.5361327e-7,1.7382813e-5)"><rect id="rect74851-0" width="24" height="24" x="0" y="1028.362" style="fill:none;stroke:none;stroke-width:1.5"/><rect id="rect74861-0" width="1" height="2" x="1" y="1031.362" style="fill:#eeeeec;fill-opacity:1;stroke:none;stroke-width:1.41421342"/><rect id="rect74863-3" width="2" height="1" x="5" y="1031.362" style="fill:#eeeeec;fill-opacity:1;stroke:none;stroke-width:1.41420746"/><rect id="rect74865-3" width="2" height="1" x="9" y="1031.362" style="fill:#eeeeec;fill-opacity:1;stroke:none;stroke-width:1.41420746"/><rect id="rect74867-5" width="2" height="1" x="13" y="1031.362" style="fill:#eeeeec;fill-opacity:1;stroke:none;stroke-width:1.41420746"/><rect id="rect74869-0" width="2" height="1" x="17" y="1031.362" style="fill:#eeeeec;fill-opacity:1;stroke:none;stroke-width:1.41420746"/><rect id="rect74871-3" width="1" height="2" x="1" y="1035.362" style="fill:#eeeeec;fill-opacity:1;stroke:none;stroke-width:1.41421342"/><rect id="rect74873-5" width="1" height="2" x="1" y="1039.362" style="fill:#eeeeec;fill-opacity:1;stroke:none;stroke-width:1.41421342"/><rect id="rect74875-5" width="2" height="1" x="5" y="1048.362" style="fill:#eeeeec;fill-opacity:1;stroke:none;stroke-width:1.41420746"/><rect id="rect74877-9" width="2" height="1" x="9" y="1048.362" style="fill:#eeeeec;fill-opacity:1;stroke:none;stroke-width:1.41420746"/><rect id="rect74879-2" width="2" height="1" x="13" y="1048.362" style="fill:#eeeeec;fill-opacity:1;stroke:none;stroke-width:1.41420746"/><rect id="rect74881-7" width="2" height="1" x="17" y="1048.362" style="fill:#eeeeec;fill-opacity:1;stroke:none;stroke-width:1.41420746"/><rect id="rect74887-3" width="2" height="1" x="21" y="1048.362" style="fill:#eeeeec;fill-opacity:1;stroke:none;stroke-width:1.41420746"/><rect id="rect74889-2" width="1" height="2" x="22" y="1043.362" style="fill:#eeeeec;fill-opacity:1;stroke:none;stroke-width:1.41421342"/><rect id="rect74891-0" width="1" height="2" x="22" y="1039.362" style="fill:#eeeeec;fill-opacity:1;stroke:none;stroke-width:1.41421342"/><rect id="rect74893-2" width="1" height="2" x="22" y="1035.362" style="fill:#eeeeec;fill-opacity:1;stroke:none;stroke-width:1.41421342"/><rect id="rect74897-7" width="16" height="12" x="4" y="1034.362" style="fill:#d3d7cf;fill-opacity:1;stroke:none;stroke-width:2.0655911"/><rect id="rect74899-9" width="1" height="2" x="1" y="1043.362" style="fill:#eeeeec;fill-opacity:1;stroke:none;stroke-width:1.41421342"/><rect id="rect74901-4" width="1" height="2" x="1" y="1047.362" style="fill:#eeeeec;fill-opacity:1;stroke:none;stroke-width:1.41421342"/><rect id="rect74861-4" width="2" height="1" x="21" y="1031.362" style="fill:#eeeeec;fill-opacity:1;stroke:none;stroke-width:1.41420746"/></g><rect id="rect74861-0-9" width="2" height="1" x="3" y="1031.362" style="display:inline;fill:#2e3436;fill-opacity:1;stroke:none;stroke-width:1.41420746"/><rect id="rect74861-0-9-0" width="2" height="1" x="7" y="1031.362" style="display:inline;fill:#2e3436;fill-opacity:1;stroke:none;stroke-width:1.41420746"/><rect id="rect74861-0-9-05" width="2" height="1" x="11" y="1031.362" style="display:inline;fill:#2e3436;fill-opacity:1;stroke:none;stroke-width:1.41420746"/><rect id="rect74861-0-9-3" width="2" height="1" x="15" y="1031.362" style="display:inline;fill:#2e3436;fill-opacity:1;stroke:none;stroke-width:1.41420746"/><rect id="rect74861-0-9-06" width="2" height="1" x="19" y="1031.362" style="display:inline;fill:#2e3436;fill-opacity:1;stroke:none;stroke-width:1.41420746"/><rect id="rect74861-0-9-6" width="1" height="2" x="1" y="1033.362" style="display:inline;fill:#2e3436;fill-opacity:1;stroke:none;stroke-width:1.41421342"/><rect id="rect74861-0-9-6-2" width="1" height="2" x="22" y="1033.362" style="display:inline;fill:#2e3436;fill-opacity:1;stroke:none;stroke-width:1.41421342"/><rect id="rect74861-0-9-6-0" width="1" height="2" x="1" y="1037.362" style="display:inline;fill:#2e3436;fill-opacity:1;stroke:none;stroke-width:1.41421342"/><rect id="rect74861-0-9-6-5" width="1" height="2" x="1" y="1041.362" style="display:inline;fill:#2e3436;fill-opacity:1;stroke:none;stroke-width:1.41421342"/><rect id="rect74861-0-9-6-8" width="1" height="2" x="1" y="1045.362" style="display:inline;fill:#2e3436;fill-opacity:1;stroke:none;stroke-width:1.41421342"/><rect id="rect74861-0-9-6-2-8" width="1" height="2" x="22" y="1037.362" style="display:inline;fill:#2e3436;fill-opacity:1;stroke:none;stroke-width:1.41421342"/><rect id="rect74861-0-9-6-2-3" width="1" height="2" x="22" y="1041.362" style="display:inline;fill:#2e3436;fill-opacity:1;stroke:none;stroke-width:1.41421342"/><rect id="rect74861-0-9-6-2-5" width="1" height="2" x="22" y="1045.362" style="display:inline;fill:#2e3436;fill-opacity:1;stroke:none;stroke-width:1.41421342"/><rect id="rect74861-0-9-6-2-6" width="2" height="1" x="3" y="1048.362" style="display:inline;fill:#2e3436;fill-opacity:1;stroke:none;stroke-width:1.41420746"/><rect id="rect74861-0-9-6-2-6-0" width="2" height="1" x="7" y="1048.362" style="display:inline;fill:#2e3436;fill-opacity:1;stroke:none;stroke-width:1.41420746"/><rect id="rect74861-0-9-6-2-6-4" width="2" height="1" x="11" y="1048.362" style="display:inline;fill:#2e3436;fill-opacity:1;stroke:none;stroke-width:1.41420746"/><rect id="rect74861-0-9-6-2-6-9" width="2" height="1" x="15" y="1048.362" style="display:inline;fill:#2e3436;fill-opacity:1;stroke:none;stroke-width:1.41420746"/><rect id="rect74861-0-9-6-2-6-6" width="2" height="1" x="19" y="1048.362" style="display:inline;fill:#2e3436;fill-opacity:1;stroke:none;stroke-width:1.41420746"/></g><rect id="rect74861-0-0" width="1" height="2" x="1031.362" y="-3" transform="rotate(90)" style="display:inline;fill:#eeeeec;fill-opacity:1;stroke:none;stroke-width:1.41421342"/><rect id="rect74861-4-7" width="2" height="1" x="1031.362" y="-23" transform="rotate(90)" style="display:inline;fill:#eeeeec;fill-opacity:1;stroke:none;stroke-width:1.41420746"/><rect id="rect74901-4-7" width="1" height="2" x="1048.362" y="-3" transform="rotate(90)" style="display:inline;fill:#eeeeec;fill-opacity:1;stroke:none;stroke-width:1.41421342"/><rect id="rect74887-3-6" width="2" height="1" x="1047.362" y="-23" transform="rotate(90)" style="display:inline;fill:#eeeeec;fill-opacity:1;stroke:none;stroke-width:1.41420746"/></g></g></svg>