<svg xmlns="http://www.w3.org/2000/svg" xmlns:svg="http://www.w3.org/2000/svg" xmlns:xlink="http://www.w3.org/1999/xlink" id="svg11300" width="24" height="24" version="1.0" viewBox="0 0 24 24"><defs id="defs3"><radialGradient id="radialGradient7780" cx="18.558" cy="22.3" r="19.229" gradientTransform="matrix(0.72883784,0,0,0.55321006,-5.1264891,-9.4209224)" gradientUnits="userSpaceOnUse" xlink:href="#linearGradient6500"/><linearGradient id="linearGradient6500"><stop id="stop6502" stop-color="#857c63"/><stop id="stop6504" offset="1" stop-color="#221f19"/></linearGradient><linearGradient id="linearGradient7782" x1="32.35" x2="21.213" y1="28.083" y2="30.293" gradientTransform="matrix(0.41113402,0,0,0.42663576,0.01426904,-6.4507141)" gradientUnits="userSpaceOnUse" xlink:href="#linearGradient3204-1"/><linearGradient id="linearGradient3204-1"><stop id="stop3206"/><stop id="stop3208" offset="1" stop-opacity="0"/></linearGradient><linearGradient id="linearGradient7784" x1="14.969" x2="39.525" y1="19.111" y2="46.986" gradientTransform="matrix(0.41113402,0,0,0.42663576,1.5916053,-6.5983177)" gradientUnits="userSpaceOnUse" xlink:href="#linearGradient8340"/><linearGradient id="linearGradient8340"><stop id="stop8342" stop-color="#fff" stop-opacity=".796"/><stop id="stop8344" offset="1" stop-color="#fff" stop-opacity=".216"/></linearGradient><radialGradient id="radialGradient7786" cx="6.024" cy="25.271" r="4.831" gradientTransform="matrix(0.38158508,0.03926834,-0.0453012,0.45059999,-0.25296896,-6.8767298)" gradientUnits="userSpaceOnUse" xlink:href="#linearGradient8542"/><linearGradient id="linearGradient8542"><stop id="stop8544" stop-color="#5b676b"/><stop id="stop8546" offset="1" stop-color="#141718"/></linearGradient><linearGradient id="linearGradient7788" x1="6.305" x2="5.985" y1="23.362" y2="31.57" gradientTransform="matrix(0.32906715,-0.25576003,0.24646704,0.34147457,-4.577691,-3.3965796)" gradientUnits="userSpaceOnUse" xlink:href="#linearGradient8340"/><radialGradient id="radialGradient7790" cx="69.473" cy="19.598" r="3.515" gradientTransform="matrix(0.81311292,0,0,0.84377121,-45.835911,-15.250942)" gradientUnits="userSpaceOnUse" xlink:href="#linearGradient6468"/><linearGradient id="linearGradient6468"><stop id="stop6470" stop-color="#fff"/><stop id="stop6472" offset="1" stop-color="#b9b9b0"/></linearGradient><linearGradient id="linearGradient7792" x1="37.018" x2="27.754" y1="19.24" y2="11.182" gradientTransform="matrix(-0.04838513,-0.22534773,0.21715976,-0.05020948,20.595782,14.601692)" gradientUnits="userSpaceOnUse" xlink:href="#linearGradient6951"/><linearGradient id="linearGradient6951"><stop id="stop6953" stop-color="#6e3d09"/><stop id="stop6959" offset=".242" stop-color="#ea8113"/><stop id="stop6961" offset=".621" stop-color="#5c3307"/><stop id="stop6955" offset="1" stop-color="#e07c12"/></linearGradient><linearGradient id="linearGradient7794" x1="19.395" x2="23.109" y1="30.001" y2="33.439" gradientTransform="matrix(-0.04838513,-0.22534773,0.21715976,-0.05020948,18.26871,13.400148)" gradientUnits="userSpaceOnUse" xlink:href="#linearGradient6939"/><linearGradient id="linearGradient6939"><stop id="stop6941" stop-color="#bdbdbd"/><stop id="stop6947" offset=".333" stop-color="#e2e2e2"/><stop id="stop6949" offset=".667" stop-color="#a3a3a3"/><stop id="stop6943" offset="1" stop-color="#ddd"/></linearGradient><radialGradient id="radialGradient7796" cx="15.415" cy="35.357" r="7.579" gradientTransform="matrix(-0.03860168,-0.59988189,0.56336215,-0.03903711,9.1087058,18.909948)" gradientUnits="userSpaceOnUse" xlink:href="#linearGradient6963"/><linearGradient id="linearGradient6963"><stop id="stop6965" stop-color="#696969"/><stop id="stop6967" offset="1"/></linearGradient><linearGradient id="linearGradient7798" x1="13.236" x2="7.752" y1="37.752" y2="42.282" gradientTransform="matrix(0.0492703,-0.19001461,0.18311046,0.05112803,18.893729,8.0386941)" gradientUnits="userSpaceOnUse" xlink:href="#linearGradient8340"/><radialGradient id="radialGradient4175" cx="39.75" cy="7.75" r="7" gradientTransform="matrix(0.64285666,0,0,0.6428567,-6.0535629,-8.4821273)" gradientUnits="userSpaceOnUse" xlink:href="#linearGradient4169-3"/><linearGradient id="linearGradient4169-3"><stop id="stop4171" stop-color="#fff"/><stop id="stop4177" offset=".5" stop-color="#e6ff8f" stop-opacity=".932"/><stop id="stop4173" offset="1" stop-color="#ff3a20" stop-opacity=".019"/></linearGradient></defs><metadata id="metadata4"/><g id="layer1" transform="translate(0,8)"><g id="g4383"><rect id="rect7400" width="23" height="23" x=".5" y="-7.5" rx=".943" ry=".978" style="color:#000;display:inline;overflow:visible;visibility:visible;fill:#eeeeec;fill-opacity:1;fill-rule:evenodd;stroke:#888a85;stroke-width:1.00003695;stroke-linecap:butt;stroke-linejoin:miter;stroke-miterlimit:4;stroke-dasharray:none;stroke-dashoffset:0;stroke-opacity:1;marker:none;marker-start:none;marker-mid:none;marker-end:none"/><rect id="rect2063-2" width="17.434" height="15.434" x="3.283" y="-3.717" rx=".218" ry=".281" style="opacity:1;fill:#709bd2;stroke:#204a87;stroke-width:.56576562;stroke-linecap:round;stroke-linejoin:round;fill-opacity:1"/><path style="color:#000;fill:url(#radialGradient7780);fill-rule:evenodd;stroke:#2e3436;stroke-width:.53905946;stroke-miterlimit:10" id="path4323-2" stroke-miterlimit="10" d="m 5.8568613,-1.2790725 c 0,0 1.1818085,2.5289407 3.9465751,2.4575956 5.7939126,-0.1508384 6.8099036,-3.2872072 6.9552616,-3.739723 0.145364,-0.4525156 0.367774,-0.3839712 0.419195,0.034245 C 19.067545,15.27199 4.0639798,7.6351569 3.5311358,4.6036301 6.5109715,3.6985991 5.7841823,1.9639557 5.7841823,1.9639557 Z"/><path style="color:#000;fill:url(#linearGradient7782);fill-rule:evenodd;stroke-width:.41881317;stroke-miterlimit:10" id="path6480-1" stroke-miterlimit="10" d="M 8.0619462,6.2289341 C 10.832537,6.8039694 12.243463,6.2707827 13.069219,5.6091278 12.851183,5.316878 12.478703,4.9963461 12.478703,4.9963461 c 0,0 0.539152,0.1057559 0.890317,0.4902255 0.240356,0.2631515 0.262412,0.6882577 0.209845,1.2704717 -0.05257,-0.2473975 -0.140368,-0.4014577 -0.208554,-0.5763567 -0.742618,0.9332942 -2.75632,0.9833147 -5.3083648,0.048248 z"/><path style="color:#000;opacity:.18539303;fill:none;fill-rule:evenodd;stroke:url(#linearGradient7784);stroke-width:.53905946;stroke-miterlimit:10" id="path8520-9" stroke-miterlimit="10" d="m 16.788308,-1.5620157 c -0.230124,0.3986813 -0.576172,0.87758474 -1.107333,1.33573645 C 14.600837,0.70539392 12.787235,1.5586884 9.8142857,1.6360856 8.0769003,1.6809191 6.9568747,0.8022022 6.2690577,0.02620251 L 6.2256957,1.9377305 C 6.2811222,2.1161994 6.3872956,2.5335158 6.1895608,3.1001465 5.977153,3.7088248 5.3003938,4.323115 4.1459356,4.7958569 4.248318,5.0188772 4.343986,5.2535982 4.6558381,5.5699673 c 0.4226964,0.4288194 1.0188831,0.8882173 1.7176086,1.3040723 1.3974514,0.8317103 3.208781,1.4883678 4.8966703,1.5182238 1.68789,0.02985 3.222115,-0.5227856 4.283181,-2.129013 0.979915,-1.4833784 1.519174,-4.0022777 1.23501,-7.8252661 z" xlink:href="##path4323-2"/><ellipse style="color:#000;fill:url(#radialGradient7786);fill-rule:evenodd;stroke:#000;stroke-width:.5392257;stroke-miterlimit:10" id="path5198-2" cx=".932" cy="5.874" stroke-miterlimit="10" rx="1.804" ry="2.57" transform="matrix(0.80052518,-0.59929912,0.57082423,0.82107229,0,0)"/><path style="color:#000;opacity:.28089899;fill:none;fill-rule:evenodd;stroke:url(#linearGradient7788);stroke-width:.53905988;stroke-miterlimit:10" id="path6450-92" stroke-miterlimit="10" d="M 2.1736108,1.9512452 C 1.9205471,2.1268166 1.75758,2.4620638 1.7485404,2.921889 c 0.1340237,0.8503169 0.8493538,1.8296 1.5977295,2.1719185 a 0.44560377,0.42941285 89.999986 0 1 0.09857,0.062895 C 3.9905927,5.6206092 4.6219911,5.7671278 5.0195379,5.632895 5.4074444,5.5019167 5.650014,5.1293272 5.6602023,4.5509043 5.5249259,3.7010419 4.8102869,2.723673 4.0626315,2.3819856 A 0.44560377,0.42941285 89.999986 0 1 3.9640626,2.3190903 C 3.6368598,2.0410328 3.2721202,1.865392 2.9530869,1.81078 2.6340537,1.756168 2.3692628,1.8155935 2.1736108,1.9512452 Z" xlink:href="##path5198-2"/><ellipse style="color:#000;fill:#fff;fill-rule:evenodd;stroke-width:.41881317;stroke-miterlimit:10" id="path6446-61" cx="3.263" cy="3.322" stroke-miterlimit="10" rx=".727" ry=".905"/><ellipse style="color:#000;fill:#eeeeec;fill-rule:evenodd;stroke:#888a85;stroke-width:.53905946;stroke-miterlimit:10" id="path6460-1" cx="7.188" cy="2.718" stroke-miterlimit="10" rx="1.308" ry="1.358"/><ellipse style="color:#000;fill:url(#radialGradient7790);fill-rule:evenodd;stroke:#888a85;stroke-width:.5390597;stroke-miterlimit:10" id="path6462-26" cx="10.654" cy="2.718" stroke-miterlimit="10" rx="1.962" ry="2.036"/><ellipse style="color:#000;fill:#2e3436;fill-rule:evenodd;stroke:#000;stroke-width:.53905946;stroke-miterlimit:10" id="path6464-8" cx="11.113" cy="3.02" stroke-miterlimit="10" rx=".945" ry=".98"/><ellipse style="color:#000;fill:#fff;fill-rule:evenodd;stroke-width:.37693185;stroke-miterlimit:10" id="path6466-7" cx="10.749" cy="2.567" stroke-miterlimit="10" rx=".654" ry=".679"/><ellipse style="color:#000;fill:#2e3436;fill-rule:evenodd;stroke:#000;stroke-width:.53906006;stroke-miterlimit:10" id="path6476-6" cx="7.61" cy="2.907" stroke-miterlimit="10" rx=".581" ry=".603"/><ellipse style="color:#000;fill:#fff;fill-rule:evenodd;stroke-width:.231958;stroke-miterlimit:10" id="path6478-3" cx="7.387" cy="2.628" stroke-miterlimit="10" rx=".403" ry=".418"/><path style="color:#000;fill:url(#linearGradient7792);stroke:#673907;stroke-width:.53905988;stroke-linecap:round" id="path6937-85" d="M 16.295186,8.6386772 16.923817,7.531612 C 15.792451,6.7708873 14.412893,6.3699499 13.377816,5.9429455 c 0,0 -0.572542,0.4082478 -0.572542,0.4082478 0.991393,0.6651256 2.210918,1.5673149 3.489912,2.2874839 z"/><path style="color:#000;fill:url(#linearGradient7794);stroke:#888a85;stroke-width:.53905988;stroke-linecap:round" id="path6935-7" d="m 18.909605,9.8914628 0.311258,-0.6032981 -2.010747,-1.5439308 -0.166585,-0.02655 -0.05682,-0.2457283 c -0.318144,0.1770433 -0.809585,0.8829548 -0.718863,1.305482 l 0.232752,-0.073215 0.114945,0.1318949 z"/><path style="color:#000;fill:url(#radialGradient7796);stroke-width:.08376264;stroke-linecap:round" id="path6933-90" d="m 21.136716,13.143793 c -0.162127,-2.519506 0.004,-4.4516303 -1.785779,-4.6912267 -1.442289,-0.1930798 -1.993678,1.8853757 -0.658084,2.8038537 1.2866,0.884783 2.443863,1.887373 2.443863,1.887373 z"/><ellipse style="color:#000;opacity:.52777866;fill:#fff;stroke-width:.44592255;stroke-linecap:round" id="path6971-7" cx="-13.448" cy="16.762" rx=".567" ry=".548" transform="matrix(-0.20992971,-0.97771648,0.97429679,-0.22526821,0,0)"/><path style="color:#000;opacity:.427778;fill:url(#linearGradient7798);stroke-width:.41881317;stroke-linecap:round" id="path1571-1" d="m 20.726109,11.226124 c 0,0 -0.196999,-1.190439 -0.796843,-1.3885082 -0.212223,-0.07008 -0.05571,-0.3641862 0.165333,-0.2490808 0.477457,0.2486263 0.63151,1.637589 0.63151,1.637589 z"/><path style="color:#000;opacity:.17525802;fill:none;fill-rule:evenodd;stroke:#fff;stroke-width:.53905988;stroke-linecap:round;stroke-linejoin:round" id="path4219" d="m 16.222691,7.554409 c 0,0 -0.926656,-0.4713702 -2.216706,-0.9615961"/><circle id="path4167" cx="19.5" cy="-3.5" r="4.5" stroke-miterlimit="10" style="color:#000;fill:url(#radialGradient4175);stroke-width:.32142833;stroke-linecap:round;stroke-linejoin:round;stroke-miterlimit:10"/></g></g></svg>