<svg xmlns="http://www.w3.org/2000/svg" xmlns:svg="http://www.w3.org/2000/svg" xmlns:xlink="http://www.w3.org/1999/xlink" id="svg11300" width="24" height="24" version="1.0"><metadata id="metadata4738"/><defs id="defs3"><linearGradient id="linearGradient5274"><stop style="stop-color:#555753;stop-opacity:1" id="stop5276" offset="0"/><stop style="stop-color:#cacbc9;stop-opacity:1" id="stop5278" offset="1"/></linearGradient><linearGradient id="linearGradient5260"><stop id="stop5264" offset="0" style="stop-color:#fff;stop-opacity:1"/><stop id="stop5262" offset="1" style="stop-color:#c9c9c3;stop-opacity:1"/></linearGradient><linearGradient id="linearGradient5238"><stop style="stop-color:#888a85;stop-opacity:1" id="stop5240" offset="0"/><stop style="stop-color:#70726d;stop-opacity:1" id="stop5242" offset="1"/></linearGradient><linearGradient id="linearGradient5371"><stop style="stop-color:#fff;stop-opacity:1" id="stop5373" offset="0"/><stop style="stop-color:#fff;stop-opacity:0" id="stop5375" offset="1"/></linearGradient><linearGradient id="linearGradient8542"><stop style="stop-color:#5b676b;stop-opacity:1" id="stop8544" offset="0"/><stop style="stop-color:#141718;stop-opacity:1" id="stop8546" offset="1"/></linearGradient><linearGradient id="linearGradient8524"><stop style="stop-color:white;stop-opacity:1" id="stop8526" offset="0"/><stop style="stop-color:white;stop-opacity:0" id="stop8528" offset="1"/></linearGradient><linearGradient id="linearGradient6500"><stop style="stop-color:#857c63;stop-opacity:1" id="stop6502" offset="0"/><stop style="stop-color:#221f19;stop-opacity:1" id="stop6504" offset="1"/></linearGradient><linearGradient id="linearGradient6468"><stop style="stop-color:white;stop-opacity:1" id="stop6470" offset="0"/><stop style="stop-color:#b9b9b0;stop-opacity:1" id="stop6472" offset="1"/></linearGradient><linearGradient id="linearGradient6452"><stop style="stop-color:white;stop-opacity:1" id="stop6454" offset="0"/><stop style="stop-color:white;stop-opacity:0" id="stop6456" offset="1"/></linearGradient><filter id="filter5403"><feGaussianBlur id="feGaussianBlur5405" stdDeviation=".13"/></filter><filter id="filter5234" width="2.032" height="1.095" x="-.516" y="-.047"><feGaussianBlur id="feGaussianBlur5236" stdDeviation=".538"/></filter><radialGradient id="radialGradient5309" cx="18.558" cy="22.3" r="19.229" fx="18.558" fy="22.3" gradientTransform="matrix(1.77275,0,0,1.29668,2.6784679,-6.9555816)" gradientUnits="userSpaceOnUse" xlink:href="#linearGradient6500"/><linearGradient id="linearGradient5311" x1="14.969" x2="39.525" y1="19.111" y2="46.986" gradientTransform="translate(19.018868,-0.3396226)" gradientUnits="userSpaceOnUse" xlink:href="#linearGradient8524"/><radialGradient id="radialGradient5313" cx="69.473" cy="19.598" r="3.515" fx="69.473" fy="19.598" gradientTransform="matrix(1.684735,0,0,1.684735,-84.380372,-14.822902)" gradientUnits="userSpaceOnUse" xlink:href="#linearGradient6468"/><radialGradient id="radialGradient5315" cx="6.024" cy="25.271" r="4.831" fx="6.024" fy="25.271" gradientTransform="matrix(0.797511,-0.4604432,0.5374129,0.9308275,5.1072979,2.247187)" gradientUnits="userSpaceOnUse" xlink:href="#linearGradient8542"/><linearGradient id="linearGradient5317" x1="6.305" x2="5.985" y1="23.362" y2="31.57" gradientTransform="matrix(0.800389,-0.599481,0.599481,0.800389,3.7444679,6.9882174)" gradientUnits="userSpaceOnUse" xlink:href="#linearGradient6452"/><radialGradient id="radialGradient5319" cx="69.473" cy="19.598" r="3.515" fx="69.473" fy="19.598" gradientTransform="matrix(1.977732,0,0,1.977732,-96.338942,-20.620679)" gradientUnits="userSpaceOnUse" xlink:href="#linearGradient6468"/><radialGradient id="radialGradient5323" cx="47.928" cy="33.067" r="1.913" fx="47.928" fy="33.067" gradientTransform="matrix(1.7525219,0,0,1.554122,-36.067051,-18.506723)" gradientUnits="userSpaceOnUse" xlink:href="#linearGradient5371"/><radialGradient id="radialGradient5341" cx="26.461" cy="29.594" r="5.148" fx="26.461" fy="29.594" gradientTransform="matrix(2.0574682,0,0,1.8483445,-28.101416,-25.56526)" gradientUnits="userSpaceOnUse" xlink:href="#linearGradient5260"/><radialGradient id="radialGradient5343" cx="12.086" cy="27.437" r="5.148" fx="12.086" fy="27.437" gradientTransform="matrix(1,0,0,0.8983587,1.4397924,2.7887843)" gradientUnits="userSpaceOnUse" xlink:href="#linearGradient5260"/><linearGradient id="linearGradient5345" x1="17.75" x2="2.625" y1="44.25" y2="54" gradientUnits="userSpaceOnUse" xlink:href="#linearGradient5238"/><linearGradient id="linearGradient5347" x1="30" x2="44.5" y1="35.875" y2="44.25" gradientTransform="matrix(1.0680689,0,0,0.9837398,-1.2252408,0.4695122)" gradientUnits="userSpaceOnUse" xlink:href="#linearGradient5238"/><linearGradient id="linearGradient5349" x1="30" x2="30" y1="35.875" y2="28.371" gradientTransform="matrix(1.0680689,0,0,0.9837398,-1.2252408,0.4695122)" gradientUnits="userSpaceOnUse" xlink:href="#linearGradient5274"/></defs><g id="g4289"><g id="g4253" transform="matrix(0.77053837,0,0,0.77053837,-0.90586619,-0.5250751)"><g id="g5294" transform="matrix(0.6179617,0,0,0.6179617,-4.5317763,-4.0068505)"><path style="color:#000;display:inline;overflow:visible;visibility:visible;fill:url(#radialGradient5309);fill-opacity:1;fill-rule:evenodd;stroke:#2e3436;stroke-width:1.61822295;stroke-linecap:butt;stroke-linejoin:miter;stroke-miterlimit:10;stroke-dasharray:none;stroke-dashoffset:0;stroke-opacity:1;marker:none;marker-start:none;marker-mid:none;marker-end:none" id="path4323" d="m 29.393237,12.128261 c 0,0 2.874509,5.927634 9.599242,5.760407 14.092515,-0.353553 16.563709,-7.70495 16.917262,-8.7656102 0.353554,-1.0606602 0.894534,-0.8999979 1.019607,0.080267 C 61.525542,50.922624 25.032417,33.0225 23.736382,25.916844 c 7.247845,-2.12132 5.480078,-6.187185 5.480078,-6.187185 l 0.176777,-7.601398 z"/><path style="color:#000;display:inline;overflow:visible;visibility:visible;opacity:.18539327;fill:none;fill-opacity:1;fill-rule:evenodd;stroke:url(#linearGradient5311);stroke-width:1.61822295;stroke-linecap:butt;stroke-linejoin:miter;stroke-miterlimit:10;stroke-dasharray:none;stroke-dashoffset:0;stroke-opacity:1;marker:none;marker-start:none;marker-mid:none;marker-end:none" id="path8520" d="m 55.987618,11.504127 c -0.561978,0.926895 -1.406492,2.033166 -2.6875,3.09375 -2.631918,2.179042 -7.050563,4.162347 -14.28125,4.34375 -4.224373,0.105049 -6.952741,-1.934149 -8.625,-3.75 l -0.125,4.46875 c 0.136107,0.418802 0.415455,1.390498 -0.0625,2.71875 -0.514314,1.429296 -2.154514,2.891363 -4.96875,4 0.25033,0.522033 0.495484,1.04362 1.25,1.78125 1.02795,1.004945 2.457033,2.088049 4.15625,3.0625 3.398433,1.948902 7.801583,3.493212 11.90625,3.5625 4.104667,0.06929 7.857126,-1.23455 10.4375,-5 2.378744,-3.471218 3.682473,-9.347943 3,-18.28125 z"/><path style="color:#000;display:inline;overflow:visible;visibility:visible;fill:url(#radialGradient5313);fill-opacity:1;fill-rule:evenodd;stroke:#888a85;stroke-width:1.61822319;stroke-linecap:butt;stroke-linejoin:miter;stroke-miterlimit:10;stroke-dasharray:none;stroke-dashoffset:0;stroke-opacity:1;marker:none;marker-start:none;marker-mid:none;marker-end:none" id="path4357" d="m 36.729505,21.055494 c 5.63e-4,2.245913 -1.819952,4.066884 -4.065866,4.066884 -2.245912,0 -4.066427,-1.820971 -4.065864,-4.066884 -5.63e-4,-2.245914 1.819952,-4.066884 4.065866,-4.066884 2.245912,0 4.066427,1.82097 4.065864,4.066884 z"/><path style="color:#000;display:inline;overflow:visible;visibility:visible;fill:url(#radialGradient5315);fill-opacity:1;fill-rule:evenodd;stroke:#000;stroke-width:1.61822355;stroke-linecap:butt;stroke-linejoin:miter;stroke-miterlimit:10;stroke-dasharray:none;stroke-dashoffset:0;stroke-opacity:1;marker:none;marker-start:none;marker-mid:none;marker-end:none" id="path5198" d="m 28.63007,22.587402 c 1.970672,2.731615 1.995664,6.080515 0.05582,7.479977 -1.939843,1.399463 -5.109941,0.31954 -7.080612,-2.412075 -1.970672,-2.731615 -1.995664,-6.080514 -0.05582,-7.479977 1.939842,-1.399462 5.10994,-0.319539 7.080611,2.412075 l 0,0 z"/><path style="color:#000;display:inline;overflow:visible;visibility:visible;fill:#2e3436;fill-opacity:1;fill-rule:evenodd;stroke:#000;stroke-width:1.61822343;stroke-linecap:butt;stroke-linejoin:miter;stroke-miterlimit:10;stroke-dasharray:none;stroke-dashoffset:0;stroke-opacity:1;marker:none;marker-start:none;marker-mid:none;marker-end:none" id="path4359" d="m 32.718984,22.618613 c 1.05e-4,0.358876 -0.290792,0.649859 -0.649668,0.649859 -0.358876,0 -0.649773,-0.290983 -0.649667,-0.649859 -1.06e-4,-0.358876 0.290791,-0.649859 0.649667,-0.649859 0.358876,0 0.649773,0.290983 0.649668,0.649859 l 0,0 z"/><path style="color:#000;display:inline;overflow:visible;visibility:visible;opacity:.28089887;fill:none;fill-opacity:1;fill-rule:evenodd;stroke:url(#linearGradient5317);stroke-width:1.61822355;stroke-linecap:butt;stroke-linejoin:miter;stroke-miterlimit:10;stroke-dasharray:none;stroke-dashoffset:0;stroke-opacity:1;marker:none;marker-start:none;marker-mid:none;marker-end:none" id="path6450" d="m 21.904089,21.068748 c -0.63891,0.478536 -0.975637,1.288183 -0.945298,2.386888 0.03034,1.098705 0.463937,2.443914 1.353894,3.632129 0.889958,1.188214 2.058922,1.982644 3.104746,2.320764 1.045824,0.33812 1.917494,0.242693 2.556403,-0.235842 0.63891,-0.478535 0.976855,-1.326848 0.951577,-2.430633 -0.02528,-1.103785 -0.447141,-2.42149 -1.335161,-3.607117 -0.888019,-1.185627 -2.033888,-1.961061 -3.086011,-2.295752 -1.052123,-0.334692 -1.96124,-0.248972 -2.60015,0.229563 z"/><path style="color:#000;display:inline;overflow:visible;visibility:visible;fill:#fff;fill-opacity:1;fill-rule:evenodd;stroke:none;stroke-width:.9999997;stroke-linecap:butt;stroke-linejoin:miter;stroke-miterlimit:10;stroke-dasharray:none;stroke-dashoffset:0;stroke-opacity:1;marker:none;marker-start:none;marker-mid:none;marker-end:none" id="path6446" d="m 24.852499,22.91164 c 2.32e-4,1.17177 -0.791292,2.121825 -1.767767,2.121825 -0.976475,0 -1.767999,-0.950055 -1.767767,-2.121825 -2.32e-4,-1.17177 0.791292,-2.121825 1.767767,-2.121825 0.976475,0 1.767999,0.950055 1.767767,2.121825 l 0,0 z"/><path style="color:#000;display:inline;overflow:visible;visibility:visible;fill:#fff;fill-opacity:1;fill-rule:evenodd;stroke:none;stroke-width:.9999997;stroke-linecap:butt;stroke-linejoin:miter;stroke-miterlimit:10;stroke-dasharray:none;stroke-dashoffset:0;stroke-opacity:1;marker:none;marker-start:none;marker-mid:none;marker-end:none" id="path4361" d="m 35.216711,19.723047 c 0,0.869317 -0.70472,1.574037 -1.574037,1.574037 -0.869316,0 -1.574036,-0.70472 -1.574036,-1.574037 0,-0.869316 0.70472,-1.574037 1.574036,-1.574037 0.869317,0 1.574037,0.704721 1.574037,1.574037 l 0,0 z"/><path style="color:#000;display:inline;overflow:visible;visibility:visible;fill:url(#radialGradient5319);fill-opacity:1;fill-rule:evenodd;stroke:#888a85;stroke-width:1.61822283;stroke-linecap:butt;stroke-linejoin:miter;stroke-miterlimit:10;stroke-dasharray:none;stroke-dashoffset:0;stroke-opacity:1;marker:none;marker-start:none;marker-mid:none;marker-end:none" id="path6462" d="m 45.833494,21.497431 c 6.61e-4,2.636506 -2.136465,4.774167 -4.772972,4.774167 -2.636504,0 -4.773631,-2.137661 -4.77297,-4.774167 -6.61e-4,-2.636507 2.136466,-4.774167 4.772972,-4.774167 2.636505,0 4.773631,2.13766 4.77297,4.774167 z"/><path style="color:#000;display:inline;overflow:visible;visibility:visible;fill:#2e3436;fill-opacity:1;fill-rule:evenodd;stroke:#000;stroke-width:1.61822295;stroke-linecap:butt;stroke-linejoin:miter;stroke-miterlimit:10;stroke-dasharray:none;stroke-dashoffset:0;stroke-opacity:1;marker:none;marker-start:none;marker-mid:none;marker-end:none" id="path6464" d="m 40.550002,23.218529 c 1.39e-4,0.471521 -0.382087,0.85384 -0.853628,0.85384 -0.471546,0 -0.853769,-0.382319 -0.85363,-0.85384 -1.39e-4,-0.471518 0.382084,-0.853835 0.85363,-0.853835 0.471541,0 0.853767,0.382317 0.853628,0.853835 l 0,0 z"/><path style="color:#000;display:inline;overflow:visible;visibility:visible;fill:#fff;fill-opacity:1;fill-rule:evenodd;stroke:none;stroke-width:.9999997;stroke-linecap:butt;stroke-linejoin:miter;stroke-miterlimit:10;stroke-dasharray:none;stroke-dashoffset:0;stroke-opacity:1;marker:none;marker-start:none;marker-mid:none;marker-end:none" id="path6466" d="m 44.446223,19.831373 c 0,1.154822 -0.936167,2.090991 -2.09099,2.090991 -1.154823,0 -2.09099,-0.936169 -2.09099,-2.090991 0,-1.154821 0.936167,-2.09099 2.09099,-2.09099 1.154823,0 2.09099,0.936169 2.09099,2.09099 l 0,0 z"/><circle id="path4782" cx="45.906" cy="31.453" r="1.981" transform="matrix(0.8262849,0,0,0.8135222,9.8390986,3.5450011)" style="color:#000;display:inline;overflow:visible;visibility:visible;opacity:1;fill:#000;fill-opacity:1;fill-rule:nonzero;stroke:none;stroke-width:1;stroke-linecap:round;stroke-linejoin:miter;stroke-miterlimit:4;stroke-dasharray:none;stroke-dashoffset:0;stroke-opacity:1;marker:none;marker-start:none;marker-mid:none;marker-end:none;enable-background:accumulate"/><path id="path5369" d="m 44.8125,32.625 c 2.375441,0.759725 3.963399,-0.782845 3.375,-2.875 1.401962,2.735164 -0.678117,4.253128 -3.375,2.875 z" transform="matrix(1.0778009,0,0,1.2153934,-2.1787386,-8.6274489)" style="color:#000;display:inline;overflow:visible;visibility:visible;opacity:.71084337;fill:url(#radialGradient5323);fill-opacity:1;fill-rule:nonzero;stroke:none;stroke-width:1;stroke-linecap:round;stroke-linejoin:miter;stroke-miterlimit:4;stroke-dasharray:none;stroke-dashoffset:0;stroke-opacity:1;marker:none;marker-start:none;marker-mid:none;marker-end:none;filter:url(#filter5403);enable-background:accumulate"/></g><g id="g5325" transform="matrix(0.5209085,0,0,0.5209085,0.7804689,-1.2006293)"><path id="path5270" d="m 14.380017,32.135034 c 0.3125,0 29.022361,-0.902812 29.022361,-0.902812 l -3.447534,-4.222188 c -25.52364,-0.724962 -25.16528,3.108049 -25.574827,5.125 z" style="color:#000;display:inline;overflow:visible;visibility:visible;opacity:1;fill:url(#radialGradient5341);fill-opacity:1;fill-rule:nonzero;stroke:none;stroke-width:1;stroke-linecap:round;stroke-linejoin:miter;stroke-miterlimit:4;stroke-dasharray:none;stroke-dashoffset:0;stroke-opacity:1;marker:none;marker-start:none;marker-mid:none;marker-end:none;enable-background:accumulate"/><path id="path5258" d="m 5.7522924,23.0625 10.2500036,9 c 0.307212,-2.437295 -0.740404,-5.162852 -8.1875036,-9.25 l -2.0625,0.25 z" style="color:#000;display:inline;overflow:visible;visibility:visible;opacity:1;fill:url(#radialGradient5343);fill-opacity:1;fill-rule:nonzero;stroke:none;stroke-width:1;stroke-linecap:round;stroke-linejoin:miter;stroke-miterlimit:4;stroke-dasharray:none;stroke-dashoffset:0;stroke-opacity:1;marker:none;marker-start:none;marker-mid:none;marker-end:none;enable-background:accumulate"/><path id="path5407" d="M 3.25,22.5 4.5,48.75 14.25,57.5 12.75,30 3.25,22.5 Z" style="color:#000;display:inline;overflow:visible;visibility:visible;opacity:1;fill:url(#linearGradient5345);fill-opacity:1;fill-rule:nonzero;stroke:none;stroke-width:1;stroke-linecap:round;stroke-linejoin:miter;stroke-miterlimit:4;stroke-dasharray:none;stroke-dashoffset:0;stroke-opacity:1;marker:none;marker-start:none;marker-mid:none;marker-end:none;enable-background:accumulate"/><path id="path5411" d="m 17.999999,31.334348 1.602104,27.79065 25.932824,0.06327 -0.114984,-27.433687 -27.419944,-0.420235 z" style="color:#000;display:inline;overflow:visible;visibility:visible;opacity:1;fill:url(#linearGradient5347);fill-opacity:1;fill-rule:nonzero;stroke:url(#linearGradient5349);stroke-width:1.9197228;stroke-linecap:round;stroke-linejoin:miter;stroke-miterlimit:4;stroke-dasharray:none;stroke-dashoffset:0;stroke-opacity:1;marker:none;marker-start:none;marker-mid:none;marker-end:none;enable-background:accumulate"/><path id="path5409" d="m 12.5,30.125 1.796533,27.5 c 0.225006,3.68361 2.382006,3.86371 6.37767,2.339362 L 18.917609,30.490957 C 15.74227,32.283234 14.410793,30.862934 12.5,30.125 Z" style="color:#000;display:inline;overflow:visible;visibility:visible;opacity:1;fill:#e35302;fill-opacity:1;fill-rule:nonzero;stroke:none;stroke-width:1;stroke-linecap:round;stroke-linejoin:miter;stroke-miterlimit:4;stroke-dasharray:none;stroke-dashoffset:0;stroke-opacity:1;marker:none;marker-start:none;marker-mid:none;marker-end:none;enable-background:accumulate"/><path id="path4635" d="m 14,32.375 1.25,25.75 1.25,1.5 -1.25,-26.75 -1.25,-0.5 z" style="color:#000;display:inline;overflow:visible;visibility:visible;opacity:.63253012;fill:#fff;fill-opacity:1;fill-rule:nonzero;stroke:none;stroke-width:.5546875;stroke-linecap:butt;stroke-linejoin:miter;stroke-miterlimit:4;stroke-dasharray:none;stroke-dashoffset:0;stroke-opacity:1;marker:none;marker-start:none;marker-mid:none;marker-end:none;filter:url(#filter5234);enable-background:accumulate"/><path id="path5256" d="m 3.2703689,22.545865 9.4575531,7.513009 c 0.90865,3.326366 2.995171,2.109512 5.038136,1.060661 l 27.015619,0.07636 -1.963727,-1.881734 -25.020297,-0.01317 c -1.879469,1.424263 -2.322129,2.778679 -3.541551,-0.252376 L 5.8088102,22.369088 3.2703689,22.545865 Z" style="color:#000;display:inline;overflow:visible;visibility:visible;opacity:1;fill:#babdb6;fill-opacity:1;fill-rule:nonzero;stroke:none;stroke-width:1;stroke-linecap:round;stroke-linejoin:miter;stroke-miterlimit:4;stroke-dasharray:none;stroke-dashoffset:0;stroke-opacity:1;marker:none;marker-start:none;marker-mid:none;marker-end:none;enable-background:accumulate"/></g><g id="g5532" transform="translate(0,-3.375)" style="opacity:.52409638"><path id="path5514" d="m 22.057517,19.507477 c -0.04263,0.02095 -0.08958,0.08616 -0.126406,0.196631 -0.09819,0.29459 -0.791077,2.33162 -4.705134,2.429816 -1.867728,0.04645 -2.654538,-1.601149 -2.654538,-1.601149 l -0.05618,2.12082 c 0,0 0.169276,0.40327 -0.126408,0.856756 -0.01521,-0.02267 -0.02598,-0.04784 -0.04214,-0.07023 -0.547335,-0.758679 -1.427552,-1.04881 -1.966323,-0.660123 -0.538774,0.388686 -0.519246,1.320007 0.02809,2.078687 0.45514,0.630884 1.12951,0.922257 1.65733,0.786529 2.645457,1.969556 9.18755,3.539219 8.146202,-5.913018 -0.02171,-0.170163 -0.08345,-0.259641 -0.154497,-0.224723 z" style="color:#000;display:inline;overflow:visible;visibility:visible;fill:#d3d7cf;fill-opacity:1;fill-rule:evenodd;stroke:none;stroke-width:.99999982;stroke-linecap:butt;stroke-linejoin:miter;stroke-miterlimit:10;stroke-dasharray:none;stroke-dashoffset:0;stroke-opacity:1;marker:none;marker-start:none;marker-mid:none;marker-end:none"/><circle id="path5524" cx="16.25" cy="23.25" r=".813" transform="matrix(1.2307692,0,0,1.2307692,-3.875,-5.3028846)" style="color:#000;display:inline;overflow:visible;visibility:visible;opacity:.71084337;fill:#555753;fill-opacity:1;fill-rule:nonzero;stroke:none;stroke-width:1;stroke-linecap:round;stroke-linejoin:miter;stroke-miterlimit:4;stroke-dasharray:none;stroke-dashoffset:0;stroke-opacity:1;marker:none;marker-start:none;marker-mid:none;marker-end:none;enable-background:accumulate"/><circle style="color:#000;display:inline;overflow:visible;visibility:visible;opacity:.71084337;fill:#555753;fill-opacity:1;fill-rule:nonzero;stroke:none;stroke-width:1;stroke-linecap:round;stroke-linejoin:miter;stroke-miterlimit:4;stroke-dasharray:none;stroke-dashoffset:0;stroke-opacity:1;marker:none;marker-start:none;marker-mid:none;marker-end:none;enable-background:accumulate" id="path5526" cx="16.25" cy="23.25" r=".813" transform="matrix(1.8461538,0,0,1.8461538,-11.1875,-19.298077)"/></g><text style="font-style:normal;font-weight:400;font-size:4.0671401px;font-family:'Bitstream Vera Sans';writing-mode:lr-tb;opacity:.52409638;fill:#eeeeec;fill-opacity:1;stroke:none;stroke-width:1px;stroke-linecap:butt;stroke-linejoin:miter;stroke-opacity:1" id="text5528" x="12.57" y="27.987" xml:space="preserve"><tspan id="tspan5530" x="12.57" y="27.987">GIMP</tspan></text></g><rect id="rect4287" width="24" height="24" x="0" y="0" style="opacity:0;fill:#eeeeec;fill-opacity:1;stroke:none;stroke-width:.97000003;stroke-linejoin:miter;stroke-miterlimit:4;stroke-dasharray:none;stroke-opacity:1"/></g></svg>