<svg xmlns="http://www.w3.org/2000/svg" xmlns:svg="http://www.w3.org/2000/svg" xmlns:xlink="http://www.w3.org/1999/xlink" id="svg2" width="24" height="24" version="1.1" viewBox="0 0 24 24"><metadata id="metadata90"/><defs id="defs7386"><linearGradient id="linearGradient5148"><stop id="stop5150" stop-color="#d0d0d0"/><stop id="stop5152" offset="1" stop-color="#ececec"/></linearGradient><linearGradient id="linearGradient7321" x1="83.032" x2="66.311" y1="40.924" y2="22.766" gradientTransform="matrix(0.52629714,0,0,0.63986955,880.48963,662.83072)" gradientUnits="userSpaceOnUse" xlink:href="#linearGradient5148"/><linearGradient id="linearGradient4200" x1="3" x2="22.063" y1="14.594" y2="14.594" gradientUnits="userSpaceOnUse" xlink:href="#linearGradient3845"/><linearGradient id="linearGradient3845"><stop style="stop-color:#f0f1ee;stop-opacity:1" id="stop3847" offset="0"/><stop style="stop-color:#d3d7cf;stop-opacity:1" id="stop3849" offset="1"/></linearGradient><radialGradient id="radialGradient4196" cx="25.053" cy="39.593" r="15.757" fx="25.053" fy="39.593" gradientTransform="matrix(0.348468,0,0,0.348468,15.64542,17.02404)" gradientUnits="userSpaceOnUse" xlink:href="#aigrd2"/><radialGradient id="aigrd2" cx="25.053" cy="39.593" r="15.757" fx="25.053" fy="39.593" gradientTransform="matrix(0.348468,0,0,0.348468,15.64542,17.02404)" gradientUnits="userSpaceOnUse"><stop style="stop-color:#777;stop-opacity:1" id="stop8602" offset="0"/><stop style="stop-color:#000" id="stop8604" offset="1"/></radialGradient><linearGradient id="linearGradient4208" x1="7.419" x2="19.764" y1="9.114" y2="33.509" gradientUnits="userSpaceOnUse" xlink:href="#linearGradient4202"/><linearGradient id="linearGradient4202"><stop style="stop-color:white;stop-opacity:1" id="stop4204" offset="0"/><stop style="stop-color:white;stop-opacity:0" id="stop4206" offset="1"/></linearGradient></defs><g id="g4294" transform="matrix(0.99912418,0,0,1.0000115,0.01050035,-1.3833792e-4)"><rect id="rect4273-3" width="18.253" height="14.767" x="7.06" y="5.799" transform="matrix(1,0,-0.31760047,0.94822463,0,0)" style="color:#000;display:inline;overflow:visible;visibility:visible;opacity:1;fill:url(#linearGradient7321);fill-opacity:1;fill-rule:evenodd;stroke:#888a85;stroke-width:1.02704239;stroke-linecap:round;stroke-linejoin:round;stroke-miterlimit:10;stroke-dasharray:none;stroke-dashoffset:0;stroke-opacity:1;marker:none;marker-start:none;marker-mid:none;marker-end:none"/><rect style="color:#000;display:inline;overflow:visible;visibility:visible;opacity:1;fill:none;fill-opacity:1;fill-rule:evenodd;stroke:#fff;stroke-width:1.59963834;stroke-linecap:butt;stroke-linejoin:miter;stroke-miterlimit:10;stroke-dasharray:none;stroke-dashoffset:0;stroke-opacity:1;marker:none;marker-start:none;marker-mid:none;marker-end:none" id="rect5156-3" width="14.082" height="8.932" x="9.44" y="8.179" ry="0" transform="matrix(1,0,-0.31476759,0.94916878,0,0)"/><rect id="rect4002" width="23.377" height="23.377" x=".312" y=".312" style="color:#000;clip-rule:nonzero;display:inline;overflow:visible;visibility:visible;opacity:0;isolation:auto;mix-blend-mode:normal;color-interpolation:sRGB;color-interpolation-filters:linearRGB;solid-color:#000;solid-opacity:1;fill:none;fill-opacity:1;fill-rule:nonzero;stroke:#000;stroke-width:.62325603;stroke-linecap:round;stroke-linejoin:miter;stroke-miterlimit:4;stroke-dasharray:none;stroke-dashoffset:0;stroke-opacity:1;color-rendering:auto;image-rendering:auto;shape-rendering:auto;text-rendering:auto;enable-background:accumulate"/><g id="g4994" transform="matrix(0.66426958,0,0,0.6584505,-1.8241282,-3.1252075)"><path style="color:#000;display:inline;overflow:visible;visibility:visible;opacity:1;fill:url(#linearGradient4200);fill-opacity:1;fill-rule:evenodd;stroke:#888a85;stroke-width:1.50731909;stroke-linecap:butt;stroke-linejoin:miter;stroke-miterlimit:4;stroke-dasharray:none;stroke-dashoffset:0;stroke-opacity:1;marker:none;marker-start:none;marker-mid:none;marker-end:none" id="path3826" d="m 3.5000001,5.5 v 9.75 c 0,3.467351 5.433283,7.103424 8.9999999,8.4375 3.473888,-1.240724 9.0625,-4.420893 9.0625,-8.3125 V 5.5 Z"/><path style="color:#000;display:inline;overflow:visible;visibility:visible;opacity:.26288662;fill:#85907a;fill-opacity:1;fill-rule:evenodd;stroke:none;stroke-width:1;stroke-linecap:butt;stroke-linejoin:miter;stroke-miterlimit:4;stroke-dasharray:none;stroke-dashoffset:0;stroke-opacity:1;marker:none;marker-start:none;marker-mid:none;marker-end:none" id="path3832" d="m 12.3125,6 v 16.983915 c 0.07932,0.03108 0.172488,0.06496 0.25,0.09375 C 15.79598,21.930741 21,18.987562 21,15.390165 V 6 Z"/><path style="color:#000;display:inline;overflow:visible;visibility:visible;opacity:.28350513;fill:#000;fill-opacity:1;fill-rule:evenodd;stroke:none;stroke-width:1;stroke-linecap:butt;stroke-linejoin:miter;stroke-miterlimit:4;stroke-dasharray:none;stroke-dashoffset:0;stroke-opacity:1;marker:none;marker-start:none;marker-mid:none;marker-end:none" id="path3828" d="m 13.358021,9.1812731 v 2.5124539 l 1.234743,-1.642759 2.944388,-0.6764293 z"/><path id="path3830" d="M 11.698726,9.1812731 V 11.639108 L 10.493382,10.032062 7.6190999,9.3703374 Z" style="color:#000;display:inline;overflow:visible;visibility:visible;opacity:.28350513;fill:#000;fill-opacity:1;fill-rule:evenodd;stroke:none;stroke-width:1;stroke-linecap:butt;stroke-linejoin:miter;stroke-miterlimit:4;stroke-dasharray:none;stroke-dashoffset:0;stroke-opacity:1;marker:none;marker-start:none;marker-mid:none;marker-end:none"/><g id="g4192" transform="matrix(1.532984,0,0,1,-24.74082,-12.14934)"><path style="color:#000;display:inline;overflow:visible;visibility:visible;opacity:.36000001;fill:#fff;fill-opacity:1;fill-rule:nonzero;stroke:none;stroke-width:1;stroke-linecap:butt;stroke-linejoin:miter;stroke-miterlimit:4;stroke-dasharray:none;stroke-dashoffset:0;stroke-opacity:1;marker:none;marker-start:none;marker-mid:none;marker-end:none" id="path2659" d="m 27.845738,27.643149 c -0.840915,1.456507 -1.824163,2.506196 -3.57449,2.506196 -1.700531,0 -2.945405,-1.209798 -3.722333,-2.555477 0.710712,0.851913 1.751523,1.830522 3.648412,1.830522 2.266495,0 2.662793,-0.810358 3.648411,-1.781241 z"/><path id="path8606" d="m 27.845738,27.446026 c -0.840915,1.456507 -1.824163,2.506196 -3.57449,2.506196 -1.700531,0 -2.945405,-1.209798 -3.722333,-2.555477 0.710712,0.851913 1.751523,1.830522 3.648412,1.830522 2.266495,0 2.662793,-0.810357 3.648411,-1.781241 z" style="fill:url(#radialGradient4196);fill-rule:nonzero;stroke:none;stroke-miterlimit:4"/></g><path style="color:#000;display:inline;overflow:visible;visibility:visible;opacity:1;fill:none;fill-opacity:1;fill-rule:evenodd;stroke:url(#linearGradient4208);stroke-width:1.60099566;stroke-linecap:butt;stroke-linejoin:miter;stroke-miterlimit:4;stroke-dasharray:none;stroke-dashoffset:0;stroke-opacity:1;marker:none;marker-start:none;marker-mid:none;marker-end:none" id="path4198" d="M 4.5605469,6.5605469 V 15.25 c 0,1.179663 1.0921648,2.790509 2.7832031,4.205078 1.5823226,1.323627 3.567306,2.420654 5.173828,3.06836 1.591013,-0.606071 3.573638,-1.585998 5.16211,-2.832032 1.705009,-1.337448 2.822265,-2.878329 2.822265,-4.316406 V 6.5605469 Z" transform="matrix(0.941484,0,0,0.941493,0.733284,0.851087)" xlink:href="#path3826"/></g></g></svg>