<svg xmlns="http://www.w3.org/2000/svg" xmlns:svg="http://www.w3.org/2000/svg" xmlns:xlink="http://www.w3.org/1999/xlink" id="svg30571" width="24" height="24" version="1.1" viewBox="0 0 24 24"><defs id="defs30573"><linearGradient id="linearGradient8200" x1="2" x2="8.918" gradientTransform="matrix(0.49923916,0,0,0.51009081,0.76215605,1027.8597)" gradientUnits="userSpaceOnUse" xlink:href="#linearGradient3932"/><linearGradient id="linearGradient3932"><stop id="stop3934" stop-color="#709bd2"/><stop id="stop3936" offset="1" stop-color="#3465a4"/></linearGradient><linearGradient id="linearGradient8202" x1="83.844" x2="119" gradientTransform="matrix(0.42033476,-0.24933005,0.2426799,0.43185254,-37.094831,1056.5534)" gradientUnits="userSpaceOnUse" xlink:href="#linearGradient4394"/><linearGradient id="linearGradient4394"><stop id="stop5137" stop-color="#818181"/><stop id="stop5139" offset=".5" stop-color="#fff"/><stop id="stop4398" offset="1" stop-color="#bebebe"/></linearGradient></defs><metadata id="metadata30576"/><g id="layer1" transform="translate(0,-1028.3622)"><g id="g18110"><path id="path2900-9" d="m 10.074519,1036.724 -7.1158636,0.1429 c -0.9300493,0 -2.25552396,1.174 -2.25552396,2.8381 v 6.2025 c 0,2.3296 2.59194756,2.3242 2.59194756,0.044 l 0.050931,-6.0865 c 3.1306852,-0.3119 4.8440473,-0.7853 6.728509,-3.141 z" style="fill:url(#linearGradient8200);fill-rule:evenodd;stroke:#204a87;stroke-width:1.40527022"/><path id="path2902-8" d="m 4.0313466,1039.4826 6.6433744,11.2277 c 0.510275,0.8249 1.330653,1.1421 2.121487,0.7209 l 9.641421,-5.719 c 0.733375,-0.513 1.073478,-1.4764 0.605138,-2.3203 l -6.650961,-11.0189 z" style="fill:url(#linearGradient8202);fill-rule:evenodd;stroke:#555753;stroke-width:1.49879777"/><ellipse id="path2904-4" cx="-508.142" cy="907.535" rx="2.203" ry="2.201" transform="matrix(0.86583575,-0.50032835,0.49966942,0.86621618,0,0)" style="fill:#d5d5d5;fill-opacity:1;fill-rule:evenodd;stroke:#555753;stroke-width:1.60305464;stroke-linecap:round"/><path id="path2906-7" d="m 5.96701,1040.0083 5.354644,9.1246 c 0.682551,1.2065 0.723505,1.1851 1.584964,0.5804 l 8.00065,-4.8336 c 0.956288,-0.5689 1.156706,-0.3532 0.561858,-1.4149 l -5.541329,-9.2341 z" style="fill:none;fill-rule:evenodd;stroke:#fff;stroke-width:1.40250778"/><path id="path2908-3" d="m 13.751278,1038.2518 v -6.4759 c 0,-3.5901 7.497362,-3.4795 7.497362,0.1493 l 0.187499,8.1773" style="fill:none;fill-opacity:.75;fill-rule:evenodd;stroke:#555753;stroke-width:1.50259995;stroke-linecap:round"/></g></g></svg>