<svg xmlns="http://www.w3.org/2000/svg" xmlns:osb="http://www.openswatchbook.org/uri/2009/osb" xmlns:svg="http://www.w3.org/2000/svg" xmlns:xlink="http://www.w3.org/1999/xlink" id="svg2" width="24" height="24" version="1.1" viewBox="0 0 24 24"><metadata id="metadata90"/><defs id="defs7386"><linearGradient id="linearGradient8340"><stop id="stop8342" stop-color="#fff" stop-opacity=".796"/><stop id="stop8344" offset="1" stop-color="#fff" stop-opacity=".216"/></linearGradient><linearGradient id="linearGradient19282" gradientTransform="matrix(0,-735328.32,170712.69,0,2464326300,577972450)" osb:paint="solid"><stop id="stop19284" stop-color="#b4b4b4"/></linearGradient><linearGradient id="linearGradient6057" x1="231.55" x2="320.7" gradientTransform="matrix(0.01502614,0,0,0.01468232,2.9686133,1037.3257)" gradientUnits="userSpaceOnUse" osb:paint="gradient"><stop id="stop6053" stop-color="#a11f7c"/><stop id="stop6055" offset="1" stop-color="#541f31" stop-opacity=".984"/></linearGradient><linearGradient id="linearGradient4228"><stop id="stop4230" stop-color="#bbb"/><stop id="stop4232" offset="1" stop-color="#9f9f9f"/></linearGradient><linearGradient id="linearGradient4244"><stop id="stop4246" stop-color="#e4e4e4"/><stop id="stop4248" offset="1" stop-color="#d3d3d3"/></linearGradient><linearGradient id="linearGradient5018"><stop id="stop5020" stop-color="#aaa"/><stop id="stop5022" offset="1" stop-color="#cdcdcd"/></linearGradient><linearGradient id="linearGradient1516" x1="7.605" x2="36.183" y1="28.481" y2="40.944" gradientTransform="translate(1589.425,345.01551)" gradientUnits="userSpaceOnUse" xlink:href="#linearGradient4228"/><radialGradient id="radialGradient1512" cx="15.571" cy="2.959" r="20.936" gradientTransform="matrix(1.286242,0.781698,-0.710782,1.169552,1587.0706,340.13861)" gradientUnits="userSpaceOnUse" xlink:href="#linearGradient4244"/><linearGradient id="linearGradient1507" x1="12.378" x2="44.096" y1="4.433" y2="47.621" gradientTransform="translate(1589.425,345.01551)" gradientUnits="userSpaceOnUse" xlink:href="#linearGradient8340"/><linearGradient id="linearGradient1501" x1="28.469" x2="20" y1="28.125" y2="26.375" gradientTransform="translate(1589.425,336.33501)" gradientUnits="userSpaceOnUse" xlink:href="#linearGradient5018"/><linearGradient id="linearGradient1496" x1="26.313" x2="23.063" gradientTransform="translate(1589.425,336.33501)" gradientUnits="userSpaceOnUse" xlink:href="#linearGradient5018"/><linearGradient id="linearGradient1489" x1="21.058" x2="26.286" y1="2.437" y2="29.562" gradientTransform="translate(1589.425,336.96001)" gradientUnits="userSpaceOnUse" xlink:href="#linearGradient8340"/><linearGradient id="linearGradient5487" osb:paint="solid"><stop id="stop5485" offset="0" style="stop-color:#888a85;stop-opacity:1"/></linearGradient></defs><g style="display:inline" id="stock" transform="matrix(1.4999956,0,0,1.4999956,-304.1818,48.969024)"><g id="gimp-controller" transform="matrix(0.36479414,0,0,0.3663165,201.95465,-32.771911)"><path style="fill:none;fill-rule:evenodd;stroke:#535353;stroke-width:2;stroke-linecap:round;stroke-linejoin:round" id="path4196" d="m 9.28569,22.018085 c -0.625,0 -1.031249,0.29018 -1.281248,0.843753 -10e-7,0 -4.4687505,11.103564 -4.4687505,11.103564 0,0 -0.25,0.671559 -0.25,1.78125 0,0 0,5.649968 0,5.649968 0,1.082613 0.6577855,1.625002 1.65625,1.625 l 38.5624985,0 c 0.984853,0 1.59375,-0.71818 1.59375,-1.84375 l 0,-5.649968 c 0,0 0.105963,-0.770423 -0.09375,-1.3125 L 40.28569,23.018089 c -0.184525,-0.511907 -0.636905,-0.988098 -1.125,-1.000004 z"/><path style="fill:url(#linearGradient1516);fill-rule:evenodd;stroke-width:1.02044296" id="path4170-7" d="m 3.2735915,35.052276 0.7646021,-0.692215 37.6096894,0.0625 3.462407,0.317298 0,6.438532 c 0,1.125569 -0.607018,1.843331 -1.591871,1.843331 l -38.5829876,0 c -0.9984647,0 -1.6618399,-0.542051 -1.6618399,-1.624664 z"/><path style="color:#000;fill:none;fill-rule:evenodd;stroke:#666;stroke-width:2" id="path5030" d="m 24.5625,19.75 c -2.624655,0 -4.709751,1.051914 -4.875,2.375 l -0.0625,0 c 0,0 -1.28125,5.1875 -1.28125,5.1875 -0.21875,1.09375 2.078745,3.03125 6.21875,3.03125 4.171393,0 6.5625,-1.96875 6.15625,-3.4375 0,0 -1.1875,-4.78125 -1.1875,-4.78125 l -0.0625,0 C 29.30511,20.801122 27.188264,19.750001 24.5625,19.75 Z"/><path style="fill:url(#radialGradient1512);fill-rule:evenodd" id="path3093" d="m 3.5490842,33.969868 c -0.7142857,1.464286 -6.156e-4,2.392857 1.0357143,2.392857 0,0 38.9999985,0 38.9999985,0 1.119047,-0.02381 1.845238,-1.011905 1.428571,-2.142858 L 40.299082,23.009162 C 40.114558,22.497255 39.64432,22.021063 39.156225,22.009158 l -29.857142,0 c -0.625,0 -1.035714,0.303573 -1.285713,0.857146 0,0 -4.4642858,11.103564 -4.4642858,11.103564 z"/><path style="fill:#fff;fill-rule:evenodd" id="path4201" d="m 44.796162,33.684152 c 0.06352,1.249974 -0.414003,2.31584 -1.322116,2.34375 0,0 -38.1187164,-10e-7 -38.1187163,0 -1.2892319,0 -1.867736,-0.324947 -2.0840507,-0.868056 0.091761,0.944332 0.8258174,1.649306 2.0840507,1.649306 -1e-7,-10e-7 38.1187163,0 38.1187163,0 1.076007,-0.03307 1.752805,-1.424024 1.352164,-2.994791 l -0.03005,-0.130209 z"/><path style="fill:none;fill-rule:evenodd;stroke:url(#linearGradient1507);stroke-linecap:round;stroke-linejoin:round" id="path4252" d="m 9.642515,22.47118 c -0.601692,0 -0.992791,0.279359 -1.233466,0.812287 -10e-7,0 -4.4150149,10.590729 -4.4150149,10.590729 0,0 -0.2406768,0.646515 -0.2406768,1.714823 0,0 0,5.290096 0,5.290096 0,1.35474 0.4440561,1.626899 1.5944841,1.626899 l 37.6869046,0 c 1.323126,0 1.534316,-0.316397 1.534316,-1.837492 l 0,-5.290096 c 0,0 0.10201,-0.741691 -0.09025,-1.263553 L 39.885616,23.308891 c -0.177643,-0.492816 -0.550652,-0.82625 -1.020545,-0.837711 z"/><ellipse style="color:#000;fill:#fff;fill-opacity:.48022605;fill-rule:evenodd" id="path4341" cx="24.572" cy="28.378" rx="7.248" ry="3.712" transform="matrix(1.581301,0,0,1.581301,-14.2837,-16.5907)"/><ellipse style="color:#000;fill:#c9c9c9;fill-rule:evenodd" id="path4343" cx="24.572" cy="28.378" rx="7.248" ry="3.712" transform="matrix(0.853659,0,0,0.853659,3.595897,2.933178)"/><path style="color:#000;fill:none;fill-rule:evenodd;stroke:#666;stroke-width:2" id="path4659" d="m 24.5625,1.34375 c -3.659278,0 -6.625,2.9657226 -6.625,6.625 0,2.607559 1.559074,4.792747 3.75,5.875 l 0,8.46875 c 0,0 0,0.03564 0,0.0625 0,0.813967 1.285826,1.468751 2.875,1.46875 1.589174,0 2.875,-0.654783 2.875,-1.46875 l 0,-0.0625 0,-8.4375 c 2.210442,-1.075204 3.75,-3.284395 3.75,-5.90625 0,-3.6592776 -2.965722,-6.625 -6.625,-6.625 z"/><path style="color:#000;fill:url(#linearGradient1501);fill-rule:evenodd" id="path5026" d="m 29.53125,22.125 c 0,0 1.1875,4.78125 1.1875,4.78125 0.40625,1.46875 -1.984857,3.4375 -6.15625,3.4375 -4.140005,0 -6.4375,-1.9375 -6.21875,-3.03125 0,0 1.28125,-5.1875 1.28125,-5.1875 z"/><ellipse style="color:#000;fill:#e4e4e4;fill-rule:evenodd" id="path4345" cx="24.572" cy="28.378" rx="7.248" ry="3.712" transform="matrix(0.682927,0,0,0.682927,7.79111,2.903166)"/><path style="color:#000;fill:url(#linearGradient1496);fill-rule:evenodd" id="path4347" d="m 24.5625,6.28125 c -1.589174,0 -2.874999,0.6547825 -2.875,1.46875 0,0.026864 0.05973,0.035989 0.0625,0.0625 l -0.0625,0 0,13.875 0.0625,0 c -0.0028,0.02651 -0.0625,0.03564 -0.0625,0.0625 0,0.813967 1.285826,1.468751 2.875,1.46875 1.589174,0 2.875,-0.654783 2.875,-1.46875 0,-0.02686 -0.05973,-0.03599 -0.0625,-0.0625 l 0.0625,0 0,-13.875 -0.0625,0 c 0.0028,-0.026511 0.0625,-0.035636 0.0625,-0.0625 0,-0.8139671 -1.285826,-1.46875 -2.875,-1.46875 z"/><circle style="color:#000;fill:#3565a4;fill-opacity:1;fill-rule:evenodd;stroke:#122439;stroke-width:1.41361904" id="path4641" cx="24.395" cy="8.402" r="6.629" transform="matrix(0.967577,0,0,0.967577,0.96773,-0.16866)"/><path style="color:#000;opacity:.52571399;fill:none;fill-rule:evenodd;stroke:url(#linearGradient1489)" id="path2204" d="m 24.563623,2.0718822 c -3.284876,0 -5.943495,2.6876119 -5.943495,5.9724868 0,2.312769 1.660026,4.26294 3.58867,5.247671 l 0,7.121965 c -0.867236,0.395397 -2.15313,1.043191 -2.16803,1.681574 0,0 -1.246684,5.145245 -1.246684,5.145245 -0.202948,1.014743 1.928587,2.812287 5.769539,2.812287 3.870072,0 6.088458,-1.826537 5.711553,-3.189192 l -1.217691,-4.855318 c -0.01596,-0.683778 -1.225688,-1.111895 -2.201538,-1.507618 l 0,-7.208943 c 1.928645,-0.984731 3.680162,-2.934902 3.680163,-5.247671 0,-3.2848748 -2.687613,-5.9724868 -5.972487,-5.9724868 z"/></g></g></svg>