<svg xmlns="http://www.w3.org/2000/svg" xmlns:svg="http://www.w3.org/2000/svg" id="svg30571" width="24" height="24" version="1.1" viewBox="0 0 24 24"><defs id="defs30573"><linearGradient id="linearGradient4989-64"><stop id="stop4991-7" offset="0" style="stop-color:#d3e9ff;stop-opacity:1"/><stop id="stop4993-6" offset=".208" style="stop-color:#d3e9ff;stop-opacity:1"/><stop id="stop4995-9" offset=".817" style="stop-color:#4074ae;stop-opacity:1"/><stop id="stop4997-4" offset="1" style="stop-color:#36486c;stop-opacity:1"/></linearGradient></defs><metadata id="metadata30576"/><g id="layer1" transform="translate(0,-1028.3622)"><g id="g4966" transform="matrix(1.0000227,0,0,0.99999972,-3.2678699e-6,2.9273801e-4)"><g style="fill:#729fcf" id="g4231" transform="matrix(0.02729045,0,0,0.03086605,13.378976,1009.8836)"><path id="path2826" d="m 305.44068,946.36678 c -73.76452,76.18482 -177.02204,123.62152 -291.345845,123.62152 -81.729996,0 -157.784735,-24.2954 -221.486705,-65.9377 l -51.91773,76.7555 c 78.52069,51.6881 172.440525,81.8515 273.404435,81.8515 140.123075,0 266.727535,-58.0347 357.298015,-151.2597 z" style="fill:#3465a4;fill-opacity:1;stroke:#000;stroke-width:23.57995987;stroke-linecap:butt;stroke-linejoin:miter;stroke-miterlimit:4;stroke-dasharray:none;stroke-dashoffset:0;stroke-opacity:1"/><path id="path1305" d="M -130.52062,707.8396 -479.81031,1368.7549 -29.702023,820.12389 378.55596,1368.7549 59.698179,707.8396 Z" style="fill:#729fcf;fill-opacity:1;fill-rule:evenodd;stroke:#000;stroke-width:23.57995987;stroke-linecap:butt;stroke-linejoin:miter;stroke-miterlimit:4;stroke-dasharray:none;stroke-opacity:1"/></g><circle id="path4216" cx="12.5" cy="1031.362" r="2.643" style="opacity:1;fill:#729fcf;fill-opacity:1;stroke:#000;stroke-width:.71339357;stroke-linecap:round;stroke-miterlimit:4;stroke-dasharray:none;stroke-opacity:1"/><circle id="path4215" cx="12.5" cy="1031.362" r="1.136" style="opacity:1;fill:#fff;fill-opacity:1;stroke:#000;stroke-width:.72830057;stroke-linecap:round;stroke-miterlimit:4;stroke-dasharray:none;stroke-opacity:1"/></g></g></svg>