<svg xmlns="http://www.w3.org/2000/svg" xmlns:svg="http://www.w3.org/2000/svg" xmlns:xlink="http://www.w3.org/1999/xlink" id="svg97" width="24" height="24" version="1.1" viewBox="0 0 24 24"><defs id="defs3"><linearGradient id="linearGradient9766"><stop style="stop-color:#6194cb;stop-opacity:1" id="stop9768" offset="0"/><stop style="stop-color:#729fcf;stop-opacity:1" id="stop9770" offset="1"/></linearGradient><linearGradient id="linearGradient3096"><stop id="stop3098" offset="0" style="stop-color:#424242;stop-opacity:1"/><stop id="stop3100" offset="1" style="stop-color:#777;stop-opacity:1"/></linearGradient><linearGradient id="linearGradient3104-5" x1="18.113" x2="15.515" y1="31.368" y2="6.18" gradientTransform="matrix(0.6008182,0,0,0.60098717,-1.8363771,23.944582)" gradientUnits="userSpaceOnUse" xlink:href="#linearGradient3096"/><linearGradient id="linearGradient9772" x1="22.176" x2="22.065" y1="36.988" y2="32.05" gradientTransform="matrix(0.58583149,0,0,0.59874372,-1.3064445,24.343264)" gradientUnits="userSpaceOnUse" xlink:href="#linearGradient9766"/><linearGradient id="linearGradient322-1" x1="13.036" x2="12.854" y1="32.567" y2="46.689" gradientTransform="matrix(0.77184067,0,0,0.50168839,-1.8877857,23.335751)" gradientUnits="userSpaceOnUse" xlink:href="#linearGradient8340"/><linearGradient id="linearGradient8340"><stop id="stop8342" stop-color="#fff" stop-opacity=".796"/><stop id="stop8344" offset="1" stop-color="#fff" stop-opacity=".216"/></linearGradient><linearGradient id="linearGradient2827" x1="21.115" x2="31.886" y1="37.647" y2="43.399" gradientTransform="matrix(0.57565919,0,0,0.80181109,244.73386,-1075.5581)" gradientUnits="userSpaceOnUse" xlink:href="#linearGradient2821"/><linearGradient id="linearGradient2821"><stop id="stop2823" stop-color="#555753"/><stop id="stop2825" offset="1" stop-color="#d3d7cf"/></linearGradient><linearGradient id="linearGradient4259" x1=".889" x2="7.111" y1="12.276" y2="12.276" gradientUnits="userSpaceOnUse" xlink:href="#linearGradient2821"/></defs><metadata id="metadata4"/><g id="g4302"><path style="fill:#fff;fill-opacity:1;fill-rule:nonzero;stroke:url(#linearGradient3104-5);stroke-width:.60090262;stroke-linecap:round;stroke-linejoin:round;stroke-miterlimit:4;stroke-dasharray:none;stroke-opacity:1" id="path216-5" d="M 0.88039079,47.195223 C 0.89348593,47.445417 1.15671,47.695611 1.4068334,47.695611 H 20.228677 c 0.250122,0 0.48715,-0.250194 0.474055,-0.500388 L 20.1401,30.832305 C 20.127,30.582112 19.863786,30.331913 19.613663,30.331913 h -7.973382 c -0.291431,0 -0.741694,-0.189664 -0.842133,-0.665071 l -0.367335,-1.738699 c -0.09341,-0.44213 -0.53005,-0.623756 -0.7801735,-0.623756 H 0.77123237 c -0.2501283,0 -0.48715589,0.250193 -0.47406051,0.500387 z" transform="translate(0,-24)"/><rect id="rect3965-5" width="24" height="23.996" x="0" y="24" transform="translate(0,-24)" style="color:#000;clip-rule:nonzero;display:inline;overflow:visible;visibility:visible;opacity:0;isolation:auto;mix-blend-mode:normal;color-interpolation:sRGB;color-interpolation-filters:linearRGB;solid-color:#000;solid-opacity:1;fill:#bebebe;fill-opacity:1;fill-rule:nonzero;stroke:none;stroke-width:.73943967;stroke-linecap:round;stroke-linejoin:miter;stroke-miterlimit:4;stroke-dasharray:none;stroke-dashoffset:0;stroke-opacity:1;color-rendering:auto;image-rendering:auto;shape-rendering:auto;text-rendering:auto;enable-background:accumulate"/><g id="g3967" transform="matrix(0,1.125002,-1.0741743,0,30.18679,0.99997831)" style="display:inline"><rect style="color:#000;display:inline;overflow:visible;visibility:visible;opacity:1;fill:url(#linearGradient4259);fill-opacity:1;fill-rule:nonzero;stroke:#2e3436;stroke-width:1.03283346;stroke-linecap:square;stroke-linejoin:miter;stroke-miterlimit:4;stroke-dasharray:none;stroke-dashoffset:1.5;stroke-opacity:1;marker:none;marker-start:none;marker-mid:none;marker-end:none" id="rect1927" width="14.967" height="6.414" x=".516" y="9.069"/></g><g id="g4420" transform="matrix(0.99965663,0,0,1.0005166,-0.46580058,-24.322559)"><path style="color:#000;display:block;visibility:visible;fill:url(#linearGradient9772);fill-opacity:1;fill-rule:nonzero;stroke:#3465a4;stroke-width:.59225792;stroke-linecap:butt;stroke-linejoin:round;stroke-miterlimit:4;stroke-dasharray:none;stroke-dashoffset:0;stroke-opacity:1;marker:none;marker-start:none;marker-mid:none;marker-end:none" id="path233-5" d="m 22,48 c 0.670129,-0.02638 1.150031,-0.656403 1.199218,-1.389688 0.463853,-6.914704 0.972105,-12.712496 0.972105,-12.712496 0.04227,-0.14818 -0.09837,-0.296359 -0.281282,-0.296359 H 3.7543369 c 0,0 -1.0839751,13.092665 -1.0839751,13.092665 -0.06711,0.588005 -0.2730018,1.080563 -0.9079425,1.307485 L 22,48.000007 Z"/><path id="path304-3" d="m 4.2634507,34.265001 19.2104103,0.03984 -0.922143,12.293645 c -0.0494,0.658573 -0.264026,0.877811 -1.097081,0.877811 -1.096404,0 -16.800764,-0.01992 -18.3923652,-0.01992 C 3.1991236,47.259196 3.2578,46.848745 3.2585854,46.838917 Z" style="opacity:.46590911;fill:none;fill-opacity:1;fill-rule:evenodd;stroke:url(#linearGradient322-1);stroke-width:.60005915px;stroke-linecap:round;stroke-linejoin:miter;stroke-opacity:1"/></g></g></svg>