<svg xmlns="http://www.w3.org/2000/svg" xmlns:svg="http://www.w3.org/2000/svg" id="svg8" width="24" height="24" version="1.1" viewBox="0 0 6.35 6.35"><metadata id="metadata5"/><g id="layer1" transform="translate(0,-290.64998)"><g style="display:inline" id="gimp-color-temperature-24" transform="translate(-125.14789,106.49998)"><path id="rect13227" d="m 480.5,696 c -1.38501,0 -2.5,1.11499 -2.5,2.5 v 10.55469 c -1.92739,0.93386 -3.26367,2.90661 -3.26367,5.1875 0,3.17559 2.4487,5.75781 5.75781,5.75781 3.30911,0 5.75781,-2.58724 5.75781,-5.72852 0,-2.33483 -1.3335,-4.30917 -3.25195,-5.1875 V 698.5 c 0,-1.38501 -1.11499,-2.5 -2.5,-2.5 z m 0,1 c 0.831,0 1.5,0.66903 1.5,1.5 v 11.2832 c 1.88289,0.63477 3.25586,2.35851 3.25586,4.45899 4e-5,2.63516 -2.12656,4.76172 -4.76172,4.76172 -2.63516,0 -4.76172,-2.12656 -4.76172,-4.76172 3e-5,-2.10461 1.37889,-3.82945 3.26758,-4.46094 V 698.5 c 0,-0.83097 0.66903,-1.5 1.5,-1.5 z" transform="scale(0.26458333)" style="color:#000;overflow:visible;opacity:1;fill:#3465a4;fill-opacity:1;fill-rule:evenodd;stroke:none;stroke-width:12;stroke-linecap:round;stroke-linejoin:round;stroke-miterlimit:4;stroke-dasharray:none;stroke-opacity:1"/><path style="color:#000;overflow:visible;opacity:1;fill:none;fill-opacity:1;fill-rule:evenodd;stroke:#edd400;stroke-width:.26458332;stroke-linecap:round;stroke-linejoin:round;stroke-opacity:1" id="path13472" d="m 128.48408,185.68187 a 0.67310576,0.67310576 0 0 1 0.50041,-0.22292 0.67310576,0.67310576 0 0 1 0.6731,0.6731 0.67310576,0.67310576 0 0 1 -0.6731,0.67311 0.67310576,0.67310576 0 0 1 -0.50034,-0.22284"/><g id="g33634" style="fill:#edd400;fill-opacity:1"><rect style="color:#000;overflow:visible;opacity:1;fill:#edd400;fill-opacity:1;fill-rule:evenodd;stroke:none;stroke-width:.26458332;stroke-linecap:round;stroke-linejoin:round" id="rect996" width=".265" height=".794" x="128.852" y="184.15" rx=".132" ry=".132"/><rect id="rect998" width=".265" height=".794" x="128.852" y="187.325" rx=".132" ry=".132" style="color:#000;overflow:visible;opacity:1;fill:#edd400;fill-opacity:1;fill-rule:evenodd;stroke:none;stroke-width:.26458332;stroke-linecap:round;stroke-linejoin:round"/><rect id="rect1000" width=".265" height=".794" x="186.002" y="-130.969" rx=".132" ry=".132" transform="rotate(90)" style="color:#000;overflow:visible;opacity:1;fill:#edd400;fill-opacity:1;fill-rule:evenodd;stroke:none;stroke-width:.26458332;stroke-linecap:round;stroke-linejoin:round"/><rect style="color:#000;overflow:visible;opacity:1;fill:#edd400;fill-opacity:1;fill-rule:evenodd;stroke:none;stroke-width:.26458332;stroke-linecap:round;stroke-linejoin:round" id="rect1020" width=".265" height=".794" x="222.689" y="38.422" rx=".132" ry=".132" transform="rotate(45)"/><rect id="rect1026" width=".265" height=".794" x="40.277" y="-224.809" rx=".132" ry=".132" transform="rotate(135)" style="color:#000;overflow:visible;opacity:1;fill:#edd400;fill-opacity:1;fill-rule:evenodd;stroke:none;stroke-width:.26458332;stroke-linecap:round;stroke-linejoin:round"/></g><path id="rect13227-7" d="m 127.13229,186.00208 c -0.0733,0 -0.13229,0.059 -0.13229,0.13229 v 1.93994 c -0.44807,0.065 -0.78054,0.44899 -0.78083,0.90175 1.2e-4,0.5036 0.40849,0.91173 0.91209,0.91157 0.50339,-1.2e-4 0.91145,-0.40817 0.91157,-0.91157 -2.6e-4,-0.45172 -0.3314,-0.83508 -0.77825,-0.90124 v -1.94045 c 0,-0.0733 -0.059,-0.13229 -0.13229,-0.13229 z" style="color:#000;display:inline;overflow:visible;opacity:1;fill:#c00;fill-opacity:1;fill-rule:evenodd;stroke:none;stroke-width:3.17499995;stroke-linecap:round;stroke-linejoin:round;stroke-miterlimit:4;stroke-dasharray:none;stroke-opacity:1"/></g></g></svg>