<svg xmlns="http://www.w3.org/2000/svg" xmlns:svg="http://www.w3.org/2000/svg" id="svg30571" width="24" height="24" version="1.1" viewBox="0 0 24 24"><metadata id="metadata30576"/><g id="layer1" transform="translate(0,-1028.3622)"><g id="g4147"><rect id="rect858" width="24" height="24" x="0" y="1028.362" style="opacity:0;fill:#000;fill-opacity:1;stroke:none;stroke-width:2.00953174;stroke-linecap:square;stroke-miterlimit:4;stroke-dasharray:none;stroke-opacity:1"/><path style="color:#000;display:inline;overflow:visible;visibility:visible;fill:none;stroke:#000;stroke-width:2.21182895;stroke-miterlimit:4;stroke-dasharray:none;stroke-opacity:1;marker:none;enable-background:accumulate" id="path18616-0-4-7" d="m 3.2047838,1031.4682 4.4601947,-10e-5 c 1.1749449,0 2.2291066,1.0875 2.2291066,2.1973 l 0,6.5907 -5.5747369,2e-4 c -2.9115619,0 -2.9906563,-4.3941 0,-4.3941 l 5.5747369,0"/><path id="path18618-3-4-3" d="m 14.101887,1029.3621 0,10.8982 5.857473,0 c 2.550239,0 2.619504,-5.4489 0,-5.4489 l -5.857473,0" style="color:#000;display:inline;overflow:visible;visibility:visible;fill:none;stroke:#000;stroke-width:2.20377541;stroke-miterlimit:4;stroke-dasharray:none;stroke-opacity:1;marker:none;enable-background:accumulate"/><path id="path18497-9-8" d="m 22.034857,1047.3622 0,2 -19.5616642,0 0,-2 z" style="color:#000;font-style:normal;font-variant:normal;font-weight:400;font-stretch:normal;font-size:medium;line-height:normal;font-family:Sans;-inkscape-font-specification:Sans;text-indent:0;text-align:start;text-decoration:none;text-decoration-line:none;letter-spacing:normal;word-spacing:normal;text-transform:none;direction:ltr;writing-mode:lr-tb;baseline-shift:baseline;text-anchor:start;display:inline;overflow:visible;visibility:visible;fill:#000;fill-opacity:1;stroke:none;stroke-width:1.62987268;marker:none;enable-background:accumulate"/><path style="color:#555753;font-style:normal;font-variant:normal;font-weight:400;font-stretch:normal;font-size:medium;line-height:normal;font-family:'Bitstream Vera Sans';-inkscape-font-specification:'Bitstream Vera Sans';text-indent:0;text-align:start;text-decoration:none;text-decoration-line:none;letter-spacing:normal;word-spacing:normal;text-transform:none;direction:ltr;writing-mode:lr-tb;text-anchor:start;display:inline;overflow:visible;visibility:visible;fill:#ff9753;fill-opacity:1;stroke:#ff5000;stroke-width:.52343333;stroke-miterlimit:4;stroke-dasharray:none;stroke-opacity:1;marker:none;enable-background:accumulate" id="path17259-0-7-2-6" d="m 17.761717,1044.624 0,0.9345 c 0,0.24 0.125828,0.4939 0.302863,0.6717 l 2.604624,2.132 -2.604624,2.1322 c -0.177035,0.1779 -0.302863,0.4317 -0.302863,0.6717 l 0,0.9344 c 0.323055,0 0.646109,-2e-4 0.969163,-2e-4 0.299908,0 0.535288,-0.084 0.726872,-0.2625 1.372983,-1.0028 2.745957,-2.4728 4.11894,-3.4756 l -4.11894,-3.4755 c -0.191584,-0.1784 -0.426964,-0.2627 -0.726872,-0.2627 -0.323054,0 -0.646108,0 -0.969163,0 z"/><path style="color:#555753;font-style:normal;font-variant:normal;font-weight:400;font-stretch:normal;font-size:medium;line-height:normal;font-family:'Bitstream Vera Sans';-inkscape-font-specification:'Bitstream Vera Sans';text-indent:0;text-align:start;text-decoration:none;text-decoration-line:none;letter-spacing:normal;word-spacing:normal;text-transform:none;direction:ltr;writing-mode:lr-tb;text-anchor:start;display:inline;overflow:visible;visibility:visible;fill:#ff9753;fill-opacity:1;stroke:#ff5000;stroke-width:.52331352;stroke-miterlimit:4;stroke-dasharray:none;stroke-opacity:1;marker:none;enable-background:accumulate" id="path17259-0-7-2-6-9" d="m 6.2354701,1044.624 0,0.9346 c 0,0.2401 -0.1257672,0.4938 -0.3027226,0.6714 l -2.6034156,2.132 2.6034156,2.1322 c 0.1769547,0.1779 0.3027226,0.4317 0.3027226,0.6716 l 0,0.9346 c -0.3229043,0 -0.6458087,-10e-5 -0.9687128,-10e-5 -0.2997679,0 -0.5350393,-0.084 -0.7265344,-0.2627 -1.3723462,-1.0027 -2.7446832,-2.4727 -4.11702928,-3.4756 l 4.11702928,-3.4753 c 0.1914951,-0.1783 0.4267665,-0.2629 0.7265344,-0.2629 0.3229041,2e-4 0.6458085,2e-4 0.9687128,2e-4 z"/></g></g></svg>