<svg xmlns="http://www.w3.org/2000/svg" xmlns:svg="http://www.w3.org/2000/svg" id="svg2" width="24" height="24" version="1.1" viewBox="0 0 384 384.001"><metadata id="metadata90"/><path style="opacity:.5;fill:#edd400;fill-opacity:1;stroke:#000;stroke-width:5.39151859;stroke-miterlimit:4;stroke-dasharray:none;stroke-opacity:1" id="path11633-6" d="M 186.43649,6.50195 99.827553,92.926434 186.43649,178.34401 c 0.0796,-14.23439 0,-21.47968 0.0847,-63.9793 l 119.08721,-0.46138 c 18.08932,-0.073 32.39375,14.17327 32.39375,32.22039 0,18.04726 -14.28399,32.22038 -32.47834,32.22038 H 294.6977 v 42.96051 h 10.82613 c 41.59586,0 75.7828,-33.91575 75.7828,-75.18089 0,-41.26526 -34.16688,-75.347203 -75.86738,-75.180905 L 186.4365,71.446151 Z"/><path style="fill:#edd400;fill-opacity:1;stroke:#000;stroke-width:5.88007164;stroke-miterlimit:4;stroke-dasharray:none;stroke-opacity:1" id="path11633" d="m 100.42279,151.15138 -96.247436,92.50245 96.247436,91.42474 c 0.0885,-15.23544 0,-22.99025 0.0941,-68.47874 l 132.34012,-0.49374 c 20.10242,-0.0776 35.99883,15.17006 35.99883,34.48637 0,19.31646 -15.87365,34.48634 -36.09282,34.48634 h -12.03096 v 45.9818 h 12.03093 c 46.22498,0 84.2165,-36.30095 84.2165,-80.46814 0,-44.16731 -37.96923,-80.64615 -84.31048,-80.46815 l -132.24623,0.53875 z"/><rect id="rect35735-0-1" width="383.978" height="383.972" x=".021" y="-384.001" transform="scale(1,-1)" style="color:#bebebe;display:inline;overflow:visible;visibility:visible;fill:none;stroke:none;stroke-width:47.99689865;marker:none"/></svg>