<svg xmlns="http://www.w3.org/2000/svg" xmlns:svg="http://www.w3.org/2000/svg" xmlns:xlink="http://www.w3.org/1999/xlink" id="svg30571" width="24" height="24" version="1.1" viewBox="0 0 24 24"><defs id="defs30573"><linearGradient id="linearGradient3261" x1="134.696" x2="136.169" y1="225.715" y2="98.343" gradientTransform="matrix(0.3209315,0,0,0.3209315,21.587316,31.070447)" gradientUnits="userSpaceOnUse" xlink:href="#linearGradient3181"/><linearGradient id="linearGradient3181"><stop id="stop3183" offset="0" style="stop-color:#f2f2f1;stop-opacity:1"/><stop style="stop-color:#c5c7c2;stop-opacity:1" id="stop3187" offset=".223"/><stop id="stop3185" offset="1" style="stop-color:#eeeeec;stop-opacity:1"/></linearGradient><linearGradient id="linearGradient3263" x1="55.662" x2="55.662" y1="58.699" y2="97.157" gradientUnits="userSpaceOnUse" xlink:href="#linearGradient3173"/><linearGradient id="linearGradient3173"><stop style="stop-color:#6d706a;stop-opacity:1" id="stop3175" offset="0"/><stop style="stop-color:#2d2e2c;stop-opacity:1" id="stop3177" offset="1"/></linearGradient></defs><metadata id="metadata30576"/><g id="layer1" transform="translate(0,-1028.3622)"><g id="g3251" transform="matrix(0.52411218,0,0,0.52326285,-19.915902,999.33541)"><path style="display:inline;overflow:visible;visibility:visible;opacity:1;fill:url(#linearGradient3261);fill-opacity:1;fill-rule:nonzero;stroke:url(#linearGradient3263);stroke-width:2.87810326;stroke-linecap:butt;stroke-linejoin:round;stroke-miterlimit:4;stroke-dasharray:none;stroke-dashoffset:0;stroke-opacity:1;marker:none;marker-start:none;marker-mid:none;marker-end:none;enable-background:accumulate" id="path3680" d="m 39.438364,78.98461 c 0,12.555369 8.881409,20.915102 22.284682,20.915102 13.491637,0 22.937978,-11.784979 20.148481,-25.811288 H 61.753133 c -6.756335,0 -8.04823,8.751774 -0.840641,8.751774 3.770031,0 4.170667,-2.759741 6.709417,-3.001239 0.916673,-0.0872 3.235452,0.54889 3.384183,2.344955 0.351708,4.247206 -5.004416,6.729844 -9.383338,6.704497 -14.67659,-0.08547 -15.183659,-20.735884 -0.581688,-20.735884 h 18.894843 c -0.0071,-0.01304 -0.01297,-0.02709 -0.02006,-0.04012 h 0.05015 C 76.988508,62.959293 70.884207,56.759235 59.672589,56.914946 48.585947,57.068921 39.438364,66.605927 39.438364,78.98461 Z"/><path id="path3189" d="m 59.710938,59.683594 c -9.51986,0.132216 -17.503907,8.286543 -17.503907,19.300781 0,5.62461 1.92311,10.030672 5.242188,13.148437 3.319078,3.117766 8.147659,4.998047 14.273437,4.998047 11.154936,0 18.816568,-8.80226 17.654297,-20.273437 H 61.753906 c -2.182306,0 -2.817059,1.194107 -2.908203,1.941406 -0.04557,0.373649 0.02563,0.566686 0.207031,0.75586 0.181399,0.189173 0.617973,0.515624 1.859375,0.515624 1.209532,0 1.334583,-0.195439 2.072266,-0.792968 0.737683,-0.597529 2.129654,-1.981725 4.375,-2.195313 1.308364,-0.12446 2.295434,0.126328 3.523437,0.767578 1.228004,0.641251 2.712948,2.054186 2.882813,4.105469 0.274933,3.320075 -1.817729,6.039999 -4.212891,7.533203 -2.395161,1.493204 -5.22582,2.185664 -7.945312,2.169922 -8.637015,-0.0503 -13.852913,-6.619542 -14.023438,-13.097656 -0.08526,-3.239057 0.973929,-6.534381 3.283204,-9.052735 2.309274,-2.518353 5.87053,-4.125 10.173828,-4.125 h 13.332031 c -3.028834,-3.143299 -7.536562,-5.79818 -14.662109,-5.699218 z" xlink:href="#path3680" style="display:inline;overflow:visible;visibility:visible;opacity:.82017547;fill:none;fill-opacity:1;fill-rule:nonzero;stroke:#fff;stroke-width:2.87810326;stroke-linecap:butt;stroke-linejoin:miter;stroke-miterlimit:4;stroke-dasharray:none;stroke-dashoffset:0;stroke-opacity:1;marker:none;marker-start:none;marker-mid:none;marker-end:none;enable-background:accumulate"/></g></g></svg>