<svg xmlns="http://www.w3.org/2000/svg" xmlns:osb="http://www.openswatchbook.org/uri/2009/osb" xmlns:svg="http://www.w3.org/2000/svg" xmlns:xlink="http://www.w3.org/1999/xlink" id="svg30571" width="24" height="24" version="1.1" viewBox="0 0 24 24"><defs id="defs30573"><linearGradient id="linearGradient4989-64"><stop id="stop4991-7" offset="0" style="stop-color:#d3e9ff;stop-opacity:1"/><stop id="stop4993-6" offset=".208" style="stop-color:#d3e9ff;stop-opacity:1"/><stop id="stop4995-9" offset=".817" style="stop-color:#4074ae;stop-opacity:1"/><stop id="stop4997-4" offset="1" style="stop-color:#36486c;stop-opacity:1"/></linearGradient><linearGradient id="linearGradient6951-5"><stop id="stop6961-6" stop-color="#ee8719"/><stop id="stop6955-9" offset="1" stop-color="#e07c12" stop-opacity="0"/></linearGradient><linearGradient id="linearGradient6057" x1="231.55" x2="320.7" gradientTransform="matrix(0.01502614,0,0,0.01468232,2.9686133,1037.3257)" gradientUnits="userSpaceOnUse" osb:paint="gradient"><stop id="stop6053" stop-color="#a11f7c"/><stop id="stop6055" offset="1" stop-color="#541f31" stop-opacity=".984"/></linearGradient><radialGradient id="radialGradient4286-0-1-8" cx="-112.593" cy="9.093" r="4.823" fx="-112.593" fy="9.093" gradientTransform="matrix(0.51071251,-1.0109563,0.85391324,0.43041535,-312.27765,-7.2271097)" gradientUnits="userSpaceOnUse" xlink:href="#linearGradient4989-64"/><filter style="color-interpolation-filters:sRGB" id="filter8586-1-3" width="1.12" height="1.08" x="-.06" y="-.04"><feGaussianBlur id="feGaussianBlur8588-4-7" stdDeviation=".217"/></filter></defs><metadata id="metadata30576"/><g id="layer1" transform="translate(0,-1028.3622)"><g style="display:inline" id="gimp-tool-blur-24" transform="matrix(1.5,0,0,1.5,0,980.36219)"><rect id="rect3217-5" width="16" height="16" x="0" y="0" transform="translate(0,32)" style="opacity:0;fill:#000;fill-opacity:1;fill-rule:evenodd;stroke:none;stroke-width:1.15182769px;stroke-linecap:butt;stroke-linejoin:miter;stroke-opacity:1"/><g id="g8593-8-7" transform="matrix(1.0317318,0,0,0.9996891,380.89871,-69.755906)"><path style="display:inline;fill:#729fcf;fill-opacity:1;stroke:#555759;stroke-width:.53840739;stroke-miterlimit:4;stroke-dasharray:none;stroke-opacity:1" id="path12658-7-5" d="m -355.88362,112.29669 c 0,3.13599 -1.87053,5.22664 -5.54628,5.22664 -3.67573,0 -5.54625,-2.09065 -5.54625,-5.22664 0,-4.18129 4.437,-5.22663 5.54625,-10.45326 1.10927,5.22663 5.54628,6.27197 5.54628,10.45326 z"/><path style="display:inline;fill:url(#radialGradient4286-0-1-8);fill-opacity:1;stroke:none;stroke-width:.43357551;stroke-miterlimit:4;stroke-dasharray:none;stroke-opacity:1;filter:url(#filter8586-1-3)" id="path12658-9-5-3" d="m -356.8842,112.59507 c 0,2.60001 -1.46309,4.33334 -4.33819,4.33334 -2.87509,0 -4.33817,-1.73333 -4.33817,-4.33334 0,-3.46666 3.47054,-4.33333 4.33817,-8.66666 0.86764,4.33333 4.33819,5.2 4.33819,8.66666 z"/></g></g></g></svg>