<svg xmlns="http://www.w3.org/2000/svg" xmlns:svg="http://www.w3.org/2000/svg" id="svg30571" width="24" height="24" version="1.1" viewBox="0 0 24 24"><defs id="defs30573"><linearGradient id="linearGradient4989-64"><stop id="stop4991-7" offset="0" style="stop-color:#d3e9ff;stop-opacity:1"/><stop id="stop4993-6" offset=".208" style="stop-color:#d3e9ff;stop-opacity:1"/><stop id="stop4995-9" offset=".817" style="stop-color:#4074ae;stop-opacity:1"/><stop id="stop4997-4" offset="1" style="stop-color:#36486c;stop-opacity:1"/></linearGradient></defs><metadata id="metadata30576"/><g id="layer1" transform="translate(0,-1028.3622)"><g id="g11071"><rect id="rect4071-4" width="23.95" height="24" x=".049" y="1028.362" style="color:#000;clip-rule:nonzero;display:inline;overflow:visible;visibility:visible;opacity:0;isolation:auto;mix-blend-mode:normal;color-interpolation:sRGB;color-interpolation-filters:linearRGB;solid-color:#000;solid-opacity:1;fill:#000;fill-opacity:1;fill-rule:nonzero;stroke:none;stroke-width:.7492153;stroke-linecap:round;stroke-linejoin:round;stroke-miterlimit:4;stroke-dasharray:none;stroke-dashoffset:0;stroke-opacity:1;color-rendering:auto;image-rendering:auto;shape-rendering:auto;text-rendering:auto;enable-background:accumulate"/><path style="fill:#3465a4;fill-opacity:1;stroke:#204a87;stroke-width:.65356725;stroke-miterlimit:4;stroke-dasharray:none;stroke-opacity:1" id="rect10513-3" d="m 0.3456033,1028.69 v 1.6343 13.0761 1.593 0.042 h 1.6333262 v -0.042 c 4.8692556,-0.049 9.8930555,0.044 14.6999355,0.042 v -16.345 H 16.58642 1.9789949 c -0.5443142,2e-4 -1.08967791,-10e-5 -1.6333916,-4e-4 z m 1.6333262,1.6343 H 15.045539 v 13.0761 H 1.9789295 Z"/><path id="path10526-3" d="m 16.734805,1045.0119 6.890239,6.9702 -0.07993,-2.0159 -6.721981,-6.6569 z" style="fill:#729fcf;fill-opacity:1;stroke:#204a87;stroke-width:.63769817;stroke-linejoin:bevel;stroke-miterlimit:4;stroke-dasharray:none;stroke-opacity:1"/><path id="path10519-9" d="m 0.36286661,1030.942 6.95057349,7.1666 -2e-7,-2.292 -6.9064142,-7.1537 z" style="fill:#729fcf;fill-opacity:1;stroke:#3565a4;stroke-width:.63773936;stroke-linejoin:bevel;stroke-miterlimit:4;stroke-dasharray:none;stroke-opacity:1"/><path id="path10521-83" d="m 16.742213,1031.1867 6.764629,6.9081 c 0.04537,-0.5167 0.181689,-1.5243 0.163264,-2.3745 l -6.952962,-7.0406 z" style="fill:#729fcf;fill-opacity:1;stroke:#204a87;stroke-width:.63833147;stroke-linecap:round;stroke-linejoin:bevel;stroke-miterlimit:4;stroke-dasharray:none;stroke-opacity:1"/><path id="path10523-0" d="m 0.31870732,1045.4932 6.95057348,6.6132 0.094203,-2.1429 -7.01441929,-6.4111 z" style="fill:#729fcf;fill-opacity:1;stroke:#3565a4;stroke-width:.63769817;stroke-linejoin:bevel;stroke-miterlimit:4;stroke-dasharray:none;stroke-opacity:1"/><path style="fill:#3465a4;fill-opacity:1;stroke:#204a87;stroke-width:.64940071;stroke-miterlimit:4;stroke-dasharray:none;stroke-opacity:1" id="rect10505-9" d="m 7.3379987,1035.6935 v 14.6947 1.5912 0.041 H 8.95231 l -1.63717,0.017 c 11.28731,-0.041 11.852287,-0.017 16.354859,-0.017 -0.02049,-5.4227 0.01921,-10.8454 1.6e-5,-16.268 -5.30658,-0.062 -11.155502,0.023 -16.3319518,-0.06 z m 1.6143113,1.6326 h 12.914488 l -0.09444,12.9433 -12.820034,0.1189 z"/></g></g></svg>