<svg xmlns="http://www.w3.org/2000/svg" xmlns:svg="http://www.w3.org/2000/svg" xmlns:xlink="http://www.w3.org/1999/xlink" id="svg30571" width="24" height="24" version="1.1" viewBox="0 0 24 24"><defs id="defs30573"><linearGradient id="linearGradient3952" x1="3.299" x2="19.243" y1="1048.099" y2="1048.099" gradientTransform="matrix(1.0073616,0,0,1.0227088,-2.3712764,-22.704243)" gradientUnits="userSpaceOnUse" xlink:href="#linearGradient3950"/><linearGradient id="linearGradient3950"><stop style="stop-color:#000;stop-opacity:1" id="stop3946" offset="0"/><stop style="stop-color:#000;stop-opacity:0" id="stop3948" offset="1"/></linearGradient></defs><metadata id="metadata30576"/><g id="layer1" transform="translate(0,-1028.3622)"><g id="g6853"><g id="g4025" transform="matrix(1.5,0,0,1.4999645,0,-526.14392)"><g id="g10052" transform="matrix(0.99615992,0,0,1.0000236,0.06131843,-0.02482106)"><g id="g3964"><g id="g4155" transform="translate(-1.0132303,2.1666045)"><rect id="rect5216" width="16.062" height="2" x=".952" y="1048.196" style="fill:url(#linearGradient3952);fill-opacity:1;stroke:none;stroke-width:1.79227746"/><path style="opacity:1;fill:#000;fill-opacity:1;stroke:#ce5c00;stroke-width:.68503547;stroke-linecap:square;stroke-linejoin:round;stroke-miterlimit:4;stroke-dasharray:none;stroke-dashoffset:0;stroke-opacity:1" id="path3998" d="m -9.0839653,1041.3845 -1.6835687,-1.0424 -1.683568,-1.0423 1.744472,-0.9369 1.7444715,-0.9368 -0.060903,1.9792 z" transform="matrix(0.73891877,-0.3807533,0.44870008,0.62021805,-455.88582,400.60241)"/></g></g></g><rect id="rect3966-7" width="16" height="13" x="0" y="1036.362" style="opacity:1;fill:#d3d7cf;fill-opacity:1;stroke:none;stroke-width:.67533737;stroke-linecap:square;stroke-linejoin:round;stroke-miterlimit:4;stroke-dasharray:none;stroke-dashoffset:0;stroke-opacity:1"/><path style="fill:#729fcf;fill-opacity:1;stroke:none;stroke-width:1.44146287" id="path5209" d="m 0.66666667,1039.862 1.46666673,-1.4166 v 7.0834 L 3.6,1042.6953 l 1.4666667,2.8335 v -5.6668 h 1.4666664 v 1.4167 l 1.4666665,1.4166 v 1.4168 l 1.4666665,1.4167 1.4666669,-1.4167 v -2.8334 l 1.466665,1.4166 v 0 -5.6667 l 1.46667,1.4168 v 2.8333 l 1.466666,1.4166 v 5.6669 H 0.66666667 Z"/><path style="opacity:1;fill:#babdb6;fill-opacity:1;stroke:#ce5c00;stroke-width:.68503547;stroke-linecap:square;stroke-linejoin:round;stroke-miterlimit:4;stroke-dasharray:none;stroke-dashoffset:0;stroke-opacity:1" id="path3998-1" d="m -9.0839653,1041.3845 -1.6835687,-1.0424 -1.683568,-1.0423 1.744472,-0.9369 1.7444715,-0.9368 -0.060903,1.9792 z" transform="matrix(0.73605553,-0.38072705,0.4469614,0.62017532,-449.06727,402.81348)"/><path style="opacity:1;fill:#fff;fill-opacity:1;stroke:#ce5c00;stroke-width:.68503547;stroke-linecap:square;stroke-linejoin:round;stroke-miterlimit:4;stroke-dasharray:none;stroke-dashoffset:0;stroke-opacity:1" id="path3998-6" d="m -9.0839653,1041.3845 -1.6835687,-1.0424 -1.683568,-1.0423 1.744472,-0.9369 1.7444715,-0.9368 -0.060903,1.9792 z" transform="matrix(0.73605553,-0.38072705,0.4469614,0.62017532,-443.06727,402.81348)"/></g></g></g></svg>