<svg xmlns="http://www.w3.org/2000/svg" xmlns:svg="http://www.w3.org/2000/svg" xmlns:xlink="http://www.w3.org/1999/xlink" id="svg11300" width="24" height="24" version="1.0" viewBox="0 0 24 24"><defs id="defs3"><linearGradient id="linearGradient3233"><stop style="stop-color:#eeeeec;stop-opacity:1" id="stop3235" offset="0"/><stop style="stop-color:#a3a398;stop-opacity:1" id="stop3237" offset="1"/></linearGradient><linearGradient id="linearGradient8089"><stop style="stop-color:black;stop-opacity:.2783505" id="stop8091" offset="0"/><stop style="stop-color:#a8a8a8;stop-opacity:0" id="stop8093" offset="1"/></linearGradient><radialGradient id="radialGradient8095-9" cx="24.226" cy="30.48" r="13.354" fx="24.226" fy="30.48" gradientTransform="matrix(1.0901943,0,0,0.46664441,-14.375801,-6.8080346)" gradientUnits="userSpaceOnUse" xlink:href="#linearGradient8089"/><linearGradient id="linearGradient3588-9" x1="23.434" x2="23.434" y1="15.759" y2="8.048" gradientTransform="matrix(0.59220141,0,0,0.5681937,-2.264968,-3.295305)" gradientUnits="userSpaceOnUse" xlink:href="#linearGradient3233"/></defs><metadata id="metadata4"/><g id="g4278"><g id="g4006" transform="matrix(0.95153782,0,0,1.0416928,-8.4998014,-5.2062787)"><path id="path3068" d="m 21.464547,5.500002 c -4.895979,0 -8.876945,1.7334382 -8.876946,3.8658299 0,0.1530151 0,14.1442051 0,14.3035631 0,2.132392 3.980966,3.865829 8.876946,3.865829 4.895981,0 9.035466,-1.733438 9.035464,-3.865829 0,-0.126218 0,-14.177345 0,-14.3035631 0,-2.1323917 -4.139483,-3.8658299 -9.035464,-3.8658299 z" style="color:#000;display:block;overflow:visible;visibility:visible;opacity:1;fill:#babdb6;fill-opacity:1;fill-rule:nonzero;stroke:#767973;stroke-width:1.00422084;stroke-linecap:butt;stroke-linejoin:miter;stroke-miterlimit:10;stroke-dasharray:none;stroke-dashoffset:0;stroke-opacity:1;marker:none;marker-start:none;marker-mid:none;marker-end:none"/><ellipse style="color:#000;display:block;overflow:visible;visibility:visible;opacity:.23626374;fill:#d3d7cf;fill-opacity:1;fill-rule:nonzero;stroke:url(#linearGradient3594);stroke-width:1.79112864;stroke-linecap:butt;stroke-linejoin:miter;stroke-miterlimit:10;stroke-dasharray:none;stroke-dashoffset:0;stroke-opacity:1;marker:none;marker-start:none;marker-mid:none;marker-end:none" id="path3241" cx="24" cy="14.071" rx="12.857" ry="5.5" transform="matrix(0.61236,0,0,0.509025,6.93016,16.53765)"/><path style="color:#000;display:block;overflow:visible;visibility:visible;opacity:.5443038;fill:none;fill-opacity:1;fill-rule:nonzero;stroke:url(#linearGradient3592);stroke-width:1;stroke-linecap:butt;stroke-linejoin:miter;stroke-miterlimit:10;stroke-dasharray:none;stroke-dashoffset:0;stroke-opacity:1;marker:none;marker-start:none;marker-mid:none;marker-end:none" id="path4174" d="m 21.470844,6.4999985 c -4.350694,0 -7.888282,1.5424173 -7.888283,3.4398227 0,0.1361548 0,12.9194288 0,13.0612248 0,1.897408 3.537589,3.439823 7.888283,3.439823 4.350692,0 8.029144,-1.542415 8.029142,-3.439823 0,-0.112308 0,-12.948914 0,-13.0612248 0,-1.8974064 -3.67845,-3.4398227 -8.029142,-3.4398227 z"/></g><path style="fill:#73d216;fill-opacity:1;stroke-width:.15787189" id="rect145_1_" d="m 10.409267,11.472564 h 3.181737 c 0.777926,0 1.40901,0.230171 1.40901,0.514288 v 1.16121 c 0,0.283888 -0.630727,0.514092 -1.40901,0.514092 h -3.181737 c -0.7788184,0 -1.4092777,-0.230172 -1.4092777,-0.514092 v -1.16121 c 0,-0.283889 0.6307269,-0.514288 1.4092777,-0.514288 z"/><path style="fill:#f57900;stroke-width:.15787189" id="rect146_1_" d="m 10.409267,5.8252615 h 3.181737 c 0.777926,0 1.40901,0.2301713 1.40901,0.5142879 v 1.1612093 c 0,0.2838887 -0.630727,0.5140926 -1.40901,0.5140926 h -3.181737 c -0.7788184,0 -1.4092777,-0.2301713 -1.4092777,-0.5140926 V 6.3395494 c 0,-0.2838887 0.6307269,-0.5142879 1.4092777,-0.5142879 z"/><path style="fill:#3465a4;stroke-width:.15787189" id="rect147_3_" d="m 10.409265,14.296053 h 3.181737 c 0.777926,0 1.40901,0.230171 1.40901,0.514093 v 1.161111 c 0,0.283889 -0.630727,0.514287 -1.40901,0.514287 h -3.181737 c -0.778818,0 -1.4092773,-0.23017 -1.4092773,-0.514287 v -1.161111 c 0,-0.28389 0.6307269,-0.514093 1.4092773,-0.514093 z"/><path style="fill:#edd400;stroke-width:.15787189" id="rect302_1_" d="m 10.409267,3.0017078 h 3.181737 c 0.777926,0 1.40901,0.2301712 1.40901,0.5140926 v 1.1612091 c 0,0.2838889 -0.630727,0.5141903 -1.40901,0.5141903 h -3.181737 c -0.7788184,0 -1.4092777,-0.2301712 -1.4092777,-0.5141903 V 3.5158004 c 0,-0.2838889 0.6307269,-0.5140926 1.4092777,-0.5140926 z"/><path style="fill:#c17d11;stroke-width:.15787189" id="rect306_1_" d="m 10.409267,8.6490106 h 3.181737 c 0.777926,0 1.40901,0.2301714 1.40901,0.5141903 v 1.1610781 c 0,0.283889 -0.630727,0.514224 -1.40901,0.514224 h -3.181737 c -0.7788184,0 -1.4092777,-0.230172 -1.4092777,-0.514224 V 9.1632009 c 0,-0.2842143 0.6307269,-0.5141903 1.4092777,-0.5141903 z"/><path style="fill:#75507b;stroke-width:.15787189" id="rect147_2_" d="m 10.409266,17.048992 h 3.181737 c 0.777926,0 1.409009,0.230172 1.409009,0.514093 v 1.161112 c 0,0.284214 -0.630726,0.514287 -1.409009,0.514287 h -3.181737 c -0.7788191,0 -1.4092783,-0.230171 -1.4092783,-0.514287 v -1.161112 c 0,-0.283889 0.6307269,-0.514093 1.4092783,-0.514093 z"/><path style="fill:#c00;stroke-width:.15786478" id="rect182_1_" d="m 10.409266,19.808543 h 3.181737 c 0.777925,0 1.409009,0.230475 1.409009,0.514242 v 1.161104 c 0,0.283864 -0.630727,0.514242 -1.409009,0.514242 h -3.181737 c -0.778819,0 -1.4092783,-0.230476 -1.4092783,-0.514242 v -1.161104 c 0,-0.283865 0.630727,-0.514242 1.4092783,-0.514242 z"/><rect id="rect4060" width="22.978" height="22.974" x=".511" y=".513" style="color:#000;clip-rule:nonzero;display:inline;overflow:visible;visibility:visible;opacity:0;isolation:auto;mix-blend-mode:normal;color-interpolation:sRGB;color-interpolation-filters:linearRGB;solid-color:#000;solid-opacity:1;fill:none;fill-opacity:1;fill-rule:nonzero;stroke:#bebebe;stroke-width:1.02195382;stroke-linecap:round;stroke-linejoin:miter;stroke-miterlimit:4;stroke-dasharray:none;stroke-dashoffset:0;stroke-opacity:1;color-rendering:auto;image-rendering:auto;shape-rendering:auto;text-rendering:auto;enable-background:accumulate"/><ellipse id="path3364-0" cx="11.948" cy="4.7" rx="7.614" ry="3.125" style="color:#000;display:block;overflow:visible;visibility:visible;opacity:.77319587;fill:url(#radialGradient8095-9);fill-opacity:1;fill-rule:nonzero;stroke:url(#linearGradient3588-9);stroke-width:.99570435;stroke-linecap:butt;stroke-linejoin:miter;stroke-miterlimit:10;stroke-dasharray:none;stroke-dashoffset:0;stroke-opacity:1;marker:none;marker-start:none;marker-mid:none;marker-end:none"/></g></svg>