<svg xmlns="http://www.w3.org/2000/svg" xmlns:svg="http://www.w3.org/2000/svg" xmlns:xlink="http://www.w3.org/1999/xlink" id="svg97" width="24" height="24" version="1.1" viewBox="0 0 24 24"><defs id="defs3"><linearGradient id="linearGradient9766"><stop style="stop-color:#6194cb;stop-opacity:1" id="stop9768" offset="0"/><stop style="stop-color:#729fcf;stop-opacity:1" id="stop9770" offset="1"/></linearGradient><linearGradient id="linearGradient3096"><stop id="stop3098" offset="0" style="stop-color:#424242;stop-opacity:1"/><stop id="stop3100" offset="1" style="stop-color:#777;stop-opacity:1"/></linearGradient><linearGradient id="linearGradient3104-5" x1="18.113" x2="15.515" y1="31.368" y2="6.18" gradientTransform="matrix(0.6008182,0,0,0.60098717,-1.8363771,23.944582)" gradientUnits="userSpaceOnUse" xlink:href="#linearGradient3096"/><linearGradient id="linearGradient9772" x1="22.176" x2="22.065" y1="36.988" y2="32.05" gradientTransform="matrix(0.58563033,0,0,0.59905303,-1.7717965,0.03328073)" gradientUnits="userSpaceOnUse" xlink:href="#linearGradient9766"/><linearGradient id="linearGradient322-1" x1="13.036" x2="12.854" y1="32.567" y2="46.689" gradientTransform="matrix(0.77157564,0,0,0.50194756,-2.3529383,-0.974753)" gradientUnits="userSpaceOnUse" xlink:href="#linearGradient8340"/><linearGradient id="linearGradient8340"><stop id="stop8342" stop-color="#fff" stop-opacity=".796"/><stop id="stop8344" offset="1" stop-color="#fff" stop-opacity=".216"/></linearGradient></defs><metadata id="metadata4"/><g id="g4304" transform="matrix(0.99983923,0,0,1,0.0038541,0)"><path style="fill:#fff;fill-opacity:1;fill-rule:nonzero;stroke:url(#linearGradient3104-5);stroke-width:.60090262;stroke-linecap:round;stroke-linejoin:round;stroke-miterlimit:4;stroke-dasharray:none;stroke-opacity:1" id="path216-5" d="M 0.88039079,47.195223 C 0.89348593,47.445417 1.15671,47.695611 1.4068334,47.695611 H 20.228677 c 0.250122,0 0.48715,-0.250194 0.474055,-0.500388 L 20.1401,30.832305 C 20.127,30.582112 19.863786,30.331913 19.613663,30.331913 h -7.973382 c -0.291431,0 -0.741694,-0.189664 -0.842133,-0.665071 l -0.367335,-1.738699 c -0.09341,-0.44213 -0.53005,-0.623756 -0.7801735,-0.623756 H 0.77123237 c -0.2501283,0 -0.48715589,0.250193 -0.47406051,0.500387 z" transform="translate(0,-24)"/><rect id="rect3965-5" width="24" height="23.996" x="0" y="24" transform="translate(0,-24)" style="color:#000;clip-rule:nonzero;display:inline;overflow:visible;visibility:visible;opacity:0;isolation:auto;mix-blend-mode:normal;color-interpolation:sRGB;color-interpolation-filters:linearRGB;solid-color:#000;solid-opacity:1;fill:#bebebe;fill-opacity:1;fill-rule:nonzero;stroke:none;stroke-width:.73943967;stroke-linecap:round;stroke-linejoin:miter;stroke-miterlimit:4;stroke-dasharray:none;stroke-dashoffset:0;stroke-opacity:1;color-rendering:auto;image-rendering:auto;shape-rendering:auto;text-rendering:auto;enable-background:accumulate"/><g id="transform_pattern" transform="matrix(1.2727141,0,0,1.2727542,-1701.5278,-169.54936)" style="display:inline"><rect id="rect9785" width="10" height="10" x="1344.5" y="134.5" style="display:inline;overflow:visible;visibility:visible;fill:#fff;fill-opacity:1;fill-rule:nonzero;stroke:#555753;stroke-width:1;stroke-linecap:round;stroke-linejoin:miter;stroke-miterlimit:4;stroke-dasharray:none;stroke-dashoffset:16.19999886;stroke-opacity:1;marker:none;marker-start:none;marker-mid:none;marker-end:none;enable-background:accumulate"/><path style="fill:#c00;fill-opacity:1;stroke:#c00;stroke-width:.51283503;stroke-linecap:round;stroke-linejoin:miter;stroke-miterlimit:4;stroke-dashoffset:0;stroke-opacity:1" id="path9787" d="m 1345.256,135.2564 v 1.9833 c 0.168,0.048 0.352,0.0875 0.535,0.0875 1.026,-1e-4 1.854,-0.8129 1.854,-1.8083 10e-4,-0.0864 -0.019,-0.1793 -0.031,-0.2625 z m 6.13,0 c -0.012,0.0831 -0.031,0.1761 -0.031,0.2625 0,0.9954 0.829,1.8083 1.854,1.8083 0.183,-1e-4 0.367,-0.0395 0.535,-0.0875 v -1.9833 z m -1.886,2.5666 c -1.026,0 -1.855,0.8128 -1.855,1.8082 10e-4,0.9954 0.829,1.8083 1.855,1.8083 1.026,0 1.855,-0.8129 1.855,-1.8083 0,-0.9954 -0.829,-1.8082 -1.855,-1.8082 z m 3.709,4.1415 c -1.025,0 -1.854,0.7837 -1.854,1.7791 h 2.389 v -1.7208 c -0.168,-0.048 -0.352,-0.0583 -0.535,-0.0583 z"/><path id="path9789" d="m 1345.72,141.8757 c 1.088,0 1.967,0.8657 1.967,1.9652 h -2.534 v -1.9008 c 0.178,-0.053 0.373,-0.0644 0.567,-0.0644 z" style="fill:#c00;fill-opacity:1;stroke:#c00;stroke-width:.55503678;stroke-linecap:round;stroke-linejoin:miter;stroke-miterlimit:4;stroke-dashoffset:0;stroke-opacity:1"/><rect style="display:inline;overflow:visible;visibility:visible;opacity:.33969475;fill:none;fill-opacity:1;fill-rule:nonzero;stroke:#fff;stroke-width:1;stroke-linecap:round;stroke-linejoin:miter;stroke-miterlimit:4;stroke-dasharray:none;stroke-dashoffset:16.19999886;stroke-opacity:1;marker:none;marker-start:none;marker-mid:none;marker-end:none;enable-background:accumulate" id="rect9791" width="8" height="8" x="1345.5" y="135.5"/></g><path id="path233-5" d="m 21.526645,23.702238 c 0.669899,-0.02639 1.149636,-0.656742 1.198807,-1.390406 0.463693,-6.918276 0.971771,-12.7190634 0.971771,-12.7190634 0.04225,-0.1482565 -0.09834,-0.2965121 -0.281186,-0.2965121 H 3.2872472 c 0,0 -1.0836029,13.0994285 -1.0836029,13.0994285 -0.067087,0.588309 -0.2729081,1.081121 -0.9076307,1.308161 l 20.2306314,-0.0016 z" style="color:#000;display:block;visibility:visible;fill:url(#linearGradient9772);fill-opacity:1;fill-rule:nonzero;stroke:#3465a4;stroke-width:.59230918;stroke-linecap:butt;stroke-linejoin:round;stroke-miterlimit:4;stroke-dasharray:none;stroke-dashoffset:0;stroke-opacity:1;marker:none;marker-start:none;marker-mid:none;marker-end:none"/><path style="opacity:.46590911;fill:none;fill-opacity:1;fill-rule:evenodd;stroke:url(#linearGradient322-1);stroke-width:.60011107px;stroke-linecap:round;stroke-linejoin:miter;stroke-opacity:1" id="path304-3" d="M 3.796186,9.960143 23,10 22.078173,22.299996 c -0.04938,0.658913 -0.263935,0.878264 -1.096704,0.878264 -1.096027,0 -16.7949948,-0.01993 -18.3860495,-0.01993 0.1368048,-0.197279 0.1954611,-0.607942 0.1962462,-0.617775 z"/></g></svg>