<svg xmlns="http://www.w3.org/2000/svg" xmlns:svg="http://www.w3.org/2000/svg" xmlns:xlink="http://www.w3.org/1999/xlink" id="svg11300" width="24" height="24" version="1.0" viewBox="0 0 24 24"><defs id="defs3"><linearGradient id="linearGradient3247"><stop style="stop-color:white;stop-opacity:1" id="stop3249" offset="0"/><stop style="stop-color:white;stop-opacity:0" id="stop3251" offset="1"/></linearGradient><linearGradient id="linearGradient3233"><stop style="stop-color:#eeeeec;stop-opacity:1" id="stop3235" offset="0"/><stop style="stop-color:#a3a398;stop-opacity:1" id="stop3237" offset="1"/></linearGradient><linearGradient id="linearGradient8089"><stop style="stop-color:black;stop-opacity:.2783505" id="stop8091" offset="0"/><stop style="stop-color:#a8a8a8;stop-opacity:0" id="stop8093" offset="1"/></linearGradient><linearGradient id="linearGradient3594" x1="24" x2="23.434" y1="17.246" y2="8.048" gradientUnits="userSpaceOnUse" xlink:href="#linearGradient3233"/><linearGradient id="linearGradient3592" x1="17.16" x2="37.969" y1="14.004" y2="56.576" gradientTransform="matrix(0.593728,0,0,0.590305,7.25337,0.782569)" gradientUnits="userSpaceOnUse" xlink:href="#linearGradient3247"/><radialGradient id="radialGradient8095" cx="24.226" cy="30.48" r="13.354" fx="24.226" fy="30.48" gradientTransform="matrix(1.840918,0,0,0.821277,-20.45053,-6.182276)" gradientUnits="userSpaceOnUse" xlink:href="#linearGradient8089"/><linearGradient id="linearGradient3588" x1="23.434" x2="23.434" y1="15.759" y2="8.048" gradientUnits="userSpaceOnUse" xlink:href="#linearGradient3233"/></defs><metadata id="metadata4"/><g id="g4314" transform="matrix(1.5000061,0,0,1.4997176,-4.9157664e-5,0.0044699)"><g id="g4006" transform="matrix(0.63449913,0,0,0.69458915,-5.6695722,-3.4729625)"><path id="path3068" d="m 21.464637,5.497837 c -4.894895,0 -8.874979,1.7334468 -8.87498,3.865849 0,0.1530159 0,14.144274 0,14.303633 0,2.132403 3.980084,3.865848 8.87498,3.865848 4.894897,0 9.033465,-1.733446 9.033463,-3.865848 0,-0.126218 0,-14.1774143 0,-14.303633 0,-2.1324022 -4.138566,-3.865849 -9.033463,-3.865849 z" style="color:#000;display:block;overflow:visible;visibility:visible;opacity:1;fill:#7d7d7d;fill-opacity:1;fill-rule:nonzero;stroke:#767973;stroke-width:1.00411212;stroke-linecap:butt;stroke-linejoin:miter;stroke-miterlimit:10;stroke-dasharray:none;stroke-dashoffset:0;stroke-opacity:1;marker:none;marker-start:none;marker-mid:none;marker-end:none"/><ellipse style="color:#000;display:block;overflow:visible;visibility:visible;opacity:.23626374;fill:#d3d7cf;fill-opacity:1;fill-rule:nonzero;stroke:url(#linearGradient3594);stroke-width:1.79112864;stroke-linecap:butt;stroke-linejoin:miter;stroke-miterlimit:10;stroke-dasharray:none;stroke-dashoffset:0;stroke-opacity:1;marker:none;marker-start:none;marker-mid:none;marker-end:none" id="path3241" cx="24" cy="14.071" rx="12.857" ry="5.5" transform="matrix(0.61236,0,0,0.509025,6.93016,16.53765)"/><path style="color:#000;display:block;overflow:visible;visibility:visible;opacity:.5443038;fill:none;fill-opacity:1;fill-rule:nonzero;stroke:url(#linearGradient3592);stroke-width:1;stroke-linecap:butt;stroke-linejoin:miter;stroke-miterlimit:10;stroke-dasharray:none;stroke-dashoffset:0;stroke-opacity:1;marker:none;marker-start:none;marker-mid:none;marker-end:none" id="path4174" d="m 21.470844,6.4999985 c -4.350694,0 -7.888282,1.5424173 -7.888283,3.4398227 0,0.1361548 0,12.9194288 0,13.0612248 0,1.897408 3.537589,3.439823 7.888283,3.439823 4.350692,0 8.029144,-1.542415 8.029142,-3.439823 0,-0.112308 0,-12.948914 0,-13.0612248 0,-1.8974064 -3.67845,-3.4398227 -8.029142,-3.4398227 z"/><ellipse id="path3364" cx="24" cy="14.071" rx="12.857" ry="5.5" transform="matrix(0.622222,0,0,0.545455,6.56666,1.824673)" style="color:#000;display:block;overflow:visible;visibility:visible;opacity:.77319587;fill:url(#radialGradient8095);fill-opacity:1;fill-rule:nonzero;stroke:url(#linearGradient3588);stroke-width:1.71651447;stroke-linecap:butt;stroke-linejoin:miter;stroke-miterlimit:10;stroke-dasharray:none;stroke-dashoffset:0;stroke-opacity:1;marker:none;marker-start:none;marker-mid:none;marker-end:none"/></g><rect id="rect4060" width="15.319" height="15.319" x=".341" y=".341" style="color:#000;clip-rule:nonzero;display:inline;overflow:visible;visibility:visible;opacity:0;isolation:auto;mix-blend-mode:normal;color-interpolation:sRGB;color-interpolation-filters:linearRGB;solid-color:#000;solid-opacity:1;fill:none;fill-opacity:1;fill-rule:nonzero;stroke:#bebebe;stroke-width:.68136525;stroke-linecap:round;stroke-linejoin:miter;stroke-miterlimit:4;stroke-dasharray:none;stroke-dashoffset:0;stroke-opacity:1;color-rendering:auto;image-rendering:auto;shape-rendering:auto;text-rendering:auto;enable-background:accumulate"/></g></svg>