<svg xmlns="http://www.w3.org/2000/svg" xmlns:svg="http://www.w3.org/2000/svg" id="svg2" width="24" height="24" version="1.1" viewBox="0 0 24 24"><metadata id="metadata90"/><g style="display:inline" id="stock" transform="matrix(1.4999998,0,0,1.4999998,20.576784,-24.176244)"><g id="gimp-transparency" transform="translate(-13.717856,-1020.2447)"><g id="gimp-transparency-0" transform="translate(-161.0002,657.3622)"><rect id="rect10732-6" width="4" height="4" x="-80" y="162" transform="translate(241.0002,217)" style="fill:#bebebe"/><rect id="rect10734-4" width="4" height="4" x="-76" y="166" transform="translate(241.0002,217)" style="fill:#bebebe"/><rect id="rect10736-2" width="4" height="4" x="-72" y="162" transform="translate(241.0002,217)" style="fill:#bebebe"/><rect id="rect10738-9" width="4" height="4" x="-68" y="166" transform="translate(241.0002,217)" style="fill:#bebebe"/><rect id="rect10740-8" width="4" height="4" x="-72" y="170" transform="translate(241.0002,217)" style="fill:#bebebe"/><rect id="rect10742-1" width="4" height="4" x="-80" y="170" transform="translate(241.0002,217)" style="fill:#bebebe"/><rect id="rect10744-4" width="4" height="4" x="-76" y="174" transform="translate(241.0002,217)" style="fill:#bebebe"/><rect id="rect10746-3" width="4" height="4" x="-68" y="174" transform="translate(241.0002,217)" style="fill:#bebebe"/><rect id="rect10748-9" width="4" height="4" x="-80" y="166" transform="translate(241.0002,217)" style="opacity:.3;fill:#bebebe"/><rect id="rect10750-6" width="4" height="4" x="165" y="379" style="opacity:.3;fill:#bebebe"/><rect id="rect10752-4" width="4" height="4" x="173" y="379" style="opacity:.3;fill:#bebebe"/><rect id="rect10754-6" width="4" height="4" x="169" y="383" style="opacity:.3;fill:#bebebe"/><rect id="rect10756-4" width="4" height="4" x="173" y="387" style="opacity:.3;fill:#bebebe"/><rect id="rect10758-2" width="4" height="4" x="165" y="387" style="opacity:.3;fill:#bebebe"/><rect id="rect10760-5" width="4" height="4" x="169" y="391" style="opacity:.3;fill:#bebebe"/><rect id="rect10762-9" width="4" height="4" x="161" y="391" style="opacity:.3;fill:#bebebe"/></g><rect style="fill:none;fill-rule:evenodd;stroke:#000;stroke-width:.6664046;stroke-linecap:round;stroke-linejoin:round;stroke-miterlimit:4;stroke-dasharray:none;stroke-opacity:1" id="rect24" width="15.334" height="15.334" x=".333" y="1036.695"/></g></g></svg>