<svg xmlns="http://www.w3.org/2000/svg" xmlns:svg="http://www.w3.org/2000/svg" xmlns:xlink="http://www.w3.org/1999/xlink" id="svg2" width="24" height="24" version="1.1" viewBox="0 0 24 24"><defs id="defs4"><linearGradient id="linearGradient4121"><stop id="stop4123" offset="0" style="stop-color:#3465a4;stop-opacity:1"/><stop id="stop4125" offset="1" style="stop-color:#fff;stop-opacity:1"/></linearGradient><linearGradient id="linearGradient4026"><stop style="stop-color:#888a85;stop-opacity:1" id="stop4028" offset="0"/><stop style="stop-color:#f2f2f2;stop-opacity:1" id="stop4030" offset="1"/></linearGradient><linearGradient id="linearGradient4016"><stop style="stop-color:#eeeeec;stop-opacity:1" id="stop4018" offset="0"/><stop style="stop-color:#eeeeec;stop-opacity:1" id="stop4020" offset="1"/></linearGradient><linearGradient id="linearGradient3971"><stop style="stop-color:#c00;stop-opacity:1" id="stop3973" offset="0"/><stop style="stop-color:#fffcfc;stop-opacity:1" id="stop3975" offset="1"/></linearGradient><linearGradient id="linearGradient4087" x1="4.785" x2="15.973" y1="1039.255" y2="1051.917" gradientUnits="userSpaceOnUse" xlink:href="#linearGradient4026"/><linearGradient id="linearGradient4111" x1="4.785" x2="15.973" y1="1039.255" y2="1051.917" gradientUnits="userSpaceOnUse" xlink:href="#linearGradient4026"/><linearGradient id="linearGradient4119" x1="7.689" x2="7.689" y1="1038.814" y2="1052.522" gradientTransform="matrix(-1.0835957,0,4.1532145e-8,1.0362997,22.714477,-38.456346)" gradientUnits="userSpaceOnUse" xlink:href="#linearGradient4121"/><linearGradient id="linearGradient3782" x1="7.689" x2="7.689" y1="1038.814" y2="1052.522" gradientTransform="matrix(-1.0835957,0,4.1532145e-8,1.0362997,22.714477,-38.456346)" gradientUnits="userSpaceOnUse" xlink:href="#linearGradient4121"/></defs><metadata id="metadata7"/><g id="layer1" transform="translate(0,-1028.3622)"><g id="g4257"><path id="path3997" d="m 2.0118704,1032.5248 c 0.6439322,0.5517 1.6098065,0.472 2.1568474,-0.1767 0.5473067,-0.6496 0.4679573,-1.6239 -0.1758943,-2.1755 -0.6441157,-0.5518 -1.6099168,-0.4721 -2.1568752,0.1766 -0.5472551,0.6494 -0.4680953,1.6238 0.1759221,2.1756 z" style="fill:#f57900;fill-opacity:1;stroke:#542900;stroke-width:.94818139;stroke-opacity:1"/><path id="path3989" d="m 8.22036,1033.4143 c 0.8612056,0.708 2.136559,0.587 2.84835,-0.2698 0.712386,-0.857 0.590509,-2.1264 -0.270403,-2.8343 -0.8613023,-0.7083 -2.1366556,-0.5872 -2.848551,0.2699 -0.7122084,0.8566 -0.5904188,2.126 0.270604,2.8342 z" style="fill:#f57900;fill-opacity:1;stroke:#542900;stroke-width:.97865653;stroke-opacity:1"/><path style="fill:#396db1;fill-opacity:1;stroke:#122439;stroke-width:1.1094017;stroke-opacity:1" id="path4045" d="m 19.416444,1038.7308 3.028796,-3.0291 5.7e-5,15.1058 H 7.339161 l 3.029048,-3.0292 c 0,0 -6.0580655,-5.2712 -1.0226411,-10.3068 4.9230351,-4.7461 10.0705341,1.259 10.0705341,1.259 z"/><path id="path4109" d="m 17.335239,1038.4778 c 1.09426,0.7987 2.100483,1.907 2.100483,1.907 l 1.873297,-1.9171 -0.0028,11.3403 -11.3291624,-0.011 1.8826754,-1.9116 c -2.0580437,-1.9231 -3.6448286,-4.1167 -3.4215123,-6.4247 0.1124911,-1.1593 0.8556925,-2.2689 2.0445863,-3.4313 1.779698,-1.74 4.070603,-1.791 6.851637,0.4449 z" style="opacity:.42358081;fill:none;stroke:#fff;stroke-width:1.10730255;stroke-linecap:square;stroke-miterlimit:4;stroke-opacity:1"/><path style="fill:#f57900;fill-opacity:1;stroke:#542900;stroke-width:.97873795;stroke-opacity:1" id="path3771" d="m 2.218039,1039.4129 c 0.8573385,0.7114 2.1271669,0.5898 2.8359367,-0.2709 0.7092531,-0.861 0.5878213,-2.1361 -0.2693158,-2.8474 -0.8574126,-0.7115 -2.1273129,-0.5898 -2.8360127,0.271 -0.7090752,0.8608 -0.5879632,2.1359 0.2693918,2.8473 z"/><rect id="rect4162" width="22.658" height="22.658" x=".671" y="1029.033" style="opacity:0;fill:#555753;fill-opacity:1;stroke:#555753;stroke-width:1.34184134;stroke-linejoin:miter;stroke-miterlimit:4;stroke-dasharray:none;stroke-opacity:1"/></g></g></svg>