<svg xmlns="http://www.w3.org/2000/svg" xmlns:osb="http://www.openswatchbook.org/uri/2009/osb" xmlns:svg="http://www.w3.org/2000/svg" xmlns:xlink="http://www.w3.org/1999/xlink" id="svg2" width="24" height="24" version="1.1" viewBox="0 0 24 24"><metadata id="metadata90"/><defs id="defs7386"><linearGradient id="linearGradient19282" gradientTransform="matrix(0,-735328.32,170712.69,0,2464326300,577972450)" osb:paint="solid"><stop id="stop19284" stop-color="#b4b4b4"/></linearGradient><linearGradient id="linearGradient6057" x1="231.55" x2="320.7" gradientTransform="matrix(0.01502614,0,0,0.01468232,2.9686133,1037.3257)" gradientUnits="userSpaceOnUse" osb:paint="gradient"><stop id="stop6053" stop-color="#a11f7c"/><stop id="stop6055" offset="1" stop-color="#541f31" stop-opacity=".984"/></linearGradient><linearGradient id="linearGradient5137"><stop id="stop5139-6" stop-color="#eeeeec"/><stop id="stop5141" offset="1" stop-color="#e6e6e3"/></linearGradient><linearGradient id="linearGradient2160" x1="17.248" x2="39.904" y1="6.376" y2="38.876" gradientTransform="matrix(0.50990053,0,0,0.57727428,1153.4888,137.93966)" gradientUnits="userSpaceOnUse" xlink:href="#linearGradient5137"/><linearGradient id="linearGradient5487" osb:paint="solid"><stop id="stop5485" offset="0" style="stop-color:#888a85;stop-opacity:1"/></linearGradient></defs><g id="g4201"><path id="path2096" d="m 6.8599028,18.781771 c 0,0 0.6497177,2.721098 -2.058981,2.746643 -1.2975791,0.01203 -1.0317935,2.225113 -1.0317935,2.225113 L 20.238752,23.73622 c 0,0 0.223414,-2.148029 -1.079706,-2.173212 -2.662922,-0.0508 -2.034529,-2.815842 -2.034529,-2.815842 l -10.2646142,0.0346 z" style="color:#000;fill:#eeeeec;fill-opacity:1;fill-rule:evenodd;stroke:#888a85;stroke-width:.49247059;stroke-miterlimit:4;stroke-dasharray:none"/><path id="path2098" d="m 2.0200813,0.25056145 19.8967317,0 c 1.056766,0 1.826913,0.82414815 1.826913,2.09327775 l 0.0057,15.1268018 c 0,0.976786 -0.275707,1.278795 -1.061743,1.278795 L 1.3121874,18.738505 C 0.69680947,18.721883 0.25882575,18.452949 0.25056338,17.572813 l 0.00792,-15.337354 c 0,-1.023984 0.80330742,-1.98489755 1.76159822,-1.98489755 z" style="fill:url(#linearGradient2160);fill-rule:evenodd;stroke:#888a85;stroke-width:.50112551;stroke-miterlimit:4;stroke-dasharray:none"/><rect id="rect4355" width="6.44" height="13.44" x="2.28" y="2.28" style="color:#000;fill:#c00;fill-rule:evenodd;stroke:#a40000;stroke-width:.55978137;stroke-dashoffset:.80000001"/><path id="path2102" d="m 1.9990787,0.7672177 c -0.6529499,0 -1.26959428,0.7354616 -1.26959428,1.4633271 l 0,15.1809022 c 0.003193,0.344922 0.0722061,0.453096 0.1414052,0.518633 0.0691991,0.06553 0.21173438,0.122697 0.45575178,0.129379 l 20.8231786,0.01784 c 0.32896,0 0.431365,-0.0608 0.473046,-0.110413 0.04167,-0.04963 0.112926,-0.225791 0.112926,-0.656936 l 0,-14.9723346 c 0,-1.0344368 -0.523044,-1.5703997 -1.334703,-1.5703997 l -19.4020058,0 z" xlink:href="##rect5040" style="fill:none;fill-rule:evenodd;stroke:#fff;stroke-width:.54601657;stroke-miterlimit:4;stroke-dasharray:none"/><rect id="rect5232-4" width="6.44" height="13.44" x="8.78" y="2.28" style="color:#000;fill:#73d216;fill-rule:evenodd;stroke:#4e9a06;stroke-width:.55978137;stroke-dashoffset:.80000001"/><rect id="rect5234" width="6.44" height="13.44" x="15.28" y="2.28" style="color:#000;fill:#3465a4;fill-rule:evenodd;stroke:#204a87;stroke-width:.55978137;stroke-dashoffset:.80000001"/></g></svg>