<svg xmlns="http://www.w3.org/2000/svg" xmlns:svg="http://www.w3.org/2000/svg" xmlns:xlink="http://www.w3.org/1999/xlink" id="svg13072" width="24" height="24" version="1.1" viewBox="0 0 24 24"><defs id="defs13074"><linearGradient id="linearGradient12211" x1="18.113" x2="15.515" y1="31.368" y2="6.18" gradientUnits="userSpaceOnUse" xlink:href="#linearGradient3096"/><linearGradient id="linearGradient3096"><stop id="stop3098" stop-color="#424242"/><stop id="stop3100" offset="1" stop-color="#777"/></linearGradient><linearGradient id="linearGradient12213" x1="22.176" x2="22.065" y1="36.988" y2="32.05" gradientUnits="userSpaceOnUse" xlink:href="#linearGradient9766"/><linearGradient id="linearGradient9766"><stop id="stop9768" stop-color="#6194cb"/><stop id="stop9770" offset="1" stop-color="#729fcf"/></linearGradient><linearGradient id="linearGradient12215" x1="13.036" x2="12.854" y1="32.567" y2="46.689" gradientTransform="matrix(1.317489,0,0,0.816256,-0.879573,-1.318166)" gradientUnits="userSpaceOnUse" xlink:href="#linearGradient8340"/><linearGradient id="linearGradient8340"><stop id="stop8342" stop-color="#fff" stop-opacity=".796"/><stop id="stop8344" offset="1" stop-color="#fff" stop-opacity=".216"/></linearGradient><linearGradient id="linearGradient13714" x1="18.113" x2="15.515" y1="31.368" y2="6.18" gradientUnits="userSpaceOnUse" xlink:href="#linearGradient3096"/><linearGradient id="linearGradient13716" x1="22.176" x2="22.065" y1="36.988" y2="32.05" gradientUnits="userSpaceOnUse" xlink:href="#linearGradient9766"/><linearGradient id="linearGradient13718" x1="13.036" x2="12.854" y1="32.567" y2="46.689" gradientTransform="matrix(1.317489,0,0,0.816256,-0.879573,-1.318166)" gradientUnits="userSpaceOnUse" xlink:href="#linearGradient8340"/><linearGradient id="linearGradient13720" x1="18.113" x2="15.515" y1="31.368" y2="6.18" gradientUnits="userSpaceOnUse" xlink:href="#linearGradient3096"/><linearGradient id="linearGradient13722" x1="22.176" x2="22.065" y1="36.988" y2="32.05" gradientUnits="userSpaceOnUse" xlink:href="#linearGradient9766"/><linearGradient id="linearGradient13724" x1="13.036" x2="12.854" y1="32.567" y2="46.689" gradientTransform="matrix(1.317489,0,0,0.816256,-0.879573,-1.318166)" gradientUnits="userSpaceOnUse" xlink:href="#linearGradient8340"/></defs><metadata id="metadata13077"/><g id="layer1" transform="translate(0,-1028.3622)"><g style="display:inline" id="gimp-prefs-folders-24" transform="translate(-752.00006,914.36226)"><rect id="rect12155" width="24" height="24" x="752" y="114" style="opacity:1;fill:none;fill-opacity:1;fill-rule:evenodd;stroke:none;stroke-width:4;stroke-miterlimit:4;stroke-dasharray:none;stroke-opacity:1"/><g style="display:inline" id="folder-6-1-2-5" transform="matrix(0.68749929,0,0,0.68749929,1212.9321,-90.187297)"><g id="folder-1-9-7-3-4" transform="matrix(0.39058603,0,0,0.40095619,-654.09529,298.31707)" style="display:inline"><path id="path216-5-6-1-9-1-7" d="m 4.5217805,38.687417 c 0.021796,0.416304 0.4599049,0.832609 0.8762095,0.832609 l 31.327021,0 c 0.416302,0 0.810812,-0.416305 0.789016,-0.832609 L 36.577584,11.460682 c -0.0218,-0.416303 -0.459897,-0.832616 -0.876201,-0.832616 l -13.270873,0 c -0.485057,0 -1.234473,-0.315589 -1.401644,-1.1066322 L 20.417475,6.6283628 C 20.262006,5.8926895 19.535261,5.5904766 19.118957,5.5904766 l -14.7788595,0 c -0.4163128,0 -0.8108208,0.4163041 -0.7890249,0.8326083 z" style="fill:#fff;fill-opacity:1;fill-rule:nonzero;stroke:url(#linearGradient13714);stroke-width:1.45454693;stroke-linecap:round;stroke-linejoin:round;stroke-miterlimit:4;stroke-dasharray:none;stroke-opacity:1"/><path style="color:#000;display:block;visibility:visible;fill:url(#linearGradient13716);fill-opacity:1;fill-rule:nonzero;stroke:#3465a4;stroke-width:1.45454693;stroke-linecap:butt;stroke-linejoin:round;stroke-miterlimit:4;stroke-dasharray:none;stroke-dashoffset:0;stroke-opacity:1;marker:none;marker-start:none;marker-mid:none;marker-end:none" id="path233-5-05-2-2-9-6" d="m 39.783532,39.51062 c 1.143894,-0.04406 1.963076,-1.096299 2.047035,-2.321005 0.791787,-11.548687 1.65936,-21.231949 1.65936,-21.231949 0.07215,-0.247484 -0.167911,-0.494967 -0.48014,-0.494967 l -34.3711566,0 c 0,0 -1.8503191,21.866892 -1.8503191,21.866892 -0.1145551,0.982066 -0.4660075,1.804718 -1.5498358,2.183713 l 34.5450565,-0.0027 z"/><path id="path304-3-72-7-0-4-5" d="m 9.6202444,16.463921 32.7910986,0.06481 -1.574046,20.001979 c -0.08432,1.071511 -0.450678,1.428215 -1.872656,1.428215 -1.871502,0 -28.677968,-0.03241 -31.394742,-0.03241 0.2335983,-0.320811 0.3337557,-0.988623 0.3350963,-1.004612 z" style="opacity:.46590911;fill:none;fill-opacity:1;fill-rule:evenodd;stroke:url(#linearGradient13718);stroke-width:1.45454657px;stroke-linecap:round;stroke-linejoin:miter;stroke-opacity:1"/></g></g><g id="gimp-prefs-folders-6" transform="translate(27.881654,1.1320498e-5)" style="display:inline"><rect style="opacity:1;fill:none;fill-opacity:1;fill-rule:evenodd;stroke:none;stroke-width:4;stroke-miterlimit:4;stroke-dasharray:none;stroke-opacity:1" id="rect11940-1" width="16" height="16" x="726" y="120"/><g style="display:inline" id="folder-6-1-2" transform="matrix(0.68749929,0,0,0.68749929,1177.9321,-84.187286)"><rect id="rect11969-2-8-9" width="16" height="16" x="-650" y="297" style="opacity:1;fill:none;fill-opacity:1;fill-rule:evenodd;stroke:none;stroke-width:4;stroke-miterlimit:4;stroke-dasharray:none;stroke-opacity:1"/><g id="folder-1-9-7-3" transform="matrix(0.39058603,0,0,0.40095619,-651.18613,295.95889)" style="display:inline"><path id="path216-5-6-1-9-1" d="m 4.5217805,38.687417 c 0.021796,0.416304 0.4599049,0.832609 0.8762095,0.832609 l 31.327021,0 c 0.416302,0 0.810812,-0.416305 0.789016,-0.832609 L 36.577584,11.460682 c -0.0218,-0.416303 -0.459897,-0.832616 -0.876201,-0.832616 l -13.270873,0 c -0.485057,0 -1.234473,-0.315589 -1.401644,-1.1066322 L 20.417475,6.6283628 C 20.262006,5.8926895 19.535261,5.5904766 19.118957,5.5904766 l -14.7788595,0 c -0.4163128,0 -0.8108208,0.4163041 -0.7890249,0.8326083 z" style="fill:#fff;fill-opacity:1;fill-rule:nonzero;stroke:url(#linearGradient13720);stroke-width:1.45454693;stroke-linecap:round;stroke-linejoin:round;stroke-miterlimit:4;stroke-dasharray:none;stroke-opacity:1"/><path style="color:#000;display:block;visibility:visible;fill:url(#linearGradient13722);fill-opacity:1;fill-rule:nonzero;stroke:#3465a4;stroke-width:1.45454693;stroke-linecap:butt;stroke-linejoin:round;stroke-miterlimit:4;stroke-dasharray:none;stroke-dashoffset:0;stroke-opacity:1;marker:none;marker-start:none;marker-mid:none;marker-end:none" id="path233-5-05-2-2-9" d="m 39.783532,39.51062 c 1.143894,-0.04406 1.963076,-1.096299 2.047035,-2.321005 0.791787,-11.548687 1.65936,-21.231949 1.65936,-21.231949 0.07215,-0.247484 -0.167911,-0.494967 -0.48014,-0.494967 l -34.3711566,0 c 0,0 -1.8503191,21.866892 -1.8503191,21.866892 -0.1145551,0.982066 -0.4660075,1.804718 -1.5498358,2.183713 l 34.5450565,-0.0027 z"/><path id="path304-3-72-7-0-4" d="m 9.6202444,16.463921 32.7910986,0.06481 -1.574046,20.001979 c -0.08432,1.071511 -0.450678,1.428215 -1.872656,1.428215 -1.871502,0 -28.677968,-0.03241 -31.394742,-0.03241 0.2335983,-0.320811 0.3337557,-0.988623 0.3350963,-1.004612 z" style="opacity:.46590911;fill:none;fill-opacity:1;fill-rule:evenodd;stroke:url(#linearGradient13724);stroke-width:1.45454657px;stroke-linecap:round;stroke-linejoin:miter;stroke-opacity:1"/></g></g><g style="display:inline" id="folder-6-7" transform="matrix(0.68749929,0,0,0.68749929,1172.8138,-79.187297)"><rect id="rect11969-2-84" width="16" height="16" x="-650" y="297" style="opacity:1;fill:none;fill-opacity:1;fill-rule:evenodd;stroke:none;stroke-width:4;stroke-miterlimit:4;stroke-dasharray:none;stroke-opacity:1"/><g id="folder-1-9-5" transform="matrix(0.39058603,0,0,0.40095619,-651.18613,295.95889)" style="display:inline"><path id="path216-5-6-1-0" d="m 4.5217805,38.687417 c 0.021796,0.416304 0.4599049,0.832609 0.8762095,0.832609 l 31.327021,0 c 0.416302,0 0.810812,-0.416305 0.789016,-0.832609 L 36.577584,11.460682 c -0.0218,-0.416303 -0.459897,-0.832616 -0.876201,-0.832616 l -13.270873,0 c -0.485057,0 -1.234473,-0.315589 -1.401644,-1.1066322 L 20.417475,6.6283628 C 20.262006,5.8926895 19.535261,5.5904766 19.118957,5.5904766 l -14.7788595,0 c -0.4163128,0 -0.8108208,0.4163041 -0.7890249,0.8326083 z" style="fill:#fff;fill-opacity:1;fill-rule:nonzero;stroke:url(#linearGradient12211);stroke-width:1.45454693;stroke-linecap:round;stroke-linejoin:round;stroke-miterlimit:4;stroke-dasharray:none;stroke-opacity:1"/><path style="color:#000;display:block;visibility:visible;fill:url(#linearGradient12213);fill-opacity:1;fill-rule:nonzero;stroke:#3465a4;stroke-width:1.45454693;stroke-linecap:butt;stroke-linejoin:round;stroke-miterlimit:4;stroke-dasharray:none;stroke-dashoffset:0;stroke-opacity:1;marker:none;marker-start:none;marker-mid:none;marker-end:none" id="path233-5-05-2-3" d="m 39.783532,39.51062 c 1.143894,-0.04406 1.963076,-1.096299 2.047035,-2.321005 0.791787,-11.548687 1.65936,-21.231949 1.65936,-21.231949 0.07215,-0.247484 -0.167911,-0.494967 -0.48014,-0.494967 l -34.3711566,0 c 0,0 -1.8503191,21.866892 -1.8503191,21.866892 -0.1145551,0.982066 -0.4660075,1.804718 -1.5498358,2.183713 l 34.5450565,-0.0027 z"/><path id="path304-3-72-7-6" d="m 9.6202444,16.463921 32.7910986,0.06481 -1.574046,20.001979 c -0.08432,1.071511 -0.450678,1.428215 -1.872656,1.428215 -1.871502,0 -28.677968,-0.03241 -31.394742,-0.03241 0.2335983,-0.320811 0.3337557,-0.988623 0.3350963,-1.004612 z" style="opacity:.46590911;fill:none;fill-opacity:1;fill-rule:evenodd;stroke:url(#linearGradient12215);stroke-width:1.45454657px;stroke-linecap:round;stroke-linejoin:miter;stroke-opacity:1"/></g></g></g></g></g></svg>