<svg xmlns="http://www.w3.org/2000/svg" xmlns:osb="http://www.openswatchbook.org/uri/2009/osb" xmlns:svg="http://www.w3.org/2000/svg" id="svg30571" width="24" height="24" version="1.1" viewBox="0 0 24 24"><defs id="defs30573"><linearGradient id="linearGradient6057" x1="231.55" x2="320.7" gradientTransform="matrix(0.01502614,0,0,0.01468232,2.9686133,1037.3257)" gradientUnits="userSpaceOnUse" osb:paint="gradient"><stop id="stop6053" stop-color="#a11f7c"/><stop id="stop6055" offset="1" stop-color="#541f31" stop-opacity=".984"/></linearGradient></defs><metadata id="metadata30576"/><g id="layer1" transform="translate(0,-1028.3622)"><g id="g4293"><rect id="rect1316" width="23.457" height="23.457" x=".271" y="1028.634" rx="1.597" ry="1.711" style="opacity:1;fill:#c3c6c0;fill-opacity:1;fill-rule:evenodd;stroke:#676964;stroke-width:.5429402;stroke-linecap:round;stroke-linejoin:round;stroke-miterlimit:4;stroke-dasharray:none;stroke-dashoffset:0;stroke-opacity:1"/><rect id="rect1314" width="21.395" height="18.395" x="1.302" y="1029.665" rx=".577" ry=".622" style="opacity:1;fill:#3465a4;fill-opacity:1;fill-rule:evenodd;stroke:#173562;stroke-width:.6046617;stroke-linecap:round;stroke-linejoin:round;stroke-miterlimit:4;stroke-dasharray:none;stroke-dashoffset:0;stroke-opacity:1"/><rect id="rect2232" width="22.48" height="22.301" x=".761" y="1029.193" rx="1.444" ry="1.548" style="opacity:1;fill:none;fill-opacity:1;fill-rule:evenodd;stroke:#fff;stroke-width:.5429402;stroke-linecap:round;stroke-linejoin:round;stroke-miterlimit:4;stroke-dasharray:none;stroke-dashoffset:0;stroke-opacity:0"/><path style="color:#000;font-style:normal;font-variant:normal;font-weight:400;font-stretch:normal;font-size:medium;line-height:normal;font-family:Sans;-inkscape-font-specification:Sans;text-indent:0;text-align:start;text-decoration:none;text-decoration-line:none;letter-spacing:normal;word-spacing:normal;text-transform:none;writing-mode:lr-tb;direction:ltr;baseline-shift:baseline;text-anchor:start;display:inline;overflow:visible;visibility:visible;fill:#fcaf3e;fill-opacity:1;stroke:#ce5c00;stroke-width:.61144352;stroke-miterlimit:4;stroke-dasharray:none;stroke-opacity:1;marker:none;enable-background:accumulate" id="path8334" d="m 11.532885,1031.6693 a 1.254467,1.1923404 0 0 0 -0.276837,0.027 1.254467,1.1923404 0 0 0 -0.627171,2.0491 l 4.110909,3.9073 H 4.3057218 v 2.3844 H 14.749586 l -4.120709,3.917 a 1.2749955,1.2118521 0 1 0 1.803116,1.7136 l 6.27171,-5.9611 0.862361,-0.8567 -0.862361,-0.8569 -6.27171,-5.9611 a 1.254467,1.1923404 0 0 0 -0.899108,-0.3634 z"/></g></g></svg>