<svg xmlns="http://www.w3.org/2000/svg" xmlns:svg="http://www.w3.org/2000/svg" xmlns:xlink="http://www.w3.org/1999/xlink" id="svg2" width="24" height="24" version="1.1" viewBox="0 0 24 24"><metadata id="metadata90"/><defs id="defs7386"><linearGradient id="linearGradient5148"><stop id="stop5150" stop-color="#d0d0d0"/><stop id="stop5152" offset="1" stop-color="#ececec"/></linearGradient><linearGradient id="linearGradient7321" x1="83.032" x2="66.311" y1="40.924" y2="22.766" gradientTransform="matrix(0.52629714,0,0,0.63986955,880.48963,662.83072)" gradientUnits="userSpaceOnUse" xlink:href="#linearGradient5148"/><linearGradient id="linearGradient4295" x1="6" x2="12" y1="3" y2="5" gradientTransform="matrix(1.4444444,0,0,1.5000002,-1.4444444,-2e-6)" gradientUnits="userSpaceOnUse" xlink:href="#linearGradient4293"/><linearGradient id="linearGradient4293"><stop style="stop-color:#000;stop-opacity:1" id="stop4289" offset="0"/><stop style="stop-color:#000;stop-opacity:0" id="stop4291" offset="1"/></linearGradient></defs><g id="g4257"><g id="g4247"><g id="g4241" transform="matrix(0.99913866,0,0,1.0015806,0.01032671,-0.01977231)"><rect id="rect4273-3" width="18.253" height="14.767" x="7.06" y="5.799" transform="matrix(1,0,-0.31760047,0.94822463,0,0)" style="color:#000;display:inline;overflow:visible;visibility:visible;opacity:1;fill:url(#linearGradient7321);fill-opacity:1;fill-rule:evenodd;stroke:#888a85;stroke-width:1.02704239;stroke-linecap:round;stroke-linejoin:round;stroke-miterlimit:10;stroke-dasharray:none;stroke-dashoffset:0;stroke-opacity:1;marker:none;marker-start:none;marker-mid:none;marker-end:none"/><rect style="color:#000;display:inline;overflow:visible;visibility:visible;opacity:1;fill:none;fill-opacity:1;fill-rule:evenodd;stroke:#fff;stroke-width:1.59963834;stroke-linecap:butt;stroke-linejoin:miter;stroke-miterlimit:10;stroke-dasharray:none;stroke-dashoffset:0;stroke-opacity:1;marker:none;marker-start:none;marker-mid:none;marker-end:none" id="rect5156-3" width="14.082" height="8.932" x="9.44" y="8.179" ry="0" transform="matrix(1,0,-0.31476759,0.94916878,0,0)"/></g><rect style="color:#000;clip-rule:nonzero;display:inline;overflow:visible;visibility:visible;opacity:0;isolation:auto;mix-blend-mode:normal;color-interpolation:sRGB;color-interpolation-filters:linearRGB;solid-color:#000;solid-opacity:1;fill:none;fill-opacity:1;fill-rule:nonzero;stroke:#000;stroke-width:.62325603;stroke-linecap:round;stroke-linejoin:miter;stroke-miterlimit:4;stroke-dasharray:none;stroke-dashoffset:0;stroke-opacity:1;color-rendering:auto;image-rendering:auto;shape-rendering:auto;text-rendering:auto;enable-background:accumulate" id="rect4002" width="23.377" height="23.377" x=".312" y=".312"/></g><path id="text1950-9" d="M 13,-2e-6 V 4.0597329 H 12.620442 C 12.395507,3.1231667 12.145982,2.4520761 11.87187,2.0464585 11.59773,1.6334927 11.221689,1.3053217 10.743737,1.061945 10.476631,0.929216 10.240783,0.8628443 9.573053,0.8628302 H 8.5081837 V 12.433628 c -1.06e-5,0.766962 0.038644,1.246313 0.1159744,1.438052 0.084327,0.191742 0.2424865,0.361358 0.4744479,0.508851 0.2389698,0.140115 0.5622973,0.210177 0.969981,0.210176 h 0.474446 V 15 H 2.2583258 v -0.409293 h 0.4744481 c 0.4146975,10e-7 0.748567,-0.07745 1.0016114,-0.232301 0.1827445,-0.103245 0.3268366,-0.280234 0.4322724,-0.530973 0.077315,-0.176989 0.1159744,-0.641592 0.1159744,-1.393805 V 0.8628302 H 3.1702436 C 2.2072886,0.8628443 1.9961856,1.0767083 1.5604011,1.5044232 0.94888921,2.1017813 0.56230182,2.9535503 0.40064039,4.0597329 H 0 V -2e-6 h 13" style="color:#000;font-style:normal;font-variant:normal;font-weight:700;font-stretch:normal;font-size:36.17139816px;line-height:100%;font-family:'Times New Roman';text-indent:0;text-align:start;text-decoration:none;text-decoration-line:none;letter-spacing:normal;word-spacing:normal;text-transform:none;writing-mode:lr-tb;direction:ltr;text-anchor:start;display:inline;overflow:visible;visibility:visible;opacity:1;fill:url(#linearGradient4295);fill-opacity:1;fill-rule:evenodd;stroke:none;stroke-width:1.45782888;stroke-linecap:butt;stroke-linejoin:miter;stroke-miterlimit:4;stroke-dashoffset:0;stroke-opacity:1;marker:none;marker-start:none;marker-mid:none;marker-end:none"/></g></svg>