<svg xmlns="http://www.w3.org/2000/svg" xmlns:svg="http://www.w3.org/2000/svg" xmlns:xlink="http://www.w3.org/1999/xlink" id="svg30571" width="24" height="24" version="1.1" viewBox="0 0 24 24"><defs id="defs30573"><linearGradient id="linearGradient4989-64"><stop id="stop4991-7" offset="0" style="stop-color:#d3e9ff;stop-opacity:1"/><stop id="stop4993-6" offset=".208" style="stop-color:#d3e9ff;stop-opacity:1"/><stop id="stop4995-9" offset=".817" style="stop-color:#4074ae;stop-opacity:1"/><stop id="stop4997-4" offset="1" style="stop-color:#36486c;stop-opacity:1"/></linearGradient><linearGradient id="linearGradient4069" x1="-108.086" x2="-84.291" y1="201.872" y2="178.385" gradientUnits="userSpaceOnUse" xlink:href="#linearGradient8471"/><linearGradient id="linearGradient8471"><stop style="stop-color:#5382b9;stop-opacity:1" id="stop8473" offset="0"/><stop style="stop-color:#3565a5;stop-opacity:1" id="stop8475" offset="1"/></linearGradient><linearGradient id="linearGradient4061" x1="-109.975" x2="-87.572" y1="193.082" y2="193.082" gradientUnits="userSpaceOnUse" xlink:href="#linearGradient4055"/><linearGradient id="linearGradient4055"><stop style="stop-color:#fff;stop-opacity:1" id="stop4057" offset="0"/><stop style="stop-color:#fff;stop-opacity:0" id="stop4059" offset="1"/></linearGradient></defs><metadata id="metadata30576"/><g id="layer1" transform="translate(0,-1028.3622)"><g id="g4071" transform="matrix(1.5000464,0,0,1.5000464,-6.2813389e-7,1028.3615)"><g id="ink_draw_tweak" transform="matrix(0.71412852,0,0,0.70403975,78.537119,-127.63407)" style="display:inline"><path id="rect4412" d="m -109.5169,193.9456 c 8.2165,1.6913 5.1224,-7.85 10.71653,-11.5841 1.72915,-1.1542 6.23552,-0.8058 7.60383,2.2962 1.01863,2.3092 0.57299,3.7792 -0.88086,3.3379 -1.52946,-0.4643 -1.24291,-2.3104 -3.81779,-1.813 -1.3025,0.2516 -2.0822,2.3434 -1.10913,4.6913 1.09776,2.6488 3.352,4.4227 8.9464,3.0717 v 9.5976 h -21.45898 z" style="display:inline;overflow:visible;visibility:visible;opacity:1;fill:url(#linearGradient4069);fill-opacity:1;fill-rule:nonzero;stroke:#000;stroke-width:.91853738;stroke-linecap:butt;stroke-linejoin:miter;stroke-miterlimit:4;stroke-dasharray:none;stroke-dashoffset:0;stroke-opacity:1;marker:none;marker-start:none;marker-mid:none;marker-end:none;enable-background:accumulate"/><path id="path4416" d="m -96.8577,182.6385 c -2.71067,0.552 -4.0177,3.4163 -4.8478,5.9037 -0.7258,2.2595 -1.4135,5.0237 -3.7438,6.0105 -1.0107,0.3882 -2.9612,0.5448 -4.0361,0.3826 l -0.0291,8.5583 21.4833,0.06 v -8.5582 c -2.78224,0.4279 -5.92299,0.3649 -8.21536,-1.4697 -2.01583,-1.6882 -2.67843,-5.0914 -1.22227,-7.3482 1.45069,-1.684 4.46573,-0.982 5.41291,0.8999 0.78385,0.398 0.53026,-0.7543 0.39943,-1.2072 -0.63017,-2.1587 -3.02208,-3.4761 -5.20121,-3.2317 z" style="display:inline;overflow:visible;visibility:visible;opacity:1;fill:none;fill-opacity:1;fill-rule:nonzero;stroke:url(#linearGradient4061);stroke-width:.91853738;stroke-linecap:butt;stroke-linejoin:miter;stroke-miterlimit:4;stroke-dasharray:none;stroke-dashoffset:0;stroke-opacity:1;marker:none;marker-start:none;marker-mid:none;marker-end:none;enable-background:accumulate"/></g></g></g></svg>