<svg xmlns="http://www.w3.org/2000/svg" xmlns:svg="http://www.w3.org/2000/svg" id="svg2" width="24" height="24" version="1.1" viewBox="0 0 24 24"><metadata id="metadata90"/><g id="g4292"><rect id="rect4276" width="24" height="24" x="0" y="0" style="opacity:1;fill:none;fill-opacity:1;stroke:none;stroke-width:1.29777133;stroke-linecap:square;stroke-linejoin:round;stroke-miterlimit:4;stroke-dasharray:none;stroke-opacity:1;paint-order:stroke fill markers"/><g id="preferences" transform="matrix(1.4997691,0,0,1.5080325,-523.81334,97.937128)" style="display:inline"><g id="gimp-prefs-default-comment" transform="matrix(0.18716422,0,0,0.17557411,341.45688,-65.660281)" style="enable-background:new"><path id="path9501-4-0" d="m 52.91884,17.289866 c -5.167003,0 -9.32378,4.156778 -9.32378,9.323779 v 45.580257 c 0,5.167004 4.156777,9.32378 9.32378,9.32378 h 63.07279 c 5.16701,0 9.32378,-4.156776 9.32378,-9.32378 V 26.613645 c 0,-5.167001 -4.15677,-9.323779 -9.32378,-9.323779 z" style="color:#000;fill:#eeeeec;fill-opacity:1;stroke:#396db1;stroke-width:3.76727104;stroke-miterlimit:4;stroke-dasharray:none"/></g></g><g id="g4111" transform="matrix(1.428342,0,0,1.4416665,0.14952244,-1.9078016)"><g id="g4826" transform="matrix(0.83398328,0,0,1.0518199,0.37910829,-1.4266322)"><path style="color:#000;display:inline;overflow:visible;visibility:visible;opacity:1;fill:#73d216;fill-opacity:1;fill-rule:evenodd;stroke:#4e9a06;stroke-width:.3088493px;stroke-linecap:round;stroke-linejoin:round;stroke-miterlimit:4;stroke-dasharray:none;stroke-dashoffset:0;stroke-opacity:1;marker:none;marker-start:none;marker-mid:none;marker-end:none" id="path4308" d="M 7.6775054,14.989937 H 4.3952646 c -0.9299683,0 -1.8506764,-0.339668 -2.1881602,-1.307782 C 1.8866232,12.762815 2.1524003,11.0121 4.2311526,9.5953356 h 3.883985 c 2.0787524,1.3077814 2.3385304,3.0962914 1.8599362,4.1413094 -0.487572,1.064621 -1.3128961,1.253292 -2.2975684,1.253292 z"/><path id="path4314" d="m 7.6267926,14.686845 -3.2472247,-0.0068 c -0.8168692,0 -1.6256044,-0.298359 -1.9220449,-1.148735 C 2.1760174,12.723776 2.486834,11.185976 4.3127778,9.9415135 L 7.8791342,9.8665774 C 9.705077,11.015312 10.058491,12.58631 9.6312639,13.579163 9.2040361,14.572015 8.5806069,14.680034 7.6267926,14.686845 Z" style="color:#000;display:inline;overflow:visible;visibility:visible;opacity:.21518986;fill:none;fill-opacity:1;fill-rule:evenodd;stroke:#fff;stroke-width:.30884925px;stroke-linecap:round;stroke-linejoin:round;stroke-miterlimit:4;stroke-dasharray:none;stroke-dashoffset:0;stroke-opacity:1;marker:none;marker-start:none;marker-mid:none;marker-end:none"/></g><g id="g4822" transform="matrix(0.88172237,0,0,0.88526497,0.11512501,0.89010591)"><ellipse style="color:#000;display:inline;overflow:visible;visibility:visible;opacity:1;fill:#fcaf3e;fill-opacity:1;fill-rule:evenodd;stroke:#c17d11;stroke-width:.3088493px;stroke-linecap:round;stroke-linejoin:round;stroke-miterlimit:4;stroke-dasharray:none;stroke-dashoffset:0;stroke-opacity:1;marker:none;marker-start:none;marker-mid:none;marker-end:none" id="path4320" cx="-6.091" cy="8.015" rx="2.68" ry="2.67" transform="scale(-1,1)"/><ellipse id="path4322" cx="-6.091" cy="8.015" rx="2.351" ry="2.342" transform="scale(-1,1)" style="color:#000;display:inline;overflow:visible;visibility:visible;opacity:.19620254;fill:none;fill-opacity:1;fill-rule:evenodd;stroke:#fff;stroke-width:.30884957px;stroke-linecap:round;stroke-linejoin:round;stroke-miterlimit:4;stroke-dasharray:none;stroke-dashoffset:0;stroke-opacity:1;marker:none;marker-start:none;marker-mid:none;marker-end:none"/></g></g><rect id="rect4260-6" width="7" height="2" x="15" y="14" style="opacity:1;fill:#000;fill-opacity:1;stroke:none;stroke-width:.83665991;stroke-linecap:square;stroke-linejoin:round;stroke-miterlimit:4;stroke-dasharray:none;stroke-opacity:1;paint-order:stroke fill markers"/><rect id="rect4260-6-3" width="7" height="2" x="15" y="10" style="opacity:1;fill:#000;fill-opacity:1;stroke:none;stroke-width:.83665991;stroke-linecap:square;stroke-linejoin:round;stroke-miterlimit:4;stroke-dasharray:none;stroke-opacity:1;paint-order:stroke fill markers"/><rect id="rect4260-6-6" width="7" height="2" x="15" y="6" style="opacity:1;fill:#000;fill-opacity:1;stroke:none;stroke-width:.83665991;stroke-linecap:square;stroke-linejoin:round;stroke-miterlimit:4;stroke-dasharray:none;stroke-opacity:1;paint-order:stroke fill markers"/></g></svg>