<svg xmlns="http://www.w3.org/2000/svg" xmlns:svg="http://www.w3.org/2000/svg" id="svg30571" width="24" height="24" version="1.1" viewBox="0 0 24 24"><metadata id="metadata30576"/><g id="layer1" transform="translate(0,-1028.3622)"><g id="g4165"><g id="gimp-layer" transform="matrix(1.4999986,0,0,1.4999986,-3.494068,1027.5789)" style="display:inline"><rect style="color:#000;clip-rule:nonzero;display:inline;overflow:visible;visibility:visible;opacity:0;isolation:auto;mix-blend-mode:normal;color-interpolation:sRGB;color-interpolation-filters:linearRGB;solid-color:#000;solid-opacity:1;fill:none;fill-opacity:1;fill-rule:nonzero;stroke:#000;stroke-width:.41550624;stroke-linecap:round;stroke-linejoin:miter;stroke-miterlimit:4;stroke-dasharray:none;stroke-dashoffset:0;stroke-opacity:1;color-rendering:auto;image-rendering:auto;shape-rendering:auto;text-rendering:auto;enable-background:accumulate" id="rect4002" width="15.584" height="15.584" x="2.537" y=".73"/></g><g id="g4149" transform="matrix(0,1,-1,0,1052.3622,1028.3621)"><path style="color:#000;display:inline;overflow:visible;visibility:visible;fill:#fff;fill-opacity:1;fill-rule:evenodd;stroke:#888a85;stroke-width:1.07144415px;stroke-linecap:butt;stroke-linejoin:miter;stroke-miterlimit:4;stroke-dashoffset:0;stroke-opacity:1;marker:none;marker-start:none;marker-mid:none;marker-end:none;enable-background:accumulate" id="rect4899" d="m 3.5486284,1028.898 12.6332956,0 6.282354,5.9953 0,15.0586 c 0,1.0385 -0.897757,1.8744 -2.012907,1.8744 l -16.9027426,0 c -1.1151501,0 -2.0129063,-0.8359 -2.0129063,-1.8744 l 0,-19.1795 c 0,-1.0386 0.8977562,-1.8744 2.0129063,-1.8744 z"/><path style="fill:#fff;fill-opacity:1;fill-rule:evenodd;stroke:#888a85;stroke-width:1.06560671px;stroke-linecap:butt;stroke-linejoin:miter;stroke-opacity:1" id="path6074" d="m 21.999999,1034.8294 -6.424213,0 -0.043,-5.4637"/></g><path id="path22208" d="m 16.834423,1034.3622 -7.8072504,10.5002 -4.508412,-3.6429 L 1,1046.3622 l 15,0 0,-4 5.999987,0 z" style="opacity:1;fill:#555753;stroke-width:1.15779448"/><circle id="path22229" cx="6.5" cy="1035.862" r="2.5" style="opacity:1;fill:#555753;stroke-width:1.01036298"/></g></g></svg>