<svg xmlns="http://www.w3.org/2000/svg" xmlns:svg="http://www.w3.org/2000/svg" xmlns:xlink="http://www.w3.org/1999/xlink" id="svg30571" width="24" height="24" version="1.1" viewBox="0 0 24 24"><defs id="defs30573"><linearGradient id="linearGradient23400" x1="14.997" x2="32.511" y1="11.188" y2="34.307" gradientTransform="matrix(0.42089683,0,0,0.42089683,-0.39000558,29.850051)" gradientUnits="userSpaceOnUse" xlink:href="#aigrd1"/><linearGradient id="aigrd1" x1="14.997" x2="32.511" y1="11.188" y2="34.307" gradientUnits="userSpaceOnUse"><stop style="stop-color:#ebebeb" id="stop3034" offset="0"/><stop style="stop-color:#fff" id="stop3036" offset=".5"/><stop style="stop-color:#ebebeb" id="stop3038" offset="1"/></linearGradient><linearGradient id="linearGradient23397" x1="12.274" x2="35.391" y1="32.416" y2="14.203" gradientTransform="matrix(0.42089684,0,0,0.42089684,-0.39000557,29.85005)" gradientUnits="userSpaceOnUse" xlink:href="#aigrd2"/><linearGradient id="aigrd2" x1="12.274" x2="35.391" y1="32.416" y2="14.203" gradientUnits="userSpaceOnUse"><stop style="stop-color:#fbfbfb" id="stop3043" offset="0"/><stop style="stop-color:#b6b6b6" id="stop3045" offset=".5"/><stop style="stop-color:#e4e4e4" id="stop3047" offset="1"/></linearGradient><linearGradient id="linearGradient23393" x1="21.125" x2="29" y1="14.625" y2="28" gradientTransform="matrix(0.44194175,0,0,0.44194175,-0.89508171,29.813223)" gradientUnits="userSpaceOnUse" xlink:href="#linearGradient4236"/><linearGradient id="linearGradient4236"><stop style="stop-color:#fff;stop-opacity:.32673267" id="stop4238" offset="0"/><stop style="stop-color:#fff;stop-opacity:.60396039" id="stop4240" offset="1"/></linearGradient><linearGradient id="linearGradient23387" x1="10.502" x2="48.799" y1="3.61" y2="54.698" gradientTransform="matrix(0.3535534,0,0,0.3535534,1.1035539,30.733934)" gradientUnits="userSpaceOnUse" xlink:href="#linearGradient4236"/><linearGradient id="linearGradient23353" x1="28.703" x2="17.743" y1="31.495" y2="18.367" gradientTransform="matrix(0.3535534,0,0,0.3535534,1.1348039,30.765184)" gradientUnits="userSpaceOnUse" xlink:href="#linearGradient4236"/><radialGradient id="radialGradient23383" cx="37.751" cy="27.569" r="21.333" fx="37.751" fy="27.569" gradientTransform="matrix(0.30005511,0.33871123,-0.27652083,0.24495381,7.7119866,23.476975)" gradientUnits="userSpaceOnUse" xlink:href="#linearGradient3394"/><linearGradient id="linearGradient3394" x1="12.274" x2="35.391" y1="32.416" y2="14.203" gradientUnits="userSpaceOnUse"><stop id="stop3396" offset="0" style="stop-color:#fff307;stop-opacity:1"/><stop id="stop3398" offset=".5" style="stop-color:#166eff;stop-opacity:1"/><stop id="stop3400" offset="1" style="stop-color:#fff;stop-opacity:0"/></linearGradient><radialGradient id="radialGradient23380" cx="26.138" cy="38.807" r="21.333" fx="26.138" fy="38.807" gradientTransform="matrix(0.27205969,-0.4392901,0.23698684,0.14677451,-6.5963335,45.358893)" gradientUnits="userSpaceOnUse" xlink:href="#linearGradient3406"/><linearGradient id="linearGradient3406" x1="12.274" x2="35.391" y1="32.416" y2="14.203" gradientUnits="userSpaceOnUse"><stop style="stop-color:#b307ff;stop-opacity:.82178217" id="stop3408" offset="0"/><stop style="stop-color:#f0ff8b;stop-opacity:.64356434" id="stop3410" offset="1"/><stop style="stop-color:#fff;stop-opacity:0" id="stop3412" offset="1"/></linearGradient><radialGradient id="radialGradient23377" cx="53.557" cy="48.238" r="21.333" fx="53.557" fy="48.238" gradientTransform="matrix(0.05602054,-0.05621075,0.15305574,0.15253743,0.14059993,36.037613)" gradientUnits="userSpaceOnUse" xlink:href="#linearGradient3421"/><linearGradient id="linearGradient3421" x1="12.274" x2="35.391" y1="32.416" y2="14.203" gradientUnits="userSpaceOnUse"><stop id="stop3423" offset="0" style="stop-color:#fff;stop-opacity:1"/><stop id="stop3427" offset="1" style="stop-color:#b8c04c;stop-opacity:0"/></linearGradient><radialGradient id="radialGradient23374" cx="16.885" cy="33.378" r="21.333" fx="16.885" fy="33.378" gradientTransform="matrix(0.00183292,-0.04343757,0.1925268,0.00812403,1.4419872,40.035061)" gradientUnits="userSpaceOnUse" xlink:href="#linearGradient3435"/><linearGradient id="linearGradient3435" x1="12.274" x2="35.391" y1="32.416" y2="14.203" gradientUnits="userSpaceOnUse"><stop style="stop-color:#ffffc8;stop-opacity:1" id="stop3437" offset="0"/><stop style="stop-color:#9a91ef;stop-opacity:0" id="stop3439" offset="1"/></linearGradient><radialGradient id="radialGradient23371" cx="35.511" cy="21.618" r="21.333" fx="35.511" fy="21.618" gradientTransform="matrix(0.03744696,-0.00676786,0.03704851,0.20499273,7.1623737,33.249522)" gradientUnits="userSpaceOnUse" xlink:href="#linearGradient3435"/><radialGradient id="radialGradient23368" cx="133.841" cy="23.914" r="21.333" fx="133.841" fy="23.914" gradientTransform="matrix(-0.01784815,0.00490678,-0.0454104,-0.16517873,13.623788,44.678688)" gradientUnits="userSpaceOnUse" xlink:href="#linearGradient3435"/><linearGradient id="linearGradient4076" x1="21.125" x2="29" y1="14.625" y2="28" gradientTransform="matrix(0.44194175,0,0,0.44194175,-0.89508171,29.813223)" gradientUnits="userSpaceOnUse" xlink:href="#linearGradient4236"/></defs><metadata id="metadata30576"/><g id="layer1" transform="translate(0,-1028.3622)"><g id="g3993" transform="matrix(1.5909901,0,0,1.5425515,-0.73494247,-570.28026)"><g id="g4014" transform="matrix(1,0,0,1.0314197,-1.7071075,1003.3255)"><path id="path3040" d="m 9.7115205,32.207073 c -4.0827002,0 -7.365696,3.282996 -7.365696,7.365696 0,4.0827 3.2829958,7.365696 7.365696,7.365696 4.0827005,0 7.3656965,-3.282996 7.3656965,-7.365696 0,-4.0827 -3.282996,-7.365696 -7.3656965,-7.365696 z m 0,9.133463 c -0.9680627,0 -1.7677669,-0.799704 -1.7677669,-1.767767 0,-0.968063 0.7997042,-1.767767 1.7677669,-1.767767 0.9680625,0 1.7677675,0.799704 1.7677675,1.767767 0,0.968063 -0.799705,1.767767 -1.7677675,1.767767 z" style="fill:url(#linearGradient23400);fill-rule:nonzero;stroke:none;stroke-miterlimit:4"/><path id="path3049" d="m 9.7115205,32.207073 c -4.0827002,0 -7.365696,3.282996 -7.365696,7.365696 0,4.0827 3.2829958,7.365696 7.365696,7.365696 4.0827005,0 7.3656965,-3.282996 7.3656965,-7.365696 0,-4.0827 -3.282996,-7.365696 -7.3656965,-7.365696 z m 0,9.133463 c -0.9680627,0 -1.7677669,-0.799704 -1.7677669,-1.767767 0,-0.968063 0.7997042,-1.767767 1.7677669,-1.767767 0.9680625,0 1.7677675,0.799704 1.7677675,1.767767 0,0.968063 -0.799705,1.767767 -1.7677675,1.767767 z" style="fill:url(#linearGradient23397);fill-rule:nonzero;stroke:gray;stroke-width:.35355338;stroke-miterlimit:4;stroke-opacity:1"/><path id="path3051" d="m 9.7115205,36.000407 c -1.9949554,0 -3.5723622,1.623801 -3.5723622,3.572362 0,1.994956 1.6238015,3.572362 3.5723622,3.572362 1.9949555,0 3.5723625,-1.623801 3.5723625,-3.572362 0,-1.994956 -1.623802,-3.572362 -3.5723625,-3.572362 z m 0,5.520923 c -1.067069,0 -1.9485607,-0.881491 -1.9485607,-1.948561 0,-1.067069 0.8814917,-1.948561 1.9485607,-1.948561 1.0670695,0 1.9485605,0.881492 1.9485605,1.948561 0,1.06707 -0.881491,1.948561 -1.9485605,1.948561 z" style="opacity:.10999995;fill-rule:nonzero;stroke:none;stroke-miterlimit:4"/><path style="fill:url(#linearGradient4076);fill-opacity:1;fill-rule:nonzero;stroke:none;stroke-miterlimit:4;stroke-opacity:1" id="path3916" d="m 11.682618,32.738311 -1.271588,4.94786 c 0.397643,0.105895 0.715643,0.351952 0.931659,0.692449 L 15.724,35.709545 C 14.827655,34.24947 13.389059,33.17525 11.682618,32.738311 Z"/><path id="path4214" d="M 7.2227938,46.207572 8.8969593,41.381038 C 8.5093715,41.242802 8.2126832,40.971428 8.0253996,40.61432 L 3.439437,42.91406 c 0.7732416,1.52884 2.1186263,2.717724 3.7833568,3.293512 z" style="fill:url(#linearGradient23393);fill-opacity:1;fill-rule:nonzero;stroke:none;stroke-miterlimit:4;stroke-opacity:1"/><path style="opacity:.54644811;fill:none;fill-rule:nonzero;stroke:url(#linearGradient23387);stroke-width:.35355338;stroke-miterlimit:4;stroke-opacity:1" id="path5264" d="m 9.7115191,32.573248 c -3.8797337,0 -6.9995196,3.119786 -6.9995196,6.99952 0,3.879734 3.1197859,6.99952 6.9995196,6.99952 3.8797339,0 6.9995199,-3.119786 6.9995199,-6.99952 0,-3.879734 -3.119786,-6.99952 -6.9995199,-6.99952 z"/><circle style="color:#000;display:inline;overflow:visible;visibility:visible;opacity:.67213111;fill:none;fill-opacity:.31638417;fill-rule:nonzero;stroke:url(#linearGradient23353);stroke-width:.32899511;stroke-linecap:butt;stroke-linejoin:miter;stroke-miterlimit:4;stroke-dashoffset:0;stroke-opacity:1;marker:none;marker-start:none;marker-mid:none;marker-end:none" id="path6026" cx="9.729" cy="39.579" r="2.156"/><path style="opacity:.1142857;fill:url(#radialGradient23383);fill-opacity:1;fill-rule:nonzero;stroke:none;stroke-miterlimit:4;stroke-opacity:1" id="path3390" d="m 9.7115205,32.207073 c -4.0827002,0 -7.365696,3.282996 -7.365696,7.365696 0,4.0827 3.2829958,7.365696 7.365696,7.365696 4.0827005,0 7.3656965,-3.282996 7.3656965,-7.365696 0,-4.0827 -3.282996,-7.365696 -7.3656965,-7.365696 z m 0,9.133463 c -0.9680627,0 -1.7677669,-0.799704 -1.7677669,-1.767767 0,-0.968063 0.7997042,-1.767767 1.7677669,-1.767767 0.9680625,0 1.7677675,0.799704 1.7677675,1.767767 0,0.968063 -0.799705,1.767767 -1.7677675,1.767767 z"/><path id="path3404" d="m 9.7115205,32.207073 c -4.0827002,0 -7.365696,3.282996 -7.365696,7.365696 0,4.0827 3.2829958,7.365696 7.365696,7.365696 4.0827005,0 7.3656965,-3.282996 7.3656965,-7.365696 0,-4.0827 -3.282996,-7.365696 -7.3656965,-7.365696 z m 0,9.133463 c -0.9680627,0 -1.7677669,-0.799704 -1.7677669,-1.767767 0,-0.968063 0.7997042,-1.767767 1.7677669,-1.767767 0.9680625,0 1.7677675,0.799704 1.7677675,1.767767 0,0.968063 -0.799705,1.767767 -1.7677675,1.767767 z" style="opacity:.09714284;fill:url(#radialGradient23380);fill-opacity:1;fill-rule:nonzero;stroke:none;stroke-miterlimit:4;stroke-opacity:1"/><path style="opacity:.71428576;fill:url(#radialGradient23377);fill-opacity:1;fill-rule:nonzero;stroke:none;stroke-miterlimit:4;stroke-opacity:1" id="path3419" d="m 9.7115205,32.207073 c -4.0827002,0 -7.365696,3.282996 -7.365696,7.365696 0,4.0827 3.2829958,7.365696 7.365696,7.365696 4.0827005,0 7.3656965,-3.282996 7.3656965,-7.365696 0,-4.0827 -3.282996,-7.365696 -7.3656965,-7.365696 z m 0,9.133463 c -0.9680627,0 -1.7677669,-0.799704 -1.7677669,-1.767767 0,-0.968063 0.7997042,-1.767767 1.7677669,-1.767767 0.9680625,0 1.7677675,0.799704 1.7677675,1.767767 0,0.968063 -0.799705,1.767767 -1.7677675,1.767767 z"/><path id="path3431" d="m 9.7115205,32.207073 c -4.0827002,0 -7.365696,3.282996 -7.365696,7.365696 0,4.0827 3.2829958,7.365696 7.365696,7.365696 4.0827005,0 7.3656965,-3.282996 7.3656965,-7.365696 0,-4.0827 -3.282996,-7.365696 -7.3656965,-7.365696 z m 0,9.133463 c -0.9680627,0 -1.7677669,-0.799704 -1.7677669,-1.767767 0,-0.968063 0.7997042,-1.767767 1.7677669,-1.767767 0.9680625,0 1.7677675,0.799704 1.7677675,1.767767 0,0.968063 -0.799705,1.767767 -1.7677675,1.767767 z" style="opacity:.62285713;fill:url(#radialGradient23374);fill-opacity:1;fill-rule:nonzero;stroke:none;stroke-miterlimit:4;stroke-opacity:1"/><path style="opacity:.37142861;fill:url(#radialGradient23371);fill-opacity:1;fill-rule:nonzero;stroke:none;stroke-miterlimit:4;stroke-opacity:1" id="path3441" d="m 9.7115205,32.207073 c -4.0827002,0 -7.365696,3.282996 -7.365696,7.365696 0,4.0827 3.2829958,7.365696 7.365696,7.365696 4.0827005,0 7.3656965,-3.282996 7.3656965,-7.365696 0,-4.0827 -3.282996,-7.365696 -7.3656965,-7.365696 z m 0,9.133463 c -0.9680627,0 -1.7677669,-0.799704 -1.7677669,-1.767767 0,-0.968063 0.7997042,-1.767767 1.7677669,-1.767767 0.9680625,0 1.7677675,0.799704 1.7677675,1.767767 0,0.968063 -0.799705,1.767767 -1.7677675,1.767767 z"/><path id="path3445" d="m 9.7115205,32.207073 c -4.0827002,0 -7.365696,3.282996 -7.365696,7.365696 0,4.0827 3.2829958,7.365696 7.365696,7.365696 4.0827005,0 7.3656965,-3.282996 7.3656965,-7.365696 0,-4.0827 -3.282996,-7.365696 -7.3656965,-7.365696 z m 0,9.133463 c -0.9680627,0 -1.7677669,-0.799704 -1.7677669,-1.767767 0,-0.968063 0.7997042,-1.767767 1.7677669,-1.767767 0.9680625,0 1.7677675,0.799704 1.7677675,1.767767 0,0.968063 -0.799705,1.767767 -1.7677675,1.767767 z" style="opacity:.23428572;fill:url(#radialGradient23368);fill-opacity:1;fill-rule:nonzero;stroke:none;stroke-miterlimit:4;stroke-opacity:1"/></g></g></g></svg>