<svg xmlns="http://www.w3.org/2000/svg" xmlns:svg="http://www.w3.org/2000/svg" id="svg30571" width="24" height="24" version="1.1" viewBox="0 0 24 24"><metadata id="metadata30576"/><g id="layer1" transform="translate(0,-1028.3622)"><g id="g3972" transform="matrix(0.57118758,0,0,0.58691647,-1.710045,1026.5614)"><path id="rect2259" d="M 4.9016086,3.9323938 H 43.102553 c 0.578848,0 1.044854,0.4657562 1.044854,1.0442965 V 42.052708 c 0,0.578539 -0.466006,1.044297 -1.044854,1.044297 H 6.8661572 c 0,0 -3.009402,-3.007798 -3.009402,-3.007798 V 4.9766903 c 0,-0.5785403 0.4660045,-1.0442965 1.0448534,-1.0442965 z" style="fill:#3465a4;fill-opacity:1;stroke:#25375f;stroke-width:1.72706807;stroke-linecap:round;stroke-linejoin:round;stroke-miterlimit:4;stroke-dasharray:none;stroke-dashoffset:0;stroke-opacity:1"/><rect id="rect2328" width="28.012" height="17.038" x="9.997" y="9.884" style="opacity:1;fill:#fff;fill-opacity:1;stroke:none;stroke-width:.83168322;stroke-linecap:butt;stroke-linejoin:miter;stroke-miterlimit:4;stroke-dasharray:none;stroke-dashoffset:0;stroke-opacity:1"/><rect style="opacity:1;fill:#d31c00;fill-opacity:1;stroke:none;stroke-width:1.09233487;stroke-linecap:butt;stroke-linejoin:miter;stroke-miterlimit:4;stroke-dasharray:none;stroke-dashoffset:0;stroke-opacity:1" id="rect2330" width="28.012" height="5.112" x="9.997" y="4.772" rx=".118" ry=".161"/><rect id="rect2332" width="1.751" height="1.704" x="6.495" y="6.476" rx=".11" ry=".108" style="opacity:.73863639;fill:#000;fill-opacity:1;stroke:none;stroke-width:.8635599;stroke-linecap:butt;stroke-linejoin:miter;stroke-miterlimit:4;stroke-dasharray:none;stroke-dashoffset:0;stroke-opacity:1"/><path id="rect2273" d="M 4.6189226,4.5276647 H 43.387404 c 0.06992,0 0.126208,0.056289 0.126208,0.1262077 V 42.302111 c 0,0.06992 -0.05629,0.126208 -0.126208,0.126208 H 6.9282818 c 0,0 -2.4355669,-2.391373 -2.4355669,-2.391373 V 4.6538724 c 0,-0.069919 0.056289,-0.1262077 0.1262077,-0.1262077 z" style="opacity:.59659095;fill:none;fill-opacity:1;stroke:url(#linearGradient2283);stroke-width:1;stroke-linecap:round;stroke-linejoin:miter;stroke-miterlimit:4;stroke-dashoffset:0;stroke-opacity:1"/><path id="rect2340" d="M 14.185763,29.470343 H 33.81964 c 0.882757,0 1.593426,0.688333 1.593426,1.543347 v 12.101424 c 0,0 -22.820729,0 -22.820729,0 V 31.01369 c 0,-0.855014 0.710669,-1.543347 1.593426,-1.543347 z" style="fill:#d3d7cf;fill-opacity:1;stroke:#525252;stroke-width:1.68960738;stroke-linecap:butt;stroke-linejoin:miter;stroke-miterlimit:4;stroke-dasharray:none;stroke-dashoffset:0;stroke-opacity:1"/><rect id="rect2359" width="4.356" height="9.327" x="16.572" y="31.629" rx=".651" ry=".696" style="opacity:1;fill:#4967a2;fill-opacity:1;stroke:#525252;stroke-width:.89586031;stroke-linecap:butt;stroke-linejoin:miter;stroke-miterlimit:4;stroke-dasharray:none;stroke-dashoffset:0;stroke-opacity:1"/></g></g></svg>