<svg xmlns="http://www.w3.org/2000/svg" xmlns:xlink="http://www.w3.org/1999/xlink" width="862pt" height="1344" viewBox="0 0 862 1008"><g id="graph1" class="graph" transform="scale(1 1) rotate(0) translate(4 1004)"><title>_anonymous_0</title><polygon fill="#fff" stroke="#fff" points="-4 5 -4 -1004 859 -1004 859 5 -4 5"/><g id="node1" class="node"><title>app/plug-in</title><ellipse cx="128" cy="-981" fill="#7cfc00" stroke="#000" rx="55.861" ry="19.092"/><text x="128" y="-977.9" font-family="Times Roman,serif" font-size="14" text-anchor="middle">app/plug-in</text></g><g id="node2" class="node"><title>app/composite</title><ellipse cx="176" cy="-907" fill="#7cfc00" stroke="#000" rx="67.882" ry="19.092"/><text x="176" y="-903.9" font-family="Times Roman,serif" font-size="14" text-anchor="middle">app/composite</text></g><g id="edge2" class="edge"><title>app/plug-in-&gt;app/composite</title><path fill="none" stroke="#000" d="M140.112,-962.327C145.585,-953.891 152.16,-943.754 158.178,-934.475"/><polygon fill="#000" stroke="#000" points="161.219 -936.219 163.724 -925.925 155.346 -932.41 161.219 -936.219"/></g><g id="node4" class="node"><title>app/base</title><ellipse cx="285" cy="-833" fill="#7cfc00" stroke="#000" rx="44.758" ry="19.092"/><text x="285" y="-829.9" font-family="Times Roman,serif" font-size="14" text-anchor="middle">app/base</text></g><g id="edge4" class="edge"><title>app/composite-&gt;app/base</title><path fill="none" stroke="#000" d="M202.108,-889.275C217.2,-879.029 236.322,-866.047 252.396,-855.135"/><polygon fill="#000" stroke="#000" points="254.66 -857.828 260.968 -849.315 250.728 -852.037 254.66 -857.828"/></g><g id="node11" class="node"><title>app/config</title><ellipse cx="311" cy="-759" fill="#7cfc00" stroke="#000" rx="51.828" ry="19.092"/><text x="311" y="-755.9" font-family="Times Roman,serif" font-size="14" text-anchor="middle">app/config</text></g><g id="edge10" class="edge"><title>app/base-&gt;app/config</title><path fill="none" stroke="#000" d="M291.696,-813.943C294.516,-805.916 297.859,-796.402 300.964,-787.565"/><polygon fill="#000" stroke="#000" points="304.314 -788.587 304.327 -777.992 297.71 -786.267 304.314 -788.587"/></g><g id="node6" class="node"><title>libgimpcolor</title><ellipse cx="418" cy="-167" fill="#ff7256" stroke="#000" rx="61.018" ry="19.092"/><text x="418" y="-163.9" font-family="Times Roman,serif" font-size="14" text-anchor="middle">libgimpcolor</text></g><g id="node7" class="node"><title>libgimpmath</title><ellipse cx="418" cy="-93" fill="#ff7256" stroke="#000" rx="61.018" ry="19.092"/><text x="418" y="-89.9" font-family="Times Roman,serif" font-size="14" text-anchor="middle">libgimpmath</text></g><g id="edge6" class="edge"><title>libgimpcolor-&gt;libgimpmath</title><path fill="none" stroke="#000" d="M418,-147.943C418,-140.149 418,-130.954 418,-122.338"/><polygon fill="#000" stroke="#000" points="421.5 -122.249 418 -112.249 414.5 -122.249 421.5 -122.249"/></g><g id="node9" class="node"><title>GLib</title><ellipse cx="418" cy="-19" fill="#add8e6" stroke="#000" rx="31.82" ry="19.092"/><text x="418" y="-15.9" font-family="Times Roman,serif" font-size="14" text-anchor="middle">GLib</text></g><g id="edge8" class="edge"><title>libgimpmath-&gt;GLib</title><path fill="none" stroke="#000" d="M418,-73.9432C418,-66.1493 418,-56.9538 418,-48.3381"/><polygon fill="#000" stroke="#000" points="421.5 -48.249 418 -38.249 414.5 -48.249 421.5 -48.249"/></g><g id="node14" class="node"><title>app/core</title><ellipse cx="336" cy="-685" fill="#7cfc00" stroke="#000" rx="44.047" ry="19.092"/><text x="336" y="-681.9" font-family="Times Roman,serif" font-size="14" text-anchor="middle">app/core</text></g><g id="edge26" class="edge"><title>app/config-&gt;app/core</title><path fill="none" stroke="#000" d="M317.438,-739.943C320.15,-731.916 323.364,-722.402 326.35,-713.565"/><polygon fill="#000" stroke="#000" points="329.699 -714.586 329.584 -703.992 323.067 -712.346 329.699 -714.586"/></g><g id="node13" class="node"><title>GEGL</title><ellipse cx="339" cy="-315" fill="#add8e6" stroke="#000" rx="36.977" ry="19.092"/><text x="339" y="-311.9" font-family="Times Roman,serif" font-size="14" text-anchor="middle">GEGL</text></g><g id="node15" class="node"><title>app/pdb</title><ellipse cx="232" cy="-611" fill="#7cfc00" stroke="#000" rx="41.927" ry="19.092"/><text x="232" y="-607.9" font-family="Times Roman,serif" font-size="14" text-anchor="middle">app/pdb</text></g><g id="edge12" class="edge"><title>app/core-&gt;app/pdb</title><path fill="none" stroke="#000" d="M312.919,-668.577C298.276,-658.158 279.148,-644.548 263.166,-633.176"/><polygon fill="#000" stroke="#000" points="264.836 -630.068 254.659 -627.122 260.777 -635.772 264.836 -630.068"/></g><g id="node17" class="node"><title>app/gegl</title><ellipse cx="336" cy="-611" fill="#7cfc00" stroke="#000" rx="44.047" ry="19.092"/><text x="336" y="-607.9" font-family="Times Roman,serif" font-size="14" text-anchor="middle">app/gegl</text></g><g id="edge14" class="edge"><title>app/core-&gt;app/gegl</title><path fill="none" stroke="#000" d="M330.012,-665.943C329.288,-658.088 329.08,-648.81 329.387,-640.136"/><polygon fill="#000" stroke="#000" points="332.891 -640.19 330.018 -629.992 325.904 -639.756 332.891 -640.19"/></g><g id="node19" class="node"><title>app/xcf</title><ellipse cx="438" cy="-611" fill="#7cfc00" stroke="#000" rx="39.807" ry="19.092"/><text x="438" y="-607.9" font-family="Times Roman,serif" font-size="14" text-anchor="middle">app/xcf</text></g><g id="edge16" class="edge"><title>app/core-&gt;app/xcf</title><path fill="none" stroke="#000" d="M358.637,-668.577C372.998,-658.158 391.759,-644.548 407.434,-633.176"/><polygon fill="#000" stroke="#000" points="409.738 -635.828 415.777 -627.122 405.628 -630.162 409.738 -635.828"/></g><g id="node21" class="node"><title>app/file</title><ellipse cx="80" cy="-537" fill="#7cfc00" stroke="#000" rx="41.012" ry="19.092"/><text x="80" y="-533.9" font-family="Times Roman,serif" font-size="14" text-anchor="middle">app/file</text></g><g id="edge18" class="edge"><title>app/pdb-&gt;app/file</title><path fill="none" stroke="#000" d="M203.41,-597.081C179.101,-585.246 144.017,-568.166 117.466,-555.24"/><polygon fill="#000" stroke="#000" points="118.985 -552.087 108.462 -550.856 115.921 -558.381 118.985 -552.087"/></g><g id="node23" class="node"><title>libgimpmodule</title><ellipse cx="413" cy="-537" fill="#ff7256" stroke="#000" rx="70.918" ry="19.092"/><text x="413" y="-533.9" font-family="Times Roman,serif" font-size="14" text-anchor="middle">libgimpmodule</text></g><g id="edge20" class="edge"><title>app/pdb-&gt;libgimpmodule</title><path fill="none" stroke="#000" d="M263.528,-598.11C291.34,-586.739 332.313,-569.988 364.331,-556.898"/><polygon fill="#000" stroke="#000" points="366.024 -559.987 373.955 -552.963 363.375 -553.508 366.024 -559.987"/></g><g id="edge22" class="edge"><title>app/gegl-&gt;app/core</title><path fill="none" stroke="#000" d="M341.982,-629.992C342.709,-637.839 342.92,-647.115 342.615,-655.792"/><polygon fill="#000" stroke="#000" points="339.111 -655.746 341.988 -665.943 346.098 -656.178 339.111 -655.746"/></g><g id="node26" class="node"><title>app/text</title><ellipse cx="282" cy="-537" fill="#7cfc00" stroke="#000" rx="41.927" ry="19.092"/><text x="282" y="-533.9" font-family="Times Roman,serif" font-size="14" text-anchor="middle">app/text</text></g><g id="edge24" class="edge"><title>app/xcf-&gt;app/text</title><path fill="none" stroke="#000" d="M409.387,-597.427C384.444,-585.595 348.056,-568.334 320.55,-555.287"/><polygon fill="#000" stroke="#000" points="321.76 -551.987 311.225 -550.863 318.76 -558.311 321.76 -551.987"/></g><g id="edge32" class="edge"><title>app/file-&gt;app/plug-in</title><path fill="none" stroke="#000" d="M80,-556.158C80,-584.37 80,-638.75 80,-685 80,-833 80,-833 80,-833 80,-875.187 84.7969,-886.276 99,-926 102.309,-935.256 106.934,-944.886 111.519,-953.453"/><polygon fill="#000" stroke="#000" points="108.498 -955.223 116.415 -962.264 114.617 -951.823 108.498 -955.223"/></g><g id="node34" class="node"><title>libgimpthumb</title><ellipse cx="67" cy="-389" fill="#ff7256" stroke="#000" rx="67.175" ry="19.092"/><text x="67" y="-385.9" font-family="Times Roman,serif" font-size="14" text-anchor="middle">libgimpthumb</text></g><g id="edge34" class="edge"><title>app/file-&gt;libgimpthumb</title><path fill="none" stroke="#000" d="M78.3271,-517.955C76.1162,-492.784 72.1982,-448.18 69.5998,-418.598"/><polygon fill="#000" stroke="#000" points="73.069 -418.098 68.708 -408.442 66.096 -418.71 73.069 -418.098"/></g><g id="node29" class="node"><title>libgimpbase</title><ellipse cx="418" cy="-241" fill="#ff7256" stroke="#000" rx="58.188" ry="19.092"/><text x="418" y="-237.9" font-family="Times Roman,serif" font-size="14" text-anchor="middle">libgimpbase</text></g><g id="edge36" class="edge"><title>libgimpmodule-&gt;libgimpbase</title><path fill="none" stroke="#000" d="M413.328,-517.579C414.183,-466.967 416.483,-330.777 417.503,-270.452"/><polygon fill="#000" stroke="#000" points="421.008 -270.166 417.677 -260.108 414.009 -270.048 421.008 -270.166"/></g><g id="node56" class="node"><title>app/vectors</title><ellipse cx="334" cy="-463" fill="#7cfc00" stroke="#000" rx="55.861" ry="19.092"/><text x="334" y="-459.9" font-family="Times Roman,serif" font-size="14" text-anchor="middle">app/vectors</text></g><g id="edge76" class="edge"><title>app/text-&gt;app/vectors</title><path fill="none" stroke="#000" d="M294.854,-518.708C300.933,-510.057 308.313,-499.554 315.02,-490.01"/><polygon fill="#000" stroke="#000" points="318.047 -491.79 320.933 -481.596 312.32 -487.765 318.047 -491.79"/></g><g id="node70" class="node"><title>Pango</title><ellipse cx="225" cy="-463" fill="#add8e6" stroke="#000" rx="34.857" ry="19.092"/><text x="225" y="-459.9" font-family="Times Roman,serif" font-size="14" text-anchor="middle">Pango</text></g><g id="edge78" class="edge"><title>app/text-&gt;Pango</title><path fill="none" stroke="#000" d="M267.91,-518.708C260.905,-509.613 252.323,-498.471 244.679,-488.549"/><polygon fill="#000" stroke="#000" points="247.41 -486.359 238.535 -480.572 241.865 -490.63 247.41 -486.359"/></g><g id="edge28" class="edge"><title>libgimpbase-&gt;libgimpcolor</title><path fill="none" stroke="#000" d="M418,-221.943C418,-214.149 418,-204.954 418,-196.338"/><polygon fill="#000" stroke="#000" points="421.5 -196.249 418 -186.249 414.5 -196.249 421.5 -196.249"/></g><g id="node31" class="node"><title>libgimpconfig</title><ellipse cx="512" cy="-315" fill="#ff7256" stroke="#000" rx="65.968" ry="19.092"/><text x="512" y="-311.9" font-family="Times Roman,serif" font-size="14" text-anchor="middle">libgimpconfig</text></g><g id="edge30" class="edge"><title>libgimpconfig-&gt;libgimpbase</title><path fill="none" stroke="#000" d="M489.245,-297.087C477.006,-287.452 461.747,-275.439 448.493,-265.005"/><polygon fill="#000" stroke="#000" points="450.568 -262.184 440.545 -258.748 446.238 -267.684 450.568 -262.184"/></g><g id="edge38" class="edge"><title>libgimpthumb-&gt;libgimpbase</title><path fill="none" stroke="#000" d="M72.6671,-369.993C80.1177,-348.474 95.3615,-314.069 121,-296 157.281,-270.43 275.454,-254.627 351.346,-246.855"/><polygon fill="#000" stroke="#000" points="352.16 -250.291 361.761 -245.811 351.462 -243.326 352.16 -250.291"/></g><g id="node38" class="node"><title>Cairo</title><ellipse cx="241" cy="-389" fill="#add8e6" stroke="#000" rx="33.234" ry="19.092"/><text x="241" y="-385.9" font-family="Times Roman,serif" font-size="14" text-anchor="middle">Cairo</text></g><g id="node39" class="node"><title>app/actions</title><ellipse cx="799" cy="-315" fill="#7cfc00" stroke="#000" rx="55.154" ry="19.092"/><text x="799" y="-311.9" font-family="Times Roman,serif" font-size="14" text-anchor="middle">app/actions</text></g><g id="node40" class="node"><title>app/dialogs</title><ellipse cx="756" cy="-685" fill="#7cfc00" stroke="#000" rx="55.861" ry="19.092"/><text x="756" y="-681.9" font-family="Times Roman,serif" font-size="14" text-anchor="middle">app/dialogs</text></g><g id="edge40" class="edge"><title>app/actions-&gt;app/dialogs</title><path fill="none" stroke="#000" d="M807.896,-334.161C819.955,-361.932 840,-415.275 840,-463 840,-537 840,-537 840,-537 840,-581.164 827.852,-592.208 805,-630 798.654,-640.495 790.185,-650.846 782.075,-659.688"/><polygon fill="#000" stroke="#000" points="779.448 -657.372 775.103 -667.035 784.526 -662.19 779.448 -657.372"/></g><g id="node42" class="node"><title>app/gui</title><ellipse cx="756" cy="-611" fill="#7cfc00" stroke="#000" rx="39.807" ry="19.092"/><text x="756" y="-607.9" font-family="Times Roman,serif" font-size="14" text-anchor="middle">app/gui</text></g><g id="edge42" class="edge"><title>app/dialogs-&gt;app/gui</title><path fill="none" stroke="#000" d="M756,-665.943C756,-658.149 756,-648.954 756,-640.338"/><polygon fill="#000" stroke="#000" points="759.5 -640.249 756 -630.249 752.5 -640.249 759.5 -640.249"/></g><g id="node44" class="node"><title>app/display</title><ellipse cx="756" cy="-537" fill="#7cfc00" stroke="#000" rx="55.861" ry="19.092"/><text x="756" y="-533.9" font-family="Times Roman,serif" font-size="14" text-anchor="middle">app/display</text></g><g id="edge44" class="edge"><title>app/gui-&gt;app/display</title><path fill="none" stroke="#000" d="M756,-591.943C756,-584.149 756,-574.954 756,-566.338"/><polygon fill="#000" stroke="#000" points="759.5 -566.249 756 -556.249 752.5 -566.249 759.5 -566.249"/></g><g id="node50" class="node"><title>app/widgets</title><ellipse cx="754" cy="-463" fill="#7cfc00" stroke="#000" rx="57.983" ry="19.092"/><text x="754" y="-459.9" font-family="Times Roman,serif" font-size="14" text-anchor="middle">app/widgets</text></g><g id="edge50" class="edge"><title>app/display-&gt;app/widgets</title><path fill="none" stroke="#000" d="M755.485,-517.943C755.274,-510.149 755.026,-500.954 754.793,-492.338"/><polygon fill="#000" stroke="#000" points="758.289 -492.151 754.52 -482.249 751.292 -492.34 758.289 -492.151"/></g><g id="node46" class="node"><title>libgimpwidgets</title><ellipse cx="573" cy="-537" fill="#ff7256" stroke="#000" rx="70.918" ry="19.092"/><text x="573" y="-533.9" font-family="Times Roman,serif" font-size="14" text-anchor="middle">libgimpwidgets</text></g><g id="edge46" class="edge"><title>libgimpwidgets-&gt;libgimpconfig</title><path fill="none" stroke="#000" d="M554.592,-518.249C545.949,-508.295 536.384,-495.374 531,-482 512.661,-436.447 510.223,-378.617 510.704,-344.337"/><polygon fill="#000" stroke="#000" points="514.209 -344.16 510.947 -334.08 507.211 -343.994 514.209 -344.16"/></g><g id="node48" class="node"><title>GTK+</title><ellipse cx="577" cy="-463" fill="#add8e6" stroke="#000" rx="36.977" ry="19.092"/><text x="577" y="-459.9" font-family="Times Roman,serif" font-size="14" text-anchor="middle">GTK+</text></g><g id="edge48" class="edge"><title>libgimpwidgets-&gt;GTK+</title><path fill="none" stroke="#000" d="M574.03,-517.943C574.451,-510.149 574.948,-500.954 575.414,-492.338"/><polygon fill="#000" stroke="#000" points="578.915 -492.424 575.959 -482.249 571.925 -492.046 578.915 -492.424"/></g><g id="node52" class="node"><title>app/menus</title><ellipse cx="756" cy="-389" fill="#7cfc00" stroke="#000" rx="53.238" ry="19.092"/><text x="756" y="-385.9" font-family="Times Roman,serif" font-size="14" text-anchor="middle">app/menus</text></g><g id="edge52" class="edge"><title>app/widgets-&gt;app/menus</title><path fill="none" stroke="#000" d="M754.515,-443.943C754.726,-436.149 754.974,-426.954 755.207,-418.338"/><polygon fill="#000" stroke="#000" points="758.708 -418.34 755.48 -408.249 751.711 -418.151 758.708 -418.34"/></g><g id="node54" class="node"><title>app/tools</title><ellipse cx="641" cy="-759" fill="#7cfc00" stroke="#000" rx="46.167" ry="19.092"/><text x="641" y="-755.9" font-family="Times Roman,serif" font-size="14" text-anchor="middle">app/tools</text></g><g id="edge54" class="edge"><title>app/widgets-&gt;app/tools</title><path fill="none" stroke="#000" d="M727.313,-480.099C714.423,-489.715 699.864,-502.832 691,-518 651.098,-586.285 642.758,-681.803 641.199,-729.484"/><polygon fill="#000" stroke="#000" points="637.694 -729.637 640.946 -739.72 644.692 -729.81 637.694 -729.637"/></g><g id="edge66" class="edge"><title>app/menus-&gt;app/actions</title><path fill="none" stroke="#000" d="M766.851,-370.327C771.74,-361.913 777.611,-351.809 782.991,-342.55"/><polygon fill="#000" stroke="#000" points="786.155 -344.072 788.153 -333.667 780.102 -340.555 786.155 -344.072"/></g><g id="edge68" class="edge"><title>app/tools-&gt;app/core</title><path fill="none" stroke="#000" d="M601.127,-749.326C545.412,-735.808 444.384,-711.296 384.418,-696.747"/><polygon fill="#000" stroke="#000" points="384.983 -693.283 374.44 -694.326 383.333 -700.086 384.983 -693.283"/></g><g id="edge70" class="edge"><title>app/tools-&gt;app/dialogs</title><path fill="none" stroke="#000" d="M665.953,-742.943C682.076,-732.569 703.289,-718.918 721.076,-707.473"/><polygon fill="#000" stroke="#000" points="722.979 -710.41 729.495 -702.055 719.191 -704.524 722.979 -710.41"/></g><g id="edge72" class="edge"><title>app/tools-&gt;libgimpwidgets</title><path fill="none" stroke="#000" d="M638.418,-739.973C633.758,-708.448 622.562,-643.73 603,-592 599.525,-582.81 594.767,-573.258 590.065,-564.744"/><polygon fill="#000" stroke="#000" points="593.052 -562.918 585.047 -555.978 586.977 -566.395 593.052 -562.918"/></g><g id="edge56" class="edge"><title>app/vectors-&gt;Cairo</title><path fill="none" stroke="#000" d="M311.96,-445.463C298.849,-435.031 282.111,-421.712 268.184,-410.63"/><polygon fill="#000" stroke="#000" points="270.362 -407.891 260.358 -404.403 266.004 -413.368 270.362 -407.891"/></g><g id="node58" class="node"><title>app/paint</title><ellipse cx="339" cy="-389" fill="#7cfc00" stroke="#000" rx="46.877" ry="19.092"/><text x="339" y="-385.9" font-family="Times Roman,serif" font-size="14" text-anchor="middle">app/paint</text></g><g id="edge58" class="edge"><title>app/vectors-&gt;app/paint</title><path fill="none" stroke="#000" d="M335.288,-443.943C335.814,-436.149 336.436,-426.954 337.018,-418.338"/><polygon fill="#000" stroke="#000" points="340.517 -418.463 337.699 -408.249 333.533 -417.991 340.517 -418.463"/></g><g id="edge60" class="edge"><title>app/paint-&gt;GEGL</title><path fill="none" stroke="#000" d="M339,-369.943C339,-362.149 339,-352.954 339,-344.338"/><polygon fill="#000" stroke="#000" points="342.5 -344.249 339 -334.249 335.5 -344.249 342.5 -344.249"/></g><g id="edge62" class="edge"><title>app/paint-&gt;libgimpconfig</title><path fill="none" stroke="#000" d="M371.54,-375.081C398.124,-363.71 436.03,-347.496 465.765,-334.777"/><polygon fill="#000" stroke="#000" points="467.29 -337.931 475.108 -330.781 464.537 -331.495 467.29 -337.931"/></g><g id="node62" class="node"><title>app/paint-funcs</title><ellipse cx="201" cy="-315" fill="#7cfc00" stroke="#000" rx="70.918" ry="19.092"/><text x="201" y="-311.9" font-family="Times Roman,serif" font-size="14" text-anchor="middle">app/paint-funcs</text></g><g id="edge64" class="edge"><title>app/paint-&gt;app/paint-funcs</title><path fill="none" stroke="#000" d="M310.406,-373.667C290.562,-363.026 263.832,-348.692 241.761,-336.857"/><polygon fill="#000" stroke="#000" points="243.401 -333.765 232.934 -332.124 240.092 -339.934 243.401 -333.765"/></g><g id="edge74" class="edge"><title>app/paint-funcs-&gt;app/composite</title><path fill="none" stroke="#000" d="M192.538,-334.205C181.067,-362.03 162,-415.437 162,-463 162,-759 162,-759 162,-759 162,-800.375 167.49,-847.969 171.594,-877.768"/><polygon fill="#000" stroke="#000" points="168.161 -878.487 173.031 -887.896 175.092 -877.504 168.161 -878.487"/></g><g id="node72" class="node"><title>libgimp</title><ellipse cx="553" cy="-611" fill="#ff7256" stroke="#000" rx="41.217" ry="19.092"/><text x="553" y="-607.9" font-family="Times Roman,serif" font-size="14" text-anchor="middle">libgimp</text></g><g id="edge80" class="edge"><title>libgimp-&gt;libgimpmodule</title><path fill="none" stroke="#000" d="M525.674,-596.556C505.302,-585.788 477.131,-570.898 454.054,-558.7"/><polygon fill="#000" stroke="#000" points="455.641 -555.58 445.164 -554.001 452.369 -561.768 455.641 -555.58"/></g><g id="edge82" class="edge"><title>libgimp-&gt;libgimpwidgets</title><path fill="none" stroke="#000" d="M558.15,-591.943C560.297,-584.002 562.836,-574.606 565.203,-565.851"/><polygon fill="#000" stroke="#000" points="568.637 -566.559 567.867 -555.992 561.879 -564.733 568.637 -566.559"/></g><g id="node75" class="node"><title>app/tests</title><ellipse cx="756" cy="-759" fill="#7cfc00" stroke="#000" rx="44.758" ry="19.092"/><text x="756" y="-755.9" font-family="Times Roman,serif" font-size="14" text-anchor="middle">app/tests</text></g><g id="edge84" class="edge"><title>app/tests-&gt;app/dialogs</title><path fill="none" stroke="#000" d="M756,-739.943C756,-732.149 756,-722.954 756,-714.338"/><polygon fill="#000" stroke="#000" points="759.5 -714.249 756 -704.249 752.5 -714.249 759.5 -714.249"/></g></g></svg>