<svg xmlns="http://www.w3.org/2000/svg" xmlns:osb="http://www.openswatchbook.org/uri/2009/osb" xmlns:svg="http://www.w3.org/2000/svg" xmlns:xlink="http://www.w3.org/1999/xlink" id="svg30571" width="16" height="16" version="1.1" viewBox="0 0 16 16"><defs id="defs30573"><linearGradient id="linearGradient7762" x1="145.995" x2="152" y1="525.498" y2="525.498" gradientUnits="userSpaceOnUse" xlink:href="#linearGradient19282-4"/><linearGradient id="linearGradient19282-4" gradientTransform="matrix(0.23667958,0,0,0.20304569,-212.51307,96.938703)" osb:paint="solid"><stop style="stop-color:#bebebe;stop-opacity:1" id="stop19284-0" offset="0"/></linearGradient><linearGradient id="linearGradient7774" x1="148" x2="150" y1="531" y2="531" gradientUnits="userSpaceOnUse" xlink:href="#linearGradient19282-4"/><linearGradient id="linearGradient7768" x1="-100" x2="-84" y1="310" y2="310" gradientUnits="userSpaceOnUse" xlink:href="#linearGradient19282-4"/></defs><metadata id="metadata30576"/><g id="layer1" transform="translate(0,-1036.3622)"><g style="display:inline" id="gimp-question" transform="translate(-141.00018,517.3622)"><path id="path27972" d="m 148.8125,522 c 1.64243,-0.092 3.0955,1.17008 3.1875,2.8125 -1e-4,1.40136 -0.37771,1.92177 -1.59375,2.84375 -0.19093,0.14364 -0.3256,0.2506 -0.375,0.3125 C 149.98185,528.03085 150,528.002 150,528 c 0.007,0.52831 -0.47163,1 -1,1 -0.52837,0 -1.007,-0.47169 -1,-1 0,-0.50239 0.22424,-0.94342 0.46875,-1.25 0.24451,-0.30663 0.4913,-0.51638 0.71875,-0.6875 0.20405,-0.16056 0.46083,-0.38454 0.6875,-0.65625 0.0935,-0.1121 0.129,-0.30766 0.125,-0.4375 v -0.0312 c -0.0316,-0.56324 -0.49926,-0.9691 -1.0625,-0.9375 -0.56324,0.0316 -0.9691,0.43676 -0.9375,1 h -2 c -0.092,-1.64243 1.17007,-2.9079 2.8125,-3 z" style="color:#bebebe;display:inline;overflow:visible;visibility:visible;fill:url(#linearGradient7762);fill-opacity:1;stroke:none;stroke-width:2;marker:none"/><path id="path19592" d="m 149,530 c 0.55228,0 1,0.44772 1,1 0,0.55228 -0.44772,1 -1,1 -0.55228,0 -1,-0.44772 -1,-1 0,-0.55228 0.44772,-1 1,-1 z" style="color:#bebebe;display:inline;overflow:visible;visibility:visible;fill:url(#linearGradient7774);fill-opacity:1;stroke:none;stroke-width:2;marker:none"/><path id="path27976" d="m -92,302 c -4.418278,0 -8,3.58172 -8,8 0,4.41828 3.581722,8 8,8 4.418278,0 8,-3.58172 8,-8 0,-4.41828 -3.581722,-8 -8,-8 z m 0,2 c 3.313708,0 6,2.68629 6,6 0,3.31371 -2.686292,6 -6,6 -3.313708,0 -6,-2.68629 -6,-6 0,-3.31371 2.686292,-6 6,-6 z" transform="translate(241.0002,217)" style="fill:url(#linearGradient7768);fill-opacity:1;stroke:none"/></g></g></svg>