<svg xmlns="http://www.w3.org/2000/svg" xmlns:osb="http://www.openswatchbook.org/uri/2009/osb" xmlns:svg="http://www.w3.org/2000/svg" xmlns:xlink="http://www.w3.org/1999/xlink" id="svg7384" width="16" height="16" version="1.1" viewBox="0 0 16 16"><metadata id="metadata90"/><defs id="defs7386"><linearGradient id="linearGradient8074" osb:paint="solid"><stop id="stop8072" offset="0" style="stop-color:#be00be;stop-opacity:1"/></linearGradient><linearGradient id="linearGradient7561" osb:paint="solid"><stop id="stop7558" offset="0" style="stop-color:#a5a5a5;stop-opacity:1"/></linearGradient><linearGradient id="linearGradient7548" osb:paint="solid"><stop id="stop7546" offset="0" style="stop-color:#ebebeb;stop-opacity:1"/></linearGradient><linearGradient id="linearGradient7542" osb:paint="solid"><stop id="stop7538" offset="0" style="stop-color:#c9c9c9;stop-opacity:1"/></linearGradient><linearGradient id="linearGradient19282" gradientTransform="matrix(0,-735328.32,170712.69,0,2464326300,577972450)" osb:paint="solid"><stop id="stop19284" offset="0" style="stop-color:#b4b4b4;stop-opacity:1"/></linearGradient><linearGradient id="linearGradient19282-4" gradientTransform="matrix(0.34682586,0,0,0.30620888,-13.35187,142.03851)" osb:paint="solid"><stop id="stop19284-0" offset="0" style="stop-color:#bebebe;stop-opacity:1"/></linearGradient><linearGradient id="linearGradient7578" x1="-90" x2="-89" y1="415.5" y2="415.5" gradientTransform="translate(398.6459,283.03651)" gradientUnits="userSpaceOnUse" xlink:href="#linearGradient19282-4"/><linearGradient id="linearGradient7580" x1="-90" x2="-89" y1="412.5" y2="412.5" gradientTransform="translate(398.6459,283.03651)" gradientUnits="userSpaceOnUse" xlink:href="#linearGradient19282-4"/><linearGradient id="linearGradient7582" x1="147" x2="148" y1="631.5" y2="631.5" gradientTransform="translate(398.6459,283.03651)" gradientUnits="userSpaceOnUse" xlink:href="#linearGradient19282-4"/><linearGradient id="linearGradient7584" x1="142" x2="156" y1="626" y2="626" gradientTransform="translate(398.6459,283.03651)" gradientUnits="userSpaceOnUse" xlink:href="#linearGradient19282-4"/><linearGradient id="linearGradient7586" x1="145" x2="153" y1="621" y2="621" gradientTransform="translate(398.6459,283.03651)" gradientUnits="userSpaceOnUse" xlink:href="#linearGradient19282-4"/><linearGradient id="linearGradient7592" x1="-96" x2="-88" y1="413.5" y2="413.5" gradientTransform="translate(398.6459,283.03651)" gradientUnits="userSpaceOnUse" xlink:href="#linearGradient19282-4"/><linearGradient id="linearGradient7598" x1="-95" x2="-91" y1="413" y2="413" gradientTransform="translate(398.6459,283.03651)" gradientUnits="userSpaceOnUse" xlink:href="#linearGradient19282-4"/><linearGradient id="linearGradient7604" x1="-93" x2="-92" y1="412.5" y2="412.5" gradientTransform="translate(398.6459,283.03651)" gradientUnits="userSpaceOnUse" xlink:href="#linearGradient19282-4"/><linearGradient id="linearGradient7610" x1="-91" x2="-89" y1="411.5" y2="411.5" gradientTransform="translate(398.6459,283.03651)" gradientUnits="userSpaceOnUse" xlink:href="#linearGradient19282-4"/><linearGradient id="linearGradient7616" x1="149" x2="150" y1="630.5" y2="630.5" gradientTransform="translate(398.6459,283.03651)" gradientUnits="userSpaceOnUse" xlink:href="#linearGradient19282-4"/><linearGradient id="linearGradient7622" x1="146" x2="147" y1="630.5" y2="630.5" gradientTransform="translate(398.6459,283.03651)" gradientUnits="userSpaceOnUse" xlink:href="#linearGradient19282-4"/></defs><g style="display:inline" id="stock" transform="translate(59.16525,-116.00527)"><g id="gimp-print-resolution" transform="translate(-200.16545,-502.99473)" style="display:inline"><path id="path3520" d="m 143.0002,623 c -0.5,0 -1,0.5 -1,1 l 0,4 c 0,0.5 0.5,1 1,1 l 1,0 0,-3 10,0 0,3 1,0 c 0.5,0 1,-0.5 1,-1 l 0,-4 c 0,-0.5 -0.5,-1 -1,-1 z" style="fill:url(#linearGradient7584);fill-opacity:1;stroke:none"/><path style="fill:url(#linearGradient7586);fill-opacity:1;stroke:none" id="path4804" d="m 145.0002,620 0,2 8,0 0,-2 z"/><path style="fill:url(#linearGradient7592);fill-opacity:1;stroke:none" id="rect17148" d="m -96,410 0,7 8,0 0,-7 z m 2,2 0,-1 3,0 2,0 0,1 0,1 -1,0 0,-1 -1,0 0,3 -4,0 0,-3 z m 4,3 1,0 0,1 -1,0 z" transform="translate(241.0002,217)"/><path style="opacity:.3;fill:url(#linearGradient7598);fill-opacity:1;stroke:none" id="rect17153" d="m -95,411 0,2 1,0 0,1 1,0 0,1 2,0 0,-1 -1,0 0,-1 -1,0 0,-1 1,0 0,1 1,0 0,-2 z m 1,3 -1,0 0,1 1,0 z" transform="translate(241.0002,217)"/><rect style="fill:url(#linearGradient7604);fill-opacity:1;stroke:none" id="rect17173" width="1" height="1" x="-93" y="412" transform="translate(241.0002,217)"/><rect id="rect17175" width="1" height="1" x="149" y="630" style="fill:url(#linearGradient7616);fill-opacity:1;stroke:none"/><rect style="fill:url(#linearGradient7582);fill-opacity:1;stroke:none" id="rect17177" width="1" height="1" x="147" y="631"/><rect id="rect17179" width="1" height="1" x="146" y="630" style="fill:url(#linearGradient7622);fill-opacity:1;stroke:none"/><rect style="opacity:.3;fill:url(#linearGradient7578);fill-opacity:1;stroke:none" id="rect17181" width="1" height="1" x="-90" y="415" transform="translate(241.0002,217)"/><rect style="opacity:.3;fill:url(#linearGradient7610);fill-opacity:1;stroke:none" id="rect17186" width="2" height="1" x="-91" y="411" transform="translate(241.0002,217)"/><rect style="opacity:.3;fill:url(#linearGradient7580);fill-opacity:1;stroke:none" id="rect17191" width="1" height="1" x="-90" y="412" transform="translate(241.0002,217)"/></g></g></svg>