<svg xmlns="http://www.w3.org/2000/svg" xmlns:svg="http://www.w3.org/2000/svg" id="svg30571" width="16" height="16" version="1.1" viewBox="0 0 16 16"><metadata id="metadata30576"/><g id="layer1" transform="translate(-0.6875,-1034.7372)"><g style="display:inline" id="document-save" transform="translate(-40.3127,615.7372)"><path id="path11635" d="m 49.0002,429 -4.02308,-4 h 8 z" style="fill:#bebebe;fill-opacity:1;stroke:none"/><g id="g932"><g style="display:inline" id="g4561" transform="translate(-118.9998,-119)"><path style="color:#bebebe;font-style:normal;font-variant:normal;font-weight:400;font-stretch:normal;font-size:medium;line-height:normal;font-family:sans-serif;font-variant-ligatures:normal;font-variant-position:normal;font-variant-caps:normal;font-variant-numeric:normal;font-variant-alternates:normal;font-feature-settings:normal;text-indent:0;text-align:start;text-decoration:none;text-decoration-line:none;text-decoration-style:solid;text-decoration-color:#000;letter-spacing:normal;word-spacing:normal;text-transform:none;writing-mode:lr-tb;direction:ltr;text-orientation:mixed;dominant-baseline:auto;baseline-shift:baseline;text-anchor:start;white-space:normal;shape-padding:0;clip-rule:nonzero;display:inline;overflow:visible;visibility:visible;opacity:1;isolation:auto;mix-blend-mode:normal;color-interpolation:sRGB;color-interpolation-filters:linearRGB;solid-color:#000;solid-opacity:1;vector-effect:none;fill:#bebebe;fill-opacity:1;fill-rule:nonzero;stroke:none;stroke-width:1;stroke-linecap:round;stroke-linejoin:round;stroke-miterlimit:4;stroke-dasharray:none;stroke-dashoffset:0;stroke-opacity:1;marker:none;color-rendering:auto;image-rendering:auto;shape-rendering:auto;text-rendering:auto;enable-background:accumulate" id="rect4390-9" d="m 164.49023,546.99414 a 0.50005,0.50005 0 0 0 -0.40625,0.22852 l -1,1.5 a 0.50005,0.50005 0 1 0 0.83204,0.55468 l 1,-1.5 a 0.50005,0.50005 0 0 0 -0.42579,-0.7832 z m 7.00391,0 a 0.50005,0.50005 0 0 0 -0.41016,0.7832 l 1,1.5 a 0.50005,0.50005 0 1 0 0.83204,-0.55468 l -1,-1.5 a 0.50005,0.50005 0 0 0 -0.42188,-0.22852 z"/><rect style="color:#bebebe;display:inline;overflow:visible;visibility:visible;opacity:0;fill:none;stroke:none;stroke-width:1;marker:none;enable-background:new" id="rect10837-5-8-4-4-4-1" width="16" height="16" x="538" y="160" transform="matrix(0,1,1,0,0,0)"/><g id="g4555"><path style="color:#000;display:inline;overflow:visible;visibility:visible;fill:#bebebe;fill-opacity:1;fill-rule:evenodd;stroke:none;stroke-width:1;marker:none;enable-background:accumulate" id="rect11668-7-5" d="m 163,549 v 4 h 10 v -4 z m 3.34375,1.4375 c 0.0208,-10e-4 0.0417,-10e-4 0.0625,0 0.29096,-0.0556 0.59898,0.20383 0.59375,0.5 V 551 h 2 v -0.0625 c -0.004,-0.26416 0.23582,-0.50712 0.5,-0.50712 0.26418,0 0.50373,0.24296 0.5,0.50712 V 551 c 0,0.54535 -0.45465,1 -1,1 h -2 c -0.54535,0 -1,-0.45465 -1,-1 v -0.0625 c -0.0108,-0.21706 0.13723,-0.43234 0.34375,-0.5 z"/></g></g></g><rect id="rect11650" width="2" height="7" x="48" y="420" style="fill:#bebebe;fill-opacity:1;stroke:none"/></g></g></svg>