<svg xmlns="http://www.w3.org/2000/svg" xmlns:svg="http://www.w3.org/2000/svg" id="svg7384" width="16" height="16" version="1.1" viewBox="0 0 16 16"><metadata id="metadata90"/><title id="title9167">Gnome Symbolic Icon Theme</title><g id="layer12" transform="matrix(1,0,0,0.99995334,-160,-645.96911)"><path id="rect3845-5-8" d="m 160.53,651 c -0.28913,0 -0.53125,0.2421 -0.53125,0.5313 v 9.9375 c 0,0.2985 0.23264,0.5312 0.53125,0.5312 h 13.812 c 0.2986,0 0.53125,-0.2326 0.53125,-0.5312 l 1.125,-4.9159 c 0,-0.2891 -0.24212,-0.5312 -0.53125,-0.5312 h -11.594 l -0.875,3.4783 c 0,0.277 -0.223,0.5 -0.5,0.5 -0.277,0 -0.5,-0.223 -0.5,-0.5 v -4.9966 c 0,-0.277 0.223,-0.5 0.5,-0.5 h 0.46615 V 651 Z" style="fill:#bebebe"/><path id="path1234-3" d="m 164.81,645.99963 c -0.4584,0.0875 -0.82072,0.5334 -0.8125,1 v 7 H 165 v -7.00033 h 4.9975 v 4.00019 H 174 v 3.00014 h 0.9975 v -3.4375 c 0.006,-0.2641 -0.0976,-0.529 -0.28125,-0.7188 l -3.5625,-3.5624 c -0.18978,-0.1837 -0.45469,-0.28737 -0.71875,-0.28125 h -5.4375 c -0.0312,-10e-4 -0.0625,-10e-4 -0.0937,0 -0.0312,-10e-4 -0.0625,-10e-4 -0.0937,0 z" style="color:#000;text-indent:0;text-transform:none;fill:#bebebe"/></g></svg>