<svg xmlns="http://www.w3.org/2000/svg" xmlns:osb="http://www.openswatchbook.org/uri/2009/osb" xmlns:svg="http://www.w3.org/2000/svg" id="svg30571" width="16" height="16" version="1.1" viewBox="0 0 16 16"><defs id="defs30573"><linearGradient id="linearGradient19282" gradientTransform="matrix(1.2178615,0,0,1.043881,378.84797,1794.4958)" osb:paint="solid"><stop id="stop19284" offset="0" style="stop-color:#505050;stop-opacity:1"/></linearGradient><linearGradient id="linearGradient19282-1" gradientTransform="matrix(1.2178615,0,0,1.043881,356.69172,1794.4958)" osb:paint="solid"><stop id="stop19284-8" offset="0" style="stop-color:#505050;stop-opacity:1"/></linearGradient><linearGradient id="linearGradient19282-2" gradientTransform="matrix(1.2178615,0,0,1.043881,356.69172,1794.4958)" osb:paint="solid"><stop id="stop19284-1" offset="0" style="stop-color:#666;stop-opacity:1"/></linearGradient></defs><metadata id="metadata30576"/><g id="layer1" transform="translate(4.8212438,-1035.7107)"><g id="g3960" transform="matrix(1.7777778,0,0,1.7777778,-1.51717,-783.77754)"><g id="edit-delete"><path id="path39843" d="m -0.67104149,1023.4621 c -0.55400001,0 -1.18750001,0.3054 -1.18750001,0.8594 l 0,7.1406 c 0,0.554 0.6335,1 1.18750001,1 l 6.81249999,0 c 0.554,0 1,-0.446 1,-1 l 0,-7.1406 c 0,-0.554 -0.446,-0.8594 -1,-0.8594 z m 1.0968133,1.1185 2.21568669,2.2565 2.2499999,-2.25 1.125,1.125 -2.25,2.25 2.25,2.25 -1.125,1.125 -2.2499999,-2.25 -2.25000002,2.25 -1.12499998,-1.125 2.28125,-2.3125 -2.28125,-2.1875 z" style="fill:#bebebe;fill-opacity:1;stroke:none"/></g></g></g></svg>