<svg xmlns="http://www.w3.org/2000/svg" xmlns:svg="http://www.w3.org/2000/svg" id="svg30571" width="16" height="16" version="1.1" viewBox="0 0 16 16"><metadata id="metadata30576"/><g id="layer1" transform="translate(0,-1036.3622)"><g id="g4251"><g id="layer12" transform="matrix(1.0002938,0,0,1,-120.03526,498.3622)"><g id="g27035" transform="translate(79,-222)"><path style="color:#000;fill:#bebebe" id="path27041" d="m 126,540 -6,6 6,6 h 9.0353 c 0.53,-0.02 0.96,-0.49 0.96,-1 v -10 c 0,-0.53079 -0.34561,-1 -1.0089,-1 h -8.99 z m 1,3 h 1 c 0.0104,-1.2e-4 0.0208,-4.6e-4 0.0313,0 0.25495,0.0112 0.50987,0.12858 0.6875,0.3125 l 1.2812,1.2812 1.3125,-1.2812 c 0.27,-0.23 0.45,-0.3 0.69,-0.31 h 1 v 1 c 0,0.28647 -0.0343,0.55065 -0.25,0.75 l -1.2812,1.2812 1.25,1.25 c 0.19,0.19 0.28,0.45 0.28,0.72 v 1 h -1 c -0.2653,-10e-6 -0.53059,-0.0931 -0.71875,-0.28125 l -1.28,-1.28 -1.2812,1.2812 c -0.19,0.19 -0.45,0.28 -0.72,0.28 h -1 v -1 c 0,-0.26529 0.0931,-0.53058 0.28125,-0.71875 l 1.2812,-1.25 -1.2812,-1.2812 c -0.21,-0.19 -0.3,-0.47 -0.28,-0.75 v -1 z" transform="translate(-79,222)"/></g></g></g></g></svg>