<svg xmlns="http://www.w3.org/2000/svg" xmlns:osb="http://www.openswatchbook.org/uri/2009/osb" xmlns:svg="http://www.w3.org/2000/svg" xmlns:xlink="http://www.w3.org/1999/xlink" id="svg9284" width="16" height="16" version="1.1" viewBox="0 0 16 16"><defs id="defs9286"><linearGradient id="linearGradient9254" x1="15" x2="31" y1="-32" y2="-32" gradientTransform="translate(87.2708,506.4328)" gradientUnits="userSpaceOnUse" xlink:href="#linearGradient19282-4"/><linearGradient id="linearGradient19282-4" gradientTransform="matrix(0.23667958,0,0,0.20304569,-208.29645,97.782765)" osb:paint="solid"><stop style="stop-color:#bebebe;stop-opacity:1" id="stop19284-0" offset="0"/></linearGradient></defs><metadata id="metadata9289"/><g id="layer1" transform="translate(0,-1036.3622)"><g style="display:inline" id="folder-new" transform="matrix(0.9999575,0,0,0.99995063,-14.999363,1076.3602)"><path style="display:inline;fill:url(#linearGradient9254);fill-opacity:1;stroke:none" id="rect3845-53" d="m 102.80273,466.43359 c -0.28913,0 -0.53125,0.24212 -0.53125,0.53125 l 0,14.9375 c 0,0.2985 0.23264,0.53125 0.53125,0.53125 l 14.9375,0 c 0.2986,0 0.53125,-0.23265 0.53125,-0.53125 l 0,-9.9375 c 0,-0.2891 -0.24212,-0.53125 -0.53125,-0.53125 l -12.46875,0 0,8.5 c 0,0.277 -0.223,0.5 -0.5,0.5 -0.277,0 -0.5,-0.223 -0.5,-0.5 l 0,-9 c 0,-0.277 0.223,-0.5 0.5,-0.5 l 2.96875,0 8.53125,0 0,-1.40625 c 0,-0.3272 -0.26666,-0.59375 -0.59375,-0.59375 l -7.40625,0 0,-1.46875 c 0,-0.28915 -0.24212,-0.53125 -0.53125,-0.53125 l -4.9375,0 z m 8.21289,6.28125 2,0 0,3 3,0 0,2 -3,0 0,3 -2,0 0,-3 -3,0 0,-2 3,0 0,-3 z" transform="translate(-87.2708,-506.4328)"/></g></g></svg>