<svg xmlns="http://www.w3.org/2000/svg" xmlns:osb="http://www.openswatchbook.org/uri/2009/osb" xmlns:svg="http://www.w3.org/2000/svg" xmlns:xlink="http://www.w3.org/1999/xlink" id="svg7384" width="16" height="16" version="1.1" viewBox="0 0 16 16"><metadata id="metadata90"/><defs id="defs7386"><linearGradient id="linearGradient8074" osb:paint="solid"><stop id="stop8072" offset="0" style="stop-color:#be00be;stop-opacity:1"/></linearGradient><linearGradient id="linearGradient7561" osb:paint="solid"><stop id="stop7558" offset="0" style="stop-color:#a5a5a5;stop-opacity:1"/></linearGradient><linearGradient id="linearGradient7548" osb:paint="solid"><stop id="stop7546" offset="0" style="stop-color:#ebebeb;stop-opacity:1"/></linearGradient><linearGradient id="linearGradient7542" osb:paint="solid"><stop id="stop7538" offset="0" style="stop-color:#c9c9c9;stop-opacity:1"/></linearGradient><linearGradient id="linearGradient19282" gradientTransform="matrix(0,-735328.32,170712.69,0,2464326300,577972450)" osb:paint="solid"><stop id="stop19284" offset="0" style="stop-color:#b4b4b4;stop-opacity:1"/></linearGradient><linearGradient id="linearGradient19282-4" gradientTransform="matrix(0.34682586,0,0,0.30620888,-139.35207,801.03851)" osb:paint="solid"><stop id="stop19284-0" offset="0" style="stop-color:#bebebe;stop-opacity:1"/></linearGradient><linearGradient id="linearGradient8286" x1="15" x2="31" y1="-32" y2="-32" gradientTransform="translate(789.93754,380.28591)" gradientUnits="userSpaceOnUse" xlink:href="#linearGradient19282-4"/></defs><g style="display:inline" id="preferences" transform="translate(-176.61693,-222.28591)"><g id="gimp-prefs-folders" transform="translate(161.61693,262.28591)"><path style="display:inline;fill:url(#linearGradient8286);fill-opacity:1;stroke:none" id="rect3845" d="M 15.53125,-40 C 15.24212,-40 15,-39.75788 15,-39.46875 l 0,14.93755 C 15,-24.2327 15.23264,-24 15.53125,-24 l 14.9375,0 C 30.76735,-24 31,-24.2326 31,-24.5312 l 0,-9.9376 C 31,-34.7579 30.75788,-35 30.46875,-35 L 18,-35 l 0,8.5 c 0,0.277 -0.223,0.5 -0.5,0.5 -0.277,0 -0.5,-0.223 -0.5,-0.5 l 0,-9 c 0,-0.277 0.223,-0.5 0.5,-0.5 l 2.96875,0 8.53125,0 0,-1.4062 C 29,-37.7334 28.73334,-38 28.40625,-38 L 21,-38 21,-39.46875 C 21,-39.7579 20.75788,-40 20.46875,-40 Z"/></g></g></svg>