<svg xmlns="http://www.w3.org/2000/svg" xmlns:osb="http://www.openswatchbook.org/uri/2009/osb" xmlns:svg="http://www.w3.org/2000/svg" xmlns:xlink="http://www.w3.org/1999/xlink" id="svg7384" width="22" height="22" version="1.1" viewBox="0 0 22 22"><metadata id="metadata90"/><defs id="defs7386"><linearGradient id="linearGradient19282-4" gradientTransform="matrix(0.34682586,0,0,0.30620888,-154.35207,-275.32368)" osb:paint="solid"><stop id="stop19284-0" offset="0" style="stop-color:#bebebe;stop-opacity:1"/></linearGradient><linearGradient id="linearGradient7501" x1="-21" x2="-9" y1="1047.362" y2="1047.362" gradientTransform="matrix(1.6666667,0,0,1,-1444.4187,-901.56966)" gradientUnits="userSpaceOnUse" xlink:href="#linearGradient19282-4"/><linearGradient id="linearGradient7503" x1="-21" x2="-9" y1="1041.362" y2="1041.362" gradientTransform="translate(-875.0512,-901.56966)" gradientUnits="userSpaceOnUse" xlink:href="#linearGradient19282-4"/><linearGradient id="linearGradient7505" x1="-21" x2="-9" y1="1035.362" y2="1035.362" gradientTransform="matrix(1.6666667,0,0,1,-1444.4187,-907.56966)" gradientUnits="userSpaceOnUse" xlink:href="#linearGradient19282-4"/><linearGradient id="linearGradient7503-1" x1="-21" x2="-9" y1="1041.362" y2="1041.362" gradientTransform="translate(-875.0512,-907.56966)" gradientUnits="userSpaceOnUse" xlink:href="#linearGradient19282-4"/><linearGradient id="linearGradient4295" x1="1" x2="8" y1="11" y2="11" gradientUnits="userSpaceOnUse" xlink:href="#linearGradient19282-4"/></defs><g id="g4322"><rect id="rect5996-2-1-0-7-8-0-9" width="20" height="2" x="-21" y="19" transform="scale(-1,1)" style="color:#555753;display:inline;overflow:visible;fill:url(#linearGradient7501);fill-opacity:1;stroke-width:1.17363131"/><rect id="rect5996-2-1-0-7-5-7-64" width="12" height="2" x="-21" y="13" transform="scale(-1,1)" style="color:#555753;display:inline;overflow:visible;fill:url(#linearGradient7503);fill-opacity:1;stroke-width:.90909088"/><rect id="rect5996-2-1-0-4-1-0" width="20" height="2" x="-21" y="1" transform="scale(-1,1)" style="color:#555753;display:inline;overflow:visible;fill:url(#linearGradient7505);fill-opacity:1;stroke-width:1.17363131"/><rect id="rect5996-2-1-0-7-5-7-64-4" width="12" height="2" x="-21" y="7" transform="scale(-1,1)" style="color:#555753;display:inline;overflow:visible;fill:url(#linearGradient7503-1);fill-opacity:1;stroke-width:.90909088"/><path id="path4538-7-9-6" d="m 1,7.000375 v 1.333208 c 0,0.34249 0.1817623,0.704478 0.4375003,0.958345 L 3.8000002,11 1.4375003,12.708447 C 1.1817623,12.962189 1,13.324302 1,13.666792 v 1.333333 h 0.578508 l 0.8214916,-2.5e-4 c 0.43323,0 0.7732483,-0.119996 1.05,-0.374988 C 5.4333381,13.194306 6.0166614,12.430705 8,11 L 3.4499996,7.3751133 C 3.1732479,7.1206212 2.8332296,7.000125 2.3999996,7.000125 l -0.8214916,2.5e-4 z" style="color:#555753;font-style:normal;font-variant:normal;font-weight:400;font-stretch:normal;font-size:medium;line-height:normal;font-family:'Bitstream Vera Sans';-inkscape-font-specification:'Bitstream Vera Sans';text-indent:0;text-align:start;text-decoration:none;text-decoration-line:none;letter-spacing:normal;word-spacing:normal;text-transform:none;writing-mode:lr-tb;direction:ltr;text-anchor:start;display:inline;overflow:visible;visibility:visible;fill:url(#linearGradient4295);fill-opacity:1;stroke:none;stroke-width:2.04935813;marker:none;enable-background:accumulate"/></g></svg>