<svg xmlns="http://www.w3.org/2000/svg" xmlns:osb="http://www.openswatchbook.org/uri/2009/osb" xmlns:svg="http://www.w3.org/2000/svg" xmlns:xlink="http://www.w3.org/1999/xlink" id="svg7384" width="24" height="24" version="1.1" viewBox="0 0 24 24"><metadata id="metadata90"/><defs id="defs7386"><linearGradient id="linearGradient19282-4" gradientTransform="matrix(0.34682586,0,0,0.30620888,-154.35207,-275.32368)" osb:paint="solid"><stop id="stop19284-0" offset="0" style="stop-color:#bebebe;stop-opacity:1"/></linearGradient><linearGradient id="linearGradient10004" x1="-2.5" x2="7.655" y1="1025.362" y2="1025.362" gradientTransform="translate(506.85328,121.76312)" gradientUnits="userSpaceOnUse" xlink:href="#linearGradient19282-4"/><linearGradient id="linearGradient10010" x1="3.593" x2="4.608" y1="1023.862" y2="1023.862" gradientTransform="translate(506.85328,121.76312)" gradientUnits="userSpaceOnUse" xlink:href="#linearGradient19282-4"/><linearGradient id="linearGradient10012" x1="5.624" x2="6.639" y1="1023.862" y2="1023.862" gradientTransform="translate(506.85328,121.76312)" gradientUnits="userSpaceOnUse" xlink:href="#linearGradient19282-4"/><linearGradient id="linearGradient10018" x1="5" x2="19" y1="1045.362" y2="1045.362" gradientTransform="translate(998.26335,243.52516)" gradientUnits="userSpaceOnUse" xlink:href="#linearGradient19282-4"/></defs><g style="display:inline" id="stock" transform="translate(-540.4522,-76.493923)"><g id="gimp-text-dir-rtl" transform="translate(540.4522,-951.86826)"><path style="fill:url(#linearGradient10018);fill-opacity:1;stroke:none;stroke-width:1.20939934" id="path12078-81" d="m 10,1039.3622 -5,6.0352 5,5.9648 0,-4.041 c 1.332094,-0.029 9,0.041 9,0.041 l 0,-4 c 0,0 -7.667576,0.01 -9,0.019 z"/><g id="g6793" transform="matrix(1.9695312,0,0,1.9999913,6.923828,-1017.3533)"><path id="path7162-8" d="m -2.5,1023.3622 0,3 c 0,0 0,1 1,1 1,0 3,0 3,0 l 1,-1.5371 1,1.5371 3,0 c 1,0 2,-2 0,-2 l -1,0 1,1 -3,0 -1,-1.5371 -1,1.5371 -3,0 0,-3 z" style="fill:url(#linearGradient10004);fill-opacity:1;stroke:none"/><rect id="rect7164-7" width="1.015" height="1" x="5.624" y="1023.362" style="opacity:.3;fill:url(#linearGradient10012);fill-opacity:1;stroke:none;stroke-width:1.00770533"/><rect style="opacity:.3;fill:url(#linearGradient10010);fill-opacity:1;stroke:none;stroke-width:1.00770533" id="rect7174-6" width="1.015" height="1" x="3.593" y="1023.362"/></g></g></g></svg>