<svg xmlns="http://www.w3.org/2000/svg" xmlns:osb="http://www.openswatchbook.org/uri/2009/osb" xmlns:svg="http://www.w3.org/2000/svg" xmlns:xlink="http://www.w3.org/1999/xlink" id="svg7384" width="22" height="22" version="1.1" viewBox="0 0 22 22"><metadata id="metadata90"/><defs id="defs7386"><linearGradient id="linearGradient8074" osb:paint="solid"><stop id="stop8072" offset="0" style="stop-color:#be00be;stop-opacity:1"/></linearGradient><linearGradient id="linearGradient7561" osb:paint="solid"><stop id="stop7558" offset="0" style="stop-color:#a5a5a5;stop-opacity:1"/></linearGradient><linearGradient id="linearGradient7548" osb:paint="solid"><stop id="stop7546" offset="0" style="stop-color:#ebebeb;stop-opacity:1"/></linearGradient><linearGradient id="linearGradient7542" osb:paint="solid"><stop id="stop7538" offset="0" style="stop-color:#c9c9c9;stop-opacity:1"/></linearGradient><linearGradient id="linearGradient19282" gradientTransform="matrix(0,-735328.32,170712.69,0,2464326300,577972450)" osb:paint="solid"><stop id="stop19284" offset="0" style="stop-color:#b4b4b4;stop-opacity:1"/></linearGradient><linearGradient id="linearGradient19282-4" gradientTransform="matrix(0.34682586,0,0,0.30620888,-154.35207,-275.32368)" osb:paint="solid"><stop id="stop19284-0" offset="0" style="stop-color:#bebebe;stop-opacity:1"/></linearGradient><linearGradient id="linearGradient7501" x1="-21" x2="-9" y1="1047.362" y2="1047.362" gradientTransform="translate(-875.0512,125.79252)" gradientUnits="userSpaceOnUse" xlink:href="#linearGradient19282-4"/><linearGradient id="linearGradient7503" x1="-21" x2="-9" y1="1041.362" y2="1041.362" gradientTransform="translate(-875.0512,125.79252)" gradientUnits="userSpaceOnUse" xlink:href="#linearGradient19282-4"/><linearGradient id="linearGradient7505" x1="-21" x2="-9" y1="1035.362" y2="1035.362" gradientTransform="translate(-875.0512,125.79252)" gradientUnits="userSpaceOnUse" xlink:href="#linearGradient19282-4"/><linearGradient id="linearGradient7520" x1="872.49" x2="878.475" y1="136.804" y2="136.804" gradientTransform="translate(875.0512,125.79252)" gradientUnits="userSpaceOnUse" xlink:href="#linearGradient19282-4"/></defs><g style="display:inline" id="stock" transform="translate(-417.24005,41.238717)"><g id="gimp-line-spacing" transform="translate(417.24004,-1071.6009)"><rect style="color:#555753;display:inline;overflow:visible;fill:url(#linearGradient7501);fill-opacity:1;stroke-width:.90909088" id="rect5996-2-1-0-7-8-0-9" width="12" height="2" x="-21" y="1046.362" transform="scale(-1,1)"/><path id="path4538-2-6-6-3-9" d="m 875.48242,127.81445 c -1.06986,1.4053 -1.64107,1.82388 -2.71094,3.23828 -0.19039,0.1904 -0.28125,0.43399 -0.28125,0.74219 l 0,0.58985 0,0.4082 0.99805,0 c 0.25387,0 0.52445,-0.1273 0.71484,-0.30859 l 0.28711,-0.37891 0,9.37891 -0.28711,-0.37891 c -0.19038,-0.1814 -0.46097,-0.30859 -0.71484,-0.30859 l -0.99805,0 0,0.42578 0,0.58984 c 0,0.3082 0.0909,0.54474 0.28125,0.74414 l 2.71094,3.23633 c 1.06986,-1.4144 1.64108,-1.8317 2.71094,-3.24609 0.1904,-0.19951 0.28125,-0.44366 0.28125,-0.75196 l 0,-0.58984 0,-0.4082 -0.99805,0 c -0.25386,0 -0.5264,0.12719 -0.71679,0.30859 l -0.26954,0.35547 0,-9.33203 0.26954,0.35547 c 0.19039,0.18129 0.46293,0.30859 0.71679,0.30859 l 0.99805,0 0,-0.39063 0,-0.58984 c 0,-0.3173 -0.0908,-0.55245 -0.28125,-0.75195 z" transform="translate(-871.49015,904.56966)" style="color:#555753;font-size:medium;line-height:normal;font-family:'Bitstream Vera Sans';-inkscape-font-specification:'Bitstream Vera Sans';text-indent:0;text-align:start;text-decoration:none;text-decoration-line:none;letter-spacing:normal;word-spacing:normal;text-transform:none;direction:ltr;writing-mode:lr-tb;text-anchor:start;display:inline;overflow:visible;fill:url(#linearGradient7520);fill-opacity:1;stroke-width:.90666217;enable-background:accumulate"/><rect style="color:#555753;display:inline;overflow:visible;fill:url(#linearGradient7503);fill-opacity:1;stroke-width:.90909088" id="rect5996-2-1-0-7-5-7-64" width="12" height="2" x="-21" y="1040.362" transform="scale(-1,1)"/><rect style="color:#555753;display:inline;overflow:visible;fill:url(#linearGradient7505);fill-opacity:1;stroke-width:.90909094" id="rect5996-2-1-0-4-1-0" width="12" height="2" x="-21" y="1034.362" transform="scale(-1,1)"/></g></g></svg>