<svg xmlns="http://www.w3.org/2000/svg" xmlns:osb="http://www.openswatchbook.org/uri/2009/osb" xmlns:svg="http://www.w3.org/2000/svg" xmlns:xlink="http://www.w3.org/1999/xlink" id="svg7384" width="16" height="16" version="1.1" viewBox="0 0 16 16"><metadata id="metadata90"/><defs id="defs7386"><linearGradient id="linearGradient8074" osb:paint="solid"><stop id="stop8072" offset="0" style="stop-color:#be00be;stop-opacity:1"/></linearGradient><linearGradient id="linearGradient7561" osb:paint="solid"><stop id="stop7558" offset="0" style="stop-color:#a5a5a5;stop-opacity:1"/></linearGradient><linearGradient id="linearGradient7548" osb:paint="solid"><stop id="stop7546" offset="0" style="stop-color:#ebebeb;stop-opacity:1"/></linearGradient><linearGradient id="linearGradient7542" osb:paint="solid"><stop id="stop7538" offset="0" style="stop-color:#c9c9c9;stop-opacity:1"/></linearGradient><linearGradient id="linearGradient19282" gradientTransform="matrix(0,-735328.32,170712.69,0,2464326300,577972450)" osb:paint="solid"><stop id="stop19284" offset="0" style="stop-color:#b4b4b4;stop-opacity:1"/></linearGradient><linearGradient id="linearGradient19282-4" gradientTransform="matrix(0.34682586,0,0,0.30620888,-70.089625,664.07603)" osb:paint="solid"><stop id="stop19284-0" offset="0" style="stop-color:#bebebe;stop-opacity:1"/></linearGradient><linearGradient id="linearGradient7524" x1="84.262" x2="100.262" y1="104.963" y2="104.963" gradientTransform="translate(457.81114,167.03124)" gradientUnits="userSpaceOnUse" xlink:href="#linearGradient19282-4"/><linearGradient id="linearGradient7262" x1="-95" x2="-84" y1="188.5" y2="188.5" gradientTransform="translate(602.26646,-49.251471)" gradientUnits="userSpaceOnUse" xlink:href="#linearGradient19282-4"/><linearGradient id="linearGradient7262-6" x1="-95" x2="-84" y1="188.5" y2="188.5" gradientTransform="translate(602.26646,-49.251471)" gradientUnits="userSpaceOnUse" xlink:href="#linearGradient19282-4"/></defs><g style="display:inline" id="stock" transform="translate(-84.262445,-96.962611)"><path style="fill:url(#linearGradient7524);fill-opacity:1;stroke-width:.08724019" id="gimp-tool-options" d="M 7.9628906,0 C 7.6706606,0 7.1173,0.31659312 7.0625,0.53320312 L 6.2207031,2 H 0 v 10 h 2 l -1,4 h 1 l 0.5,-2 h 11 l 0.5,2 h 1 l -1,-4 h 2 V 3.9998693 l -1,1 V 11 H 9 l -1,1 h 5 v 1 H 3 V 12 H 4 V 11 H 1 V 3 H 11 L 12,2 H 9.8828125 L 8.8730469,0.43359375 C 8.6863369,0.18981375 8.2504706,0 7.9628906,0 Z M 8,1 8.5,2 h -1 z" transform="translate(84.262445,96.962611)"/></g><path style="fill:url(#linearGradient7262-6);fill-opacity:1;fill-rule:evenodd;stroke:none" id="path2273-6-2-3" d="m 14,0.99986935 -1,0.99999995 2,2 1,-1 c 0,-1 -1,-1.99999995 -2,-1.99999995 z M 11.602252,3.3976193 5,9.9998693 v 1.9999997 h 2 l 6.602252,-6.6022497 z"/></svg>