<svg xmlns="http://www.w3.org/2000/svg" xmlns:osb="http://www.openswatchbook.org/uri/2009/osb" xmlns:svg="http://www.w3.org/2000/svg" xmlns:xlink="http://www.w3.org/1999/xlink" id="svg7384" width="16" height="16" version="1.1" viewBox="0 0 16 16"><metadata id="metadata90"/><defs id="defs7386"><linearGradient id="linearGradient8074" osb:paint="solid"><stop id="stop8072" offset="0" style="stop-color:#be00be;stop-opacity:1"/></linearGradient><linearGradient id="linearGradient7561" osb:paint="solid"><stop id="stop7558" offset="0" style="stop-color:#a5a5a5;stop-opacity:1"/></linearGradient><linearGradient id="linearGradient7548" osb:paint="solid"><stop id="stop7546" offset="0" style="stop-color:#ebebeb;stop-opacity:1"/></linearGradient><linearGradient id="linearGradient7542" osb:paint="solid"><stop id="stop7538" offset="0" style="stop-color:#c9c9c9;stop-opacity:1"/></linearGradient><linearGradient id="linearGradient19282" gradientTransform="matrix(0,-735328.32,170712.69,0,2464326300,577972450)" osb:paint="solid"><stop id="stop19284" offset="0" style="stop-color:#b4b4b4;stop-opacity:1"/></linearGradient><linearGradient id="linearGradient19282-4" gradientTransform="matrix(0.34682586,0,0,0.30620888,46.648128,484.03851)" osb:paint="solid"><stop id="stop19284-0" offset="0" style="stop-color:#bebebe;stop-opacity:1"/></linearGradient><linearGradient id="linearGradient10064" x1="202" x2="216" y1="281" y2="281" gradientTransform="translate(278.11248,207.87838)" gradientUnits="userSpaceOnUse" xlink:href="#linearGradient19282-4"/><linearGradient id="linearGradient10070" x1="203" x2="215" y1="282.5" y2="282.5" gradientTransform="translate(278.11248,207.87838)" gradientUnits="userSpaceOnUse" xlink:href="#linearGradient19282-4"/><linearGradient id="linearGradient10076" x1="202" x2="216" y1="287.5" y2="287.5" gradientTransform="translate(278.11248,207.87838)" gradientUnits="userSpaceOnUse" xlink:href="#linearGradient19282-4"/><linearGradient id="linearGradient10078" x1="212" x2="216" y1="290.5" y2="290.5" gradientTransform="translate(278.11248,207.87838)" gradientUnits="userSpaceOnUse" xlink:href="#linearGradient19282-4"/><linearGradient id="linearGradient10080" x1="202" x2="206" y1="290.5" y2="290.5" gradientTransform="translate(278.11248,207.87838)" gradientUnits="userSpaceOnUse" xlink:href="#linearGradient19282-4"/></defs><g style="display:inline" id="tools" transform="translate(12.521201,-272.40186)"><g id="gimp-tool-threshold" transform="translate(-213.5214,-4.59814)" style="display:inline"><rect style="fill:url(#linearGradient10076);fill-opacity:1;stroke:none" id="rect5422" width="14" height="1" x="202" y="287"/><path style="fill:url(#linearGradient10080);fill-opacity:1;stroke:none" id="path5424" d="m 204.0002,289 -2,3 4,0 z"/><path style="display:inline;fill:url(#linearGradient10078);fill-opacity:1;stroke:none" id="path5424-6" d="m 214.0002,289 -2,3 4,0 z"/><path style="fill:url(#linearGradient10064);fill-opacity:1;stroke:none" id="rect5444" d="m 202.0002,277 0,8 14,0 0,-8 z m 1,1 12,0 0,6 -12,0 z"/><path style="fill:url(#linearGradient10070);fill-opacity:1;stroke:none" id="path5449" d="m 203.0002,284 0.625,-0.53125 0.375,-0.46875 1,0 0,0 1,-1 1,0 1,1 1,0 0.46875,1 0.90625,0 0.625,-1 1,-1 0,-1 0,0 0,0 0,0 1,1 1,1 0,0 1,0.40625 0,0.59375 z"/></g></g></svg>