<svg xmlns="http://www.w3.org/2000/svg" xmlns:osb="http://www.openswatchbook.org/uri/2009/osb" xmlns:svg="http://www.w3.org/2000/svg" xmlns:xlink="http://www.w3.org/1999/xlink" id="svg7384" width="16" height="16" version="1.1" viewBox="0 0 16 16"><metadata id="metadata90"/><defs id="defs7386"><linearGradient id="linearGradient8074" osb:paint="solid"><stop id="stop8072" offset="0" style="stop-color:#be00be;stop-opacity:1"/></linearGradient><linearGradient id="linearGradient7561" osb:paint="solid"><stop id="stop7558" offset="0" style="stop-color:#a5a5a5;stop-opacity:1"/></linearGradient><linearGradient id="linearGradient7548" osb:paint="solid"><stop id="stop7546" offset="0" style="stop-color:#ebebeb;stop-opacity:1"/></linearGradient><linearGradient id="linearGradient7542" osb:paint="solid"><stop id="stop7538" offset="0" style="stop-color:#c9c9c9;stop-opacity:1"/></linearGradient><linearGradient id="linearGradient19282" gradientTransform="matrix(0,-735328.32,170712.69,0,2464326300,577972450)" osb:paint="solid"><stop id="stop19284" offset="0" style="stop-color:#b4b4b4;stop-opacity:1"/></linearGradient><linearGradient id="linearGradient19282-4" gradientTransform="matrix(0.34682586,0,0,0.30620888,26.64813,282.03851)" osb:paint="solid"><stop id="stop19284-0" offset="0" style="stop-color:#bebebe;stop-opacity:1"/></linearGradient><linearGradient id="linearGradient7984" x1="-57" x2="-52" y1="270" y2="270" gradientTransform="translate(636.09423,317.9785)" gradientUnits="userSpaceOnUse" xlink:href="#linearGradient19282-4"/><linearGradient id="linearGradient7990" x1="-52" x2="-47" y1="270" y2="270" gradientTransform="translate(636.09423,317.9785)" gradientUnits="userSpaceOnUse" xlink:href="#linearGradient19282-4"/><linearGradient id="linearGradient7996" x1="185" x2="193" y1="490" y2="490" gradientTransform="translate(636.09423,317.9785)" gradientUnits="userSpaceOnUse" xlink:href="#linearGradient19282-4"/><linearGradient id="linearGradient8002" x1="-59" x2="-45" y1="270" y2="270" gradientTransform="translate(636.09423,317.9785)" gradientUnits="userSpaceOnUse" xlink:href="#linearGradient19282-4"/><linearGradient id="linearGradient8008" x1="188" x2="189" y1="488.5" y2="488.5" gradientTransform="translate(636.09423,317.9785)" gradientUnits="userSpaceOnUse" xlink:href="#linearGradient19282-4"/><linearGradient id="linearGradient8010" x1="186" x2="187" y1="490.5" y2="490.5" gradientTransform="translate(636.09423,317.9785)" gradientUnits="userSpaceOnUse" xlink:href="#linearGradient19282-4"/><linearGradient id="linearGradient8012" x1="-54" x2="-53" y1="272.5" y2="272.5" gradientTransform="translate(636.09423,317.9785)" gradientUnits="userSpaceOnUse" xlink:href="#linearGradient19282-4"/><linearGradient id="linearGradient8014" x1="188" x2="189" y1="490.5" y2="490.5" gradientTransform="translate(636.09423,317.9785)" gradientUnits="userSpaceOnUse" xlink:href="#linearGradient19282-4"/><linearGradient id="linearGradient8016" x1="-54" x2="-53" y1="274.5" y2="274.5" gradientTransform="translate(636.09423,317.9785)" gradientUnits="userSpaceOnUse" xlink:href="#linearGradient19282-4"/><linearGradient id="linearGradient8018" x1="-56" x2="-55" y1="274.5" y2="274.5" gradientTransform="translate(636.09423,317.9785)" gradientUnits="userSpaceOnUse" xlink:href="#linearGradient19282-4"/><linearGradient id="linearGradient8020" x1="-55" x2="-54" y1="274.5" y2="274.5" gradientTransform="translate(636.09423,317.9785)" gradientUnits="userSpaceOnUse" xlink:href="#linearGradient19282-4"/><linearGradient id="linearGradient8026" x1="-54" x2="-53" y1="273.5" y2="273.5" gradientTransform="translate(636.09423,317.9785)" gradientUnits="userSpaceOnUse" xlink:href="#linearGradient19282-4"/></defs><g style="display:inline" id="stock" transform="translate(-178.28308,-150.94726)"><g id="gimp-gradient-conical-asymmetric" transform="translate(-2.7171208,-328.05274)" style="display:inline"><path style="fill:url(#linearGradient8002);fill-opacity:1;stroke:none" id="rect6573" d="m -59,263 0,14 14,0 0,-14 z m 1,1 12,0 0,12 -12,0 z" transform="translate(241.0002,217)"/><path style="fill:none;stroke:none" id="path6578" d="m -58,264 6,6 6,-6 z" transform="translate(241.0002,217)"/><path style="fill:url(#linearGradient7984);fill-opacity:1;stroke:none" id="path6582" d="m -57,265 0,10 5,-5 z" transform="translate(241.0002,217)"/><path style="opacity:.3;fill:url(#linearGradient7990);fill-opacity:1;stroke:none" id="path6584" d="m -52,270 5,-5 0,10 z" transform="translate(241.0002,217)"/><path style="opacity:.3;fill:url(#linearGradient7996);fill-opacity:1;stroke:none" id="path6592" d="m 189.0002,488 0,0 0,0 0,1 -1,0 0,1 0,2 1,0 1,0 3,0 z m -4,4 0,0 c 2.21622,0 2.21622,0 0,0 z"/><rect style="fill:url(#linearGradient8016);fill-opacity:1;stroke:none" id="rect6617" width="1" height="1" x="-54" y="274" transform="translate(241.0002,217)"/><rect style="fill:url(#linearGradient8018);fill-opacity:1;stroke:none" id="rect6619" width="1" height="1" x="-56" y="274" transform="translate(241.0002,217)"/><rect style="fill:url(#linearGradient8010);fill-opacity:1;stroke:none" id="rect6621" width="1" height="1" x="186" y="490"/><rect style="fill:url(#linearGradient8012);fill-opacity:1;stroke:none" id="rect6623" width="1" height="1" x="-54" y="272" transform="translate(241.0002,217)"/><rect id="rect6625" width="1" height="1" x="188" y="490" style="fill:url(#linearGradient8014);fill-opacity:1;stroke:none"/><rect style="fill:url(#linearGradient8008);fill-opacity:1;stroke:none" id="rect6627" width="1" height="1" x="188" y="488"/><rect style="opacity:.3;fill:url(#linearGradient8020);fill-opacity:1;stroke:none" id="rect6631" width="1" height="1" x="-55" y="274" transform="translate(241.0002,217)"/><rect style="opacity:.3;fill:url(#linearGradient8026);fill-opacity:1;stroke:none" id="rect6633" width="1" height="1" x="-54" y="273" transform="translate(241.0002,217)"/></g></g></svg>