<svg xmlns="http://www.w3.org/2000/svg" xmlns:osb="http://www.openswatchbook.org/uri/2009/osb" xmlns:svg="http://www.w3.org/2000/svg" xmlns:xlink="http://www.w3.org/1999/xlink" id="svg7384" width="16" height="16" version="1.1" viewBox="0 0 16 16"><metadata id="metadata90"/><defs id="defs7386"><linearGradient id="linearGradient8074" osb:paint="solid"><stop id="stop8072" offset="0" style="stop-color:#be00be;stop-opacity:1"/></linearGradient><linearGradient id="linearGradient7561" osb:paint="solid"><stop id="stop7558" offset="0" style="stop-color:#a5a5a5;stop-opacity:1"/></linearGradient><linearGradient id="linearGradient7548" osb:paint="solid"><stop id="stop7546" offset="0" style="stop-color:#ebebeb;stop-opacity:1"/></linearGradient><linearGradient id="linearGradient7542" osb:paint="solid"><stop id="stop7538" offset="0" style="stop-color:#c9c9c9;stop-opacity:1"/></linearGradient><linearGradient id="linearGradient19282" gradientTransform="matrix(0,-735328.32,170712.69,0,2464326300,577972450)" osb:paint="solid"><stop id="stop19284" offset="0" style="stop-color:#b4b4b4;stop-opacity:1"/></linearGradient><linearGradient id="linearGradient19282-4" gradientTransform="matrix(0.34682586,0,0,0.30620888,104.68548,827.80686)" osb:paint="solid"><stop id="stop19284-0" offset="0" style="stop-color:#bebebe;stop-opacity:1"/></linearGradient><linearGradient id="linearGradient7484" x1="807.258" x2="823.258" y1="341.463" y2="341.463" gradientTransform="translate(810.53908,333.59289)" gradientUnits="userSpaceOnUse" xlink:href="#linearGradient19282-4"/><linearGradient id="linearGradient7493" x1="265.048" x2="269.048" y1="-58.756" y2="-58.756" gradientTransform="translate(810.53908,333.59289)" gradientUnits="userSpaceOnUse" xlink:href="#linearGradient19282-4"/></defs><g style="display:inline" id="preferences" transform="matrix(1,0,0,0.99996444,-197.21847,-175.58665)"><g id="gimp-prefs-default-grid" transform="translate(-61.819084,242.36181)"><g id="g6669" transform="translate(164.03761,-46.768919)"><g id="g6196" transform="translate(-26.000198,-399)" style="display:inline"><path id="rect6300-3" d="m 807.25781,333.46289 v 1 4 1 4 1 4 1 h 1 15 v -1 -15 h -15 z m 1,1 h 4 v 4 h -4 z m 5,0 h 4 v 4 h -4 z m 5,0 h 4 v 4 h -4 z m -10,5 h 4 v 4 h -4 z m 5,0 h 4 v 4 h -4 z m 5,0 h 4 v 4 h -4 z m -10,5 h 4 v 4 h -4 z m 5,0 h 4 v 4 h -4 z m 5,0 h 4 v 4 h -4 z" transform="translate(-686.25767,45.537679)" style="fill:url(#linearGradient7484);fill-opacity:1;stroke:none"/></g></g><rect style="color:#000;clip-rule:nonzero;display:inline;overflow:visible;visibility:visible;opacity:.5;isolation:auto;mix-blend-mode:normal;color-interpolation:sRGB;color-interpolation-filters:linearRGB;solid-color:#000;solid-opacity:1;fill:url(#linearGradient7493);fill-opacity:1;fill-rule:nonzero;stroke:none;stroke-width:.16485044;stroke-linecap:round;stroke-linejoin:round;stroke-miterlimit:4;stroke-dasharray:none;stroke-dashoffset:0;stroke-opacity:1;color-rendering:auto;image-rendering:auto;shape-rendering:auto;text-rendering:auto;enable-background:accumulate" id="rect5825" width="4" height="4" x="265.048" y="-60.756"/></g></g></svg>