<svg xmlns="http://www.w3.org/2000/svg" xmlns:osb="http://www.openswatchbook.org/uri/2009/osb" xmlns:svg="http://www.w3.org/2000/svg" xmlns:xlink="http://www.w3.org/1999/xlink" id="svg7384" width="16" height="16" version="1.1" viewBox="0 0 16 16"><metadata id="metadata90"/><defs id="defs7386"><linearGradient id="linearGradient8074" osb:paint="solid"><stop id="stop8072" offset="0" style="stop-color:#be00be;stop-opacity:1"/></linearGradient><linearGradient id="linearGradient7561" osb:paint="solid"><stop id="stop7558" offset="0" style="stop-color:#a5a5a5;stop-opacity:1"/></linearGradient><linearGradient id="linearGradient7548" osb:paint="solid"><stop id="stop7546" offset="0" style="stop-color:#ebebeb;stop-opacity:1"/></linearGradient><linearGradient id="linearGradient7542" osb:paint="solid"><stop id="stop7538" offset="0" style="stop-color:#c9c9c9;stop-opacity:1"/></linearGradient><linearGradient id="linearGradient19282" gradientTransform="matrix(0,-735328.32,170712.69,0,2464326300,577972450)" osb:paint="solid"><stop id="stop19284" offset="0" style="stop-color:#b4b4b4;stop-opacity:1"/></linearGradient><linearGradient id="linearGradient19282-4" gradientTransform="matrix(0.34682586,0,0,0.30620888,-154.35207,-275.32368)" osb:paint="solid"><stop id="stop19284-0" offset="0" style="stop-color:#bebebe;stop-opacity:1"/></linearGradient><linearGradient id="linearGradient11623" x1="9" x2="13" y1="1043.362" y2="1043.362" gradientTransform="translate(227.34232,234.0053)" gradientUnits="userSpaceOnUse" xlink:href="#linearGradient19282-4"/><linearGradient id="linearGradient11625" x1="6" x2="16" y1="1049.362" y2="1049.362" gradientTransform="translate(227.34232,234.0053)" gradientUnits="userSpaceOnUse" xlink:href="#linearGradient19282-4"/><linearGradient id="linearGradient11631" x1="7.667" x2="14.333" y1="1045.362" y2="1045.362" gradientTransform="translate(227.34232,234.0053)" gradientUnits="userSpaceOnUse" xlink:href="#linearGradient19282-4"/><linearGradient id="linearGradient11637" x1="1.668" x2="8.338" y1="1041.56" y2="1041.56" gradientTransform="translate(227.47109,234.13778)" gradientUnits="userSpaceOnUse" xlink:href="#linearGradient19282-4"/><linearGradient id="linearGradient11639" x1="0" x2="10.006" y1="1045.562" y2="1045.562" gradientTransform="translate(227.47109,234.13778)" gradientUnits="userSpaceOnUse" xlink:href="#linearGradient19282-4"/><linearGradient id="linearGradient11647" x1="3.002" x2="7.004" y1="1039.559" y2="1039.559" gradientTransform="translate(227.47109,234.13778)" gradientUnits="userSpaceOnUse" xlink:href="#linearGradient19282-4"/></defs><g style="display:inline" id="tools" transform="translate(63.291364,-298.52879)"><g id="gimp-tool-seamless-clone" transform="translate(-63.291364,-737.83339)"><g id="g7369" transform="matrix(0.99943389,0,0,0.9994342,0,0.39154426)"><path style="fill:url(#linearGradient11639);fill-opacity:1;stroke:none;stroke-width:.03382257" id="path5582-0-6" d="m 6.694474e-7,1044.5617 0,2.0011 5.0028323305526,0 -1.6676141,-2.0011 z M 5.002833,1046.5628 l 5.002832,0 0,-2.0011 -3.335218,0 z"/><path style="fill:url(#linearGradient11637);fill-opacity:1;stroke:none;stroke-width:.03382257" id="path5584-1-5" d="m 1.6676147,1043.6301 c 0,0 2.6681706,0 2.6681706,-4.6578 0.6670477,-0.9315 1.3340954,0 1.3340954,0 0,4.6578 2.6681705,4.6578 2.6681705,4.6578 l 0,0.9316 -6.6704365,0 z"/><ellipse style="fill:url(#linearGradient11647);fill-opacity:1;stroke:none;stroke-width:.03382257" id="path5586-5-0" cx="5.003" cy="1039.559" rx="2.001" ry="2.001"/></g><g id="g7374" transform="translate(0,1)"><path style="fill:url(#linearGradient11625);fill-opacity:1;stroke:none;stroke-width:.03380328" id="path5582-5-4" d="m 6,1048.3622 0,2 5,0 -1.6666711,-2 z m 5,2 5,0 0,-2 -3.333331,0 z"/><path style="fill:url(#linearGradient11631);fill-opacity:1;stroke:none;stroke-width:.03380328" id="path5584-5-7" d="m 7.6666679,1047.4312 c 0,0 2.6666611,0 2.6666611,-4.6551 0.666671,-0.9311 1.333339,0 1.333339,0 0,4.6551 2.666661,4.6551 2.666661,4.6551 l 0,0.931 -6.6666611,0 z"/><ellipse style="fill:url(#linearGradient11623);fill-opacity:1;stroke:none;stroke-width:.03380328" id="path5586-0-0" cx="11" cy="1043.362" rx="2" ry="2"/></g></g></g></svg>