<svg xmlns="http://www.w3.org/2000/svg" xmlns:osb="http://www.openswatchbook.org/uri/2009/osb" xmlns:svg="http://www.w3.org/2000/svg" xmlns:xlink="http://www.w3.org/1999/xlink" id="svg7384" width="16" height="16" version="1.1" viewBox="0 0 16 16"><metadata id="metadata90"/><defs id="defs7386"><linearGradient id="linearGradient8074" osb:paint="solid"><stop id="stop8072" offset="0" style="stop-color:#be00be;stop-opacity:1"/></linearGradient><linearGradient id="linearGradient7561" osb:paint="solid"><stop id="stop7558" offset="0" style="stop-color:#a5a5a5;stop-opacity:1"/></linearGradient><linearGradient id="linearGradient7548" osb:paint="solid"><stop id="stop7546" offset="0" style="stop-color:#ebebeb;stop-opacity:1"/></linearGradient><linearGradient id="linearGradient7542" osb:paint="solid"><stop id="stop7538" offset="0" style="stop-color:#c9c9c9;stop-opacity:1"/></linearGradient><linearGradient id="linearGradient19282" gradientTransform="matrix(0,-735328.32,170712.69,0,2464326300,577972450)" osb:paint="solid"><stop id="stop19284" offset="0" style="stop-color:#b4b4b4;stop-opacity:1"/></linearGradient><linearGradient id="linearGradient19282-4" gradientTransform="matrix(0.34682586,0,0,0.30620888,-13.35187,322.03851)" osb:paint="solid"><stop id="stop19284-0" offset="0" style="stop-color:#bebebe;stop-opacity:1"/></linearGradient><linearGradient id="linearGradient7918" x1="-97" x2="-95" y1="226" y2="226" gradientTransform="translate(501.82829,172.74866)" gradientUnits="userSpaceOnUse" xlink:href="#linearGradient19282-4"/><linearGradient id="linearGradient7920" x1="144" x2="146" y1="449" y2="449" gradientTransform="translate(501.82829,172.74866)" gradientUnits="userSpaceOnUse" xlink:href="#linearGradient19282-4"/><linearGradient id="linearGradient7922" x1="142" x2="149" y1="445.992" y2="445.992" gradientTransform="translate(501.82829,172.74866)" gradientUnits="userSpaceOnUse" xlink:href="#linearGradient19282-4"/><linearGradient id="linearGradient7924" x1="147" x2="151" y1="446" y2="446" gradientTransform="translate(501.82829,172.74866)" gradientUnits="userSpaceOnUse" xlink:href="#linearGradient19282-4"/><linearGradient id="linearGradient7926" x1="148" x2="154" y1="446" y2="446" gradientTransform="translate(501.82829,172.74866)" gradientUnits="userSpaceOnUse" xlink:href="#linearGradient19282-4"/><linearGradient id="linearGradient7928" x1="-99" x2="-85" y1="229" y2="229" gradientTransform="translate(501.82829,172.74866)" gradientUnits="userSpaceOnUse" xlink:href="#linearGradient19282-4"/><linearGradient id="linearGradient7930" x1="145" x2="153" y1="453.5" y2="453.5" gradientTransform="translate(501.82829,172.74866)" gradientUnits="userSpaceOnUse" xlink:href="#linearGradient19282-4"/></defs><g style="display:inline" id="stock" transform="translate(-44.01714,-5.71742)"><g id="gimp-move-to-screen" transform="translate(-96.98306,-433.28258)" style="display:inline"><path id="path11885" d="m 149.0002,447 0,-2 c -3.98964,-0.007 -3.01047,-0.0325 -7,0 l 0,2 c 3.9883,-0.10306 3.00952,-0.0137 7,0 z" style="fill:url(#linearGradient7922);fill-opacity:1;stroke:none"/><path style="fill:url(#linearGradient7924);fill-opacity:1;stroke:none" id="path11889" d="m 151.0002,446 -4,-3 0,6 z"/><path style="opacity:.3;fill:url(#linearGradient7926);fill-opacity:1;stroke:none" id="rect11909" d="m 148.0002,442 5,4 -5,4 6,0 0,-8 z"/><rect style="opacity:.3;fill:url(#linearGradient7918);fill-opacity:1;stroke:none" id="rect11917" width="2" height="2" x="-97" y="225" rx=".469" ry=".469" transform="translate(241.0002,217)"/><rect id="rect11919" width="2" height="2" x="144" y="448" rx=".5" ry=".5" style="opacity:.3;fill:url(#linearGradient7920);fill-opacity:1;stroke:none"/><path style="fill:url(#linearGradient7928);fill-opacity:1;stroke:none" id="rect11926" d="M -97.8125,223 C -98.475196,223 -99,223.5248 -99,224.1875 l 0,9.625 c 0,0.6627 0.524804,1.1875 1.1875,1.1875 l 11.625,0 c 0.662696,0 1.1875,-0.5248 1.1875,-1.1875 l 0,-9.625 C -85,223.5248 -85.524804,223 -86.1875,223 Z m 1,1 9.625,0 c 0.662696,0 1.1875,0.5248 1.1875,1.1875 l 0,7.625 c 0,0.6627 -0.524804,1.1875 -1.1875,1.1875 l -9.625,0 C -97.475196,234 -98,233.4752 -98,232.8125 l 0,-7.625 C -98,224.5248 -97.475196,224 -96.8125,224 Z" transform="translate(241.0002,217)"/><rect style="fill:url(#linearGradient7930);fill-opacity:1;stroke:none" id="rect11931" width="8" height="1" x="145" y="453" rx="1" ry=".5"/></g></g></svg>