<svg xmlns="http://www.w3.org/2000/svg" xmlns:osb="http://www.openswatchbook.org/uri/2009/osb" xmlns:svg="http://www.w3.org/2000/svg" xmlns:xlink="http://www.w3.org/1999/xlink" id="svg7384" width="16" height="16" version="1.1" viewBox="0 0 16 16"><metadata id="metadata90"/><defs id="defs7386"><linearGradient id="linearGradient19282-4" gradientTransform="matrix(0.34682586,0,0,0.30620888,-53.351872,282.02358)" osb:paint="solid"><stop id="stop19284-0" offset="0" style="stop-color:#bebebe;stop-opacity:1"/></linearGradient><linearGradient id="linearGradient8194" x1="109" x2="110" y1="491.5" y2="491.5" gradientTransform="translate(637.67626,360.18199)" gradientUnits="userSpaceOnUse" xlink:href="#linearGradient19282-4"/><linearGradient id="linearGradient8198" x1="107" x2="108" y1="491.5" y2="491.5" gradientTransform="translate(637.67626,360.18199)" gradientUnits="userSpaceOnUse" xlink:href="#linearGradient19282-4"/><linearGradient id="linearGradient8200" x1="105" x2="106" y1="491.5" y2="491.5" gradientTransform="translate(637.67626,360.18199)" gradientUnits="userSpaceOnUse" xlink:href="#linearGradient19282-4"/><linearGradient id="linearGradient8204" x1="103" x2="104" y1="491.5" y2="491.5" gradientTransform="translate(637.67626,360.18199)" gradientUnits="userSpaceOnUse" xlink:href="#linearGradient19282-4"/><linearGradient id="linearGradient8206" x1="101" x2="102" y1="491.5" y2="491.5" gradientTransform="translate(637.67626,360.18199)" gradientUnits="userSpaceOnUse" xlink:href="#linearGradient19282-4"/><linearGradient id="linearGradient8210" x1="101" x2="102" y1="489.5" y2="489.5" gradientTransform="translate(637.67626,360.18199)" gradientUnits="userSpaceOnUse" xlink:href="#linearGradient19282-4"/><linearGradient id="linearGradient8212" x1="101" x2="102" y1="487.5" y2="487.5" gradientTransform="translate(637.67626,360.18199)" gradientUnits="userSpaceOnUse" xlink:href="#linearGradient19282-4"/><linearGradient id="linearGradient8216" x1="101" x2="102" y1="485.5" y2="485.5" gradientTransform="translate(637.67626,360.18199)" gradientUnits="userSpaceOnUse" xlink:href="#linearGradient19282-4"/><linearGradient id="linearGradient8218" x1="101" x2="102" y1="483.5" y2="483.5" gradientTransform="translate(637.67626,360.18199)" gradientUnits="userSpaceOnUse" xlink:href="#linearGradient19282-4"/><linearGradient id="linearGradient8220" x1="101" x2="102" y1="481.5" y2="481.5" gradientTransform="translate(637.67626,360.18199)" gradientUnits="userSpaceOnUse" xlink:href="#linearGradient19282-4"/><linearGradient id="linearGradient8222" x1="103" x2="104" y1="481.5" y2="481.5" gradientTransform="translate(637.67626,360.18199)" gradientUnits="userSpaceOnUse" xlink:href="#linearGradient19282-4"/><linearGradient id="linearGradient8225" x1="105" x2="106" y1="481.5" y2="481.5" gradientTransform="translate(637.67626,360.18199)" gradientUnits="userSpaceOnUse" xlink:href="#linearGradient19282-4"/><linearGradient id="linearGradient8227" x1="107" x2="108" y1="481.5" y2="481.5" gradientTransform="translate(637.67626,360.18199)" gradientUnits="userSpaceOnUse" xlink:href="#linearGradient19282-4"/><linearGradient id="linearGradient8230" x1="109" x2="110" y1="481.5" y2="481.5" gradientTransform="translate(637.67626,360.18199)" gradientUnits="userSpaceOnUse" xlink:href="#linearGradient19282-4"/><linearGradient id="linearGradient8232" x1="111" x2="112" y1="481.5" y2="481.5" gradientTransform="translate(637.67626,360.18199)" gradientUnits="userSpaceOnUse" xlink:href="#linearGradient19282-4"/><linearGradient id="linearGradient8236" x1="113" x2="114" y1="481.5" y2="481.5" gradientTransform="translate(637.67626,360.18199)" gradientUnits="userSpaceOnUse" xlink:href="#linearGradient19282-4"/><linearGradient id="linearGradient8238" x1="115" x2="116" y1="481.5" y2="481.5" gradientTransform="translate(637.67626,360.18199)" gradientUnits="userSpaceOnUse" xlink:href="#linearGradient19282-4"/><linearGradient id="linearGradient8241" x1="115" x2="116" y1="483.5" y2="483.5" gradientTransform="translate(637.67626,360.18199)" gradientUnits="userSpaceOnUse" xlink:href="#linearGradient19282-4"/><linearGradient id="linearGradient8245" x1="-28.5" x2="-20.499" y1="25.738" y2="25.738" gradientTransform="translate(729.08667,403.88961)" gradientUnits="userSpaceOnUse" xlink:href="#linearGradient19282-4"/><linearGradient id="linearGradient8247" x1="113.25" x2="117" y1="487.531" y2="487.531" gradientTransform="translate(637.67626,360.18199)" gradientUnits="userSpaceOnUse" xlink:href="#linearGradient19282-4"/><linearGradient id="linearGradient8250" x1="-138" x2="-127" y1="269.5" y2="269.5" gradientTransform="translate(637.67626,360.18199)" gradientUnits="userSpaceOnUse" xlink:href="#linearGradient19282-4"/></defs><g style="display:inline" id="stock" transform="translate(-179.86511,-192.81506)"><g id="gimp-selection-stroke" transform="matrix(1,0,0,0.999068,78.864914,-285.73851)" style="display:inline"><g style="fill:#bebebe;fill-opacity:1;stroke:none" id="g5911" transform="matrix(0.8746234,0,0,0.89178327,132.92919,469.5548)"><path style="fill:url(#linearGradient8245);fill-opacity:1;stroke:none" id="path5913" d="m -28.5,27.5711 c 3.111145,0.0011 2.79359,-3.323359 4.304166,-4.248979 1.750479,-1.072622 3.284496,0.256475 3.590759,1.350292 0.386445,1.380184 -0.337829,2.508685 -1.300323,3.118949 -1.846361,1.170674 -6.300039,0.898712 -6.594602,-0.220262 z"/></g><path style="fill:url(#linearGradient8247);fill-opacity:1;stroke:none" id="path5915" d="m 117.0002,484.40625 c -1.01392,1.06131 -2.08877,2.33758 -3.75,4.625 1.00355,0.0377 1.86506,0.68865 2.3125,1.625 0.53204,-0.5735 1.00964,-1.14188 1.4375,-1.65625 z"/><rect id="rect5932" width="1" height="1" x="101" y="481" style="fill:url(#linearGradient8220);fill-opacity:1;stroke:none"/><rect id="rect5934" width="1" height="1" x="113" y="481" style="fill:url(#linearGradient8236);fill-opacity:1;stroke:none"/><rect id="rect5936" width="1" height="1" x="115" y="481" style="fill:url(#linearGradient8238);fill-opacity:1;stroke:none"/><rect id="rect5938" width="1" height="1" x="101" y="483" style="fill:url(#linearGradient8218);fill-opacity:1;stroke:none"/><rect id="rect5940" width="1" height="1" x="111" y="481" style="fill:url(#linearGradient8232);fill-opacity:1;stroke:none"/><rect id="rect5942" width="1" height="1" x="103" y="481" style="fill:url(#linearGradient8222);fill-opacity:1;stroke:none"/><rect id="rect5944" width="1" height="1" x="105" y="481" style="fill:url(#linearGradient8225);fill-opacity:1;stroke:none"/><rect id="rect5946" width="1" height="1" x="107" y="481" style="fill:url(#linearGradient8227);fill-opacity:1;stroke:none"/><rect id="rect5948" width="1" height="1" x="109" y="481" style="fill:url(#linearGradient8230);fill-opacity:1;stroke:none"/><rect id="rect5950" width="1" height="1" x="101" y="485" style="fill:url(#linearGradient8216);fill-opacity:1;stroke:none"/><rect id="rect5952" width="1" height="1" x="101" y="487" style="fill:url(#linearGradient8212);fill-opacity:1;stroke:none"/><rect id="rect5954" width="1" height="1" x="103" y="491" style="fill:url(#linearGradient8204);fill-opacity:1;stroke:none"/><rect id="rect5956" width="1" height="1" x="105" y="491" style="fill:url(#linearGradient8200);fill-opacity:1;stroke:none"/><rect id="rect5958" width="1" height="1" x="107" y="491" style="fill:url(#linearGradient8198);fill-opacity:1;stroke:none"/><rect id="rect5960" width="1" height="1" x="109" y="491" style="fill:url(#linearGradient8194);fill-opacity:1;stroke:none"/><rect id="rect5974" width="1" height="1" x="115" y="483" style="fill:url(#linearGradient8241);fill-opacity:1;stroke:none"/><path style="opacity:.3;fill:url(#linearGradient8250);fill-opacity:1;stroke:none" id="rect5976" d="m -138,266 0,7 8,0 3,-4 0,-3 z" transform="translate(241.0002,217)"/><rect id="rect5978" width="1" height="1" x="101" y="489" style="fill:url(#linearGradient8210);fill-opacity:1;stroke:none"/><rect id="rect5980" width="1" height="1" x="101" y="491" style="fill:url(#linearGradient8206);fill-opacity:1;stroke:none"/></g></g></svg>