<svg xmlns="http://www.w3.org/2000/svg" xmlns:osb="http://www.openswatchbook.org/uri/2009/osb" xmlns:svg="http://www.w3.org/2000/svg" xmlns:xlink="http://www.w3.org/1999/xlink" id="svg7384" width="16" height="16" version="1.1" viewBox="0 0 16 16"><metadata id="metadata90"/><defs id="defs7386"><linearGradient id="linearGradient8074" osb:paint="solid"><stop id="stop8072" offset="0" style="stop-color:#be00be;stop-opacity:1"/></linearGradient><linearGradient id="linearGradient7561" osb:paint="solid"><stop id="stop7558" offset="0" style="stop-color:#a5a5a5;stop-opacity:1"/></linearGradient><linearGradient id="linearGradient7548" osb:paint="solid"><stop id="stop7546" offset="0" style="stop-color:#ebebeb;stop-opacity:1"/></linearGradient><linearGradient id="linearGradient7542" osb:paint="solid"><stop id="stop7538" offset="0" style="stop-color:#c9c9c9;stop-opacity:1"/></linearGradient><linearGradient id="linearGradient19282" gradientTransform="matrix(0,-735328.32,170712.69,0,2464326300,577972450)" osb:paint="solid"><stop id="stop19284" offset="0" style="stop-color:#b4b4b4;stop-opacity:1"/></linearGradient><linearGradient id="linearGradient19282-4" gradientTransform="matrix(0.34682586,0,0,0.30620888,-93.351872,584.01677)" osb:paint="solid"><stop id="stop19284-0" offset="0" style="stop-color:#bebebe;stop-opacity:1"/></linearGradient><linearGradient id="linearGradient10378" x1="67.26" x2="76.514" y1="183.231" y2="183.231" gradientTransform="translate(224.21083,191.51971)" gradientUnits="userSpaceOnUse" xlink:href="#linearGradient19282-4"/><linearGradient id="linearGradient10384" x1="-28.5" x2="-20.499" y1="25.738" y2="25.738" gradientTransform="translate(256.35128,214.76037)" gradientUnits="userSpaceOnUse" xlink:href="#linearGradient19282-4"/></defs><g style="display:inline" id="tools" transform="translate(66.422852,-256.0432)"><g id="gimp-tool-paintbrush" transform="translate(-127.42305,79.021454)" style="display:inline"><g id="g9272" transform="matrix(0.8746234,0,0,0.89178327,86.926967,167.56161)" style="fill:#bebebe;fill-opacity:1;stroke:none"><path id="path9274" d="m -28.5,27.5711 c 3.111145,0.0011 2.79359,-3.323359 4.304166,-4.248979 1.750479,-1.072622 3.284496,0.256475 3.590759,1.350292 0.386445,1.380184 -0.337829,2.508685 -1.300323,3.118949 -1.846361,1.170674 -6.300039,0.898712 -6.594602,-0.220262 z" style="fill:url(#linearGradient10384);fill-opacity:1;stroke:none"/></g><path style="fill:url(#linearGradient10378);fill-opacity:1;stroke:none" id="path9264" d="m 76.416523,178.35668 c 0.308363,-0.6658 -0.16372,-0.92113 -0.732422,-0.35668 -3.998739,3.96884 -4.683901,4 -8.423828,9.14967 1.00355,0.0377 1.86506,0.68644 2.3125,1.62279 4.427427,-4.77246 4.92644,-7.33336 6.84375,-10.41578 z"/></g></g></svg>