<svg xmlns="http://www.w3.org/2000/svg" xmlns:osb="http://www.openswatchbook.org/uri/2009/osb" xmlns:svg="http://www.w3.org/2000/svg" xmlns:xlink="http://www.w3.org/1999/xlink" id="svg7384" width="16" height="16" version="1.1" viewBox="0 0 16 16"><metadata id="metadata90"/><defs id="defs7386"><linearGradient id="linearGradient19282-4" gradientTransform="matrix(0.34682586,0,0,0.30620888,-73.367505,544.03851)" osb:paint="solid"><stop id="stop19284-0" offset="0" style="stop-color:#bebebe;stop-opacity:1"/></linearGradient><linearGradient id="linearGradient7333" x1="82.25" x2="95.882" y1="225.359" y2="225.359" gradientTransform="translate(275.76804,116.53019)" gradientUnits="userSpaceOnUse" xlink:href="#linearGradient19282-4"/><linearGradient id="linearGradient7339" x1="-178.031" x2="-174" y1="-39.984" y2="-39.984" gradientTransform="translate(272.59862,115.19089)" gradientUnits="userSpaceOnUse" xlink:href="#linearGradient19282-4"/><linearGradient id="linearGradient7345" x1="-178.031" x2="-174" y1="-39.984" y2="-39.984" gradientTransform="translate(276.84072,116.98346)" gradientUnits="userSpaceOnUse" xlink:href="#linearGradient19282-4"/><linearGradient id="linearGradient7351" x1="-178.031" x2="-174" y1="-39.984" y2="-39.984" gradientTransform="translate(286.88772,121.22898)" gradientUnits="userSpaceOnUse" xlink:href="#linearGradient19282-4"/><linearGradient id="linearGradient7357" x1="-178.031" x2="-174" y1="-39.984" y2="-39.984" gradientTransform="translate(284.59242,120.25907)" gradientUnits="userSpaceOnUse" xlink:href="#linearGradient19282-4"/><linearGradient id="linearGradient7363" x1="-178.031" x2="-174" y1="-39.984" y2="-39.984" gradientTransform="translate(281.21764,118.83299)" gradientUnits="userSpaceOnUse" xlink:href="#linearGradient19282-4"/><linearGradient id="linearGradient7345-6" x1="-178.031" x2="-174" y1="-39.984" y2="-39.984" gradientUnits="userSpaceOnUse" xlink:href="#linearGradient19282-4"/><linearGradient id="linearGradient7333-9" x1="82.25" x2="95.882" y1="225.359" y2="225.359" gradientUnits="userSpaceOnUse" xlink:href="#linearGradient19282-4"/><linearGradient id="linearGradient24321" x1="-178.031" x2="-174" y1="-39.984" y2="-39.984" gradientUnits="userSpaceOnUse" xlink:href="#linearGradient19282-4"/><linearGradient id="linearGradient24323" x1="-178.031" x2="-174" y1="-39.984" y2="-39.984" gradientUnits="userSpaceOnUse" xlink:href="#linearGradient19282-4"/><linearGradient id="linearGradient24325" x1="-178.031" x2="-174" y1="-39.984" y2="-39.984" gradientUnits="userSpaceOnUse" xlink:href="#linearGradient19282-4"/><linearGradient id="linearGradient24327" x1="-178.031" x2="-174" y1="-39.984" y2="-39.984" gradientUnits="userSpaceOnUse" xlink:href="#linearGradient19282-4"/></defs><g style="display:inline" id="gimp-tool-cage" transform="matrix(0.99805136,0,0,1,-80.826755,-217)"><rect id="rect34193" width="16" height="16" x="-160" y="0" rx="0" transform="translate(241.0002,217)" style="opacity:0;fill:none;fill-opacity:1;stroke:none"/><path style="color:#000;display:inline;overflow:visible;visibility:visible;fill:url(#linearGradient24321);fill-opacity:1;stroke:none;stroke-width:.99999976;marker:none;enable-background:new" id="path3908" d="m -174,-39.984375 a 2.015625,2.015625 0 0 1 -2.01562,2.015625 2.015625,2.015625 0 0 1 -2.01563,-2.015625 A 2.015625,2.015625 0 0 1 -176.01562,-42 2.015625,2.015625 0 0 1 -174,-39.984375 Z" transform="matrix(0.99612528,0,0,0.99612528,258.326,260.83727)"/><path style="color:#000;display:inline;overflow:visible;visibility:visible;fill:url(#linearGradient24323);fill-opacity:1;fill-rule:nonzero;stroke:none;stroke-width:.99999976;marker:none;enable-background:new" id="path3910" d="m -174,-39.984375 a 2.015625,2.015625 0 0 1 -2.01562,2.015625 2.015625,2.015625 0 0 1 -2.01563,-2.015625 A 2.015625,2.015625 0 0 1 -176.01562,-42 2.015625,2.015625 0 0 1 -174,-39.984375 Z" transform="matrix(0.98062141,0,0,0.98062141,255.56582,270.1861)"/><path style="color:#000;display:inline;overflow:visible;visibility:visible;fill:url(#linearGradient24325);fill-opacity:1;fill-rule:nonzero;stroke:none;stroke-width:.99999976;marker:none;enable-background:new" id="path3912" d="m -174,-39.984375 a 2.015625,2.015625 0 0 1 -2.01562,2.015625 2.015625,2.015625 0 0 1 -2.01563,-2.015625 A 2.015625,2.015625 0 0 1 -176.01562,-42 2.015625,2.015625 0 0 1 -174,-39.984375 Z" transform="matrix(0.96899291,0,0,0.96899291,265.62057,267.7602)"/><path style="color:#000;display:inline;overflow:visible;visibility:visible;fill:url(#linearGradient24327);fill-opacity:1;fill-rule:nonzero;stroke:none;stroke-width:.99999976;marker:none;enable-background:new" id="path3914" d="m -174,-39.984375 a 2.015625,2.015625 0 0 1 -2.01562,2.015625 2.015625,2.015625 0 0 1 -2.01563,-2.015625 A 2.015625,2.015625 0 0 1 -176.01562,-42 2.015625,2.015625 0 0 1 -174,-39.984375 Z" transform="matrix(0.96124033,0,0,0.96124033,263.27163,257.37209)"/><path style="color:#000;font-style:normal;font-variant:normal;font-weight:400;font-stretch:normal;font-size:medium;line-height:normal;font-family:sans-serif;font-variant-ligatures:normal;font-variant-position:normal;font-variant-caps:normal;font-variant-numeric:normal;font-variant-alternates:normal;font-feature-settings:normal;text-indent:0;text-align:start;text-decoration:none;text-decoration-line:none;text-decoration-style:solid;text-decoration-color:#000;letter-spacing:normal;word-spacing:normal;text-transform:none;writing-mode:lr-tb;direction:ltr;text-orientation:mixed;dominant-baseline:auto;baseline-shift:baseline;text-anchor:start;white-space:normal;shape-padding:0;clip-rule:nonzero;display:inline;overflow:visible;visibility:visible;opacity:1;isolation:auto;mix-blend-mode:normal;color-interpolation:sRGB;color-interpolation-filters:linearRGB;solid-color:#000;solid-opacity:1;vector-effect:none;fill:url(#linearGradient7333-9);fill-opacity:1;fill-rule:nonzero;stroke:none;stroke-width:1.5;stroke-linecap:butt;stroke-linejoin:miter;stroke-miterlimit:4;stroke-dasharray:none;stroke-dashoffset:0;stroke-opacity:1;marker:none;color-rendering:auto;image-rendering:auto;shape-rendering:auto;text-rendering:auto;enable-background:new" id="rect3916" d="M 94.666016,218.11719 82.25,220.375 V 221 232.60156 l 6.853516,-5.71094 6.779296,3.38868 z m -1.332032,1.76562 0.785157,7.83789 -5.222657,-2.61132 -5.146484,4.28906 v -7.77149 z"/><path style="color:#000;display:inline;overflow:visible;visibility:visible;fill:url(#linearGradient7345-6);fill-opacity:1;stroke:none;stroke-width:.99999976;marker:none;enable-background:new" id="path38587" d="m -174,-39.984375 a 2.015625,2.015625 0 0 1 -2.01562,2.015625 2.015625,2.015625 0 0 1 -2.01563,-2.015625 A 2.015625,2.015625 0 0 1 -176.01562,-42 2.015625,2.015625 0 0 1 -174,-39.984375 Z" transform="matrix(1.0116267,0,0,1.0116267,267.10136,266.50395)"/></g></svg>