<svg xmlns="http://www.w3.org/2000/svg" xmlns:osb="http://www.openswatchbook.org/uri/2009/osb" xmlns:svg="http://www.w3.org/2000/svg" xmlns:xlink="http://www.w3.org/1999/xlink" id="svg7384" width="16" height="16" version="1.1" viewBox="0 0 16 16"><metadata id="metadata90"/><defs id="defs7386"><linearGradient id="linearGradient8074" osb:paint="solid"><stop id="stop8072" offset="0" style="stop-color:#be00be;stop-opacity:1"/></linearGradient><linearGradient id="linearGradient7561" osb:paint="solid"><stop id="stop7558" offset="0" style="stop-color:#a5a5a5;stop-opacity:1"/></linearGradient><linearGradient id="linearGradient7548" osb:paint="solid"><stop id="stop7546" offset="0" style="stop-color:#ebebeb;stop-opacity:1"/></linearGradient><linearGradient id="linearGradient7542" osb:paint="solid"><stop id="stop7538" offset="0" style="stop-color:#c9c9c9;stop-opacity:1"/></linearGradient><linearGradient id="linearGradient19282" gradientTransform="matrix(0,-735328.32,170712.69,0,2464326300,577972450)" osb:paint="solid"><stop id="stop19284" offset="0" style="stop-color:#b4b4b4;stop-opacity:1"/></linearGradient><linearGradient id="linearGradient19282-4" gradientTransform="matrix(0.34682586,0,0,0.30620888,-33.35187,342.03851)" osb:paint="solid"><stop id="stop19284-0" offset="0" style="stop-color:#bebebe;stop-opacity:1"/></linearGradient><linearGradient id="linearGradient7215" x1="125" x2="134.266" y1="424.5" y2="424.5" gradientTransform="translate(402.6828,304.06057)" gradientUnits="userSpaceOnUse" xlink:href="#linearGradient19282-4"/><linearGradient id="linearGradient7217" x1="-120" x2="-104" y1="213.5" y2="213.5" gradientTransform="translate(402.6828,304.06057)" gradientUnits="userSpaceOnUse" xlink:href="#linearGradient19282-4"/></defs><g style="display:inline" id="stock" transform="translate(55.12835,-137.02933)"><g id="gimp-text-layer" transform="translate(-176.12855,-281.97067)" style="display:inline"><path style="fill:url(#linearGradient7217);fill-opacity:1;stroke:none" id="path11725-2" d="m -119,210 -1,7 14.9375,-0.0625 L -104,210 l -2.40625,0 1.03125,3 -4.625,0 -1,-3 -1,0 -1,3 -4.375,0 0.9375,-3 z" transform="translate(241.0002,217)"/><path id="path11731-9" d="m 128.30923,420 -3.30903,9 1.98543,0 1.01457,-3 3,0 1.27987,3 1.98543,0 -3.30903,-9 z m 1.25347,1.46875 1.125,3.53125 -2.25,0 z" style="fill:url(#linearGradient7215);fill-opacity:1;stroke:none"/></g></g></svg>