<svg xmlns="http://www.w3.org/2000/svg" xmlns:osb="http://www.openswatchbook.org/uri/2009/osb" xmlns:svg="http://www.w3.org/2000/svg" xmlns:xlink="http://www.w3.org/1999/xlink" id="svg7384" width="16" height="16" version="1.1" viewBox="0 0 16 16"><metadata id="metadata90"/><defs id="defs7386"><linearGradient id="linearGradient19282-4" gradientTransform="matrix(0.34682586,0,0,0.30620888,-93.351872,162.03851)" osb:paint="solid"><stop id="stop19284-0" offset="0" style="stop-color:#bebebe;stop-opacity:1"/></linearGradient><linearGradient id="linearGradient7816" x1="64.069" x2="73" y1="602.5" y2="602.5" gradientTransform="translate(575.83076,152.78664)" gradientUnits="userSpaceOnUse" xlink:href="#linearGradient19282-4"/><linearGradient id="linearGradient7818" x1="-180" x2="-164" y1="393.5" y2="393.5" gradientTransform="translate(575.83076,152.78664)" gradientUnits="userSpaceOnUse" xlink:href="#linearGradient19282-4"/><linearGradient id="linearGradient7824" x1="66" x2="67" y1="609.5" y2="609.5" gradientTransform="translate(575.83076,152.78664)" gradientUnits="userSpaceOnUse" xlink:href="#linearGradient19282-4"/><linearGradient id="linearGradient7826" x1="64" x2="65" y1="609.5" y2="609.5" gradientTransform="translate(575.83076,152.78664)" gradientUnits="userSpaceOnUse" xlink:href="#linearGradient19282-4"/><linearGradient id="linearGradient7828" x1="63" x2="64" y1="610.5" y2="610.5" gradientTransform="translate(575.83076,152.78664)" gradientUnits="userSpaceOnUse" xlink:href="#linearGradient19282-4"/><linearGradient id="linearGradient7830" x1="63" x2="71" y1="612.5" y2="612.5" gradientTransform="translate(575.83076,152.78664)" gradientUnits="userSpaceOnUse" xlink:href="#linearGradient19282-4"/><linearGradient id="linearGradient7832" x1="67" x2="68" y1="610.5" y2="610.5" gradientTransform="translate(575.83076,152.78664)" gradientUnits="userSpaceOnUse" xlink:href="#linearGradient19282-4"/><linearGradient id="linearGradient7838" x1="63" x2="64" y1="608.5" y2="608.5" gradientTransform="translate(575.83076,152.78664)" gradientUnits="userSpaceOnUse" xlink:href="#linearGradient19282-4"/><linearGradient id="linearGradient7840" x1="65" x2="66" y1="610.5" y2="610.5" gradientTransform="translate(575.83076,152.78664)" gradientUnits="userSpaceOnUse" xlink:href="#linearGradient19282-4"/><linearGradient id="linearGradient7842" x1="65" x2="66" y1="608.5" y2="608.5" gradientTransform="translate(575.83076,152.78664)" gradientUnits="userSpaceOnUse" xlink:href="#linearGradient19282-4"/><linearGradient id="linearGradient7844" x1="67" x2="68" y1="608.5" y2="608.5" gradientTransform="translate(575.83076,152.78664)" gradientUnits="userSpaceOnUse" xlink:href="#linearGradient19282-4"/><linearGradient id="linearGradient7846" x1="69" x2="70" y1="610.5" y2="610.5" gradientTransform="translate(575.83076,152.78664)" gradientUnits="userSpaceOnUse" xlink:href="#linearGradient19282-4"/><linearGradient id="linearGradient7848" x1="68" x2="69" y1="609.5" y2="609.5" gradientTransform="translate(575.83076,152.78664)" gradientUnits="userSpaceOnUse" xlink:href="#linearGradient19282-4"/><linearGradient id="linearGradient7850" x1="69" x2="70" y1="608.5" y2="608.5" gradientTransform="translate(575.83076,152.78664)" gradientUnits="userSpaceOnUse" xlink:href="#linearGradient19282-4"/><linearGradient id="linearGradient7852" x1="-169" x2="-168" y1="391.5" y2="391.5" gradientTransform="translate(575.83076,152.78664)" gradientUnits="userSpaceOnUse" xlink:href="#linearGradient19282-4"/><linearGradient id="linearGradient7854" x1="-167" x2="-166" y1="391.5" y2="391.5" gradientTransform="translate(575.83076,152.78664)" gradientUnits="userSpaceOnUse" xlink:href="#linearGradient19282-4"/><linearGradient id="linearGradient7856" x1="73" x2="74" y1="609.5" y2="609.5" gradientTransform="translate(575.83076,152.78664)" gradientUnits="userSpaceOnUse" xlink:href="#linearGradient19282-4"/><linearGradient id="linearGradient7858" x1="74" x2="75" y1="610.5" y2="610.5" gradientTransform="translate(575.83076,152.78664)" gradientUnits="userSpaceOnUse" xlink:href="#linearGradient19282-4"/><linearGradient id="linearGradient7860" x1="72" x2="73" y1="610.5" y2="610.5" gradientTransform="translate(575.83076,152.78664)" gradientUnits="userSpaceOnUse" xlink:href="#linearGradient19282-4"/><linearGradient id="linearGradient7862" x1="73" x2="74" y1="611.5" y2="611.5" gradientTransform="translate(575.83076,152.78664)" gradientUnits="userSpaceOnUse" xlink:href="#linearGradient19282-4"/><linearGradient id="linearGradient7864" x1="74" x2="75" y1="612.5" y2="612.5" gradientTransform="translate(575.83076,152.78664)" gradientUnits="userSpaceOnUse" xlink:href="#linearGradient19282-4"/><linearGradient id="linearGradient7866" x1="72" x2="73" y1="612.5" y2="612.5" gradientTransform="translate(575.83076,152.78664)" gradientUnits="userSpaceOnUse" xlink:href="#linearGradient19282-4"/></defs><g style="display:inline" id="stock" transform="translate(-118.01961,14.2446)"><g id="gimp-controller-keyboard" transform="translate(57.019414,-613.2446)" style="display:inline"><path style="fill:url(#linearGradient7818);fill-opacity:1;stroke:none" id="rect18257" d="m -178.34375,389 c -0.91813,0 -1.65625,0.73812 -1.65625,1.65625 l 0,5.6875 c 0,0.91813 0.73812,1.65625 1.65625,1.65625 l 12.6875,0 c 0.91813,0 1.65625,-0.73812 1.65625,-1.65625 l 0,-5.6875 C -164,389.73812 -164.73812,389 -165.65625,389 Z m 1,1 10.6875,0 c 0.91813,0 1.65625,0.73812 1.65625,1.65625 l 0,3.6875 c 0,0.91813 -0.73812,1.65625 -1.65625,1.65625 l -10.6875,0 C -178.26188,397 -179,396.26188 -179,395.34375 l 0,-3.6875 c 0,-0.91813 0.73812,-1.65625 1.65625,-1.65625 z" transform="translate(241.0002,217)"/><rect style="fill:url(#linearGradient7830);fill-opacity:1;stroke:none" id="rect18269" width="8" height="1" x="63" y="612" ry="0"/><rect style="fill:url(#linearGradient7838);fill-opacity:1;stroke:none" id="rect18271" width="1" height="1" x="63" y="608"/><rect style="fill:url(#linearGradient7828);fill-opacity:1;stroke:none" id="rect18273" width="1" height="1" x="63" y="610"/><rect style="fill:url(#linearGradient7826);fill-opacity:1;stroke:none" id="rect18275" width="1" height="1" x="64" y="609"/><rect id="rect18279" width="1" height="1" x="65" y="608" style="fill:url(#linearGradient7842);fill-opacity:1;stroke:none"/><rect id="rect18281" width="1" height="1" x="65" y="610" style="fill:url(#linearGradient7840);fill-opacity:1;stroke:none"/><rect id="rect18283" width="1" height="1" x="66" y="609" style="fill:url(#linearGradient7824);fill-opacity:1;stroke:none"/><rect style="fill:url(#linearGradient7844);fill-opacity:1;stroke:none" id="rect18285" width="1" height="1" x="67" y="608"/><rect style="fill:url(#linearGradient7832);fill-opacity:1;stroke:none" id="rect18287" width="1" height="1" x="67" y="610"/><rect style="fill:url(#linearGradient7848);fill-opacity:1;stroke:none" id="rect18289" width="1" height="1" x="68" y="609"/><rect id="rect18291" width="1" height="1" x="69" y="608" style="fill:url(#linearGradient7850);fill-opacity:1;stroke:none"/><rect id="rect18293" width="1" height="1" x="69" y="610" style="fill:url(#linearGradient7846);fill-opacity:1;stroke:none"/><rect style="fill:url(#linearGradient7858);fill-opacity:1;stroke:none" id="rect18297" width="1" height="1" x="74" y="610"/><rect style="fill:url(#linearGradient7860);fill-opacity:1;stroke:none" id="rect18299" width="1" height="1" x="72" y="610"/><rect style="fill:url(#linearGradient7856);fill-opacity:1;stroke:none" id="rect18301" width="1" height="1" x="73" y="609"/><rect style="fill:url(#linearGradient7852);fill-opacity:1;stroke:none" id="rect18303" width="1" height="1" x="-169" y="391" transform="translate(241.0002,217)"/><rect style="fill:url(#linearGradient7854);fill-opacity:1;stroke:none" id="rect18305" width="1" height="1" x="-167" y="391" transform="translate(241.0002,217)"/><rect id="rect18309" width="1" height="1" x="73" y="611" style="fill:url(#linearGradient7862);fill-opacity:1;stroke:none"/><rect style="fill:url(#linearGradient7866);fill-opacity:1;stroke:none" id="rect18311" width="1" height="1" x="72" y="612"/><rect id="rect18313" width="1" height="1" x="74" y="612" style="fill:url(#linearGradient7864);fill-opacity:1;stroke:none"/><path style="color:#000;font-style:normal;font-variant:normal;font-weight:400;font-stretch:normal;font-size:medium;line-height:normal;font-family:Sans;-inkscape-font-specification:Sans;text-indent:0;text-align:start;text-decoration:none;text-decoration-line:none;letter-spacing:normal;word-spacing:normal;text-transform:none;direction:ltr;writing-mode:lr-tb;baseline-shift:baseline;text-anchor:start;display:inline;overflow:visible;visibility:visible;fill:url(#linearGradient7816);fill-opacity:1;stroke:none;stroke-width:1.02063322;marker:none;enable-background:accumulate" id="path18333" d="m 66.71895,603 2.822415,0 0.458835,0 0,0 c 0.642743,0 2,-0.34792 2,2 l 0,1 1,0 0,-2 c 0,0 0,-2 -2,-2 -0.27051,0.008 -0.621248,-5e-4 -0.71875,0 l -1.28125,0 -2.535961,0 c -0.244995,0 -1.707107,0.23295 -0.938801,-1 l 1.071653,-2 -1.331726,7e-4 L 64.258052,601 c -0.572765,1.39643 0.243263,2 1.283471,2 0.27051,-0.008 1.079925,5e-4 1.177427,0"/></g></g></svg>