<svg xmlns="http://www.w3.org/2000/svg" xmlns:osb="http://www.openswatchbook.org/uri/2009/osb" xmlns:svg="http://www.w3.org/2000/svg" xmlns:xlink="http://www.w3.org/1999/xlink" id="svg7384" width="16" height="16" version="1.1" viewBox="0 0 16 16"><metadata id="metadata90"/><defs id="defs7386"><linearGradient id="linearGradient8074" osb:paint="solid"><stop id="stop8072" offset="0" style="stop-color:#be00be;stop-opacity:1"/></linearGradient><linearGradient id="linearGradient7561" osb:paint="solid"><stop id="stop7558" offset="0" style="stop-color:#a5a5a5;stop-opacity:1"/></linearGradient><linearGradient id="linearGradient7548" osb:paint="solid"><stop id="stop7546" offset="0" style="stop-color:#ebebeb;stop-opacity:1"/></linearGradient><linearGradient id="linearGradient7542" osb:paint="solid"><stop id="stop7538" offset="0" style="stop-color:#c9c9c9;stop-opacity:1"/></linearGradient><linearGradient id="linearGradient19282" gradientTransform="matrix(0,-735328.32,170712.69,0,2464326300,577972450)" osb:paint="solid"><stop id="stop19284" offset="0" style="stop-color:#b4b4b4;stop-opacity:1"/></linearGradient><linearGradient id="linearGradient19282-4" gradientTransform="matrix(0.34682586,0,0,0.30620888,-154.35288,761.03786)" osb:paint="solid"><stop id="stop19284-0" offset="0" style="stop-color:#bebebe;stop-opacity:1"/></linearGradient><linearGradient id="linearGradient10202" x1="386.043" x2="392.043" y1="152.566" y2="152.566" gradientTransform="translate(399.67546,153.30453)" gradientUnits="userSpaceOnUse" xlink:href="#linearGradient19282-4"/><linearGradient id="linearGradient10214" x1="386.039" x2="392.039" y1="162.562" y2="162.562" gradientTransform="translate(399.67546,153.30453)" gradientUnits="userSpaceOnUse" xlink:href="#linearGradient19282-4"/><linearGradient id="linearGradient10220" x1="391.041" x2="397.041" y1="157.57" y2="157.57" gradientTransform="translate(399.67546,153.30453)" gradientUnits="userSpaceOnUse" xlink:href="#linearGradient19282-4"/><linearGradient id="linearGradient10224" x1="381.041" x2="387.041" y1="157.57" y2="157.57" gradientTransform="translate(399.67546,153.30453)" gradientUnits="userSpaceOnUse" xlink:href="#linearGradient19282-4"/></defs><g style="display:inline" id="stock" transform="translate(58.135694,13.726708)"><g id="gimp-center" transform="matrix(1,0,0,0.99987502,-58.134884,-13.725353)"><g id="g4" transform="translate(0,-1036.36)"><g id="g14" style="fill:#bebebe"><g id="g8" transform="translate(4.614,-3)" style="fill:#bebebe"><path id="path10" d="m 384.04102,154.57422 0,1.99219 -3,0 0,2 c 1,0.01 2,0.032 3,0 l 0,2 3,-3.01953 z" transform="matrix(1,0,0,1.000125,-385.65583,889.78331)" style="fill:url(#linearGradient10224);fill-opacity:1;stroke-width:.99993753"/></g><g id="g16" transform="translate(-1.386,-3)"><path id="path18" d="m 394.04102,154.57422 -3,2.97266 3,3.01953 0,-2 c 1,0.01 2,0.032 3,0 l 0,-2 -3,0 z" transform="matrix(1,0,0,1.000125,-379.65583,889.78331)" style="fill:url(#linearGradient10220);fill-opacity:1;stroke-width:.99993753"/></g><g id="g22" transform="translate(-0.386,-3.502)"><path id="path24" d="m 388.05078,149.55664 c -0.01,0.99988 -0.032,1.99817 0,2.99805 l 2,0 0,-2.99805 z m -2.00781,3.00977 3.02148,3.00976 2.97852,-3.00976 z" transform="matrix(1,0,0,1.000125,-380.65583,890.28531)" style="fill:url(#linearGradient10202);fill-opacity:1;stroke-width:.99993753"/></g><g id="g28" transform="translate(-0.497,-3)"><path id="path30" d="m 389.01953,159.56641 -2.98047,2.99609 2.00196,0 c -0.01,0.99792 -0.0319,1.99622 0,2.99414 l 2,0 0,-2.99414 1.99804,0 z" transform="matrix(1,0,0,1.000125,-380.54483,889.78331)" style="fill:url(#linearGradient10214);fill-opacity:1;stroke-width:.99993753"/></g></g></g></g></g></svg>