<svg xmlns="http://www.w3.org/2000/svg" xmlns:osb="http://www.openswatchbook.org/uri/2009/osb" xmlns:svg="http://www.w3.org/2000/svg" xmlns:xlink="http://www.w3.org/1999/xlink" id="svg7384" width="16" height="16" version="1.1" viewBox="0 0 16 16"><metadata id="metadata90"/><defs id="defs7386"><linearGradient id="linearGradient19282-4" gradientTransform="matrix(0.34682586,0,0,0.30620888,-154.35207,-275.32369)" osb:paint="solid"><stop id="stop19284-0" offset="0" style="stop-color:#bebebe;stop-opacity:1"/></linearGradient><linearGradient id="linearGradient6956" x1="-97" x2="-84.994" y1="-30.92" y2="-30.92" gradientTransform="translate(322.73461,251.24335)" gradientUnits="userSpaceOnUse" xlink:href="#linearGradient19282-4"/><linearGradient id="linearGradient6962" x1="150.003" x2="152" y1="181" y2="181" gradientTransform="translate(322.73461,251.24335)" gradientUnits="userSpaceOnUse" xlink:href="#linearGradient19282-4"/><linearGradient id="linearGradient6968" x1="1.053" x2="6.327" y1="1045.732" y2="1045.732" gradientTransform="translate(322.73461,251.24335)" gradientUnits="userSpaceOnUse" xlink:href="#linearGradient19282-4"/></defs><g style="display:inline" id="tools" transform="translate(-32.100929,-315.76683)"><g id="gimp-tool-bucket-fill" transform="translate(32.10093,-720.59537)"><g style="display:inline" id="g18711" transform="translate(-141.0002,859.3622)"><path style="display:inline;fill:url(#linearGradient6956);fill-opacity:1;stroke:none" id="rect18654-7" d="m -92,-36.84375 -2.46875,1.8125 -2.53125,1.84375 1.28125,1.875 1.0625,1.5625 2.78125,4.15625 c 0.38364,0.5682 1.0736,0.76981 1.53125,0.4375 L -85.375,-28.75 c 0.45762,-0.33233 0.50866,-1.05678 0.125,-1.625 L -88,-34.4375 -88,-33 c 0,1.104569 -0.895431,2 -2,2 -1.104569,0 -2,-0.895431 -2,-2 z" transform="translate(241.0002,217)"/><rect id="rect18680-6" width="1.997" height="8" x="150.003" y="177" rx="1" ry="1" style="fill:url(#linearGradient6962);fill-opacity:1;stroke:none"/></g><path style="opacity:.5;fill:url(#linearGradient6968);fill-opacity:1;stroke:none;stroke-width:.49152637;stroke-linecap:round;stroke-miterlimit:4;stroke-dasharray:none;stroke-opacity:1" id="rect4226" d="m 1.4616436,1043.2444 c 0.533869,-1.3767 6.5405274,-3.211 4.4097584,-1.7978 l -2.663522,1.7665 c 0,0 -0.01341,3.9521 0.02626,6.084 0.01315,0.7068 -0.391596,1.2125 -0.928129,1.2288 -0.5636494,0.017 -1.0114924,-0.3153 -1.0631144,-1.2288 -0.12032,-2.1291 -0.45614396,-4.3122 0.21875,-6.0527 z"/></g></g></svg>