<svg xmlns="http://www.w3.org/2000/svg" xmlns:svg="http://www.w3.org/2000/svg" id="svg8" width="16" height="16" version="1.1" viewBox="0 0 4.233 4.233"><metadata id="metadata5"/><g id="layer4" style="display:inline"><g id="g1396"><path style="color:#000;font-style:normal;font-variant:normal;font-weight:400;font-stretch:normal;font-size:medium;line-height:normal;font-family:sans-serif;font-variant-ligatures:normal;font-variant-position:normal;font-variant-caps:normal;font-variant-numeric:normal;font-variant-alternates:normal;font-feature-settings:normal;text-indent:0;text-align:start;text-decoration:none;text-decoration-line:none;text-decoration-style:solid;text-decoration-color:#000;letter-spacing:normal;word-spacing:normal;text-transform:none;writing-mode:lr-tb;direction:ltr;text-orientation:mixed;dominant-baseline:auto;baseline-shift:baseline;text-anchor:start;white-space:normal;shape-padding:0;clip-rule:nonzero;display:inline;overflow:visible;visibility:visible;opacity:1;isolation:auto;mix-blend-mode:normal;color-interpolation:sRGB;color-interpolation-filters:linearRGB;solid-color:#000;solid-opacity:1;vector-effect:none;fill:#bebebe;fill-opacity:1;fill-rule:nonzero;stroke:none;stroke-width:.32521036;stroke-linecap:round;stroke-linejoin:miter;stroke-miterlimit:4;stroke-dasharray:none;stroke-dashoffset:0;stroke-opacity:1;color-rendering:auto;image-rendering:auto;shape-rendering:auto;text-rendering:auto;enable-background:accumulate" id="path817-3-9" d="m 2.1171961,0.91088973 c -0.7367311,0 -1.45048247,0.46772247 -1.95263864,1.32857767 -0.0541743,0.093105 -0.0267774,0.1984652 0.0418158,0.2651863 A 0.2710358,0.2710358 0 0 1 0.24871836,2.3373905 C 0.72282381,1.5246231 1.4057457,1.0707425 2.1171961,1.0707425 c 0.7114503,0 1.3943724,0.4538806 1.8684776,1.266648 a 0.2710358,0.2710358 0 0 1 0.041816,0.1746736 C 4.0995445,2.4457514 4.1254912,2.3347129 4.0698347,2.2394674 3.5676786,1.378613 2.8539272,0.91088897 2.1171961,0.91088973 Z M 1.8864153,1.6371083 c -0.098326,0.019683 -0.1970315,0.050797 -0.2948278,0.096864 A 0.29810954,0.29810954 0 0 0 1.5206594,1.9245257 0.29810954,0.29810954 0 0 0 1.8144286,2.225176 0.29810954,0.29810954 0 0 0 2.1166668,1.9319361 L 1.8186631,1.9271723 H 2.1166668 A 0.29810954,0.29810954 0 0 0 1.8864153,1.6371083 Z m 1.0977968,0.3197056 c 0.00615,0.042 0.012701,0.083857 0.012704,0.1275646 C 2.9968886,2.5705152 2.6028036,2.9646002 2.1166668,2.9646273 1.63053,2.9646002 1.236445,2.5705152 1.2364179,2.0843785 c 2.4e-6,-0.043528 0.0066,-0.0852 0.012703,-0.1270353 -0.18854,0.1584611 -0.36920697,0.3721971 -0.53248913,0.6521146 A 0.2710358,0.2710358 0 0 1 0.53560644,2.7486673 C 1.4580301,3.509987 2.7749417,3.5097845 3.6971977,2.748138 A 0.2710358,0.2710358 0 0 1 3.5177605,2.6094578 C 3.3542168,2.3290918 3.1730813,2.1153437 2.9842121,1.9568139 Z"/><g id="g5000"><path id="path817-3-9-1" d="m 2.1171875,0.91015625 c -0.7367311,0 -1.45096884,0.46922275 -1.953125,1.33007815 A 0.22009301,0.22009301 0 1 0 0.54492188,2.4609375 C 0.9919259,1.6946305 1.5657728,1.3496094 2.1171875,1.3496094 c 0.5514147,0 1.1252617,0.3450211 1.5722656,1.1113281 A 0.22009301,0.22009301 0 1 0 4.0703125,2.2402344 C 3.5681565,1.379379 2.8539186,0.91015625 2.1171875,0.91015625 Z" style="color:#000;font-style:normal;font-variant:normal;font-weight:400;font-stretch:normal;font-size:medium;line-height:normal;font-family:sans-serif;font-variant-ligatures:normal;font-variant-position:normal;font-variant-caps:normal;font-variant-numeric:normal;font-variant-alternates:normal;font-feature-settings:normal;text-indent:0;text-align:start;text-decoration:none;text-decoration-line:none;text-decoration-style:solid;text-decoration-color:#000;letter-spacing:normal;word-spacing:normal;text-transform:none;writing-mode:lr-tb;direction:ltr;text-orientation:mixed;dominant-baseline:auto;baseline-shift:baseline;text-anchor:start;white-space:normal;shape-padding:0;clip-rule:nonzero;display:inline;overflow:visible;visibility:visible;opacity:1;isolation:auto;mix-blend-mode:normal;color-interpolation:sRGB;color-interpolation-filters:linearRGB;solid-color:#000;solid-opacity:1;vector-effect:none;fill:#bebebe;fill-opacity:1;fill-rule:nonzero;stroke:none;stroke-width:.44011807;stroke-linecap:round;stroke-linejoin:miter;stroke-miterlimit:4;stroke-dasharray:none;stroke-dashoffset:0;stroke-opacity:1;color-rendering:auto;image-rendering:auto;shape-rendering:auto;text-rendering:auto;enable-background:accumulate"/><path id="path817-3-9-9" d="M 0.34765625,2.1855469 A 0.16262146,0.16262146 0 0 0 0.23242188,2.4570312 c 1.00980532,1.1540595 2.75972602,1.1540595 3.76953122,0 A 0.16262146,0.16262146 0 1 0 3.7578125,2.2441406 c -0.888515,1.0154426 -2.3927349,1.0154426 -3.28125,0 A 0.16262146,0.16262146 0 0 0 0.34765625,2.1855469 Z" style="color:#000;font-style:normal;font-variant:normal;font-weight:400;font-stretch:normal;font-size:medium;line-height:normal;font-family:sans-serif;font-variant-ligatures:normal;font-variant-position:normal;font-variant-caps:normal;font-variant-numeric:normal;font-variant-alternates:normal;font-feature-settings:normal;text-indent:0;text-align:start;text-decoration:none;text-decoration-line:none;text-decoration-style:solid;text-decoration-color:#000;letter-spacing:normal;word-spacing:normal;text-transform:none;writing-mode:lr-tb;direction:ltr;text-orientation:mixed;dominant-baseline:auto;baseline-shift:baseline;text-anchor:start;white-space:normal;shape-padding:0;clip-rule:nonzero;display:inline;overflow:visible;visibility:visible;opacity:1;isolation:auto;mix-blend-mode:normal;color-interpolation:sRGB;color-interpolation-filters:linearRGB;solid-color:#000;solid-opacity:1;vector-effect:none;fill:#bebebe;fill-opacity:1;fill-rule:nonzero;stroke:none;stroke-width:.32521039;stroke-linecap:round;stroke-linejoin:miter;stroke-miterlimit:4;stroke-dasharray:none;stroke-dashoffset:0;stroke-opacity:1;color-rendering:auto;image-rendering:auto;shape-rendering:auto;text-rendering:auto;enable-background:accumulate"/></g></g></g></svg>