<svg xmlns="http://www.w3.org/2000/svg" xmlns:osb="http://www.openswatchbook.org/uri/2009/osb" xmlns:svg="http://www.w3.org/2000/svg" xmlns:xlink="http://www.w3.org/1999/xlink" id="svg7384" width="16" height="16" version="1.1" viewBox="0 0 16 16"><metadata id="metadata90"/><defs id="defs7386"><linearGradient id="linearGradient8074" osb:paint="solid"><stop id="stop8072" offset="0" style="stop-color:#be00be;stop-opacity:1"/></linearGradient><linearGradient id="linearGradient7561" osb:paint="solid"><stop id="stop7558" offset="0" style="stop-color:#a5a5a5;stop-opacity:1"/></linearGradient><linearGradient id="linearGradient7548" osb:paint="solid"><stop id="stop7546" offset="0" style="stop-color:#ebebeb;stop-opacity:1"/></linearGradient><linearGradient id="linearGradient7542" osb:paint="solid"><stop id="stop7538" offset="0" style="stop-color:#c9c9c9;stop-opacity:1"/></linearGradient><linearGradient id="linearGradient19282" gradientTransform="matrix(0,-735328.32,170712.69,0,2464326300,577972450)" osb:paint="solid"><stop id="stop19284" offset="0" style="stop-color:#b4b4b4;stop-opacity:1"/></linearGradient><linearGradient id="linearGradient19282-4" gradientTransform="matrix(0.34682586,0,0,0.30620888,-33.35187,524.03851)" osb:paint="solid"><stop id="stop19284-0" offset="0" style="stop-color:#bebebe;stop-opacity:1"/></linearGradient><linearGradient id="linearGradient7303" x1="130" x2="137" y1="245" y2="245" gradientTransform="translate(297.54176,116.53019)" gradientUnits="userSpaceOnUse" xlink:href="#linearGradient19282-4"/><linearGradient id="linearGradient7309" x1="-120" x2="-113" y1="28" y2="28" gradientTransform="translate(297.54176,116.53019)" gradientUnits="userSpaceOnUse" xlink:href="#linearGradient19282-4"/></defs><g style="display:inline" id="tools" transform="translate(-6.9080805,-181.05367)"><g id="gimp-tool-flip" transform="translate(-114.09212,-55.946331)" style="display:inline"><path style="fill:url(#linearGradient7309);fill-opacity:1;stroke:none" id="rect4533" d="m -116,25 0,2 3,0 c 0,-2 0,6 0,-4 l -7,0 0,5 0,5 7,0 0,-4 -3,0 0,2 -3,-3 z" transform="translate(241.0002,217)"/><path id="path4546" d="m 136.0002,245 -3,-3 0,2 -3,0 0,-4 7,0 0,5 0,5 -7,0 0,-4 3,0 0,2 3,-3" style="fill:url(#linearGradient7303);fill-opacity:1;stroke:none"/></g></g></svg>