<svg xmlns="http://www.w3.org/2000/svg" xmlns:osb="http://www.openswatchbook.org/uri/2009/osb" xmlns:svg="http://www.w3.org/2000/svg" xmlns:xlink="http://www.w3.org/1999/xlink" id="svg7384" width="16" height="16" version="1.1" viewBox="0 0 16 16"><metadata id="metadata90"/><defs id="defs7386"><linearGradient id="linearGradient8074" osb:paint="solid"><stop id="stop8072" offset="0" style="stop-color:#be00be;stop-opacity:1"/></linearGradient><linearGradient id="linearGradient7561" osb:paint="solid"><stop id="stop7558" offset="0" style="stop-color:#a5a5a5;stop-opacity:1"/></linearGradient><linearGradient id="linearGradient7548" osb:paint="solid"><stop id="stop7546" offset="0" style="stop-color:#ebebeb;stop-opacity:1"/></linearGradient><linearGradient id="linearGradient7542" osb:paint="solid"><stop id="stop7538" offset="0" style="stop-color:#c9c9c9;stop-opacity:1"/></linearGradient><linearGradient id="linearGradient19282" gradientTransform="matrix(0,-735328.32,170712.69,0,2464326300,577972450)" osb:paint="solid"><stop id="stop19284" offset="0" style="stop-color:#b4b4b4;stop-opacity:1"/></linearGradient><linearGradient id="linearGradient19282-4" gradientTransform="matrix(0.34682586,0,0,0.30620888,26.64813,484.03851)" osb:paint="solid"><stop id="stop19284-0" offset="0" style="stop-color:#bebebe;stop-opacity:1"/></linearGradient><linearGradient id="linearGradient9880" x1="182" x2="196" y1="285" y2="285" gradientTransform="translate(347.15105,209.01606)" gradientUnits="userSpaceOnUse" xlink:href="#linearGradient19282-4"/><linearGradient id="linearGradient9886" x1="184" x2="187" y1="288.5" y2="288.5" gradientTransform="translate(347.15105,209.01606)" gradientUnits="userSpaceOnUse" xlink:href="#linearGradient19282-4"/><linearGradient id="linearGradient9888" x1="288" x2="290" y1="-191" y2="-191" gradientTransform="translate(209.01606,-347.15105)" gradientUnits="userSpaceOnUse" xlink:href="#linearGradient19282-4"/><linearGradient id="linearGradient9890" x1="-290" x2="-288" y1="-193" y2="-193" gradientTransform="translate(-209.01606,-347.15105)" gradientUnits="userSpaceOnUse" xlink:href="#linearGradient19282-4"/><linearGradient id="linearGradient9892" x1="192" x2="194" y1="286.5" y2="286.5" gradientTransform="translate(347.15105,209.01606)" gradientUnits="userSpaceOnUse" xlink:href="#linearGradient19282-4"/><linearGradient id="linearGradient9894" x1="-288" x2="-285" y1="-188.501" y2="-188.501" gradientTransform="translate(-209.01606,-347.15174)" gradientUnits="userSpaceOnUse" xlink:href="#linearGradient19282-4"/><linearGradient id="linearGradient9896" x1="-285" x2="-283" y1="-187.5" y2="-187.5" gradientTransform="translate(-209.01606,-347.15105)" gradientUnits="userSpaceOnUse" xlink:href="#linearGradient19282-4"/><linearGradient id="linearGradient9898" x1="-186" x2="-184" y1="284" y2="284" gradientTransform="translate(-347.15105,209.01606)" gradientUnits="userSpaceOnUse" xlink:href="#linearGradient19282-4"/><linearGradient id="linearGradient9900" x1="184" x2="187" y1="281.5" y2="281.5" gradientTransform="translate(347.15105,209.01606)" gradientUnits="userSpaceOnUse" xlink:href="#linearGradient19282-4"/><linearGradient id="linearGradient9902" x1="280" x2="282" y1="-188" y2="-188" gradientTransform="translate(209.01606,-347.15105)" gradientUnits="userSpaceOnUse" xlink:href="#linearGradient19282-4"/><linearGradient id="linearGradient9904" x1="283" x2="285" y1="-190" y2="-190" gradientTransform="translate(209.01606,-347.15105)" gradientUnits="userSpaceOnUse" xlink:href="#linearGradient19282-4"/><linearGradient id="linearGradient9906" x1="-283" x2="-280" y1="-192.5" y2="-192.5" gradientTransform="translate(-209.01606,-347.15105)" gradientUnits="userSpaceOnUse" xlink:href="#linearGradient19282-4"/></defs><g style="display:inline" id="tools" transform="translate(-56.51737,-273.53954)"><g id="gimp-tool-posterize" transform="translate(-124.48283,-3.4604573)" style="display:inline"><rect id="rect5249" width="2" height="2" x="-186" y="283" transform="scale(-1,1)" style="fill:url(#linearGradient9898);fill-opacity:1;stroke:none"/><rect style="opacity:.3;fill:url(#linearGradient9900);fill-opacity:1;stroke:none" id="rect5265" width="3" height="3" x="184" y="280"/><path style="fill:url(#linearGradient9880);fill-opacity:1;stroke:none" id="rect5267" d="m 182.0002,278 0,14 14,0 0,-14 z m 1,1 12,0 0,12 -12,0 z"/><rect id="rect5286" width="3" height="3" x="-283" y="-194" transform="matrix(0,-1,-1,0,0,0)" style="opacity:1;fill:url(#linearGradient9906);fill-opacity:1;stroke:none"/><rect style="fill:url(#linearGradient9902);fill-opacity:1;stroke:none" id="rect5353" width="2" height="2" x="280" y="-189" transform="matrix(0,1,-1,0,0,0)"/><rect id="rect5355" width="2" height="3" x="192" y="285" style="fill:url(#linearGradient9892);fill-opacity:1;stroke:none"/><rect id="rect5373" width="2" height="2" x="283" y="-191" transform="matrix(0,1,-1,0,0,0)" style="fill:url(#linearGradient9904);fill-opacity:1;stroke:none"/><rect id="rect5375" width="2" height="2" x="-290" y="-194" transform="matrix(0,-1,-1,0,0,0)" style="opacity:.3;fill:url(#linearGradient9890);fill-opacity:1;stroke:none"/><rect style="opacity:.3;fill:url(#linearGradient9894);fill-opacity:1;stroke:none" id="rect5377" width="3" height="3" x="-288" y="-190.001" transform="matrix(3.3046512e-6,-1,-1,0,0,0)"/><rect id="rect5379" width="2" height="3" x="-285" y="-189" transform="matrix(0,-1,-1,0,0,0)" style="opacity:.3;fill:url(#linearGradient9896);fill-opacity:1;stroke:none"/><rect style="fill:url(#linearGradient9888);fill-opacity:1;stroke:none" id="rect5382" width="2" height="2" x="288" y="-192" transform="matrix(0,1,-1,0,0,0)"/><rect id="rect5384" width="3" height="3" x="184" y="287" style="opacity:1;fill:url(#linearGradient9886);fill-opacity:1;stroke:none"/></g></g></svg>