<svg xmlns="http://www.w3.org/2000/svg" xmlns:osb="http://www.openswatchbook.org/uri/2009/osb" xmlns:svg="http://www.w3.org/2000/svg" xmlns:xlink="http://www.w3.org/1999/xlink" id="svg7384" width="16" height="16" version="1.1" viewBox="0 0 16 16"><metadata id="metadata90"/><defs id="defs7386"><linearGradient id="linearGradient8074" osb:paint="solid"><stop id="stop8072" offset="0" style="stop-color:#be00be;stop-opacity:1"/></linearGradient><linearGradient id="linearGradient7561" osb:paint="solid"><stop id="stop7558" offset="0" style="stop-color:#a5a5a5;stop-opacity:1"/></linearGradient><linearGradient id="linearGradient7548" osb:paint="solid"><stop id="stop7546" offset="0" style="stop-color:#ebebeb;stop-opacity:1"/></linearGradient><linearGradient id="linearGradient7542" osb:paint="solid"><stop id="stop7538" offset="0" style="stop-color:#c9c9c9;stop-opacity:1"/></linearGradient><linearGradient id="linearGradient19282" gradientTransform="matrix(0,-735328.32,170712.69,0,2464326300,577972450)" osb:paint="solid"><stop id="stop19284" offset="0" style="stop-color:#b4b4b4;stop-opacity:1"/></linearGradient><linearGradient id="linearGradient19282-4" gradientTransform="matrix(0.34682586,0,0,0.30620888,-93.35187,262.03851)" osb:paint="solid"><stop id="stop19284-0" offset="0" style="stop-color:#bebebe;stop-opacity:1"/></linearGradient><linearGradient id="linearGradient7627" x1="-175.539" x2="-168" y1="290" y2="290" gradientTransform="translate(542.21239,317.9785)" gradientUnits="userSpaceOnUse" xlink:href="#linearGradient19282-4"/><linearGradient id="linearGradient7633" x1="63" x2="75" y1="507" y2="507" gradientTransform="translate(575.34866,317.9785)" gradientUnits="userSpaceOnUse" xlink:href="#linearGradient19282-4"/><linearGradient id="linearGradient7639" x1="-179" x2="-165" y1="290" y2="290" gradientTransform="translate(575.34866,317.9785)" gradientUnits="userSpaceOnUse" xlink:href="#linearGradient19282-4"/></defs><g style="display:inline" id="stock" transform="translate(-117.53751,-150.94726)"><g id="gimp-gradient-radial" transform="translate(56.537314,-348.05274)" style="display:inline"><path style="fill:url(#linearGradient7639);fill-opacity:1;stroke:none" id="rect6886" d="m -179,283 0,14 14,0 0,-14 z m 1,1 12,0 0,12 -12,0 z" transform="translate(241.0002,217)"/><ellipse style="fill:url(#linearGradient7627);fill-opacity:1;stroke:none" id="path6891" cx="-171.77" cy="290" rx="3.77" ry="4" transform="matrix(1.0611131,0,0,1,251.26721,217)"/><path style="opacity:.3;fill:url(#linearGradient7633);fill-opacity:1;stroke:none" id="path6893" d="m 69.0002,501 c -3.31371,0 -6,2.68629 -6,6 0,3.31371 2.68629,6 6,6 3.31371,0 6,-2.68629 6,-6 0,-3.31371 -2.68629,-6 -6,-6 z m 0,2 c 2.20914,0 4,1.79086 4,4 0,2.20914 -1.79086,4 -4,4 -2.20914,0 -4,-1.79086 -4,-4 0,-2.20914 1.79086,-4 4,-4 z"/></g></g></svg>