<svg xmlns="http://www.w3.org/2000/svg" xmlns:osb="http://www.openswatchbook.org/uri/2009/osb" xmlns:svg="http://www.w3.org/2000/svg" xmlns:xlink="http://www.w3.org/1999/xlink" id="svg7384" width="16" height="16.002" version="1.1" viewBox="0 0 16 16.002"><metadata id="metadata90"/><defs id="defs7386"><linearGradient id="linearGradient8074" osb:paint="solid"><stop id="stop8072" offset="0" style="stop-color:#be00be;stop-opacity:1"/></linearGradient><linearGradient id="linearGradient7561" osb:paint="solid"><stop id="stop7558" offset="0" style="stop-color:#a5a5a5;stop-opacity:1"/></linearGradient><linearGradient id="linearGradient7548" osb:paint="solid"><stop id="stop7546" offset="0" style="stop-color:#ebebeb;stop-opacity:1"/></linearGradient><linearGradient id="linearGradient7542" osb:paint="solid"><stop id="stop7538" offset="0" style="stop-color:#c9c9c9;stop-opacity:1"/></linearGradient><linearGradient id="linearGradient19282" gradientTransform="matrix(0,-735328.32,170712.69,0,2464326300,577972450)" osb:paint="solid"><stop id="stop19284" offset="0" style="stop-color:#b4b4b4;stop-opacity:1"/></linearGradient><linearGradient id="linearGradient19282-4" gradientTransform="matrix(0.34682586,0,0,0.30620888,-154.35207,-275.32445)" osb:paint="solid"><stop id="stop19284-0" offset="0" style="stop-color:#bebebe;stop-opacity:1"/></linearGradient><linearGradient id="linearGradient7097" x1="0" x2="16" y1="1044.362" y2="1044.362" gradientTransform="translate(620.90638,253.52114)" gradientUnits="userSpaceOnUse" xlink:href="#linearGradient19282-4"/><linearGradient id="linearGradient1511" x1="3.478" x2="11.589" y1="1027.128" y2="1027.128" gradientTransform="translate(631.37502,249.31757)" gradientUnits="userSpaceOnUse" xlink:href="#linearGradient19282-4"/><linearGradient id="linearGradient1513" x1="3.478" x2="11.589" y1="1027.128" y2="1027.128" gradientTransform="translate(631.37502,249.31757)" gradientUnits="userSpaceOnUse" xlink:href="#linearGradient19282-4"/></defs><g style="display:inline" id="stock" transform="translate(-163.09523,-86.489901)"><g id="gimp-display-filter-gamma" transform="translate(163.09523,-949.87153)"><path style="fill:url(#linearGradient7097);fill-opacity:1;stroke:none" id="rect28283-2-9" d="m 1,1036.3622 c -0.65445,0 -1,-0.065 -1,1 l 0,14 c 0,1.0646 0.34555,1 1,1 l 7,0 7,0 c 0.633474,0 0.967335,0.016 1,-1 l 0,0 0,-7 0,-7 0,0 c -0.03266,-1.0157 -0.366526,-1 -1,-1 l -7,0 z m 2,1 5,0 5,0 c 0.65445,0 2,1.1354 2,2.2 l 0,9.6 c 0,1.0646 -1.34555,2.2 -2,2.2 l -5,0 -5,0 c -0.65445,0 -2,-1.4354 -2,-2.5 l 0,-9 c 0,-1.0646 1.3502118,-2.578 2,-2.5 z"/><text id="text3137-2" x="3.771" y="1029.335" transform="scale(0.9834193,1.0168603)" xml:space="preserve" style="font-style:normal;font-weight:400;font-size:39.74980164px;line-height:125%;font-family:sans-serif;letter-spacing:0;word-spacing:0;fill:url(#linearGradient1511);fill-opacity:1;stroke:url(#linearGradient1513);stroke-width:.99374503px;stroke-linecap:butt;stroke-linejoin:miter;stroke-opacity:1"><tspan style="font-size:13.02744293px;fill:url(#linearGradient1511);fill-opacity:1;stroke:url(#linearGradient1513);stroke-width:.99374503px;stroke-opacity:1" id="tspan3139-6" x="3.771" y="1029.335">γ</tspan></text></g></g></svg>