<svg xmlns="http://www.w3.org/2000/svg" xmlns:osb="http://www.openswatchbook.org/uri/2009/osb" xmlns:svg="http://www.w3.org/2000/svg" xmlns:xlink="http://www.w3.org/1999/xlink" id="svg7384" width="16.001" height="16.001" version="1.1" viewBox="0 0 16.001 16.001"><metadata id="metadata90"/><defs id="defs7386"><linearGradient id="linearGradient8074" osb:paint="solid"><stop id="stop8072" offset="0" style="stop-color:#be00be;stop-opacity:1"/></linearGradient><linearGradient id="linearGradient7561" osb:paint="solid"><stop id="stop7558" offset="0" style="stop-color:#a5a5a5;stop-opacity:1"/></linearGradient><linearGradient id="linearGradient7548" osb:paint="solid"><stop id="stop7546" offset="0" style="stop-color:#ebebeb;stop-opacity:1"/></linearGradient><linearGradient id="linearGradient7542" osb:paint="solid"><stop id="stop7538" offset="0" style="stop-color:#c9c9c9;stop-opacity:1"/></linearGradient><linearGradient id="linearGradient19282" gradientTransform="matrix(0,-735328.32,170712.69,0,2464326300,577972450)" osb:paint="solid"><stop id="stop19284" offset="0" style="stop-color:#b4b4b4;stop-opacity:1"/></linearGradient><linearGradient id="linearGradient19282-4" gradientTransform="matrix(0.34682586,0,0,0.30620888,-53.35239,564.0385)" osb:paint="solid"><stop id="stop19284-0" offset="0" style="stop-color:#bebebe;stop-opacity:1"/></linearGradient><linearGradient id="linearGradient7060" x1="295.703" x2="311.703" y1="305.369" y2="305.369" gradientTransform="translate(299.26416,297.36914)" gradientUnits="userSpaceOnUse" xlink:href="#linearGradient19282-4"/></defs><g style="display:inline" id="tools" transform="translate(-8.630481,-361.89263)"><g id="gimp-tool-move" transform="translate(-92.369199,164.8935)" style="display:inline"><path id="path74740" d="m 303.72461,297.36914 -3.02149,3.01563 2.03126,0 0,4.02148 c -1.34341,-0.0101 -2.68746,-0.0211 -4.03126,-0.0293 l 0,-1.99414 -3,2.97461 3,3.01758 0,-2.00586 c 1.34376,-9e-5 2.68749,-0.003 4.03126,0 l 0,2 0,2.00391 -2.03126,0 3.02149,2.99609 2.97851,-2.99609 -2,0 0,-2.00391 0,-2 c 1.33334,9e-4 2.66668,0.004 4,0 l 0,2.00586 3,-3.01758 -3,-2.97461 0,1.9961 c -1.33322,0.0235 -2.66617,0.0388 -4,0.0351 l 0,-4.02929 2,0 z" transform="translate(-194.70344,-100.37001)" style="fill:url(#linearGradient7060);fill-opacity:1;stroke:none"/></g></g></svg>