<svg xmlns="http://www.w3.org/2000/svg" xmlns:osb="http://www.openswatchbook.org/uri/2009/osb" xmlns:svg="http://www.w3.org/2000/svg" xmlns:xlink="http://www.w3.org/1999/xlink" id="svg7384" width="16" height="16" version="1.1" viewBox="0 0 16 16"><metadata id="metadata90"/><defs id="defs7386"><linearGradient id="linearGradient8074" osb:paint="solid"><stop id="stop8072" offset="0" style="stop-color:#be00be;stop-opacity:1"/></linearGradient><linearGradient id="linearGradient7561" osb:paint="solid"><stop id="stop7558" offset="0" style="stop-color:#a5a5a5;stop-opacity:1"/></linearGradient><linearGradient id="linearGradient7548" osb:paint="solid"><stop id="stop7546" offset="0" style="stop-color:#ebebeb;stop-opacity:1"/></linearGradient><linearGradient id="linearGradient7542" osb:paint="solid"><stop id="stop7538" offset="0" style="stop-color:#c9c9c9;stop-opacity:1"/></linearGradient><linearGradient id="linearGradient19282" gradientTransform="matrix(0,-735328.32,170712.69,0,2464326300,577972450)" osb:paint="solid"><stop id="stop19284" offset="0" style="stop-color:#b4b4b4;stop-opacity:1"/></linearGradient><linearGradient id="linearGradient19282-4" gradientTransform="matrix(0.34682586,0,0,0.30620888,-154.35207,-275.32368)" osb:paint="solid"><stop id="stop19284-0" offset="0" style="stop-color:#bebebe;stop-opacity:1"/></linearGradient><linearGradient id="linearGradient7207" x1="2" x2="11" y1="1040.862" y2="1040.862" gradientTransform="translate(482.51085,304.06057)" gradientUnits="userSpaceOnUse" xlink:href="#linearGradient19282-4"/><linearGradient id="linearGradient7209" x1="0" x2="16" y1="1047.362" y2="1047.362" gradientTransform="translate(482.51085,304.06057)" gradientUnits="userSpaceOnUse" xlink:href="#linearGradient19282-4"/></defs><g style="display:inline" id="stock" transform="translate(-24.699696,-137.02933)"><g id="gimp-layer-mask" transform="translate(24.699696,-899.33285)"><path id="path13520-2" d="m 11,1044.3622 -4,2 -1,0 -2.5,-1.25 -0.84375,1.25 -2.65625,4 12,0 4,-6 z" style="fill:url(#linearGradient7209);fill-opacity:1;stroke:none"/><path style="color:#000;display:inline;overflow:visible;visibility:visible;fill:url(#linearGradient7207);fill-opacity:1;fill-rule:evenodd;stroke:none;stroke-width:1.00000358;marker:none" id="path3826-6" d="m 2,1036.3622 0,4.827 c 0,1.7134 2.0069686,3.1453 4.4843206,4.173 C 9.0243902,1044.3345 11,1043.1744 11,1041.2515 l 0,-4.8893 z m 1.0034843,1.9931 3.010453,0 0,0.9965 0,0.9965 -2.0069687,-0.9965 z m 4.0139373,0 3.0104534,0 -1.0034848,0.9965 -2.0069686,0.9965 z m -3.010453,2.9896 5.0174216,0 c -2.4834972,4.4738 -5.0174216,0 -5.0174216,0 z"/></g></g></svg>