<svg xmlns="http://www.w3.org/2000/svg" xmlns:svg="http://www.w3.org/2000/svg" id="svg30571" width="16" height="16" version="1.1" viewBox="0 0 16 16"><metadata id="metadata30576"/><g id="layer1" transform="translate(0,-1036.3622)"><g id="g4256"><g id="document-open" transform="translate(-285.00211,-95)"><g id="g14298" transform="translate(24.0019,734.3622)"><path id="path12212" d="m 0.57226562,1 c -0.2878,0 -0.52929687,0.24205 -0.52929687,0.53125 v 12.935547 c 0,0.2984 0.23199687,0.53125 0.52929687,0.53125 H 14.320312 c 0.2972,0 0.529297,-0.23275 0.529297,-0.53125 L 16,10.265625 C 15.745089,9.9581485 15.496909,10.032327 15.068359,10 11.273437,10 7.4785155,10 3.6835938,10 l -0.6542969,2.498047 c 0,0.277 -0.2223469,0.5 -0.4980469,0.5 -0.2757,0 -0.4966469,-0.223 -0.4980469,-0.5 L 2,6 3.0683594,5.9375 2.9980469,1 H 1.0703125 Z M 4.0546875,8 3.9824219,8.3164062 V 8.7324219 H 14.214844 V 8 Z" transform="translate(261.00021,397)" style="color:#000;fill:#bebebe;fill-opacity:1"/></g></g><g id="g3942" transform="matrix(0.78571429,0,0,0.81081081,-107.57159,728.33517)" style="display:inline"><path style="fill:#bebebe;fill-opacity:1;stroke:none" id="rect5882" d="m 142.0002,379.9 2e-4,11.1 h 13.9998 v -11.1 z m 1.27273,1.23334 h 11.45455 v 8.63333 h -11.45455 z"/><path style="opacity:.3;fill:#bebebe;fill-opacity:1;stroke:none" id="rect10683" d="m -97,165 v 7 h 1 c 0,-0.75515 0.671573,-1.375 1.5,-1.375 0.828427,0 1.5,0.61985 1.5,1.375 h 1 v -1.5 c 1.4e-4,-0.98573 -0.7274,-1.47402 -2,-2.0625 0,0 0.02947,3.7e-4 0.25,0 0.40803,0.0835 1.38212,0.3501 1.75,0.59375 -0.09819,-0.35554 -0.14101,-0.89353 -0.4375,-1.34375 C -92.73401,167.23732 -94,166.34375 -94,166.34375 l 0.0625,-0.0312 c 0.05568,-0.0402 0.9453,0.7655 1.25,0.6875 -0.13515,-0.32497 -0.25949,-0.63468 -0.40625,-0.8125 l 0.1875,-0.0312 c 0.35629,0.59147 0.46684,0.72309 0.84375,1.15625 0.12472,0.0571 -0.03108,-0.0423 1.0625,-0.59375 V 167 c 0,0 -1.0625,0.30993 -0.75,0.90625 0.22248,0.30573 0.39823,1.01025 0.75,1.09375 0,0 0.85009,-1.22532 1.5,-1.625 0,0 -0.21923,-0.50879 -0.21875,-0.78125 3.7e-4,-0.20918 0.15625,-0.59375 0.15625,-0.59375 0.02319,0.39561 -0.0029,0.83091 0.28125,1.21875 L -88.34375,166 H -88 c 0,0 -2.25088,2.3886 -2,2.78125 0.39455,-0.048 2,-0.34375 2,-0.34375 V 168.5 c -1.04689,0.34884 -1.67111,0.68872 -2,1.5 v 2 h 3 v -7 z" transform="translate(241.0002,217)"/></g></g></g></svg>