<svg xmlns="http://www.w3.org/2000/svg" xmlns:osb="http://www.openswatchbook.org/uri/2009/osb" xmlns:svg="http://www.w3.org/2000/svg" xmlns:xlink="http://www.w3.org/1999/xlink" id="svg7384" width="16" height="16" version="1.1" viewBox="0 0 16 16"><metadata id="metadata90"/><defs id="defs7386"><linearGradient id="linearGradient8074" osb:paint="solid"><stop id="stop8072" offset="0" style="stop-color:#be00be;stop-opacity:1"/></linearGradient><linearGradient id="linearGradient7561" osb:paint="solid"><stop id="stop7558" offset="0" style="stop-color:#a5a5a5;stop-opacity:1"/></linearGradient><linearGradient id="linearGradient7548" osb:paint="solid"><stop id="stop7546" offset="0" style="stop-color:#ebebeb;stop-opacity:1"/></linearGradient><linearGradient id="linearGradient7542" osb:paint="solid"><stop id="stop7538" offset="0" style="stop-color:#c9c9c9;stop-opacity:1"/></linearGradient><linearGradient id="linearGradient19282" gradientTransform="matrix(0,-735328.32,170712.69,0,2464326300,577972450)" osb:paint="solid"><stop id="stop19284" offset="0" style="stop-color:#b4b4b4;stop-opacity:1"/></linearGradient><linearGradient id="linearGradient19282-4" gradientTransform="matrix(0.34682586,0,0,0.30620888,-154.35207,-275.32366)" osb:paint="solid"><stop id="stop19284-0" offset="0" style="stop-color:#bebebe;stop-opacity:1"/></linearGradient><linearGradient id="linearGradient6974" x1="0" x2="16" y1="1047.849" y2="1047.849" gradientTransform="translate(300.28381,248.85583)" gradientUnits="userSpaceOnUse" xlink:href="#linearGradient19282-4"/><linearGradient id="linearGradient7090" x1="1" x2="3" y1="1040.362" y2="1040.362" gradientTransform="translate(300.28381,248.85583)" gradientUnits="userSpaceOnUse" xlink:href="#linearGradient19282-4"/><linearGradient id="linearGradient7092" x1="3" x2="5" y1="1038.362" y2="1038.362" gradientTransform="translate(300.28381,248.85583)" gradientUnits="userSpaceOnUse" xlink:href="#linearGradient19282-4"/><linearGradient id="linearGradient7094" x1="5" x2="7" y1="1040.362" y2="1040.362" gradientTransform="translate(300.28381,248.85583)" gradientUnits="userSpaceOnUse" xlink:href="#linearGradient19282-4"/><linearGradient id="linearGradient7096" x1="7" x2="9" y1="1038.362" y2="1038.362" gradientTransform="translate(300.28381,248.85583)" gradientUnits="userSpaceOnUse" xlink:href="#linearGradient19282-4"/><linearGradient id="linearGradient7098" x1="9" x2="11" y1="1040.362" y2="1040.362" gradientTransform="translate(300.28381,248.85583)" gradientUnits="userSpaceOnUse" xlink:href="#linearGradient19282-4"/><linearGradient id="linearGradient7100" x1="11" x2="13" y1="1038.362" y2="1038.362" gradientTransform="translate(300.28381,248.85583)" gradientUnits="userSpaceOnUse" xlink:href="#linearGradient19282-4"/><linearGradient id="linearGradient7102" x1="13" x2="15" y1="1040.362" y2="1040.362" gradientTransform="translate(300.28381,248.85583)" gradientUnits="userSpaceOnUse" xlink:href="#linearGradient19282-4"/><linearGradient id="linearGradient7104" x1="11" x2="13" y1="1042.362" y2="1042.362" gradientTransform="translate(300.28381,248.85583)" gradientUnits="userSpaceOnUse" xlink:href="#linearGradient19282-4"/><linearGradient id="linearGradient7106" x1="7" x2="9" y1="1042.362" y2="1042.362" gradientTransform="translate(300.28381,248.85583)" gradientUnits="userSpaceOnUse" xlink:href="#linearGradient19282-4"/><linearGradient id="linearGradient7108" x1="3" x2="5" y1="1042.362" y2="1042.362" gradientTransform="translate(300.28381,248.85583)" gradientUnits="userSpaceOnUse" xlink:href="#linearGradient19282-4"/></defs><g style="display:inline" id="tools" transform="translate(-9.6501258,-313.37932)"><g id="gimp-tool-gradient" transform="translate(9.6501258,-722.98286)"><rect style="opacity:1;fill:#bebebe;fill-opacity:.12455325;stroke:none" id="rect91" width="3" height="3" x="1" y="1047.362"/><path id="path2" d="M 5.0008873,1043.3625 7,1043.3622 l 2.958e-4,1.9997 -1.9994085,0 z M 9,1043.3622 l 1.999113,3e-4 0,1.9994 -1.9994087,0 z m -5.9985211,3e-4 c -2.0009859,5.9998 -1.000493,2.9999 0,0 z M 0,1043.3622 l 0.00236616,7.9979 c 3.2534e-4,1.0997 -0.09997042,0.9997 0.99970424,0.9997 l 13.9958596,0 c 1.099674,0 0.999379,0.1 0.999704,-0.9997 L 16,1043.3622 c -11.5768809,-0.034 -6.9478824,-0.038 -16,0 z m 5.0008873,6.9982 -1.9994084,0 0,-1.9994 1.9994084,0 z m 3.998817,0 -1.9994085,0 0,-1.9994 1.9994085,0 z m 3.9988167,0 -1.999408,0 0,-1.9994 1.999408,0 z m 1.999409,-6.9979 -1.99793,0 -0.0015,1.9994 1.999409,0 0,1.9994 -1.999409,0 0,-1.9994 -1.999408,0 0,1.9994 -1.9993877,0 0,-1.9994 -1.9994085,0 0,1.9994 -1.9994085,0 0,-1.9994 -1.9994084,0 0,1.9994 -1.9994085,0 0,-1.9994 1.9994085,0 0,-1.9994 -2.0014789,0" style="fill:url(#linearGradient6974);fill-opacity:1;stroke-width:.99970424"/><rect style="opacity:.66000001;fill:url(#linearGradient7108);fill-opacity:1;stroke:none;stroke-width:.98473191" id="rect4360" width="2" height="2" x="3" y="1041.362"/><rect style="opacity:.66000001;fill:url(#linearGradient7106);fill-opacity:1;stroke:none;stroke-width:.98473191" id="rect4360-9" width="2" height="2" x="7" y="1041.362"/><rect style="opacity:.66000001;fill:url(#linearGradient7104);fill-opacity:1;stroke:none;stroke-width:.98473191" id="rect4360-7" width="2" height="2" x="11" y="1041.362"/><rect style="opacity:.33000004;fill:url(#linearGradient7090);fill-opacity:1;stroke:none;stroke-width:.98473191" id="rect4360-6" width="2" height="2" x="1" y="1039.362"/><rect style="opacity:.33000004;fill:url(#linearGradient7094);fill-opacity:1;stroke:none;stroke-width:.98473191" id="rect4360-6-8" width="2" height="2" x="5" y="1039.362"/><rect style="opacity:.33000004;fill:url(#linearGradient7098);fill-opacity:1;stroke:none;stroke-width:.98473191" id="rect4360-6-3" width="2" height="2" x="9" y="1039.362"/><rect style="opacity:.33000004;fill:url(#linearGradient7102);fill-opacity:1;stroke:none;stroke-width:.98473191" id="rect4360-6-33" width="2" height="2" x="13" y="1039.362"/><rect style="opacity:.11000001;fill:url(#linearGradient7092);fill-opacity:1;stroke:none;stroke-width:.98473191" id="rect4360-6-9" width="2" height="2" x="3" y="1037.362"/><rect style="opacity:.11000001;fill:url(#linearGradient7096);fill-opacity:1;stroke:none;stroke-width:.98473191" id="rect4360-6-9-4" width="2" height="2" x="7" y="1037.362"/><rect style="opacity:.11000001;fill:url(#linearGradient7100);fill-opacity:1;stroke:none;stroke-width:.98473191" id="rect4360-6-9-5" width="2" height="2" x="11" y="1037.362"/><rect style="opacity:0;fill:#bebebe;fill-opacity:1;stroke:none;stroke-width:.97624689" id="rect4462" width="16" height="1" x="0" y="1036.362"/></g></g></svg>