<svg xmlns="http://www.w3.org/2000/svg" xmlns:osb="http://www.openswatchbook.org/uri/2009/osb" xmlns:svg="http://www.w3.org/2000/svg" xmlns:xlink="http://www.w3.org/1999/xlink" id="svg7384" width="16" height="16" version="1.1" viewBox="0 0 16 16"><metadata id="metadata90"/><defs id="defs7386"><linearGradient id="linearGradient8074" osb:paint="solid"><stop id="stop8072" offset="0" style="stop-color:#be00be;stop-opacity:1"/></linearGradient><linearGradient id="linearGradient7561" osb:paint="solid"><stop id="stop7558" offset="0" style="stop-color:#a5a5a5;stop-opacity:1"/></linearGradient><linearGradient id="linearGradient7548" osb:paint="solid"><stop id="stop7546" offset="0" style="stop-color:#ebebeb;stop-opacity:1"/></linearGradient><linearGradient id="linearGradient7542" osb:paint="solid"><stop id="stop7538" offset="0" style="stop-color:#c9c9c9;stop-opacity:1"/></linearGradient><linearGradient id="linearGradient19282" gradientTransform="matrix(0,-735328.32,170712.69,0,2464326300,577972450)" osb:paint="solid"><stop id="stop19284" offset="0" style="stop-color:#b4b4b4;stop-opacity:1"/></linearGradient><linearGradient id="linearGradient19282-4" gradientTransform="matrix(0.34682586,0,0,0.30620888,-73.351872,362.03851)" osb:paint="solid"><stop id="stop19284-0" offset="0" style="stop-color:#bebebe;stop-opacity:1"/></linearGradient><linearGradient id="linearGradient7079" x1="88" x2="90" y1="410.5" y2="410.5" gradientTransform="translate(442.00355,132.74866)" gradientUnits="userSpaceOnUse" xlink:href="#linearGradient19282-4"/><linearGradient id="linearGradient7081" x1="-157" x2="-147" y1="191.5" y2="191.5" gradientTransform="translate(442.00355,132.74866)" gradientUnits="userSpaceOnUse" xlink:href="#linearGradient19282-4"/></defs><g style="display:inline" id="stock" transform="translate(15.807599,34.28258)"><g id="gimp-cap-round" transform="translate(-96.807798,-433.28258)" style="display:inline"><g id="g896"><path id="rect30026" d="m -152,185 c -2.77,0 -5,1 -5,5 l 0,8 2,0 0,-8 c 0,-3 2,-3 3,-3 1,0 3,0 3,3 l 0,8 2,0 0,-8 c 0,-4 -2.23,-5 -5,-5 z" transform="translate(241.0002,217)" style="fill:url(#linearGradient7081);fill-opacity:1;stroke:none"/><path id="rect30037" d="m 89.000198,406 c 0.554,0 1,0.446 1,1 l 2e-6,8 -2,0 -2e-6,-8 c 0,-0.554 0.446,-1 1,-1 z" style="opacity:.3;fill:url(#linearGradient7079);fill-opacity:1;stroke:none"/></g></g></g></svg>