<svg xmlns="http://www.w3.org/2000/svg" xmlns:osb="http://www.openswatchbook.org/uri/2009/osb" xmlns:svg="http://www.w3.org/2000/svg" xmlns:xlink="http://www.w3.org/1999/xlink" id="svg7384" width="16" height="16" version="1.1" viewBox="0 0 16 16"><metadata id="metadata90"/><defs id="defs7386"><linearGradient id="linearGradient8074" osb:paint="solid"><stop id="stop8072" offset="0" style="stop-color:#be00be;stop-opacity:1"/></linearGradient><linearGradient id="linearGradient7561" osb:paint="solid"><stop id="stop7558" offset="0" style="stop-color:#a5a5a5;stop-opacity:1"/></linearGradient><linearGradient id="linearGradient7548" osb:paint="solid"><stop id="stop7546" offset="0" style="stop-color:#ebebeb;stop-opacity:1"/></linearGradient><linearGradient id="linearGradient7542" osb:paint="solid"><stop id="stop7538" offset="0" style="stop-color:#c9c9c9;stop-opacity:1"/></linearGradient><linearGradient id="linearGradient19282" gradientTransform="matrix(0,-735328.32,170712.69,0,2464326300,577972450)" osb:paint="solid"><stop id="stop19284" offset="0" style="stop-color:#b4b4b4;stop-opacity:1"/></linearGradient><linearGradient id="linearGradient19282-4" gradientTransform="matrix(0.34682586,0,0,0.30620888,-79.35207,741.03851)" osb:paint="solid"><stop id="stop19284-0" offset="0" style="stop-color:#bebebe;stop-opacity:1"/></linearGradient><linearGradient id="linearGradient8310" x1="75" x2="91" y1="28" y2="28" gradientTransform="translate(811.48816,399.52469)" gradientUnits="userSpaceOnUse" xlink:href="#linearGradient19282-4"/></defs><g style="display:inline" id="preferences" transform="translate(-198.16755,-241.52469)"><g id="gimp-prefs-folders-environ" transform="translate(123.16755,221.52469)"><g id="g749" transform="translate(20,0)"><g id="g751" transform="translate(40,60)"><path style="display:inline;fill:url(#linearGradient8310);fill-opacity:1;stroke:none" id="path7541" d="M 75.53125,20 C 75.24212,20 75,20.24212 75,20.53125 l 0,14.9375 C 75,35.76725 75.23264,36 75.53125,36 l 14.9375,0 C 90.76735,36 91,35.76735 91,35.46875 l 0,-9.9375 C 91,25.24215 90.75788,25 90.46875,25 L 78,25 78,33.5 C 78,33.777 77.777,34 77.5,34 77.223,34 77,33.777 77,33.5 l 0,-9 C 77,24.223 77.223,24 77.5,24 L 80.46875,24 89,24 89,22.59375 C 89,22.26655 88.73334,22 88.40625,22 L 81,22 81,20.53125 C 81,20.2421 80.75788,20 80.46875,20 Z M 83,26 l 1,0 0,2 -1,0 z m 2,0 1,0 0,2 -1,0 z m -5,3 2,0 0,1 -2,0 z m 4,0 1,0 c 0.554,0 1,0.446 1,1 l 0,1 c 0,0.554 -0.446,1 -1,1 l -1,0 c -0.554,0 -1,-0.446 -1,-1 l 0,-1 c 0,-0.554 0.446,-1 1,-1 z m 3,0 2,0 0,1 -2,0 z m -7,2 2,0 0,1 -2,0 z m 7,0 2,0 0,1 -2,0 z m -4,2 1,0 0,2 -1,0 z m 2,0 1,0 0,2 -1,0 z" transform="translate(-60,-60)"/></g></g></g></g></svg>