<svg xmlns="http://www.w3.org/2000/svg" xmlns:osb="http://www.openswatchbook.org/uri/2009/osb" xmlns:svg="http://www.w3.org/2000/svg" xmlns:xlink="http://www.w3.org/1999/xlink" id="svg7384" width="16" height="16" version="1.1" viewBox="0 0 16 16"><metadata id="metadata90"/><defs id="defs7386"><linearGradient id="linearGradient8074" osb:paint="solid"><stop id="stop8072" offset="0" style="stop-color:#be00be;stop-opacity:1"/></linearGradient><linearGradient id="linearGradient7561" osb:paint="solid"><stop id="stop7558" offset="0" style="stop-color:#a5a5a5;stop-opacity:1"/></linearGradient><linearGradient id="linearGradient7548" osb:paint="solid"><stop id="stop7546" offset="0" style="stop-color:#ebebeb;stop-opacity:1"/></linearGradient><linearGradient id="linearGradient7542" osb:paint="solid"><stop id="stop7538" offset="0" style="stop-color:#c9c9c9;stop-opacity:1"/></linearGradient><linearGradient id="linearGradient19282" gradientTransform="matrix(0,-735328.32,170712.69,0,2464326300,577972450)" osb:paint="solid"><stop id="stop19284" offset="0" style="stop-color:#b4b4b4;stop-opacity:1"/></linearGradient><linearGradient id="linearGradient19282-4" gradientTransform="matrix(0.34682586,0,0,0.30620888,-19.35207,761.03851)" osb:paint="solid"><stop id="stop19284-0" offset="0" style="stop-color:#bebebe;stop-opacity:1"/></linearGradient><linearGradient id="linearGradient7468" x1="135" x2="142" y1="6" y2="6" gradientTransform="translate(789.15456,355.96911)" gradientUnits="userSpaceOnUse" xlink:href="#linearGradient19282-4"/><linearGradient id="linearGradient7470" x1="138" x2="151" y1="10" y2="10" gradientTransform="translate(789.15456,355.96911)" gradientUnits="userSpaceOnUse" xlink:href="#linearGradient19282-4"/></defs><g style="display:inline" id="preferences" transform="translate(-175.83395,-197.96911)"><g id="gimp-prefs-interface" transform="translate(40.833947,197.96911)"><path style="fill:url(#linearGradient7470);fill-opacity:1;stroke:none" id="rect28732-9" d="m 143,4 0,1 7,0 0,1 -7,0 0,7 -5,0 0,3 13,0 0,-12 z"/><path style="fill:url(#linearGradient7468);fill-opacity:1;stroke:none" id="rect15227" d="m 135,0 0,12 7,0 0,-12 z m 1,1 5,0 0,1 -5,0 z m 0.5625,2 0.875,0 C 137.74912,3 138,3.250875 138,3.5625 l 0,0.875 C 138,4.749125 137.74912,5 137.4375,5 l -0.875,0 C 136.25088,5 136,4.749125 136,4.4375 l 0,-0.875 C 136,3.250875 136.25088,3 136.5625,3 Z m 3,0 0.875,0 C 140.74912,3 141,3.250875 141,3.5625 l 0,0.875 C 141,4.749125 140.74912,5 140.4375,5 l -0.875,0 C 139.25088,5 139,4.749125 139,4.4375 l 0,-0.875 C 139,3.250875 139.25088,3 139.5625,3 Z m -3,3 0.875,0 C 137.74912,6 138,6.250875 138,6.5625 l 0,0.875 C 138,7.749125 137.74912,8 137.4375,8 l -0.875,0 C 136.25088,8 136,7.749125 136,7.4375 l 0,-0.875 C 136,6.250875 136.25088,6 136.5625,6 Z m 3,0 0.875,0 C 140.74912,6 141,6.250875 141,6.5625 l 0,0.875 C 141,7.749125 140.74912,8 140.4375,8 l -0.875,0 C 139.25088,8 139,7.749125 139,7.4375 l 0,-0.875 C 139,6.250875 139.25088,6 139.5625,6 Z m -3,3 0.875,0 C 137.74912,9 138,9.250875 138,9.5625 l 0,0.875 C 138,10.749125 137.74912,11 137.4375,11 l -0.875,0 C 136.25088,11 136,10.749125 136,10.4375 l 0,-0.875 C 136,9.250875 136.25088,9 136.5625,9 Z m 3,0 0.875,0 C 140.74912,9 141,9.250875 141,9.5625 l 0,0.875 C 141,10.749125 140.74912,11 140.4375,11 l -0.875,0 C 139.25088,11 139,10.749125 139,10.4375 l 0,-0.875 C 139,9.250875 139.25088,9 139.5625,9 Z"/></g></g></svg>