<svg xmlns="http://www.w3.org/2000/svg" xmlns:osb="http://www.openswatchbook.org/uri/2009/osb" xmlns:svg="http://www.w3.org/2000/svg" xmlns:xlink="http://www.w3.org/1999/xlink" id="svg7384" width="16" height="16" version="1.1" viewBox="0 0 16 16"><metadata id="metadata90"/><defs id="defs7386"><linearGradient id="linearGradient8074" osb:paint="solid"><stop id="stop8072" offset="0" style="stop-color:#be00be;stop-opacity:1"/></linearGradient><linearGradient id="linearGradient7561" osb:paint="solid"><stop id="stop7558" offset="0" style="stop-color:#a5a5a5;stop-opacity:1"/></linearGradient><linearGradient id="linearGradient7548" osb:paint="solid"><stop id="stop7546" offset="0" style="stop-color:#ebebeb;stop-opacity:1"/></linearGradient><linearGradient id="linearGradient7542" osb:paint="solid"><stop id="stop7538" offset="0" style="stop-color:#c9c9c9;stop-opacity:1"/></linearGradient><linearGradient id="linearGradient19282" gradientTransform="matrix(0,-735328.32,170712.69,0,2464326300,577972450)" osb:paint="solid"><stop id="stop19284" offset="0" style="stop-color:#b4b4b4;stop-opacity:1"/></linearGradient><linearGradient id="linearGradient19282-4" gradientTransform="matrix(0.34682586,0,0,0.30620888,-154.35207,-279.32368)" osb:paint="solid"><stop id="stop19284-0" offset="0" style="stop-color:#bebebe;stop-opacity:1"/></linearGradient><linearGradient id="linearGradient8240" x1="0" x2="8" y1="1050.362" y2="1050.362" gradientTransform="translate(832.7537,355.51115)" gradientUnits="userSpaceOnUse" xlink:href="#linearGradient19282-4"/><linearGradient id="linearGradient8242" x1="1048.362" x2="1056.362" y1="10" y2="10" gradientTransform="translate(355.51115,832.7537)" gradientUnits="userSpaceOnUse" xlink:href="#linearGradient19282-4"/><linearGradient id="linearGradient8244" x1="-16" x2="-8" y1="-1046.362" y2="-1046.362" gradientTransform="translate(-832.7537,-355.51115)" gradientUnits="userSpaceOnUse" xlink:href="#linearGradient19282-4"/><linearGradient id="linearGradient8246" x1="1040.362" x2="1048.362" y1="-6" y2="-6" gradientTransform="translate(355.51115,-832.7537)" gradientUnits="userSpaceOnUse" xlink:href="#linearGradient19282-4"/><linearGradient id="linearGradient8252" x1="0" x2="8" y1="1050.362" y2="1050.362" gradientTransform="translate(832.7537,355.51115)" gradientUnits="userSpaceOnUse" xlink:href="#linearGradient19282-4"/><linearGradient id="linearGradient8254" x1="1048.362" x2="1056.362" y1="10" y2="10" gradientTransform="translate(355.51115,832.7537)" gradientUnits="userSpaceOnUse" xlink:href="#linearGradient19282-4"/><linearGradient id="linearGradient8256" x1="-16" x2="-8" y1="-1046.362" y2="-1046.362" gradientTransform="translate(-832.7537,-355.51115)" gradientUnits="userSpaceOnUse" xlink:href="#linearGradient19282-4"/><linearGradient id="linearGradient8258" x1="1040.362" x2="1048.362" y1="-6" y2="-6" gradientTransform="translate(355.51115,-832.7537)" gradientUnits="userSpaceOnUse" xlink:href="#linearGradient19282-4"/></defs><g style="display:inline" id="preferences" transform="translate(-219.43309,-197.51118)"><g style="display:inline;opacity:1;fill:#bebebe;fill-opacity:1;stroke:#bebebe;stroke-opacity:1" id="gimp-prefs-playground" transform="translate(219.43309,-842.85104)"><path style="opacity:1;fill:url(#linearGradient8240);fill-opacity:1;stroke:url(#linearGradient8252);stroke-width:.94302762;stroke-miterlimit:4;stroke-dasharray:none;stroke-opacity:1" id="path4371" d="m 7.5284863,1048.3624 a 3.5284863,3.5284863 0 0 1 -1.7642432,3.0558 3.5284863,3.5284863 0 0 1 -3.5284863,0 3.5284863,3.5284863 0 0 1 -1.76424305,-3.0558"/><path style="opacity:1;fill:url(#linearGradient8246);fill-opacity:1;stroke:url(#linearGradient8258);stroke-width:.94302762;stroke-miterlimit:4;stroke-dasharray:none;stroke-opacity:1" id="path4371-8" d="m 1047.8907,-7.9997163 a 3.5284863,3.5284863 0 0 1 -1.7643,3.0557588 3.5284863,3.5284863 0 0 1 -3.5285,-1e-7 3.5284863,3.5284863 0 0 1 -1.7642,-3.0557588" transform="rotate(90)"/><path style="opacity:1;fill:url(#linearGradient8244);fill-opacity:1;stroke:url(#linearGradient8256);stroke-width:.94302762;stroke-miterlimit:4;stroke-dasharray:none;stroke-opacity:1" id="path4371-8-8" d="m -8.4715137,-1048.3622 a 3.5284863,3.5284863 0 0 1 -1.7642433,3.0558 3.5284863,3.5284863 0 0 1 -3.528486,0 3.5284863,3.5284863 0 0 1 -1.764243,-3.0558" transform="scale(-1)"/><path style="opacity:1;fill:url(#linearGradient8242);fill-opacity:1;stroke:url(#linearGradient8254);stroke-width:.94302762;stroke-miterlimit:4;stroke-dasharray:none;stroke-opacity:1" id="path4371-8-6" d="m 1055.8907,8 a 3.5284863,3.5284863 0 0 1 -1.7643,3.055759 3.5284863,3.5284863 0 0 1 -3.5285,0 3.5284863,3.5284863 0 0 1 -1.7642,-3.0557592" transform="matrix(0,1,1,0,0,0)"/></g></g></svg>