<svg xmlns="http://www.w3.org/2000/svg" xmlns:osb="http://www.openswatchbook.org/uri/2009/osb" xmlns:svg="http://www.w3.org/2000/svg" xmlns:xlink="http://www.w3.org/1999/xlink" id="svg7384" width="16" height="16" version="1.1" viewBox="0 0 16 16"><metadata id="metadata90"/><defs id="defs7386"><linearGradient id="linearGradient8074" osb:paint="solid"><stop id="stop8072" offset="0" style="stop-color:#be00be;stop-opacity:1"/></linearGradient><linearGradient id="linearGradient7561" osb:paint="solid"><stop id="stop7558" offset="0" style="stop-color:#a5a5a5;stop-opacity:1"/></linearGradient><linearGradient id="linearGradient7548" osb:paint="solid"><stop id="stop7546" offset="0" style="stop-color:#ebebeb;stop-opacity:1"/></linearGradient><linearGradient id="linearGradient7542" osb:paint="solid"><stop id="stop7538" offset="0" style="stop-color:#c9c9c9;stop-opacity:1"/></linearGradient><linearGradient id="linearGradient19282" gradientTransform="matrix(0,-735328.32,170712.69,0,2464326300,577972450)" osb:paint="solid"><stop id="stop19284" offset="0" style="stop-color:#b4b4b4;stop-opacity:1"/></linearGradient><linearGradient id="linearGradient19282-4" gradientTransform="matrix(0.34682586,0,0,0.30620888,-99.35207,781.03851)" osb:paint="solid"><stop id="stop19284-0" offset="0" style="stop-color:#bebebe;stop-opacity:1"/></linearGradient><linearGradient id="linearGradient8023" x1="55.011" x2="71" y1="-13.985" y2="-13.985" gradientTransform="translate(767.51516,333.46232)" gradientUnits="userSpaceOnUse" xlink:href="#linearGradient19282-4"/><linearGradient id="linearGradient8025" x1="63" x2="65" y1="-14" y2="-14" gradientTransform="translate(767.51516,333.46232)" gradientUnits="userSpaceOnUse" xlink:href="#linearGradient19282-4"/><linearGradient id="linearGradient8027" x1="104" x2="114" y1="478" y2="478" gradientTransform="translate(959.39395,420.10968)" gradientUnits="userSpaceOnUse" xlink:href="#linearGradient19282-4"/></defs><g style="display:inline" id="preferences" transform="translate(-154.19455,-175.46232)"><g id="gimp-prefs-controllers" transform="translate(99.194547,195.46232)"><circle style="fill:url(#linearGradient8027);fill-opacity:1;stroke:none" id="path12374" cx="109" cy="478" r="5" transform="matrix(0.8,0,0,0.79375062,-24.2,-388.44404)"/><path style="fill:url(#linearGradient8023);fill-opacity:1;stroke:none" id="path12620" d="m 62.8125,-19.9375 c -1.10783,0.003 -2.22028,0.21514 -3.21875,0.6875 -3.9939,1.88945 -5.70194,6.66235 -3.8125,10.65625 0.0909,0.19209 0.2087,0.38113 0.3125,0.5625 -1.18546,-3.34405 0.34876,-7.10631 3.625,-8.65625 1.47061,-0.69572 3.0585,-0.83482 4.53125,-0.5 l 1.09375,-2.46875 c -0.55026,-0.12019 -1.1231,-0.21721 -1.71875,-0.25 -0.21357,-0.0199 -0.41159,-0.0272 -0.625,-0.0312 -0.0639,-0.001 -0.12368,-1.9e-4 -0.1875,0 z m 4.65625,0.96875 -1.1875,2.59375 c 0.95696,0.56922 1.79787,1.37485 2.40625,2.375 L 71,-15 c -0.40354,-1.6574 -1.70003,-3.08691 -3.53125,-3.96875 z"/><path style="fill:url(#linearGradient8025);fill-opacity:1;stroke:none" id="path12636" d="m 65,-12 0,-4 -2,3 z"/></g></g></svg>