<svg xmlns="http://www.w3.org/2000/svg" xmlns:osb="http://www.openswatchbook.org/uri/2009/osb" xmlns:svg="http://www.w3.org/2000/svg" xmlns:xlink="http://www.w3.org/1999/xlink" id="svg7384" width="16" height="16" version="1.1" viewBox="0 0 16 16"><metadata id="metadata90"/><defs id="defs7386"><linearGradient id="linearGradient8074" osb:paint="solid"><stop id="stop8072" offset="0" style="stop-color:#be00be;stop-opacity:1"/></linearGradient><linearGradient id="linearGradient7561" osb:paint="solid"><stop id="stop7558" offset="0" style="stop-color:#a5a5a5;stop-opacity:1"/></linearGradient><linearGradient id="linearGradient7548" osb:paint="solid"><stop id="stop7546" offset="0" style="stop-color:#ebebeb;stop-opacity:1"/></linearGradient><linearGradient id="linearGradient7542" osb:paint="solid"><stop id="stop7538" offset="0" style="stop-color:#c9c9c9;stop-opacity:1"/></linearGradient><linearGradient id="linearGradient19282" gradientTransform="matrix(0,-735328.32,170712.69,0,2464326300,577972450)" osb:paint="solid"><stop id="stop19284" offset="0" style="stop-color:#b4b4b4;stop-opacity:1"/></linearGradient><linearGradient id="linearGradient19282-4" gradientTransform="matrix(0.34682586,0,0,0.30620888,26.67918,122.03851)" osb:paint="solid"><stop id="stop19284-0" offset="0" style="stop-color:#bebebe;stop-opacity:1"/></linearGradient><linearGradient id="linearGradient7027" x1="-157" x2="-144" y1="-14" y2="-14" gradientTransform="translate(576.89471,203.31841)" gradientUnits="userSpaceOnUse" xlink:href="#linearGradient19282-4"/></defs><g style="display:inline" id="stock" transform="translate(-119.08356,-36.287169)"><g id="gimp-video" transform="translate(-61.947694,-602.7128)" style="display:inline"><g style="display:inline" id="emblem-videos" transform="translate(-380.96875,257)"><g id="g1873"><path style="color:#000;display:inline;overflow:visible;visibility:visible;fill:url(#linearGradient7027);fill-opacity:1;fill-rule:nonzero;stroke:none;stroke-width:1.50793636;marker:none;enable-background:new" id="rect5523" d="m -156,-22 c 0,0 0,0 0,2 l 0,12 c 0,2 -1,2 -1,2 l 1,0 c 0,0 1,0 1,-1 l 1,0 c 0,1 -1,1 -1,1 l 1,0 c 0,0 1,0 1,-1 l 6,0 c 0,1 -0.67515,1 -1,1 l 1,0 c 0,0 1,0 1,-1 l 1,0 c 0,1 -1,1 -1,1 l 1,0 c 0,0 1,0 1,-2 l 0,-12 c 0,-2 0,-2 0,-2 l -3,0 c 0,0 0,0 0,2 l 0,2 -6,0 0,-2 c 0,-2 0,-2 0,-2 z m 1,1 1,0 0,1 -1,0 z m 9,0 1,0 0,1 -1,0 z m -9,2 1,0 0,1 -1,0 z m 9,0 1,0 0,1 -1,0 z m -9,2 1,0 0,1 -1,0 z m 2,0 6,0 0,4 -6,0 z m 7,0 1,0 0,1 -1,0 z m -9,2 1,0 0,1 -1,0 z m 9,0 1,0 0,1 -1,0 z m -9,2 1,0 0,1 -1,0 z m 9,0 1,0 0,1 -1,0 z m -7,1 6,0 0,4 -6,0 z m -2,1 1,0 0,1 -1,0 z m 9,0 1,0 0,1 -1,0 z m -9,2 1,0 0,1 -1,0 z m 9,0 1,0 0,1 -1,0 z" transform="translate(719.96895,404)"/></g></g></g></g></svg>