<svg xmlns="http://www.w3.org/2000/svg" xmlns:osb="http://www.openswatchbook.org/uri/2009/osb" xmlns:svg="http://www.w3.org/2000/svg" xmlns:xlink="http://www.w3.org/1999/xlink" id="svg7384" width="16" height="16" version="1.1" viewBox="0 0 16 16"><metadata id="metadata90"/><defs id="defs7386"><linearGradient id="linearGradient8074" osb:paint="solid"><stop id="stop8072" offset="0" style="stop-color:#be00be;stop-opacity:1"/></linearGradient><linearGradient id="linearGradient7561" osb:paint="solid"><stop id="stop7558" offset="0" style="stop-color:#a5a5a5;stop-opacity:1"/></linearGradient><linearGradient id="linearGradient7548" osb:paint="solid"><stop id="stop7546" offset="0" style="stop-color:#ebebeb;stop-opacity:1"/></linearGradient><linearGradient id="linearGradient7542" osb:paint="solid"><stop id="stop7538" offset="0" style="stop-color:#c9c9c9;stop-opacity:1"/></linearGradient><linearGradient id="linearGradient19282" gradientTransform="matrix(0,-735328.32,170712.69,0,2464326300,577972450)" osb:paint="solid"><stop id="stop19284" offset="0" style="stop-color:#b4b4b4;stop-opacity:1"/></linearGradient><linearGradient id="linearGradient19282-4" gradientTransform="matrix(0.34682586,0,0,0.30620888,6.64813,262.03851)" osb:paint="solid"><stop id="stop19284-0" offset="0" style="stop-color:#bebebe;stop-opacity:1"/></linearGradient><linearGradient id="linearGradient7320" x1="-80" x2="-64" y1="290" y2="290" gradientTransform="translate(540.31942,152.46591)" gradientUnits="userSpaceOnUse" xlink:href="#linearGradient19282-4"/><linearGradient id="linearGradient7326" x1="165.469" x2="174" y1="507.734" y2="507.734" gradientTransform="translate(540.31942,152.46591)" gradientUnits="userSpaceOnUse" xlink:href="#linearGradient19282-4"/><linearGradient id="linearGradient7328" x1="-79" x2="-65" y1="290" y2="290" gradientTransform="translate(540.31942,152.46591)" gradientUnits="userSpaceOnUse" xlink:href="#linearGradient19282-4"/></defs><g style="display:inline" id="stock" transform="translate(-82.508266,14.56533)"><g id="gimp-invert" transform="translate(-78.491934,-513.56533)" style="display:inline"><path style="fill:url(#linearGradient7320);fill-opacity:1;stroke:none" id="rect7201" d="m -80,282 0,16 16,0 0,-16 z m 1,1 14,0 0,14 -14,0 z" transform="translate(241.0002,217)"/><path style="fill:url(#linearGradient7328);fill-opacity:1;stroke:none" id="path7206" d="m -79,283 0,14 3.46875,-3.46875 C -76.436072,292.62643 -77,291.38071 -77,290 c 0,-2.76142 2.238576,-5 5,-5 1.380712,0 2.626428,0.56393 3.53125,1.46875 L -65,283 Z" transform="translate(241.0002,217)"/><path style="fill:url(#linearGradient7326);fill-opacity:1;stroke:none" id="path7221" d="m 174.0002,507 c 0,2.76142 -2.23858,5 -5,5 -1.38071,0 -2.62643,-0.56393 -3.53125,-1.46875 l 7.0625,-7.0625 c 0.90482,0.90482 1.46875,2.15054 1.46875,3.53125 z"/></g></g></svg>