<svg xmlns="http://www.w3.org/2000/svg" xmlns:osb="http://www.openswatchbook.org/uri/2009/osb" xmlns:svg="http://www.w3.org/2000/svg" xmlns:xlink="http://www.w3.org/1999/xlink" id="svg7384" width="16" height="16" version="1.1" viewBox="0 0 16 16"><metadata id="metadata90"/><defs id="defs7386"><linearGradient id="linearGradient19282-4" gradientTransform="matrix(0.34682586,0,0,0.30620888,-39.35207,781.03851)" osb:paint="solid"><stop id="stop19284-0" offset="0" style="stop-color:#bebebe;stop-opacity:1"/></linearGradient><linearGradient id="linearGradient8095" x1="119" x2="128" y1="-11.5" y2="-11.5" gradientTransform="translate(947.87388,356.58905)" gradientUnits="userSpaceOnUse" xlink:href="#linearGradient19282-4"/><linearGradient id="linearGradient8101" x1="116" x2="118" y1="-14.5" y2="-14.5" gradientTransform="translate(947.87388,356.58905)" gradientUnits="userSpaceOnUse" xlink:href="#linearGradient19282-4"/><linearGradient id="linearGradient8103" x1="116" x2="118" y1="-12.5" y2="-12.5" gradientTransform="translate(947.87388,356.58905)" gradientUnits="userSpaceOnUse" xlink:href="#linearGradient19282-4"/><linearGradient id="linearGradient8105" x1="116" x2="118" y1="-10.5" y2="-10.5" gradientTransform="translate(947.87388,356.58905)" gradientUnits="userSpaceOnUse" xlink:href="#linearGradient19282-4"/><linearGradient id="linearGradient8107" x1="116" x2="118" y1="-8.5" y2="-8.5" gradientTransform="translate(947.87388,356.58905)" gradientUnits="userSpaceOnUse" xlink:href="#linearGradient19282-4"/><linearGradient id="linearGradient8109" x1="-121" x2="-120" y1="5" y2="5" gradientTransform="translate(-947.87388,-356.58905)" gradientUnits="userSpaceOnUse" xlink:href="#linearGradient19282-4"/><linearGradient id="linearGradient8111" x1="-123" x2="-122" y1="5" y2="5" gradientTransform="translate(-947.87388,-356.58905)" gradientUnits="userSpaceOnUse" xlink:href="#linearGradient19282-4"/><linearGradient id="linearGradient8113" x1="-125" x2="-124" y1="5" y2="5" gradientTransform="translate(-947.87388,-356.58905)" gradientUnits="userSpaceOnUse" xlink:href="#linearGradient19282-4"/><linearGradient id="linearGradient8115" x1="-127" x2="-126" y1="5" y2="5" gradientTransform="translate(-947.87388,-356.58905)" gradientUnits="userSpaceOnUse" xlink:href="#linearGradient19282-4"/><linearGradient id="linearGradient8117" x1="129" x2="131" y1="-8.5" y2="-8.5" gradientTransform="translate(947.87388,356.58905)" gradientUnits="userSpaceOnUse" xlink:href="#linearGradient19282-4"/><linearGradient id="linearGradient8119" x1="129" x2="131" y1="-10.5" y2="-10.5" gradientTransform="translate(947.87388,356.58905)" gradientUnits="userSpaceOnUse" xlink:href="#linearGradient19282-4"/><linearGradient id="linearGradient8121" x1="129" x2="131" y1="-12.5" y2="-12.5" gradientTransform="translate(947.87388,356.58905)" gradientUnits="userSpaceOnUse" xlink:href="#linearGradient19282-4"/><linearGradient id="linearGradient8123" x1="129" x2="131" y1="-14.5" y2="-14.5" gradientTransform="translate(947.87388,356.58905)" gradientUnits="userSpaceOnUse" xlink:href="#linearGradient19282-4"/><linearGradient id="linearGradient8125" x1="-127" x2="-126" y1="18" y2="18" gradientTransform="translate(-947.87388,-356.58905)" gradientUnits="userSpaceOnUse" xlink:href="#linearGradient19282-4"/><linearGradient id="linearGradient8127" x1="-125" x2="-124" y1="18" y2="18" gradientTransform="translate(-947.87388,-356.58905)" gradientUnits="userSpaceOnUse" xlink:href="#linearGradient19282-4"/><linearGradient id="linearGradient8129" x1="-123" x2="-122" y1="18" y2="18" gradientTransform="translate(-947.87388,-356.58905)" gradientUnits="userSpaceOnUse" xlink:href="#linearGradient19282-4"/><linearGradient id="linearGradient8131" x1="-121" x2="-120" y1="18" y2="18" gradientTransform="translate(-947.87388,-356.58905)" gradientUnits="userSpaceOnUse" xlink:href="#linearGradient19282-4"/><linearGradient id="linearGradient8131-0" x1="-121" x2="-120" y1="18" y2="18" gradientTransform="translate(-836.87388,-376.58905)" gradientUnits="userSpaceOnUse" xlink:href="#linearGradient19282-4"/></defs><g style="display:inline" id="preferences" transform="translate(-334.55327,-198.58905)"><g id="gimp-prefs-system-resources" transform="translate(219.55327,218.58905)" style="display:inline"><path style="fill:url(#linearGradient8095);fill-opacity:1;stroke:none" id="rect22435" d="m 121,-16 c -1.108,0 -2,0.892 -2,2 l 0,5 c 0,1.108 0.892,2 2,2 l 5,0 c 1.108,0 2,-0.892 2,-2 l 0,-5 c 0,-1.108 -0.892,-2 -2,-2 z"/><rect style="fill:url(#linearGradient8131);fill-opacity:1;stroke:none" id="rect22439" width="1" height="2" x="-121" y="17" rx="2" ry="2" transform="scale(-1,-1)"/><rect style="fill:url(#linearGradient8129);fill-opacity:1;stroke:none" id="rect22441" width="1" height="2" x="-123" y="17" rx="2" ry="2" transform="scale(-1,-1)"/><rect style="fill:url(#linearGradient8125);fill-opacity:1;stroke:none" id="rect22445" width="1" height="2" x="-127" y="17" rx="2" ry="2" transform="scale(-1,-1)"/><rect id="rect22461" width="1" height="2" x="-121" y="4" rx="2" ry="2" transform="scale(-1,-1)" style="fill:url(#linearGradient8109);fill-opacity:1;stroke:none"/><rect id="rect22463" width="1" height="2" x="-123" y="4" rx="2" ry="2" transform="scale(-1,-1)" style="fill:url(#linearGradient8111);fill-opacity:1;stroke:none"/><rect id="rect22465" width="1" height="2" x="-125" y="4" rx="2" ry="2" transform="scale(-1,-1)" style="fill:url(#linearGradient8113);fill-opacity:1;stroke:none"/><rect id="rect22467" width="1" height="2" x="-127" y="4" rx="2" ry="2" transform="scale(-1,-1)" style="fill:url(#linearGradient8115);fill-opacity:1;stroke:none"/><rect style="fill:url(#linearGradient8101);fill-opacity:1;stroke:none" id="rect22469" width="2" height="1" x="116" y="-15" rx="2" ry="2"/><rect style="fill:url(#linearGradient8103);fill-opacity:1;stroke:none" id="rect22471" width="2" height="1" x="116" y="-13" rx="2" ry="2"/><rect style="fill:url(#linearGradient8105);fill-opacity:1;stroke:none" id="rect22473" width="2" height="1" x="116" y="-11" rx="2" ry="2"/><rect style="fill:url(#linearGradient8107);fill-opacity:1;stroke:none" id="rect22475" width="2" height="1" x="116" y="-9" rx="2" ry="2"/><rect id="rect22477" width="2" height="1" x="129" y="-15" rx="2" ry="2" style="fill:url(#linearGradient8123);fill-opacity:1;stroke:none"/><rect id="rect22479" width="2" height="1" x="129" y="-13" rx="2" ry="2" style="fill:url(#linearGradient8121);fill-opacity:1;stroke:none"/><rect id="rect22481" width="2" height="1" x="129" y="-11" rx="2" ry="2" style="fill:url(#linearGradient8119);fill-opacity:1;stroke:none"/><rect id="rect22483" width="2" height="1" x="129" y="-9" rx="2" ry="2" style="fill:url(#linearGradient8117);fill-opacity:1;stroke:none"/></g></g><rect style="display:inline;fill:url(#linearGradient8131-0);fill-opacity:1;stroke:none" id="rect22439-1" width="1" height="2" x="-10" y="-3" rx="2" ry="2" transform="scale(-1)"/></svg>