<svg xmlns="http://www.w3.org/2000/svg" xmlns:osb="http://www.openswatchbook.org/uri/2009/osb" xmlns:svg="http://www.w3.org/2000/svg" xmlns:xlink="http://www.w3.org/1999/xlink" id="svg7384" width="16" height="16" version="1.1" viewBox="0 0 16 16"><metadata id="metadata90"/><defs id="defs7386"><linearGradient id="linearGradient8074" osb:paint="solid"><stop id="stop8072" offset="0" style="stop-color:#be00be;stop-opacity:1"/></linearGradient><linearGradient id="linearGradient7561" osb:paint="solid"><stop id="stop7558" offset="0" style="stop-color:#a5a5a5;stop-opacity:1"/></linearGradient><linearGradient id="linearGradient7548" osb:paint="solid"><stop id="stop7546" offset="0" style="stop-color:#ebebeb;stop-opacity:1"/></linearGradient><linearGradient id="linearGradient7542" osb:paint="solid"><stop id="stop7538" offset="0" style="stop-color:#c9c9c9;stop-opacity:1"/></linearGradient><linearGradient id="linearGradient19282" gradientTransform="matrix(0,-735328.32,170712.69,0,2464326300,577972450)" osb:paint="solid"><stop id="stop19284" offset="0" style="stop-color:#b4b4b4;stop-opacity:1"/></linearGradient><linearGradient id="linearGradient19282-4" gradientTransform="matrix(0.34682586,0,0,0.30620888,-39.35207,801.03851)" osb:paint="solid"><stop id="stop19284-0" offset="0" style="stop-color:#bebebe;stop-opacity:1"/></linearGradient><linearGradient id="linearGradient8358" x1="115" x2="131" y1="-32" y2="-32" gradientTransform="translate(833.15251,421.87401)" gradientUnits="userSpaceOnUse" xlink:href="#linearGradient19282-4"/></defs><g style="display:inline" id="preferences" transform="translate(-219.8319,-263.87401)"><g id="gimp-prefs-folders-scripts" transform="translate(104.8319,303.87401)"><g id="g607" transform="translate(100,0)"><path style="display:inline;fill:url(#linearGradient8358);fill-opacity:1;stroke:none" id="path29078" d="M 115.53125,-40 C 115.24212,-40 115,-39.75788 115,-39.46875 l 0,14.9375 c 0,0.2985 0.23264,0.53125 0.53125,0.53125 l 14.9375,0 C 130.76735,-24 131,-24.23265 131,-24.53125 l 0,-9.9375 C 131,-34.75785 130.75788,-35 130.46875,-35 L 118,-35 l 0,8.5 c 0,0.277 -0.223,0.5 -0.5,0.5 -0.277,0 -0.5,-0.223 -0.5,-0.5 l 0,-9 c 0,-0.277 0.223,-0.5 0.5,-0.5 l 2.96875,0 8.53125,0 0,-1.40625 C 129,-37.73345 128.73334,-38 128.40625,-38 L 121,-38 l 0,-1.46875 C 121,-39.7579 120.75788,-40 120.46875,-40 Z m 4.46875,6 6,4 -6.04419,4.088388 L 120,-27.558058 123.55806,-30 120,-32.486136 Z m 5,7 5,0 0,1 -5,0 z" transform="translate(-100,0)"/></g></g></g></svg>