<svg xmlns="http://www.w3.org/2000/svg" xmlns:osb="http://www.openswatchbook.org/uri/2009/osb" xmlns:svg="http://www.w3.org/2000/svg" id="svg8" width="16" height="16" version="1.1" viewBox="0 0 4.233 4.233"><style id="style12890"/><defs id="defs2"><linearGradient id="linearGradient19282-4" gradientTransform="matrix(0.23667958,0,0,0.20304569,-208.29645,97.782765)" osb:paint="solid"><stop style="stop-color:#bebebe;stop-opacity:1" id="stop19284-0" offset="0"/></linearGradient></defs><metadata id="metadata5"/><g id="gimp-color-temperature"><path id="circle13731" d="M 4.5,4 C 4.2229999,4 4,4.2229984 4,4.5 v 5.828125 C 3.1911691,10.553048 2.6313301,11.289384 2.6308594,12.128906 2.6303659,13.161724 3.4671818,13.999415 4.5,14 5.5335811,14.000494 6.3715877,13.162487 6.3710938,12.128906 6.3695031,11.289558 5.8089081,10.554077 5,10.330078 V 4.5 C 5,4.2229999 4.7770016,4 4.5,4 Z" transform="scale(0.26458333)" style="color:#000;overflow:visible;opacity:1;fill:#bebebe;fill-opacity:1;fill-rule:evenodd;stroke:none;stroke-width:.99999994;stroke-linecap:round;stroke-linejoin:round;stroke-opacity:1"/><rect style="color:#000;overflow:visible;opacity:1;fill:#bebebe;fill-opacity:1;fill-rule:evenodd;stroke:none;stroke-width:.26458332;stroke-linecap:round;stroke-linejoin:round;stroke-opacity:1" id="rect13692" width=".265" height=".529" x="-1.226" y="-4.284" rx=".132" ry=".132" transform="rotate(135)"/><rect id="rect13690" width=".265" height=".529" x="1.187" y="-4.188" rx=".132" ry=".132" transform="rotate(90)" style="color:#000;overflow:visible;opacity:1;fill:#bebebe;fill-opacity:1;fill-rule:evenodd;stroke:none;stroke-width:.26458332;stroke-linecap:round;stroke-linejoin:round;stroke-opacity:1"/><rect id="rect13694" width=".265" height=".529" x="2.82" y="-2.416" rx=".132" ry=".132" transform="rotate(45)" style="color:#000;overflow:visible;opacity:1;fill:#bebebe;fill-opacity:1;fill-rule:evenodd;stroke:none;stroke-width:.26458332;stroke-linecap:round;stroke-linejoin:round;stroke-opacity:1"/><rect id="rect13686" width=".265" height=".529" x="2.646" y="0" rx=".132" ry=".132" style="color:#000;overflow:visible;opacity:1;fill:#bebebe;fill-opacity:1;fill-rule:evenodd;stroke:none;stroke-width:.26458332;stroke-linecap:round;stroke-linejoin:round;stroke-opacity:1"/><rect style="color:#000;overflow:visible;opacity:1;fill:#bebebe;fill-opacity:1;fill-rule:evenodd;stroke:none;stroke-width:.26458332;stroke-linecap:round;stroke-linejoin:round;stroke-opacity:1" id="rect13688" width=".265" height=".529" x="2.646" y="2.117" rx=".132" ry=".132"/><path id="path13718" d="M 9.015486,3.6408093 C 9.3962386,3.2178039 9.9386265,2.976265 10.507754,2.976265 c 1.108852,10e-8 2.007754,0.8989023 2.007754,2.0077542 v 0 c 0,1.1088519 -0.898902,2.0077541 -2.007754,2.0077542 C 9.9386303,6.9917734 9.3807524,6.7502377 9,6.3272372" transform="scale(0.26458333)" style="color:#000;overflow:visible;opacity:1;fill:none;fill-opacity:1;fill-rule:evenodd;stroke:#bebebe;stroke-width:.99999994;stroke-linecap:round;stroke-linejoin:round;stroke-opacity:1"/><path id="path13729" d="M 4.4804688,0 C 3.0635732,0 2,1.3290061 2,2.8632812 V 8.9082031 C 1.0941794,9.6428239 0.5019531,10.751617 0.50195312,12.003906 c -2e-8,2.203359 1.79859518,4 4.00195308,4 2.2552563,0 4,-1.806963 4,-4 C 8.5039062,10.740794 7.9153446,9.6246285 7,8.890625 V 2.8632812 C 7,1.329006 5.9344735,0 4.5175781,0 Z m 0,1.0039062 h 0.037109 C 5.2933556,1.0039062 6,1.7782989 6,2.8632812 V 6.6015625 H 6.00195 L 6,9.6210938 C 6.8402412,10.152895 7.5,10.93115 7.5,12.003906 7.5,13.666825 6.1668247,15 4.5039062,15 2.8409884,15 1.4980468,13.666825 1.4980469,12.003906 1.4980468,10.930413 2.1559055,10.152699 3,9.6210938 L 2.9960938,6.6269531 H 3 V 2.8632812 C 3,1.7782988 3.7046917,1.0039063 4.4804688,1.0039062 Z" transform="scale(0.26458333)" style="color:#000;font-style:normal;font-variant:normal;font-weight:400;font-stretch:normal;font-size:medium;line-height:normal;font-family:sans-serif;font-variant-ligatures:normal;font-variant-position:normal;font-variant-caps:normal;font-variant-numeric:normal;font-variant-alternates:normal;font-variant-east-asian:normal;font-feature-settings:normal;font-variation-settings:normal;text-indent:0;text-align:start;text-decoration:none;text-decoration-line:none;text-decoration-style:solid;text-decoration-color:#000;letter-spacing:normal;word-spacing:normal;text-transform:none;writing-mode:lr-tb;direction:ltr;text-orientation:mixed;dominant-baseline:auto;baseline-shift:baseline;text-anchor:start;white-space:normal;shape-padding:0;shape-margin:0;inline-size:0;clip-rule:nonzero;display:inline;overflow:visible;visibility:visible;opacity:1;isolation:auto;mix-blend-mode:normal;color-interpolation:sRGB;color-interpolation-filters:linearRGB;solid-color:#000;solid-opacity:1;vector-effect:none;fill:#bebebe;fill-opacity:1;fill-rule:evenodd;stroke:none;stroke-width:.99999994;stroke-linecap:round;stroke-linejoin:round;stroke-miterlimit:4;stroke-dasharray:none;stroke-dashoffset:0;stroke-opacity:1;color-rendering:auto;image-rendering:auto;shape-rendering:auto;text-rendering:auto;enable-background:accumulate"/></g></svg>