<svg xmlns="http://www.w3.org/2000/svg" xmlns:osb="http://www.openswatchbook.org/uri/2009/osb" xmlns:svg="http://www.w3.org/2000/svg" xmlns:xlink="http://www.w3.org/1999/xlink" id="svg7384" width="16" height="16" version="1.1" viewBox="0 0 16 16"><metadata id="metadata90"/><defs id="defs7386"><linearGradient id="linearGradient8074" osb:paint="solid"><stop id="stop8072" offset="0" style="stop-color:#be00be;stop-opacity:1"/></linearGradient><linearGradient id="linearGradient7561" osb:paint="solid"><stop id="stop7558" offset="0" style="stop-color:#a5a5a5;stop-opacity:1"/></linearGradient><linearGradient id="linearGradient7548" osb:paint="solid"><stop id="stop7546" offset="0" style="stop-color:#ebebeb;stop-opacity:1"/></linearGradient><linearGradient id="linearGradient7542" osb:paint="solid"><stop id="stop7538" offset="0" style="stop-color:#c9c9c9;stop-opacity:1"/></linearGradient><linearGradient id="linearGradient19282" gradientTransform="matrix(0,-735328.32,170712.69,0,2464326300,577972450)" osb:paint="solid"><stop id="stop19284" offset="0" style="stop-color:#b4b4b4;stop-opacity:1"/></linearGradient><linearGradient id="linearGradient19282-4" gradientTransform="matrix(0.34682586,0,0,0.30620888,-13.351866,122.03855)" osb:paint="solid"><stop id="stop19284-0" offset="0" style="stop-color:#bebebe;stop-opacity:1"/></linearGradient><linearGradient id="linearGradient7658" x1="330.793" x2="334.791" y1="303.126" y2="303.126" gradientTransform="translate(421.71208,263.99376)" gradientUnits="userSpaceOnUse" xlink:href="#linearGradient19282-4"/><linearGradient id="linearGradient7664" x1="264.563" x2="279" y1="201.499" y2="201.499" gradientTransform="translate(421.71208,263.99376)" gradientUnits="userSpaceOnUse" xlink:href="#linearGradient19282-4"/><linearGradient id="linearGradient7670" x1="273.622" x2="276.998" y1="207.426" y2="207.426" gradientTransform="translate(421.71208,263.99376)" gradientUnits="userSpaceOnUse" xlink:href="#linearGradient19282-4"/><linearGradient id="linearGradient7672" x1="276" x2="278.999" y1="209.5" y2="209.5" gradientTransform="translate(421.71208,263.99376)" gradientUnits="userSpaceOnUse" xlink:href="#linearGradient19282-4"/><linearGradient id="linearGradient7678" x1="270.264" x2="271.448" y1="201.423" y2="201.423" gradientTransform="translate(421.71208,263.99376)" gradientUnits="userSpaceOnUse" xlink:href="#linearGradient19282-4"/><linearGradient id="linearGradient7684" x1="33" x2="34.471" y1="-15.5" y2="-15.5" gradientTransform="translate(410.63485,177.6382)" gradientUnits="userSpaceOnUse" xlink:href="#linearGradient19282-4"/></defs><g style="display:inline" id="stock" transform="translate(36.099066,-96.962475)"><g id="gimp-wilber" transform="translate(-177.09927,-542.03748)" style="display:inline"><g style="display:inline" id="gimp" transform="translate(-122.00001,443.99848)"><g id="applications-gimp"><path style="display:inline;overflow:visible;visibility:visible;fill:url(#linearGradient7664);fill-opacity:1;fill-rule:evenodd;stroke:none;stroke-width:.67424625;marker:none;enable-background:new" id="path7016" d="m 278.7795,195.00152 c 0,0 -0.11302,4.06234 -5.84302,4.03087 -4.86485,-0.0267 -4.96814,-3.03096 -4.96814,-3.03096 0.52967,4.99998 -0.99987,6.99933 -0.99987,6.99933 0,0 -0.10876,0.71567 -2.40596,0.5937 1.21604,1.73419 5.82245,5.16101 9.53788,4.2496 -0.54351,-0.40203 -0.78896,-0.78972 -1.10142,-1.1327 -0.0827,0.0113 -0.008,0.007 -0.0937,0.008 -2.15004,0.0106 -3.96826,-1.78109 -3.96826,-1.78109 0,0 4.05095,1.92192 5.65555,-0.53119 l -0.84368,-0.90636 c 0.9112,0.0218 2.09732,0.9775 2.01952,2.27054 -0.5437,-0.61824 -0.48847,-0.55195 -0.48847,-0.55195 0,0 -0.21842,0.22117 -0.53118,0.53119 0.71709,0.36804 0.94408,0.58432 1.60026,1.02178 2.80388,-0.68342 2.91436,-6.74913 2.43049,-11.77076 z m -4.09324,4.49958 c 0.95981,0 1.74979,0.78716 1.74979,1.74983 0,0.96267 -0.78998,1.74983 -1.74979,1.74983 -0.95981,0 -1.74978,-0.78716 -1.74978,-1.74983 0,-0.96267 0.78997,-1.74983 1.74978,-1.74983 z m -4.15573,0.49995 c 0.82596,0 1.46856,0.67143 1.46856,1.49985 0,0.82844 -0.6426,1.49986 -1.46856,1.49986 -0.82597,0 -1.49982,-0.67142 -1.49982,-1.49986 0,-0.82842 0.67385,-1.49985 1.49982,-1.49985 z"/><path style="fill:url(#linearGradient7678);fill-opacity:1;stroke:none" id="path5373" d="m 270.85598,200.84636 c -0.32702,0 -0.59215,0.25801 -0.59215,0.57631 0,0.31828 0.26513,0.57629 0.59215,0.57629 0.32703,0 0.59215,-0.25801 0.59215,-0.57629 0,-0.3183 -0.26512,-0.57631 -0.59215,-0.57631 z"/><ellipse style="fill:url(#linearGradient7684);fill-opacity:1;stroke:none" id="path5375" cx="33.736" cy="-15.5" rx=".736" ry=".5" transform="matrix(1.0269759,0,0,1.4861317,240.36743,224.27989)"/><path id="path7023" d="m 332.39062,301.12891 a 2.2239863,1.7462492 45.007124 0 0 -0.56054,0.0664 2.2239863,1.7462492 45.007124 0 0 -0.79102,2.44922 2.2239863,1.7462492 45.007124 0 0 2.71485,1.41211 2.2239863,1.7462492 45.007124 0 0 0.79101,-2.44922 2.2239863,1.7462492 45.007124 0 0 -2.1543,-1.47851 z" transform="translate(-67.79229,-100.1092)" style="display:inline;overflow:visible;visibility:visible;fill:url(#linearGradient7658);fill-opacity:1;fill-rule:evenodd;stroke:none;stroke-width:1.55635607;marker:none;enable-background:new"/><path id="path6937" d="m 276.51358,209.00019 0.4849,-0.60519 c -0.9509,-1.22325 -2.95949,-2.43657 -2.95949,-2.43657 -0.33044,-0.2825 -0.53936,0.0546 -0.33671,0.3568 0,0 1.50633,1.89884 2.8113,2.68496 z" style="display:inline;overflow:visible;visibility:visible;fill:url(#linearGradient7670);fill-opacity:1;fill-rule:nonzero;stroke:none;stroke-width:.27392486;marker:none"/><path id="path7040" d="m 278.99823,211 c -0.0537,-1.66895 -0.77474,-3.11447 -2.13998,-2.99213 -1.10021,0.0986 -1.23652,1.77662 0.14023,1.99223 2.10063,0.32898 1.99975,0.9999 1.99975,0.9999 z" style="display:inline;overflow:visible;visibility:visible;fill:url(#linearGradient7672);fill-opacity:1;fill-rule:nonzero;stroke:none;stroke-width:.2;marker:none"/></g></g></g></g></svg>