<svg xmlns="http://www.w3.org/2000/svg" xmlns:osb="http://www.openswatchbook.org/uri/2009/osb" xmlns:svg="http://www.w3.org/2000/svg" xmlns:xlink="http://www.w3.org/1999/xlink" id="svg7384" width="16" height="16" version="1.1" viewBox="0 0 16 16"><metadata id="metadata90"/><defs id="defs7386"><linearGradient id="linearGradient8074" osb:paint="solid"><stop id="stop8072" offset="0" style="stop-color:#be00be;stop-opacity:1"/></linearGradient><linearGradient id="linearGradient7561" osb:paint="solid"><stop id="stop7558" offset="0" style="stop-color:#a5a5a5;stop-opacity:1"/></linearGradient><linearGradient id="linearGradient7548" osb:paint="solid"><stop id="stop7546" offset="0" style="stop-color:#ebebeb;stop-opacity:1"/></linearGradient><linearGradient id="linearGradient7542" osb:paint="solid"><stop id="stop7538" offset="0" style="stop-color:#c9c9c9;stop-opacity:1"/></linearGradient><linearGradient id="linearGradient19282" gradientTransform="matrix(0,-735328.32,170712.69,0,2464326300,577972450)" osb:paint="solid"><stop id="stop19284" offset="0" style="stop-color:#b4b4b4;stop-opacity:1"/></linearGradient><linearGradient id="linearGradient19282-4" gradientTransform="matrix(0.34682586,0,0,0.30620888,-93.35187,504.03851)" osb:paint="solid"><stop id="stop19284-0" offset="0" style="stop-color:#bebebe;stop-opacity:1"/></linearGradient><linearGradient id="linearGradient10686" x1="-178" x2="-166" y1="48" y2="48" gradientTransform="translate(216.22264,162.5357)" gradientUnits="userSpaceOnUse" xlink:href="#linearGradient19282-4"/><linearGradient id="linearGradient9738" x1="-177" x2="-166" y1="48" y2="48" gradientTransform="translate(180.18558,121.90178)" gradientUnits="userSpaceOnUse" xlink:href="#linearGradient19282-4"/><linearGradient id="linearGradient10686-0" x1="-178" x2="-166" y1="48" y2="48" gradientUnits="userSpaceOnUse" xlink:href="#linearGradient19282-4"/><linearGradient id="linearGradient9738-6" x1="-177" x2="-166" y1="48" y2="48" gradientTransform="translate(117.01505,85.714765)" gradientUnits="userSpaceOnUse" xlink:href="#linearGradient19282-4"/></defs><g style="display:inline" id="gimp-tool-ellipse-select" transform="translate(-61.0002,-257)"><rect id="rect4708" width="16" height="16" x="-180" y="40" transform="translate(241.0002,217)" style="opacity:0;fill:none;fill-opacity:1;stroke:none"/><path style="fill:url(#linearGradient10686-0);fill-opacity:1;stroke:none" id="path4710" d="m -166,48 a 6,4 0 0 1 -6,4 6,4 0 0 1 -6,-4 6,4 0 0 1 6,-4 6,4 0 0 1 6,4 z" transform="matrix(0.83333356,0,0,0.75,212.33357,229)"/><path style="fill:url(#linearGradient9738-6);fill-opacity:1;stroke:none" id="path4760" d="m -53.98495,127.71477 h -2 l 5.75e-4,1.0001 h 2 z m -2.999425,0.18757 c -0.34262,0.0663 -0.67761,0.15236 -1,0.25 v 1.0625 c 0.32247,-0.10972 0.6537,-0.20469 1,-0.28125 z m 4,0 v 1.03125 c 0.3463,0.0766 0.67753,0.17153 1,0.28125 v -1.0625 c -0.32239,-0.0976 -0.65738,-0.1837 -1,-0.25 z m -6,0.625 c -0.35696,0.15527 -0.68046,0.33809 -1,0.53125 v 1.1875 c 0.30947,-0.22708 0.63617,-0.44271 1,-0.625 z m 8,0 v 1.09375 c 0.36383,0.18228 0.69053,0.39791 1,0.625 v -1.1875 c -0.31954,-0.19317 -0.64304,-0.37599 -1,-0.53125 z m -9,8.6875 v 1.15625 c 0.3196,0.19312 0.6429,0.37601 1,0.53125 v -1.0625 c -0.36558,-0.18304 -0.68997,-0.39601 -1,-0.625 z m 10,0 c -0.31003,0.22898 -0.63442,0.44195 -1,0.625 v 1.0625 c 0.3571,-0.15524 0.6804,-0.33814 1,-0.53125 z m -8,1.03125 v 1.03125 c 0.3255,0.099 0.65476,0.1835 1,0.25 v -1 c -0.35191,-0.0744 -0.67387,-0.16968 -1,-0.28125 z m 6,0 c -0.32613,0.11156 -0.64809,0.20685 -1,0.28125 v 1 c 0.34524,-0.0665 0.6745,-0.151 1,-0.25 z m -4,0.46875 -5.75e-4,0.99993 2.000575,7e-5 v -1 z" transform="translate(123.98515,131.28523)"/></g></svg>