<svg xmlns="http://www.w3.org/2000/svg" xmlns:osb="http://www.openswatchbook.org/uri/2009/osb" xmlns:svg="http://www.w3.org/2000/svg" xmlns:xlink="http://www.w3.org/1999/xlink" id="svg7384" width="16" height="16" version="1.1" viewBox="0 0 16 16"><metadata id="metadata90"/><defs id="defs7386"><linearGradient id="linearGradient8074" osb:paint="solid"><stop id="stop8072" offset="0" style="stop-color:#be00be;stop-opacity:1"/></linearGradient><linearGradient id="linearGradient7561" osb:paint="solid"><stop id="stop7558" offset="0" style="stop-color:#a5a5a5;stop-opacity:1"/></linearGradient><linearGradient id="linearGradient7548" osb:paint="solid"><stop id="stop7546" offset="0" style="stop-color:#ebebeb;stop-opacity:1"/></linearGradient><linearGradient id="linearGradient7542" osb:paint="solid"><stop id="stop7538" offset="0" style="stop-color:#c9c9c9;stop-opacity:1"/></linearGradient><linearGradient id="linearGradient19282" gradientTransform="matrix(0,-735328.32,170712.69,0,2464326300,577972450)" osb:paint="solid"><stop id="stop19284" offset="0" style="stop-color:#b4b4b4;stop-opacity:1"/></linearGradient><linearGradient id="linearGradient19282-4" gradientTransform="matrix(0.34682586,0,0,0.30620888,-53.351872,564.0385)" osb:paint="solid"><stop id="stop19284-0" offset="0" style="stop-color:#bebebe;stop-opacity:1"/></linearGradient><linearGradient id="linearGradient10544" x1="104" x2="113.957" y1="205" y2="205" gradientTransform="translate(179.58874,234.00963)" gradientUnits="userSpaceOnUse" xlink:href="#linearGradient19282-4"/><linearGradient id="linearGradient10550" x1="-138.998" x2="-124.939" y1="-12.001" y2="-12.001" gradientTransform="translate(179.58874,234.00963)" gradientUnits="userSpaceOnUse" xlink:href="#linearGradient19282-4"/></defs><g style="display:inline" id="tools" transform="translate(111.04494,-298.53312)"><g id="gimp-tool-heal" transform="translate(-212.04514,101.53312)" style="display:inline"><path id="path82132" d="m 109.43643,198.48087 c -0.21568,0.17901 -0.40751,0.40847 -0.54367,0.67589 l -4.6579,9.12364 c -0.5447,1.06951 -0.10799,2.38891 0.96718,2.96068 l 0.94561,0.49718 c 1.07517,0.57178 2.37229,0.17678 2.91699,-0.89274 l 4.65791,-9.12363 c 0.54469,-1.06953 0.10799,-2.38892 -0.96719,-2.9607 l -0.9456,-0.49717 c -0.80638,-0.42884 -1.72635,-0.32026 -2.37333,0.21685 z m -1.47066,4.46536 c 0.32968,-0.2454 0.81079,-0.18248 1.06248,0.13898 0.25169,0.32143 0.18715,0.79053 -0.14254,1.03594 -0.32969,0.24539 -0.8108,0.18247 -1.06249,-0.13899 -0.25169,-0.32144 -0.18715,-0.79053 0.14255,-1.03593 z m -0.99341,1.97924 c 0.32968,-0.24542 0.81079,-0.18249 1.06249,0.13897 0.25168,0.32144 0.18715,0.79053 -0.14253,1.03593 -0.32969,0.24539 -0.8108,0.18247 -1.06249,-0.13898 -0.2517,-0.32144 -0.18716,-0.79053 0.14253,-1.03592 z m 3.02336,-1.01067 c 0.32967,-0.24539 0.81079,-0.18247 1.06249,0.13898 0.25168,0.32144 0.18715,0.79053 -0.14254,1.03593 -0.32969,0.24541 -0.8108,0.18249 -1.06248,-0.13897 -0.2517,-0.32145 -0.18716,-0.79053 0.14253,-1.03594 z m -0.9934,1.97923 c 0.32969,-0.24539 0.81079,-0.18247 1.06249,0.13898 0.25169,0.32143 0.18716,0.79053 -0.14253,1.03592 -0.32969,0.24541 -0.81081,0.18249 -1.0625,-0.13897 -0.25169,-0.32144 -0.18716,-0.79053 0.14254,-1.03593 z" style="display:inline;fill:url(#linearGradient10544);fill-opacity:1;stroke:none"/><path style="display:inline;opacity:.5;fill:url(#linearGradient10550);fill-opacity:1;stroke:none" id="path82165" d="m -136.40625,-17 c -0.84003,-0.03508 -1.60874,0.4356 -1.96875,1.28125 l -0.4375,1 c -0.48004,1.12755 3.9e-4,2.47052 1.09375,3 l 0.875,0.40625 2.4375,-4.90625 -1.15625,-0.5625 c -0.27335,-0.13231 -0.56374,-0.20735 -0.84375,-0.21875 z m 9.28125,4.28125 -2.46875,4.90625 1.21875,0.59375 c 1.09335,0.52945 2.33246,0.06503 2.8125,-1.0625 l 0.4375,-1 c 0.48005,-1.12753 -3.8e-4,-2.47055 -1.09375,-3 z" transform="translate(241.0002,217)"/></g></g></svg>