<svg xmlns="http://www.w3.org/2000/svg" xmlns:osb="http://www.openswatchbook.org/uri/2009/osb" xmlns:svg="http://www.w3.org/2000/svg" xmlns:xlink="http://www.w3.org/1999/xlink" id="svg7384" width="18" height="18" version="1.1" viewBox="0 0 18 18"><metadata id="metadata90"/><defs id="defs7386"><linearGradient id="linearGradient8074" osb:paint="solid"><stop id="stop8072" offset="0" style="stop-color:#be00be;stop-opacity:1"/></linearGradient><linearGradient id="linearGradient7561" osb:paint="solid"><stop id="stop7558" offset="0" style="stop-color:#a5a5a5;stop-opacity:1"/></linearGradient><linearGradient id="linearGradient7548" osb:paint="solid"><stop id="stop7546" offset="0" style="stop-color:#ebebeb;stop-opacity:1"/></linearGradient><linearGradient id="linearGradient7542" osb:paint="solid"><stop id="stop7538" offset="0" style="stop-color:#c9c9c9;stop-opacity:1"/></linearGradient><linearGradient id="linearGradient19282" gradientTransform="matrix(0,-735328.32,170712.69,0,2464326300,577972450)" osb:paint="solid"><stop id="stop19284" offset="0" style="stop-color:#b4b4b4;stop-opacity:1"/></linearGradient><linearGradient id="linearGradient19282-4" gradientTransform="matrix(0.34682586,0,0,0.30620888,-154.35207,-277.32369)" osb:paint="solid"><stop id="stop19284-0" offset="0" style="stop-color:#bebebe;stop-opacity:1"/></linearGradient><linearGradient id="linearGradient7875" x1="10" x2="18" y1="1050.362" y2="1050.362" gradientTransform="translate(790.80748,98.493323)" gradientUnits="userSpaceOnUse" xlink:href="#linearGradient19282-4"/><linearGradient id="linearGradient7881" x1="2.535" x2="5.279" y1="1050.51" y2="1050.51" gradientTransform="translate(790.80748,98.493323)" gradientUnits="userSpaceOnUse" xlink:href="#linearGradient19282-4"/><linearGradient id="linearGradient7883" x1="4" x2="10.612" y1="1044.805" y2="1044.805" gradientTransform="translate(790.80748,98.493323)" gradientUnits="userSpaceOnUse" xlink:href="#linearGradient19282-4"/><linearGradient id="linearGradient7885" x1="6.646" x2="14.203" y1="1040.374" y2="1040.374" gradientTransform="translate(790.80748,98.493323)" gradientUnits="userSpaceOnUse" xlink:href="#linearGradient19282-4"/></defs><g style="display:inline" id="stock" transform="translate(-332.99633,68.537917)"><g id="gimp-color-picker-black" transform="translate(332.99633,-1104.9001)"><path style="display:inline;fill:url(#linearGradient7883);fill-opacity:1;fill-rule:evenodd;stroke:none;stroke-width:.99862194" id="path12979-1" d="m 10.61195,1041.7961 -4.22019,5.6478 -1.69404,1.4885 L 4,1048.3732 l 0.99632,-2.0476 4.22021,-5.6478 z"/><path style="display:inline;fill:url(#linearGradient7881);fill-opacity:1;fill-rule:evenodd;stroke:none;stroke-width:.99862194" id="path12981-6" d="m 4,1048.7802 c 0,0 -1.47718,0.6667 -1.46543,2.074 0.0147,1.7532 2.66009,1.8384 2.74332,0.2837 C 5.32539,1050.2493 4,1048.7802 4,1048.7802 Z"/><path style="display:inline;fill:url(#linearGradient7885);fill-opacity:1;fill-rule:evenodd;stroke:none;stroke-width:.99862194" id="path12983-5" d="m 6.64635,1040.8245 4.6492,3.5176 0.70445,-0.9232 -1.39473,-1.0552 c 2.80371,-0.7911 4.71994,-4.1634 2.86027,-5.5705 -1.85967,-1.407 -4.70574,1.2617 -4.71994,4.1634 l -1.39477,-1.0553 z"/><path style="fill:url(#linearGradient7875);fill-opacity:1;stroke:none;stroke-width:1.33517039" id="rect12985-8" d="m 10,1046.3622 0,8 8,0 0,-8 z m 1,1 6,0 0,6 -6,0 z"/><rect id="rect13014-5-5" width="6" height="6" x="11" y="1047.362" style="display:inline;opacity:1;fill:#000!important;fill-opacity:1;stroke:none;stroke-width:1.5"/></g></g></svg>