<svg xmlns="http://www.w3.org/2000/svg" xmlns:osb="http://www.openswatchbook.org/uri/2009/osb" xmlns:svg="http://www.w3.org/2000/svg" xmlns:xlink="http://www.w3.org/1999/xlink" id="svg7384" width="16" height="16" version="1.1" viewBox="0 0 16 16"><metadata id="metadata90"/><defs id="defs7386"><linearGradient id="linearGradient8074" osb:paint="solid"><stop id="stop8072" offset="0" style="stop-color:#be00be;stop-opacity:1"/></linearGradient><linearGradient id="linearGradient7561" osb:paint="solid"><stop id="stop7558" offset="0" style="stop-color:#a5a5a5;stop-opacity:1"/></linearGradient><linearGradient id="linearGradient7548" osb:paint="solid"><stop id="stop7546" offset="0" style="stop-color:#ebebeb;stop-opacity:1"/></linearGradient><linearGradient id="linearGradient7542" osb:paint="solid"><stop id="stop7538" offset="0" style="stop-color:#c9c9c9;stop-opacity:1"/></linearGradient><linearGradient id="linearGradient19282" gradientTransform="matrix(0,-735328.32,170712.69,0,2464326300,577972450)" osb:paint="solid"><stop id="stop19284" offset="0" style="stop-color:#b4b4b4;stop-opacity:1"/></linearGradient><linearGradient id="linearGradient19282-4" gradientTransform="matrix(0.34682586,0,0,0.30620888,-113.35187,222.03851)" osb:paint="solid"><stop id="stop19284-0" offset="0" style="stop-color:#bebebe;stop-opacity:1"/></linearGradient><linearGradient id="linearGradient7879" x1="-197" x2="-187" y1="331" y2="331" gradientTransform="translate(401.89958,217.8657)" gradientUnits="userSpaceOnUse" xlink:href="#linearGradient19282-4"/><linearGradient id="linearGradient7882" x1="47.733" x2="53.612" y1="546.684" y2="546.684" gradientTransform="translate(401.89958,217.8657)" gradientUnits="userSpaceOnUse" xlink:href="#linearGradient19282-4"/><linearGradient id="linearGradient7884" x1="50.562" x2="57" y1="542.516" y2="542.516" gradientTransform="translate(401.89958,217.8657)" gradientUnits="userSpaceOnUse" xlink:href="#linearGradient19282-4"/><linearGradient id="linearGradient7887" x1="-200" x2="-184" y1="331" y2="331" gradientTransform="translate(401.89958,217.8657)" gradientUnits="userSpaceOnUse" xlink:href="#linearGradient19282-4"/><linearGradient id="linearGradient7889" x1="-197" x2="-187" y1="337" y2="337" gradientTransform="translate(401.89958,217.8657)" gradientUnits="userSpaceOnUse" xlink:href="#linearGradient19282-4"/></defs><g style="display:inline" id="stock" transform="translate(55.911568,-50.83446)"><g id="gimp-color-pick-from-screen" transform="translate(-96.911768,-488.16554)" style="display:inline"><path style="fill:url(#linearGradient7882);fill-opacity:1;fill-rule:evenodd;stroke:none" id="path3620-6" d="m 53.61215,544.3727 -3.48695,4.2523 -1.69404,1.49261 -0.69772,-0.56071 0.99632,-2.0533 3.48697,-4.2523 z"/><path style="fill:url(#linearGradient7884);fill-opacity:1;fill-rule:evenodd;stroke:none" id="path3583-6" d="m 50.56209,542.91501 3.960928,3.11703 0.600162,-0.81806 -1.188253,-0.93507 c 2.388647,-0.70095 4.021196,-3.68918 2.436833,-4.93601 -1.584362,-1.2468 -4.009097,1.11801 -4.021195,3.6892 l -1.188287,-0.93511 z"/><path style="fill:url(#linearGradient7887);fill-opacity:1;stroke:none" id="rect28283" d="m -198.8125,326 c -0.65445,0 -1.1875,0.52209 -1.1875,1.1875 l 0,7.625 c 0,0.66541 0.53305,1.1875 1.1875,1.1875 l 13.5,0 c 0.65445,0 1.1875,-0.52209 1.1875,-1.1875 L -184,327 l -1,1 0,6 c 0,0.66541 -0.6893,1 -1.34375,1 l -11.46875,0 c -0.65445,0 -1.1875,-0.52209 -1.1875,-1.1875 l 0,-5.625 c 0,-0.66541 0.53305,-1.1875 1.1875,-1.1875 l 5.8125,0 0.75,-1 z" transform="translate(241.0002,217)"/><path style="opacity:.3;fill:url(#linearGradient7879);fill-opacity:1;stroke:none" id="rect28288" d="m -197,329 0,4 10,0 0,-3 -3,3 -1,0 -3,0 0,-1 1,-3 z" transform="translate(241.0002,217)"/><rect style="fill:url(#linearGradient7889);fill-opacity:1;stroke:none" id="rect28290" width="10" height="2" x="-197" y="336" rx="1.196" ry="1.196" transform="translate(241.0002,217)"/></g></g></svg>