<svg xmlns="http://www.w3.org/2000/svg" xmlns:osb="http://www.openswatchbook.org/uri/2009/osb" xmlns:svg="http://www.w3.org/2000/svg" xmlns:xlink="http://www.w3.org/1999/xlink" id="svg7384" width="16" height="16" version="1.1" viewBox="0 0 16 16"><metadata id="metadata90"/><defs id="defs7386"><linearGradient id="linearGradient8074" osb:paint="solid"><stop id="stop8072" offset="0" style="stop-color:#be00be;stop-opacity:1"/></linearGradient><linearGradient id="linearGradient7561" osb:paint="solid"><stop id="stop7558" offset="0" style="stop-color:#a5a5a5;stop-opacity:1"/></linearGradient><linearGradient id="linearGradient7548" osb:paint="solid"><stop id="stop7546" offset="0" style="stop-color:#ebebeb;stop-opacity:1"/></linearGradient><linearGradient id="linearGradient7542" osb:paint="solid"><stop id="stop7538" offset="0" style="stop-color:#c9c9c9;stop-opacity:1"/></linearGradient><linearGradient id="linearGradient19282" gradientTransform="matrix(0,-735328.32,170712.69,0,2464326300,577972450)" osb:paint="solid"><stop id="stop19284" offset="0" style="stop-color:#b4b4b4;stop-opacity:1"/></linearGradient><linearGradient id="linearGradient19282-4" gradientTransform="matrix(0.34682586,0,0,0.30620888,-33.35187,142.03851)" osb:paint="solid"><stop id="stop19284-0" offset="0" style="stop-color:#bebebe;stop-opacity:1"/></linearGradient><linearGradient id="linearGradient7742" x1="-118" x2="-104" y1="406.031" y2="406.031" gradientTransform="translate(470.12943,283.03651)" gradientUnits="userSpaceOnUse" xlink:href="#linearGradient19282-4"/><linearGradient id="linearGradient7744" x1="131" x2="135" y1="627" y2="627" gradientTransform="translate(470.12943,283.03651)" gradientUnits="userSpaceOnUse" xlink:href="#linearGradient19282-4"/><linearGradient id="linearGradient7750" x1="121" x2="135" y1="631" y2="631" gradientTransform="translate(470.12943,283.03651)" gradientUnits="userSpaceOnUse" xlink:href="#linearGradient19282-4"/><linearGradient id="linearGradient7752" x1="-118" x2="-113" y1="410" y2="410" gradientTransform="translate(470.12943,283.03651)" gradientUnits="userSpaceOnUse" xlink:href="#linearGradient19282-4"/><linearGradient id="linearGradient7758" x1="127" x2="130" y1="625.5" y2="625.5" gradientTransform="translate(470.12943,283.03651)" gradientUnits="userSpaceOnUse" xlink:href="#linearGradient19282-4"/><linearGradient id="linearGradient7764" x1="127" x2="130" y1="628.5" y2="628.5" gradientTransform="translate(470.12943,283.03651)" gradientUnits="userSpaceOnUse" xlink:href="#linearGradient19282-4"/></defs><g style="display:inline" id="stock" transform="translate(-12.31828,-116.00527)"><g id="gimp-plugin" transform="translate(-108.68192,-502.99473)" style="display:inline"><rect style="fill:url(#linearGradient7758);fill-opacity:1;stroke:none" id="rect7144" width="3" height="1" x="127" y="625" rx=".594" ry=".594"/><rect id="rect7146" width="3" height="1" x="127" y="628" rx=".594" ry=".594" style="fill:url(#linearGradient7764);fill-opacity:1;stroke:none"/><path style="fill:url(#linearGradient7742);fill-opacity:1;stroke:none" id="rect7148" d="m -117.40625,402 c -0.32894,0 -0.59375,0.26481 -0.59375,0.59375 l 0,1.40625 1,0 0,-0.40625 c 0,-0.32894 0.26481,-0.59375 0.59375,-0.59375 l 10.8125,0 c 0.32894,0 0.59375,0.26481 0.59375,0.59375 l 0,4.8125 c 0,0.32894 -0.26481,0.59375 -0.59375,0.59375 l -1.40625,0 0,1.0625 c 0,0 0,0 2.40625,0 0.32894,0 0.59375,-0.26481 0.59375,-0.59375 l 0,-6.875 C -104,402.26481 -104.26481,402 -104.59375,402 Z" transform="translate(241.0002,217)"/><path id="path7156" d="m 134.40645,635 c 0.32894,0 0.59375,-0.26481 0.59375,-0.59375 l 0,-1.40625 -1,0 0,0.40625 c 0,0.32894 -0.26481,0.59375 -0.59375,0.59375 l -10.8125,0 c -0.32894,0 -0.59375,-0.26481 -0.59375,-0.59375 l 0,-4.8125 c 0,-0.32894 0.26481,-0.59375 0.59375,-0.59375 l 1.40625,0 0,-1 c 0,0 -1,0 -2.40625,0 -0.32894,0 -0.59375,0.26481 -0.59375,0.59375 l 0,6.8125 c 0,0.32894 0.26481,0.59375 0.59375,0.59375 z" style="fill:url(#linearGradient7750);fill-opacity:1;stroke:none"/><path style="fill:url(#linearGradient7752);fill-opacity:1;stroke:none" id="rect7158" d="m -116,407 c -1.108,0 -2,0.892 -2,2 l 0,2 c 0,1.108 0.892,2 2,2 l 3,0 0,-2 0,-2 0,-2 z" transform="translate(241.0002,217)"/><path id="path7165" d="m 133.0002,624 c 1.108,0 2,0.892 2,2 l 0,2 c 0,1.108 -0.892,2 -2,2 l -2,0 0,-2 0,-2 0,-2 z" style="fill:url(#linearGradient7744);fill-opacity:1;stroke:none"/></g></g></svg>