<svg xmlns="http://www.w3.org/2000/svg" xmlns:osb="http://www.openswatchbook.org/uri/2009/osb" xmlns:svg="http://www.w3.org/2000/svg" xmlns:xlink="http://www.w3.org/1999/xlink" id="svg7384" width="16" height="16" version="1.1" viewBox="0 0 16 16"><metadata id="metadata90"/><defs id="defs7386"><linearGradient id="linearGradient8074" osb:paint="solid"><stop id="stop8072" offset="0" style="stop-color:#be00be;stop-opacity:1"/></linearGradient><linearGradient id="linearGradient7561" osb:paint="solid"><stop id="stop7558" offset="0" style="stop-color:#a5a5a5;stop-opacity:1"/></linearGradient><linearGradient id="linearGradient7548" osb:paint="solid"><stop id="stop7546" offset="0" style="stop-color:#ebebeb;stop-opacity:1"/></linearGradient><linearGradient id="linearGradient7542" osb:paint="solid"><stop id="stop7538" offset="0" style="stop-color:#c9c9c9;stop-opacity:1"/></linearGradient><linearGradient id="linearGradient19282" gradientTransform="matrix(0,-735328.32,170712.69,0,2464326300,577972450)" osb:paint="solid"><stop id="stop19284" offset="0" style="stop-color:#b4b4b4;stop-opacity:1"/></linearGradient><linearGradient id="linearGradient19282-4" gradientTransform="matrix(0.34682586,0,0,0.30620888,-119.35207,741.03851)" osb:paint="solid"><stop id="stop19284-0" offset="0" style="stop-color:#bebebe;stop-opacity:1"/></linearGradient><linearGradient id="linearGradient8334" x1="35" x2="51" y1="28" y2="28" gradientTransform="translate(898.14554,399.52469)" gradientUnits="userSpaceOnUse" xlink:href="#linearGradient19282-4"/><linearGradient id="linearGradient7379" x1="43" x2="46" y1="30.734" y2="30.734" gradientTransform="translate(898.14554,337.09896)" gradientUnits="userSpaceOnUse" xlink:href="#linearGradient19282-4"/></defs><g style="display:inline" id="preferences" transform="translate(-284.82493,-241.52469)"><g id="gimp-prefs-folders-interp" transform="translate(249.82493,221.52469)"><g id="g736" transform="translate(20,0)"><g id="g738" transform="translate(0,60)"><path style="display:inline;fill:url(#linearGradient8334);fill-opacity:1;stroke:none" id="path15678" d="M 35.53125,20 C 35.24212,20 35,20.24212 35,20.53125 l 0,14.9375 C 35,35.76725 35.23264,36 35.53125,36 l 14.9375,0 C 50.76735,36 51,35.76735 51,35.46875 l 0,-9.9375 C 51,25.24215 50.75788,25 50.46875,25 L 38,25 38,33.5 C 38,33.777 37.777,34 37.5,34 37.223,34 37,33.777 37,33.5 l 0,-9 C 37,24.223 37.223,24 37.5,24 L 40.46875,24 49,24 49,22.59375 C 49,22.26655 48.73334,22 48.40625,22 L 41,22 41,20.53125 C 41,20.2421 40.75788,20 40.46875,20 Z m 6.53125,6 1.5,1.21875 c 0.627744,-0.184403 1.247257,-0.184403 1.875,0 L 46.9375,26 49,28.09375 47.78125,29.5625 c 0.182958,0.632699 0.182958,1.304801 0,1.9375 L 49,32.96875 l -2.0625,2.09375 -1.5,-1.21875 c -0.627744,0.184403 -1.247257,0.184402 -1.875,0 l -1.5,1.21875 L 40,32.96875 41.21875,31.5 c -0.182958,-0.632699 -0.182958,-1.304801 0,-1.9375 L 40,28.09375 Z" transform="translate(-20,-60)"/></g></g><ellipse style="fill:url(#linearGradient7379);fill-opacity:1;stroke:none" id="path15832" cx="44.5" cy="30.734" rx="1.5" ry="1.266" transform="matrix(1,0,0,1.1851852,0,-5.9259264)"/></g></g></svg>