<svg xmlns="http://www.w3.org/2000/svg" xmlns:osb="http://www.openswatchbook.org/uri/2009/osb" xmlns:svg="http://www.w3.org/2000/svg" xmlns:xlink="http://www.w3.org/1999/xlink" id="svg7384" width="16" height="16" version="1.1" viewBox="0 0 16 16"><metadata id="metadata90"/><defs id="defs7386"><linearGradient id="linearGradient19282-4" gradientTransform="matrix(0.34682586,0,0,0.30620888,-73.351872,282.03851)" osb:paint="solid"><stop id="stop19284-0" offset="0" style="stop-color:#bebebe;stop-opacity:1"/></linearGradient><linearGradient id="linearGradient8029" x1="85" x2="90" y1="493.5" y2="493.5" gradientTransform="translate(617.67631,359.8463)" gradientUnits="userSpaceOnUse" xlink:href="#linearGradient19282-4"/><linearGradient id="linearGradient8031" x1="90" x2="94" y1="493.5" y2="493.5" gradientTransform="translate(617.67631,359.8463)" gradientUnits="userSpaceOnUse" xlink:href="#linearGradient19282-4"/><linearGradient id="linearGradient8037" x1="96" x2="97" y1="491.5" y2="491.5" gradientTransform="translate(617.67631,359.8463)" gradientUnits="userSpaceOnUse" xlink:href="#linearGradient19282-4"/><linearGradient id="linearGradient8039" x1="94" x2="97" y1="493.5" y2="493.5" gradientTransform="translate(617.67631,359.8463)" gradientUnits="userSpaceOnUse" xlink:href="#linearGradient19282-4"/><linearGradient id="linearGradient8043" x1="96" x2="97" y1="488" y2="488" gradientTransform="translate(617.67631,359.8463)" gradientUnits="userSpaceOnUse" xlink:href="#linearGradient19282-4"/><linearGradient id="linearGradient8045" x1="96" x2="97" y1="484.5" y2="484.5" gradientTransform="translate(617.67631,359.8463)" gradientUnits="userSpaceOnUse" xlink:href="#linearGradient19282-4"/><linearGradient id="linearGradient8048" x1="96" x2="97" y1="482" y2="482" gradientTransform="translate(617.67631,359.8463)" gradientUnits="userSpaceOnUse" xlink:href="#linearGradient19282-4"/><linearGradient id="linearGradient8051" x1="93" x2="97" y1="480.5" y2="480.5" gradientTransform="translate(617.67631,359.8463)" gradientUnits="userSpaceOnUse" xlink:href="#linearGradient19282-4"/><linearGradient id="linearGradient8055" x1="87" x2="93" y1="480.5" y2="480.5" gradientTransform="translate(617.67631,359.8463)" gradientUnits="userSpaceOnUse" xlink:href="#linearGradient19282-4"/><linearGradient id="linearGradient8057" x1="83" x2="87" y1="480.5" y2="480.5" gradientTransform="translate(617.67631,359.8463)" gradientUnits="userSpaceOnUse" xlink:href="#linearGradient19282-4"/><linearGradient id="linearGradient8061" x1="81" x2="82" y1="482" y2="482" gradientTransform="translate(617.67631,359.8463)" gradientUnits="userSpaceOnUse" xlink:href="#linearGradient19282-4"/><linearGradient id="linearGradient8063" x1="82" x2="83" y1="480.5" y2="480.5" gradientTransform="translate(617.67631,359.8463)" gradientUnits="userSpaceOnUse" xlink:href="#linearGradient19282-4"/><linearGradient id="linearGradient8066" x1="81" x2="82" y1="486" y2="486" gradientTransform="translate(617.67631,359.8463)" gradientUnits="userSpaceOnUse" xlink:href="#linearGradient19282-4"/><linearGradient id="linearGradient8069" x1="81" x2="82" y1="489.5" y2="489.5" gradientTransform="translate(617.67631,359.8463)" gradientUnits="userSpaceOnUse" xlink:href="#linearGradient19282-4"/><linearGradient id="linearGradient8072" x1="81" x2="82" y1="492" y2="492" gradientTransform="translate(617.67631,359.8463)" gradientUnits="userSpaceOnUse" xlink:href="#linearGradient19282-4"/><linearGradient id="linearGradient8075" x1="81" x2="85" y1="493.5" y2="493.5" gradientTransform="translate(617.67631,359.8463)" gradientUnits="userSpaceOnUse" xlink:href="#linearGradient19282-4"/><linearGradient id="linearGradient8085" x1="616.115" x2="620.115" y1="370.846" y2="370.846" gradientTransform="translate(617.67631,359.8463)" gradientUnits="userSpaceOnUse" xlink:href="#linearGradient19282-4"/><linearGradient id="linearGradient8092" x1="624.115" x2="628.115" y1="370.846" y2="370.846" gradientTransform="translate(617.67631,359.8463)" gradientUnits="userSpaceOnUse" xlink:href="#linearGradient19282-4"/><linearGradient id="linearGradient8099" x1="624.115" x2="628.115" y1="364.846" y2="364.846" gradientTransform="translate(617.67631,359.8463)" gradientUnits="userSpaceOnUse" xlink:href="#linearGradient19282-4"/><linearGradient id="linearGradient8110" x1="616.115" x2="620.115" y1="364.846" y2="364.846" gradientTransform="translate(617.67631,359.8463)" gradientUnits="userSpaceOnUse" xlink:href="#linearGradient19282-4"/></defs><g style="display:inline" id="stock" transform="translate(-159.86516,-192.81506)"><g id="gimp-selection-shrink" transform="translate(78.864964,-286.18494)" style="display:inline"><path id="path5754" d="m 624.11523,362.8457 0,4 1,0 3,0 0,-1 -2,0 1.46875,-1.46875 -0.9375,-1.06054 -1.53125,1.52929 0,-2 z" transform="translate(-533.11507,119.1537)" style="fill:url(#linearGradient8099);fill-opacity:1;stroke:none"/><path id="path5760" d="m 616.11523,368.8457 0,1 1.98243,0 -1.51368,1.48633 1,1 1.53125,-1.50391 0,2.01758 1,0 0,-3 0,-1 -1,0 z" transform="translate(-533.11507,119.1537)" style="fill:url(#linearGradient8085);fill-opacity:1;stroke:none"/><path id="path5766" d="m 624.11523,368.8457 0,1 0,3 1,0 0,-2.01758 1.53125,1.50391 1,-1 -1.51367,-1.48633 1.98242,0 0,-1 -3,0 z" transform="translate(-533.11507,119.1537)" style="fill:url(#linearGradient8092);fill-opacity:1;stroke:none"/><path id="path5772" d="m 619.11523,362.8457 0,2.01758 -1.53125,-1.5039 -1,1 1.51368,1.48632 -1.98243,0 0,1 3,0 1,0 0,-1 0,-3 z" transform="translate(-533.11507,119.1537)" style="fill:url(#linearGradient8110);fill-opacity:1;stroke:none"/><rect id="rect5808" width="1" height="4" x="81" y="480" style="opacity:.3;fill:url(#linearGradient8061);fill-opacity:1;stroke:none"/><rect id="rect5810" width="5" height="1" x="85" y="493" ry="0" style="opacity:.3;fill:url(#linearGradient8029);fill-opacity:1;stroke:none"/><rect id="rect5812" width="4" height="1" x="90" y="493" style="fill:url(#linearGradient8031);fill-opacity:1;stroke:none"/><rect id="rect5814" width="4" height="1" x="93" y="480" ry="0" style="fill:url(#linearGradient8051);fill-opacity:1;stroke:none"/><rect id="rect5816" width="1" height="4" x="96" y="486" ry="0" style="fill:url(#linearGradient8043);fill-opacity:1;stroke:none"/><rect id="rect5818" width="1" height="3" x="96" y="483" style="opacity:.3;fill:url(#linearGradient8045);fill-opacity:1;stroke:none"/><rect style="fill:url(#linearGradient8057);fill-opacity:1;stroke:none" id="rect5820" width="4" height="1" x="83" y="480" ry="0"/><rect style="opacity:.3;fill:url(#linearGradient8055);fill-opacity:1;stroke:none" id="rect5822" width="6" height="1" x="87" y="480" ry="0"/><rect style="opacity:.3;fill:url(#linearGradient8037);fill-opacity:1;stroke:none" id="rect5824" width="1" height="3" x="96" y="490" ry="0"/><rect id="rect5826" width="4" height="1" x="81" y="493" ry="0" style="fill:url(#linearGradient8075);fill-opacity:1;stroke:none"/><rect style="fill:url(#linearGradient8066);fill-opacity:1;stroke:none" id="rect5828" width="1" height="4" x="81" y="484"/><rect id="rect5830" width="1" height="3" x="81" y="488" style="opacity:.3;fill:url(#linearGradient8069);fill-opacity:1;stroke:none"/><rect id="rect5832" width="3" height="1" x="94" y="493" style="opacity:.3;fill:url(#linearGradient8039);fill-opacity:1;stroke:none"/><rect id="rect5834" width="1" height="2" x="96" y="481" style="fill:url(#linearGradient8048);fill-opacity:1;stroke:none"/><rect id="rect5836" width="1" height="2" x="81" y="491" style="fill:url(#linearGradient8072);fill-opacity:1;stroke:none"/><rect id="rect5838" width="1" height="1" x="82" y="480" style="opacity:.3;fill:url(#linearGradient8063);fill-opacity:1;stroke:none"/></g></g></svg>