<svg xmlns="http://www.w3.org/2000/svg" xmlns:osb="http://www.openswatchbook.org/uri/2009/osb" xmlns:svg="http://www.w3.org/2000/svg" xmlns:xlink="http://www.w3.org/1999/xlink" id="svg7384" width="16" height="16" version="1.1" viewBox="0 0 16 16"><metadata id="metadata90"/><defs id="defs7386"><linearGradient id="linearGradient8074" osb:paint="solid"><stop id="stop8072" offset="0" style="stop-color:#be00be;stop-opacity:1"/></linearGradient><linearGradient id="linearGradient7561" osb:paint="solid"><stop id="stop7558" offset="0" style="stop-color:#a5a5a5;stop-opacity:1"/></linearGradient><linearGradient id="linearGradient7548" osb:paint="solid"><stop id="stop7546" offset="0" style="stop-color:#ebebeb;stop-opacity:1"/></linearGradient><linearGradient id="linearGradient7542" osb:paint="solid"><stop id="stop7538" offset="0" style="stop-color:#c9c9c9;stop-opacity:1"/></linearGradient><linearGradient id="linearGradient19282" gradientTransform="matrix(0,-735328.32,170712.69,0,2464326300,577972450)" osb:paint="solid"><stop id="stop19284" offset="0" style="stop-color:#b4b4b4;stop-opacity:1"/></linearGradient><linearGradient id="linearGradient19282-4" gradientTransform="matrix(0.34682586,0,0,0.30620888,-154.35207,-275.32368)" osb:paint="solid"><stop id="stop19284-0" offset="0" style="stop-color:#bebebe;stop-opacity:1"/></linearGradient><linearGradient id="linearGradient7597" x1="1" x2="15" y1="1044.362" y2="1044.362" gradientTransform="translate(596.05797,297.46741)" gradientUnits="userSpaceOnUse" xlink:href="#linearGradient19282-4"/><linearGradient id="linearGradient7599" x1="2.652" x2="13.682" y1="1044.048" y2="1044.048" gradientTransform="translate(596.05797,297.46741)" gradientUnits="userSpaceOnUse" xlink:href="#linearGradient19282-4"/><linearGradient id="linearGradient7605" x1="2.652" x2="13.682" y1="1044.048" y2="1044.048" gradientTransform="translate(596.05797,297.46741)" gradientUnits="userSpaceOnUse" xlink:href="#linearGradient19282-4"/></defs><g style="display:inline" id="stock" transform="translate(-138.24682,-130.43617)"><g id="gimp-gradient-spiral-anticlockwise" transform="translate(138.24682,-905.92601)"><path style="fill:url(#linearGradient7597);fill-opacity:1;stroke:none" id="rect6886-1" d="m 1,1037.3622 0,14 14,0 0,-14 z m 1,1 12,0 0,12 -12,0 z"/><path style="opacity:1;fill:url(#linearGradient7599);fill-opacity:1;fill-rule:evenodd;stroke:url(#linearGradient7605);stroke-width:.50046957;stroke-linecap:butt;stroke-linejoin:miter;stroke-miterlimit:4;stroke-dasharray:none;stroke-opacity:1" id="path3942" d="m 7.802619,1044.4117 c 0.1393202,0.1703 -0.1607985,0.2719 -0.2830168,0.2316 -0.3312038,-0.1091 -0.3422698,-0.5484 -0.180102,-0.7976 0.2900801,-0.4458 0.9267947,-0.4377 1.312169,-0.1286 0.5655523,0.4535 0.536579,1.3105 0.077187,1.8267 -0.6122968,0.688 -1.696223,0.6369 -2.3413213,0.026 -0.8117904,-0.7691 -0.7380637,-2.0828 0.025727,-2.8559 0.9250532,-0.9363 2.4699474,-0.8396 3.3704735,0.077 1.0612386,1.0805 0.9415146,2.8574 -0.1286419,3.8851 -1.2355381,1.1864 -3.2450628,1.0435 -4.3996259,-0.1801 -1.3118879,-1.3904 -1.1457607,-3.6329 0.2315567,-4.9142 1.5451419,-1.4375 4.0208119,-1.2481 5.4287777,0.283 1.563109,1.6998 1.350404,4.4088 -0.334471,5.9433 -1.854314,1.6889 -4.7969043,1.4529 -6.4579303,-0.3859 -1.8146469,-2.0088 -1.5552716,-5.185 0.437386,-6.9725 2.1632429,-1.9405 5.5732033,-1.6578 7.4870823,0.4889 2.066377,2.3176 1.76028,5.9614 -0.540301,8.0016"/></g></g></svg>