<svg xmlns="http://www.w3.org/2000/svg" xmlns:svg="http://www.w3.org/2000/svg" id="svg8" width="16" height="16" version="1.1" viewBox="0 0 4.233 4.233"><defs id="defs2"><marker id="Arrow1Mstart" orient="auto" refX="0" refY="0" style="overflow:visible"><path id="path2579" d="M 0.0,0.0 L 5.0,-5.0 L -12.5,0.0 L 5.0,5.0 L 0.0,0.0 z" transform="scale(0.4) translate(10,0)" style="fill-rule:evenodd;stroke:#bebebe;stroke-width:1pt;stroke-opacity:1;fill:#bebebe;fill-opacity:1"/></marker></defs><metadata id="metadata5"/><g id="layer1" transform="translate(0,-292.76666)" style="display:inline"><circle style="fill:#bebebe;fill-opacity:1;stroke:none;stroke-width:.10583334;stroke-linejoin:round;stroke-miterlimit:4;stroke-dasharray:none;stroke-opacity:1" id="path3956" cx="2.117" cy="294.883" r=".529"/><g id="g12965"><path style="display:inline;fill:none;fill-opacity:1;stroke:#bebebe;stroke-width:.39687499;stroke-linejoin:round;stroke-miterlimit:4;stroke-dasharray:none;stroke-opacity:1" id="path3958" d="m 2.1166666,293.56041 a 1.3229166,1.3229166 0 0 1 1.2222156,0.81666 1.3229166,1.3229166 0 0 1 -0.2867724,1.4417 1.3229166,1.3229166 0 0 1 -1.4417016,0.28678 1.3229166,1.3229166 0 0 1 -0.81665827,-1.22222"/><path style="display:inline;fill:#bebebe;fill-opacity:1;stroke:none;stroke-width:.27536848;stroke-linejoin:round;stroke-miterlimit:4;stroke-dasharray:none;stroke-opacity:1" id="path4166" d="m 0.79375001,293.6927 0.68741169,1.19063 -1.3748234,0 z" transform="matrix(0.96224482,0,0,0.87770259,0.02996819,36.063473)"/></g></g></svg>