<svg xmlns="http://www.w3.org/2000/svg" xmlns:osb="http://www.openswatchbook.org/uri/2009/osb" xmlns:svg="http://www.w3.org/2000/svg" xmlns:xlink="http://www.w3.org/1999/xlink" id="svg7384" width="16" height="16" version="1.1" viewBox="0 0 16 16"><metadata id="metadata90"/><defs id="defs7386"><linearGradient id="linearGradient8074" osb:paint="solid"><stop id="stop8072" offset="0" style="stop-color:#be00be;stop-opacity:1"/></linearGradient><linearGradient id="linearGradient7561" osb:paint="solid"><stop id="stop7558" offset="0" style="stop-color:#a5a5a5;stop-opacity:1"/></linearGradient><linearGradient id="linearGradient7548" osb:paint="solid"><stop id="stop7546" offset="0" style="stop-color:#ebebeb;stop-opacity:1"/></linearGradient><linearGradient id="linearGradient7542" osb:paint="solid"><stop id="stop7538" offset="0" style="stop-color:#c9c9c9;stop-opacity:1"/></linearGradient><linearGradient id="linearGradient19282" gradientTransform="matrix(0,-735328.32,170712.69,0,2464326300,577972450)" osb:paint="solid"><stop id="stop19284" offset="0" style="stop-color:#b4b4b4;stop-opacity:1"/></linearGradient><linearGradient id="linearGradient19282-4" gradientTransform="matrix(0.34682586,0,0,0.30620888,-154.35207,-275.32368)" osb:paint="solid"><stop id="stop19284-0" offset="0" style="stop-color:#bebebe;stop-opacity:1"/></linearGradient><linearGradient id="linearGradient10556" x1="3" x2="7" y1="1040.362" y2="1040.362" gradientTransform="translate(201.3877,234.80669)" gradientUnits="userSpaceOnUse" xlink:href="#linearGradient19282-4"/><linearGradient id="linearGradient10562" x1="1.5" x2="8.5" y1="1042.362" y2="1042.362" gradientTransform="translate(201.3877,234.80669)" gradientUnits="userSpaceOnUse" xlink:href="#linearGradient19282-4"/><linearGradient id="linearGradient10568" x1="0" x2="10" y1="1046.362" y2="1046.362" gradientTransform="translate(201.3877,234.80669)" gradientUnits="userSpaceOnUse" xlink:href="#linearGradient19282-4"/><linearGradient id="linearGradient10574" x1="5" x2="16" y1="1046.862" y2="1046.862" gradientTransform="translate(201.3877,234.80669)" gradientUnits="userSpaceOnUse" xlink:href="#linearGradient19282-4"/><linearGradient id="linearGradient10568-8" x1="0" x2="10" y1="1046.362" y2="1046.362" gradientUnits="userSpaceOnUse" xlink:href="#linearGradient19282-4"/><linearGradient id="linearGradient10562-4" x1="1.5" x2="8.5" y1="1042.362" y2="1042.362" gradientUnits="userSpaceOnUse" xlink:href="#linearGradient19282-4"/><linearGradient id="linearGradient10556-3" x1="3" x2="7" y1="1040.362" y2="1040.362" gradientUnits="userSpaceOnUse" xlink:href="#linearGradient19282-4"/><linearGradient id="linearGradient10574-1" x1="5" x2="16" y1="1046.862" y2="1046.862" gradientUnits="userSpaceOnUse" xlink:href="#linearGradient19282-4"/></defs><g style="display:inline" id="gimp-tool-perspective-clone" transform="translate(1.6357421e-6,-1036.3622)"><rect style="opacity:0;fill:none;stroke:none;stroke-width:1.00075829" id="rect5580-9" width="16" height="16" x="0" y="1036.362" rx=".75" ry="0"/><path style="fill:url(#linearGradient10568-8);fill-opacity:1;stroke:none;stroke-width:1.00000858" id="path5582-55" d="m 0,1045.3622 v 2 h 5 l -1.66667,-2 z m 5,2 h 5 v -2 H 6.66667 Z"/><path style="fill:url(#linearGradient10562-4);fill-opacity:1;stroke:none;stroke-width:1.02469206" id="path5584-8" d="m 1.5,1044.4311 c 0,0 2.7999958,0 2.7999958,-4.6551 0.7000042,-0.9311 1.4000084,0 1.4000084,0 0,4.6551 2.7999958,4.6551 2.7999958,4.6551 v 0.9311 h -7 z"/><path style="fill:url(#linearGradient10556-3);fill-opacity:1;stroke:none;stroke-width:.75592846" id="path5586-6" d="m 6.9999926,1040.3622 a 1.9999974,2 0 0 1 -1.9999974,2 1.9999974,2 0 0 1 -1.9999973,-2 1.9999974,2 0 0 1 1.9999973,-2 1.9999974,2 0 0 1 1.9999974,2 z"/><path id="path5659-3" d="m 10,1042.3622 -1,2 h 2 v 4 H 9 8 7 l -2,3 h 11 l -3,-9 z" style="fill:url(#linearGradient10574-1);fill-opacity:1;stroke:none;stroke-width:.9999975"/></g></svg>