<svg xmlns="http://www.w3.org/2000/svg" xmlns:osb="http://www.openswatchbook.org/uri/2009/osb" xmlns:svg="http://www.w3.org/2000/svg" xmlns:xlink="http://www.w3.org/1999/xlink" id="svg7384" width="16" height="16" version="1.1" viewBox="0 0 16 16"><metadata id="metadata90"/><defs id="defs7386"><linearGradient id="linearGradient8074" osb:paint="solid"><stop id="stop8072" offset="0" style="stop-color:#be00be;stop-opacity:1"/></linearGradient><linearGradient id="linearGradient7561" osb:paint="solid"><stop id="stop7558" offset="0" style="stop-color:#a5a5a5;stop-opacity:1"/></linearGradient><linearGradient id="linearGradient7548" osb:paint="solid"><stop id="stop7546" offset="0" style="stop-color:#ebebeb;stop-opacity:1"/></linearGradient><linearGradient id="linearGradient7542" osb:paint="solid"><stop id="stop7538" offset="0" style="stop-color:#c9c9c9;stop-opacity:1"/></linearGradient><linearGradient id="linearGradient19282" gradientTransform="matrix(0,-735328.32,170712.69,0,2464326300,577972450)" osb:paint="solid"><stop id="stop19284" offset="0" style="stop-color:#b4b4b4;stop-opacity:1"/></linearGradient><linearGradient id="linearGradient19282-4" gradientTransform="matrix(0.34682586,0,0,0.30620888,-73.35187,484.03851)" osb:paint="solid"><stop id="stop19284-0" offset="0" style="stop-color:#bebebe;stop-opacity:1"/></linearGradient><linearGradient id="linearGradient7114" x1="85" x2="88" y1="290" y2="290" gradientTransform="translate(322.73462,183.94869)" gradientUnits="userSpaceOnUse" xlink:href="#linearGradient19282-4"/><linearGradient id="linearGradient7121" x1="324.174" x2="334.174" y1="189.949" y2="189.949" gradientTransform="translate(322.73462,183.94869)" gradientUnits="userSpaceOnUse" xlink:href="#linearGradient19282-4"/><linearGradient id="linearGradient7127" x1="83" x2="94" y1="279" y2="279" gradientTransform="translate(322.73462,183.94869)" gradientUnits="userSpaceOnUse" xlink:href="#linearGradient19282-4"/></defs><g style="display:inline" id="tools" transform="translate(-32.10094,-248.47217)"><g id="gimp-tool-colorize" transform="translate(-48.89926,-28.52783)" style="display:inline"><rect style="fill:url(#linearGradient7127);fill-opacity:1;stroke:none" id="rect5063" width="11" height="4" x="83" y="277" rx="1" ry="1"/><path id="rect5065" d="m 331.17383,185.94922 c -0.554,0 -1,0.223 -1,0.5 0,0.277 0.446,0.5 1,0.5 l 2,0 0,3 -8,0 c -0.14106,0 -0.27501,0.0149 -0.39649,0.041 -0.0344,-0.0148 -0.0669,-0.041 -0.10351,-0.041 -0.11229,0 -0.20969,0.0869 -0.29297,0.21094 -0.12073,0.0826 -0.20703,0.17844 -0.20703,0.28906 0,0.0367 0.0262,0.0691 0.041,0.10351 -0.0261,0.12147 -0.041,0.25544 -0.041,0.39649 l 0,2 c 0,0.554 0.223,1 0.5,1 0.277,0 0.5,-0.446 0.5,-1 l 0,-2 8,0 c 0.14106,0 0.27501,-0.0149 0.39648,-0.041 0.0344,0.0148 0.0669,0.041 0.10352,0.041 0.11133,0 0.2081,-0.0868 0.29101,-0.20899 0.12215,-0.0829 0.20899,-0.17968 0.20899,-0.29101 0,-0.0367 -0.0262,-0.0691 -0.041,-0.10352 0.0264,-0.12198 0.041,-0.25467 0.041,-0.39648 l 0,-3 c 0,-0.14105 -0.0149,-0.27502 -0.041,-0.39649 0.0148,-0.0344 0.041,-0.0669 0.041,-0.10351 0,-0.11062 -0.0863,-0.20643 -0.20703,-0.28906 -0.0833,-0.12407 -0.18068,-0.21094 -0.29297,-0.21094 -0.0367,0 -0.0692,0.0262 -0.10352,0.041 -0.12147,-0.0261 -0.25542,-0.041 -0.39648,-0.041 z" transform="translate(-238.17338,93.051316)" style="fill:url(#linearGradient7121);fill-opacity:1;stroke:none"/><rect style="fill:url(#linearGradient7114);fill-opacity:1;stroke:none" id="rect5073" width="3" height="6" x="85" y="287" rx="1" ry="1"/></g></g></svg>