<svg xmlns="http://www.w3.org/2000/svg" xmlns:osb="http://www.openswatchbook.org/uri/2009/osb" xmlns:svg="http://www.w3.org/2000/svg" xmlns:xlink="http://www.w3.org/1999/xlink" id="svg7384" width="16" height="16" version="1.1" viewBox="0 0 16 16"><metadata id="metadata90"/><defs id="defs7386"><linearGradient id="linearGradient2235" osb:paint="solid"><stop id="stop2233" offset="0" style="stop-color:#ef7979;stop-opacity:1"/></linearGradient><linearGradient id="linearGradient2185" osb:paint="solid"><stop id="stop2183" offset="0" style="stop-color:#ef7979;stop-opacity:1"/></linearGradient><linearGradient id="linearGradient2160" osb:paint="solid"><stop id="stop2158" offset="0" style="stop-color:#ef7979;stop-opacity:1"/></linearGradient><linearGradient id="linearGradient2145" osb:paint="solid"><stop id="stop2143" offset="0" style="stop-color:#b4b4b4;stop-opacity:1"/></linearGradient><linearGradient id="linearGradient8074" osb:paint="solid"><stop style="stop-color:#be00be;stop-opacity:1" id="stop8072" offset="0"/></linearGradient><linearGradient id="linearGradient7561" osb:paint="solid"><stop style="stop-color:#a5a5a5;stop-opacity:1" id="stop7558" offset="0"/></linearGradient><linearGradient id="linearGradient7548" osb:paint="solid"><stop style="stop-color:#ebebeb;stop-opacity:1" id="stop7546" offset="0"/></linearGradient><linearGradient id="linearGradient7542" osb:paint="solid"><stop style="stop-color:#c9c9c9;stop-opacity:1" id="stop7538" offset="0"/></linearGradient><linearGradient id="linearGradient19282" gradientTransform="matrix(0,-735328.32,170712.69,0,2464326300,577972450)" osb:paint="solid"><stop style="stop-color:#b4b4b4;stop-opacity:1" id="stop19284" offset="0"/></linearGradient><linearGradient id="linearGradient19282-4" gradientTransform="matrix(0.34682586,0,0,0.30620888,-154.35207,-275.32368)" osb:paint="solid"><stop style="stop-color:#eeeeec;stop-opacity:1" id="stop19284-0" offset="0"/></linearGradient><linearGradient id="linearGradient6914" x1=".728" x2="12.752" y1="1045.198" y2="1045.198" gradientTransform="translate(345.02926,273.74255)" gradientUnits="userSpaceOnUse" xlink:href="#linearGradient19282"/><linearGradient id="linearGradient6920" x1="1.701" x2="9.701" y1="1046.343" y2="1046.343" gradientTransform="translate(345.02926,273.74255)" gradientUnits="userSpaceOnUse" xlink:href="#linearGradient19282"/><linearGradient id="linearGradient6926" x1="1048.362" x2="1050.362" y1="14.5" y2="14.5" gradientTransform="translate(273.74255,345.02926)" gradientUnits="userSpaceOnUse" xlink:href="#linearGradient19282"/><linearGradient id="linearGradient6932" x1="2" x2="4" y1="-1037.862" y2="-1037.862" gradientTransform="translate(345.02926,-273.74255)" gradientUnits="userSpaceOnUse" xlink:href="#linearGradient19282"/><linearGradient id="linearGradient2162" x1="2" x2="15" y1="7.5" y2="7.5" gradientUnits="userSpaceOnUse" xlink:href="#linearGradient19282"/><linearGradient id="linearGradient2168" x1="2" x2="15" y1="7.5" y2="7.5" gradientTransform="rotate(180,8,8)" gradientUnits="userSpaceOnUse" xlink:href="#linearGradient19282"/><linearGradient id="linearGradient2237" x1="17" x2="18" y1="13" y2="13" gradientTransform="translate(-3)" gradientUnits="userSpaceOnUse" xlink:href="#linearGradient19282"/><linearGradient id="linearGradient2250" x1="17" x2="18" y1="13" y2="13" gradientTransform="rotate(-90,4.5,14.5)" gradientUnits="userSpaceOnUse" xlink:href="#linearGradient19282"/></defs><g id="g2245"><g id="gimp-tool-crop"><path id="path2231" d="m 14,12 a 1,1 0 0 1 1,1 1,1 0 0 1 -1,1" style="opacity:1;fill:url(#linearGradient2237);fill-opacity:1;fill-rule:evenodd;stroke:none;stroke-width:22.6772;stop-color:#000"/><path style="opacity:1;fill:url(#linearGradient2168);fill-opacity:1;fill-rule:evenodd;stroke:none;stroke-width:22.6772;stop-color:#000" id="path2166" d="M 1.9980469,3 C 1.4457621,3 0.99804686,3.4477152 0.99804688,4 c 0,0.5522848 0.44771522,1 1.00000002,1 H 11 v 9 c 0.0011,0.551522 0.448477,1.000001 1,1 0.551523,10e-7 0.998923,-0.446525 1,-0.998047 V 4.0546875 C 13.015622,3.7709668 12.909805,3.4939972 12.708984,3.2929688 12.521479,3.1054233 12.267154,3.0000401 12.001953,3 c 0,0 -7.2144513,-0.00401 -10.0039061,0 z"/><path style="opacity:1;fill:url(#linearGradient2162);fill-opacity:1;fill-rule:evenodd;stroke:none;stroke-width:22.6772;stop-color:#000" id="path2217" d="m 2,6 v 7 c 4.01e-5,0.265201 0.1054233,0.519526 0.2929688,0.707031 C 2.4799954,13.894099 2.7335227,13.999443 2.9980469,14 H 10 V 12 H 4 V 6 Z"/><path style="opacity:1;fill:url(#linearGradient2250);fill-opacity:1;fill-rule:evenodd;stroke:none;stroke-width:22.6772;stop-color:#000" id="path2248" d="M 2,2 A 1,1 0 0 1 3,1 1,1 0 0 1 4,2"/></g></g></svg>