<svg xmlns="http://www.w3.org/2000/svg" xmlns:osb="http://www.openswatchbook.org/uri/2009/osb" xmlns:svg="http://www.w3.org/2000/svg" xmlns:xlink="http://www.w3.org/1999/xlink" id="svg7384" width="16" height="16" version="1.1" viewBox="0 0 16 16"><metadata id="metadata90"/><defs id="defs7386"><linearGradient id="linearGradient8074" osb:paint="solid"><stop id="stop8072" offset="0" style="stop-color:#be00be;stop-opacity:1"/></linearGradient><linearGradient id="linearGradient7561" osb:paint="solid"><stop id="stop7558" offset="0" style="stop-color:#a5a5a5;stop-opacity:1"/></linearGradient><linearGradient id="linearGradient7548" osb:paint="solid"><stop id="stop7546" offset="0" style="stop-color:#ebebeb;stop-opacity:1"/></linearGradient><linearGradient id="linearGradient7542" osb:paint="solid"><stop id="stop7538" offset="0" style="stop-color:#c9c9c9;stop-opacity:1"/></linearGradient><linearGradient id="linearGradient19282" gradientTransform="matrix(0,-735328.32,170712.69,0,2464326300,577972450)" osb:paint="solid"><stop id="stop19284" offset="0" style="stop-color:#b4b4b4;stop-opacity:1"/></linearGradient><linearGradient id="linearGradient19282-4" gradientTransform="matrix(0.34682586,0,0,0.30620888,6.604759,584.03851)" osb:paint="solid"><stop id="stop19284-0" offset="0" style="stop-color:#bebebe;stop-opacity:1"/></linearGradient><linearGradient id="linearGradient10432" x1="167.011" x2="177.02" y1="188.5" y2="188.5" gradientTransform="translate(180.29295,191.51971)" gradientUnits="userSpaceOnUse" xlink:href="#linearGradient19282-4"/><linearGradient id="linearGradient10438" x1="160.957" x2="168" y1="185" y2="185" gradientTransform="translate(180.29295,191.51971)" gradientUnits="userSpaceOnUse" xlink:href="#linearGradient19282-4"/></defs><g style="display:inline" id="tools" transform="translate(111.04498,-256.04319)"><g id="gimp-tool-ink" transform="matrix(0.99609384,0,0,1,-271.37309,79.04319)" style="display:inline"><path style="fill:url(#linearGradient10432);fill-opacity:1;stroke:none" id="rect18742" d="m 170.0002,184 c -0.554,0 -1,0.25455 -1,0.5625 l 0,0.875 c 0,0.30795 0.446,0.5625 1,0.5625 l -2,0 c -0.55161,0 -1.1024,0.53053 -0.96875,1.15625 l 0.96875,4.6875 c 0.13364,0.62572 0.44842,1.15625 1,1.15625 l 6,0 c 0.5516,0 0.86637,-0.53053 1,-1.15625 l 1,-4.6875 c 0.13364,-0.62572 -0.4484,-1.15625 -1,-1.15625 l -2,0 c 0.554,0 1,-0.25455 1,-0.5625 l 0,-0.875 c 0,-0.30795 -0.446,-0.5625 -1,-0.5625 z"/><path id="path23470" d="m 168.0002,177 c 0,0 -1.29469,0.17681 -2.66667,1 -3.33333,2 -4.33333,5.47931 -4.33333,7 -0.34375,4.09375 1.46875,5 1.46875,5 0.0937,2 0.53125,3 0.53125,3 1,-1 1,-1 1,-1 0,0 -1,-2.5 1,-3 -0.5,-5 -0.10417,-9 3,-12 z" style="fill:url(#linearGradient10438);fill-opacity:1;stroke:none"/></g></g></svg>