<svg xmlns="http://www.w3.org/2000/svg" xmlns:osb="http://www.openswatchbook.org/uri/2009/osb" xmlns:svg="http://www.w3.org/2000/svg" xmlns:xlink="http://www.w3.org/1999/xlink" id="svg7384" width="16" height="16" version="1.1" viewBox="0 0 16 16"><metadata id="metadata90"/><defs id="defs7386"><linearGradient id="linearGradient8074" osb:paint="solid"><stop id="stop8072" offset="0" style="stop-color:#be00be;stop-opacity:1"/></linearGradient><linearGradient id="linearGradient7561" osb:paint="solid"><stop id="stop7558" offset="0" style="stop-color:#a5a5a5;stop-opacity:1"/></linearGradient><linearGradient id="linearGradient7548" osb:paint="solid"><stop id="stop7546" offset="0" style="stop-color:#ebebeb;stop-opacity:1"/></linearGradient><linearGradient id="linearGradient7542" osb:paint="solid"><stop id="stop7538" offset="0" style="stop-color:#c9c9c9;stop-opacity:1"/></linearGradient><linearGradient id="linearGradient19282" gradientTransform="matrix(0,-735328.32,170712.69,0,2464326300,577972450)" osb:paint="solid"><stop id="stop19284" offset="0" style="stop-color:#b4b4b4;stop-opacity:1"/></linearGradient><linearGradient id="linearGradient19282-4" gradientTransform="matrix(0.34682586,0,0,0.30620888,-53.35187,162.03851)" osb:paint="solid"><stop id="stop19284-0" offset="0" style="stop-color:#bebebe;stop-opacity:1"/></linearGradient><linearGradient id="linearGradient7128" x1="101" x2="117" y1="608.109" y2="608.109" gradientTransform="translate(633.82833,152.78664)" gradientUnits="userSpaceOnUse" xlink:href="#linearGradient19282-4"/><linearGradient id="linearGradient7135" x1="107" x2="111" y1="605" y2="605" gradientTransform="translate(633.82833,152.78664)" gradientUnits="userSpaceOnUse" xlink:href="#linearGradient19282-4"/></defs><g style="display:inline" id="stock" transform="translate(-176.01718,14.2446)"><g id="gimp-controller-wheel" transform="translate(75.016984,-613.2446)" style="display:inline"><path style="fill:none;stroke:none" id="rect5916" d="m -140,382 16,0 0,16 -16,0 z" transform="translate(241.0002,217)"/><path style="fill:url(#linearGradient7128);fill-opacity:1;stroke:none" id="path6687" d="m 105.0002,603.21875 c -2.38792,1.5571 -4,4.45275 -4,7.78125 l 0,2 7,0 0,-3 -3,0 z m 8,0 0,6.78125 -3,0 0,3 7,0 0,-2 c 0,-3.3285 -1.61208,-6.22415 -4,-7.78125 z"/><rect style="fill:url(#linearGradient7135);fill-opacity:1;stroke:none" id="rect6693" width="4" height="8" x="107" y="601" rx="2" ry="2"/></g></g></svg>