<svg xmlns="http://www.w3.org/2000/svg" xmlns:osb="http://www.openswatchbook.org/uri/2009/osb" xmlns:svg="http://www.w3.org/2000/svg" xmlns:xlink="http://www.w3.org/1999/xlink" id="svg7384" width="22" height="22" version="1.1" viewBox="0 0 22 22"><metadata id="metadata90"/><defs id="defs7386"><linearGradient id="linearGradient8074" osb:paint="solid"><stop id="stop8072" offset="0" style="stop-color:#be00be;stop-opacity:1"/></linearGradient><linearGradient id="linearGradient7561" osb:paint="solid"><stop id="stop7558" offset="0" style="stop-color:#a5a5a5;stop-opacity:1"/></linearGradient><linearGradient id="linearGradient7548" osb:paint="solid"><stop id="stop7546" offset="0" style="stop-color:#ebebeb;stop-opacity:1"/></linearGradient><linearGradient id="linearGradient7542" osb:paint="solid"><stop id="stop7538" offset="0" style="stop-color:#c9c9c9;stop-opacity:1"/></linearGradient><linearGradient id="linearGradient19282" gradientTransform="matrix(0,-735328.32,170712.69,0,2464326300,577972450)" osb:paint="solid"><stop id="stop19284" offset="0" style="stop-color:#b4b4b4;stop-opacity:1"/></linearGradient><linearGradient id="linearGradient19282-4" gradientTransform="matrix(0.34682586,0,0,0.30620888,-154.35207,-275.32368)" osb:paint="solid"><stop id="stop19284-0" offset="0" style="stop-color:#bebebe;stop-opacity:1"/></linearGradient><linearGradient id="linearGradient7501" x1="-21" x2="-9" y1="1047.362" y2="1047.362" gradientTransform="translate(-875.0512,125.79252)" gradientUnits="userSpaceOnUse" xlink:href="#linearGradient19282-4"/><linearGradient id="linearGradient7503" x1="-21" x2="-9" y1="1041.362" y2="1041.362" gradientTransform="translate(-875.0512,125.79252)" gradientUnits="userSpaceOnUse" xlink:href="#linearGradient19282-4"/><linearGradient id="linearGradient7505" x1="-21" x2="-9" y1="1035.362" y2="1035.362" gradientTransform="translate(-875.0512,125.79252)" gradientUnits="userSpaceOnUse" xlink:href="#linearGradient19282-4"/><linearGradient id="linearGradient7520" x1="872.49" x2="878.475" y1="136.804" y2="136.804" gradientTransform="translate(875.0512,125.79252)" gradientUnits="userSpaceOnUse" xlink:href="#linearGradient19282-4"/><linearGradient id="linearGradient7528" x1="874.227" x2="894.227" y1="111.881" y2="111.881" gradientUnits="userSpaceOnUse" xlink:href="#linearGradient19282-4"/><linearGradient id="linearGradient7540" x1="1" x2="9" y1="1037.862" y2="1037.862" gradientUnits="userSpaceOnUse" xlink:href="#linearGradient19282-4"/><linearGradient id="linearGradient7534" x1="13" x2="21" y1="1037.362" y2="1037.362" gradientUnits="userSpaceOnUse" xlink:href="#linearGradient19282-4"/></defs><g style="display:inline" id="gimp-letter-spacing-22" transform="translate(-5.6701663e-7,-1030.3622)"><g id="g18493-9-8-0" transform="matrix(-0.88888889,0,0,0.66666667,303.49778,609.02886)" style="display:inline;fill:#505050"><path style="color:#000;font-size:medium;line-height:normal;font-family:Sans;-inkscape-font-specification:Sans;text-indent:0;text-align:start;text-decoration:none;text-decoration-line:none;letter-spacing:normal;word-spacing:normal;text-transform:none;writing-mode:lr-tb;direction:ltr;baseline-shift:baseline;text-anchor:start;display:inline;overflow:visible;fill:url(#linearGradient7528);fill-opacity:1;stroke-width:.76980036;enable-background:accumulate" id="path18497-9-8-1" d="m 878.39062,107.88086 c -0.25688,0 -0.4579,0.0983 -0.62304,0.28516 l -3.54102,3.71484 c 1.17431,1.0658 2.35753,2.63589 3.54102,3.71289 0.16514,0.1977 0.36616,0.28711 0.62304,0.28711 h 0.48633 0.34961 v -1 c 0,-0.2527 -0.10185,-0.52794 -0.25781,-0.71484 l -1.26367,-1.28516 h 13.04101 l -1.26367,1.28516 c -0.15596,0.1869 -0.25586,0.46214 -0.25586,0.71484 v 1 h 0.34766 0.48633 c 0.25688,0 0.45791,-0.0894 0.62304,-0.28711 1.18349,-1.077 2.36866,-2.64709 3.54297,-3.71289 l -3.54297,-3.71484 c -0.16513,-0.1869 -0.36616,-0.28516 -0.62304,-0.28516 h -0.48633 l -0.34766,0.0215 v 1 c 0,0.2528 0.10907,0.52815 0.25586,0.71485 l 1.24414,1.26367 h -13.00195 l 1.24414,-1.26367 c 0.14679,-0.1867 0.25781,-0.46205 0.25781,-0.71485 v -1 l -0.34961,-0.0215 z" transform="matrix(-1.125,0,0,1.5,1323.8139,489.67995)"/></g><path id="path18616-0-4-7-3" d="m 2.7800907,1034.2571 h 3.5499605 c 0.9362534,0 1.7749804,0.8927 1.7749804,1.805 v 5.4051 H 3.6578282 c -2.3211281,0 -2.379644,-3.6099 0,-3.6099 h 4.4472034" style="color:#000;display:inline;overflow:visible;fill:none;stroke:url(#linearGradient7540);stroke-width:1.7899369;stroke-miterlimit:4;stroke-opacity:1;enable-background:accumulate"/><path id="path18618-3-4-3-9" d="m 13.898993,1032.3622 v 9.101 h 4.659364 c 2.027507,0 2.085992,-4.5555 0,-4.5555 h -4.659364" style="color:#000;display:inline;overflow:visible;fill:none;stroke:url(#linearGradient7534);stroke-width:1.7979852;stroke-miterlimit:4;stroke-opacity:1;enable-background:accumulate"/></g></svg>