<svg xmlns="http://www.w3.org/2000/svg" xmlns:osb="http://www.openswatchbook.org/uri/2009/osb" xmlns:svg="http://www.w3.org/2000/svg" xmlns:xlink="http://www.w3.org/1999/xlink" id="svg7384" width="16" height="16" version="1.1" viewBox="0 0 16 16"><metadata id="metadata90"/><defs id="defs7386"><linearGradient id="linearGradient8074" osb:paint="solid"><stop id="stop8072" offset="0" style="stop-color:#be00be;stop-opacity:1"/></linearGradient><linearGradient id="linearGradient7561" osb:paint="solid"><stop id="stop7558" offset="0" style="stop-color:#a5a5a5;stop-opacity:1"/></linearGradient><linearGradient id="linearGradient7548" osb:paint="solid"><stop id="stop7546" offset="0" style="stop-color:#ebebeb;stop-opacity:1"/></linearGradient><linearGradient id="linearGradient7542" osb:paint="solid"><stop id="stop7538" offset="0" style="stop-color:#c9c9c9;stop-opacity:1"/></linearGradient><linearGradient id="linearGradient19282" gradientTransform="matrix(0,-735328.32,170712.69,0,2464326300,577972450)" osb:paint="solid"><stop id="stop19284" offset="0" style="stop-color:#b4b4b4;stop-opacity:1"/></linearGradient><linearGradient id="linearGradient19282-4" gradientTransform="matrix(0.34682586,0,0,0.30620888,6.6481284,162.03851)" osb:paint="solid"><stop id="stop19284-0" offset="0" style="stop-color:#bebebe;stop-opacity:1"/></linearGradient><linearGradient id="linearGradient7608" x1="162" x2="176" y1="612.5" y2="612.5" gradientTransform="translate(517.78512,283.03651)" gradientUnits="userSpaceOnUse" xlink:href="#linearGradient19282-4"/><linearGradient id="linearGradient7612" x1="162" x2="176" y1="605" y2="605" gradientTransform="translate(517.78512,283.03651)" gradientUnits="userSpaceOnUse" xlink:href="#linearGradient19282-4"/><linearGradient id="linearGradient7614" x1="163" x2="175" y1="605.5" y2="605.5" gradientTransform="translate(517.78512,283.03651)" gradientUnits="userSpaceOnUse" xlink:href="#linearGradient19282-4"/></defs><g style="display:inline" id="stock" transform="translate(-59.973969,-116.00527)"><g id="gimp-histogram-linear" transform="translate(-101.02623,-482.99473)" style="display:inline"><path style="fill:url(#linearGradient7608);fill-opacity:1;stroke:none" id="rect5422-9" d="m 162.0002,611 0,2 0,1 14,0 0,-1 0,-2 -1,0 0,2 -6,0 0,-2 -1,0 0,2 -5,0 0,-2 z"/><path style="fill:url(#linearGradient7612);fill-opacity:1;stroke:none" id="rect5444-3" d="m 162.0002,601 0,8 14,0 0,-8 z m 1,1 12,0 0,6 -12,0 z"/><path style="fill:url(#linearGradient7614);fill-opacity:1;stroke:none" id="path5449-8" d="m 163.0002,608 0.625,-0.53125 0.375,-0.46875 1,0 0,0 1,-4 1,0 1,2 c 0,0 0,0 1,0 l 1,1 1,1 0,0 1,-1 0,-1 0,0 0,0 0,0 1,1 1,1 0,0 1,0.40625 0,0.59375 z"/></g></g></svg>