<svg xmlns="http://www.w3.org/2000/svg" xmlns:osb="http://www.openswatchbook.org/uri/2009/osb" xmlns:svg="http://www.w3.org/2000/svg" xmlns:xlink="http://www.w3.org/1999/xlink" id="svg7384" width="16" height="16" version="1.1" viewBox="0 0 16 16"><metadata id="metadata90"/><defs id="defs7386"><linearGradient id="linearGradient8074" osb:paint="solid"><stop id="stop8072" offset="0" style="stop-color:#be00be;stop-opacity:1"/></linearGradient><linearGradient id="linearGradient7561" osb:paint="solid"><stop id="stop7558" offset="0" style="stop-color:#a5a5a5;stop-opacity:1"/></linearGradient><linearGradient id="linearGradient7548" osb:paint="solid"><stop id="stop7546" offset="0" style="stop-color:#ebebeb;stop-opacity:1"/></linearGradient><linearGradient id="linearGradient7542" osb:paint="solid"><stop id="stop7538" offset="0" style="stop-color:#c9c9c9;stop-opacity:1"/></linearGradient><linearGradient id="linearGradient19282" gradientTransform="matrix(0,-735328.32,170712.69,0,2464326300,577972450)" osb:paint="solid"><stop id="stop19284" offset="0" style="stop-color:#b4b4b4;stop-opacity:1"/></linearGradient><linearGradient id="linearGradient19282-4" gradientTransform="matrix(0.34682586,0,0,0.30620888,-113.35187,402.03851)" osb:paint="solid"><stop id="stop19284-0" offset="0" style="stop-color:#bebebe;stop-opacity:1"/></linearGradient><linearGradient id="linearGradient7188" x1="481.023" x2="492.023" y1="115.277" y2="115.277" gradientTransform="translate(482.5837,107.27724)" gradientUnits="userSpaceOnUse" xlink:href="#linearGradient19282-4"/></defs><g style="display:inline" id="stock" transform="translate(-24.772549,59.754)"><g id="gimp-rotate-180" transform="translate(-16.22765,-418.75387)" style="display:inline"><path id="path15820" d="m 485.52344,107.27734 c -0.17107,0 -0.33226,0.0183 -0.5,0.0312 l 0,2.03125 c 0.16677,-0.0187 0.32822,-0.0625 0.5,-0.0625 2.48528,0 4.5,2.01472 4.5,4.5 0,2.48528 -2.01472,4.5 -4.5,4.5 -0.17178,0 -0.33323,-0.0438 -0.5,-0.0625 l 0,-2.9375 -4,4 4,4 0,-3.03125 c 0.16774,0.013 0.32893,0.0312 0.5,0.0312 3.58985,0 6.5,-2.91014 6.5,-6.5 0,-3.58986 -2.91015,-6.5 -6.5,-6.5 z" transform="translate(-438.02246,251.72263)" style="fill:url(#linearGradient7188);fill-opacity:1;stroke:none"/></g></g></svg>