<svg xmlns="http://www.w3.org/2000/svg" xmlns:osb="http://www.openswatchbook.org/uri/2009/osb" xmlns:svg="http://www.w3.org/2000/svg" xmlns:xlink="http://www.w3.org/1999/xlink" id="svg7384" width="16.001" height="16" version="1.1" viewBox="0 0 16.001 16"><metadata id="metadata90"/><defs id="defs7386"><linearGradient id="linearGradient8074" osb:paint="solid"><stop id="stop8072" offset="0" style="stop-color:#be00be;stop-opacity:1"/></linearGradient><linearGradient id="linearGradient19282-4" gradientTransform="matrix(0.34682586,0,0,0.30620888,-154.35207,761.03852)" osb:paint="solid"><stop id="stop19284-0" offset="0" style="stop-color:#bebebe;stop-opacity:1"/></linearGradient><linearGradient id="linearGradient8060" x1="-37.692" x2="-21.687" y1="-.146" y2="-.146" gradientTransform="translate(602.39408,418.45008)" gradientUnits="userSpaceOnUse" xlink:href="#linearGradient19282-4"/><linearGradient id="linearGradient8062" x1="0" x2="16.18" y1="11.709" y2="11.709" gradientTransform="translate(608.58941,422.75363)" gradientUnits="userSpaceOnUse" xlink:href="#linearGradient19282-4"/><linearGradient id="linearGradient8068" x1="-37.692" x2="-21.687" y1="-.146" y2="-.146" gradientTransform="translate(602.39408,418.45008)" gradientUnits="userSpaceOnUse" xlink:href="#linearGradient19282-4"/><linearGradient id="linearGradient8070" x1="0" x2="16.18" y1="11.709" y2="11.709" gradientTransform="translate(608.58941,422.75363)" gradientUnits="userSpaceOnUse" xlink:href="#linearGradient19282-4"/><linearGradient id="linearGradient8076" x1="3.5" x2="6.5" y1="6.25" y2="6.25" gradientTransform="translate(601.34518,422.76856)" gradientUnits="userSpaceOnUse" xlink:href="#linearGradient8074"/><linearGradient id="linearGradient8078" x1="3.5" x2="6.5" y1="9.5" y2="9.5" gradientTransform="translate(601.34518,422.76856)" gradientUnits="userSpaceOnUse" xlink:href="#linearGradient8074"/><linearGradient id="linearGradient8080" x1="6.5" x2="9.5" y1="11.5" y2="11.5" gradientTransform="translate(601.34518,422.76856)" gradientUnits="userSpaceOnUse" xlink:href="#linearGradient8074"/><linearGradient id="linearGradient8082" x1="6.5" x2="9.5" y1="8" y2="8" gradientTransform="translate(601.34518,422.76856)" gradientUnits="userSpaceOnUse" xlink:href="#linearGradient8074"/><linearGradient id="linearGradient8084" x1="9.5" x2="12.5" y1="9.5" y2="9.5" gradientTransform="translate(601.34518,422.76856)" gradientUnits="userSpaceOnUse" xlink:href="#linearGradient8074"/><linearGradient id="linearGradient8086" x1="9.5" x2="12.5" y1="6.25" y2="6.25" gradientTransform="translate(601.34518,422.76856)" gradientUnits="userSpaceOnUse" xlink:href="#linearGradient8074"/><linearGradient id="linearGradient8088" x1="6.5" x2="9.5" y1="4.5" y2="4.5" gradientTransform="translate(601.34518,422.76856)" gradientUnits="userSpaceOnUse" xlink:href="#linearGradient8074"/><linearGradient id="linearGradient8094" x1="3.466" x2="6.534" y1="6.25" y2="6.25" gradientTransform="translate(601.34518,422.76856)" gradientUnits="userSpaceOnUse" xlink:href="#linearGradient19282-4"/><linearGradient id="linearGradient8096" x1="3.466" x2="6.534" y1="9.5" y2="9.5" gradientTransform="translate(601.34518,422.76856)" gradientUnits="userSpaceOnUse" xlink:href="#linearGradient19282-4"/><linearGradient id="linearGradient8098" x1="6.466" x2="9.534" y1="11.5" y2="11.5" gradientTransform="translate(601.34518,422.76856)" gradientUnits="userSpaceOnUse" xlink:href="#linearGradient19282-4"/><linearGradient id="linearGradient8100" x1="6.466" x2="9.534" y1="8" y2="8" gradientTransform="translate(601.34518,422.76856)" gradientUnits="userSpaceOnUse" xlink:href="#linearGradient19282-4"/><linearGradient id="linearGradient8102" x1="9.466" x2="12.534" y1="9.5" y2="9.5" gradientTransform="translate(601.34518,422.76856)" gradientUnits="userSpaceOnUse" xlink:href="#linearGradient19282-4"/><linearGradient id="linearGradient8104" x1="9.466" x2="12.534" y1="6.25" y2="6.25" gradientTransform="translate(601.34518,422.76856)" gradientUnits="userSpaceOnUse" xlink:href="#linearGradient19282-4"/><linearGradient id="linearGradient8106" x1="6.466" x2="9.534" y1="4.5" y2="4.5" gradientTransform="translate(601.34518,422.76856)" gradientUnits="userSpaceOnUse" xlink:href="#linearGradient19282-4"/></defs><g style="display:inline" id="stock" transform="translate(-143.53403,-255.73732)"><g id="gimp-convert-indexed" transform="translate(143.53403,255.73734)"><g id="g3988" transform="matrix(0.99825878,0,0,1.0103202,37.649785,-1042.6369)"><path style="opacity:1;fill:url(#linearGradient8062);fill-opacity:1;stroke:url(#linearGradient8070);stroke-width:.92452389;stroke-miterlimit:4;stroke-dasharray:none;stroke-opacity:1" id="path3938" d="m 15.717085,7.9199219 -1.851851,0.00781 C 13.8598,11.070934 11.239612,13.486478 8.0963737,13.499515 4.953023,13.513495 2.4658804,11.119717 2.4335938,7.9765625 l -1.96679692,0.00781 C 0.50379698,12.179127 3.9014945,15.517405 8.0963737,15.499444 12.290375,15.480694 15.715571,12.113963 15.717085,7.9199219 Z" transform="matrix(0.98982019,0,0,0.98982019,-37.715456,1031.9866)"/><path id="path3938-8" d="m -29.65625,-3.9179688 c -4.15312,-0.017645 -7.539055,3.32550704 -7.574219,7.4785157 l 1.955078,0.00781 c 0.09858,-3.0593611 2.512899,-5.4802286 5.573889,-5.4695019 3.061221,0.015377 5.654745,2.45798074 5.726893,5.51833 l 1.830078,0.00781 c 3.24e-4,-4.1538122 -3.403193,-7.4887895 -7.556971,-7.5057104 z" transform="translate(0,1036.3622)" style="opacity:.3;fill:url(#linearGradient8060);fill-opacity:1;stroke:url(#linearGradient8068);stroke-width:.91511244;stroke-miterlimit:4;stroke-dasharray:none;stroke-opacity:1"/></g><path style="opacity:.3;fill:url(#linearGradient8106);fill-opacity:1;stroke:url(#linearGradient8088);stroke-width:.06870588;stroke-miterlimit:4;stroke-dasharray:none;stroke-opacity:1" id="path4054-3" d="M 9.5,4.5 A 1.5,1.5 0 0 1 8.0068264,5.9999845 1.5,1.5 0 0 1 6.5000621,4.5136527 1.5,1.5 0 0 1 7.9795214,3.0001398 1.5,1.5 0 0 1 9.4997515,4.4726958"/><path style="opacity:.4;fill:url(#linearGradient8104);fill-opacity:1;stroke:url(#linearGradient8086);stroke-width:.06870588;stroke-miterlimit:4;stroke-dasharray:none;stroke-opacity:1" id="path4054-1-3" d="M 12.5,6.25 A 1.5,1.5 0 0 1 11.006826,7.7499845 1.5,1.5 0 0 1 9.5000621,6.2636527 1.5,1.5 0 0 1 10.979521,4.7501398 a 1.5,1.5 0 0 1 1.52023,1.472556"/><path style="opacity:.5;fill:url(#linearGradient8102);fill-opacity:1;stroke:url(#linearGradient8084);stroke-width:.06870588;stroke-miterlimit:4;stroke-dasharray:none;stroke-opacity:1" id="path4054-1-9-0" d="m 12.5,9.5 a 1.5,1.5 0 0 1 -1.493174,1.499984 1.5,1.5 0 0 1 -1.5067639,-1.4863313 1.5,1.5 0 0 1 1.4794589,-1.5135129 1.5,1.5 0 0 1 1.52023,1.472556"/><path style="opacity:.8;fill:url(#linearGradient8094);fill-opacity:1;stroke:url(#linearGradient8076);stroke-width:.06870588;stroke-miterlimit:4;stroke-dasharray:none;stroke-opacity:1" id="path4054-7-5" d="M 6.5,6.25 A 1.5,1.5 0 0 1 5.0068264,7.7499845 1.5,1.5 0 0 1 3.5000621,6.2636527 1.5,1.5 0 0 1 4.9795214,4.7501398 1.5,1.5 0 0 1 6.4997515,6.2226958"/><path style="opacity:.7;fill:url(#linearGradient8096);fill-opacity:1;stroke:url(#linearGradient8078);stroke-width:.06870588;stroke-miterlimit:4;stroke-dasharray:none;stroke-opacity:1" id="path4054-7-4-8" d="M 6.5,9.5 A 1.5,1.5 0 0 1 5.0068264,10.999984 1.5,1.5 0 0 1 3.5000621,9.5136527 1.5,1.5 0 0 1 4.9795214,8.0001398 1.5,1.5 0 0 1 6.4997515,9.4726958"/><path style="opacity:.6;fill:url(#linearGradient8098);fill-opacity:1;stroke:url(#linearGradient8080);stroke-width:.06870588;stroke-miterlimit:4;stroke-dasharray:none;stroke-opacity:1" id="path4054-7-4-3-4" d="M 9.5,11.5 A 1.5,1.5 0 0 1 8.0068264,12.999984 1.5,1.5 0 0 1 6.5000621,11.513653 1.5,1.5 0 0 1 7.9795214,10.00014 1.5,1.5 0 0 1 9.4997515,11.472696"/><path style="opacity:1;fill:url(#linearGradient8100);fill-opacity:1;stroke:url(#linearGradient8082);stroke-width:.06870588;stroke-miterlimit:4;stroke-dasharray:none;stroke-opacity:1" id="path4054-5-8" d="M 9.5,8 A 1.5,1.5 0 0 1 8.0068264,9.4999845 1.5,1.5 0 0 1 6.5000621,8.0136527 1.5,1.5 0 0 1 7.9795214,6.5001398 1.5,1.5 0 0 1 9.4997515,7.9726958"/></g></g></svg>