<svg xmlns="http://www.w3.org/2000/svg" xmlns:osb="http://www.openswatchbook.org/uri/2009/osb" xmlns:svg="http://www.w3.org/2000/svg" xmlns:xlink="http://www.w3.org/1999/xlink" id="svg7384" width="16" height="16" version="1.1" viewBox="0 0 16 16"><metadata id="metadata90"/><defs id="defs7386"><linearGradient id="linearGradient8074" osb:paint="solid"><stop id="stop8072" offset="0" style="stop-color:#be00be;stop-opacity:1"/></linearGradient><linearGradient id="linearGradient7561" osb:paint="solid"><stop id="stop7558" offset="0" style="stop-color:#a5a5a5;stop-opacity:1"/></linearGradient><linearGradient id="linearGradient7548" osb:paint="solid"><stop id="stop7546" offset="0" style="stop-color:#ebebeb;stop-opacity:1"/></linearGradient><linearGradient id="linearGradient7542" osb:paint="solid"><stop id="stop7538" offset="0" style="stop-color:#c9c9c9;stop-opacity:1"/></linearGradient><linearGradient id="linearGradient19282" gradientTransform="matrix(0,-735328.32,170712.69,0,2464326300,577972450)" osb:paint="solid"><stop id="stop19284" offset="0" style="stop-color:#b4b4b4;stop-opacity:1"/></linearGradient><linearGradient id="linearGradient19282-4" gradientTransform="matrix(0.34682586,0,0,0.30620888,-139.35207,801.03851)" osb:paint="solid"><stop id="stop19284-0" offset="0" style="stop-color:#bebebe;stop-opacity:1"/></linearGradient><linearGradient id="linearGradient8340" x1="0" x2="16" y1="8" y2="8" gradientTransform="translate(898.1551,422.06734)" gradientUnits="userSpaceOnUse" xlink:href="#linearGradient19282-4"/></defs><g style="display:inline" id="preferences" transform="translate(-284.83449,-264.06734)"><g id="gimp-prefs-folders-tool-plug-ins" transform="translate(269.83449,304.06734)" style="display:inline"><path id="rect3845-5" d="M 0.53125,0 C 0.24212,0 0,0.24212 0,0.53125 l 0,14.9375 C 0,15.76725 0.23264,16 0.53125,16 l 14.9375,0 C 15.76735,16 16,15.76735 16,15.46875 l 0,-9.9375 C 16,5.24215 15.75788,5 15.46875,5 L 3,5 3,13.5 C 3,13.777 2.777,14 2.5,14 2.223,14 2,13.777 2,13.5 l 0,-9 C 2,4.223 2.223,4 2.5,4 L 5.46875,4 14,4 14,2.59375 C 14,2.26655 13.73334,2 13.40625,2 L 6,2 6,0.53125 C 6,0.2421 5.75788,0 5.46875,0 Z m 8.59375,5.9433594 3.53125,0 c 1.101472,0 1.582031,0.8546275 1.582031,1.6601562 l 0,7.3398434 -5.113281,0 z m 0.8574219,0.8574218 0,0.4121094 c 0.00885,-0.0011 0.014286,-0.00977 0.023437,-0.00977 l 1.392579,0 c 0.118736,0 0.214843,0.094153 0.214843,0.2128906 0,0.1187375 -0.09611,0.2148438 -0.214843,0.2148438 l -1.392579,0 c -0.00915,0 -0.014591,-0.00866 -0.023437,-0.00977 l 0,0.4609374 c 0.018241,-0.00502 0.030902,-0.021484 0.050781,-0.021484 l 0.507813,0 c 0.118737,0 0.214843,0.094153 0.214843,0.2128906 0,0.1187375 -0.09611,0.2148437 -0.214843,0.2148437 l -0.507813,0 c -0.01988,0 -0.03254,-0.016466 -0.050781,-0.021484 l 0,0.4726562 c 0.018241,-0.00502 0.030902,-0.021484 0.050781,-0.021484 l 0.507813,0 c 0.118737,0 0.214843,0.094153 0.214843,0.2128906 0,0.1187374 -0.09611,0.2148437 -0.214843,0.2148437 l -0.507813,0 c -0.01988,0 -0.03254,-0.016466 -0.050781,-0.021484 l 0,0.4726638 c 0.018241,-0.00502 0.030902,-0.021484 0.050781,-0.021484 l 0.507813,0 c 0.118737,0 0.214843,0.094153 0.214843,0.2128906 0,0.1187374 -0.09611,0.2148434 -0.214843,0.2148434 l -0.507813,0 c -0.01988,0 -0.03254,-0.01647 -0.050781,-0.02148 l 0,0.458984 c 0.00881,-0.0011 0.014326,-0.0098 0.023437,-0.0098 l 1.392579,0 c 0.118736,0 0.214843,0.09611 0.214843,0.214844 0,0.118738 -0.09611,0.214844 -0.214843,0.214844 l -1.392579,0 c -0.00915,0 -0.014591,-0.0087 -0.023437,-0.0098 l 0,0.458985 c 0.018241,-0.005 0.030902,-0.02149 0.050781,-0.02149 l 0.507813,0 c 0.118737,0 0.214843,0.09611 0.214843,0.214844 0,0.118737 -0.09611,0.214844 -0.214843,0.214844 l -0.507813,0 c -0.01988,0 -0.03254,-0.01647 -0.050781,-0.02149 l 0,0.470704 c 0.018241,-0.005 0.030902,-0.02149 0.050781,-0.02149 l 0.507813,0 c 0.118737,0 0.214843,0.09611 0.214843,0.214844 0,0.118737 -0.09611,0.214844 -0.214843,0.214844 l -0.507813,0 c -0.01988,0 -0.03254,-0.01647 -0.050781,-0.02149 l 0,0.470703 c 0.018241,-0.005 0.030902,-0.02148 0.050781,-0.02148 l 0.507813,0 c 0.118737,0 0.214843,0.09611 0.214843,0.214844 0,0.118737 -0.09611,0.214844 -0.214843,0.214843 l -0.507813,0 c -0.01988,0 -0.03254,-0.01647 -0.050781,-0.02148 l 0,0.462891 3.4023441,0 0,-6.4432836 c 0,-0.4830086 -0.214734,-0.830078 -0.777344,-0.8300782 z" transform="translate(15,-40)" style="display:inline;fill:url(#linearGradient8340);fill-opacity:1;stroke:none"/></g></g></svg>