<svg xmlns="http://www.w3.org/2000/svg" xmlns:osb="http://www.openswatchbook.org/uri/2009/osb" xmlns:svg="http://www.w3.org/2000/svg" xmlns:xlink="http://www.w3.org/1999/xlink" id="svg7384" width="16" height="16" version="1.1" viewBox="0 0 16 16"><metadata id="metadata90"/><defs id="defs7386"><linearGradient id="linearGradient8074" osb:paint="solid"><stop id="stop8072" offset="0" style="stop-color:#be00be;stop-opacity:1"/></linearGradient><linearGradient id="linearGradient7561" osb:paint="solid"><stop id="stop7558" offset="0" style="stop-color:#a5a5a5;stop-opacity:1"/></linearGradient><linearGradient id="linearGradient7548" osb:paint="solid"><stop id="stop7546" offset="0" style="stop-color:#ebebeb;stop-opacity:1"/></linearGradient><linearGradient id="linearGradient7542" osb:paint="solid"><stop id="stop7538" offset="0" style="stop-color:#c9c9c9;stop-opacity:1"/></linearGradient><linearGradient id="linearGradient19282" gradientTransform="matrix(0,-735328.32,170712.69,0,2464326300,577972450)" osb:paint="solid"><stop id="stop19284" offset="0" style="stop-color:#b4b4b4;stop-opacity:1"/></linearGradient><linearGradient id="linearGradient19282-4" gradientTransform="matrix(0.34682586,0,0,0.30620888,-154.35207,-276.13618)" osb:paint="solid"><stop id="stop19284-0" offset="0" style="stop-color:#bebebe;stop-opacity:1"/></linearGradient><linearGradient id="linearGradient7583" x1="1" x2="15" y1="1045.175" y2="1045.175" gradientTransform="translate(615.92882,297.46741)" gradientUnits="userSpaceOnUse" xlink:href="#linearGradient19282-4"/><linearGradient id="linearGradient7585" x1="-13.453" x2="-2.422" y1="1045.112" y2="1045.112" gradientTransform="translate(-615.92882,297.46741)" gradientUnits="userSpaceOnUse" xlink:href="#linearGradient19282-4"/><linearGradient id="linearGradient7591" x1="-13.453" x2="-2.422" y1="1045.112" y2="1045.112" gradientTransform="translate(-615.92882,297.46741)" gradientUnits="userSpaceOnUse" xlink:href="#linearGradient19282-4"/></defs><g style="display:inline" id="stock" transform="translate(-158.11767,-130.43617)"><g id="gimp-gradient-spiral-clockwise" transform="translate(158.11767,-906.73851)"><path style="fill:url(#linearGradient7583);fill-opacity:1;stroke:none" id="rect6886-15" d="m 1,1038.1747 0,14 14,0 0,-14 z m 1,1 12,0 0,12 -12,0 z"/><path id="path3942-8" d="m -8.3014259,1045.4761 c 0.1393202,0.1703 -0.1607985,0.2718 -0.2830168,0.2315 -0.3312039,-0.109 -0.3422698,-0.5484 -0.180102,-0.7976 0.2900801,-0.4457 0.9267946,-0.4377 1.312169,-0.1286 0.5655523,0.4536 0.536579,1.3105 0.077187,1.8267 -0.6122968,0.6881 -1.696223,0.637 -2.3413213,0.026 -0.81179,-0.7692 -0.738063,-2.0829 0.025727,-2.8559 0.9250532,-0.9363 2.4699474,-0.8397 3.3704735,0.077 1.0612389,1.0804 0.9415146,2.8574 -0.1286419,3.885 -1.2355381,1.1865 -3.2450628,1.0436 -4.3996266,-0.1801 -1.311888,-1.3904 -1.14576,-3.6329 0.231557,-4.9142 1.5451423,-1.4374 4.0208123,-1.248 5.4287785,0.283 1.5631093,1.6998 1.3504034,4.4088 -0.3344713,5.9434 -1.8543141,1.6888 -4.7969042,1.4528 -6.4579312,-0.386 -1.814646,-2.0088 -1.555271,-5.185 0.437386,-6.9725 2.1632437,-1.9405 5.5732046,-1.6577 7.4870834,0.4889 2.0663772,2.3176 1.7602799,5.9614 -0.5403006,8.0016" transform="scale(-1,1)" style="opacity:1;fill:url(#linearGradient7585);fill-opacity:1;fill-rule:evenodd;stroke:url(#linearGradient7591);stroke-width:.50046957;stroke-linecap:butt;stroke-linejoin:miter;stroke-miterlimit:4;stroke-dasharray:none;stroke-opacity:1"/></g></g></svg>