<svg xmlns="http://www.w3.org/2000/svg" xmlns:osb="http://www.openswatchbook.org/uri/2009/osb" xmlns:svg="http://www.w3.org/2000/svg" xmlns:xlink="http://www.w3.org/1999/xlink" id="svg7384" width="16" height="16" version="1.1" viewBox="0 0 16 16"><metadata id="metadata90"/><defs id="defs7386"><linearGradient id="linearGradient19282-4" gradientTransform="matrix(0.34682586,0,0,0.30620888,-53.351872,142.03851)" osb:paint="solid"><stop id="stop19284-0" offset="0" style="stop-color:#bebebe;stop-opacity:1"/></linearGradient><linearGradient id="linearGradient7936" x1="116" x2="117" y1="621.5" y2="621.5" gradientTransform="translate(483.80735,218.02718)" gradientUnits="userSpaceOnUse" xlink:href="#linearGradient19282-4"/><linearGradient id="linearGradient7938" x1="623" x2="624" y1="-116.5" y2="-116.5" gradientTransform="translate(218.02718,-483.80735)" gradientUnits="userSpaceOnUse" xlink:href="#linearGradient19282-4"/><linearGradient id="linearGradient7940" x1="625" x2="626" y1="-116.5" y2="-116.5" gradientTransform="translate(218.02718,-483.80735)" gradientUnits="userSpaceOnUse" xlink:href="#linearGradient19282-4"/><linearGradient id="linearGradient7944" x1="627" x2="628" y1="-116.5" y2="-116.5" gradientTransform="translate(218.02718,-483.80735)" gradientUnits="userSpaceOnUse" xlink:href="#linearGradient19282-4"/><linearGradient id="linearGradient7946" x1="629" x2="630" y1="-116.5" y2="-116.5" gradientTransform="translate(218.02718,-483.80735)" gradientUnits="userSpaceOnUse" xlink:href="#linearGradient19282-4"/><linearGradient id="linearGradient7950" x1="631" x2="632" y1="-116.5" y2="-116.5" gradientTransform="translate(218.02718,-483.80735)" gradientUnits="userSpaceOnUse" xlink:href="#linearGradient19282-4"/><linearGradient id="linearGradient7952" x1="115" x2="116" y1="633.5" y2="633.5" gradientTransform="translate(483.80735,218.02718)" gradientUnits="userSpaceOnUse" xlink:href="#linearGradient19282-4"/><linearGradient id="linearGradient7956" x1="113" x2="114" y1="633.5" y2="633.5" gradientTransform="translate(483.80735,218.02718)" gradientUnits="userSpaceOnUse" xlink:href="#linearGradient19282-4"/><linearGradient id="linearGradient7958" x1="111" x2="112" y1="633.5" y2="633.5" gradientTransform="translate(483.80735,218.02718)" gradientUnits="userSpaceOnUse" xlink:href="#linearGradient19282-4"/><linearGradient id="linearGradient7962" x1="109" x2="110" y1="633.5" y2="633.5" gradientTransform="translate(483.80735,218.02718)" gradientUnits="userSpaceOnUse" xlink:href="#linearGradient19282-4"/><linearGradient id="linearGradient7964" x1="107" x2="108" y1="633.5" y2="633.5" gradientTransform="translate(483.80735,218.02718)" gradientUnits="userSpaceOnUse" xlink:href="#linearGradient19282-4"/><linearGradient id="linearGradient7967" x1="105" x2="106" y1="633.5" y2="633.5" gradientTransform="translate(483.80735,218.02718)" gradientUnits="userSpaceOnUse" xlink:href="#linearGradient19282-4"/><linearGradient id="linearGradient7970" x1="103" x2="104" y1="633.5" y2="633.5" gradientTransform="translate(483.80735,218.02718)" gradientUnits="userSpaceOnUse" xlink:href="#linearGradient19282-4"/><linearGradient id="linearGradient7973" x1="633" x2="634" y1="-101.5" y2="-101.5" gradientTransform="translate(218.02718,-483.80735)" gradientUnits="userSpaceOnUse" xlink:href="#linearGradient19282-4"/><linearGradient id="linearGradient7976" x1="631" x2="632" y1="-101.5" y2="-101.5" gradientTransform="translate(218.02718,-483.80735)" gradientUnits="userSpaceOnUse" xlink:href="#linearGradient19282-4"/><linearGradient id="linearGradient7979" x1="629" x2="630" y1="-101.5" y2="-101.5" gradientTransform="translate(218.02718,-483.80735)" gradientUnits="userSpaceOnUse" xlink:href="#linearGradient19282-4"/><linearGradient id="linearGradient7982" x1="627" x2="628" y1="-101.5" y2="-101.5" gradientTransform="translate(218.02718,-483.80735)" gradientUnits="userSpaceOnUse" xlink:href="#linearGradient19282-4"/><linearGradient id="linearGradient7986" x1="625" x2="626" y1="-101.5" y2="-101.5" gradientTransform="translate(218.02718,-483.80735)" gradientUnits="userSpaceOnUse" xlink:href="#linearGradient19282-4"/><linearGradient id="linearGradient7988" x1="623" x2="624" y1="-101.5" y2="-101.5" gradientTransform="translate(218.02718,-483.80735)" gradientUnits="userSpaceOnUse" xlink:href="#linearGradient19282-4"/><linearGradient id="linearGradient7991" x1="621" x2="622" y1="-101.5" y2="-101.5" gradientTransform="translate(218.02718,-483.80735)" gradientUnits="userSpaceOnUse" xlink:href="#linearGradient19282-4"/><linearGradient id="linearGradient7994" x1="-140" x2="-139" y1="402.5" y2="402.5" gradientTransform="translate(483.80735,218.02718)" gradientUnits="userSpaceOnUse" xlink:href="#linearGradient19282-4"/><linearGradient id="linearGradient7997" x1="-138" x2="-137" y1="402.5" y2="402.5" gradientTransform="translate(483.80735,218.02718)" gradientUnits="userSpaceOnUse" xlink:href="#linearGradient19282-4"/><linearGradient id="linearGradient8000" x1="105" x2="106" y1="619.5" y2="619.5" gradientTransform="translate(483.80735,218.02718)" gradientUnits="userSpaceOnUse" xlink:href="#linearGradient19282-4"/><linearGradient id="linearGradient8003" x1="107" x2="108" y1="619.5" y2="619.5" gradientTransform="translate(483.80735,218.02718)" gradientUnits="userSpaceOnUse" xlink:href="#linearGradient19282-4"/><linearGradient id="linearGradient8006" x1="109" x2="110" y1="619.5" y2="619.5" gradientTransform="translate(483.80735,218.02718)" gradientUnits="userSpaceOnUse" xlink:href="#linearGradient19282-4"/><linearGradient id="linearGradient8011" x1="111" x2="112" y1="619.5" y2="619.5" gradientTransform="translate(483.80735,218.02718)" gradientUnits="userSpaceOnUse" xlink:href="#linearGradient19282-4"/><linearGradient id="linearGradient8013" x1="113" x2="114" y1="619.5" y2="619.5" gradientTransform="translate(483.80735,218.02718)" gradientUnits="userSpaceOnUse" xlink:href="#linearGradient19282-4"/><linearGradient id="linearGradient8019" x1="115" x2="116" y1="619.5" y2="619.5" gradientTransform="translate(483.80735,218.02718)" gradientUnits="userSpaceOnUse" xlink:href="#linearGradient19282-4"/><linearGradient id="linearGradient8021" x1="107" x2="111" y1="622" y2="622" gradientTransform="translate(483.80735,218.02718)" gradientUnits="userSpaceOnUse" xlink:href="#linearGradient19282-4"/><linearGradient id="linearGradient8024" x1="103" x2="115" y1="627" y2="627" gradientTransform="translate(483.80735,218.02718)" gradientUnits="userSpaceOnUse" xlink:href="#linearGradient19282-4"/><linearGradient id="linearGradient8028" x1="105" x2="113" y1="627" y2="627" gradientTransform="translate(483.80735,218.02718)" gradientUnits="userSpaceOnUse" xlink:href="#linearGradient19282-4"/></defs><g style="display:inline" id="stock" transform="translate(-25.996201,-50.99594)"><g id="gimp-paste-into" transform="translate(-75.003998,-568.00406)" style="display:inline"><path id="path6897" d="m 105.0002,624 0,6 6,0 2,-2 0,-4 z" style="fill:url(#linearGradient8028);fill-opacity:1;stroke:none"/><rect id="rect6903" width="4" height="2" x="107" y="621" rx="1" ry="1" style="fill:url(#linearGradient8021);fill-opacity:1;stroke:none"/><path style="fill:url(#linearGradient8024);fill-opacity:1;stroke:none" id="rect6907" d="m 103.53145,622 c -0.2938,0 -0.53125,0.23745 -0.53125,0.53125 l 0,8.9375 c 0,0.2938 0.23745,0.53125 0.53125,0.53125 l 10.9375,0 c 0.2938,0 0.53125,-0.23745 0.53125,-0.53125 l 0,-8.9375 c 0,-0.2938 -0.23825,-0.50955 -0.53125,-0.53125 l -2.46875,0 0,1 1.46875,0 c 0.2938,0 0.53125,0.23745 0.53125,0.53125 l 0,6.9375 c 0,0.2938 -0.23745,0.53125 -0.53125,0.53125 l -8.9375,0 c -0.2938,0 -0.53125,-0.23745 -0.53125,-0.53125 l 0,-6.9375 c 0,-0.2938 0.23745,-0.53125 0.53125,-0.53125 l 1.46875,0 0,-1 z"/><rect style="fill:url(#linearGradient7994);fill-opacity:1;stroke:none" id="rect6913" width="1" height="1" x="-140" y="402" rx=".53" ry=".53" transform="translate(241.0002,217)"/><rect style="fill:url(#linearGradient7997);fill-opacity:1;stroke:none" id="rect6915" width="1" height="1" x="-138" y="402" rx=".53" ry=".53" transform="translate(241.0002,217)"/><rect id="rect6917" width="1" height="1" x="105" y="619" rx=".53" ry=".53" style="fill:url(#linearGradient8000);fill-opacity:1;stroke:none"/><rect id="rect6919" width="1" height="1" x="107" y="619" rx=".53" ry=".53" style="fill:url(#linearGradient8003);fill-opacity:1;stroke:none"/><rect id="rect6921" width="1" height="1" x="109" y="619" rx=".53" ry=".53" style="fill:url(#linearGradient8006);fill-opacity:1;stroke:none"/><rect style="fill:url(#linearGradient8011);fill-opacity:1;stroke:none" id="rect6923" width="1" height="1" x="111" y="619" rx=".53" ry=".53"/><rect style="fill:url(#linearGradient8013);fill-opacity:1;stroke:none" id="rect6925" width="1" height="1" x="113" y="619" rx=".53" ry=".53"/><rect style="fill:url(#linearGradient8019);fill-opacity:1;stroke:none" id="rect6927" width="1" height="1" x="115" y="619" rx=".53" ry=".53"/><rect id="rect6929" width="1" height="1" x="116" y="621" rx=".53" ry=".53" style="fill:url(#linearGradient7936);fill-opacity:1;stroke:none"/><rect id="rect6931" width="1" height="1" x="633" y="-102" rx=".53" ry=".53" transform="matrix(0,1,-1,0,0,0)" style="fill:url(#linearGradient7973);fill-opacity:1;stroke:none"/><rect id="rect6933" width="1" height="1" x="631" y="-102" rx=".53" ry=".53" transform="matrix(0,1,-1,0,0,0)" style="fill:url(#linearGradient7976);fill-opacity:1;stroke:none"/><rect style="fill:url(#linearGradient7979);fill-opacity:1;stroke:none" id="rect6935" width="1" height="1" x="629" y="-102" rx=".53" ry=".53" transform="matrix(0,1,-1,0,0,0)"/><rect style="fill:url(#linearGradient7982);fill-opacity:1;stroke:none" id="rect6937" width="1" height="1" x="627" y="-102" rx=".53" ry=".53" transform="matrix(0,1,-1,0,0,0)"/><rect style="fill:url(#linearGradient7986);fill-opacity:1;stroke:none" id="rect6939" width="1" height="1" x="625" y="-102" rx=".53" ry=".53" transform="matrix(0,1,-1,0,0,0)"/><rect id="rect6941" width="1" height="1" x="623" y="-102" rx=".53" ry=".53" transform="matrix(0,1,-1,0,0,0)" style="fill:url(#linearGradient7988);fill-opacity:1;stroke:none"/><rect id="rect6943" width="1" height="1" x="621" y="-102" rx=".53" ry=".53" transform="matrix(0,1,-1,0,0,0)" style="fill:url(#linearGradient7991);fill-opacity:1;stroke:none"/><rect id="rect6945" width="1" height="1" x="103" y="633" rx=".53" ry=".53" style="fill:url(#linearGradient7970);fill-opacity:1;stroke:none"/><rect style="fill:url(#linearGradient7967);fill-opacity:1;stroke:none" id="rect6947" width="1" height="1" x="105" y="633" rx=".53" ry=".53"/><rect style="fill:url(#linearGradient7964);fill-opacity:1;stroke:none" id="rect6949" width="1" height="1" x="107" y="633" rx=".53" ry=".53"/><rect style="fill:url(#linearGradient7962);fill-opacity:1;stroke:none" id="rect6951" width="1" height="1" x="109" y="633" rx=".53" ry=".53"/><rect id="rect6953" width="1" height="1" x="111" y="633" rx=".53" ry=".53" style="fill:url(#linearGradient7958);fill-opacity:1;stroke:none"/><rect style="fill:url(#linearGradient7956);fill-opacity:1;stroke:none" id="rect6955" width="1" height="1" x="113" y="633" rx=".53" ry=".53"/><rect id="rect6957" width="1" height="1" x="115" y="633" rx=".53" ry=".53" style="fill:url(#linearGradient7952);fill-opacity:1;stroke:none"/><rect id="rect6961" width="1" height="1" x="631" y="-117" rx=".53" ry=".53" transform="matrix(0,1,-1,0,0,0)" style="fill:url(#linearGradient7950);fill-opacity:1;stroke:none"/><rect id="rect6963" width="1" height="1" x="629" y="-117" rx=".53" ry=".53" transform="matrix(0,1,-1,0,0,0)" style="fill:url(#linearGradient7946);fill-opacity:1;stroke:none"/><rect id="rect6965" width="1" height="1" x="627" y="-117" rx=".53" ry=".53" transform="matrix(0,1,-1,0,0,0)" style="fill:url(#linearGradient7944);fill-opacity:1;stroke:none"/><rect style="fill:url(#linearGradient7940);fill-opacity:1;stroke:none" id="rect6967" width="1" height="1" x="625" y="-117" rx=".53" ry=".53" transform="matrix(0,1,-1,0,0,0)"/><rect style="fill:url(#linearGradient7938);fill-opacity:1;stroke:none" id="rect6969" width="1" height="1" x="623" y="-117" rx=".53" ry=".53" transform="matrix(0,1,-1,0,0,0)"/></g></g></svg>