<svg xmlns="http://www.w3.org/2000/svg" xmlns:osb="http://www.openswatchbook.org/uri/2009/osb" xmlns:svg="http://www.w3.org/2000/svg" xmlns:xlink="http://www.w3.org/1999/xlink" id="svg7384" width="16" height="16" version="1.1" viewBox="0 0 16 16"><metadata id="metadata90"/><defs id="defs7386"><linearGradient id="linearGradient8074" osb:paint="solid"><stop id="stop8072" offset="0" style="stop-color:#be00be;stop-opacity:1"/></linearGradient><linearGradient id="linearGradient7561" osb:paint="solid"><stop id="stop7558" offset="0" style="stop-color:#a5a5a5;stop-opacity:1"/></linearGradient><linearGradient id="linearGradient7548" osb:paint="solid"><stop id="stop7546" offset="0" style="stop-color:#ebebeb;stop-opacity:1"/></linearGradient><linearGradient id="linearGradient7542" osb:paint="solid"><stop id="stop7538" offset="0" style="stop-color:#c9c9c9;stop-opacity:1"/></linearGradient><linearGradient id="linearGradient19282" gradientTransform="matrix(0,-735328.32,170712.69,0,2464326300,577972450)" osb:paint="solid"><stop id="stop19284" offset="0" style="stop-color:#b4b4b4;stop-opacity:1"/></linearGradient><linearGradient id="linearGradient19282-4" gradientTransform="matrix(0.34682586,0,0,0.30620888,-79.35207,801.03851)" osb:paint="solid"><stop id="stop19284-0" offset="0" style="stop-color:#bebebe;stop-opacity:1"/></linearGradient><linearGradient id="linearGradient8322" x1="75" x2="91" y1="-32" y2="-32" gradientTransform="translate(854.81685,399.52469)" gradientUnits="userSpaceOnUse" xlink:href="#linearGradient19282-4"/><linearGradient id="linearGradient7385" x1="86" x2="87" y1="28.5" y2="28.5" gradientTransform="translate(854.81685,-399.52469)" gradientUnits="userSpaceOnUse" xlink:href="#linearGradient19282-4"/><linearGradient id="linearGradient7389" x1="85" x2="86" y1="29.5" y2="29.5" gradientTransform="translate(854.81685,-399.52469)" gradientUnits="userSpaceOnUse" xlink:href="#linearGradient19282-4"/><linearGradient id="linearGradient7392" x1="85" x2="86" y1="31.5" y2="31.5" gradientTransform="translate(854.81685,-399.52469)" gradientUnits="userSpaceOnUse" xlink:href="#linearGradient19282-4"/><linearGradient id="linearGradient7395" x1="86" x2="87" y1="30.5" y2="30.5" gradientTransform="translate(854.81685,-399.52469)" gradientUnits="userSpaceOnUse" xlink:href="#linearGradient19282-4"/><linearGradient id="linearGradient7398" x1="87" x2="88" y1="-31.5" y2="-31.5" gradientTransform="translate(854.81685,399.52469)" gradientUnits="userSpaceOnUse" xlink:href="#linearGradient19282-4"/><linearGradient id="linearGradient7400" x1="87" x2="88" y1="-29.5" y2="-29.5" gradientTransform="translate(854.81685,399.52469)" gradientUnits="userSpaceOnUse" xlink:href="#linearGradient19282-4"/><linearGradient id="linearGradient7402" x1="88" x2="89" y1="-30" y2="-30" gradientTransform="translate(854.81685,399.52469)" gradientUnits="userSpaceOnUse" xlink:href="#linearGradient19282-4"/><linearGradient id="linearGradient7408" x1="80" x2="81" y1="-29.5" y2="-29.5" gradientTransform="translate(854.81685,399.52469)" gradientUnits="userSpaceOnUse" xlink:href="#linearGradient19282-4"/><linearGradient id="linearGradient7410" x1="80" x2="81" y1="-31.5" y2="-31.5" gradientTransform="translate(854.81685,399.52469)" gradientUnits="userSpaceOnUse" xlink:href="#linearGradient19282-4"/><linearGradient id="linearGradient7412" x1="81" x2="82" y1="-30.5" y2="-30.5" gradientTransform="translate(854.81685,399.52469)" gradientUnits="userSpaceOnUse" xlink:href="#linearGradient19282-4"/><linearGradient id="linearGradient7414" x1="81" x2="82" y1="-28.5" y2="-28.5" gradientTransform="translate(854.81685,399.52469)" gradientUnits="userSpaceOnUse" xlink:href="#linearGradient19282-4"/><linearGradient id="linearGradient7416" x1="82" x2="85" y1="-30" y2="-30" gradientTransform="translate(854.81685,399.52469)" gradientUnits="userSpaceOnUse" xlink:href="#linearGradient19282-4"/></defs><g style="display:inline" id="preferences" transform="translate(-241.49624,-241.52469)"><g id="gimp-prefs-folders-gradients" transform="translate(166.49624,281.52469)"><path style="display:inline;fill:url(#linearGradient8322);fill-opacity:1;stroke:none" id="path28491" d="M 75.53125,-40 C 75.24212,-40 75,-39.75788 75,-39.46875 l 0,14.9375 C 75,-24.23275 75.23264,-24 75.53125,-24 l 14.9375,0 C 90.76735,-24 91,-24.23265 91,-24.53125 l 0,-9.9375 C 91,-34.75785 90.75788,-35 90.46875,-35 L 78,-35 l 0,8.5 c 0,0.277 -0.223,0.5 -0.5,0.5 -0.277,0 -0.5,-0.223 -0.5,-0.5 l 0,-9 c 0,-0.277 0.223,-0.5 0.5,-0.5 l 2.96875,0 8.53125,0 0,-1.40625 C 89,-37.73345 88.73334,-38 88.40625,-38 L 81,-38 81,-39.46875 C 81,-39.7579 80.75788,-40 80.46875,-40 Z M 79,-33 l 11,0 0,6 -11,0 z"/><rect style="opacity:.3;fill:url(#linearGradient7416);fill-opacity:1;stroke:none" id="rect5201-2" width="3" height="4" x="82" y="-32"/><rect style="opacity:.3;fill:url(#linearGradient7412);fill-opacity:1;stroke:none" id="rect5203-1" width="1" height="1" x="81" y="-31"/><rect style="opacity:.3;fill:url(#linearGradient7414);fill-opacity:1;stroke:none" id="rect5205-2" width="1" height="1" x="81" y="-29"/><rect style="fill:url(#linearGradient7402);fill-opacity:1;stroke:none" id="rect5211-0" width="1" height="4" x="88" y="-32"/><rect style="fill:url(#linearGradient7400);fill-opacity:1;stroke:none" id="rect5213-2" width="1" height="1" x="87" y="-30"/><rect id="rect5217-9" width="1" height="1" x="87" y="-32" style="fill:url(#linearGradient7398);fill-opacity:1;stroke:none"/><rect id="rect5219-6" width="1" height="1" x="80" y="-30" style="opacity:.3;fill:url(#linearGradient7408);fill-opacity:1;stroke:none"/><rect id="rect5221-0" width="1" height="1" x="80" y="-32" style="opacity:.3;fill:url(#linearGradient7410);fill-opacity:1;stroke:none"/><rect id="rect5223-8" width="1" height="1" x="86" y="28" transform="scale(1,-1)" style="fill:url(#linearGradient7385);fill-opacity:1;stroke:none"/><rect style="fill:url(#linearGradient7395);fill-opacity:1;stroke:none" id="rect5225-7" width="1" height="1" x="86" y="30" transform="scale(1,-1)"/><rect id="rect5227-6" width="1" height="1" x="85" y="31" transform="scale(1,-1)" style="fill:url(#linearGradient7392);fill-opacity:1;stroke:none"/><rect style="fill:url(#linearGradient7389);fill-opacity:1;stroke:none" id="rect5229-4" width="1" height="1" x="85" y="29" transform="scale(1,-1)"/></g></g></svg>