<svg xmlns="http://www.w3.org/2000/svg" xmlns:osb="http://www.openswatchbook.org/uri/2009/osb" xmlns:svg="http://www.w3.org/2000/svg" xmlns:xlink="http://www.w3.org/1999/xlink" id="svg7384" width="16" height="16" version="1.1" viewBox="0 0 16 16"><metadata id="metadata90"/><defs id="defs7386"><linearGradient id="linearGradient8074" osb:paint="solid"><stop id="stop8072" offset="0" style="stop-color:#be00be;stop-opacity:1"/></linearGradient><linearGradient id="linearGradient7561" osb:paint="solid"><stop id="stop7558" offset="0" style="stop-color:#a5a5a5;stop-opacity:1"/></linearGradient><linearGradient id="linearGradient7548" osb:paint="solid"><stop id="stop7546" offset="0" style="stop-color:#ebebeb;stop-opacity:1"/></linearGradient><linearGradient id="linearGradient7542" osb:paint="solid"><stop id="stop7538" offset="0" style="stop-color:#c9c9c9;stop-opacity:1"/></linearGradient><linearGradient id="linearGradient19282" gradientTransform="matrix(0,-735328.32,170712.69,0,2464326300,577972450)" osb:paint="solid"><stop id="stop19284" offset="0" style="stop-color:#b4b4b4;stop-opacity:1"/></linearGradient><linearGradient id="linearGradient19282-4" gradientTransform="matrix(0.34682586,0,0,0.30620888,26.648128,242.03851)" osb:paint="solid"><stop id="stop19284-0" offset="0" style="stop-color:#bebebe;stop-opacity:1"/></linearGradient><linearGradient id="linearGradient7150" x1="188" x2="190" y1="-533" y2="-533" gradientTransform="translate(425.38333,-106.66711)" gradientUnits="userSpaceOnUse" xlink:href="#linearGradient19282-4"/><linearGradient id="linearGradient7152" x1="526" x2="528" y1="-183" y2="-183" gradientTransform="translate(106.66711,-425.38333)" gradientUnits="userSpaceOnUse" xlink:href="#linearGradient19282-4"/><linearGradient id="linearGradient7154" x1="188" x2="190" y1="521" y2="521" gradientTransform="translate(425.38333,106.66711)" gradientUnits="userSpaceOnUse" xlink:href="#linearGradient19282-4"/><linearGradient id="linearGradient7156" x1="-57" x2="-47" y1="310" y2="310" gradientTransform="translate(425.38333,106.66711)" gradientUnits="userSpaceOnUse" xlink:href="#linearGradient19282-4"/><linearGradient id="linearGradient7158" x1="526" x2="528" y1="195" y2="195" gradientTransform="translate(106.66711,425.38333)" gradientUnits="userSpaceOnUse" xlink:href="#linearGradient19282-4"/><linearGradient id="linearGradient7164" x1="192" x2="196" y1="534.5" y2="534.5" gradientTransform="translate(425.38333,106.66711)" gradientUnits="userSpaceOnUse" xlink:href="#linearGradient19282-4"/><linearGradient id="linearGradient7166" x1="192" x2="195" y1="532.5" y2="532.5" gradientTransform="translate(425.38333,106.66711)" gradientUnits="userSpaceOnUse" xlink:href="#linearGradient19282-4"/></defs><g style="display:inline" id="stock" transform="translate(32.427822,60.36413)"><g id="gimp-sample-point" transform="translate(-213.42802,-579.36413)" style="display:inline"><rect style="fill:url(#linearGradient7154);fill-opacity:1;stroke:none" id="rect28130" width="2" height="4" x="188" y="519" rx="1" ry="1"/><rect id="rect28132" width="2" height="4" x="188" y="-535" rx="1" ry="1" transform="scale(1,-1)" style="fill:url(#linearGradient7150);fill-opacity:1;stroke:none"/><rect id="rect28134" width="2" height="4" x="526" y="-185" rx="1" ry="1" transform="matrix(0,1,-1,0,0,0)" style="fill:url(#linearGradient7152);fill-opacity:1;stroke:none"/><rect style="fill:url(#linearGradient7158);fill-opacity:1;stroke:none" id="rect28136" width="2" height="4" x="526" y="193" rx="1" ry="1" transform="matrix(0,1,1,0,0,0)"/><path style="fill:url(#linearGradient7156);fill-opacity:1;stroke:none" id="path28141" d="m -52,305 c -2.761424,0 -5,2.23858 -5,5 0,2.76142 2.238576,5 5,5 0.345178,0 0.674512,-0.0272 1,-0.0937 l 0,-2.09375 c -0.316472,0.11352 -0.644467,0.1875 -1,0.1875 -1.656854,0 -3,-1.34315 -3,-3 0,-1.65685 1.343146,-3 3,-3 1.656854,0 3,1.34315 3,3 0,0.35553 -0.07398,0.68353 -0.1875,1 l 2.09375,0 c 0.0666,-0.32549 0.09375,-0.65482 0.09375,-1 0,-2.76142 -2.238576,-5 -5,-5 z" transform="translate(241.0002,217)"/><path style="fill:url(#linearGradient7166);fill-opacity:1;stroke:none" id="path28149" d="m 192.0002,531 0,-1 3,0 0,5 -2,0 0,-4 0,0 z"/><rect style="fill:url(#linearGradient7164);fill-opacity:1;stroke:none" id="rect28151" width="4" height="1" x="192" y="534" rx="1" ry="1"/></g></g></svg>