<svg xmlns="http://www.w3.org/2000/svg" xmlns:osb="http://www.openswatchbook.org/uri/2009/osb" xmlns:svg="http://www.w3.org/2000/svg" xmlns:xlink="http://www.w3.org/1999/xlink" id="svg7384" width="16" height="16.002" version="1.1" viewBox="0 0 16 16.002"><metadata id="metadata90"/><defs id="defs7386"><linearGradient id="linearGradient8074" osb:paint="solid"><stop id="stop8072" offset="0" style="stop-color:#be00be;stop-opacity:1"/></linearGradient><linearGradient id="linearGradient7561" osb:paint="solid"><stop id="stop7558" offset="0" style="stop-color:#a5a5a5;stop-opacity:1"/></linearGradient><linearGradient id="linearGradient7548" osb:paint="solid"><stop id="stop7546" offset="0" style="stop-color:#ebebeb;stop-opacity:1"/></linearGradient><linearGradient id="linearGradient7542" osb:paint="solid"><stop id="stop7538" offset="0" style="stop-color:#c9c9c9;stop-opacity:1"/></linearGradient><linearGradient id="linearGradient19282" gradientTransform="matrix(0,-735328.32,170712.69,0,2464326300,577972450)" osb:paint="solid"><stop id="stop19284" offset="0" style="stop-color:#b4b4b4;stop-opacity:1"/></linearGradient><linearGradient id="linearGradient19282-4" gradientTransform="matrix(0.34682586,0,0,0.30620888,-154.35207,-275.32445)" osb:paint="solid"><stop id="stop19284-0" offset="0" style="stop-color:#bebebe;stop-opacity:1"/></linearGradient><linearGradient id="linearGradient7544" x1="1040.362" x2="1043.362" y1="-11.5" y2="-11.5" gradientTransform="translate(253.01626,-577.79601)" gradientUnits="userSpaceOnUse" xlink:href="#linearGradient7542"/><linearGradient id="linearGradient7550" x1="1043.362" x2="1045.362" y1="-11.5" y2="-11.5" gradientTransform="translate(253.01626,-577.79601)" gradientUnits="userSpaceOnUse" xlink:href="#linearGradient7548"/><linearGradient id="linearGradient7556" x1="0" x2="16" y1="1044.362" y2="1044.362" gradientTransform="translate(577.79601,253.01626)" gradientUnits="userSpaceOnUse" xlink:href="#linearGradient19282-4"/><linearGradient id="linearGradient7563" x1="1040.362" x2="1043.362" y1="-4.5" y2="-4.5" gradientTransform="translate(253.01626,-577.79601)" gradientUnits="userSpaceOnUse" xlink:href="#linearGradient7561"/></defs><g style="display:inline" id="stock" transform="translate(-119.98486,-85.985021)"><g id="gimp-display-filter-colorblind" transform="translate(119.98486,-950.37641)"><rect style="fill:#5d5d5d;fill-opacity:1;stroke:none;stroke-width:1.18442702;stroke-miterlimit:4;stroke-dasharray:none;stroke-opacity:1" id="rect3975-3" width="3" height="7" x="1048.362" y="-8" transform="matrix(0,1,-1,0,0,0)"/><rect style="fill:#7a7a7a;fill-opacity:1;stroke:none;stroke-width:1.18442702;stroke-miterlimit:4;stroke-dasharray:none;stroke-opacity:1" id="rect3975-5-02" width="3" height="7" x="1037.362" y="-8" transform="matrix(0,1,-1,0,0,0)"/><rect style="fill:url(#linearGradient7563);fill-opacity:1;stroke:none;stroke-width:1.18442702;stroke-miterlimit:4;stroke-dasharray:none;stroke-opacity:1" id="rect3975-1-9" width="3" height="7" x="1040.362" y="-8" transform="matrix(0,1,-1,0,0,0)"/><rect style="fill:#f8f8f8;fill-opacity:1;stroke:none;stroke-width:.96708065;stroke-miterlimit:4;stroke-dasharray:none;stroke-opacity:1" id="rect3975-2-1" width="2" height="7" x="1043.362" y="-8" transform="matrix(0,1,-1,0,0,0)"/><rect style="fill:#696969;fill-opacity:1;stroke:none;stroke-width:1.18442702;stroke-miterlimit:4;stroke-dasharray:none;stroke-opacity:1" id="rect3975-50-7" width="3" height="7" x="1045.362" y="-8" transform="matrix(0,1,-1,0,0,0)"/><rect style="fill:#828282;fill-opacity:1;stroke:none;stroke-width:1.18442702;stroke-miterlimit:4;stroke-dasharray:none;stroke-opacity:1" id="rect3975-23-5" width="3" height="7" x="1048.362" y="-15" transform="matrix(0,1,-1,0,0,0)"/><rect style="fill:#959595;fill-opacity:1;stroke:none;stroke-width:1.18442702;stroke-miterlimit:4;stroke-dasharray:none;stroke-opacity:1" id="rect3975-5-4-5" width="3" height="7" x="1037.362" y="-15" transform="matrix(0,1,-1,0,0,0)"/><rect style="fill:url(#linearGradient7544);fill-opacity:1;stroke:none;stroke-width:1.18442702;stroke-miterlimit:4;stroke-dasharray:none;stroke-opacity:1" id="rect3975-1-1-6" width="3" height="7" x="1040.362" y="-15" transform="matrix(0,1,-1,0,0,0)"/><rect style="fill:url(#linearGradient7550);fill-opacity:1;stroke:none;stroke-width:.96708065;stroke-miterlimit:4;stroke-dasharray:none;stroke-opacity:1" id="rect3975-2-4-5" width="2" height="7" x="1043.362" y="-15" transform="matrix(0,1,-1,0,0,0)"/><rect style="fill:#aaa;fill-opacity:1;stroke:none;stroke-width:1.18442702;stroke-miterlimit:4;stroke-dasharray:none;stroke-opacity:1" id="rect3975-50-4-3" width="3" height="7" x="1045.362" y="-15" transform="matrix(0,1,-1,0,0,0)"/><path style="fill:url(#linearGradient7556);fill-opacity:1;stroke:none" id="rect28283-2-03" d="m 1,1036.3622 c -0.65445,0 -1,-0.065 -1,1 l 0,14 c 0,1.0646 0.34555,1 1,1 l 7,0 7,0 c 0.633474,0 0.967335,0.016 1,-1 l 0,0 0,-7 0,-7 0,0 c -0.03266,-1.0157 -0.366526,-1 -1,-1 l -7,0 z m 2,1 5,0 5,0 c 0.65445,0 2,1.1354 2,2.2 l 0,9.6 c 0,1.0646 -1.34555,2.2 -2,2.2 l -5,0 -5,0 c -0.65445,0 -2,-1.4354 -2,-2.5 l 0,-9 c 0,-1.0646 1.3502118,-2.578 2,-2.5 z"/></g></g></svg>