<svg xmlns="http://www.w3.org/2000/svg" xmlns:osb="http://www.openswatchbook.org/uri/2009/osb" xmlns:svg="http://www.w3.org/2000/svg" xmlns:xlink="http://www.w3.org/1999/xlink" id="svg7384" width="16" height="16.002" version="1.1" viewBox="0 0 16 16.002"><metadata id="metadata90"/><defs id="defs7386"><linearGradient id="linearGradient8074" osb:paint="solid"><stop id="stop8072" offset="0" style="stop-color:#be00be;stop-opacity:1"/></linearGradient><linearGradient id="linearGradient7561" osb:paint="solid"><stop id="stop7558" offset="0" style="stop-color:#a5a5a5;stop-opacity:1"/></linearGradient><linearGradient id="linearGradient7548" osb:paint="solid"><stop id="stop7546" offset="0" style="stop-color:#ebebeb;stop-opacity:1"/></linearGradient><linearGradient id="linearGradient7542" osb:paint="solid"><stop id="stop7538" offset="0" style="stop-color:#c9c9c9;stop-opacity:1"/></linearGradient><linearGradient id="linearGradient19282" gradientTransform="matrix(0,-735328.32,170712.69,0,2464326300,577972450)" osb:paint="solid"><stop id="stop19284" offset="0" style="stop-color:#b4b4b4;stop-opacity:1"/></linearGradient><linearGradient id="linearGradient19282-4" gradientTransform="matrix(0.34682586,0,0,0.30620888,-154.35207,-275.32445)" osb:paint="solid"><stop id="stop19284-0" offset="0" style="stop-color:#bebebe;stop-opacity:1"/></linearGradient><linearGradient id="linearGradient7569" x1="0" x2="16" y1="1044.362" y2="1044.362" gradientTransform="translate(598.76729,252.99405)" gradientUnits="userSpaceOnUse" xlink:href="#linearGradient19282-4"/><linearGradient id="linearGradient7575" x1="12" x2="15" y1="1044.362" y2="1044.362" gradientTransform="translate(598.76729,252.99405)" gradientUnits="userSpaceOnUse" xlink:href="#linearGradient19282-4"/><linearGradient id="linearGradient7581" x1="9" x2="12" y1="1044.362" y2="1044.362" gradientTransform="translate(598.76729,252.99405)" gradientUnits="userSpaceOnUse" xlink:href="#linearGradient19282-4"/><linearGradient id="linearGradient7589" x1="6" x2="9" y1="1044.362" y2="1044.362" gradientTransform="translate(598.76729,252.99405)" gradientUnits="userSpaceOnUse" xlink:href="#linearGradient19282-4"/><linearGradient id="linearGradient7595" x1="3" x2="6" y1="1044.362" y2="1044.362" gradientTransform="translate(598.76729,252.99405)" gradientUnits="userSpaceOnUse" xlink:href="#linearGradient19282-4"/><linearGradient id="linearGradient7602" x1="1" x2="3" y1="1044.362" y2="1044.362" gradientTransform="translate(598.76729,252.99405)" gradientUnits="userSpaceOnUse" xlink:href="#linearGradient19282-4"/></defs><g style="display:inline" id="stock" transform="translate(-140.95614,-85.962811)"><g id="gimp-display-filter-contrast" transform="translate(140.95614,-950.39862)"><rect style="opacity:.1;fill:url(#linearGradient7575);fill-opacity:1;stroke:none;stroke-width:1.52272832;stroke-miterlimit:4;stroke-dasharray:none;stroke-opacity:1" id="rect3975-54" width="3" height="14" x="12" y="1037.362"/><rect style="opacity:.9;fill:url(#linearGradient7602);fill-opacity:1;stroke:none;stroke-width:1.24330258;stroke-miterlimit:4;stroke-dasharray:none;stroke-opacity:1" id="rect3975-5-0" width="2" height="14" x="1" y="1037.362"/><rect style="opacity:.7;fill:url(#linearGradient7595);fill-opacity:1;stroke:none;stroke-width:1.52272832;stroke-miterlimit:4;stroke-dasharray:none;stroke-opacity:1" id="rect3975-1-6" width="3" height="14" x="3" y="1037.362"/><rect style="opacity:.5;fill:url(#linearGradient7589);fill-opacity:1;stroke:none;stroke-width:1.52272832;stroke-miterlimit:4;stroke-dasharray:none;stroke-opacity:1" id="rect3975-2-9" width="3" height="14" x="6" y="1037.362"/><rect style="opacity:.3;fill:url(#linearGradient7581);fill-opacity:1;stroke:none;stroke-width:1.52272832;stroke-miterlimit:4;stroke-dasharray:none;stroke-opacity:1" id="rect3975-50-6" width="3" height="14" x="9" y="1037.362"/><path style="fill:url(#linearGradient7569);fill-opacity:1;stroke:none" id="rect28283-2-7" d="m 1,1036.3622 c -0.65445,0 -1,-0.065 -1,1 l 0,14 c 0,1.0646 0.34555,1 1,1 l 7,0 7,0 c 0.633474,0 0.967335,0.016 1,-1 l 0,0 0,-7 0,-7 0,0 c -0.03266,-1.0157 -0.366526,-1 -1,-1 l -7,0 z m 2,1 5,0 5,0 c 0.65445,0 2,1.1354 2,2.2 l 0,9.6 c 0,1.0646 -1.34555,2.2 -2,2.2 l -5,0 -5,0 c -0.65445,0 -2,-1.4354 -2,-2.5 l 0,-9 c 0,-1.0646 1.3502118,-2.578 2,-2.5 z"/></g></g></svg>