<svg xmlns="http://www.w3.org/2000/svg" xmlns:osb="http://www.openswatchbook.org/uri/2009/osb" xmlns:svg="http://www.w3.org/2000/svg" xmlns:xlink="http://www.w3.org/1999/xlink" id="svg7384" width="16" height="16" version="1.1" viewBox="0 0 16 16"><metadata id="metadata90"/><defs id="defs7386"><linearGradient id="linearGradient8074" osb:paint="solid"><stop id="stop8072" offset="0" style="stop-color:#be00be;stop-opacity:1"/></linearGradient><linearGradient id="linearGradient7561" osb:paint="solid"><stop id="stop7558" offset="0" style="stop-color:#a5a5a5;stop-opacity:1"/></linearGradient><linearGradient id="linearGradient7548" osb:paint="solid"><stop id="stop7546" offset="0" style="stop-color:#ebebeb;stop-opacity:1"/></linearGradient><linearGradient id="linearGradient7542" osb:paint="solid"><stop id="stop7538" offset="0" style="stop-color:#c9c9c9;stop-opacity:1"/></linearGradient><linearGradient id="linearGradient19282" gradientTransform="matrix(0,-735328.32,170712.69,0,2464326300,577972450)" osb:paint="solid"><stop id="stop19284" offset="0" style="stop-color:#b4b4b4;stop-opacity:1"/></linearGradient><linearGradient id="linearGradient19282-4" gradientTransform="matrix(0.34682586,0,0,0.30620888,-113.35187,504.03851)" osb:paint="solid"><stop id="stop19284-0" offset="0" style="stop-color:#bebebe;stop-opacity:1"/></linearGradient><linearGradient id="linearGradient10710" x1="-199.508" x2="-184.585" y1="45.466" y2="45.466" gradientTransform="translate(224.80773,121.90178)" gradientUnits="userSpaceOnUse" xlink:href="#linearGradient19282-4"/><linearGradient id="linearGradient10716" x1="45" x2="48.652" y1="270" y2="270" gradientTransform="translate(224.80773,121.90178)" gradientUnits="userSpaceOnUse" xlink:href="#linearGradient19282-4"/><linearGradient id="linearGradient10722" x1="43" x2="47" y1="266" y2="266" gradientTransform="translate(224.80773,121.90178)" gradientUnits="userSpaceOnUse" xlink:href="#linearGradient19282-4"/></defs><g style="display:inline" id="tools" transform="translate(65.82595,-186.42526)"><g id="gimp-tool-free-select" transform="translate(-106.82615,-70.57474)" style="display:inline"><path style="fill:url(#linearGradient10710);fill-opacity:1;stroke:none" id="path4672" d="m -190.875,40.5 c -0.49024,-0.004 -1.0163,0.02963 -1.53125,0.09375 -4.11962,0.5134 -7.28695,3.11335 -7.09375,5.8125 0.1932,2.69915 3.66163,4.45088 7.78125,3.9375 4.11962,-0.5134 7.3182,-3.11334 7.125,-5.8125 -0.16905,-2.36175 -2.84959,-3.99913 -6.28125,-4.03125 z m -0.1875,1.5 c 1.37941,0.0113 2.59622,0.31205 3.5,0.8125 0.90379,0.50045 1.49455,1.20061 1.5625,2.03125 0.15532,1.89861 -2.40686,3.73262 -5.71875,4.09375 -3.31189,0.36113 -6.12593,-0.88264 -6.28125,-2.78125 -0.15532,-1.89861 2.40686,-3.73262 5.71875,-4.09375 0.41399,-0.0451 0.82463,-0.0657 1.21875,-0.0625 z" transform="translate(241.0002,217)"/><path style="fill:url(#linearGradient10722);fill-opacity:1;stroke:none" id="path4660" d="m 45.0002,264 c -1.10457,0 -2,0.89543 -2,2 0,1.10457 0.89543,2 2,2 1.10457,0 2,-0.89543 2,-2 0,-1.10457 -0.89543,-2 -2,-2 z m 0,1 c 0.55228,0 1,0.44772 1,1 0,0.55228 -0.44772,1 -1,1 -0.55228,0 -1,-0.44772 -1,-1 0,-0.55228 0.44772,-1 1,-1 z"/><path style="fill:url(#linearGradient10716);fill-opacity:1;stroke:none" id="path4664" d="m 45.0002,267 c 0,0 4.40625,3 0,6 l 2.03125,0 c 3.65625,-2.54511 -0.01563,-6 -0.01563,-6 z"/></g></g></svg>