<svg xmlns="http://www.w3.org/2000/svg" xmlns:svg="http://www.w3.org/2000/svg" id="svg30571" width="16" height="16" version="1.1" viewBox="0 0 16 16"><metadata id="metadata30576"/><g id="layer1" transform="translate(0,-1036.3622)"><g id="g34"><rect id="rect6884" width="16" height="16" x="0" y="1036.362" style="opacity:.3;fill:none;stroke:none"/><path id="rect6886" d="m 0,1036.3622 v 16 h 16 v -16 z m 1,1 h 14 v 14 H 1 Z" style="fill:#bebebe;fill-opacity:1;stroke:none"/><path id="rect3938" d="m 1,1044.3622 v 7 h 7 v -7 z m 0.921875,0.7832 h 0.7949219 l 1.5175781,2.2481 1.5039062,-2.2481 h 0.7949219 l -1.9335937,2.8633 v 2.6035 H 3.8554688 v -2.6035 z" style="opacity:1;fill:#bebebe;fill-opacity:1;stroke:none;stroke-width:.214;stroke-linecap:round;stroke-linejoin:miter;stroke-miterlimit:4;stroke-dasharray:none;stroke-opacity:1"/><path style="opacity:.75;fill:#bebebe;fill-opacity:1;stroke:none;stroke-width:.214;stroke-linecap:round;stroke-linejoin:miter;stroke-miterlimit:4;stroke-dasharray:none;stroke-opacity:1" id="rect3938-6" d="M 1,1 V 8 H 8 V 1 Z m 3.5898438,0.4960938 c 0.3271484,0 0.6357421,0.042969 0.9238281,0.1308593 0.2905273,0.085449 0.5625,0.2153321 0.8164062,0.3886719 v 0.78125 C 6.0810547,2.5649414 5.8144531,2.3901367 5.53125,2.2753906 5.2504883,2.1606445 4.9521484,2.1035156 4.6347656,2.1035156 c -0.625,0 -1.1035156,0.1928711 -1.4355468,0.5761719 -0.3320313,0.3808594 -0.4980469,0.9316406 -0.4980469,1.6542969 0,0.7202148 0.1660156,1.2729492 0.4980469,1.65625 0.3320312,0.3808594 0.8105468,0.5703125 1.4355468,0.5703125 0.3173828,0 0.6157227,-0.057129 0.8964844,-0.171875 C 5.8144531,6.2739258 6.0810547,6.1010742 6.3300781,5.8691406 V 6.640625 C 6.0712891,6.8164062 5.7963867,6.9492188 5.5058594,7.0371094 5.2177734,7.125 4.9121094,7.1679688 4.5898438,7.1679688 3.762207,7.1679688 3.1108398,6.9155273 2.6347656,6.4101562 2.1586914,5.9023438 1.921875,5.2104492 1.921875,4.3339844 1.921875,3.4550781 2.1586914,2.7631836 2.6347656,2.2578125 3.1108398,1.75 3.762207,1.4960938 4.5898438,1.4960938 Z" transform="translate(0,1036.3622)"/><rect id="rect3938-6-3" width="7" height="7" x="8" y="1037.362" style="opacity:.50800003;fill:#bebebe;fill-opacity:1;stroke:none;stroke-width:.214;stroke-linecap:round;stroke-linejoin:miter;stroke-miterlimit:4;stroke-dasharray:none;stroke-opacity:1"/><rect id="rect3938-6-3-5" width="7" height="7" x="8" y="1044.362" style="opacity:.25;fill:#bebebe;fill-opacity:1;stroke:none;stroke-width:.214;stroke-linecap:round;stroke-linejoin:miter;stroke-miterlimit:4;stroke-dasharray:none;stroke-opacity:1"/><text id="text4003" x="8.188" y="1043.8" xml:space="preserve" style="font-style:normal;font-weight:400;font-size:7.5px;line-height:125%;font-family:sans-serif;letter-spacing:0;word-spacing:0;fill:#bebebe;fill-opacity:1;stroke:none;stroke-width:1px;stroke-linecap:butt;stroke-linejoin:miter;stroke-opacity:1"><tspan id="tspan4005" x="8.188" y="1043.8">M</tspan></text><text id="text4007" x="8.188" y="1050.487" xml:space="preserve" style="font-style:normal;font-weight:400;font-size:7.5px;line-height:125%;font-family:sans-serif;letter-spacing:0;word-spacing:0;fill:#bebebe;fill-opacity:1;stroke:none;stroke-width:1px;stroke-linecap:butt;stroke-linejoin:miter;stroke-opacity:1"><tspan id="tspan4009" x="8.188" y="1050.487">K</tspan></text></g></g></svg>