<svg xmlns="http://www.w3.org/2000/svg" xmlns:osb="http://www.openswatchbook.org/uri/2009/osb" xmlns:svg="http://www.w3.org/2000/svg" xmlns:xlink="http://www.w3.org/1999/xlink" id="svg7384" width="16" height="16" version="1.1" viewBox="0 0 16 16"><metadata id="metadata90"/><defs id="defs7386"><linearGradient id="linearGradient19282-4" gradientTransform="matrix(0.34682586,0,0,0.30620888,-154.39932,-275.32368)" osb:paint="solid"><stop id="stop19284-0" offset="0" style="stop-color:#bebebe;stop-opacity:1"/></linearGradient><linearGradient id="linearGradient6853" x1="6" x2="9" y1="1049.862" y2="1049.862" gradientTransform="translate(319.85285,116.53018)" gradientUnits="userSpaceOnUse" xlink:href="#linearGradient19282-4"/><linearGradient id="linearGradient7229" x1="2" x2="5" y1="1038.862" y2="1038.862" gradientTransform="translate(319.85285,116.53018)" gradientUnits="userSpaceOnUse" xlink:href="#linearGradient19282-4"/><linearGradient id="linearGradient7235" x1=".941" x2="14.953" y1="13.977" y2="13.977" gradientTransform="translate(319.85285,116.53018)" gradientUnits="userSpaceOnUse" xlink:href="#linearGradient19282-4"/><linearGradient id="linearGradient7241" x1="9" x2="12" y1="1038.862" y2="1038.862" gradientTransform="translate(319.85285,116.53018)" gradientUnits="userSpaceOnUse" xlink:href="#linearGradient19282-4"/></defs><g style="display:inline" id="tools" transform="translate(-29.219167,-181.05367)"><g id="gimp-tool-handle-transform" transform="translate(29.266412,-855.30851)"><path style="opacity:1;fill:url(#linearGradient7235);fill-opacity:1;stroke:none;stroke-width:1.08499873;stroke-miterlimit:4;stroke-dasharray:none;stroke-opacity:1" id="rect7228-9" d="M 0.94140625,8.953125 0.953125,19 5.0527344,19 A 2.5,2.5 0 0 1 7.4121094,17.001953 2.5,2.5 0 0 1 9.9492188,19 l 1.0039062,0 4,0 -3.318359,-8.275391 A 2.5,2.5 0 0 1 10.587891,10.998047 2.5,2.5 0 0 1 8.0546875,9.0195312 L 5.9472656,9 A 2.5,2.5 0 0 1 3.5878906,10.998047 2.5,2.5 0 0 1 1.0429688,8.953125 Z" transform="translate(0,1030.3622)"/><path id="path7231-1-8" d="m 8.9990899,1049.8099 a 1.5,1.5 0 0 1 -1.4466556,1.5514 1.5,1.5 0 0 1 -1.5515109,-1.4465 1.5,1.5 0 0 1 1.4462629,-1.5517 1.5,1.5 0 0 1 1.551877,1.4461 L 7.5,1049.8622 Z" style="opacity:1;fill:url(#linearGradient6853);fill-opacity:1;stroke:none;stroke-width:.51658648;stroke-miterlimit:4;stroke-dasharray:none;stroke-opacity:1"/><path id="path7231-1-8-0" d="m 4.9990899,1038.8099 a 1.5,1.5 0 0 1 -1.4466556,1.5514 1.5,1.5 0 0 1 -1.5515109,-1.4465 1.5,1.5 0 0 1 1.4462629,-1.5517 1.5,1.5 0 0 1 1.551877,1.4461 L 3.5,1038.8622 Z" style="opacity:1;fill:url(#linearGradient7229);fill-opacity:1;stroke:none;stroke-width:.51658648;stroke-miterlimit:4;stroke-dasharray:none;stroke-opacity:1"/><path id="path7231-1-8-0-5" d="m 11.99909,1038.8099 a 1.5,1.5 0 0 1 -1.446656,1.5514 1.5,1.5 0 0 1 -1.5515106,-1.4465 1.5,1.5 0 0 1 1.4462626,-1.5517 1.5,1.5 0 0 1 1.551877,1.4461 L 10.5,1038.8622 Z" style="opacity:1;fill:url(#linearGradient7241);fill-opacity:1;stroke:none;stroke-width:.51658648;stroke-miterlimit:4;stroke-dasharray:none;stroke-opacity:1"/></g></g></svg>