<svg xmlns="http://www.w3.org/2000/svg" xmlns:osb="http://www.openswatchbook.org/uri/2009/osb" xmlns:svg="http://www.w3.org/2000/svg" xmlns:xlink="http://www.w3.org/1999/xlink" id="svg7384" width="16.001" height="16" version="1.1" viewBox="0 0 16.001 16"><metadata id="metadata90"/><defs id="defs7386"><linearGradient id="linearGradient8074" osb:paint="solid"><stop id="stop8072" offset="0" style="stop-color:#be00be;stop-opacity:1"/></linearGradient><linearGradient id="linearGradient7561" osb:paint="solid"><stop id="stop7558" offset="0" style="stop-color:#a5a5a5;stop-opacity:1"/></linearGradient><linearGradient id="linearGradient7548" osb:paint="solid"><stop id="stop7546" offset="0" style="stop-color:#ebebeb;stop-opacity:1"/></linearGradient><linearGradient id="linearGradient7542" osb:paint="solid"><stop id="stop7538" offset="0" style="stop-color:#c9c9c9;stop-opacity:1"/></linearGradient><linearGradient id="linearGradient19282" gradientTransform="matrix(0,-735328.32,170712.69,0,2464326300,577972450)" osb:paint="solid"><stop id="stop19284" offset="0" style="stop-color:#b4b4b4;stop-opacity:1"/></linearGradient><linearGradient id="linearGradient19282-4" gradientTransform="matrix(0.34682586,0,0,0.30620888,-33.35268,382.03824)" osb:paint="solid"><stop id="stop19284-0" offset="0" style="stop-color:#bebebe;stop-opacity:1"/></linearGradient><linearGradient id="linearGradient7248" x1="461.041" x2="477.041" y1="117.557" y2="117.557" gradientTransform="translate(542.17794,107.2771)" gradientUnits="userSpaceOnUse" xlink:href="#linearGradient19282-4"/></defs><g style="display:inline" id="stock" transform="translate(-84.366788,59.75414)"><g id="gimp-grid" transform="translate(-36.632602,-438.75414)" style="display:inline"><path id="rect6300" d="m 461.04102,109.55664 0,1 0,4 0,1 0,4 0,1 0,5 1,0 15,0 0,-1 0,-9 0,-1 0,-5 -15,0 z m 1,1 4,0 0,4 -4,0 z m 5,0 4,0 0,4 -4,0 z m 5,0 4,0 0,4 -4,0 z m -10,5 4,0 0,4 -4,0 z m 5,0 4,0 0,4 -4,0 z m 5,0 4,0 0,4 -4,0 z m -10,5 4,0 0,4 -4,0 z m 5,0 4,0 0,4 -4,0 z m 5,0 4,0 0,4 -4,0 z" transform="translate(-340.04163,269.44363)" style="fill:url(#linearGradient7248);fill-opacity:1;stroke:none"/></g></g></svg>