<svg xmlns="http://www.w3.org/2000/svg" xmlns:osb="http://www.openswatchbook.org/uri/2009/osb" xmlns:svg="http://www.w3.org/2000/svg" xmlns:xlink="http://www.w3.org/1999/xlink" id="svg7384" width="16" height="16" version="1.1" viewBox="0 0 16 16"><metadata id="metadata90"/><defs id="defs7386"><linearGradient id="linearGradient19282-4" gradientTransform="matrix(0.34682586,0,0,0.30620888,-154.35207,-275.32369)" osb:paint="solid"><stop id="stop19284-0" offset="0" style="stop-color:#bebebe;stop-opacity:1"/></linearGradient><linearGradient id="linearGradient10250" x1="4" x2="16" y1="1049.862" y2="1049.862" gradientTransform="translate(403.12162,-929.27501)" gradientUnits="userSpaceOnUse" xlink:href="#linearGradient19282-4"/></defs><g id="g4292"><path style="display:inline;fill:url(#linearGradient10250);fill-opacity:1;stroke:none;stroke-width:.78246117" id="rect28071" d="m 4,11 v 5 h 12 v -5 z m 2.5714286,0.7143 h 0.8571428 v 3.5714 H 6.5714286 v -2.8571 l -0.8571429,0.7143 v -0.7143 z m 3,0 c 0.7122854,0 1.2857144,0.4779 1.2857144,1.0715 v 1.4284 c 0,0.5936 -0.573429,1.0715 -1.2857144,1.0715 -0.7122857,0 -1.2857143,-0.4779 -1.2857143,-1.0715 v -1.4284 c 0,-0.5936 0.5734286,-1.0715 1.2857143,-1.0715 z M 13.5,11.5 15,13 h -3 z m -3.9285714,0.9286 c -0.2374286,0 -0.4285715,0.1592 -0.4285715,0.3572 v 1.4284 c 0,0.198 0.1911429,0.3572 0.4285715,0.3572 C 9.8088571,14.5714 10,14.4122 10,14.2142 V 12.7858 C 10,12.5878 9.8088571,12.4286 9.5714286,12.4286 Z M 12,14 h 3 l -1.5,1.5 z"/><path id="path4" d="M 9.45,6.4433307 5.8725,0.27915212 C 6.3975,0.16721185 6.9375,0.10004768 7.5,0.10004768 c 1.8,0 3.45,0.63432824 4.74,1.67910422 L 9.495,6.5179576 Z M 0.345,5.3239279 C 1.035,3.1448233 2.7075,1.398555 4.845,0.5925849 L 7.59,5.3239279 Z M 0.15,6.0701965 H 5.7675 L 5.55,6.4433307 1.98,12.600048 C 0.75,11.27169 0,9.5104943 0,7.5627335 0,7.0478082 0.0525,6.555271 0.15,6.0701965 Z m 9.945,1.492537 2.925,-5.0373131 C 14.2425,3.8537786 15,5.6149727 15,7.5627335 15,8.0776587 14.9475,8.570196 14.85,9.0552705 H 9.2325 Z" style="fill:#bebebe;fill-opacity:1;stroke-width:.74813193"/></g></svg>