<svg xmlns="http://www.w3.org/2000/svg" xmlns:osb="http://www.openswatchbook.org/uri/2009/osb" xmlns:svg="http://www.w3.org/2000/svg" xmlns:xlink="http://www.w3.org/1999/xlink" id="svg7384" width="16" height="16" version="1.1" viewBox="0 0 16 16"><metadata id="metadata90"/><defs id="defs7386"><linearGradient id="linearGradient19282-4" gradientTransform="matrix(0.34682586,0,0,0.30620888,6.6481284,524.03851)" osb:paint="solid"><stop id="stop19284-0" offset="0" style="stop-color:#bebebe;stop-opacity:1"/></linearGradient><linearGradient id="linearGradient10692" x1="163" x2="172" y1="249" y2="249" gradientTransform="translate(202.4966,121.90178)" gradientUnits="userSpaceOnUse" xlink:href="#linearGradient19282-4"/><linearGradient id="linearGradient10698" x1="47" x2="52" y1="342.5" y2="342.5" gradientTransform="translate(202.4966,121.90178)" gradientUnits="userSpaceOnUse" xlink:href="#linearGradient19282-4"/><linearGradient id="linearGradient10704" x1="-76" x2="-64" y1="24.5" y2="24.5" gradientTransform="translate(202.4966,121.90178)" gradientUnits="userSpaceOnUse" xlink:href="#linearGradient19282-4"/><linearGradient id="linearGradient9744" x1="-80" x2="-79" y1="25.5" y2="25.5" gradientTransform="translate(202.4966,121.90178)" gradientUnits="userSpaceOnUse" xlink:href="#linearGradient19282-4"/><linearGradient id="linearGradient9746" x1="-80" x2="-79" y1="27.5" y2="27.5" gradientTransform="translate(202.4966,121.90178)" gradientUnits="userSpaceOnUse" xlink:href="#linearGradient19282-4"/><linearGradient id="linearGradient9748" x1="-80" x2="-79" y1="29.5" y2="29.5" gradientTransform="translate(202.4966,121.90178)" gradientUnits="userSpaceOnUse" xlink:href="#linearGradient19282-4"/><linearGradient id="linearGradient9750" x1="-80" x2="-79" y1="31.5" y2="31.5" gradientTransform="translate(202.4966,121.90178)" gradientUnits="userSpaceOnUse" xlink:href="#linearGradient19282-4"/><linearGradient id="linearGradient9752" x1="-80" x2="-79" y1="33.5" y2="33.5" gradientTransform="translate(202.4966,121.90178)" gradientUnits="userSpaceOnUse" xlink:href="#linearGradient19282-4"/><linearGradient id="linearGradient9754" x1="-80" x2="-79" y1="35.5" y2="35.5" gradientTransform="translate(202.4966,121.90178)" gradientUnits="userSpaceOnUse" xlink:href="#linearGradient19282-4"/><linearGradient id="linearGradient9756" x1="-78" x2="-77" y1="35.5" y2="35.5" gradientTransform="translate(202.4966,121.90178)" gradientUnits="userSpaceOnUse" xlink:href="#linearGradient19282-4"/><linearGradient id="linearGradient9758" x1="-76" x2="-75" y1="35.5" y2="35.5" gradientTransform="translate(202.4966,121.90178)" gradientUnits="userSpaceOnUse" xlink:href="#linearGradient19282-4"/><linearGradient id="linearGradient9760" x1="-74" x2="-73" y1="35.5" y2="35.5" gradientTransform="translate(202.4966,121.90178)" gradientUnits="userSpaceOnUse" xlink:href="#linearGradient19282-4"/><linearGradient id="linearGradient9762" x1="169" x2="170" y1="252.5" y2="252.5" gradientTransform="translate(202.4966,121.90178)" gradientUnits="userSpaceOnUse" xlink:href="#linearGradient19282-4"/><linearGradient id="linearGradient9764" x1="171" x2="172" y1="252.5" y2="252.5" gradientTransform="translate(202.4966,121.90178)" gradientUnits="userSpaceOnUse" xlink:href="#linearGradient19282-4"/><linearGradient id="linearGradient9766" x1="-68" x2="-67" y1="35.5" y2="35.5" gradientTransform="translate(202.4966,121.90178)" gradientUnits="userSpaceOnUse" xlink:href="#linearGradient19282-4"/><linearGradient id="linearGradient9768" x1="-68" x2="-67" y1="33.5" y2="33.5" gradientTransform="translate(202.4966,121.90178)" gradientUnits="userSpaceOnUse" xlink:href="#linearGradient19282-4"/><linearGradient id="linearGradient9770" x1="-68" x2="-67" y1="31.5" y2="31.5" gradientTransform="translate(202.4966,121.90178)" gradientUnits="userSpaceOnUse" xlink:href="#linearGradient19282-4"/><linearGradient id="linearGradient9772" x1="-68" x2="-67" y1="29.5" y2="29.5" gradientTransform="translate(202.4966,121.90178)" gradientUnits="userSpaceOnUse" xlink:href="#linearGradient19282-4"/><linearGradient id="linearGradient9774" x1="-68" x2="-67" y1="27.5" y2="27.5" gradientTransform="translate(202.4966,121.90178)" gradientUnits="userSpaceOnUse" xlink:href="#linearGradient19282-4"/><linearGradient id="linearGradient9776" x1="-68" x2="-67" y1="25.5" y2="25.5" gradientTransform="translate(202.4966,121.90178)" gradientUnits="userSpaceOnUse" xlink:href="#linearGradient19282-4"/><linearGradient id="linearGradient9778" x1="173" x2="174" y1="240.5" y2="240.5" gradientTransform="translate(202.4966,121.90178)" gradientUnits="userSpaceOnUse" xlink:href="#linearGradient19282-4"/><linearGradient id="linearGradient9780" x1="171" x2="172" y1="240.5" y2="240.5" gradientTransform="translate(202.4966,121.90178)" gradientUnits="userSpaceOnUse" xlink:href="#linearGradient19282-4"/><linearGradient id="linearGradient9782" x1="169" x2="170" y1="240.5" y2="240.5" gradientTransform="translate(202.4966,121.90178)" gradientUnits="userSpaceOnUse" xlink:href="#linearGradient19282-4"/><linearGradient id="linearGradient9784" x1="167" x2="168" y1="240.5" y2="240.5" gradientTransform="translate(202.4966,121.90178)" gradientUnits="userSpaceOnUse" xlink:href="#linearGradient19282-4"/><linearGradient id="linearGradient9786" x1="165" x2="166" y1="240.5" y2="240.5" gradientTransform="translate(202.4966,121.90178)" gradientUnits="userSpaceOnUse" xlink:href="#linearGradient19282-4"/><linearGradient id="linearGradient9788" x1="163" x2="164" y1="240.5" y2="240.5" gradientTransform="translate(202.4966,121.90178)" gradientUnits="userSpaceOnUse" xlink:href="#linearGradient19282-4"/><linearGradient id="linearGradient9790" x1="161" x2="162" y1="240.5" y2="240.5" gradientTransform="translate(202.4966,121.90178)" gradientUnits="userSpaceOnUse" xlink:href="#linearGradient19282-4"/><linearGradient id="linearGradient10698-8" x1="47" x2="52" y1="342.5" y2="342.5" gradientUnits="userSpaceOnUse" xlink:href="#linearGradient19282-4"/><linearGradient id="linearGradient10692-9" x1="163" x2="172" y1="249" y2="249" gradientUnits="userSpaceOnUse" xlink:href="#linearGradient19282-4"/><linearGradient id="linearGradient10704-2" x1="-76" x2="-64" y1="24.5" y2="24.5" gradientUnits="userSpaceOnUse" xlink:href="#linearGradient19282-4"/><linearGradient id="linearGradient9790-0" x1="161" x2="162" y1="240.5" y2="240.5" gradientUnits="userSpaceOnUse" xlink:href="#linearGradient19282-4"/><linearGradient id="linearGradient9788-2" x1="163" x2="164" y1="240.5" y2="240.5" gradientUnits="userSpaceOnUse" xlink:href="#linearGradient19282-4"/><linearGradient id="linearGradient9786-3" x1="165" x2="166" y1="240.5" y2="240.5" gradientUnits="userSpaceOnUse" xlink:href="#linearGradient19282-4"/><linearGradient id="linearGradient9784-7" x1="167" x2="168" y1="240.5" y2="240.5" gradientUnits="userSpaceOnUse" xlink:href="#linearGradient19282-4"/><linearGradient id="linearGradient9782-5" x1="169" x2="170" y1="240.5" y2="240.5" gradientUnits="userSpaceOnUse" xlink:href="#linearGradient19282-4"/><linearGradient id="linearGradient9780-9" x1="171" x2="172" y1="240.5" y2="240.5" gradientUnits="userSpaceOnUse" xlink:href="#linearGradient19282-4"/><linearGradient id="linearGradient9778-2" x1="173" x2="174" y1="240.5" y2="240.5" gradientUnits="userSpaceOnUse" xlink:href="#linearGradient19282-4"/><linearGradient id="linearGradient9776-2" x1="-68" x2="-67" y1="25.5" y2="25.5" gradientUnits="userSpaceOnUse" xlink:href="#linearGradient19282-4"/><linearGradient id="linearGradient9774-8" x1="-68" x2="-67" y1="27.5" y2="27.5" gradientUnits="userSpaceOnUse" xlink:href="#linearGradient19282-4"/><linearGradient id="linearGradient9772-9" x1="-68" x2="-67" y1="29.5" y2="29.5" gradientUnits="userSpaceOnUse" xlink:href="#linearGradient19282-4"/><linearGradient id="linearGradient9770-7" x1="-68" x2="-67" y1="31.5" y2="31.5" gradientUnits="userSpaceOnUse" xlink:href="#linearGradient19282-4"/><linearGradient id="linearGradient9768-3" x1="-68" x2="-67" y1="33.5" y2="33.5" gradientUnits="userSpaceOnUse" xlink:href="#linearGradient19282-4"/><linearGradient id="linearGradient9764-6" x1="171" x2="172" y1="252.5" y2="252.5" gradientUnits="userSpaceOnUse" xlink:href="#linearGradient19282-4"/><linearGradient id="linearGradient9762-1" x1="169" x2="170" y1="252.5" y2="252.5" gradientUnits="userSpaceOnUse" xlink:href="#linearGradient19282-4"/><linearGradient id="linearGradient9766-2" x1="-68" x2="-67" y1="35.5" y2="35.5" gradientUnits="userSpaceOnUse" xlink:href="#linearGradient19282-4"/><linearGradient id="linearGradient9744-9" x1="-80" x2="-79" y1="25.5" y2="25.5" gradientUnits="userSpaceOnUse" xlink:href="#linearGradient19282-4"/><linearGradient id="linearGradient9746-3" x1="-80" x2="-79" y1="27.5" y2="27.5" gradientUnits="userSpaceOnUse" xlink:href="#linearGradient19282-4"/><linearGradient id="linearGradient9748-1" x1="-80" x2="-79" y1="29.5" y2="29.5" gradientUnits="userSpaceOnUse" xlink:href="#linearGradient19282-4"/><linearGradient id="linearGradient9750-9" x1="-80" x2="-79" y1="31.5" y2="31.5" gradientUnits="userSpaceOnUse" xlink:href="#linearGradient19282-4"/><linearGradient id="linearGradient9752-4" x1="-80" x2="-79" y1="33.5" y2="33.5" gradientUnits="userSpaceOnUse" xlink:href="#linearGradient19282-4"/><linearGradient id="linearGradient9754-7" x1="-80" x2="-79" y1="35.5" y2="35.5" gradientUnits="userSpaceOnUse" xlink:href="#linearGradient19282-4"/><linearGradient id="linearGradient9756-8" x1="-78" x2="-77" y1="35.5" y2="35.5" gradientUnits="userSpaceOnUse" xlink:href="#linearGradient19282-4"/><linearGradient id="linearGradient9758-4" x1="-76" x2="-75" y1="35.5" y2="35.5" gradientUnits="userSpaceOnUse" xlink:href="#linearGradient19282-4"/><linearGradient id="linearGradient9760-5" x1="-74" x2="-73" y1="35.5" y2="35.5" gradientUnits="userSpaceOnUse" xlink:href="#linearGradient19282-4"/></defs><g style="display:inline" id="gimp-tool-foreground-select" transform="translate(-161.0002,-237)"><rect id="rect16643" width="16" height="16" x="-80" y="20" transform="translate(241.0002,217)" style="opacity:0;fill:none;fill-opacity:1;stroke:none"/><path style="color:#bebebe;display:inline;overflow:visible;visibility:visible;fill:url(#linearGradient10698-8);fill-opacity:1;fill-rule:nonzero;stroke:none;stroke-width:2;marker:none;enable-background:accumulate" id="path20580-1" d="M 52,342.5 A 2.5,2.5 0 0 1 49.5,345 2.5,2.5 0 0 1 47,342.5 2.5,2.5 0 0 1 49.5,340 2.5,2.5 0 0 1 52,342.5 Z" transform="translate(118.0002,-98)"/><path id="path78052" d="m 165.0002,247 c -1,0 -2,0 -2,1 0,0.92264 0,3 0,3 h 2 7 v -2 -1 c 0,-1 -1,-1 -2,-1 v 1 h -5 z" style="fill:url(#linearGradient10692-9);fill-opacity:1;stroke:none"/><path id="rect16664" d="m -76,20 v 2 h 10 v 7 h 2 v -9 z" transform="translate(241.0002,217)" style="opacity:.5;fill:url(#linearGradient10704-2);fill-opacity:1;stroke:none"/><rect id="rect16666" width="1" height="1" x="161" y="240" style="opacity:1;fill:url(#linearGradient9790-0);fill-opacity:1;stroke:none"/><rect id="rect16668" width="1" height="1" x="163" y="240" style="opacity:1;fill:url(#linearGradient9788-2);fill-opacity:1;stroke:none"/><rect id="rect16670" width="1" height="1" x="165" y="240" style="opacity:1;fill:url(#linearGradient9786-3);fill-opacity:1;stroke:none"/><rect id="rect16672" width="1" height="1" x="167" y="240" style="opacity:1;fill:url(#linearGradient9784-7);fill-opacity:1;stroke:none"/><rect id="rect16674" width="1" height="1" x="169" y="240" style="opacity:1;fill:url(#linearGradient9782-5);fill-opacity:1;stroke:none"/><rect id="rect16676" width="1" height="1" x="171" y="240" style="opacity:1;fill:url(#linearGradient9780-9);fill-opacity:1;stroke:none"/><rect id="rect16678" width="1" height="1" x="173" y="240" style="opacity:1;fill:url(#linearGradient9778-2);fill-opacity:1;stroke:none"/><rect id="rect16682" width="1" height="1" x="-68" y="25" transform="translate(241.0002,217)" style="opacity:1;fill:url(#linearGradient9776-2);fill-opacity:1;stroke:none"/><rect id="rect16684" width="1" height="1" x="-68" y="27" transform="translate(241.0002,217)" style="opacity:1;fill:url(#linearGradient9774-8);fill-opacity:1;stroke:none"/><rect id="rect16686" width="1" height="1" x="-68" y="29" transform="translate(241.0002,217)" style="opacity:1;fill:url(#linearGradient9772-9);fill-opacity:1;stroke:none"/><rect id="rect16688" width="1" height="1" x="-68" y="31" transform="translate(241.0002,217)" style="opacity:1;fill:url(#linearGradient9770-7);fill-opacity:1;stroke:none"/><rect id="rect16690" width="1" height="1" x="-68" y="33" transform="translate(241.0002,217)" style="opacity:1;fill:url(#linearGradient9768-3);fill-opacity:1;stroke:none"/><rect id="rect16692" width="1" height="1" x="171" y="252" style="opacity:1;fill:url(#linearGradient9764-6);fill-opacity:1;stroke:none"/><rect id="rect16694" width="1" height="1" x="169" y="252" style="opacity:1;fill:url(#linearGradient9762-1);fill-opacity:1;stroke:none"/><rect id="rect16696" width="1" height="1" x="-68" y="35" transform="translate(241.0002,217)" style="opacity:1;fill:url(#linearGradient9766-2);fill-opacity:1;stroke:none"/><rect id="rect16700" width="1" height="1" x="-80" y="25" transform="translate(241.0002,217)" style="opacity:1;fill:url(#linearGradient9744-9);fill-opacity:1;stroke:none"/><rect id="rect16702" width="1" height="1" x="-80" y="27" transform="translate(241.0002,217)" style="opacity:1;fill:url(#linearGradient9746-3);fill-opacity:1;stroke:none"/><rect id="rect16704" width="1" height="1" x="-80" y="29" transform="translate(241.0002,217)" style="opacity:1;fill:url(#linearGradient9748-1);fill-opacity:1;stroke:none"/><rect id="rect16706" width="1" height="1" x="-80" y="31" transform="translate(241.0002,217)" style="opacity:1;fill:url(#linearGradient9750-9);fill-opacity:1;stroke:none"/><rect id="rect16708" width="1" height="1" x="-80" y="33" transform="translate(241.0002,217)" style="opacity:1;fill:url(#linearGradient9752-4);fill-opacity:1;stroke:none"/><rect id="rect16710" width="1" height="1" x="-80" y="35" transform="translate(241.0002,217)" style="opacity:1;fill:url(#linearGradient9754-7);fill-opacity:1;stroke:none"/><rect id="rect16712" width="1" height="1" x="-78" y="35" transform="translate(241.0002,217)" style="opacity:1;fill:url(#linearGradient9756-8);fill-opacity:1;stroke:none"/><rect id="rect16714" width="1" height="1" x="-76" y="35" transform="translate(241.0002,217)" style="opacity:1;fill:url(#linearGradient9758-4);fill-opacity:1;stroke:none"/><rect id="rect16716" width="1" height="1" x="-74" y="35" transform="translate(241.0002,217)" style="opacity:1;fill:url(#linearGradient9760-5);fill-opacity:1;stroke:none"/></g></svg>