<svg xmlns="http://www.w3.org/2000/svg" xmlns:osb="http://www.openswatchbook.org/uri/2009/osb" xmlns:svg="http://www.w3.org/2000/svg" xmlns:xlink="http://www.w3.org/1999/xlink" id="svg7384" width="16" height="16" version="1.1" viewBox="0 0 16 16"><metadata id="metadata90"/><defs id="defs7386"><linearGradient id="linearGradient8074" osb:paint="solid"><stop id="stop8072" offset="0" style="stop-color:#be00be;stop-opacity:1"/></linearGradient><linearGradient id="linearGradient7561" osb:paint="solid"><stop id="stop7558" offset="0" style="stop-color:#a5a5a5;stop-opacity:1"/></linearGradient><linearGradient id="linearGradient7548" osb:paint="solid"><stop id="stop7546" offset="0" style="stop-color:#ebebeb;stop-opacity:1"/></linearGradient><linearGradient id="linearGradient7542" osb:paint="solid"><stop id="stop7538" offset="0" style="stop-color:#c9c9c9;stop-opacity:1"/></linearGradient><linearGradient id="linearGradient19282" gradientTransform="matrix(0,-735328.32,170712.69,0,2464326300,577972450)" osb:paint="solid"><stop id="stop19284" offset="0" style="stop-color:#b4b4b4;stop-opacity:1"/></linearGradient><linearGradient id="linearGradient19282-4" gradientTransform="matrix(0.34682586,0,0,0.30620888,-154.35207,-275.32369)" osb:paint="solid"><stop id="stop19284-0" offset="0" style="stop-color:#bebebe;stop-opacity:1"/></linearGradient><linearGradient id="linearGradient7770" x1="163" x2="175.063" y1="605.8" y2="605.8" gradientTransform="translate(493.95727,283.03649)" gradientUnits="userSpaceOnUse" xlink:href="#linearGradient19282-4"/><linearGradient id="linearGradient7776" x1="162" x2="176" y1="605" y2="605" gradientTransform="translate(493.95727,283.03649)" gradientUnits="userSpaceOnUse" xlink:href="#linearGradient19282-4"/><linearGradient id="linearGradient7782" x1="162" x2="176" y1="612.5" y2="612.5" gradientTransform="translate(493.95727,283.03649)" gradientUnits="userSpaceOnUse" xlink:href="#linearGradient19282-4"/></defs><g style="display:inline" id="stock" transform="translate(-36.146118,-116.00525)"><g id="gimp-histogram-logarithmic" transform="translate(36.14612,-920.35693)"><g style="display:inline" id="gimp-histogram-0" transform="translate(-161.0002,437.3622)"><path id="rect5422-9-1" d="m 162.0002,611 0,2 0,1 14,0 0,-1 0,-2 -1,0 0,2 -6,0 0,-2 -1,0 0,2 -5,0 0,-2 z" style="fill:url(#linearGradient7782);fill-opacity:1;stroke:none"/><path id="rect5444-3-8" d="m 162.0002,601 0,8 14,0 0,-8 z m 1,1 12,0 0,6 -12,0 z" style="fill:url(#linearGradient7776);fill-opacity:1;stroke:none"/><path id="path5449-8-5" d="m 163.0002,608 c 0.45084,-0.74416 2.80647,-3.31808 1.1875,-1.5 0.23013,-0.36203 0.78765,-1.59609 1.375,-2.25 0.22833,-0.2542 0.48901,-0.51497 0.8125,-0.625 0.37475,-0.12746 0.79167,0 1.1875,0 0.33333,0 0.66794,-0.0291 1,0 0.35827,0.0314 0.71786,0.0847 1.0625,0.1875 0.45614,0.13601 0.9042,0.31785 1.3125,0.5625 0.11443,0.0686 0.2131,0.16103 0.3125,0.25 0.17563,0.15719 0.30879,0.36218 0.5,0.5 0.7067,0.54203 0.58102,-0.0927 0.82813,-0.23438 0.15484,-0.30217 0.33866,-0.70035 0.67187,-0.76562 0.0457,-0.009 0.0854,0.038 0.125,0.0625 0.26583,0.16429 0.5569,0.3168 0.75,0.5625 0.29412,0.37424 0.4234,0.85729 0.5625,1.3125 0.19522,0.63889 0.375,1.96875 0.375,1.96875 L 175.0002,608 Z" style="fill:url(#linearGradient7770);fill-opacity:1;stroke:none"/></g></g></g></svg>