<svg xmlns="http://www.w3.org/2000/svg" xmlns:osb="http://www.openswatchbook.org/uri/2009/osb" xmlns:svg="http://www.w3.org/2000/svg" xmlns:xlink="http://www.w3.org/1999/xlink" id="svg7384" width="16" height="16" version="1.1" viewBox="0 0 16 16"><metadata id="metadata90"/><defs id="defs7386"><linearGradient id="linearGradient19282-4" gradientTransform="matrix(0.34682586,0,0,0.30620888,-53.35187,544.03851)" osb:paint="solid"><stop id="stop19284-0" offset="0" style="stop-color:#bebebe;stop-opacity:1"/></linearGradient><linearGradient id="linearGradient10598" x1="104" x2="114.283" y1="225" y2="225" gradientTransform="translate(157.22352,143.3881)" gradientUnits="userSpaceOnUse" xlink:href="#linearGradient19282-4"/><linearGradient id="linearGradient10604" x1="-131" x2="-125" y1="13" y2="13" gradientTransform="translate(157.22352,143.3881)" gradientUnits="userSpaceOnUse" xlink:href="#linearGradient19282-4"/><linearGradient id="linearGradient10610" x1="102" x2="108" y1="230" y2="230" gradientTransform="translate(157.22352,143.3881)" gradientUnits="userSpaceOnUse" xlink:href="#linearGradient19282-4"/><linearGradient id="linearGradient10616" x1="-125" x2="-124" y1="1.5" y2="1.5" gradientTransform="translate(157.22352,143.3881)" gradientUnits="userSpaceOnUse" xlink:href="#linearGradient19282-4"/><linearGradient id="linearGradient10618" x1="-127" x2="-126" y1="1.5" y2="1.5" gradientTransform="translate(157.22352,143.3881)" gradientUnits="userSpaceOnUse" xlink:href="#linearGradient19282-4"/><linearGradient id="linearGradient10620" x1="-129" x2="-128" y1="1.5" y2="1.5" gradientTransform="translate(157.22352,143.3881)" gradientUnits="userSpaceOnUse" xlink:href="#linearGradient19282-4"/><linearGradient id="linearGradient10622" x1="-131" x2="-130" y1="1.5" y2="1.5" gradientTransform="translate(157.22352,143.3881)" gradientUnits="userSpaceOnUse" xlink:href="#linearGradient19282-4"/><linearGradient id="linearGradient10624" x1="-133" x2="-132" y1="1.5" y2="1.5" gradientTransform="translate(157.22352,143.3881)" gradientUnits="userSpaceOnUse" xlink:href="#linearGradient19282-4"/><linearGradient id="linearGradient10626" x1="108" x2="109" y1="220.5" y2="220.5" gradientTransform="translate(157.22352,143.3881)" gradientUnits="userSpaceOnUse" xlink:href="#linearGradient19282-4"/><linearGradient id="linearGradient10628" x1="-133" x2="-132" y1="5.5" y2="5.5" gradientTransform="translate(157.22352,143.3881)" gradientUnits="userSpaceOnUse" xlink:href="#linearGradient19282-4"/></defs><g style="display:inline" id="tools" transform="translate(133.41016,-207.91158)"><g id="gimp-tool-iscissors" transform="translate(-234.41036,-9.0884203)" style="display:inline"><path style="fill:url(#linearGradient10598);fill-opacity:1;stroke:none" id="rect4875" d="m 104.93945,220 c -0.90867,0.38331 -1.20523,1.21717 -0.68062,1.88108 l 3.78781,5.03784 -1.49639,1.63837 1.21173,1.44271 1.37957,-1.71892 1.3528,1.71892 1.20063,-1.38155 -1.45852,-1.69953 3.78781,-5.03784 c 0.52462,-0.66391 0.22804,-1.49777 -0.68063,-1.88108 l -4.20209,5.53514 z"/><path style="fill:url(#linearGradient10604);fill-opacity:1;stroke:none" id="path12605" d="m -128,10 c -1.65685,0 -3,1.343146 -3,3 0,1.656854 1.34315,3 3,3 1.65685,0 3,-1.343146 3,-3 0,-1.656854 -1.34315,-3 -3,-3 z m 0,2 c 0.55228,0 1,0.447715 1,1 0,0.552285 -0.44772,1 -1,1 -0.55228,0 -1,-0.447715 -1,-1 0,-0.552285 0.44772,-1 1,-1 z" transform="translate(241.0002,217)"/><path id="path12608" d="m 105.0002,227 c -1.65685,0 -3,1.34315 -3,3 0,1.65685 1.34315,3 3,3 1.65685,0 3,-1.34315 3,-3 0,-1.65685 -1.34315,-3 -3,-3 z m 0,2 c 0.55228,0 1,0.44771 1,1 0,0.55228 -0.44772,1 -1,1 -0.55228,0 -1,-0.44772 -1,-1 0,-0.55229 0.44772,-1 1,-1 z" style="fill:url(#linearGradient10610);fill-opacity:1;stroke:none"/><rect style="fill:url(#linearGradient10628);fill-opacity:1;stroke:none" id="rect12610" width="1" height="1" x="-133" y="5" transform="translate(241.0002,217)"/><rect style="fill:url(#linearGradient10626);fill-opacity:1;stroke:none" id="rect12612" width="1" height="1" x="108" y="220"/><rect style="fill:url(#linearGradient10624);fill-opacity:1;stroke:none" id="rect12614" width="1" height="1" x="-133" y="1" transform="translate(241.0002,217)"/><rect style="fill:url(#linearGradient10622);fill-opacity:1;stroke:none" id="rect12616" width="1" height="1" x="-131" y="1" transform="translate(241.0002,217)"/><rect style="fill:url(#linearGradient10620);fill-opacity:1;stroke:none" id="rect12618" width="1" height="1" x="-129" y="1" transform="translate(241.0002,217)"/><rect style="fill:url(#linearGradient10618);fill-opacity:1;stroke:none" id="rect12620" width="1" height="1" x="-127" y="1" transform="translate(241.0002,217)"/><rect style="fill:url(#linearGradient10616);fill-opacity:1;stroke:none" id="rect12622" width="1" height="1" x="-125" y="1" transform="translate(241.0002,217)"/></g></g></svg>