<svg xmlns="http://www.w3.org/2000/svg" xmlns:osb="http://www.openswatchbook.org/uri/2009/osb" xmlns:svg="http://www.w3.org/2000/svg" xmlns:xlink="http://www.w3.org/1999/xlink" id="svg7384" width="16" height="16" version="1.1" viewBox="0 0 16 16"><metadata id="metadata90"/><defs id="defs7386"><linearGradient id="linearGradient8074" osb:paint="solid"><stop id="stop8072" offset="0" style="stop-color:#be00be;stop-opacity:1"/></linearGradient><linearGradient id="linearGradient7561" osb:paint="solid"><stop id="stop7558" offset="0" style="stop-color:#a5a5a5;stop-opacity:1"/></linearGradient><linearGradient id="linearGradient7548" osb:paint="solid"><stop id="stop7546" offset="0" style="stop-color:#ebebeb;stop-opacity:1"/></linearGradient><linearGradient id="linearGradient7542" osb:paint="solid"><stop id="stop7538" offset="0" style="stop-color:#c9c9c9;stop-opacity:1"/></linearGradient><linearGradient id="linearGradient19282" gradientTransform="matrix(0,-735328.32,170712.69,0,2464326300,577972450)" osb:paint="solid"><stop id="stop19284" offset="0" style="stop-color:#b4b4b4;stop-opacity:1"/></linearGradient><linearGradient id="linearGradient19282-4" gradientTransform="matrix(0.34682586,0,0,0.30620888,-73.351872,524.06274)" osb:paint="solid"><stop id="stop19284-0" offset="0" style="stop-color:#bebebe;stop-opacity:1"/></linearGradient><linearGradient id="linearGradient10526" x1="84" x2="94" y1="245.5" y2="245.5" gradientTransform="translate(157.27763,233.65517)" gradientUnits="userSpaceOnUse" xlink:href="#linearGradient19282-4"/><linearGradient id="linearGradient10532" x1="-155" x2="-148" y1="24" y2="24" gradientTransform="translate(275.23558,233.65517)" gradientUnits="userSpaceOnUse" xlink:href="#linearGradient19282-4"/><linearGradient id="linearGradient10538" x1="83" x2="95" y1="249.5" y2="249.5" gradientTransform="translate(157.27763,233.65517)" gradientUnits="userSpaceOnUse" xlink:href="#linearGradient19282-4"/><linearGradient id="linearGradient10538-4" x1="83" x2="95" y1="249.5" y2="249.5" gradientUnits="userSpaceOnUse" xlink:href="#linearGradient19282-4"/><linearGradient id="linearGradient10526-2" x1="84" x2="94" y1="245.5" y2="245.5" gradientUnits="userSpaceOnUse" xlink:href="#linearGradient19282-4"/><linearGradient id="linearGradient10532-0" x1="-155" x2="-148" y1="24" y2="24" gradientUnits="userSpaceOnUse" xlink:href="#linearGradient19282-4"/></defs><g style="display:inline" id="gimp-tool-clone" transform="matrix(1,0,0,1.0015171,-81.000198,-237.35955)"><rect id="rect5537" width="16" height="15.976" x="81" y="237" rx=".75" ry="0" style="opacity:0;fill:none;fill-opacity:1;stroke:none"/><path id="rect5543" d="m 83.0002,248 v 3 h 6 l -2,-3 z m 6,3 h 6 v -3 h -4 z" style="fill:url(#linearGradient10538-4);fill-opacity:1;stroke:none"/><path id="rect5545" d="m 84.000198,247.22414 c 0,0 4.000002,0 4.000002,-3.87931 1,-0.77586 2,0 2,0 0,3.87931 3.999998,3.87931 3.999998,3.87931 V 248 h -10 z" style="fill:url(#linearGradient10526-2);fill-opacity:1;stroke:none"/><path style="fill:url(#linearGradient10532-0);fill-opacity:1;stroke:none" id="path5547" d="m -148,24 a 3.5,2 0 0 1 -3.5,2 3.5,2 0 0 1 -3.5,-2 3.5,2 0 0 1 3.5,-2 3.5,2 0 0 1 3.5,2 z" transform="matrix(0.57142911,0,0,1,175.57171,218)"/></g></svg>