<svg xmlns="http://www.w3.org/2000/svg" xmlns:osb="http://www.openswatchbook.org/uri/2009/osb" xmlns:svg="http://www.w3.org/2000/svg" xmlns:xlink="http://www.w3.org/1999/xlink" id="svg7384" width="16" height="16" version="1.1" viewBox="0 0 16 16"><metadata id="metadata90"/><defs id="defs7386"><linearGradient id="linearGradient8074" osb:paint="solid"><stop id="stop8072" offset="0" style="stop-color:#be00be;stop-opacity:1"/></linearGradient><linearGradient id="linearGradient7561" osb:paint="solid"><stop id="stop7558" offset="0" style="stop-color:#a5a5a5;stop-opacity:1"/></linearGradient><linearGradient id="linearGradient7548" osb:paint="solid"><stop id="stop7546" offset="0" style="stop-color:#ebebeb;stop-opacity:1"/></linearGradient><linearGradient id="linearGradient7542" osb:paint="solid"><stop id="stop7538" offset="0" style="stop-color:#c9c9c9;stop-opacity:1"/></linearGradient><linearGradient id="linearGradient19282" gradientTransform="matrix(0,-735328.32,170712.69,0,2464326300,577972450)" osb:paint="solid"><stop id="stop19284" offset="0" style="stop-color:#b4b4b4;stop-opacity:1"/></linearGradient><linearGradient id="linearGradient19282-4" gradientTransform="matrix(0.34682586,0,0,0.30620888,-93.35187,544.03851)" osb:paint="solid"><stop id="stop19284-0" offset="0" style="stop-color:#bebebe;stop-opacity:1"/></linearGradient><linearGradient id="linearGradient10746" x1="67.656" x2="75.99" y1="222.229" y2="222.229" gradientTransform="translate(201.8998,281.70952)" gradientUnits="userSpaceOnUse" xlink:href="#linearGradient19282-4"/><linearGradient id="linearGradient10752" x1="63.998" x2="70.5" y1="226.607" y2="226.607" gradientTransform="translate(201.8998,281.70952)" gradientUnits="userSpaceOnUse" xlink:href="#linearGradient19282-4"/><linearGradient id="linearGradient10758" x1="69" x2="76" y1="231.5" y2="231.5" gradientTransform="translate(201.8998,281.70952)" gradientUnits="userSpaceOnUse" xlink:href="#linearGradient19282-4"/><linearGradient id="linearGradient10764" x1="62" x2="65" y1="231.5" y2="231.5" gradientTransform="translate(201.8998,281.70952)" gradientUnits="userSpaceOnUse" xlink:href="#linearGradient19282-4"/></defs><g style="display:inline" id="tools" transform="translate(88.73388,-346.233)"><g id="gimp-tool-eraser" transform="translate(-149.73408,129.233)" style="display:inline"><path id="path4066" d="m 72.15645,218 c -0.07885,0.0161 -0.1595,0.0696 -0.21875,0.125 l -4.28125,4 4.03125,4.34375 4.15625,-3.875 c 0.23699,-0.22144 0.17839,-0.68283 -0.125,-1.03125 L 72.9377,218.34375 C 72.71016,218.08243 72.39301,217.95166 72.15645,218 Z" style="fill:url(#linearGradient10746);fill-opacity:1;stroke:none"/><path id="rect34152" d="m 66.5002,223.21875 -2.34375,2.1875 c -0.23699,0.22144 -0.20964,0.68283 0.09375,1.03125 l 2.8125,3.21875 c 0.30339,0.34842 0.73176,0.44019 0.96875,0.21875 l 2.46875,-2.3125 z" style="opacity:.5;fill:url(#linearGradient10752);fill-opacity:1;stroke:none"/><path style="fill:url(#linearGradient10758);fill-opacity:1;stroke:none" id="rect34161" d="m 69.7002,231 c -0.3878,0 -0.7,0.223 -0.7,0.5 0,0.277 0.3122,0.5 0.7,0.5 l 1.4,0 4.2,0 0.7,0 0,-0.5 0,-0.5 -0.7,0 -4.2,0 z"/><path id="path34166" d="m 64.3002,231 c 0.3878,0 0.7,0.223 0.7,0.5 0,0.277 -0.3122,0.5 -0.7,0.5 -2.1,0 -2,0 -2.3,0 l 0,-0.5 0,-0.5 c 0,0 0.2,0 2.3,0 z" style="fill:url(#linearGradient10764);fill-opacity:1;stroke:none"/></g></g></svg>