<svg xmlns="http://www.w3.org/2000/svg" xmlns:svg="http://www.w3.org/2000/svg" id="svg8" width="16" height="16" version="1.1" viewBox="0 0 4.233 4.233"><metadata id="metadata5"/><g id="layer1" transform="translate(0,-292.76666)"><path style="color:#000;overflow:visible;opacity:1;fill:#bebebe;fill-opacity:1;fill-rule:evenodd;stroke:none;stroke-width:.26458335;stroke-linecap:round;stroke-linejoin:miter;stroke-opacity:1;paint-order:normal" id="path2932" d="m 2.1166667,293.03123 a 1.8520833,1.8520833 0 0 0 -1.85208338,1.85208 1.8520833,1.8520833 0 0 0 1.85208338,1.85209 1.8520833,1.8520833 0 0 0 1.8520833,-1.85209 1.8520833,1.8520833 0 0 0 -1.8520833,-1.85208 z m 0,0.26458 a 1.5875,1.5875 0 0 1 1.5875,1.5875 1.5875,1.5875 0 0 1 -1.5875,1.5875 1.5875,1.5875 0 0 1 -0.5291667,-0.093 v -0.30593 c 0,-0.0899 0.07643,-0.13022 0.1281575,-0.13022 H 2.1166667 2.38125 c 0.1465722,0 0.2645833,-0.11801 0.2645833,-0.26459 0,-0.14657 -0.1180111,-0.26458 -0.2645833,-0.26458 H 2.2505086 1.7637166 1.7197917 c -0.073358,0 -0.1322917,-0.0589 -0.1322917,-0.13229 0,-0.0734 0.058934,-0.13229 0.1322917,-0.13229 h 0.043925 0.486792 0.1307414 c 0.1465788,0 0.2645833,-0.11801 0.2645833,-0.26459 0,-0.14658 -0.1180045,-0.26458 -0.2645833,-0.26458 H 1.7637166 1.7197917 c -0.07329,0 -0.1322917,-0.059 -0.1322917,-0.13229 0,-0.0733 0.059002,-0.13229 0.1322917,-0.13229 h 0.043925 0.6185669 c 0.1465784,0 0.2645833,-0.11801 0.2645833,-0.26459 0,-0.14658 -0.1180049,-0.26458 -0.2645833,-0.26458 H 1.8520833 c -0.1612402,0 -0.2645833,-0.13022 -0.2645833,-0.26458 v -0.17209 a 1.5875,1.5875 0 0 1 0.5291667,-0.0925 z"/></g></svg>