<svg xmlns="http://www.w3.org/2000/svg" xmlns:osb="http://www.openswatchbook.org/uri/2009/osb" xmlns:svg="http://www.w3.org/2000/svg" xmlns:xlink="http://www.w3.org/1999/xlink" id="svg7384" width="16" height="16" version="1.1" viewBox="0 0 16 16"><metadata id="metadata90"/><defs id="defs7386"><linearGradient id="linearGradient8074" osb:paint="solid"><stop id="stop8072" offset="0" style="stop-color:#be00be;stop-opacity:1"/></linearGradient><linearGradient id="linearGradient7561" osb:paint="solid"><stop id="stop7558" offset="0" style="stop-color:#a5a5a5;stop-opacity:1"/></linearGradient><linearGradient id="linearGradient7548" osb:paint="solid"><stop id="stop7546" offset="0" style="stop-color:#ebebeb;stop-opacity:1"/></linearGradient><linearGradient id="linearGradient7542" osb:paint="solid"><stop id="stop7538" offset="0" style="stop-color:#c9c9c9;stop-opacity:1"/></linearGradient><linearGradient id="linearGradient19282" gradientTransform="matrix(0,-735328.32,170712.69,0,2464326300,577972450)" osb:paint="solid"><stop id="stop19284" offset="0" style="stop-color:#b4b4b4;stop-opacity:1"/></linearGradient><linearGradient id="linearGradient19282-4" gradientTransform="matrix(0.34682586,0,0,0.30620888,26.64813,583.99432)" osb:paint="solid"><stop id="stop19284-0" offset="0" style="stop-color:#bebebe;stop-opacity:1"/></linearGradient><linearGradient id="linearGradient6938" x1="187.647" x2="195.203" y1="180.979" y2="180.979" gradientTransform="translate(345.04569,251.93724)" gradientUnits="userSpaceOnUse" xlink:href="#linearGradient19282-4"/><linearGradient id="linearGradient6944" x1="185" x2="191.612" y1="185.422" y2="185.422" gradientTransform="translate(345.04569,251.93724)" gradientUnits="userSpaceOnUse" xlink:href="#linearGradient19282-4"/><linearGradient id="linearGradient6950" x1="183.535" x2="186.279" y1="191.309" y2="191.309" gradientTransform="translate(345.04569,251.93724)" gradientUnits="userSpaceOnUse" xlink:href="#linearGradient19282-4"/></defs><g style="display:inline" id="tools" transform="translate(-54.41201,-315.76683)"><g id="gimp-tool-color-picker" transform="matrix(1,0,0,0.99724574,-126.58819,139.25433)" style="display:inline"><path style="fill:url(#linearGradient6944);fill-opacity:1;fill-rule:evenodd;stroke:none" id="path3620" d="m 191.61215,182.40474 -4.22019,5.66336 -1.69404,1.49261 L 185.0002,189 l 0.99632,-2.0533 4.22021,-5.66336 z"/><path style="fill:url(#linearGradient6950);fill-opacity:1;fill-rule:evenodd;stroke:none" id="path4352" d="m 185.0002,189.57452 c 0,0 -1.47718,0.66848 -1.46543,2.07969 0.0147,1.75803 2.66009,1.84345 2.74332,0.28446 0.0475,-0.89097 -1.27789,-2.36415 -1.27789,-2.36415 z"/><path style="fill:url(#linearGradient6938);fill-opacity:1;fill-rule:evenodd;stroke:none" id="path3583" d="m 187.64655,181.43041 4.6492,3.52738 0.70445,-0.92575 -1.39473,-1.05818 c 2.80371,-0.79322 4.71994,-4.17485 2.86027,-5.58582 -1.85967,-1.41094 -4.70574,1.26519 -4.71994,4.17488 l -1.39477,-1.05822 z"/></g></g></svg>