<svg xmlns="http://www.w3.org/2000/svg" xmlns:osb="http://www.openswatchbook.org/uri/2009/osb" xmlns:svg="http://www.w3.org/2000/svg" xmlns:xlink="http://www.w3.org/1999/xlink" id="svg7384" width="16" height="16" version="1.1" viewBox="0 0 16 16"><metadata id="metadata90"/><defs id="defs7386"><linearGradient id="linearGradient8074" osb:paint="solid"><stop id="stop8072" offset="0" style="stop-color:#be00be;stop-opacity:1"/></linearGradient><linearGradient id="linearGradient7561" osb:paint="solid"><stop id="stop7558" offset="0" style="stop-color:#a5a5a5;stop-opacity:1"/></linearGradient><linearGradient id="linearGradient7548" osb:paint="solid"><stop id="stop7546" offset="0" style="stop-color:#ebebeb;stop-opacity:1"/></linearGradient><linearGradient id="linearGradient7542" osb:paint="solid"><stop id="stop7538" offset="0" style="stop-color:#c9c9c9;stop-opacity:1"/></linearGradient><linearGradient id="linearGradient19282" gradientTransform="matrix(0,-735328.32,170712.69,0,2464326300,577972450)" osb:paint="solid"><stop id="stop19284" offset="0" style="stop-color:#b4b4b4;stop-opacity:1"/></linearGradient><linearGradient id="linearGradient19282-4" gradientTransform="matrix(0.34682586,0,0,0.30620888,6.64813,484.03851)" osb:paint="solid"><stop id="stop19284-0" offset="0" style="stop-color:#bebebe;stop-opacity:1"/></linearGradient><linearGradient id="linearGradient9912" x1="-79" x2="-65" y1="68" y2="68" gradientTransform="translate(324.83999,209.01606)" gradientUnits="userSpaceOnUse" xlink:href="#linearGradient19282-4"/><linearGradient id="linearGradient9918" x1="164" x2="174" y1="289.5" y2="289.5" gradientTransform="translate(324.83999,209.01606)" gradientUnits="userSpaceOnUse" xlink:href="#linearGradient19282-4"/><linearGradient id="linearGradient9920" x1="164" x2="174" y1="284" y2="284" gradientTransform="translate(324.83999,209.01606)" gradientUnits="userSpaceOnUse" xlink:href="#linearGradient19282-4"/></defs><g style="display:inline" id="tools" transform="translate(-34.20631,-273.53954)"><g id="gimp-tool-levels" transform="translate(-126.79389,-3.4604573)" style="display:inline"><path style="fill:url(#linearGradient9912);fill-opacity:1;stroke:none" id="rect5204" d="m -79,61 0,14 14,0 0,-14 z m 1,1 12,0 0,12 -12,0 z" transform="translate(241.0002,217)"/><path style="fill:url(#linearGradient9920);fill-opacity:1;stroke:none" id="path5209" d="m 164.0002,282 1,-1 0,5 1,-2 1,2 0,-4 1,0 0,1 1,1 0,1 1,1 1,-1 0,-2 1,1 0,0 0,-4 1,1 0,2 1,1 0,4 -10,0 z"/><rect id="rect5216" width="10" height="1" x="164" y="289" style="fill:url(#linearGradient9918);fill-opacity:1;stroke:none"/></g></g></svg>