<svg xmlns="http://www.w3.org/2000/svg" xmlns:osb="http://www.openswatchbook.org/uri/2009/osb" xmlns:svg="http://www.w3.org/2000/svg" xmlns:xlink="http://www.w3.org/1999/xlink" id="svg7384" width="16" height="16" version="1.1" viewBox="0 0 16 16"><metadata id="metadata90"/><defs id="defs7386"><linearGradient id="linearGradient8074" osb:paint="solid"><stop id="stop8072" offset="0" style="stop-color:#be00be;stop-opacity:1"/></linearGradient><linearGradient id="linearGradient7561" osb:paint="solid"><stop id="stop7558" offset="0" style="stop-color:#a5a5a5;stop-opacity:1"/></linearGradient><linearGradient id="linearGradient7548" osb:paint="solid"><stop id="stop7546" offset="0" style="stop-color:#ebebeb;stop-opacity:1"/></linearGradient><linearGradient id="linearGradient7542" osb:paint="solid"><stop id="stop7538" offset="0" style="stop-color:#c9c9c9;stop-opacity:1"/></linearGradient><linearGradient id="linearGradient19282" gradientTransform="matrix(0,-735328.32,170712.69,0,2464326300,577972450)" osb:paint="solid"><stop id="stop19284" offset="0" style="stop-color:#b4b4b4;stop-opacity:1"/></linearGradient><linearGradient id="linearGradient19282-4" gradientTransform="matrix(0.34682586,0,0,0.30620888,-93.351872,564.03851)" osb:paint="solid"><stop id="stop19284-0" offset="0" style="stop-color:#bebebe;stop-opacity:1"/></linearGradient><linearGradient id="linearGradient6902" x1="70.001" x2="76.04" y1="208.995" y2="208.995" gradientTransform="translate(322.73462,273.31913)" gradientUnits="userSpaceOnUse" xlink:href="#linearGradient19282-4"/><linearGradient id="linearGradient6908" x1="303.223" x2="311.777" y1="386.5" y2="386.5" gradientTransform="translate(250.7306,212.58154)" gradientUnits="userSpaceOnUse" xlink:href="#linearGradient19282-4"/><linearGradient id="linearGradient7499" x1="39.067" x2="47.052" y1="-15" y2="-15" gradientUnits="userSpaceOnUse" xlink:href="#linearGradient19282-4"/><linearGradient id="linearGradient7506" x1="35.052" x2="43.038" y1="-7.931" y2="-7.931" gradientUnits="userSpaceOnUse" xlink:href="#linearGradient19282-4"/><linearGradient id="linearGradient7511" x1="43.052" x2="51.037" y1="-7.931" y2="-7.931" gradientUnits="userSpaceOnUse" xlink:href="#linearGradient19282-4"/><linearGradient id="linearGradient7504" x1="36.858" x2="41.454" y1="-7.555" y2="-7.555" gradientUnits="userSpaceOnUse" xlink:href="#linearGradient19282-4"/><linearGradient id="linearGradient7509" x1="44" x2="49.542" y1="-7.5" y2="-7.5" gradientUnits="userSpaceOnUse" xlink:href="#linearGradient19282-4"/></defs><g style="display:inline" id="gimp-prefs-color-management" transform="translate(-35.04513,19.93072)"><g id="g14498"><path style="color:#000;font-style:normal;font-variant:normal;font-weight:400;font-stretch:normal;font-size:medium;line-height:normal;font-family:Sans;-inkscape-font-specification:Sans;text-indent:0;text-align:start;text-decoration:none;text-decoration-line:none;letter-spacing:normal;word-spacing:normal;text-transform:none;writing-mode:lr-tb;direction:ltr;baseline-shift:baseline;text-anchor:start;display:inline;overflow:visible;visibility:visible;fill:url(#linearGradient7499);fill-opacity:1;stroke:none;stroke-width:2.15384626;marker:none;enable-background:new" id="path8587" d="m 43.059524,-18.992857 c -2.202823,0 -3.992858,1.790033 -3.992858,3.992857 0,2.202825 1.790035,3.992858 3.992858,3.992858 2.202822,0 3.992857,-1.790033 3.992857,-3.992858 0,-2.202824 -1.790035,-3.992857 -3.992857,-3.992857 z m 0,1.052381 C 44.685876,-17.940476 46,-16.626352 46,-15 c 0,1.626353 -1.314124,2.940477 -2.940476,2.940477 -1.626353,0 -2.940477,-1.314124 -2.940477,-2.940477 0,-1.626352 1.314124,-2.940476 2.940477,-2.940476 z"/><path style="color:#000;font-style:normal;font-variant:normal;font-weight:400;font-stretch:normal;font-size:medium;line-height:normal;font-family:Sans;-inkscape-font-specification:Sans;text-indent:0;text-align:start;text-decoration:none;text-decoration-line:none;letter-spacing:normal;word-spacing:normal;text-transform:none;writing-mode:lr-tb;direction:ltr;baseline-shift:baseline;text-anchor:start;display:inline;overflow:visible;visibility:visible;fill:url(#linearGradient7506);fill-opacity:1;fill-rule:nonzero;stroke:none;stroke-width:2.15384626;marker:none;enable-background:new" id="path8591" d="m 39.045327,-11.923578 c -2.202823,0 -3.992858,1.790033 -3.992858,3.9928574 0,2.2028242 1.790035,3.9928576 3.992858,3.9928576 2.202822,0 3.992857,-1.7900334 3.992857,-3.9928576 0,-2.2028244 -1.790035,-3.9928574 -3.992857,-3.9928574 z m 0,1.052381 c 1.626352,0 2.940476,1.3141241 2.940476,2.9404764 0,1.6263522 -1.314124,2.9404765 -2.940476,2.9404765 -1.626353,0 -2.940477,-1.3141243 -2.940477,-2.9404765 0,-1.6263523 1.314124,-2.9404764 2.940477,-2.9404764 z"/><path style="color:#000;font-style:normal;font-variant:normal;font-weight:400;font-stretch:normal;font-size:medium;line-height:normal;font-family:Sans;-inkscape-font-specification:Sans;text-indent:0;text-align:start;text-decoration:none;text-decoration-line:none;letter-spacing:normal;word-spacing:normal;text-transform:none;writing-mode:lr-tb;direction:ltr;baseline-shift:baseline;text-anchor:start;display:inline;overflow:visible;visibility:visible;fill:url(#linearGradient7511);fill-opacity:1;fill-rule:nonzero;stroke:none;stroke-width:2.15384626;marker:none;enable-background:new" id="path8593" d="m 47.044477,-11.923578 c -2.202823,0 -3.992858,1.790033 -3.992858,3.9928574 0,2.2028242 1.790035,3.9928576 3.992858,3.9928576 2.202822,0 3.992857,-1.7900334 3.992857,-3.9928576 0,-2.2028244 -1.790035,-3.9928574 -3.992857,-3.9928574 z m 0,1.052381 c 1.626352,0 2.940476,1.3141241 2.940476,2.9404764 0,1.6263522 -1.314124,2.9404765 -2.940476,2.9404765 -1.626353,0 -2.940477,-1.3141243 -2.940477,-2.9404765 0,-1.6263523 1.314124,-2.9404764 2.940477,-2.9404764 z"/><ellipse style="opacity:.3;fill:url(#linearGradient7504);fill-opacity:1;stroke:none" id="path14494" cx="39.156" cy="-7.555" rx="2.298" ry="2.475" transform="matrix(0.87028524,0,0,0.80812198,4.9230797,-1.8942386)"/><ellipse style="fill:url(#linearGradient7509);fill-opacity:1;stroke:none" id="path14496" cx="46.771" cy="-7.5" rx="2.771" ry="2.5" transform="matrix(0.72180426,0,0,0.8,13.240611,-2)"/></g></g></svg>