<svg xmlns="http://www.w3.org/2000/svg" xmlns:osb="http://www.openswatchbook.org/uri/2009/osb" xmlns:svg="http://www.w3.org/2000/svg" xmlns:xlink="http://www.w3.org/1999/xlink" id="svg7384" width="16" height="16" version="1.1" viewBox="0 0 16 16"><metadata id="metadata90"/><defs id="defs7386"><linearGradient id="linearGradient8074" osb:paint="solid"><stop id="stop8072" offset="0" style="stop-color:#be00be;stop-opacity:1"/></linearGradient><linearGradient id="linearGradient7561" osb:paint="solid"><stop id="stop7558" offset="0" style="stop-color:#a5a5a5;stop-opacity:1"/></linearGradient><linearGradient id="linearGradient7548" osb:paint="solid"><stop id="stop7546" offset="0" style="stop-color:#ebebeb;stop-opacity:1"/></linearGradient><linearGradient id="linearGradient7542" osb:paint="solid"><stop id="stop7538" offset="0" style="stop-color:#c9c9c9;stop-opacity:1"/></linearGradient><linearGradient id="linearGradient19282" gradientTransform="matrix(0,-735328.32,170712.69,0,2464326300,577972450)" osb:paint="solid"><stop id="stop19284" offset="0" style="stop-color:#b4b4b4;stop-opacity:1"/></linearGradient><linearGradient id="linearGradient19282-4" gradientTransform="matrix(0.34682586,0,0,0.30620888,-13.35187,382.03851)" osb:paint="solid"><stop id="stop19284-0" offset="0" style="stop-color:#bebebe;stop-opacity:1"/></linearGradient><linearGradient id="linearGradient10174" x1="-97" x2="-87" y1="168.5" y2="168.5" gradientTransform="translate(520.93726,194.66866)" gradientUnits="userSpaceOnUse" xlink:href="#linearGradient19282-4"/><linearGradient id="linearGradient10176" x1="142" x2="156" y1="386.95" y2="386.95" gradientTransform="translate(520.93726,194.66866)" gradientUnits="userSpaceOnUse" xlink:href="#linearGradient19282-4"/></defs><g style="display:inline" id="stock" transform="translate(-63.126105,-27.63742)"><g id="gimp-image" transform="translate(-77.874095,-351.36258)" style="display:inline"><path style="fill:url(#linearGradient10176);fill-opacity:1;stroke:none" id="rect5882" d="m 142.0002,379.9 0,14.1 14,0 0,-14.1 z m 1,1.1 12,0 0,9 -12,0 z"/><path style="opacity:.3;fill:url(#linearGradient10174);fill-opacity:1;stroke:none" id="rect10683" d="m -97,165 0,7 1,0 c 0,-0.75515 0.671573,-1.375 1.5,-1.375 0.828427,0 1.5,0.61985 1.5,1.375 l 1,0 0,-1.5 c 1.4e-4,-0.98573 -0.7274,-1.47402 -2,-2.0625 0,0 0.02947,3.7e-4 0.25,0 0.40803,0.0835 1.38212,0.3501 1.75,0.59375 -0.09819,-0.35554 -0.14101,-0.89353 -0.4375,-1.34375 C -92.73401,167.23732 -94,166.34375 -94,166.34375 l 0.0625,-0.0312 c 0.05568,-0.0402 0.9453,0.7655 1.25,0.6875 -0.13515,-0.32497 -0.25949,-0.63468 -0.40625,-0.8125 l 0.1875,-0.0312 c 0.35629,0.59147 0.46684,0.72309 0.84375,1.15625 0.12472,0.0571 -0.03108,-0.0423 1.0625,-0.59375 L -91,167 c 0,0 -1.0625,0.30993 -0.75,0.90625 0.22248,0.30573 0.39823,1.01025 0.75,1.09375 0,0 0.85009,-1.22532 1.5,-1.625 0,0 -0.21923,-0.50879 -0.21875,-0.78125 3.7e-4,-0.20918 0.15625,-0.59375 0.15625,-0.59375 0.02319,0.39561 -0.0029,0.83091 0.28125,1.21875 L -88.34375,166 -88,166 c 0,0 -2.25088,2.3886 -2,2.78125 0.39455,-0.048 2,-0.34375 2,-0.34375 l 0,0.0625 c -1.04689,0.34884 -1.67111,0.68872 -2,1.5 l 0,2 3,0 0,-7 z" transform="translate(241.0002,217)"/></g></g></svg>