<svg xmlns="http://www.w3.org/2000/svg" xmlns:osb="http://www.openswatchbook.org/uri/2009/osb" xmlns:svg="http://www.w3.org/2000/svg" xmlns:xlink="http://www.w3.org/1999/xlink" id="svg7384" width="16" height="16" version="1.1" viewBox="0 0 16 16"><metadata id="metadata90"/><defs id="defs7386"><linearGradient id="linearGradient8074" osb:paint="solid"><stop id="stop8072" offset="0" style="stop-color:#be00be;stop-opacity:1"/></linearGradient><linearGradient id="linearGradient7561" osb:paint="solid"><stop id="stop7558" offset="0" style="stop-color:#a5a5a5;stop-opacity:1"/></linearGradient><linearGradient id="linearGradient7548" osb:paint="solid"><stop id="stop7546" offset="0" style="stop-color:#ebebeb;stop-opacity:1"/></linearGradient><linearGradient id="linearGradient7542" osb:paint="solid"><stop id="stop7538" offset="0" style="stop-color:#c9c9c9;stop-opacity:1"/></linearGradient><linearGradient id="linearGradient19282" gradientTransform="matrix(0,-735328.32,170712.69,0,2464326300,577972450)" osb:paint="solid"><stop id="stop19284" offset="0" style="stop-color:#b4b4b4;stop-opacity:1"/></linearGradient><linearGradient id="linearGradient19282-4" gradientTransform="matrix(0.34682586,0,0,0.30620888,-159.35206,741.03851)" osb:paint="solid"><stop id="stop19284-0" offset="0" style="stop-color:#bebebe;stop-opacity:1"/></linearGradient><linearGradient id="linearGradient8137" x1="1.982" x2="4" y1="30" y2="30" gradientTransform="translate(1796.3915,646.92464)" gradientUnits="userSpaceOnUse" xlink:href="#linearGradient19282-4"/><linearGradient id="linearGradient8141" x1="16" x2="30" y1="8" y2="8" gradientTransform="translate(897.47629,333.46232)" gradientUnits="userSpaceOnUse" xlink:href="#linearGradient19282-4"/></defs><g style="display:inline" id="preferences" transform="translate(-284.15567,-175.46232)"><g id="gimp-prefs-image-title" transform="translate(289.15566,155.46232)"><g id="g724" transform="translate(-20,20)"><path style="fill:url(#linearGradient8141);fill-opacity:1;stroke:none" id="path15296" d="m 16,1 0,14 14,0 0,-14 z m 1,1 12,0 0,2 -12,0 z m 0,3 12,0 0,9 -12,0 z"/></g><path id="path12109-0" d="m 901.88086,339.46289 -3.97852,4 3.04102,0 c 0.01,1.00133 0.005,2.00293 -0.0469,3 l 2,0 c 0.0163,-0.99738 0.004,-1.9987 0.002,-3 l 3.0039,0 -3,-2.98437 c -1e-5,-0.005 2e-5,-0.0104 0,-0.0156 l -0.0156,0 z" transform="translate(-898.91523,-313.46232)" style="fill:url(#linearGradient8137);fill-opacity:1;stroke:none"/></g></g></svg>