<svg xmlns="http://www.w3.org/2000/svg" xmlns:osb="http://www.openswatchbook.org/uri/2009/osb" xmlns:svg="http://www.w3.org/2000/svg" xmlns:xlink="http://www.w3.org/1999/xlink" id="svg7384" width="16" height="16" version="1.1" viewBox="0 0 16 16"><metadata id="metadata90"/><defs id="defs7386"><linearGradient id="linearGradient8074" osb:paint="solid"><stop id="stop8072" offset="0" style="stop-color:#be00be;stop-opacity:1"/></linearGradient><linearGradient id="linearGradient7561" osb:paint="solid"><stop id="stop7558" offset="0" style="stop-color:#a5a5a5;stop-opacity:1"/></linearGradient><linearGradient id="linearGradient7548" osb:paint="solid"><stop id="stop7546" offset="0" style="stop-color:#ebebeb;stop-opacity:1"/></linearGradient><linearGradient id="linearGradient7542" osb:paint="solid"><stop id="stop7538" offset="0" style="stop-color:#c9c9c9;stop-opacity:1"/></linearGradient><linearGradient id="linearGradient19282" gradientTransform="matrix(0,-735328.32,170712.69,0,2464326300,577972450)" osb:paint="solid"><stop id="stop19284" offset="0" style="stop-color:#b4b4b4;stop-opacity:1"/></linearGradient><linearGradient id="linearGradient19282-4" gradientTransform="matrix(0.34682586,0,0,0.30620888,-159.35207,761.03851)" osb:paint="solid"><stop id="stop19284-0" offset="0" style="stop-color:#bebebe;stop-opacity:1"/></linearGradient><linearGradient id="linearGradient8234" x1="-5" x2="11" y1="8" y2="8" gradientTransform="translate(854.14759,333.46232)" gradientUnits="userSpaceOnUse" xlink:href="#linearGradient19282-4"/></defs><g style="display:inline" id="preferences" transform="translate(-240.82698,-175.46232)"><g id="gimp-prefs-help-system" transform="translate(245.82698,175.46232)"><path style="fill:#bebebe;fill-opacity:1;stroke:none" id="path22763" d="M -0.03125,0.59375 C -2.0210789,1.406758 -3.5669784,3.0094542 -4.375,5 l 2.90625,0.78125 c 0.48983518,-0.9531908 1.28860519,-1.7349381 2.25,-2.21875 z m 6.0625,0 -0.8125,2.96875 c 0.9613948,0.4838119 1.7601648,1.2655592 2.25,2.21875 L 10.375,5 C 9.5669784,3.0094542 8.0210789,1.406758 6.03125,0.59375 Z m -7.5,9.625 L -4.375,11 c 0.8080216,1.990546 2.3539211,3.593242 4.34375,4.40625 l 0.8125,-2.96875 c -0.96139481,-0.483812 -1.76016482,-1.265559 -2.25,-2.21875 z m 8.90625,0 c -0.4838119,0.961395 -1.2655592,1.760165 -2.21875,2.25 L 6,15.375 c 1.9905458,-0.808022 3.593242,-2.353921 4.40625,-4.34375 z"/><path id="path22768" d="m 3,0 c -4.418278,0 -8,3.5817219 -8,8 0,4.418278 3.581722,8 8,8 4.418278,0 8,-3.581722 8,-8 C 11,3.5817219 7.418278,0 3,0 Z M 3,3 C 5.761424,3 8,5.2385763 8,8 8,10.761424 5.761424,13 3,13 0.238576,13 -2,10.761424 -2,8 -2,5.2385763 0.238576,3 3,3 Z" style="opacity:.3;fill:url(#linearGradient8234);fill-opacity:1;stroke:none"/></g></g></svg>