<svg xmlns="http://www.w3.org/2000/svg" xmlns:osb="http://www.openswatchbook.org/uri/2009/osb" xmlns:svg="http://www.w3.org/2000/svg" xmlns:xlink="http://www.w3.org/1999/xlink" id="svg7384" width="16.014" height="16" version="1.1" viewBox="0 0 16.014 16"><metadata id="metadata90"/><defs id="defs7386"><linearGradient id="linearGradient8074" osb:paint="solid"><stop id="stop8072" offset="0" style="stop-color:#be00be;stop-opacity:1"/></linearGradient><linearGradient id="linearGradient7561" osb:paint="solid"><stop id="stop7558" offset="0" style="stop-color:#a5a5a5;stop-opacity:1"/></linearGradient><linearGradient id="linearGradient7548" osb:paint="solid"><stop id="stop7546" offset="0" style="stop-color:#ebebeb;stop-opacity:1"/></linearGradient><linearGradient id="linearGradient7542" osb:paint="solid"><stop id="stop7538" offset="0" style="stop-color:#c9c9c9;stop-opacity:1"/></linearGradient><linearGradient id="linearGradient19282" gradientTransform="matrix(0,-735328.32,170712.69,0,2464326300,577972450)" osb:paint="solid"><stop id="stop19284" offset="0" style="stop-color:#b4b4b4;stop-opacity:1"/></linearGradient><linearGradient id="linearGradient19282-4" gradientTransform="matrix(0.34682586,0,0,0.30620888,-154.35207,-275.32375)" osb:paint="solid"><stop id="stop19284-0" offset="0" style="stop-color:#bebebe;stop-opacity:1"/></linearGradient><linearGradient id="linearGradient7296" x1="0" x2="8" y1="1044.364" y2="1044.364" gradientTransform="translate(481.1189,132.94795)" gradientUnits="userSpaceOnUse" xlink:href="#linearGradient19282-4"/><linearGradient id="linearGradient7302" x1="-15.07" x2="-2.553" y1="-1044.321" y2="-1044.321" gradientTransform="translate(-481.1189,-132.94795)" gradientUnits="userSpaceOnUse" xlink:href="#linearGradient19282-4"/><linearGradient id="linearGradient7308" x1="2" x2="7" y1="1049.863" y2="1049.863" gradientTransform="translate(481.1189,132.94795)" gradientUnits="userSpaceOnUse" xlink:href="#linearGradient19282-4"/><linearGradient id="linearGradient7308-3" x1="2" x2="7" y1="1049.863" y2="1049.863" gradientUnits="userSpaceOnUse" xlink:href="#linearGradient19282-4"/><linearGradient id="linearGradient7296-7" x1="0" x2="8" y1="1044.364" y2="1044.364" gradientUnits="userSpaceOnUse" xlink:href="#linearGradient19282-4"/><linearGradient id="linearGradient7302-5" x1="-15.07" x2="-2.553" y1="-1044.321" y2="-1044.321" gradientTransform="scale(-1)" gradientUnits="userSpaceOnUse" xlink:href="#linearGradient19282-4"/></defs><g style="display:inline" id="gimp-reset" transform="matrix(1.0008752,0,0,1.000209,0,-1036.5822)"><rect id="rect30123-5-8" width="16" height="15.997" x="0" y="1036.366" style="opacity:0;fill:none;stroke:none;stroke-width:.99989283"/><path style="fill:url(#linearGradient7308-3);fill-opacity:1;stroke:none;stroke-width:1.24986601" id="path30125-2-6" d="m 7,1049.8628 a 2.5,2.4994643 0 0 1 -2.5,2.4995 2.5,2.4994643 0 0 1 -2.5,-2.4995 2.5,2.4994643 0 0 1 2.5,-2.4995 2.5,2.4994643 0 0 1 2.5,2.4995 z"/><path id="path30137-9-5" d="m 4,1046.3635 -4,-3.9992 h 8 z" style="fill:url(#linearGradient7296-7);fill-opacity:1;stroke:none;stroke-width:.99989283"/><path style="color:#000;font-style:normal;font-variant:normal;font-weight:400;font-stretch:normal;font-size:medium;line-height:normal;font-family:sans-serif;font-variant-ligatures:normal;font-variant-position:normal;font-variant-caps:normal;font-variant-numeric:normal;font-variant-alternates:normal;font-feature-settings:normal;text-indent:0;text-align:start;text-decoration:none;text-decoration-line:none;text-decoration-style:solid;text-decoration-color:#000;letter-spacing:normal;word-spacing:normal;text-transform:none;writing-mode:lr-tb;direction:ltr;text-orientation:mixed;dominant-baseline:auto;baseline-shift:baseline;text-anchor:start;white-space:normal;shape-padding:0;clip-rule:nonzero;display:inline;overflow:visible;visibility:visible;opacity:1;isolation:auto;mix-blend-mode:normal;color-interpolation:sRGB;color-interpolation-filters:linearRGB;solid-color:#000;solid-opacity:1;vector-effect:none;fill:url(#linearGradient7302-5);fill-opacity:1;fill-rule:nonzero;stroke:none;stroke-width:1.99979103;stroke-linecap:butt;stroke-linejoin:miter;stroke-miterlimit:4;stroke-dasharray:none;stroke-dashoffset:0;stroke-opacity:1;color-rendering:auto;image-rendering:auto;shape-rendering:auto;text-rendering:auto;enable-background:accumulate" id="path3953-6-6" d="m 8.7167969,1050.8711 c 2.5588421,0.04 4.8716651,-1.5623 5.8554691,-3.9941 0.983803,-2.4319 0.48634,-5.2392 -1.285157,-7.1387 -1.771496,-1.8995 -4.5088688,-2.4977 -6.8671871,-1.4766 -2.3583184,1.0211 -3.8671875,3.4214 -3.8671875,6.0567 h 2 c 0,-1.8726 1.0720702,-3.5323 2.6621094,-4.2207 1.5900391,-0.6885 3.3861302,-0.3058 4.6093752,1.0058 1.223245,1.3117 1.58764,3.3102 0.894531,5.0235 -0.693109,1.7132 -2.262903,2.7729 -3.9707031,2.746 z"/></g></svg>