<svg xmlns="http://www.w3.org/2000/svg" xmlns:osb="http://www.openswatchbook.org/uri/2009/osb" xmlns:svg="http://www.w3.org/2000/svg" xmlns:xlink="http://www.w3.org/1999/xlink" id="svg7384" width="16.014" height="16" version="1.1" viewBox="0 0 16.014 16"><metadata id="metadata90"/><defs id="defs7386"><linearGradient id="linearGradient8074" osb:paint="solid"><stop style="stop-color:#be00be;stop-opacity:1" id="stop8072" offset="0"/></linearGradient><linearGradient id="linearGradient7561" osb:paint="solid"><stop style="stop-color:#a5a5a5;stop-opacity:1" id="stop7558" offset="0"/></linearGradient><linearGradient id="linearGradient7548" osb:paint="solid"><stop style="stop-color:#ebebeb;stop-opacity:1" id="stop7546" offset="0"/></linearGradient><linearGradient id="linearGradient7542" osb:paint="solid"><stop style="stop-color:#c9c9c9;stop-opacity:1" id="stop7538" offset="0"/></linearGradient><linearGradient id="linearGradient19282" gradientTransform="matrix(0,-735328.32,170712.69,0,2464326300,577972450)" osb:paint="solid"><stop style="stop-color:#b4b4b4;stop-opacity:1" id="stop19284" offset="0"/></linearGradient><linearGradient id="linearGradient19282-4" gradientTransform="matrix(0.34682586,0,0,0.30620888,6.6481284,342.03851)" osb:paint="solid"><stop style="stop-color:#bebebe;stop-opacity:1" id="stop19284-0" offset="0"/></linearGradient><linearGradient id="linearGradient7662" x1="161" x2="165" y1="425" y2="425" gradientTransform="translate(485.91995,238.83038)" gradientUnits="userSpaceOnUse" xlink:href="#linearGradient19282-4"/><linearGradient id="linearGradient7666" x1="-73" x2="-70" y1="206.5" y2="206.5" gradientTransform="translate(364.43997,179.12307)" gradientUnits="userSpaceOnUse" xlink:href="#linearGradient19282-4"/><linearGradient id="linearGradient7668" x1="173" x2="177" y1="425" y2="425" gradientTransform="translate(485.91995,238.83038)" gradientUnits="userSpaceOnUse" xlink:href="#linearGradient19282-4"/><linearGradient id="linearGradient7674" x1="163" x2="175" y1="425" y2="425" gradientTransform="translate(485.91995,238.83038)" gradientUnits="userSpaceOnUse" xlink:href="#linearGradient19282-4"/><linearGradient id="linearGradient7676" x1="-79" x2="-65" y1="213" y2="213" gradientTransform="translate(485.91995,238.83038)" gradientUnits="userSpaceOnUse" xlink:href="#linearGradient19282-4"/><linearGradient id="linearGradient7662-3" x1="161" x2="165" y1="425" y2="425" gradientUnits="userSpaceOnUse" xlink:href="#linearGradient19282-4"/><linearGradient id="linearGradient7668-6" x1="173" x2="177" y1="425" y2="425" gradientUnits="userSpaceOnUse" xlink:href="#linearGradient19282-4"/><linearGradient id="linearGradient7674-2" x1="163" x2="175" y1="425" y2="425" gradientUnits="userSpaceOnUse" xlink:href="#linearGradient19282-4"/><linearGradient id="linearGradient7666-9" x1="-73" x2="-70" y1="206.5" y2="206.5" gradientUnits="userSpaceOnUse" xlink:href="#linearGradient19282-4"/><linearGradient id="linearGradient7676-1" x1="-79" x2="-65" y1="213" y2="213" gradientUnits="userSpaceOnUse" xlink:href="#linearGradient19282-4"/></defs><g id="gimp-paths" transform="matrix(1.0008752,0,0,1,-161.14111,-419)" style="display:inline"><rect style="fill:url(#linearGradient7662-3);fill-opacity:1;stroke:none" id="rect11849" width="4" height="4" x="161" y="423"/><rect id="rect11851" width="4" height="4" x="173" y="423" style="fill:url(#linearGradient7668-6);fill-opacity:1;stroke:none"/><rect style="fill:url(#linearGradient7674-2);fill-opacity:1;stroke:none" id="rect11853" width="12" height="2" x="163" y="424"/><path id="path11855" d="m -70,206.5 a 1.5,1.5 0 0 1 -1.5,1.5 1.5,1.5 0 0 1 -1.5,-1.5 1.5,1.5 0 0 1 1.5,-1.5 1.5,1.5 0 0 1 1.5,1.5 z" transform="matrix(1.3333333,0,0,1.3333312,264.33353,149.66712)" style="fill:url(#linearGradient7666-9);fill-opacity:1;stroke:none"/><path style="fill:url(#linearGradient7676-1);fill-opacity:1;stroke:none" id="path11857" d="m -65,216 c 0,-3.31371 -3.13401,-6 -7,-6 -3.86599,0 -7,2.68629 -7,6 h 2.015625 c 0.287851,-2.25391 2.407621,-4 4.984375,-4 2.576754,0 4.696524,1.74609 4.984375,4 z" transform="translate(241.0002,217)"/></g></svg>