<svg xmlns="http://www.w3.org/2000/svg" xmlns:osb="http://www.openswatchbook.org/uri/2009/osb" xmlns:svg="http://www.w3.org/2000/svg" xmlns:xlink="http://www.w3.org/1999/xlink" id="svg7384" width="16" height="16" version="1.1" viewBox="0 0 16 16"><metadata id="metadata90"/><defs id="defs7386"><linearGradient id="linearGradient8074" osb:paint="solid"><stop id="stop8072" offset="0" style="stop-color:#be00be;stop-opacity:1"/></linearGradient><linearGradient id="linearGradient7561" osb:paint="solid"><stop id="stop7558" offset="0" style="stop-color:#a5a5a5;stop-opacity:1"/></linearGradient><linearGradient id="linearGradient7548" osb:paint="solid"><stop id="stop7546" offset="0" style="stop-color:#ebebeb;stop-opacity:1"/></linearGradient><linearGradient id="linearGradient7542" osb:paint="solid"><stop id="stop7538" offset="0" style="stop-color:#c9c9c9;stop-opacity:1"/></linearGradient><linearGradient id="linearGradient19282" gradientTransform="matrix(0,-735328.32,170712.69,0,2464326300,577972450)" osb:paint="solid"><stop id="stop19284" offset="0" style="stop-color:#b4b4b4;stop-opacity:1"/></linearGradient><linearGradient id="linearGradient19282-4" gradientTransform="matrix(0.34682586,0,0,0.30620888,-139.35207,801.03851)" osb:paint="solid"><stop id="stop19284-0" offset="0" style="stop-color:#bebebe;stop-opacity:1"/></linearGradient><linearGradient id="linearGradient8286" x1="15" x2="31" y1="-32" y2="-32" gradientTransform="translate(774.93754,420.28591)" gradientUnits="userSpaceOnUse" xlink:href="#linearGradient19282-4"/><linearGradient id="linearGradient7197" x1="0" x2="16" y1="1044.362" y2="1044.362" gradientTransform="matrix(0.62499996,0,0,0.62499996,293.84363,-451.92855)" gradientUnits="userSpaceOnUse" xlink:href="#linearGradient19282-4"/></defs><g style="display:inline" id="preferences" transform="translate(-176.61693,-222.28591)"><g id="gimp-prefs-folders" transform="translate(161.61693,262.28591)"><path style="display:inline;fill:url(#linearGradient8286);fill-opacity:1;stroke:none" id="rect3845" d="M 0.53125 0 C 0.24212 0 0 0.24212 0 0.53125 L 0 15.46875 C 0 15.76725 0.23264 16 0.53125 16 L 15.46875 16 C 15.76735 16 16 15.76735 16 15.46875 L 16 5.53125 C 16 5.24215 15.75788 5 15.46875 5 L 3 5 L 3 13.5 C 3 13.777 2.777 14 2.5 14 C 2.223 14 2 13.777 2 13.5 L 2 4.5 C 2 4.223 2.223 4 2.5 4 L 5.46875 4 L 14 4 L 14 2.59375 C 14 2.26655 13.73334 2 13.40625 2 L 6 2 L 6 0.53125 C 6 0.2421 5.75788 0 5.46875 0 L 0.53125 0 z M 6.8007812 7 L 15 7 L 12.199219 14 L 4 14 L 6.7011719 7.2480469 L 6.8007812 7 z M 7.2792969 7.8515625 L 5.1601562 13.148438 L 11.720703 13.148438 L 13.839844 7.8515625 L 7.2792969 7.8515625 z" transform="translate(15,-40)"/><path style="color:#bebebe;display:inline;overflow:visible;visibility:visible;fill:none;stroke:none;stroke-width:2;marker:none;enable-background:accumulate" id="rect14152" d="m 15,-40 h 16 v 16 H 15 Z"/></g></g></svg>