<svg xmlns="http://www.w3.org/2000/svg" xmlns:osb="http://www.openswatchbook.org/uri/2009/osb" xmlns:svg="http://www.w3.org/2000/svg" xmlns:xlink="http://www.w3.org/1999/xlink" id="svg9286" width="16" height="16" version="1.1" viewBox="0 0 4.233 4.233"><title id="title13765">GIMP Clip-Warning Display Filter</title><defs id="defs9280"><linearGradient id="linearGradient7569" x1="0" x2="16" y1="1044.362" y2="1044.362" gradientTransform="matrix(0.26458333,0,0,0.26458333,158.42384,85.500708)" gradientUnits="userSpaceOnUse" xlink:href="#linearGradient19282-4"/><linearGradient id="linearGradient19282-4" gradientTransform="matrix(0.34682586,0,0,0.30620888,-154.35207,-275.32445)" osb:paint="solid"><stop id="stop19284-0" offset="0" style="stop-color:#bebebe;stop-opacity:1"/></linearGradient></defs><metadata id="metadata9283"/><g id="layer1" transform="translate(0,-292.76665)"><g id="gimp-display-filter-clip-warning"><g id="g22265"><path style="display:inline;fill:#bebebe;fill-opacity:1;stroke:none;stroke-width:.26458332" id="rect28283-2-7" d="M 0.26458333,292.76645 C 0.09142677,292.76645 0,292.74926 0,293.03104 v 3.70416 c 0,0.28168 0.09142677,0.26459 0.26458333,0.26459 H 2.1166667 3.96875 c 0.1676067,0 0.2559407,0.004 0.2645833,-0.26459 v 0 -1.85208 -1.85208 0 C 4.224692,292.7623 4.1363567,292.76645 3.96875,292.76645 H 2.1166667 Z M 0.79375,293.03104 h 1.3229167 1.3229166 c 0.1731566,0 0.5291667,0.3004 0.5291667,0.58208 v 2.54 c 0,0.28168 -0.3560101,0.58208 -0.5291667,0.58208 H 2.1166667 0.79375 c -0.17315656,0 -0.52916667,-0.37978 -0.52916667,-0.66145 v -2.38125 c 0,-0.28168 0.35724354,-0.6821 0.52916667,-0.66146 z"/><g id="g22210" transform="translate(0,292.76665)"><g id="g22147"><path style="fill:#bebebe;fill-opacity:1;fill-rule:evenodd;stroke:none;stroke-width:.26458332px;stroke-linecap:butt;stroke-linejoin:miter;stroke-opacity:1" id="path22131" d="M 0.26458333,0.26458333 0.79374999,0.79374999 0.26458333,1.3229166 Z"/><path style="fill:#bebebe;fill-opacity:1;fill-rule:evenodd;stroke:none;stroke-width:.26458332px;stroke-linecap:butt;stroke-linejoin:miter;stroke-opacity:1" id="path22135" d="m 1.3229166,1.3229166 0.5291667,0.5291667 -1.58749997,1.5875 V 2.38125 Z"/><path style="fill:#bebebe;fill-opacity:1;fill-rule:evenodd;stroke:none;stroke-width:.26458332px;stroke-linecap:butt;stroke-linejoin:miter;stroke-opacity:1" id="path22137" d="M 2.38125,2.38125 2.9104166,2.9104166 1.8520833,3.96875 H 0.79374999 Z"/><path style="fill:#bebebe;fill-opacity:1;fill-rule:evenodd;stroke:none;stroke-width:.26458332px;stroke-linecap:butt;stroke-linejoin:miter;stroke-opacity:1" id="path22141" d="M 3.4395833,3.4395833 3.96875,3.96875 H 2.9104166 Z"/></g><g id="g22159"><path style="fill:#bebebe;fill-opacity:1;fill-rule:evenodd;stroke:none;stroke-width:.26458332px;stroke-linecap:butt;stroke-linejoin:miter;stroke-opacity:1" id="path22150" d="M 0.79374999,0.79374999 1.3229166,1.3229166 2.38125,0.26458333 H 1.3229166 Z"/><path style="fill:#bebebe;fill-opacity:1;fill-rule:evenodd;stroke:none;stroke-width:.26458332px;stroke-linecap:butt;stroke-linejoin:miter;stroke-opacity:1" id="path22152" d="M 1.8520833,1.8520833 2.38125,2.38125 3.96875,0.79374999 V 0.26458333 H 3.4395833 Z"/><path style="fill:#bebebe;fill-opacity:1;fill-rule:evenodd;stroke:none;stroke-width:.26458332px;stroke-linecap:butt;stroke-linejoin:miter;stroke-opacity:1" id="path22154" d="M 2.9104166,2.9104166 3.4395833,3.4395833 3.96875,2.9104166 V 1.8520833 Z"/></g></g></g><rect id="rect22267" width="4.233" height="4.233" x="0" y="292.767" style="fill:none;fill-rule:evenodd;stroke:none;stroke-width:.26458332px;stroke-linecap:butt;stroke-linejoin:miter;stroke-opacity:1"/></g></g></svg>