<svg xmlns="http://www.w3.org/2000/svg" xmlns:osb="http://www.openswatchbook.org/uri/2009/osb" xmlns:svg="http://www.w3.org/2000/svg" xmlns:xlink="http://www.w3.org/1999/xlink" id="svg7384" width="16" height="16" version="1.1" viewBox="0 0 16 16"><metadata id="metadata90"/><defs id="defs7386"><linearGradient id="linearGradient8074" osb:paint="solid"><stop id="stop8072" offset="0" style="stop-color:#be00be;stop-opacity:1"/></linearGradient><linearGradient id="linearGradient7561" osb:paint="solid"><stop id="stop7558" offset="0" style="stop-color:#a5a5a5;stop-opacity:1"/></linearGradient><linearGradient id="linearGradient7548" osb:paint="solid"><stop id="stop7546" offset="0" style="stop-color:#ebebeb;stop-opacity:1"/></linearGradient><linearGradient id="linearGradient7542" osb:paint="solid"><stop id="stop7538" offset="0" style="stop-color:#c9c9c9;stop-opacity:1"/></linearGradient><linearGradient id="linearGradient19282" gradientTransform="matrix(0,-735328.32,170712.69,0,2464326300,577972450)" osb:paint="solid"><stop id="stop19284" offset="0" style="stop-color:#b4b4b4;stop-opacity:1"/></linearGradient><linearGradient id="linearGradient19282-4" gradientTransform="matrix(0.34682586,0,0,0.30620888,-73.35187,242.03851)" osb:paint="solid"><stop id="stop19284-0" offset="0" style="stop-color:#bebebe;stop-opacity:1"/></linearGradient><linearGradient id="linearGradient6878" x1="40.406" x2="81.401" y1="78.405" y2="78.405" gradientTransform="translate(1170.3596,580.365)" gradientUnits="userSpaceOnUse" xlink:href="#linearGradient19282-4"/></defs><g style="display:inline" id="stock" transform="translate(58.12511,-30.39987)"><g id="gimp-gegl" transform="translate(-139.12531,-488.60013)" style="display:inline"><path style="display:inline;overflow:visible;visibility:visible;fill:url(#linearGradient6878);fill-opacity:1;stroke:none;stroke-width:1;marker:none;enable-background:accumulate" id="path3189" d="M 59.6875,57.875 C 49.147041,58.021389 40.40625,67.096604 40.40625,79 c 0,6.050682 2.118302,11.000062 5.8125,14.46875 3.694198,3.468688 8.998381,5.46875 15.5,5.46875 12.612219,0 21.65223,-12.12837 19.3125,-24.96875 l -19.28125,0 c -2.889253,0 -4.363689,2.09409 -4.5,4.1875 -0.06815,1.046705 0.25025,2.05311 0.875,2.75 0.62475,0.69689 1.583964,1.163811 3.15625,1.09375 1.370078,-0.06105 1.690594,-0.494339 2.28125,-1.1875 0.590656,-0.693161 1.446743,-1.783802 3.0625,-1.9375 0.665199,-0.06328 1.467338,0.07061 2.21875,0.53125 0.751412,0.460644 1.402871,1.327073 1.5,2.5 0.200279,2.418562 -0.82569,4.51044 -2.46875,5.875 -1.64306,1.36456 -3.86446,2.076308 -6.25,2.0625 C 53.831368,89.79837 49.526112,84.072128 49.375,78.40625 49.29944,75.573311 50.227745,72.718596 52.1875,70.5625 54.147255,68.406404 57.151881,67 61.03125,67 l 17.0625,0 C 75.000588,62.43761 69.526549,57.738352 59.6875,57.875 Z" transform="matrix(0.34150705,0,0,0.34018438,68.201181,500.31183)"/></g></g></svg>