<svg xmlns="http://www.w3.org/2000/svg" xmlns:svg="http://www.w3.org/2000/svg" id="svg30571" width="14" height="14" version="1.1" viewBox="0 0 14 14"><metadata id="metadata30576"/><g id="layer1" transform="translate(-1.5,-1038.9247)"><g style="display:inline" id="gimp-pattern" transform="translate(0.5,1.56248)"><g id="object-tweak-duplicate" transform="translate(-255,249.00002)"><path style="color:#000;fill:#bebebe;fill-opacity:1;stroke-width:.138679" id="use5685" d="m 260.4062,788.3622 c 0.1274,1.3311 1.2293,2.375 2.5938,2.375 1.3645,0 2.4664,-1.0439 2.5937,-2.375 z"/><path style="color:#000;fill:#bebebe;fill-opacity:1;stroke-width:.138679" id="use5828" d="m 263,799.5809 c -1.4516,0 -2.625,1.2047 -2.625,2.6563 0,0.045 0,0.081 0,0.125 h 5.25 c 0,-0.045 0,-0.08 0,-0.125 0,-1.4516 -1.1734,-2.6563 -2.625,-2.6563 z"/><path style="color:#000;fill:#bebebe;fill-opacity:1;stroke-width:.138679" id="path5885" d="m 270,792.5497 c -1.4208,0.033 -2.5625,1.1961 -2.5625,2.625 0,1.4288 1.1417,2.5916 2.5625,2.625 z"/><path style="color:#000;fill:#bebebe;fill-opacity:1;stroke-width:.138679" id="path5889" d="m 256,792.5497 v 5.25 c 1.4225,-0.034 2.5625,-1.1945 2.5625,-2.625 0,-1.4304 -1.1403,-2.5912 -2.5625,-2.625 z"/><path style="color:#000;fill:#bebebe;fill-opacity:1;stroke-width:.138679" id="path5893" d="m 267.4687,788.3622 c 0.1254,1.3106 1.1959,2.3435 2.5313,2.375 v -2.375 z"/><path style="color:#000;fill:#bebebe;fill-opacity:1;stroke-width:.138679" id="path5895" d="m 256,788.3622 v 2.375 c 1.3385,-0.032 2.4077,-1.0615 2.5312,-2.375 z"/><path style="color:#000;fill:#bebebe;fill-opacity:1;stroke-width:.138679" id="path5897" d="m 270,799.6122 c -1.4205,0.034 -2.5625,1.1964 -2.5625,2.625 0,0.041 0,0.084 0,0.125 H 270 Z"/><path style="color:#000;fill:#bebebe;fill-opacity:1;stroke-width:.138679" id="path5899" d="m 256,799.5809 v 2.7813 h 2.5625 c 0,-0.045 0,-0.08 0,-0.125 0,-1.4306 -1.1401,-2.622 -2.5625,-2.6563 z"/><path style="color:#000;fill:#bebebe;fill-opacity:1;stroke-width:.24945228" id="path5911" d="m 265,795.36218 a 2,2 0 0 1 -2,2 2,2 0 0 1 -2,-2 2,2 0 0 1 2,-2 2,2 0 0 1 2,2 z"/></g></g></g></svg>