<svg xmlns="http://www.w3.org/2000/svg" xmlns:osb="http://www.openswatchbook.org/uri/2009/osb" xmlns:svg="http://www.w3.org/2000/svg" xmlns:xlink="http://www.w3.org/1999/xlink" id="svg7384" width="16" height="16" version="1.1" viewBox="0 0 16 16"><metadata id="metadata90"/><defs id="defs7386"><linearGradient id="linearGradient8074" osb:paint="solid"><stop id="stop8072" offset="0" style="stop-color:#be00be;stop-opacity:1"/></linearGradient><linearGradient id="linearGradient7561" osb:paint="solid"><stop id="stop7558" offset="0" style="stop-color:#a5a5a5;stop-opacity:1"/></linearGradient><linearGradient id="linearGradient7548" osb:paint="solid"><stop id="stop7546" offset="0" style="stop-color:#ebebeb;stop-opacity:1"/></linearGradient><linearGradient id="linearGradient7542" osb:paint="solid"><stop id="stop7538" offset="0" style="stop-color:#c9c9c9;stop-opacity:1"/></linearGradient><linearGradient id="linearGradient19282" gradientTransform="matrix(0,-735328.32,170712.69,0,2464326300,577972450)" osb:paint="solid"><stop id="stop19284" offset="0" style="stop-color:#b4b4b4;stop-opacity:1"/></linearGradient><linearGradient id="linearGradient19282-4" gradientTransform="matrix(0.34682586,0,0,0.30620888,-139.35206,761.03851)" osb:paint="solid"><stop id="stop19284-0" offset="0" style="stop-color:#bebebe;stop-opacity:1"/></linearGradient><linearGradient id="linearGradient7486" x1="19" x2="22" y1="6.5" y2="6.5" gradientTransform="translate(745.82587,355.96911)" gradientUnits="userSpaceOnUse" xlink:href="#linearGradient19282-4"/><linearGradient id="linearGradient7488" x1="18" x2="28" y1="9.864" y2="9.864" gradientTransform="translate(745.82587,355.96911)" gradientUnits="userSpaceOnUse" xlink:href="#linearGradient19282-4"/><linearGradient id="linearGradient7490" x1="16" x2="30" y1="8" y2="8" gradientTransform="translate(745.82587,355.96911)" gradientUnits="userSpaceOnUse" xlink:href="#linearGradient19282-4"/></defs><g id="g4309"><g id="preferences" transform="translate(-132.50525,-197.96911)" style="display:inline"><g id="gimp-prefs-image-windows" transform="translate(117.50524,197.96911)"><path id="rect5882-9" d="m 16,1 0,14 14,0 0,-14 z m 1,1 12,0 0,1 -12,0 z m 0,2.09375 12,0 L 29,13 17,13 Z" style="fill:url(#linearGradient7490);fill-opacity:1;stroke:none"/></g></g><g id="g4171" transform="matrix(1.1966833,0,0,1.158096,43.039379,-1163.3584)"><g id="snap" transform="matrix(0.28107138,-0.24237435,0.26879059,0.25344821,-326.38151,1018.9568)" style="stroke:none;stroke-opacity:1"><g id="g22410" style="stroke:none;stroke-opacity:1"><path style="fill:#bebebe;fill-opacity:1;stroke:none;stroke-opacity:1" id="rect22373" d="m 562.5,505.36212 c 0.831,0 1.5,0.669 1.5,1.5 0,0.831 -0.669,1.5 -1.5,1.5 -0.831,0 -1.5,-0.669 -1.5,-1.5 0,-0.831 0.669,-1.5 1.5,-1.5 z"/><path style="fill:#bebebe;fill-opacity:1;stroke:none;stroke-opacity:1" id="rect22375" d="m 562.5,518.36212 c 0.831,0 1.5,0.669 1.5,1.5 0,0.831 -0.669,1.5 -1.5,1.5 -0.831,0 -1.5,-0.669 -1.5,-1.5 0,-0.831 0.669,-1.5 1.5,-1.5 z"/><path style="color:#000;font-style:normal;font-variant:normal;font-weight:400;font-stretch:normal;font-size:medium;line-height:normal;font-family:Sans;-inkscape-font-specification:Sans;text-indent:0;text-align:start;text-decoration:none;text-decoration-line:none;letter-spacing:normal;word-spacing:normal;text-transform:none;writing-mode:lr-tb;direction:ltr;baseline-shift:baseline;text-anchor:start;display:inline;overflow:visible;visibility:visible;fill:#bebebe;fill-opacity:1;stroke:none;stroke-width:3;stroke-opacity:1;marker:none;enable-background:new" id="path14123" d="m 565,505.34375 v 3 h 1.53125 c 3.11834,0 5.53125,2.31067 5.53125,5.03125 0,2.72057 -2.41291,5 -5.53125,5 -0.11744,0 -0.23004,-0.0246 -0.34375,-0.0312 h -0.0312 -0.0312 -1.15625 v 3 h 1.0625 0.0937 c 0.14249,0.007 0.26588,0.0312 0.40625,0.0312 4.62356,0 8.53125,-3.53305 8.53125,-8 0,-4.46696 -3.90769,-8.03125 -8.53125,-8.03125 h -1.53125 z"/></g></g></g></g></svg>