<svg xmlns="http://www.w3.org/2000/svg" xmlns:osb="http://www.openswatchbook.org/uri/2009/osb" xmlns:svg="http://www.w3.org/2000/svg" xmlns:xlink="http://www.w3.org/1999/xlink" id="svg7384" width="12" height="12" version="1.1" viewBox="0 0 12 12"><metadata id="metadata90"/><defs id="defs7386"><linearGradient id="linearGradient8074" osb:paint="solid"><stop id="stop8072" offset="0" style="stop-color:#be00be;stop-opacity:1"/></linearGradient><linearGradient id="linearGradient7561" osb:paint="solid"><stop id="stop7558" offset="0" style="stop-color:#a5a5a5;stop-opacity:1"/></linearGradient><linearGradient id="linearGradient7548" osb:paint="solid"><stop id="stop7546" offset="0" style="stop-color:#ebebeb;stop-opacity:1"/></linearGradient><linearGradient id="linearGradient7542" osb:paint="solid"><stop id="stop7538" offset="0" style="stop-color:#c9c9c9;stop-opacity:1"/></linearGradient><linearGradient id="linearGradient19282" gradientTransform="matrix(0,-735328.32,170712.69,0,2464326300,577972450)" osb:paint="solid"><stop id="stop19284" offset="0" style="stop-color:#b4b4b4;stop-opacity:1"/></linearGradient><linearGradient id="linearGradient19282-4" gradientTransform="matrix(0.34682586,0,0,0.30620888,-154.35207,-275.32369)" osb:paint="solid"><stop id="stop19284-0" offset="0" style="stop-color:#bebebe;stop-opacity:1"/></linearGradient><linearGradient id="linearGradient7921" x1="0" x2="12" y1="10" y2="10" gradientTransform="translate(745.33351,227.31752)" gradientUnits="userSpaceOnUse" xlink:href="#linearGradient19282-4"/></defs><g style="display:inline" id="stock" transform="translate(-287.52236,-60.28628)"><g id="gimp-quick-mask-on" transform="translate(287.52236,-980.07592)"><path id="rect17271" d="M 0,4 0,16 12,16 12,4 Z M 1,5 2,5 2,6 1,6 Z m 2.0195312,0 1,0 0,1 -1,0 z m 2.0195313,0 1,0 0,1 -1,0 z m 2.0214844,0 1,0 0,1 -1,0 z m 1.9960937,0 1.0000004,0 0,1 -1.0000004,0 z M 1,7.0449219 l 1,0 0,1 -1,0 z m 8,0.025391 1,0 0,1 -1,0 z m -8,1.958984 1,0 0,1.0000001 -1,0 z m 8,0.017578 1,0 0,1.0000001 -1,0 z m -8,1.9687501 1,0 0,1 -1,0 z m 8,0.0078 1,0 0,1 -1,0 z m -4,1.949218 1,0 0,1 -1,0 z m -2,0.0078 1,0 0,1 -1,0 z M 1,13 l 1,0 0,1 -1,0 z m 6.0507812,0 1,0 0,1 -1,0 z M 9,13 l 1,0 0,1 -1,0 z" transform="translate(0,1036.3622)" style="opacity:1;fill:url(#linearGradient7921);fill-opacity:1;stroke:none;stroke-width:1.00349033"/></g></g></svg>