<svg xmlns="http://www.w3.org/2000/svg" xmlns:osb="http://www.openswatchbook.org/uri/2009/osb" xmlns:svg="http://www.w3.org/2000/svg" xmlns:xlink="http://www.w3.org/1999/xlink" id="svg7384" width="16" height="16" version="1.1" viewBox="0 0 16 16"><metadata id="metadata90"/><defs id="defs7386"><linearGradient id="linearGradient19282-4" gradientTransform="matrix(0.34682586,0,0,0.30620888,-33.35187,282.03851)" osb:paint="solid"><stop id="stop19284-0" offset="0" style="stop-color:#bebebe;stop-opacity:1"/></linearGradient><linearGradient id="linearGradient8259" x1="44" x2="45" y1="485.5" y2="485.5" gradientTransform="translate(657.67619,359.8463)" gradientUnits="userSpaceOnUse" xlink:href="#linearGradient19282-4"/><linearGradient id="linearGradient8262" x1="44" x2="45" y1="487.5" y2="487.5" gradientTransform="translate(657.67619,359.8463)" gradientUnits="userSpaceOnUse" xlink:href="#linearGradient19282-4"/><linearGradient id="linearGradient8266" x1="44" x2="45" y1="489.5" y2="489.5" gradientTransform="translate(657.67619,359.8463)" gradientUnits="userSpaceOnUse" xlink:href="#linearGradient19282-4"/><linearGradient id="linearGradient8268" x1="44" x2="45" y1="491.5" y2="491.5" gradientTransform="translate(657.67619,359.8463)" gradientUnits="userSpaceOnUse" xlink:href="#linearGradient19282-4"/><linearGradient id="linearGradient8272" x1="44" x2="45" y1="493.5" y2="493.5" gradientTransform="translate(657.67619,359.8463)" gradientUnits="userSpaceOnUse" xlink:href="#linearGradient19282-4"/><linearGradient id="linearGradient8274" x1="46" x2="47" y1="493.5" y2="493.5" gradientTransform="translate(657.67619,359.8463)" gradientUnits="userSpaceOnUse" xlink:href="#linearGradient19282-4"/><linearGradient id="linearGradient8277" x1="48" x2="49" y1="493.5" y2="493.5" gradientTransform="translate(657.67619,359.8463)" gradientUnits="userSpaceOnUse" xlink:href="#linearGradient19282-4"/><linearGradient id="linearGradient8279" x1="50" x2="51" y1="493.5" y2="493.5" gradientTransform="translate(657.67619,359.8463)" gradientUnits="userSpaceOnUse" xlink:href="#linearGradient19282-4"/><linearGradient id="linearGradient8282" x1="52" x2="53" y1="493.5" y2="493.5" gradientTransform="translate(657.67619,359.8463)" gradientUnits="userSpaceOnUse" xlink:href="#linearGradient19282-4"/><linearGradient id="linearGradient8284" x1="54" x2="55" y1="493.5" y2="493.5" gradientTransform="translate(657.67619,359.8463)" gradientUnits="userSpaceOnUse" xlink:href="#linearGradient19282-4"/><linearGradient id="linearGradient8288" x1="56" x2="57" y1="493.5" y2="493.5" gradientTransform="translate(657.67619,359.8463)" gradientUnits="userSpaceOnUse" xlink:href="#linearGradient19282-4"/><linearGradient id="linearGradient8290" x1="56" x2="57" y1="491.5" y2="491.5" gradientTransform="translate(657.67619,359.8463)" gradientUnits="userSpaceOnUse" xlink:href="#linearGradient19282-4"/><linearGradient id="linearGradient8293" x1="56" x2="57" y1="489.5" y2="489.5" gradientTransform="translate(657.67619,359.8463)" gradientUnits="userSpaceOnUse" xlink:href="#linearGradient19282-4"/><linearGradient id="linearGradient8296" x1="56" x2="57" y1="487.5" y2="487.5" gradientTransform="translate(657.67619,359.8463)" gradientUnits="userSpaceOnUse" xlink:href="#linearGradient19282-4"/><linearGradient id="linearGradient8299" x1="56" x2="57" y1="485.5" y2="485.5" gradientTransform="translate(657.67619,359.8463)" gradientUnits="userSpaceOnUse" xlink:href="#linearGradient19282-4"/><linearGradient id="linearGradient8301" x1="56" x2="57" y1="483.5" y2="483.5" gradientTransform="translate(657.67619,359.8463)" gradientUnits="userSpaceOnUse" xlink:href="#linearGradient19282-4"/><linearGradient id="linearGradient8303" x1="54" x2="55" y1="483.5" y2="483.5" gradientTransform="translate(657.67619,359.8463)" gradientUnits="userSpaceOnUse" xlink:href="#linearGradient19282-4"/><linearGradient id="linearGradient8305" x1="52" x2="53" y1="483.5" y2="483.5" gradientTransform="translate(657.67619,359.8463)" gradientUnits="userSpaceOnUse" xlink:href="#linearGradient19282-4"/><linearGradient id="linearGradient8307" x1="50" x2="51" y1="483.5" y2="483.5" gradientTransform="translate(657.67619,359.8463)" gradientUnits="userSpaceOnUse" xlink:href="#linearGradient19282-4"/><linearGradient id="linearGradient8311" x1="48" x2="49" y1="483.5" y2="483.5" gradientTransform="translate(657.67619,359.8463)" gradientUnits="userSpaceOnUse" xlink:href="#linearGradient19282-4"/><linearGradient id="linearGradient8313" x1="46" x2="47" y1="483.5" y2="483.5" gradientTransform="translate(657.67619,359.8463)" gradientUnits="userSpaceOnUse" xlink:href="#linearGradient19282-4"/><linearGradient id="linearGradient8315" x1="44" x2="45" y1="483.5" y2="483.5" gradientTransform="translate(657.67619,359.8463)" gradientUnits="userSpaceOnUse" xlink:href="#linearGradient19282-4"/><linearGradient id="linearGradient8318" x1="47" x2="54" y1="488.5" y2="488.5" gradientTransform="translate(657.67619,359.8463)" gradientUnits="userSpaceOnUse" xlink:href="#linearGradient19282-4"/><linearGradient id="linearGradient8320" x1="41" x2="53" y1="485" y2="485" gradientTransform="translate(657.67619,359.8463)" gradientUnits="userSpaceOnUse" xlink:href="#linearGradient19282-4"/></defs><g style="display:inline" id="stock" transform="translate(-199.86504,-192.81506)"><g id="gimp-selection-subtract" transform="translate(78.864844,-286.18494)" style="display:inline"><g id="g1251" transform="translate(80,0)"><rect style="fill:url(#linearGradient8315);fill-opacity:1;stroke:none" id="rect6086" width="1" height="1" x="44" y="483"/><rect style="fill:url(#linearGradient8311);fill-opacity:1;stroke:none" id="rect6088" width="1" height="1" x="48" y="483"/><rect style="fill:url(#linearGradient8307);fill-opacity:1;stroke:none" id="rect6090" width="1" height="1" x="50" y="483"/><rect style="fill:url(#linearGradient8305);fill-opacity:1;stroke:none" id="rect6092" width="1" height="1" x="52" y="483"/><rect style="fill:url(#linearGradient8259);fill-opacity:1;stroke:none" id="rect6094" width="1" height="1" x="44" y="485"/><rect style="fill:url(#linearGradient8262);fill-opacity:1;stroke:none" id="rect6096" width="1" height="1" x="44" y="487"/><rect style="fill:url(#linearGradient8266);fill-opacity:1;stroke:none" id="rect6098" width="1" height="1" x="44" y="489"/><rect style="fill:url(#linearGradient8268);fill-opacity:1;stroke:none" id="rect6100" width="1" height="1" x="44" y="491"/><rect style="fill:url(#linearGradient8303);fill-opacity:1;stroke:none" id="rect6102" width="1" height="1" x="54" y="483"/><rect style="fill:url(#linearGradient8301);fill-opacity:1;stroke:none" id="rect6104" width="1" height="1" x="56" y="483"/><rect style="fill:url(#linearGradient8299);fill-opacity:1;stroke:none" id="rect6106" width="1" height="1" x="56" y="485"/><rect style="fill:url(#linearGradient8296);fill-opacity:1;stroke:none" id="rect6108" width="1" height="1" x="56" y="487"/><rect style="fill:url(#linearGradient8293);fill-opacity:1;stroke:none" id="rect6110" width="1" height="1" x="56" y="489"/><rect style="fill:url(#linearGradient8290);fill-opacity:1;stroke:none" id="rect6112" width="1" height="1" x="56" y="491"/><rect style="fill:url(#linearGradient8282);fill-opacity:1;stroke:none" id="rect6114" width="1" height="1" x="52" y="493"/><rect style="fill:url(#linearGradient8279);fill-opacity:1;stroke:none" id="rect6116" width="1" height="1" x="50" y="493"/><rect style="fill:url(#linearGradient8277);fill-opacity:1;stroke:none" id="rect6118" width="1" height="1" x="48" y="493"/><rect style="fill:url(#linearGradient8272);fill-opacity:1;stroke:none" id="rect6120" width="1" height="1" x="44" y="493"/><rect style="opacity:.3;fill:url(#linearGradient8318);fill-opacity:1;stroke:none;stroke-width:1.08012331" id="rect6122" width="7" height="5" x="47" y="486"/><rect id="rect6124" width="1" height="1" x="54" y="493" style="fill:url(#linearGradient8284);fill-opacity:1;stroke:none"/><rect style="fill:url(#linearGradient8288);fill-opacity:1;stroke:none" id="rect6126" width="1" height="1" x="56" y="493"/><rect id="rect6128" width="1" height="1" x="46" y="483" style="fill:url(#linearGradient8313);fill-opacity:1;stroke:none"/><rect style="fill:url(#linearGradient8274);fill-opacity:1;stroke:none" id="rect6130" width="1" height="1" x="46" y="493"/><path style="fill:url(#linearGradient8320);fill-opacity:1;stroke:none" id="path6132" d="m 41.0002,479 0,12 2,0 0,-6 0,-3 3,0 7,0 0,-3 z"/></g></g></g></svg>