<svg xmlns="http://www.w3.org/2000/svg" xmlns:svg="http://www.w3.org/2000/svg" id="svg7384" width="16" height="16" version="1.1" viewBox="0 0 16 16"><metadata id="metadata90"/><title id="title9167">Gnome Symbolic Icon Theme</title><g id="g4269"><g id="layer13" transform="translate(-560.99736,-195)"><rect style="color:#000;fill:#bebebe;fill-rule:evenodd;enable-background:new" id="rect12037" width="1" height="1" x="564" y="204"/><rect style="color:#000;fill:#bebebe;fill-rule:evenodd;enable-background:new" id="rect12039" width="1" height="1" x="563" y="205"/><rect style="color:#000;fill:#bebebe;fill-rule:evenodd;enable-background:new" id="rect12041" width="1" height="1" x="564" y="206"/><rect style="color:#000;fill:#bebebe;fill-rule:evenodd;enable-background:new" id="rect12043" width="1" height="1" x="563" y="207"/><rect style="color:#000;fill:#bebebe;fill-rule:evenodd;enable-background:new" id="rect12045" width="1" height="1" x="564" y="208"/><rect style="color:#000;fill:#bebebe;fill-rule:evenodd;enable-background:new" id="rect12047" width="1" height="1" x="563" y="209"/><rect style="color:#000;fill:#bebebe;fill-rule:evenodd;enable-background:new" id="rect12051" width="1" height="1" x="565" y="209"/><rect style="color:#000;fill:#bebebe;fill-rule:evenodd;enable-background:new" id="rect12055" width="1" height="1" x="567" y="209"/><rect style="color:#000;fill:#bebebe;fill-rule:evenodd;enable-background:new" id="rect12059" width="1" height="1" x="569" y="209"/><rect style="color:#000;fill:#bebebe;fill-rule:evenodd;enable-background:new" id="rect12063" width="1" height="1" x="571" y="209"/><path style="color:#000;text-indent:0;text-transform:none;fill:#bebebe" id="path1234-5" d="m 563.81,196 c -0.4584,0.0875 -0.82072,0.5334 -0.8125,1 v 8 h 2 v -7 h 5 v 3 h 3 v 7.9975 h 2 v -8.435 c 0.006,-0.26406 -0.0976,-0.52897 -0.28125,-0.71875 l -3.5625,-3.5625 c -0.19,-0.18 -0.46,-0.29 -0.72,-0.28 h -6.4375 c -0.0312,-0.001 -0.0625,-0.001 -0.0937,0 -0.0312,-0.001 -0.0625,-0.001 -0.0937,0 z"/><rect style="color:#000;fill:#bebebe;fill-rule:evenodd;enable-background:new" id="rect12326" width="1" height="1" x="564" y="210"/><rect style="color:#000;fill:#bebebe;fill-rule:evenodd;enable-background:new" id="rect12328" width="1" height="1" x="566" y="210"/><rect style="color:#000;fill:#bebebe;fill-rule:evenodd;enable-background:new" id="rect12330" width="1" height="1" x="568" y="210"/><rect style="color:#000;fill:#bebebe;fill-rule:evenodd;enable-background:new" id="rect12332" width="1" height="1" x="570" y="210"/><rect style="color:#000;fill:#bebebe;fill-rule:evenodd;enable-background:new" id="rect12334" width="1" height="1" x="572" y="210"/><rect style="color:#000;fill:#bebebe;fill-rule:evenodd;enable-background:new" id="rect12336" width="1" height="1.188" x="573" y="208.81"/></g></g></svg>