<svg xmlns="http://www.w3.org/2000/svg" xmlns:osb="http://www.openswatchbook.org/uri/2009/osb" xmlns:svg="http://www.w3.org/2000/svg" xmlns:xlink="http://www.w3.org/1999/xlink" id="svg9430" width="22" height="22" version="1.1" viewBox="0 0 22 22"><defs id="defs9432"><linearGradient id="linearGradient19282-4" gradientTransform="matrix(0.23667958,0,0,0.20304569,-208.29645,97.782765)" osb:paint="solid"><stop style="stop-color:#bebebe;stop-opacity:1" id="stop19284-0" offset="0"/></linearGradient><linearGradient id="linearGradient9230" x1="15" x2="31" y1="-32" y2="-32" gradientUnits="userSpaceOnUse" xlink:href="#linearGradient19282-4"/><linearGradient id="linearGradient9290" x1="15" x2="31" y1="-32" y2="-32" gradientTransform="matrix(0.62500194,0,0,0.62500194,1373.64,221.71484)" gradientUnits="userSpaceOnUse" xlink:href="#linearGradient19282-4"/></defs><metadata id="metadata9435"/><g id="layer1" transform="translate(5.6966979,-1044.0139)"><g style="display:inline" id="gimp-prefs-folders" transform="translate(-593.29234,1008.6896)"><rect id="rect9261" width="22" height="22" x="587.596" y="35.324" style="opacity:0;fill:none;fill-opacity:1;fill-rule:evenodd;stroke:none;stroke-width:4;stroke-miterlimit:4;stroke-dasharray:none;stroke-opacity:1"/><g id="folder-6" transform="matrix(0.87499963,0,0,0.8593736,575.47067,76.949109)" style="display:inline"><path style="display:inline;fill:url(#linearGradient9230);fill-opacity:1;stroke:none" id="rect3845-7" d="M 15.53125,-40 C 15.24212,-40 15,-39.75788 15,-39.46875 V -24.5312 C 15,-24.2327 15.23264,-24 15.53125,-24 h 14.9375 C 30.76735,-24 31,-24.2326 31,-24.5312 v -9.9376 C 31,-34.7579 30.75788,-35 30.46875,-35 H 18 v 8.5 c 0,0.277 -0.223,0.5 -0.5,0.5 -0.277,0 -0.5,-0.223 -0.5,-0.5 v -9 c 0,-0.277 0.223,-0.5 0.5,-0.5 H 20.46875 29 v -1.4062 C 29,-37.7334 28.73334,-38 28.40625,-38 H 21 v -1.46875 C 21,-39.7579 20.75788,-40 20.46875,-40 Z"/><rect style="color:#bebebe;display:inline;overflow:visible;visibility:visible;opacity:0;fill:none;stroke:none;stroke-width:2;marker:none;enable-background:accumulate" id="rect14152-53" width="16" height="16" x="15" y="-40"/></g><g id="folder-6-0" transform="matrix(0.85937767,0,0,0.8593736,581.95427,69.949048)" style="display:inline"><path id="rect3845-7-9" d="m 1383.3477,196.71484 c -0.1808,0 -0.3321,0.15133 -0.3321,0.33204 v 5.66796 h 1.25 v -3.1875 c 0,-0.17312 0.1394,-0.3125 0.3125,-0.3125 h 1.8555 5.332 v -0.8789 c 0,-0.2045 -0.1666,-0.3711 -0.3711,-0.3711 h -4.6289 v -0.91796 c 0,-0.18072 -0.1513,-0.33204 -0.332,-0.33204 z m 1.5429,3.125 v 2.875 h 4.125 v 4 h 3.668 c 0.1866,0 0.332,-0.1454 0.332,-0.33203 v -6.21093 c 0,-0.18069 -0.1513,-0.33204 -0.332,-0.33204 z" transform="matrix(1.599995,0,0,1.599995,-2197.8172,-354.74264)" style="display:inline;fill:url(#linearGradient9290);fill-opacity:1;stroke:none"/><rect style="color:#bebebe;display:inline;overflow:visible;visibility:visible;opacity:0;fill:none;stroke:none;stroke-width:2;marker:none;enable-background:accumulate" id="rect14152-53-3" width="16" height="16" x="15" y="-40"/></g></g></g></svg>