<svg xmlns="http://www.w3.org/2000/svg" xmlns:svg="http://www.w3.org/2000/svg" id="svg8" width="16" height="16" version="1.1" viewBox="0 0 4.233 4.233"><metadata id="metadata5"/><g id="layer1" transform="translate(0,-292.76665)"><g id="gimp-color-space-perceptual"><path id="rect814" d="M 1 1 L 1 15 L 15 15 L 15 1 L 1 1 z M 2 2 L 11.603516 2 C 9.3248421 2.627241 7.3431158 3.6529635 5.7363281 5.1777344 C 4.0318605 6.7951994 2.7724266 8.9716926 2 11.740234 L 2 2 z M 14 2.5058594 L 14 14 L 2.5097656 14 C 3.1406875 10.360079 4.4916118 7.7473621 6.4296875 5.9082031 C 8.3657998 4.0709074 10.911783 2.989276 14 2.5058594 z" transform="matrix(0.26458334,0,0,0.26458334,0,292.76665)" style="color:#000;overflow:visible;opacity:1;fill:#bebebe;fill-opacity:1;fill-rule:evenodd;stroke:none;stroke-width:1;stroke-linecap:round;stroke-linejoin:miter;stroke-opacity:1;paint-order:normal"/><g id="g78"><path style="color:#000;fill:none;fill-rule:evenodd;stroke-width:.264583px" id="path80" d="m 0.52916668,296.47082 c 0.33769803,-1.99099 1.48398662,-2.91672 3.17500012,-3.175"/></g></g></g></svg>