<svg xmlns="http://www.w3.org/2000/svg" xmlns:osb="http://www.openswatchbook.org/uri/2009/osb" xmlns:svg="http://www.w3.org/2000/svg" xmlns:xlink="http://www.w3.org/1999/xlink" id="svg7384" width="16.127" height="16" version="1.1" viewBox="0 0 16.127 16"><metadata id="metadata90"/><defs id="defs7386"><linearGradient id="linearGradient19282-4" gradientTransform="matrix(0.34682586,0,0,0.30620888,-154.35207,-275.32368)" osb:paint="solid"><stop id="stop19284-0" offset="0" style="stop-color:#bebebe;stop-opacity:1"/></linearGradient><linearGradient id="linearGradient8417" x1="3" x2="12" y1="1047.112" y2="1047.112" gradientTransform="translate(677.30366,384.07083)" gradientUnits="userSpaceOnUse" xlink:href="#linearGradient19282-4"/><linearGradient id="linearGradient8419" x1="2" x2="13" y1="8.5" y2="8.5" gradientTransform="translate(677.30366,384.07083)" gradientUnits="userSpaceOnUse" xlink:href="#linearGradient19282-4"/><linearGradient id="linearGradient8431" x1="2" x2="3" y1="1037.862" y2="1037.862" gradientTransform="translate(677.30366,384.07083)" gradientUnits="userSpaceOnUse" xlink:href="#linearGradient19282-4"/><linearGradient id="linearGradient8433" x1="0" x2="1" y1="1039.862" y2="1039.862" gradientTransform="translate(677.30366,384.07083)" gradientUnits="userSpaceOnUse" xlink:href="#linearGradient19282-4"/><linearGradient id="linearGradient8435" x1="0" x2="1" y1="1041.862" y2="1041.862" gradientTransform="translate(677.30366,384.07083)" gradientUnits="userSpaceOnUse" xlink:href="#linearGradient19282-4"/><linearGradient id="linearGradient8437" x1="0" x2="1" y1="1043.862" y2="1043.862" gradientTransform="translate(677.30366,384.07083)" gradientUnits="userSpaceOnUse" xlink:href="#linearGradient19282-4"/><linearGradient id="linearGradient8439" x1="0" x2="1" y1="1045.862" y2="1045.862" gradientTransform="translate(677.30366,384.07083)" gradientUnits="userSpaceOnUse" xlink:href="#linearGradient19282-4"/><linearGradient id="linearGradient8441" x1="0" x2="1" y1="1047.862" y2="1047.862" gradientTransform="translate(677.30366,384.07083)" gradientUnits="userSpaceOnUse" xlink:href="#linearGradient19282-4"/><linearGradient id="linearGradient8443" x1="0" x2="1" y1="1049.862" y2="1049.862" gradientTransform="translate(677.30366,384.07083)" gradientUnits="userSpaceOnUse" xlink:href="#linearGradient19282-4"/><linearGradient id="linearGradient8445" x1="0" x2="1" y1="1051.862" y2="1051.862" gradientTransform="translate(677.30366,384.07083)" gradientUnits="userSpaceOnUse" xlink:href="#linearGradient19282-4"/><linearGradient id="linearGradient8447" x1="2" x2="3" y1="1051.862" y2="1051.862" gradientTransform="translate(677.30366,384.07083)" gradientUnits="userSpaceOnUse" xlink:href="#linearGradient19282-4"/><linearGradient id="linearGradient8449" x1="4" x2="5" y1="1051.862" y2="1051.862" gradientTransform="translate(677.30366,384.07083)" gradientUnits="userSpaceOnUse" xlink:href="#linearGradient19282-4"/><linearGradient id="linearGradient8451" x1="6" x2="7" y1="1051.862" y2="1051.862" gradientTransform="translate(677.30366,384.07083)" gradientUnits="userSpaceOnUse" xlink:href="#linearGradient19282-4"/><linearGradient id="linearGradient8453" x1="8" x2="9" y1="1051.862" y2="1051.862" gradientTransform="translate(677.30366,384.07083)" gradientUnits="userSpaceOnUse" xlink:href="#linearGradient19282-4"/><linearGradient id="linearGradient8455" x1="10" x2="11" y1="1051.862" y2="1051.862" gradientTransform="translate(677.30366,384.07083)" gradientUnits="userSpaceOnUse" xlink:href="#linearGradient19282-4"/><linearGradient id="linearGradient8457" x1="12" x2="13" y1="1051.862" y2="1051.862" gradientTransform="translate(677.30366,384.07083)" gradientUnits="userSpaceOnUse" xlink:href="#linearGradient19282-4"/><linearGradient id="linearGradient8459" x1="14" x2="15" y1="1051.862" y2="1051.862" gradientTransform="translate(677.30366,384.07083)" gradientUnits="userSpaceOnUse" xlink:href="#linearGradient19282-4"/><linearGradient id="linearGradient8461" x1="14" x2="15" y1="1049.862" y2="1049.862" gradientTransform="translate(677.30366,384.07083)" gradientUnits="userSpaceOnUse" xlink:href="#linearGradient19282-4"/><linearGradient id="linearGradient8463" x1="14" x2="15" y1="1047.862" y2="1047.862" gradientTransform="translate(677.30366,384.07083)" gradientUnits="userSpaceOnUse" xlink:href="#linearGradient19282-4"/><linearGradient id="linearGradient8465" x1="14" x2="15" y1="1045.862" y2="1045.862" gradientTransform="translate(677.30366,384.07083)" gradientUnits="userSpaceOnUse" xlink:href="#linearGradient19282-4"/><linearGradient id="linearGradient8467" x1="-14.992" x2="-14" y1="1043.862" y2="1043.862" gradientTransform="translate(-677.30366,384.07083)" gradientUnits="userSpaceOnUse" xlink:href="#linearGradient19282-4"/><linearGradient id="linearGradient8469" x1="14" x2="15" y1="1041.862" y2="1041.862" gradientTransform="translate(677.30366,384.07083)" gradientUnits="userSpaceOnUse" xlink:href="#linearGradient19282-4"/><linearGradient id="linearGradient8471" x1="14" x2="15" y1="1039.862" y2="1039.862" gradientTransform="translate(677.30366,384.07083)" gradientUnits="userSpaceOnUse" xlink:href="#linearGradient19282-4"/><linearGradient id="linearGradient8473" x1="14" x2="15" y1="1037.862" y2="1037.862" gradientTransform="translate(677.30366,384.07083)" gradientUnits="userSpaceOnUse" xlink:href="#linearGradient19282-4"/><linearGradient id="linearGradient8475" x1="12" x2="13" y1="1037.862" y2="1037.862" gradientTransform="translate(677.30366,384.07083)" gradientUnits="userSpaceOnUse" xlink:href="#linearGradient19282-4"/><linearGradient id="linearGradient8477" x1="10" x2="11" y1="1037.862" y2="1037.862" gradientTransform="translate(677.30366,384.07083)" gradientUnits="userSpaceOnUse" xlink:href="#linearGradient19282-4"/><linearGradient id="linearGradient8479" x1="8" x2="9" y1="1037.862" y2="1037.862" gradientTransform="translate(677.30366,384.07083)" gradientUnits="userSpaceOnUse" xlink:href="#linearGradient19282-4"/><linearGradient id="linearGradient8481" x1="6" x2="7" y1="1037.862" y2="1037.862" gradientTransform="translate(677.30366,384.07083)" gradientUnits="userSpaceOnUse" xlink:href="#linearGradient19282-4"/><linearGradient id="linearGradient8483" x1="4" x2="5" y1="1037.862" y2="1037.862" gradientTransform="translate(677.30366,384.07083)" gradientUnits="userSpaceOnUse" xlink:href="#linearGradient19282-4"/><linearGradient id="linearGradient8485" x1="0" x2="1" y1="1037.862" y2="1037.862" gradientTransform="translate(677.30366,384.07083)" gradientUnits="userSpaceOnUse" xlink:href="#linearGradient19282-4"/></defs><g style="display:inline" id="stock" transform="translate(-219.49251,-217.03959)"><g id="gimp-selection-replace" transform="translate(219.49251,-819.32259)"><rect style="fill:url(#linearGradient8485);fill-opacity:1;stroke:none;stroke-width:1" id="rect74853-6-8" width="1" height="1" x="0" y="1037.362"/><rect style="fill:url(#linearGradient8475);fill-opacity:1;stroke:none;stroke-width:1" id="rect74855-2-3" width="1" height="1" x="12" y="1037.362"/><rect style="fill:url(#linearGradient8473);fill-opacity:1;stroke:none;stroke-width:1" id="rect74857-9-5" width="1" height="1" x="14" y="1037.362"/><rect style="fill:url(#linearGradient8435);fill-opacity:1;stroke:none;stroke-width:1" id="rect74859-1-97" width="1" height="1" x="0" y="1041.362"/><rect style="fill:url(#linearGradient8477);fill-opacity:1;stroke:none;stroke-width:1" id="rect74861-2-7" width="1" height="1" x="10" y="1037.362"/><rect style="fill:url(#linearGradient8431);fill-opacity:1;stroke:none;stroke-width:1" id="rect74863-4-94" width="1" height="1" x="2" y="1037.362"/><rect style="fill:url(#linearGradient8483);fill-opacity:1;stroke:none;stroke-width:1" id="rect74865-2-49" width="1" height="1" x="4" y="1037.362"/><rect style="fill:url(#linearGradient8481);fill-opacity:1;stroke:none;stroke-width:1" id="rect74867-2-1" width="1" height="1" x="6" y="1037.362"/><rect style="fill:url(#linearGradient8479);fill-opacity:1;stroke:none;stroke-width:1" id="rect74869-6-3" width="1" height="1" x="8" y="1037.362"/><rect style="fill:url(#linearGradient8437);fill-opacity:1;stroke:none;stroke-width:1" id="rect74871-2-30" width="1" height="1" x="0" y="1043.362"/><rect style="fill:url(#linearGradient8439);fill-opacity:1;stroke:none;stroke-width:1" id="rect74873-4-1" width="1" height="1" x="0" y="1045.362"/><rect style="fill:url(#linearGradient8447);fill-opacity:1;stroke:none;stroke-width:.99999994" id="rect74875-7-6" width="1" height="1" x="2" y="1051.362"/><rect style="fill:url(#linearGradient8449);fill-opacity:1;stroke:none;stroke-width:1" id="rect74877-8-8" width="1" height="1" x="4" y="1051.362"/><rect style="fill:url(#linearGradient8451);fill-opacity:1;stroke:none;stroke-width:1" id="rect74879-6-75" width="1" height="1" x="6" y="1051.362"/><rect style="fill:url(#linearGradient8453);fill-opacity:1;stroke:none;stroke-width:1" id="rect74881-6-9" width="1" height="1" x="8" y="1051.362"/><rect style="fill:url(#linearGradient8455);fill-opacity:1;stroke:none;stroke-width:1" id="rect74883-2-8" width="1" height="1" x="10" y="1051.362"/><rect style="fill:url(#linearGradient8457);fill-opacity:1;stroke:none;stroke-width:1" id="rect74885-0-5" width="1" height="1" x="12" y="1051.362"/><rect style="fill:url(#linearGradient8459);fill-opacity:1;stroke:none;stroke-width:1" id="rect74887-6-8" width="1" height="1" x="14" y="1051.362"/><rect style="fill:url(#linearGradient8463);fill-opacity:1;stroke:none;stroke-width:1" id="rect74889-3-0" width="1" height="1" x="14" y="1047.362"/><rect style="fill:url(#linearGradient8465);fill-opacity:1;stroke:none;stroke-width:1" id="rect74891-3-9" width="1" height="1" x="14" y="1045.362"/><rect style="fill:url(#linearGradient8467);fill-opacity:1;stroke:none;stroke-width:.99602669" id="rect74893-5-34" width=".992" height="1" x="-14.992" y="1043.362" transform="scale(-1,1)"/><rect style="fill:url(#linearGradient8469);fill-opacity:1;stroke:none;stroke-width:1" id="rect74895-7-8" width="1" height="1" x="14" y="1041.362"/><path style="opacity:.3;fill:url(#linearGradient8419);fill-opacity:1;stroke:none;stroke-width:.95860869" id="rect74897-7-2" d="M 2,3 2,14 13,14 13,3 Z M 7.3730469,4.0019531 A 4.4999404,4.4648059 0 0 1 9.7402344,4.5917969 4.4999404,4.4648059 0 0 1 12,8.4648438 l -1.007812,0 A 3.4999537,3.4726267 0 0 0 9.2421875,5.5976562 3.4999537,3.4726267 0 0 0 5.7363281,5.609375 3.4999537,3.4726267 0 0 0 4.0039062,8.4902344 L 3,8.5 3,8.49805 A 4.4999404,4.4648059 0 0 1 5.2324219,4.609375 4.4999404,4.4648059 0 0 1 7.3730469,4.0019531 Z" transform="translate(0,1036.3622)"/><rect style="fill:url(#linearGradient8441);fill-opacity:1;stroke:none;stroke-width:1" id="rect74899-8-6" width="1" height="1" x="0" y="1047.362"/><rect style="fill:url(#linearGradient8445);fill-opacity:1;stroke:none;stroke-width:1" id="rect74901-4-3" width="1" height="1" x="0" y="1051.362"/><rect id="rect74859-1-9-0" width="1" height="1" x="0" y="1039.362" style="display:inline;fill:url(#linearGradient8433);fill-opacity:1;stroke:none;stroke-width:1.0039891"/><rect id="rect74859-1-3-1" width="1" height="1" x="14" y="1039.362" style="display:inline;fill:url(#linearGradient8471);fill-opacity:1;stroke:none;stroke-width:1.0039891"/><rect id="rect74859-1-91-0" width="1" height="1" x="0" y="1049.362" style="display:inline;fill:url(#linearGradient8443);fill-opacity:1;stroke:none;stroke-width:1.0039891"/><rect id="rect74859-1-2-1" width="1" height="1" x="14" y="1049.362" style="display:inline;fill:url(#linearGradient8461);fill-opacity:1;stroke:none;stroke-width:1.0039891"/><path style="opacity:1;fill:url(#linearGradient8417);fill-opacity:1;stroke:none;stroke-width:.30239853;stroke-miterlimit:4;stroke-dasharray:none;stroke-opacity:1" id="path3306-9" d="m 3.0001197,1044.8642 a 4.4999404,4.4648059 0 0 0 2.2323922,3.8892 4.4999404,4.4648059 0 0 0 4.5077522,0.017 A 4.4999404,4.4648059 0 0 0 12,1044.8973 l -1.007798,0 a 3.4999537,3.4726267 0 0 1 -1.7499772,2.868 3.4999537,3.4726267 0 0 1 -3.5058135,-0.013 3.4999537,3.4726267 0 0 1 -1.7323991,-2.8802 l -1.0038926,-0.01 z"/></g></g></svg>