<svg xmlns="http://www.w3.org/2000/svg" xmlns:osb="http://www.openswatchbook.org/uri/2009/osb" xmlns:svg="http://www.w3.org/2000/svg" xmlns:xlink="http://www.w3.org/1999/xlink" id="svg7384" width="16" height="16" version="1.1" viewBox="0 0 16 16"><metadata id="metadata90"/><defs id="defs7386"><linearGradient id="linearGradient8074" osb:paint="solid"><stop id="stop8072" offset="0" style="stop-color:#be00be;stop-opacity:1"/></linearGradient><linearGradient id="linearGradient7561" osb:paint="solid"><stop id="stop7558" offset="0" style="stop-color:#a5a5a5;stop-opacity:1"/></linearGradient><linearGradient id="linearGradient7548" osb:paint="solid"><stop id="stop7546" offset="0" style="stop-color:#ebebeb;stop-opacity:1"/></linearGradient><linearGradient id="linearGradient7542" osb:paint="solid"><stop id="stop7538" offset="0" style="stop-color:#c9c9c9;stop-opacity:1"/></linearGradient><linearGradient id="linearGradient19282" gradientTransform="matrix(0,-735328.32,170712.69,0,2464326300,577972450)" osb:paint="solid"><stop id="stop19284" offset="0" style="stop-color:#b4b4b4;stop-opacity:1"/></linearGradient><linearGradient id="linearGradient19282-4" gradientTransform="matrix(0.34682586,0,0,0.30620888,-19.35207,801.03851)" osb:paint="solid"><stop id="stop19284-0" offset="0" style="stop-color:#bebebe;stop-opacity:1"/></linearGradient><linearGradient id="linearGradient8364" x1="135" x2="151" y1="-32" y2="-32" gradientTransform="translate(811.48816,421.87401)" gradientUnits="userSpaceOnUse" xlink:href="#linearGradient19282-4"/></defs><g style="display:inline" id="preferences" transform="translate(-198.16755,-263.87401)"><g id="gimp-prefs-folders-plug-ins" transform="translate(63.167547,303.87401)"><g id="g612" transform="translate(120,0)"><path style="display:inline;fill:url(#linearGradient8364);fill-opacity:1;stroke:none" id="path29116" d="M 135.53125,-40 C 135.24212,-40 135,-39.75788 135,-39.46875 l 0,14.9375 c 0,0.2985 0.23264,0.53125 0.53125,0.53125 l 14.9375,0 C 150.76735,-24 151,-24.23265 151,-24.53125 l 0,-9.9375 C 151,-34.75785 150.75788,-35 150.46875,-35 L 138,-35 l 0,8.5 c 0,0.277 -0.223,0.5 -0.5,0.5 -0.277,0 -0.5,-0.223 -0.5,-0.5 l 0,-9 c 0,-0.277 0.223,-0.5 0.5,-0.5 l 2.96875,0 8.53125,0 0,-1.40625 C 149,-37.73345 148.73334,-38 148.40625,-38 L 141,-38 l 0,-1.46875 C 141,-39.7579 140.75788,-40 140.46875,-40 Z M 145,-34 c 0.5,0 1,0.166667 1,0.5 l 0,1.5 2,0 0,2 -1.5,-0.0625 c -0.66609,-0.02775 -0.66609,1.972246 0,2 L 148,-28 l 0,2 -6,0 0,-2 -1.4375,0 c -0.66667,0 -0.66667,-2 0,-2 l 1.4375,0 0,-2 2,0 0,-1.5 c 0,-0.333333 0.5,-0.5 1,-0.5 z" transform="translate(-120,0)"/></g></g></g></svg>