<svg xmlns="http://www.w3.org/2000/svg" xmlns:osb="http://www.openswatchbook.org/uri/2009/osb" xmlns:svg="http://www.w3.org/2000/svg" id="svg30571" width="16" height="16" version="1.1" viewBox="0 0 16 16"><defs id="defs30573"><linearGradient id="linearGradient19282" gradientTransform="matrix(1.2178615,0,0,1.043881,356.69172,1794.4958)" osb:paint="solid"><stop style="stop-color:#666;stop-opacity:1" id="stop19284" offset="0"/></linearGradient></defs><metadata id="metadata30576"/><g id="layer1" transform="translate(0,-1042.1747)"><g style="display:inline" id="gimp-char-picker" transform="translate(-101.0002,503.1747)"><rect id="rect12154" width="16" height="16" x="-140" y="322" transform="translate(241.0002,217)" style="opacity:0;fill:none;stroke:none"/><g id="g4934" transform="matrix(0.99459226,0,0,0.99777268,-20.317163,140.89093)"><path style="color:#bebebe;font-style:normal;font-variant:normal;font-weight:400;font-stretch:normal;font-size:medium;line-height:normal;font-family:'Bitstream Vera Sans';-inkscape-font-specification:'Bitstream Vera Sans';text-indent:0;text-align:start;text-decoration:none;text-decoration-line:none;letter-spacing:normal;word-spacing:normal;text-transform:none;writing-mode:lr-tb;direction:ltr;text-anchor:start;display:inline;overflow:visible;visibility:visible;fill:#bebebe;fill-opacity:1;fill-rule:nonzero;stroke:none;stroke-width:2;marker:none;enable-background:accumulate" id="rect11749-5-9-2-7" d="m 225.70228,383 c -1.53288,0 -2.71875,1.31948 -2.71875,2.84375 v 8.34375 c 0,1.52427 1.18587,2.84375 2.71875,2.84375 h 8.57897 c 1.53288,0 2.75,-1.31948 2.75,-2.84375 v -8.34375 c 0,-1.52427 -1.21712,-2.84375 -2.75,-2.84375 z m 0.78125,1.03125 c 3.52668,0.25598 5.31717,0.13378 7.04772,0 0.75419,-0.0583 1.53125,0.61584 1.53125,1.4375 v 7.55357 c 0,0.66541 -0.53119,1.09567 -1.1875,1.1875 -2.83642,0.39685 -4.75306,0.44007 -7.67272,0 -0.65529,-0.0988 -1.1875,-0.52209 -1.1875,-1.1875 V 385.5 c 0,-0.82166 0.71429,-1.52351 1.46875,-1.46875 z" transform="matrix(0.99886409,0,0,1,-99.747824,17)"/></g><path style="color:#000;font-style:normal;font-variant:normal;font-weight:400;font-stretch:normal;font-size:medium;line-height:normal;font-family:sans-serif;font-variant-ligatures:normal;font-variant-position:normal;font-variant-caps:normal;font-variant-numeric:normal;font-variant-alternates:normal;font-feature-settings:normal;text-indent:0;text-align:start;text-decoration:none;text-decoration-line:none;text-decoration-style:solid;text-decoration-color:#000;letter-spacing:normal;word-spacing:normal;text-transform:none;writing-mode:lr-tb;direction:ltr;text-orientation:mixed;dominant-baseline:auto;baseline-shift:baseline;text-anchor:start;white-space:normal;shape-padding:0;clip-rule:nonzero;display:inline;overflow:visible;visibility:visible;opacity:1;isolation:auto;mix-blend-mode:normal;color-interpolation:sRGB;color-interpolation-filters:linearRGB;solid-color:#000;solid-opacity:1;vector-effect:none;fill:#bebebe;fill-opacity:1;fill-rule:nonzero;stroke:none;stroke-width:1.01323974;stroke-linecap:butt;stroke-linejoin:miter;stroke-miterlimit:4;stroke-dasharray:none;stroke-dashoffset:0;stroke-opacity:1;marker:none;color-rendering:auto;image-rendering:auto;shape-rendering:auto;text-rendering:auto;enable-background:accumulate" id="path11643" d="m 111.58008,545 -2.93164,0.0449 0.0156,1.01367 2.86719,-0.0449 c 0.19561,0.0174 0.31978,0.0761 0.38477,0.13672 0.0663,0.0618 0.10937,0.12975 0.10937,0.3125 l -0.01,0.63086 h -2.47851 l 0.0391,0.002 c -0.47063,-0.0367 -0.90333,0.15013 -1.17383,0.44532 -0.27049,0.29518 -0.39922,0.66994 -0.41211,1.04296 -0.0129,0.37303 0.089,0.76068 0.34766,1.07227 0.25866,0.31159 0.69022,0.51472 1.16992,0.5 h 3.48047 l 0.0508,-3.68945 v -0.004 c 0,-0.40902 -0.15652,-0.79593 -0.43164,-1.05273 -0.27512,-0.2568 -0.6337,-0.37879 -1.0039,-0.40821 z m -2.08203,3.10547 0.0195,0.002 h 2.48437 l -0.0137,1.03516 h -2.5039 -0.008 c -0.21295,0.007 -0.28908,-0.0501 -0.35937,-0.13477 -0.0703,-0.0847 -0.11872,-0.23134 -0.11328,-0.38867 0.005,-0.15733 0.0659,-0.30869 0.14453,-0.39453 0.0787,-0.0858 0.15669,-0.13418 0.34961,-0.11914 z"/><path style="color:#000;font-style:normal;font-variant:normal;font-weight:400;font-stretch:normal;font-size:medium;line-height:normal;font-family:sans-serif;font-variant-ligatures:normal;font-variant-position:normal;font-variant-caps:normal;font-variant-numeric:normal;font-variant-alternates:normal;font-feature-settings:normal;text-indent:0;text-align:start;text-decoration:none;text-decoration-line:none;text-decoration-style:solid;text-decoration-color:#000;letter-spacing:normal;word-spacing:normal;text-transform:none;writing-mode:lr-tb;direction:ltr;text-orientation:mixed;dominant-baseline:auto;baseline-shift:baseline;text-anchor:start;white-space:normal;shape-padding:0;clip-rule:nonzero;display:inline;overflow:visible;visibility:visible;opacity:1;isolation:auto;mix-blend-mode:normal;color-interpolation:sRGB;color-interpolation-filters:linearRGB;solid-color:#000;solid-opacity:1;vector-effect:none;fill:#bebebe;fill-opacity:1;fill-rule:nonzero;stroke:none;stroke-width:1.04574132;stroke-linecap:butt;stroke-linejoin:miter;stroke-miterlimit:4;stroke-dasharray:none;stroke-dashoffset:0;stroke-opacity:1;marker:none;color-rendering:auto;image-rendering:auto;shape-rendering:auto;text-rendering:auto;enable-background:accumulate" id="path11645" d="m 112.29297,542.0332 -2.95313,1.11133 0.36719,0.97852 2.95508,-1.11133 z"/></g></g></svg>