<svg xmlns="http://www.w3.org/2000/svg" xmlns:osb="http://www.openswatchbook.org/uri/2009/osb" xmlns:svg="http://www.w3.org/2000/svg" xmlns:xlink="http://www.w3.org/1999/xlink" id="svg7384" width="16" height="16" version="1.1" viewBox="0 0 16 16"><metadata id="metadata90"/><defs id="defs7386"><linearGradient id="linearGradient8074" osb:paint="solid"><stop id="stop8072" offset="0" style="stop-color:#be00be;stop-opacity:1"/></linearGradient><linearGradient id="linearGradient7561" osb:paint="solid"><stop id="stop7558" offset="0" style="stop-color:#a5a5a5;stop-opacity:1"/></linearGradient><linearGradient id="linearGradient7548" osb:paint="solid"><stop id="stop7546" offset="0" style="stop-color:#ebebeb;stop-opacity:1"/></linearGradient><linearGradient id="linearGradient7542" osb:paint="solid"><stop id="stop7538" offset="0" style="stop-color:#c9c9c9;stop-opacity:1"/></linearGradient><linearGradient id="linearGradient19282" gradientTransform="matrix(0,-735328.32,170712.69,0,2464326300,577972450)" osb:paint="solid"><stop id="stop19284" offset="0" style="stop-color:#b4b4b4;stop-opacity:1"/></linearGradient><linearGradient id="linearGradient19282-4" gradientTransform="matrix(0.34682586,0,0,0.30620888,-93.35187,222.03851)" osb:paint="solid"><stop id="stop19284-0" offset="0" style="stop-color:#bebebe;stop-opacity:1"/></linearGradient><linearGradient id="linearGradient7802" x1="61.75" x2="71.197" y1="544.973" y2="544.973" gradientTransform="translate(421.89958,217.8654)" gradientUnits="userSpaceOnUse" xlink:href="#linearGradient19282-4"/><linearGradient id="linearGradient7804" x1="-174" x2="-164" y1="333" y2="333" gradientTransform="translate(421.89958,217.8654)" gradientUnits="userSpaceOnUse" xlink:href="#linearGradient19282-4"/><linearGradient id="linearGradient7810" x1="61" x2="63" y1="551" y2="551" gradientTransform="translate(421.89958,217.8654)" gradientUnits="userSpaceOnUse" xlink:href="#linearGradient19282-4"/></defs><g style="display:inline" id="stock" transform="translate(35.911568,-50.834161)"><g id="gimp-device-status" transform="translate(-96.911768,-488.16554)" style="display:inline"><path style="display:inline;fill:url(#linearGradient7802);fill-opacity:1;stroke:none" id="path35057" d="m 70.78145,539 c -0.1028,-0.004 -0.20643,0.0318 -0.3125,0.125 -4.45877,3.68075 -8.46875,7.875 -8.46875,9.875 0.16421,0.88996 -0.22247,0.55704 -0.25,1.4375 0.0474,0.32567 0.31339,0.55542 0.59375,0.5 0.22196,-0.044 0.93629,-0.21668 1,-0.65625 1.41962,0.038 1.92909,-1.68833 3.03125,-3.0625 l 4.75,-7.4375 C 71.31902,539.40631 71.0899,539.0125 70.78145,539 Z m -5.78125,6 1,0 -2,3 -1,0 z"/><path style="fill:url(#linearGradient7810);fill-opacity:1;stroke:none" id="path35102" d="m 62.0002,550 -1,2 1,0 1,-2 z"/><path style="fill:url(#linearGradient7804);fill-opacity:1;stroke:none" id="path35201" d="m -169,328 c -2.76142,0 -5,2.23858 -5,5 0,2.76142 2.23858,5 5,5 2.76142,0 5,-2.23858 5,-5 0,-2.76142 -2.23858,-5 -5,-5 z m -1,2 2,0 0,1 -2,0 z m 0,2 2,0 0,4 -2,0 z" transform="translate(241.0002,217)"/></g></g></svg>