<svg xmlns="http://www.w3.org/2000/svg" xmlns:svg="http://www.w3.org/2000/svg" id="svg11300" width="16" height="16" version="1.0" viewBox="0 0 16 16"><metadata id="metadata4"/><g id="layer1"><g id="g4257"><g id="g4271"><path style="display:inline;overflow:visible;visibility:visible;opacity:1;fill:#bebebe;fill-opacity:1;fill-rule:evenodd;stroke:none;stroke-width:.87831014;stroke-linecap:square;stroke-linejoin:round;stroke-miterlimit:0;stroke-dasharray:none;stroke-dashoffset:0;stroke-opacity:1;marker:none;marker-start:none;marker-mid:none;marker-end:none;enable-background:accumulate" id="rect8481" d="m 1,1.0996094 v 6 H 5.265625 L 8.8652344,3.5 10,4.6347656 V 1.0996094 Z"/><path id="path8487-9" d="M 13.951451,5.0017967 C 13.936241,2.0196523 13.966673,1.9735103 11,2.0044912 v 0.9991022 c 2.018755,0.00596 2.020763,0.028631 1.967634,1.9982033 L 11.009629,5.0135356 11,5 13.459377,7 15.919086,5.0017967 C 16.101143,4.853898 16,5 16,5 Z" style="fill:#bebebe;fill-opacity:1;fill-rule:evenodd;stroke:none;stroke-width:.78656459px;stroke-linecap:butt;stroke-linejoin:miter;stroke-opacity:1"/><rect id="rect8467-2" width="8.567" height="6.282" x="9.505" y="-3.141" transform="rotate(44.999999)" style="display:inline;overflow:visible;visibility:visible;opacity:1;fill:#bebebe;fill-opacity:1;fill-rule:evenodd;stroke:none;stroke-width:.80769449;stroke-linecap:square;stroke-linejoin:round;stroke-miterlimit:0;stroke-dasharray:none;stroke-dashoffset:0;stroke-opacity:1;marker:none;marker-start:none;marker-mid:none;marker-end:none;enable-background:accumulate"/></g><path id="path8487-9-9" d="m 2.0765655,11.998203 c 0.01521,2.982144 -0.01522,3.028286 2.951451,2.997306 v -0.999103 c -2.018755,-0.006 -2.020763,-0.02863 -1.967634,-1.998203 l 1.958005,-0.01174 0.00963,0.01354 -2.459377,-2 -2.45970899,1.998203 c -0.182057,0.147899 -0.080914,0.0018 -0.080914,0.0018 z" style="fill:#bebebe;fill-opacity:1;fill-rule:evenodd;stroke:none;stroke-width:.78656459px;stroke-linecap:butt;stroke-linejoin:miter;stroke-opacity:1"/></g></g></svg>