<svg xmlns="http://www.w3.org/2000/svg" xmlns:osb="http://www.openswatchbook.org/uri/2009/osb" xmlns:svg="http://www.w3.org/2000/svg" xmlns:xlink="http://www.w3.org/1999/xlink" id="svg7384" width="16.001" height="16.001" version="1.1" viewBox="0 0 16.001 16.001"><metadata id="metadata90"/><defs id="defs7386"><linearGradient id="linearGradient8074" osb:paint="solid"><stop id="stop8072" offset="0" style="stop-color:#be00be;stop-opacity:1"/></linearGradient><linearGradient id="linearGradient7561" osb:paint="solid"><stop id="stop7558" offset="0" style="stop-color:#a5a5a5;stop-opacity:1"/></linearGradient><linearGradient id="linearGradient7548" osb:paint="solid"><stop id="stop7546" offset="0" style="stop-color:#ebebeb;stop-opacity:1"/></linearGradient><linearGradient id="linearGradient7542" osb:paint="solid"><stop id="stop7538" offset="0" style="stop-color:#c9c9c9;stop-opacity:1"/></linearGradient><filter style="color-interpolation-filters:sRGB" id="filter12578-8"><feGaussianBlur id="feGaussianBlur12580-4" stdDeviation=".015"/></filter><filter style="color-interpolation-filters:sRGB" id="filter12586-1"><feGaussianBlur id="feGaussianBlur12588-8" stdDeviation=".02"/></filter><linearGradient id="linearGradient19282" gradientTransform="matrix(0,-735328.32,170712.69,0,2464326300,577972450)" osb:paint="solid"><stop id="stop19284" offset="0" style="stop-color:#b4b4b4;stop-opacity:1"/></linearGradient><linearGradient id="linearGradient19282-4" gradientTransform="matrix(0.34682586,0,0,0.30620888,26.64717,302.03851)" osb:paint="solid"><stop id="stop19284-0" offset="0" style="stop-color:#bebebe;stop-opacity:1"/></linearGradient><linearGradient id="linearGradient8261" x1="183.9" x2="185.1" y1="466.5" y2="466.5" gradientTransform="translate(616.77199,385.16406)" gradientUnits="userSpaceOnUse" xlink:href="#linearGradient19282-4"/><linearGradient id="linearGradient8263" x1="185" x2="187" y1="463.5" y2="463.5" gradientTransform="translate(616.77199,385.16406)" gradientUnits="userSpaceOnUse" xlink:href="#linearGradient19282-4"/><linearGradient id="linearGradient8265" x1="187" x2="191" y1="463.5" y2="463.5" gradientTransform="translate(616.77199,385.16406)" gradientUnits="userSpaceOnUse" xlink:href="#linearGradient19282-4"/><linearGradient id="linearGradient8267" x1="191" x2="194" y1="463.5" y2="463.5" gradientTransform="translate(616.77199,385.16406)" gradientUnits="userSpaceOnUse" xlink:href="#linearGradient19282-4"/><linearGradient id="linearGradient8269" x1="191.071" x2="194" y1="470.5" y2="470.5" gradientTransform="translate(616.77199,385.16406)" gradientUnits="userSpaceOnUse" xlink:href="#linearGradient19282-4"/><linearGradient id="linearGradient8271" x1="193" x2="194" y1="467" y2="467" gradientTransform="translate(616.77199,385.16406)" gradientUnits="userSpaceOnUse" xlink:href="#linearGradient19282-4"/><linearGradient id="linearGradient8273" x1="189.8" x2="192.2" y1="470.5" y2="470.5" gradientTransform="translate(315.28269,385.16406)" gradientUnits="userSpaceOnUse" xlink:href="#linearGradient19282-4"/><linearGradient id="linearGradient8275" x1="184" x2="187" y1="470.5" y2="470.5" gradientTransform="translate(616.77199,385.16406)" gradientUnits="userSpaceOnUse" xlink:href="#linearGradient19282-4"/><linearGradient id="linearGradient8281" x1="193" x2="194" y1="469.5" y2="469.5" gradientTransform="translate(616.77199,385.16406)" gradientUnits="userSpaceOnUse" xlink:href="#linearGradient19282-4"/><linearGradient id="linearGradient8283" x1="193" x2="194" y1="464.5" y2="464.5" gradientTransform="translate(616.77199,385.16406)" gradientUnits="userSpaceOnUse" xlink:href="#linearGradient19282-4"/><linearGradient id="linearGradient8285" x1="184" x2="185" y1="464" y2="464" gradientTransform="translate(616.77199,385.16406)" gradientUnits="userSpaceOnUse" xlink:href="#linearGradient19282-4"/><linearGradient id="linearGradient8287" x1="184" x2="185" y1="469" y2="469" gradientTransform="translate(616.77199,385.16406)" gradientUnits="userSpaceOnUse" xlink:href="#linearGradient19282-4"/><linearGradient id="linearGradient8295" x1="625.211" x2="629.211" y1="387.164" y2="387.164" gradientTransform="translate(616.77199,385.16406)" gradientUnits="userSpaceOnUse" xlink:href="#linearGradient19282-4"/><linearGradient id="linearGradient8302" x1="625.211" x2="629.211" y1="399.164" y2="399.164" gradientTransform="translate(616.77199,385.16406)" gradientUnits="userSpaceOnUse" xlink:href="#linearGradient19282-4"/><linearGradient id="linearGradient8309" x1="613.211" x2="617.211" y1="399.164" y2="399.164" gradientTransform="translate(616.77199,385.16406)" gradientUnits="userSpaceOnUse" xlink:href="#linearGradient19282-4"/><linearGradient id="linearGradient8317" x1="613.211" x2="617.211" y1="387.164" y2="387.164" gradientTransform="translate(616.77199,385.16406)" gradientUnits="userSpaceOnUse" xlink:href="#linearGradient19282-4"/></defs><g style="display:inline" id="stock" transform="translate(-158.96084,-218.13282)"><g id="gimp-selection-grow" transform="translate(-22.038405,-240.86654)" style="display:inline"><rect id="rect12529" width="1" height="2" x="184" y="463" style="fill:url(#linearGradient8285);fill-opacity:1;stroke:none"/><rect id="rect12533" width="2" height="1" x="190" y="470" transform="matrix(1.9562507,0,0,1,-184.60032,0)" style="opacity:.3;fill:url(#linearGradient8273);fill-opacity:1;stroke:none;filter:url(#filter12578-8)"/><rect id="rect12537" width="1" height="4" x="193" y="465" ry="0" style="opacity:.3;fill:url(#linearGradient8271);fill-opacity:1;stroke:none"/><rect id="rect12539" width="1" height="1" x="193" y="464" style="fill:url(#linearGradient8283);fill-opacity:1;stroke:none"/><rect style="opacity:.3;fill:url(#linearGradient8265);fill-opacity:1;stroke:none" id="rect12543" width="4" height="1" x="187" y="463" ry="0"/><rect style="fill:url(#linearGradient8281);fill-opacity:1;stroke:none" id="rect12545" width="1" height="1" x="193" y="469" ry="0"/><rect style="opacity:.3;fill:url(#linearGradient8261);fill-opacity:1;stroke:none;filter:url(#filter12586-1)" id="rect12549" width="1" height="3" x="184" y="465"/><rect id="rect12551" width="1" height="2" x="184" y="468" style="fill:url(#linearGradient8287);fill-opacity:1;stroke:none"/><rect id="rect12553" width="2.93" height="1" x="191.071" y="470" style="fill:url(#linearGradient8269);fill-opacity:1;stroke:none"/><rect id="rect12555" width="3" height="1" x="191" y="463" style="fill:url(#linearGradient8267);fill-opacity:1;stroke:none"/><rect id="rect12557" width="3" height="1" x="184" y="470" style="fill:url(#linearGradient8275);fill-opacity:1;stroke:none"/><rect id="rect12559" width="2" height="1" x="185" y="463" style="fill:url(#linearGradient8263);fill-opacity:1;stroke:none"/><rect style="color:#000;display:inline;overflow:visible;visibility:visible;fill:#bdbdbd;fill-opacity:1;stroke:none;stroke-width:2;marker:none;enable-background:new" id="rect12919-5" width="1" height="1" x="181" y="474"/><path id="path30067" d="m 613.21094,397.16406 0,3 0,1 1,0 3,0 0,-1 -2,0 1.4707,-1.46875 -0.93945,-1.06054 -1.53125,1.52929 0,-2 z" transform="translate(-432.2117,73.8353)" style="fill:url(#linearGradient8309);fill-opacity:1;stroke:none"/><path id="path30078" d="m 625.21094,385.16406 0,1 1.98242,0 -1.51172,1.48633 1,1 1.5293,-1.50391 0,2.01758 1,0 0,-3 0,-1 -1,0 z" transform="translate(-432.2117,73.8353)" style="fill:url(#linearGradient8295);fill-opacity:1;stroke:none"/><path id="path30084" d="m 613.21094,385.16406 0,1 0,3 1,0 0,-2.01758 1.53125,1.50391 1,-1 -1.51367,-1.48633 1.98242,0 0,-1 -3,0 z" transform="translate(-432.2117,73.8353)" style="fill:url(#linearGradient8317);fill-opacity:1;stroke:none"/><path id="path30090" d="m 628.21094,397.16406 0,2.01758 -1.5293,-1.50391 -1,1 1.51172,1.48633 -1.98242,0 0,1 3,0 1,0 0,-1 0,-3 z" transform="translate(-432.2117,73.8353)" style="fill:url(#linearGradient8302);fill-opacity:1;stroke:none"/></g></g></svg>