<svg xmlns="http://www.w3.org/2000/svg" xmlns:osb="http://www.openswatchbook.org/uri/2009/osb" xmlns:svg="http://www.w3.org/2000/svg" xmlns:xlink="http://www.w3.org/1999/xlink" id="svg7384" width="24" height="24" version="1.1" viewBox="0 0 24 24"><metadata id="metadata90"/><defs id="defs7386"><linearGradient id="linearGradient8074" osb:paint="solid"><stop id="stop8072" offset="0" style="stop-color:#be00be;stop-opacity:1"/></linearGradient><linearGradient id="linearGradient7561" osb:paint="solid"><stop id="stop7558" offset="0" style="stop-color:#a5a5a5;stop-opacity:1"/></linearGradient><linearGradient id="linearGradient7548" osb:paint="solid"><stop id="stop7546" offset="0" style="stop-color:#ebebeb;stop-opacity:1"/></linearGradient><linearGradient id="linearGradient7542" osb:paint="solid"><stop id="stop7538" offset="0" style="stop-color:#c9c9c9;stop-opacity:1"/></linearGradient><linearGradient id="linearGradient19282" gradientTransform="matrix(0,-735328.32,170712.69,0,2464326300,577972450)" osb:paint="solid"><stop id="stop19284" offset="0" style="stop-color:#b4b4b4;stop-opacity:1"/></linearGradient><linearGradient id="linearGradient19282-4" gradientTransform="matrix(0.34682586,0,0,0.30620888,-154.35209,-275.32372)" osb:paint="solid"><stop id="stop19284-0" offset="0" style="stop-color:#bebebe;stop-opacity:1"/></linearGradient><linearGradient id="linearGradient9926" x1="4" x2="19" y1="12" y2="12" gradientTransform="translate(-92.563007,1002.1929)" gradientUnits="userSpaceOnUse" xlink:href="#linearGradient19282-4"/><linearGradient id="linearGradient9932" x1="-628" x2="-626" y1="-64" y2="-64" gradientTransform="translate(61.708689,668.12871)" gradientUnits="userSpaceOnUse" xlink:href="#linearGradient19282-4"/><linearGradient id="linearGradient9938" x1="-628" x2="-626" y1="-74" y2="-74" gradientTransform="translate(61.708689,668.12871)" gradientUnits="userSpaceOnUse" xlink:href="#linearGradient19282-4"/><linearGradient id="linearGradient9932-0" x1="-628" x2="-626" y1="-64" y2="-64" gradientUnits="userSpaceOnUse" xlink:href="#linearGradient19282-4"/><linearGradient id="linearGradient9938-3" x1="-628" x2="-626" y1="-74" y2="-74" gradientUnits="userSpaceOnUse" xlink:href="#linearGradient19282-4"/><linearGradient id="linearGradient9926-6" x1="4" x2="19" y1="12" y2="12" gradientUnits="userSpaceOnUse" xlink:href="#linearGradient19282-4"/></defs><g style="display:inline" id="gimp-hchain-broken" transform="matrix(0,-1,1.0008752,0,-1029.2622,23.999983)"><rect id="rect4380" width="23.979" height="24" x="-1052.341" y="0" transform="rotate(-90)" style="opacity:0;fill:#bebebe;fill-opacity:1;stroke:none;stroke-width:.99956268;stroke-miterlimit:4;stroke-dasharray:none;stroke-opacity:1;paint-order:stroke fill markers"/><g id="g6797" transform="matrix(0,-1.4986881,1.4999997,0,-928.99981,1143.7615)" style="display:inline"><rect id="rect6775-6" width="2" height="6" x="-628" y="-67" rx="1" ry="0" transform="matrix(0,-1,-1,0,0,0)" style="fill:url(#linearGradient9932-0);fill-opacity:1;stroke:none"/><rect id="rect6777-6" width="2" height="6" x="-628" y="-77" rx=".938" ry="0" transform="matrix(0,-1,-1,0,0,0)" style="fill:url(#linearGradient9938-3);fill-opacity:1;stroke:none"/><path id="rect6791-3" d="m 7.0000055,3.0000253 c -1.6619997,0 -3,1.3380001 -3,2.9999998 V 9.000025 h 3 V 7.0000251 c 0,-0.8309998 0.4683279,-1 1.2993277,-1 H 14.645982 C 15.476982,6.0000251 16,6.6690002 16,7.5 l 5e-6,1.500025 h 3 L 19,6 c -3e-6,-1.6619997 -1.337995,-2.9999747 -2.999995,-2.9999747 z m -3,11.9999997 v 3 c 0,1.662 1.3380003,3 3,3 H 16.000005 C 17.662005,21.000025 19,19.662 19,18 l 5e-6,-2.999975 h -3 L 16,16.5 c -3e-6,0.831 -0.669,1.500025 -1.5,1.500025 h -6 c -0.8309998,0 -1.4999945,-0.169 -1.4999945,-1 v -2 z" transform="matrix(0,0.6666668,-0.6666668,0,77.000215,619.33333)" style="fill:url(#linearGradient9926-6);fill-opacity:1;stroke:none;stroke-width:1.49999964"/></g></g></svg>