<svg xmlns="http://www.w3.org/2000/svg" xmlns:osb="http://www.openswatchbook.org/uri/2009/osb" xmlns:svg="http://www.w3.org/2000/svg" id="svg30571" width="16" height="16" version="1.1" viewBox="0 0 16 16"><defs id="defs30573"><linearGradient id="linearGradient19282" gradientTransform="matrix(1.2178615,0,0,1.043881,378.84797,1794.4958)" osb:paint="solid"><stop id="stop19284" offset="0" style="stop-color:#505050;stop-opacity:1"/></linearGradient><linearGradient id="linearGradient19282-1" gradientTransform="matrix(1.2178615,0,0,1.043881,356.69172,1794.4958)" osb:paint="solid"><stop id="stop19284-8" offset="0" style="stop-color:#505050;stop-opacity:1"/></linearGradient><linearGradient id="linearGradient19282-2" gradientTransform="matrix(1.2178615,0,0,1.043881,356.69172,1794.4958)" osb:paint="solid"><stop id="stop19284-1" offset="0" style="stop-color:#666;stop-opacity:1"/></linearGradient></defs><metadata id="metadata30576"/><g id="layer1" transform="translate(0,-1036.3622)"><path style="opacity:.3;fill:#bebebe;fill-opacity:1;stroke:none;stroke-width:.92290813;stroke-miterlimit:4;stroke-dasharray:none;stroke-opacity:1" id="rect4014" d="m 2,1038.3622 12,0 0,12 -12,0 z"/><path style="color:#000;font-style:normal;font-variant:normal;font-weight:400;font-stretch:normal;font-size:medium;line-height:normal;font-family:sans-serif;text-indent:0;text-align:start;text-decoration:none;text-decoration-line:none;text-decoration-style:solid;text-decoration-color:#000;letter-spacing:normal;word-spacing:normal;text-transform:none;direction:ltr;writing-mode:lr-tb;baseline-shift:baseline;text-anchor:start;white-space:normal;clip-rule:nonzero;display:inline;overflow:visible;visibility:visible;opacity:1;isolation:auto;mix-blend-mode:normal;color-interpolation:sRGB;color-interpolation-filters:linearRGB;solid-color:#000;solid-opacity:1;fill:#bebebe;fill-opacity:1;fill-rule:nonzero;stroke:none;stroke-width:.99999094;stroke-linecap:butt;stroke-linejoin:miter;stroke-miterlimit:4;stroke-dasharray:none;stroke-dashoffset:0;stroke-opacity:1;color-rendering:auto;image-rendering:auto;shape-rendering:auto;text-rendering:auto;enable-background:accumulate" id="rect4014-3" d="M 0 0 L 0 0.5 L 0 1.0429688 L 1 1.0429688 L 1 1 L 1 0 L 0 0 z M 2 0 L 2 1 L 3.1601562 1 L 3.1601562 0 L 2 0 z M 4.1601562 0 L 4.1601562 1 L 5.3203125 1 L 5.3203125 0 L 4.1601562 0 z M 6.3183594 0 L 6.3183594 1 L 7.4785156 1 L 7.4785156 0 L 6.3183594 0 z M 8.4785156 0 L 8.4785156 1 L 9.6386719 1 L 9.6386719 0 L 8.4785156 0 z M 10.636719 0 L 10.636719 1 L 11.798828 1 L 11.798828 0 L 10.636719 0 z M 12.796875 0 L 12.796875 1 L 13.957031 1 L 13.957031 0 L 12.796875 0 z M 14.957031 0 L 14.957031 1 L 15 1 L 15 1.0429688 L 16 1.0429688 L 16 0 L 14.957031 0 z M 0 2.0429688 L 0 3.203125 L 1 3.203125 L 1 2.0429688 L 0 2.0429688 z M 15 2.0429688 L 15 3.203125 L 16 3.203125 L 16 2.0429688 L 15 2.0429688 z M 0 4.203125 L 0 5.3632812 L 1 5.3632812 L 1 4.203125 L 0 4.203125 z M 15 4.203125 L 15 5.3632812 L 16 5.3632812 L 16 4.203125 L 15 4.203125 z M 0 6.3613281 L 0 7.5214844 L 1 7.5214844 L 1 6.3613281 L 0 6.3613281 z M 15 6.3613281 L 15 7.5214844 L 16 7.5214844 L 16 6.3613281 L 15 6.3613281 z M 0 8.5214844 L 0 9.6816406 L 1 9.6816406 L 1 8.5214844 L 0 8.5214844 z M 15 8.5214844 L 15 9.6816406 L 16 9.6816406 L 16 8.5214844 L 15 8.5214844 z M 0 10.679688 L 0 11.839844 L 1 11.839844 L 1 10.679688 L 0 10.679688 z M 15 10.679688 L 15 11.839844 L 16 11.839844 L 16 10.679688 L 15 10.679688 z M 0 12.839844 L 0 14 L 1 14 L 1 12.839844 L 0 12.839844 z M 15 12.839844 L 15 14 L 16 14 L 16 12.839844 L 15 12.839844 z M 0 15 L 0 16 L 1.0175781 16 L 1.0175781 15 L 1 15 L 0 15 z M 2.015625 15 L 2.015625 16 L 3.1757812 16 L 3.1757812 15 L 2.015625 15 z M 4.1757812 15 L 4.1757812 16 L 5.3359375 16 L 5.3359375 15 L 4.1757812 15 z M 6.3339844 15 L 6.3339844 16 L 7.4941406 16 L 7.4941406 15 L 6.3339844 15 z M 8.4941406 15 L 8.4941406 16 L 9.6542969 16 L 9.6542969 15 L 8.4941406 15 z M 10.654297 15 L 10.654297 16 L 11.814453 16 L 11.814453 15 L 10.654297 15 z M 12.8125 15 L 12.8125 16 L 13.972656 16 L 13.972656 15 L 12.8125 15 z M 14.972656 15 L 14.972656 16 L 16 16 L 16 15 L 15 15 L 14.972656 15 z" transform="translate(0,1036.3622)"/></g></svg>