<svg xmlns="http://www.w3.org/2000/svg" xmlns:osb="http://www.openswatchbook.org/uri/2009/osb" xmlns:svg="http://www.w3.org/2000/svg" xmlns:xlink="http://www.w3.org/1999/xlink" id="svg7384" width="16" height="16" version="1.1" viewBox="0 0 16 16"><metadata id="metadata90"/><defs id="defs7386"><linearGradient id="linearGradient8074" osb:paint="solid"><stop id="stop8072" offset="0" style="stop-color:#be00be;stop-opacity:1"/></linearGradient><linearGradient id="linearGradient7561" osb:paint="solid"><stop id="stop7558" offset="0" style="stop-color:#a5a5a5;stop-opacity:1"/></linearGradient><linearGradient id="linearGradient7548" osb:paint="solid"><stop id="stop7546" offset="0" style="stop-color:#ebebeb;stop-opacity:1"/></linearGradient><linearGradient id="linearGradient7542" osb:paint="solid"><stop id="stop7538" offset="0" style="stop-color:#c9c9c9;stop-opacity:1"/></linearGradient><linearGradient id="linearGradient19282" gradientTransform="matrix(0,-735328.32,170712.69,0,2464326300,577972450)" osb:paint="solid"><stop id="stop19284" offset="0" style="stop-color:#b4b4b4;stop-opacity:1"/></linearGradient><linearGradient id="linearGradient19282-4" gradientTransform="matrix(0.34682586,0,0,0.30620888,-70.089625,664.07603)" osb:paint="solid"><stop id="stop19284-0" offset="0" style="stop-color:#bebebe;stop-opacity:1"/></linearGradient><linearGradient id="linearGradient7524" x1="84.262" x2="100.262" y1="104.963" y2="104.963" gradientTransform="translate(542.07359,263.99385)" gradientUnits="userSpaceOnUse" xlink:href="#linearGradient19282-4"/></defs><g style="display:inline" id="stock" transform="translate(-84.262445,-96.962611)"><path id="gimp-tool-options" d="m 100.26245,108.9625 0,-9.999989 -6.116765,0 -1.01012,-1.56639 c -0.18671,-0.24378 -0.62208,-0.43351 -0.90966,-0.43351 -0.29223,0 -0.84549,0.3171 -0.90029,0.53371 l -0.84308,1.46619 -6.22009,0 0,9.999989 2,0 -1,3.99998 1,0 0.5,-1.99997 11,0 0.5,1.99997 1,0 -1,-4.0001 z m -7.999945,-11.000019 0.49994,1.00003 -1,0 z m -7.00006,2.00002 14,0 0,8.000009 -14,0 z m 12,9.999979 -10,0 0,-0.99998 10,0 z" style="fill:url(#linearGradient7524);fill-opacity:1;stroke-width:.08724019"/></g></svg>