<svg xmlns="http://www.w3.org/2000/svg" xmlns:osb="http://www.openswatchbook.org/uri/2009/osb" xmlns:svg="http://www.w3.org/2000/svg" xmlns:xlink="http://www.w3.org/1999/xlink" id="svg7384" width="16" height="16" version="1.1" viewBox="0 0 16 16"><metadata id="metadata90"/><defs id="defs7386"><linearGradient id="linearGradient19282-4" gradientTransform="matrix(0.34682586,0,0,0.30620888,6.6481284,282.03851)" osb:paint="solid"><stop id="stop19284-0" offset="0" style="stop-color:#bebebe;stop-opacity:1"/></linearGradient><linearGradient id="linearGradient7651" x1="162" x2="176" y1="487" y2="487" gradientTransform="translate(615.84575,317.9785)" gradientUnits="userSpaceOnUse" xlink:href="#linearGradient19282-4"/><linearGradient id="linearGradient7709" x1="-174" x2="-172" y1="487" y2="487" gradientTransform="translate(-615.84575,317.9785)" gradientUnits="userSpaceOnUse" xlink:href="#linearGradient19282-4"/><linearGradient id="linearGradient7711" x1="-171" x2="-170" y1="487" y2="487" gradientTransform="translate(-615.84575,317.9785)" gradientUnits="userSpaceOnUse" xlink:href="#linearGradient19282-4"/><linearGradient id="linearGradient7713" x1="-172" x2="-171" y1="484.5" y2="484.5" gradientTransform="translate(-615.84575,317.9785)" gradientUnits="userSpaceOnUse" xlink:href="#linearGradient19282-4"/><linearGradient id="linearGradient7715" x1="-172" x2="-171" y1="482.5" y2="482.5" gradientTransform="translate(-615.84575,317.9785)" gradientUnits="userSpaceOnUse" xlink:href="#linearGradient19282-4"/><linearGradient id="linearGradient7717" x1="-172" x2="-171" y1="486.5" y2="486.5" gradientTransform="translate(-615.84575,317.9785)" gradientUnits="userSpaceOnUse" xlink:href="#linearGradient19282-4"/><linearGradient id="linearGradient7719" x1="-172" x2="-171" y1="488.5" y2="488.5" gradientTransform="translate(-615.84575,317.9785)" gradientUnits="userSpaceOnUse" xlink:href="#linearGradient19282-4"/><linearGradient id="linearGradient7721" x1="-172" x2="-171" y1="490.5" y2="490.5" gradientTransform="translate(-615.84575,317.9785)" gradientUnits="userSpaceOnUse" xlink:href="#linearGradient19282-4"/><linearGradient id="linearGradient7723" x1="-170" x2="-169" y1="490.5" y2="490.5" gradientTransform="translate(-615.84575,317.9785)" gradientUnits="userSpaceOnUse" xlink:href="#linearGradient19282-4"/><linearGradient id="linearGradient7725" x1="-170" x2="-169" y1="488.24" y2="488.24" gradientTransform="translate(-615.84575,317.9785)" gradientUnits="userSpaceOnUse" xlink:href="#linearGradient19282-4"/><linearGradient id="linearGradient7727" x1="-170" x2="-169" y1="486.5" y2="486.5" gradientTransform="translate(-615.84575,317.9785)" gradientUnits="userSpaceOnUse" xlink:href="#linearGradient19282-4"/><linearGradient id="linearGradient7729" x1="-170" x2="-169" y1="484.5" y2="484.5" gradientTransform="translate(-615.84575,317.9785)" gradientUnits="userSpaceOnUse" xlink:href="#linearGradient19282-4"/><linearGradient id="linearGradient7731" x1="-170" x2="-169" y1="482.5" y2="482.5" gradientTransform="translate(-615.84575,317.9785)" gradientUnits="userSpaceOnUse" xlink:href="#linearGradient19282-4"/><linearGradient id="linearGradient7733" x1="168" x2="169" y1="483.5" y2="483.5" gradientTransform="translate(615.84575,317.9785)" gradientUnits="userSpaceOnUse" xlink:href="#linearGradient19282-4"/><linearGradient id="linearGradient7735" x1="168" x2="169" y1="485.5" y2="485.5" gradientTransform="translate(615.84575,317.9785)" gradientUnits="userSpaceOnUse" xlink:href="#linearGradient19282-4"/><linearGradient id="linearGradient7737" x1="168" x2="169" y1="487.5" y2="487.5" gradientTransform="translate(615.84575,317.9785)" gradientUnits="userSpaceOnUse" xlink:href="#linearGradient19282-4"/><linearGradient id="linearGradient7739" x1="168" x2="169" y1="491.5" y2="491.5" gradientTransform="translate(615.84575,317.9785)" gradientUnits="userSpaceOnUse" xlink:href="#linearGradient19282-4"/><linearGradient id="linearGradient7741" x1="168" x2="169" y1="489.5" y2="489.5" gradientTransform="translate(615.84575,317.9785)" gradientUnits="userSpaceOnUse" xlink:href="#linearGradient19282-4"/><linearGradient id="linearGradient7743" x1="166" x2="167" y1="488.5" y2="488.5" gradientTransform="translate(615.84575,317.9785)" gradientUnits="userSpaceOnUse" xlink:href="#linearGradient19282-4"/><linearGradient id="linearGradient7745" x1="166" x2="167" y1="490.5" y2="490.5" gradientTransform="translate(615.84575,317.9785)" gradientUnits="userSpaceOnUse" xlink:href="#linearGradient19282-4"/><linearGradient id="linearGradient7747" x1="167" x2="168" y1="487" y2="487" gradientTransform="translate(615.84575,317.9785)" gradientUnits="userSpaceOnUse" xlink:href="#linearGradient19282-4"/><linearGradient id="linearGradient7749" x1="166" x2="167" y1="486.5" y2="486.5" gradientTransform="translate(615.84575,317.9785)" gradientUnits="userSpaceOnUse" xlink:href="#linearGradient19282-4"/><linearGradient id="linearGradient7751" x1="166" x2="167" y1="484.5" y2="484.5" gradientTransform="translate(615.84575,317.9785)" gradientUnits="userSpaceOnUse" xlink:href="#linearGradient19282-4"/><linearGradient id="linearGradient7753" x1="166" x2="167" y1="482.5" y2="482.5" gradientTransform="translate(615.84575,317.9785)" gradientUnits="userSpaceOnUse" xlink:href="#linearGradient19282-4"/><linearGradient id="linearGradient7755" x1="164" x2="166" y1="487" y2="487" gradientTransform="translate(615.84575,317.9785)" gradientUnits="userSpaceOnUse" xlink:href="#linearGradient19282-4"/></defs><g style="display:inline" id="stock" transform="translate(-158.0346,-150.94726)"><g id="gimp-gradient-bilinear" transform="translate(-2.9655948,-328.05274)" style="display:inline"><path id="path6311" d="m 162.0002,480 0,14 14,0 0,-14 z m 1,1 12,0 0,12 -12,0 z" style="fill:url(#linearGradient7651);fill-opacity:1;stroke:none"/><rect id="rect6313" width="2" height="10" x="164" y="482" style="fill:url(#linearGradient7755);fill-opacity:1;stroke:none"/><rect id="rect6317" width="1" height="1" x="166" y="482" style="fill:url(#linearGradient7753);fill-opacity:1;stroke:none"/><rect style="fill:url(#linearGradient7751);fill-opacity:1;stroke:none" id="rect6321" width="1" height="1" x="166" y="484"/><rect id="rect6325" width="1" height="1" x="166" y="486" style="fill:url(#linearGradient7749);fill-opacity:1;stroke:none"/><rect style="fill:url(#linearGradient7743);fill-opacity:1;stroke:none" id="rect6329" width="1" height="1" x="166" y="488"/><rect id="rect6333" width="1" height="1" x="166" y="490" style="fill:url(#linearGradient7745);fill-opacity:1;stroke:none"/><rect id="rect6335" width="1" height="1" x="168" y="483" style="opacity:.3;fill:url(#linearGradient7733);fill-opacity:1;stroke:none"/><rect id="rect6337" width="1" height="1" x="168" y="485" style="opacity:.3;fill:url(#linearGradient7735);fill-opacity:1;stroke:none"/><rect id="rect6339" width="1" height="1" x="168" y="487" style="opacity:.3;fill:url(#linearGradient7737);fill-opacity:1;stroke:none"/><rect id="rect6341" width="1" height="1" x="168" y="489" style="opacity:.3;fill:url(#linearGradient7741);fill-opacity:1;stroke:none"/><rect id="rect6343" width="1" height="1" x="168" y="491" style="opacity:.3;fill:url(#linearGradient7739);fill-opacity:1;stroke:none"/><rect id="rect6355" width="1" height="10" x="167" y="482" rx="2" ry="2" style="opacity:.3;fill:url(#linearGradient7747);fill-opacity:1;stroke:none"/><rect style="fill:url(#linearGradient7709);fill-opacity:1;stroke:none" id="rect6500" width="2" height="10" x="-174" y="482" transform="scale(-1,1)"/><rect style="fill:url(#linearGradient7715);fill-opacity:1;stroke:none" id="rect6502" width="1" height="1" x="-172" y="482" transform="scale(-1,1)"/><rect id="rect6504" width="1" height="1" x="-172" y="484" transform="scale(-1,1)" style="fill:url(#linearGradient7713);fill-opacity:1;stroke:none"/><rect style="fill:url(#linearGradient7717);fill-opacity:1;stroke:none" id="rect6506" width="1" height="1" x="-172" y="486" transform="scale(-1,1)"/><rect id="rect6508" width="1" height="1" x="-172" y="488" transform="scale(-1,1)" style="fill:url(#linearGradient7719);fill-opacity:1;stroke:none"/><rect style="fill:url(#linearGradient7721);fill-opacity:1;stroke:none" id="rect6510" width="1" height="1" x="-172" y="490" transform="scale(-1,1)"/><rect style="opacity:.3;fill:url(#linearGradient7731);fill-opacity:1;stroke:none" id="rect6512" width="1" height="1" x="-170" y="482" transform="scale(-1,1)"/><rect style="opacity:.3;fill:url(#linearGradient7729);fill-opacity:1;stroke:none" id="rect6514" width="1" height="1" x="-170" y="484" transform="scale(-1,1)"/><rect style="opacity:.3;fill:url(#linearGradient7727);fill-opacity:1;stroke:none" id="rect6516" width="1" height="1" x="-170" y="486" transform="scale(-1,1)"/><rect style="opacity:.3;fill:url(#linearGradient7725);fill-opacity:1;stroke:none" id="rect6518" width="1" height="1" x="-170" y="487.74" transform="scale(-1,1)"/><rect style="opacity:.3;fill:url(#linearGradient7723);fill-opacity:1;stroke:none" id="rect6520" width="1" height="1" x="-170" y="490" transform="scale(-1,1)"/><rect style="opacity:.3;fill:url(#linearGradient7711);fill-opacity:1;stroke:none" id="rect6522" width="1" height="10" x="-171" y="482" rx="2" ry="2" transform="scale(-1,1)"/></g></g></svg>