<svg xmlns="http://www.w3.org/2000/svg" xmlns:osb="http://www.openswatchbook.org/uri/2009/osb" xmlns:svg="http://www.w3.org/2000/svg" xmlns:xlink="http://www.w3.org/1999/xlink" id="svg7384" width="16" height="16" version="1.1" viewBox="0 0 16 16"><metadata id="metadata90"/><defs id="defs7386"><linearGradient id="linearGradient8074" osb:paint="solid"><stop id="stop8072" offset="0" style="stop-color:#be00be;stop-opacity:1"/></linearGradient><linearGradient id="linearGradient7561" osb:paint="solid"><stop id="stop7558" offset="0" style="stop-color:#a5a5a5;stop-opacity:1"/></linearGradient><linearGradient id="linearGradient7548" osb:paint="solid"><stop id="stop7546" offset="0" style="stop-color:#ebebeb;stop-opacity:1"/></linearGradient><linearGradient id="linearGradient7542" osb:paint="solid"><stop id="stop7538" offset="0" style="stop-color:#c9c9c9;stop-opacity:1"/></linearGradient><linearGradient id="linearGradient19282" gradientTransform="matrix(0,-735328.32,170712.69,0,2464326300,577972450)" osb:paint="solid"><stop id="stop19284" offset="0" style="stop-color:#b4b4b4;stop-opacity:1"/></linearGradient><linearGradient id="linearGradient19282-4" gradientTransform="matrix(0.34682586,0,0,0.30620888,-197.86693,574.61325)" osb:paint="solid"><stop id="stop19284-0" offset="0" style="stop-color:#bebebe;stop-opacity:1"/></linearGradient><linearGradient id="linearGradient10586" x1="-187.618" x2="-184" y1="45" y2="45" gradientTransform="translate(111.24014,74.353979)" gradientUnits="userSpaceOnUse" xlink:href="#linearGradient19282-4"/><linearGradient id="linearGradient10592" x1="-37.269" x2="-27.948" y1="197.306" y2="197.306" gradientTransform="translate(202.35566,142.19442)" gradientUnits="userSpaceOnUse" xlink:href="#linearGradient19282-4"/></defs><g style="display:inline" id="tools" transform="translate(88.278024,-206.7179)"><g id="gimp-tool-fuzzy-select" transform="translate(-44.763166,20.292635)"><path style="fill:url(#linearGradient10586);fill-opacity:1;stroke:none" id="path106146" d="m -184,45 -1.19098,0.587785 -0.19099,1.314328 -0.92705,-0.951056 -1.30901,0.224514 L -187,45 l -0.61803,-1.175571 1.30901,0.224514 0.92705,-0.951056 0.19099,1.314328 z" transform="matrix(1.8190885,0,0,1.9123982,298.8878,106.00494)"/><path style="fill:url(#linearGradient10592);fill-opacity:1;fill-rule:evenodd;stroke:none;stroke-width:1px;stroke-linecap:butt;stroke-linejoin:miter;stroke-opacity:1" id="path6038" d="m -36.036488,193.22363 c 0,0 -0.570731,-0.16096 -0.982344,0.36519 -0.411612,0.52615 -0.190641,0.98614 -0.190641,0.98614 l 7.967831,6.82073 c 0,0 0.632995,0.11628 1.001761,-0.29354 0.368766,-0.40982 0.28328,-0.9107 0.28328,-0.9107 z"/></g></g></svg>