<svg xmlns="http://www.w3.org/2000/svg" xmlns:osb="http://www.openswatchbook.org/uri/2009/osb" xmlns:svg="http://www.w3.org/2000/svg" xmlns:xlink="http://www.w3.org/1999/xlink" id="svg7384" width="16" height="16" version="1.1" viewBox="0 0 16 16"><metadata id="metadata90"/><defs id="defs7386"><linearGradient id="linearGradient8074" osb:paint="solid"><stop id="stop8072" offset="0" style="stop-color:#be00be;stop-opacity:1"/></linearGradient><linearGradient id="linearGradient7561" osb:paint="solid"><stop id="stop7558" offset="0" style="stop-color:#a5a5a5;stop-opacity:1"/></linearGradient><linearGradient id="linearGradient7548" osb:paint="solid"><stop id="stop7546" offset="0" style="stop-color:#ebebeb;stop-opacity:1"/></linearGradient><linearGradient id="linearGradient7542" osb:paint="solid"><stop id="stop7538" offset="0" style="stop-color:#c9c9c9;stop-opacity:1"/></linearGradient><linearGradient id="linearGradient19282" gradientTransform="matrix(0,-735328.32,170712.69,0,2464326300,577972450)" osb:paint="solid"><stop id="stop19284" offset="0" style="stop-color:#b4b4b4;stop-opacity:1"/></linearGradient><linearGradient id="linearGradient19282-4" gradientTransform="matrix(0.34682586,0,0,0.30620888,-59.303024,760.97603)" osb:paint="solid"><stop id="stop19284-0" offset="0" style="stop-color:#bebebe;stop-opacity:1"/></linearGradient><linearGradient id="linearGradient8221" x1="850.586" x2="866.574" y1="360.969" y2="360.969" gradientTransform="translate(854.14698,355.96875)" gradientUnits="userSpaceOnUse" xlink:href="#linearGradient19282-4"/><linearGradient id="linearGradient8228" x1="850.586" x2="866.586" y1="366.938" y2="366.938" gradientTransform="translate(854.14698,355.96875)" gradientUnits="userSpaceOnUse" xlink:href="#linearGradient19282-4"/></defs><g style="display:inline" id="preferences" transform="translate(-240.82633,-197.96911)"><g id="gimp-prefs-session" transform="matrix(0.9991969,0,0,1,145.85362,197.90663)"><g id="g706"><path id="path15003" d="m 857.08203,355.96875 c -3.58698,0 -6.49609,2.91015 -6.49609,6.5 0,0.17107 0.0183,0.33226 0.0312,0.5 h 2.02929 c -0.0187,-0.16677 -0.0605,-0.32822 -0.0605,-0.5 0,-2.48528 2.01281,-4.5 4.49609,-4.5 2.31202,0 4.19362,1.75339 4.44531,4 h -2.94726 l 3.99609,4 3.99805,-4 h -3.02344 c -0.2561,-3.35524 -3.05058,-6 -6.46875,-6 z" transform="matrix(1.0008037,0,0,1,-756.22051,-355.90663)" style="display:inline;fill:url(#linearGradient8221);fill-opacity:1;stroke:none;stroke-width:.99959838"/><path id="path15014" d="m 854.58398,361.96875 -3.99804,4 h 3.03906 c 0.28565,3.32574 3.06971,5.9375 6.4668,5.9375 3.58697,0 6.49414,-2.91015 6.49414,-6.5 0,-0.17107 -0.0183,-0.33226 -0.0312,-0.5 h -2.0293 c 0.0187,0.16677 0.0625,0.32822 0.0625,0.5 0,2.48528 -2.01281,4.5 -4.49609,4.5 -2.29104,0 -4.16042,-1.72038 -4.43946,-3.9375 h 2.92774 z" transform="matrix(1.0008037,0,0,1,-756.22051,-355.90663)" style="display:inline;fill:url(#linearGradient8228);fill-opacity:1;stroke:none;stroke-width:.99959838"/></g></g></g></svg>