<svg xmlns="http://www.w3.org/2000/svg" xmlns:osb="http://www.openswatchbook.org/uri/2009/osb" xmlns:svg="http://www.w3.org/2000/svg" xmlns:xlink="http://www.w3.org/1999/xlink" id="svg7384" width="16" height="16" version="1.1" viewBox="0 0 16 16"><metadata id="metadata90"/><defs id="defs7386"><linearGradient id="linearGradient8074" osb:paint="solid"><stop id="stop8072" offset="0" style="stop-color:#be00be;stop-opacity:1"/></linearGradient><linearGradient id="linearGradient7561" osb:paint="solid"><stop id="stop7558" offset="0" style="stop-color:#a5a5a5;stop-opacity:1"/></linearGradient><linearGradient id="linearGradient7548" osb:paint="solid"><stop id="stop7546" offset="0" style="stop-color:#ebebeb;stop-opacity:1"/></linearGradient><linearGradient id="linearGradient7542" osb:paint="solid"><stop id="stop7538" offset="0" style="stop-color:#c9c9c9;stop-opacity:1"/></linearGradient><linearGradient id="linearGradient19282" gradientTransform="matrix(0,-735328.32,170712.69,0,2464326300,577972450)" osb:paint="solid"><stop id="stop19284" offset="0" style="stop-color:#b4b4b4;stop-opacity:1"/></linearGradient><linearGradient id="linearGradient19282-4" gradientTransform="matrix(0.34682586,0,0,0.30620888,-33.351872,202.03851)" osb:paint="solid"><stop id="stop19284-0" offset="0" style="stop-color:#bebebe;stop-opacity:1"/></linearGradient><linearGradient id="linearGradient7847" x1="-112" x2="-106" y1="353.5" y2="353.5" gradientTransform="translate(420.14928,236.93479)" gradientUnits="userSpaceOnUse" xlink:href="#linearGradient19282-4"/><linearGradient id="linearGradient7851" x1="127" x2="128" y1="573.5" y2="573.5" gradientTransform="translate(420.14928,236.93479)" gradientUnits="userSpaceOnUse" xlink:href="#linearGradient19282-4"/><linearGradient id="linearGradient7853" x1="127" x2="128" y1="571.5" y2="571.5" gradientTransform="translate(420.14928,236.93479)" gradientUnits="userSpaceOnUse" xlink:href="#linearGradient19282-4"/><linearGradient id="linearGradient7857" x1="127" x2="128" y1="569.5" y2="569.5" gradientTransform="translate(420.14928,236.93479)" gradientUnits="userSpaceOnUse" xlink:href="#linearGradient19282-4"/><linearGradient id="linearGradient7859" x1="127" x2="128" y1="567.5" y2="567.5" gradientTransform="translate(420.14928,236.93479)" gradientUnits="userSpaceOnUse" xlink:href="#linearGradient19282-4"/><linearGradient id="linearGradient7863" x1="123" x2="135" y1="567.5" y2="567.5" gradientTransform="translate(420.14928,236.93479)" gradientUnits="userSpaceOnUse" xlink:href="#linearGradient19282-4"/><linearGradient id="linearGradient7865" x1="127" x2="128" y1="565.5" y2="565.5" gradientTransform="translate(420.14928,236.93479)" gradientUnits="userSpaceOnUse" xlink:href="#linearGradient19282-4"/><linearGradient id="linearGradient7868" x1="129" x2="130" y1="565.5" y2="565.5" gradientTransform="translate(420.14928,236.93479)" gradientUnits="userSpaceOnUse" xlink:href="#linearGradient19282-4"/><linearGradient id="linearGradient7870" x1="131" x2="132" y1="565.5" y2="565.5" gradientTransform="translate(420.14928,236.93479)" gradientUnits="userSpaceOnUse" xlink:href="#linearGradient19282-4"/><linearGradient id="linearGradient7873" x1="133" x2="134" y1="565.5" y2="565.5" gradientTransform="translate(420.14928,236.93479)" gradientUnits="userSpaceOnUse" xlink:href="#linearGradient19282-4"/></defs><g style="display:inline" id="stock" transform="translate(37.661871,-69.90355)"><g id="gimp-join-round" transform="translate(-158.66207,-489.09645)" style="display:inline"><rect style="fill:url(#linearGradient7873);fill-opacity:1;stroke:none" id="rect13431" width="1" height="1" x="133" y="565"/><rect style="fill:url(#linearGradient7870);fill-opacity:1;stroke:none" id="rect13433" width="1" height="1" x="131" y="565"/><rect style="fill:url(#linearGradient7868);fill-opacity:1;stroke:none" id="rect13435" width="1" height="1" x="129" y="565"/><rect style="fill:url(#linearGradient7865);fill-opacity:1;stroke:none" id="rect13437" width="1" height="1" x="127" y="565"/><rect style="fill:url(#linearGradient7859);fill-opacity:1;stroke:none" id="rect13439" width="1" height="1" x="127" y="567"/><rect style="fill:url(#linearGradient7857);fill-opacity:1;stroke:none" id="rect13441" width="1" height="1" x="127" y="569"/><rect style="fill:url(#linearGradient7853);fill-opacity:1;stroke:none" id="rect13443" width="1" height="1" x="127" y="571"/><rect style="fill:url(#linearGradient7851);fill-opacity:1;stroke:none" id="rect13445" width="1" height="1" x="127" y="573"/><path style="fill:url(#linearGradient7863);fill-opacity:1;stroke:none" id="rect13447" d="m 123.0002,574 0,-4 0,-5 c 0,-2.216 1.784,-4 4,-4 l 8,0 c 0,4.3748 0,-0.85566 0,3 l -7,0 c -1.10701,-0.0468 -2,0.892 -2,2 l 0,5 0,3 z"/><path style="fill:url(#linearGradient7847);fill-opacity:1;stroke:none" id="rect13481" d="m -112,350 6,0 0,1.75 0,1.25 -3,0 0,4 -3,0 z" transform="translate(241.0002,217)"/></g></g></svg>