<svg xmlns="http://www.w3.org/2000/svg" xmlns:osb="http://www.openswatchbook.org/uri/2009/osb" xmlns:svg="http://www.w3.org/2000/svg" xmlns:xlink="http://www.w3.org/1999/xlink" id="svg7384" width="16" height="16" version="1.1" viewBox="0 0 16 16"><metadata id="metadata90"/><defs id="defs7386"><linearGradient id="linearGradient8074" osb:paint="solid"><stop id="stop8072" offset="0" style="stop-color:#be00be;stop-opacity:1"/></linearGradient><linearGradient id="linearGradient7561" osb:paint="solid"><stop id="stop7558" offset="0" style="stop-color:#a5a5a5;stop-opacity:1"/></linearGradient><linearGradient id="linearGradient7548" osb:paint="solid"><stop id="stop7546" offset="0" style="stop-color:#ebebeb;stop-opacity:1"/></linearGradient><linearGradient id="linearGradient7542" osb:paint="solid"><stop id="stop7538" offset="0" style="stop-color:#c9c9c9;stop-opacity:1"/></linearGradient><linearGradient id="linearGradient19282" gradientTransform="matrix(0,-735328.32,170712.69,0,2464326300,577972450)" osb:paint="solid"><stop id="stop19284" offset="0" style="stop-color:#b4b4b4;stop-opacity:1"/></linearGradient><linearGradient id="linearGradient19282-4" gradientTransform="matrix(0.34682586,0,0,0.30620888,-33.351872,564.03851)" osb:paint="solid"><stop id="stop19284-0" offset="0" style="stop-color:#bebebe;stop-opacity:1"/></linearGradient><linearGradient id="linearGradient7267" x1="126" x2="132" y1="208" y2="208" gradientTransform="translate(299.65386,140.66157)" gradientUnits="userSpaceOnUse" xlink:href="#linearGradient19282-4"/><linearGradient id="linearGradient7273" x1="121" x2="125" y1="212" y2="212" gradientTransform="translate(299.65386,140.66157)" gradientUnits="userSpaceOnUse" xlink:href="#linearGradient19282-4"/><linearGradient id="linearGradient7279" x1="127" x2="137" y1="200" y2="200" gradientTransform="translate(299.65386,140.66157)" gradientUnits="userSpaceOnUse" xlink:href="#linearGradient19282-4"/></defs><g style="display:inline" id="tools" transform="matrix(1,0,0,-1,-9.0201784,221.18505)"><g id="gimp-tool-scale" transform="translate(-111.98002,8.18505)" style="display:inline"><rect style="fill:url(#linearGradient7273);fill-opacity:1;stroke:none" id="rect4716" width="4" height="2" x="121" y="211" rx=".47" ry=".514"/><path style="fill:url(#linearGradient7279);fill-opacity:1;stroke:none" id="rect4718" d="m 127.83353,197 c -0.46166,0 -0.83333,0.38229 -0.83333,0.85714 v 3.42857 0.85715 c 0,0.47485 0.37167,0.85714 0.83333,0.85714 h 5.83334 2.5 c 0.46166,0 0.83333,-0.38229 0.83333,-0.85714 v -3.42857 -0.85715 c 0,-0.47485 -0.37167,-0.85714 -0.83333,-0.85714 h -5.83334 z"/><path style="fill:url(#linearGradient7267);fill-opacity:1;stroke:none" id="path10525" d="m 127.0002,205 2,2 -3,3 1,1 1,-1 2,-2 2,2 v -5 h -3 z"/></g></g></svg>