<svg xmlns="http://www.w3.org/2000/svg" xmlns:osb="http://www.openswatchbook.org/uri/2009/osb" xmlns:svg="http://www.w3.org/2000/svg" xmlns:xlink="http://www.w3.org/1999/xlink" id="svg7384" width="16" height="16" version="1.1" viewBox="0 0 16 16"><metadata id="metadata90"/><defs id="defs7386"><linearGradient id="linearGradient8074" osb:paint="solid"><stop id="stop8072" offset="0" style="stop-color:#be00be;stop-opacity:1"/></linearGradient><linearGradient id="linearGradient7561" osb:paint="solid"><stop id="stop7558" offset="0" style="stop-color:#a5a5a5;stop-opacity:1"/></linearGradient><linearGradient id="linearGradient7548" osb:paint="solid"><stop id="stop7546" offset="0" style="stop-color:#ebebeb;stop-opacity:1"/></linearGradient><linearGradient id="linearGradient7542" osb:paint="solid"><stop id="stop7538" offset="0" style="stop-color:#c9c9c9;stop-opacity:1"/></linearGradient><linearGradient id="linearGradient19282" gradientTransform="matrix(0,-735328.32,170712.69,0,2464326300,577972450)" osb:paint="solid"><stop id="stop19284" offset="0" style="stop-color:#b4b4b4;stop-opacity:1"/></linearGradient><linearGradient id="linearGradient19282-4" gradientTransform="matrix(0.34682586,0,0,0.30620888,-159.35207,801.03851)" osb:paint="solid"><stop id="stop19284-0" offset="0" style="stop-color:#bebebe;stop-opacity:1"/></linearGradient><linearGradient id="linearGradient8264" x1="-2" x2="8" y1="-26" y2="-26" gradientTransform="translate(832.48324,333.46232)" gradientUnits="userSpaceOnUse" xlink:href="#linearGradient19282-4"/><linearGradient id="linearGradient8270" x1="-5" x2="11" y1="-33" y2="-33" gradientTransform="translate(832.48324,333.46232)" gradientUnits="userSpaceOnUse" xlink:href="#linearGradient19282-4"/><linearGradient id="linearGradient8276" x1="-2" x2="0" y1="-33" y2="-33" gradientTransform="translate(832.48324,333.46232)" gradientUnits="userSpaceOnUse" xlink:href="#linearGradient19282-4"/><linearGradient id="linearGradient8278" x1="2" x2="4" y1="-33" y2="-33" gradientTransform="translate(832.48324,333.46232)" gradientUnits="userSpaceOnUse" xlink:href="#linearGradient19282-4"/><linearGradient id="linearGradient8280" x1="6" x2="8" y1="-33" y2="-33" gradientTransform="translate(832.48324,333.46232)" gradientUnits="userSpaceOnUse" xlink:href="#linearGradient19282-4"/></defs><g style="display:inline" id="preferences" transform="translate(-219.16263,-175.46232)"><g id="gimp-prefs-display" transform="translate(224.16263,215.46232)"><path style="fill:url(#linearGradient8270);fill-opacity:1;stroke:none" id="rect28283-2" d="M -3.8125,-38 C -4.46695,-38 -5,-37.47791 -5,-36.8125 l 0,7.625 C -5,-28.52209 -4.46695,-28 -3.8125,-28 l 7.5625,0 5.9375,0 c 0.633474,0 1.279835,-0.365187 1.3125,-1 l 0,0 -0.0625,-4 0.0625,-4 0,0 c -0.03266,-0.634813 -0.679026,-1 -1.3125,-1 L 3.75,-38 Z m 1,1 5.8125,0 5.65625,0 C 9.3107,-37 10,-36.66541 10,-36 l 0,6 c 0,0.66541 -0.6893,1 -1.34375,1 L 3,-29 -2.8125,-29 C -3.46695,-29 -4,-29.52209 -4,-30.1875 l 0,-5.625 C -4,-36.47791 -3.46695,-37 -2.8125,-37 Z"/><rect style="fill:url(#linearGradient8264);fill-opacity:1;stroke:none" id="rect28290-7" width="10" height="2" x="-2" y="-27" rx="1.196" ry="1.196"/><rect style="opacity:.3;fill:url(#linearGradient8276);fill-opacity:1;stroke:none" id="rect67589" width="2" height="6" x="-2" y="-36" rx="1.196" ry="1.196"/><rect id="rect67591" width="2" height="6" x="2" y="-36" rx="1.196" ry="1.196" style="opacity:.3;fill:url(#linearGradient8278);fill-opacity:1;stroke:none"/><rect style="opacity:.3;fill:url(#linearGradient8280);fill-opacity:1;stroke:none" id="rect67593" width="2" height="6" x="6" y="-36" rx="1.196" ry="1.196"/></g></g></svg>