<svg xmlns="http://www.w3.org/2000/svg" xmlns:osb="http://www.openswatchbook.org/uri/2009/osb" xmlns:svg="http://www.w3.org/2000/svg" xmlns:xlink="http://www.w3.org/1999/xlink" id="svg7384" width="16" height="16" version="1.1" viewBox="0 0 16 16"><metadata id="metadata90"/><defs id="defs7386"><linearGradient id="linearGradient8074" osb:paint="solid"><stop id="stop8072" offset="0" style="stop-color:#be00be;stop-opacity:1"/></linearGradient><linearGradient id="linearGradient7561" osb:paint="solid"><stop id="stop7558" offset="0" style="stop-color:#a5a5a5;stop-opacity:1"/></linearGradient><linearGradient id="linearGradient7548" osb:paint="solid"><stop id="stop7546" offset="0" style="stop-color:#ebebeb;stop-opacity:1"/></linearGradient><linearGradient id="linearGradient7542" osb:paint="solid"><stop id="stop7538" offset="0" style="stop-color:#c9c9c9;stop-opacity:1"/></linearGradient><linearGradient id="linearGradient19282" gradientTransform="matrix(0,-735328.32,170712.69,0,2464326300,577972450)" osb:paint="solid"><stop id="stop19284" offset="0" style="stop-color:#b4b4b4;stop-opacity:1"/></linearGradient><linearGradient id="linearGradient19282-4" gradientTransform="matrix(0.34682586,0,0,0.30620888,-113.35187,142.03851)" osb:paint="solid"><stop id="stop19284-0" offset="0" style="stop-color:#bebebe;stop-opacity:1"/></linearGradient><linearGradient id="linearGradient10150" x1="-200" x2="-187" y1="411.5" y2="411.5" gradientTransform="translate(706.45257,-184.97289)" gradientUnits="userSpaceOnUse" xlink:href="#linearGradient19282-4"/><linearGradient id="linearGradient10152" x1="44" x2="51" y1="629" y2="629" gradientTransform="matrix(1.1701311,0,0,0.98437498,543.58716,-395.22331)" gradientUnits="userSpaceOnUse" xlink:href="#linearGradient19282-4"/><linearGradient id="linearGradient10154" x1="45" x2="50" y1="622.5" y2="622.5" gradientTransform="matrix(0.98291014,0,0,1.0208334,457.66167,-410.38902)" gradientUnits="userSpaceOnUse" xlink:href="#linearGradient19282-4"/><linearGradient id="linearGradient10156" x1="51.093" x2="57" y1="622.04" y2="622.04" gradientTransform="translate(465.45237,-401.97289)" gradientUnits="userSpaceOnUse" xlink:href="#linearGradient19282-4"/><linearGradient id="linearGradient10150-2" x1="-200" x2="-187" y1="411.5" y2="411.5" gradientTransform="matrix(-1,0,0,1,-693.34788,-184.97289)" gradientUnits="userSpaceOnUse" xlink:href="#linearGradient19282-4"/><linearGradient id="linearGradient10194" x1="-175" x2="-165" y1="172" y2="172" gradientTransform="rotate(-180,-281.73032,3.239425)" gradientUnits="userSpaceOnUse" xlink:href="#linearGradient19282-4"/><linearGradient id="linearGradient10196" x1="62" x2="72" y1="385" y2="385" gradientTransform="matrix(-0.9,0,0,-0.875,-289.7144,195.54399)" gradientUnits="userSpaceOnUse" xlink:href="#linearGradient19282-4"/></defs><g id="g4287" transform="matrix(1.2206042,0,0,1.1428571,0,-2.2857143)"><rect id="rect6874" width="4.915" height="3.063" x="4.095" y="2" rx=".521" ry=".541" style="fill:url(#linearGradient10154);fill-opacity:1;stroke:none;stroke-width:1.0016923"/><path id="path6977" d="M 0.61431884,2.8750001 C 0.03634894,2.8843088 0.21356579,3.2657735 0.00390625,3.515625 0.00373508,3.5211811 0,3.5256518 0,3.53125 v 11.9375 C 0,15.76255 0.23745,16 0.53125,16 H 0.63671875 12.46875 12.574219 c 0.2938,0 0.53125,-0.23745 0.53125,-0.53125 V 3.53125 c 0,-0.00559 -0.0037,-0.010077 -0.0039,-0.015625 C 13.163999,3.1667243 12.776387,2.8750001 12.49115,2.8750001 H 9.8291014 v 0.8750001 h 1.7451176 c 0.273043,0 0.681817,0.4578522 0.712158,0.722656 V 14.46875 c -0.0027,0.293787 -0.523827,0.656251 -0.817627,0.656251 H 1.6367188 c -0.2938001,0 -0.76803412,-0.362464 -0.77075202,-0.656251 l -0.046875,-10 C 0.85121668,4.2058778 1.2595787,3.7500002 1.53125,3.7500002 H 3.2763671 V 2.8750001 Z" style="fill:url(#linearGradient10150);fill-opacity:1;stroke:none"/></g><path style="fill:url(#linearGradient10196);fill-opacity:1;stroke:none;stroke-width:.88741201" id="rect4993" d="M 14,14 V 7 H 5 v 7 z M 13,13 H 6 V 8 h 7 z"/><path style="fill:url(#linearGradient10194);fill-opacity:1;stroke:none" id="path4998" d="M 4,12 V 11 H 3 V 5 h 7 v 1 h 1 V 4 H 2 v 8 z"/></svg>