<svg xmlns="http://www.w3.org/2000/svg" xmlns:osb="http://www.openswatchbook.org/uri/2009/osb" xmlns:svg="http://www.w3.org/2000/svg" xmlns:xlink="http://www.w3.org/1999/xlink" id="svg7384" width="24" height="24" version="1.1" viewBox="0 0 24 24"><metadata id="metadata90"/><defs id="defs7386"><linearGradient id="linearGradient8074" osb:paint="solid"><stop id="stop8072" offset="0" style="stop-color:#be00be;stop-opacity:1"/></linearGradient><linearGradient id="linearGradient7561" osb:paint="solid"><stop id="stop7558" offset="0" style="stop-color:#a5a5a5;stop-opacity:1"/></linearGradient><linearGradient id="linearGradient7548" osb:paint="solid"><stop id="stop7546" offset="0" style="stop-color:#ebebeb;stop-opacity:1"/></linearGradient><linearGradient id="linearGradient7542" osb:paint="solid"><stop id="stop7538" offset="0" style="stop-color:#c9c9c9;stop-opacity:1"/></linearGradient><linearGradient id="linearGradient19282" gradientTransform="matrix(0,-735328.32,170712.69,0,2464326300,577972450)" osb:paint="solid"><stop id="stop19284" offset="0" style="stop-color:#b4b4b4;stop-opacity:1"/></linearGradient><linearGradient id="linearGradient19282-4" gradientTransform="matrix(0.34682586,0,0,0.30620888,-154.35205,-275.32368)" osb:paint="solid"><stop id="stop19284-0" offset="0" style="stop-color:#bebebe;stop-opacity:1"/></linearGradient><linearGradient id="linearGradient10054" x1="6" x2="18" y1="1046.862" y2="1046.862" gradientTransform="translate(928.91396,183.14032)" gradientUnits="userSpaceOnUse" xlink:href="#linearGradient19282-4"/><linearGradient id="linearGradient10056" x1="-1041.362" x2="-1039.362" y1="-12" y2="-12" gradientTransform="translate(-183.14032,-928.91396)" gradientUnits="userSpaceOnUse" xlink:href="#linearGradient19282-4"/><linearGradient id="linearGradient10058" x1="6" x2="18" y1="1033.862" y2="1033.862" gradientTransform="translate(928.91396,183.14032)" gradientUnits="userSpaceOnUse" xlink:href="#linearGradient19282-4"/></defs><g style="display:inline" id="stock" transform="translate(-471.10281,-16.109083)"><g id="gimp-vcenter" transform="translate(471.10279,-1012.2531)"><path style="fill:url(#linearGradient10054);fill-opacity:1;stroke:none;stroke-width:1.20939934" id="path12078" d="m 18,1047.3622 -6.0352,-5 -5.9648,5 4.041,0 c 0.029,1.3321 -0.041,4 -0.041,4 l 4,0 c 0,0 -0.01,-2.6676 -0.019,-4 z"/><rect style="fill:url(#linearGradient10056);fill-opacity:1;stroke:none;stroke-width:.89017582" id="rect12082" width="2" height="18" x="-1041.362" y="-21" transform="matrix(0,-1,-1,0,0,0)"/><path style="fill:url(#linearGradient10058);fill-opacity:1;stroke:none;stroke-width:1.20939934" id="path12078-7-4" d="m 18,1033.3622 -6.0352,5 -5.9648,-5 4.041,0 c 0.029,-1.3321 -0.041,-4 -0.041,-4 l 4,0 c 0,0 -0.01,2.6676 -0.019,4 z"/></g></g></svg>