<svg xmlns="http://www.w3.org/2000/svg" xmlns:osb="http://www.openswatchbook.org/uri/2009/osb" xmlns:svg="http://www.w3.org/2000/svg" xmlns:xlink="http://www.w3.org/1999/xlink" id="svg7384" width="16" height="16.05" version="1.1" viewBox="0 0 16 16.05"><metadata id="metadata90"/><defs id="defs7386"><linearGradient id="linearGradient8074" osb:paint="solid"><stop id="stop8072" offset="0" style="stop-color:#be00be;stop-opacity:1"/></linearGradient><linearGradient id="linearGradient7561" osb:paint="solid"><stop id="stop7558" offset="0" style="stop-color:#a5a5a5;stop-opacity:1"/></linearGradient><linearGradient id="linearGradient7548" osb:paint="solid"><stop id="stop7546" offset="0" style="stop-color:#ebebeb;stop-opacity:1"/></linearGradient><linearGradient id="linearGradient7542" osb:paint="solid"><stop id="stop7538" offset="0" style="stop-color:#c9c9c9;stop-opacity:1"/></linearGradient><linearGradient id="linearGradient19282" gradientTransform="matrix(0,-735328.32,170712.69,0,2464326300,577972450)" osb:paint="solid"><stop id="stop19284" offset="0" style="stop-color:#b4b4b4;stop-opacity:1"/></linearGradient><linearGradient id="linearGradient19282-4" gradientTransform="matrix(0.34682586,0,0,0.30620888,-287.11128,574.61324)" osb:paint="solid"><stop id="stop19284-0" offset="0" style="stop-color:#bebebe;stop-opacity:1"/></linearGradient><linearGradient id="linearGradient10728" x1="-58" x2="-54" y1="32" y2="32" gradientTransform="translate(126.29957,97.826176)" gradientUnits="userSpaceOnUse" xlink:href="#linearGradient19282-4"/><linearGradient id="linearGradient10734" x1="190" x2="195" y1="250.525" y2="250.525" gradientTransform="translate(157.87447,122.28272)" gradientUnits="userSpaceOnUse" xlink:href="#linearGradient19282-4"/><linearGradient id="linearGradient10740" x1="-54" x2="-51" y1="23.5" y2="23.5" gradientTransform="translate(94.724651,73.369607)" gradientUnits="userSpaceOnUse" xlink:href="#linearGradient19282-4"/><linearGradient id="linearGradient9698" x1="183" x2="184" y1="-239.5" y2="-239.5" gradientTransform="translate(157.87447,-122.28272)" gradientUnits="userSpaceOnUse" xlink:href="#linearGradient19282-4"/><linearGradient id="linearGradient9700" x1="183" x2="184" y1="-241.5" y2="-241.5" gradientTransform="translate(157.87447,-122.28272)" gradientUnits="userSpaceOnUse" xlink:href="#linearGradient19282-4"/><linearGradient id="linearGradient9702" x1="183" x2="184" y1="-243.5" y2="-243.5" gradientTransform="translate(157.87447,-122.28272)" gradientUnits="userSpaceOnUse" xlink:href="#linearGradient19282-4"/><linearGradient id="linearGradient9704" x1="183" x2="184" y1="-245.5" y2="-245.5" gradientTransform="translate(157.87447,-122.28272)" gradientUnits="userSpaceOnUse" xlink:href="#linearGradient19282-4"/><linearGradient id="linearGradient9706" x1="185" x2="186" y1="-245.5" y2="-245.5" gradientTransform="translate(157.87447,-122.28272)" gradientUnits="userSpaceOnUse" xlink:href="#linearGradient19282-4"/><linearGradient id="linearGradient9708" x1="187" x2="188" y1="-245.5" y2="-245.5" gradientTransform="translate(157.87447,-122.28272)" gradientUnits="userSpaceOnUse" xlink:href="#linearGradient19282-4"/><linearGradient id="linearGradient9710" x1="189" x2="190" y1="-245.5" y2="-245.5" gradientTransform="translate(157.87447,-122.28272)" gradientUnits="userSpaceOnUse" xlink:href="#linearGradient19282-4"/><linearGradient id="linearGradient9712" x1="191" x2="192" y1="-245.5" y2="-245.5" gradientTransform="translate(157.87447,-122.28272)" gradientUnits="userSpaceOnUse" xlink:href="#linearGradient19282-4"/><linearGradient id="linearGradient9714" x1="193" x2="194" y1="-245.5" y2="-245.5" gradientTransform="translate(157.87447,-122.28272)" gradientUnits="userSpaceOnUse" xlink:href="#linearGradient19282-4"/><linearGradient id="linearGradient9716" x1="193" x2="194" y1="-243.5" y2="-243.5" gradientTransform="translate(157.87447,-122.28272)" gradientUnits="userSpaceOnUse" xlink:href="#linearGradient19282-4"/><linearGradient id="linearGradient9718" x1="193" x2="194" y1="-241.5" y2="-241.5" gradientTransform="translate(157.87447,-122.28272)" gradientUnits="userSpaceOnUse" xlink:href="#linearGradient19282-4"/><linearGradient id="linearGradient9720" x1="193" x2="194" y1="239.5" y2="239.5" gradientTransform="translate(157.87447,122.28272)" gradientUnits="userSpaceOnUse" xlink:href="#linearGradient19282-4"/><linearGradient id="linearGradient9722" x1="193" x2="194" y1="237.5" y2="237.5" gradientTransform="translate(157.87447,122.28272)" gradientUnits="userSpaceOnUse" xlink:href="#linearGradient19282-4"/><linearGradient id="linearGradient9724" x1="191" x2="192" y1="237.5" y2="237.5" gradientTransform="translate(157.87447,122.28272)" gradientUnits="userSpaceOnUse" xlink:href="#linearGradient19282-4"/><linearGradient id="linearGradient9726" x1="189" x2="190" y1="237.5" y2="237.5" gradientTransform="translate(157.87447,122.28272)" gradientUnits="userSpaceOnUse" xlink:href="#linearGradient19282-4"/><linearGradient id="linearGradient9728" x1="187" x2="188" y1="237.5" y2="237.5" gradientTransform="translate(157.87447,122.28272)" gradientUnits="userSpaceOnUse" xlink:href="#linearGradient19282-4"/><linearGradient id="linearGradient9732" x1="183" x2="184" y1="-237.5" y2="-237.5" gradientTransform="translate(157.87447,-122.28272)" gradientUnits="userSpaceOnUse" xlink:href="#linearGradient19282-4"/><linearGradient id="linearGradient9732-6" x1="183" x2="184" y1="-237.5" y2="-237.5" gradientTransform="matrix(1,0,0,0.99688474,-153.88537,-72.065363)" gradientUnits="userSpaceOnUse" xlink:href="#linearGradient19282-4"/><linearGradient id="linearGradient9728-6" x1="187" x2="188" y1="237.5" y2="237.5" gradientUnits="userSpaceOnUse" xlink:href="#linearGradient19282-4"/><linearGradient id="linearGradient9726-9" x1="189" x2="190" y1="237.5" y2="237.5" gradientUnits="userSpaceOnUse" xlink:href="#linearGradient19282-4"/><linearGradient id="linearGradient9724-2" x1="191" x2="192" y1="237.5" y2="237.5" gradientUnits="userSpaceOnUse" xlink:href="#linearGradient19282-4"/><linearGradient id="linearGradient9722-6" x1="193" x2="194" y1="237.5" y2="237.5" gradientUnits="userSpaceOnUse" xlink:href="#linearGradient19282-4"/><linearGradient id="linearGradient9720-6" x1="193" x2="194" y1="239.5" y2="239.5" gradientUnits="userSpaceOnUse" xlink:href="#linearGradient19282-4"/><linearGradient id="linearGradient9718-4" x1="193" x2="194" y1="-241.5" y2="-241.5" gradientUnits="userSpaceOnUse" xlink:href="#linearGradient19282-4"/><linearGradient id="linearGradient9716-9" x1="193" x2="194" y1="-243.5" y2="-243.5" gradientUnits="userSpaceOnUse" xlink:href="#linearGradient19282-4"/><linearGradient id="linearGradient9714-5" x1="193" x2="194" y1="-245.5" y2="-245.5" gradientUnits="userSpaceOnUse" xlink:href="#linearGradient19282-4"/><linearGradient id="linearGradient9700-0" x1="183" x2="184" y1="-241.5" y2="-241.5" gradientUnits="userSpaceOnUse" xlink:href="#linearGradient19282-4"/><linearGradient id="linearGradient9698-4" x1="183" x2="184" y1="-239.5" y2="-239.5" gradientUnits="userSpaceOnUse" xlink:href="#linearGradient19282-4"/><linearGradient id="linearGradient9732-8" x1="183" x2="184" y1="-237.5" y2="-237.5" gradientUnits="userSpaceOnUse" xlink:href="#linearGradient19282-4"/><linearGradient id="linearGradient10740-7" x1="-54" x2="-51" y1="23.5" y2="23.5" gradientUnits="userSpaceOnUse" xlink:href="#linearGradient19282-4"/><linearGradient id="linearGradient10734-1" x1="190" x2="195" y1="250.525" y2="250.525" gradientUnits="userSpaceOnUse" xlink:href="#linearGradient19282-4"/><linearGradient id="linearGradient10728-7" x1="-58" x2="-54" y1="32" y2="32" gradientUnits="userSpaceOnUse" xlink:href="#linearGradient19282-4"/><linearGradient id="linearGradient9702-2" x1="183" x2="184" y1="-243.5" y2="-243.5" gradientUnits="userSpaceOnUse" xlink:href="#linearGradient19282-4"/><linearGradient id="linearGradient9704-7" x1="183" x2="184" y1="-245.5" y2="-245.5" gradientUnits="userSpaceOnUse" xlink:href="#linearGradient19282-4"/><linearGradient id="linearGradient9706-2" x1="185" x2="186" y1="-245.5" y2="-245.5" gradientUnits="userSpaceOnUse" xlink:href="#linearGradient19282-4"/><linearGradient id="linearGradient9708-2" x1="187" x2="188" y1="-245.5" y2="-245.5" gradientUnits="userSpaceOnUse" xlink:href="#linearGradient19282-4"/><linearGradient id="linearGradient9710-6" x1="189" x2="190" y1="-245.5" y2="-245.5" gradientUnits="userSpaceOnUse" xlink:href="#linearGradient19282-4"/><linearGradient id="linearGradient9712-1" x1="191" x2="192" y1="-245.5" y2="-245.5" gradientUnits="userSpaceOnUse" xlink:href="#linearGradient19282-4"/><linearGradient id="linearGradient9732-6-0" x1="183" x2="184" y1="-237.5" y2="-237.5" gradientTransform="matrix(1,0,0,0.99688474,-311.75984,49.836412)" gradientUnits="userSpaceOnUse" xlink:href="#linearGradient19282-4"/></defs><g style="display:inline" id="gimp-tool-by-color-select" transform="translate(132.75921,-186.37542)"><g id="g11613"><g style="display:inline" id="g11641" transform="matrix(1,0,0,0.99688474,-313.75941,-49.83642)"><rect id="rect22454" width="16" height="16.05" x="181" y="236.95" rx="1.928" ry="0" style="opacity:0;fill:none;stroke:none;stroke-width:1.00156128"/><rect id="rect29815" width="1" height="1" x="187" y="237" rx=".088" ry="0" style="fill:url(#linearGradient9728-6);fill-opacity:1;stroke:none"/><rect style="fill:url(#linearGradient9726-9);fill-opacity:1;stroke:none" id="rect29817" width="1" height="1" x="189" y="237" rx=".088" ry="0"/><rect id="rect29819" width="1" height="1" x="191" y="237" rx=".088" ry="0" style="fill:url(#linearGradient9724-2);fill-opacity:1;stroke:none"/><rect style="fill:url(#linearGradient9722-6);fill-opacity:1;stroke:none" id="rect29821" width="1" height="1" x="193" y="237" rx=".088" ry="0"/><rect id="rect29823" width="1" height="1" x="193" y="239" rx=".088" ry="0" style="fill:url(#linearGradient9720-6);fill-opacity:1;stroke:none"/><rect style="fill:url(#linearGradient9718-4);fill-opacity:1;stroke:none" id="rect29825" width="1" height="1" x="193" y="-242" rx=".088" ry="0" transform="scale(1,-1)"/><rect id="rect29827" width="1" height="1" x="193" y="-244" rx=".088" ry="0" transform="scale(1,-1)" style="fill:url(#linearGradient9716-9);fill-opacity:1;stroke:none"/><rect style="fill:url(#linearGradient9714-5);fill-opacity:1;stroke:none" id="rect29829" width="1" height="1" x="193" y="-246" rx=".088" ry="0" transform="scale(1,-1)"/><rect id="rect29831" width="1" height="1" x="183" y="-242" rx=".088" ry="0" transform="scale(1,-1)" style="fill:url(#linearGradient9700-0);fill-opacity:1;stroke:none"/><rect style="fill:url(#linearGradient9698-4);fill-opacity:1;stroke:none" id="rect29833" width="1" height="1" x="183" y="-240" rx=".088" ry="0" transform="scale(1,-1)"/><rect id="rect29835" width="1" height="1" x="183" y="-238" rx=".088" ry="0" transform="scale(1,-1)" style="fill:url(#linearGradient9732-8);fill-opacity:1;stroke:none"/><path style="fill:url(#linearGradient10740-7);fill-opacity:1;stroke:none" id="path29837" d="M -51,23.5 A 1.5,1.5 0 0 1 -52.5,25 1.5,1.5 0 0 1 -54,23.5 1.5,1.5 0 0 1 -52.5,22 1.5,1.5 0 0 1 -51,23.5 Z" transform="matrix(1.6666672,0,0,1.6666672,276.00023,202.33332)"/><path id="path29839" d="m 192.5002,248 c -1.37479,0 -2.5,1.13646 -2.5,2.525 0,1.38854 1.12521,2.525 2.5,2.525 1.37479,0 2.5,-1.13646 2.5,-2.525 0,-1.38854 -1.12521,-2.525 -2.5,-2.525 z m 0,1.01 c 0.83436,0 1.5,0.6723 1.5,1.515 0,0.8427 -0.66564,1.515 -1.5,1.515 -0.83436,0 -1.5,-0.6723 -1.5,-1.515 0,-0.8427 0.66564,-1.515 1.5,-1.515 z" style="color:#000;font-style:normal;font-variant:normal;font-weight:400;font-stretch:normal;font-size:medium;line-height:normal;font-family:Sans;-inkscape-font-specification:Sans;text-indent:0;text-align:start;text-decoration:none;text-decoration-line:none;letter-spacing:normal;word-spacing:normal;text-transform:none;writing-mode:lr-tb;direction:ltr;baseline-shift:baseline;text-anchor:start;display:inline;overflow:visible;visibility:visible;fill:url(#linearGradient10734-1);fill-opacity:1;stroke:none;stroke-width:1;marker:none;enable-background:accumulate"/><path style="opacity:.5;fill:url(#linearGradient10728-7);fill-opacity:1;stroke:none" id="path29841" d="m -54,32 a 2,2 0 0 1 -2,2 2,2 0 0 1 -2,-2 2,2 0 0 1 2,-2 2,2 0 0 1 2,2 z" transform="matrix(1.25,0,0,1.25,255.5002,210.5)"/><rect id="rect29843" width="1" height="1" x="183" y="-244" rx=".088" ry="0" transform="scale(1,-1)" style="fill:url(#linearGradient9702-2);fill-opacity:1;stroke:none"/><rect style="fill:url(#linearGradient9704-7);fill-opacity:1;stroke:none" id="rect29845" width="1" height="1" x="183" y="-246" rx=".088" ry="0" transform="scale(1,-1)"/><rect id="rect29847" width="1" height="1" x="185" y="-246" rx=".088" ry="0" transform="scale(1,-1)" style="fill:url(#linearGradient9706-2);fill-opacity:1;stroke:none"/><rect style="fill:url(#linearGradient9708-2);fill-opacity:1;stroke:none" id="rect29849" width="1" height="1" x="187" y="-246" rx=".088" ry="0" transform="scale(1,-1)"/><rect id="rect29851" width="1" height="1" x="189" y="-246" rx=".088" ry="0" transform="scale(1,-1)" style="fill:url(#linearGradient9710-6);fill-opacity:1;stroke:none"/><rect style="fill:url(#linearGradient9712-1);fill-opacity:1;stroke:none" id="rect29853" width="1" height="1" x="191" y="-246" rx=".088" ry="0" transform="scale(1,-1)"/></g></g><rect style="display:inline;fill:url(#linearGradient9732-6-0);fill-opacity:1;stroke:none;stroke-width:.99844116" id="rect29835-1" width="1" height=".997" x="-128.76" y="-187.422" rx=".088" ry="0" transform="scale(1,-1)"/></g></svg>