<svg xmlns="http://www.w3.org/2000/svg" xmlns:osb="http://www.openswatchbook.org/uri/2009/osb" xmlns:svg="http://www.w3.org/2000/svg" xmlns:xlink="http://www.w3.org/1999/xlink" id="svg7384" width="16" height="16" version="1.1" viewBox="0 0 16 16"><metadata id="metadata90"/><defs id="defs7386"><linearGradient id="linearGradient8074" osb:paint="solid"><stop id="stop8072" offset="0" style="stop-color:#be00be;stop-opacity:1"/></linearGradient><linearGradient id="linearGradient7561" osb:paint="solid"><stop id="stop7558" offset="0" style="stop-color:#a5a5a5;stop-opacity:1"/></linearGradient><linearGradient id="linearGradient7548" osb:paint="solid"><stop id="stop7546" offset="0" style="stop-color:#ebebeb;stop-opacity:1"/></linearGradient><linearGradient id="linearGradient7542" osb:paint="solid"><stop id="stop7538" offset="0" style="stop-color:#c9c9c9;stop-opacity:1"/></linearGradient><linearGradient id="linearGradient19282" gradientTransform="matrix(0,-735328.32,170712.69,0,2464326300,577972450)" osb:paint="solid"><stop id="stop19284" offset="0" style="stop-color:#b4b4b4;stop-opacity:1"/></linearGradient><linearGradient id="linearGradient19282-4" gradientTransform="matrix(0.34682586,0,0,0.30620888,-113.35187,142.03851)" osb:paint="solid"><stop id="stop19284-0" offset="0" style="stop-color:#bebebe;stop-opacity:1"/></linearGradient><linearGradient id="linearGradient10150" x1="-200" x2="-187" y1="411.5" y2="411.5" gradientTransform="translate(506.45257,217.02711)" gradientUnits="userSpaceOnUse" xlink:href="#linearGradient19282-4"/><linearGradient id="linearGradient10152" x1="44" x2="51" y1="629" y2="629" gradientTransform="translate(506.45257,217.02711)" gradientUnits="userSpaceOnUse" xlink:href="#linearGradient19282-4"/><linearGradient id="linearGradient10154" x1="45" x2="50" y1="622.5" y2="622.5" gradientTransform="translate(506.45257,217.02711)" gradientUnits="userSpaceOnUse" xlink:href="#linearGradient19282-4"/><linearGradient id="linearGradient10156" x1="51.093" x2="57" y1="622.04" y2="622.04" gradientTransform="translate(506.45257,217.02711)" gradientUnits="userSpaceOnUse" xlink:href="#linearGradient19282-4"/></defs><g style="display:inline" id="stock" transform="translate(-48.641424,-49.99587)"><g id="gimp-paste-as-new" transform="translate(7.6412252,-569.00413)" style="display:inline"><path style="color:#000;display:inline;overflow:visible;visibility:visible;fill:url(#linearGradient10156);fill-opacity:1;fill-rule:nonzero;stroke:none;stroke-width:2;marker:none;enable-background:accumulate" id="path8980" d="M 55.929864,624.94195 C 55.584927,625.20397 54.44597,624.00182 54.017121,624 c -0.436275,-0.002 -1.512009,1.18709 -1.866989,0.92631 -0.348942,-0.25636 0.439606,-1.65112 0.30877,-2.07106 -0.133105,-0.42722 -1.488068,-1.12712 -1.356554,-1.55485 0.129279,-0.42045 1.585869,-0.065 1.933854,-0.32272 0.35401,-0.26218 0.544657,-1.87422 0.980918,-1.87778 0.428837,-0.004 0.588191,1.60147 0.934098,1.86214 0.351892,0.26516 1.901829,-0.0466 2.039937,0.37898 0.135756,0.4183 -1.299495,1.07009 -1.433698,1.48891 -0.136528,0.42607 0.723312,1.84546 0.372407,2.11202 z"/><rect style="fill:url(#linearGradient10154);fill-opacity:1;stroke:none" id="rect6874" width="5" height="3" x="45" y="621" rx=".53" ry=".53"/><path style="fill:url(#linearGradient10152);fill-opacity:1;stroke:none" id="path6973" d="m 44.0002,625 0,8 5,0 2,-2 0,-6 z"/><path style="fill:url(#linearGradient10150);fill-opacity:1;stroke:none" id="path6977" d="m -199.46875,405 c -0.2938,0 -0.53125,0.23745 -0.53125,0.53125 l 0,11.9375 c 0,0.2938 0.23745,0.53125 0.53125,0.53125 l 11.9375,0 c 0.2938,0 0.53125,-0.23745 0.53125,-0.53125 l 0,-8.46875 -1,0 0,7.46875 c 0,0.2938 -0.23745,0.53125 -0.53125,0.53125 l -9.9375,0 C -198.76255,417 -199,416.76255 -199,416.46875 l 0,-9.9375 c 0,-0.2938 0.23745,-0.53125 0.53125,-0.53125 l 1.46875,0 0,-1 z" transform="translate(241.0002,217)"/></g></g></svg>