<svg xmlns="http://www.w3.org/2000/svg" xmlns:svg="http://www.w3.org/2000/svg" id="svg7384" width="16.013" height="16" version="1.1" viewBox="0 0 16.013 16"><metadata id="metadata90"/><title id="title9167">Gnome Symbolic Icon Theme</title><g id="g4251"><g id="layer13" transform="matrix(0.99960295,0,0,0.99954074,-562.77388,-174.9132)"><g id="g5388" transform="translate(405.62,-584.9)"><title id="title5390">go-home</title></g><path style="color:#000;text-indent:0;text-transform:none;fill:#bebebe" id="path5414" d="m 565.78,180 a 1.0001,1.0001 0 0 0 -0.78,1 v 7 a 1.0001,1.0001 0 0 0 1,1 h 10 a 1.0001,1.0001 0 0 0 1,-1 v -7 a 1.0001,1.0001 0 1 0 -2,0 v 6 h -8 v -6 a 1.0001,1.0001 0 0 0 -1.2188,-1 z"/><path style="color:#000;text-indent:0;text-transform:none;fill:#bebebe" id="path6184" d="m 570.91,176 a 1.0001,1.0001 0 0 0 -0.5,0.1875 l -7,5 a 1.0063276,1.0063276 0 1 0 1.1875,1.625 l 6.4,-4.57 6.4062,4.5625 a 1.0063276,1.0063276 0 1 0 1.1875,-1.625 l -7,-5 a 1.0001,1.0001 0 0 0 -0.69,-0.18 z"/><rect style="color:#bebebe;fill:#bebebe" id="rect6261" width="3" height="6" x="569" y="183"/></g></g></svg>