<svg xmlns="http://www.w3.org/2000/svg" xmlns:svg="http://www.w3.org/2000/svg" id="svg6" width="16" height="16" version="1.1" viewBox="0 0 21.333 21.333" style="fill:#000"><metadata id="metadata12"/><g id="g4261"><path style="fill:#bebebe;fill-opacity:1;stroke-width:.88989842" id="path4" d="M 1.3333333,20 H 3.9999999 V 7.9999999 H 1.3333333 Z M 20,9.7333331 C 20,8.7066668 19.236074,8.0232361 18.30303,7.9999999 h -5.353939 l 0.80606,-4.3986665 0.02545,-0.2986666 c 0,-0.3826667 -0.144243,-0.7373335 -0.373334,-0.9893335 L 12,1.3333333 6.9999999,7.4840001 c -0.3139394,0.336 -0.3333333,0.8026667 -0.3333333,1.316 V 18.133333 C 6.6666666,19.16 7.1878788,20 8.1212121,20 h 7.6363629 c 0.704243,0 1.306667,-0.466667 1.561213,-1.138667 l 2.562424,-6.58 C 19.957572,12.066667 20,11.842667 20,11.6 V 9.8173331 l -0.0085,-0.0093 z"/></g></svg>