<svg xmlns="http://www.w3.org/2000/svg" xmlns:svg="http://www.w3.org/2000/svg" id="svg30571" width="16" height="16" version="1.1" viewBox="0 0 16 16"><metadata id="metadata30576"/><g id="layer1" transform="translate(0,-1036.3622)"><g id="g946"><g id="g4017" transform="scale(0.99995371,1)"><g id="g4007" transform="translate(-2.3419761,0.78065922)"><g id="g4142" transform="translate(2.3419765,-0.78065884)"><path id="rect28186-4" d="m 0,1036.3622 h 16 v 16 H 0 Z" style="fill:none;stroke:none;opacity:0"/></g><g id="g4010" transform="matrix(1.0501565,0,0,1.0501565,-0.29003914,-52.708266)"><path id="path2193" d="M 6.6914062 0.20117188 C 4.3223068 0.23267653 1.1475463 1.03626 1.2011719 3.6152344 C 1.2583807 6.3659093 4.6335176 5.279886 4.7617188 6.5019531 C 4.9689175 8.4772975 0.65447349 14.486001 7.2109375 15.664062 C 11.588014 16.450735 16.234311 13.749518 15.767578 8.3007812 C 15.347837 3.4003314 11.25381 0.32582541 7.1601562 0.20117188 L 6.6914062 0.20117188 z M 5.671875 1.8027344 C 6.7864096 1.8027344 7.6894528 2.4302098 7.6894531 3.203125 C 7.6894531 3.9758302 6.7864096 4.6015625 5.671875 4.6015625 C 4.5573404 4.6015625 3.6503906 3.9758302 3.6503906 3.203125 C 3.6503906 2.4302098 4.5573404 1.8027344 5.671875 1.8027344 z M 12.476562 4.9882812 C 13.299758 4.9882812 13.976538 5.6650816 13.976562 6.4882812 C 13.976611 7.3115813 13.299812 7.9882812 12.476562 7.9882812 C 11.653318 7.9882812 10.976519 7.3115813 10.976562 6.4882812 C 10.976591 5.6650816 11.653373 4.9882812 12.476562 4.9882812 z M 11.5 9 A 1.5 1.5 0 0 1 13 10.5 A 1.5 1.5 0 0 1 11.5 12 A 1.5 1.5 0 0 1 10 10.5 A 1.5 1.5 0 0 1 11.5 9 z M 6.5136719 11.042969 C 7.3420878 11.042931 8.0136719 11.714515 8.0136719 12.542969 C 8.0136719 13.371423 7.3420878 14.043007 6.5136719 14.042969 C 5.685256 14.043007 5.0136719 13.371423 5.0136719 12.542969 C 5.0136719 11.714515 5.685256 11.042931 6.5136719 11.042969 z" transform="matrix(0.9522831,0,0,0.95223902,2.5063076,1036.312)" style="opacity:1;fill:#bebebe;fill-opacity:1;fill-rule:evenodd;stroke:#bebebe;stroke-width:.40190762;stroke-linecap:butt;stroke-linejoin:miter;stroke-miterlimit:4;stroke-dasharray:none;stroke-opacity:1"/></g></g></g></g></g></svg>