<svg xmlns="http://www.w3.org/2000/svg" xmlns:svg="http://www.w3.org/2000/svg" id="svg6" width="16" height="16" version="1.1" viewBox="0 0 21.333 21.333" style="fill:#000"><metadata id="metadata12"/><g id="g4261" transform="rotate(-180,10.666666,10.666667)"><path style="fill:#bebebe;fill-opacity:1;stroke-width:.88989842" id="path4" d="m 1.3333333,20 h 2.6666666 l 0,-12.0000001 -2.6666666,0 z M 20,9.7333331 C 20,8.7066668 19.236074,8.0232373 18.30303,8.0000009 l -5.353939,0 0.80606,-4.3986675 0.02545,-0.2986666 c 0,-0.3826667 -0.144243,-0.7373335 -0.373334,-0.9893335 l -0.899389,-0.98 -5.5078781,6.1506668 c -0.3139394,0.336 -0.3333333,0.8026667 -0.3333333,1.316 l 0,9.3333329 C 6.6666666,19.16 7.1878788,20 8.1212121,20 l 7.6363629,0 c 0.704243,0 1.306667,-0.466667 1.561213,-1.138667 l 2.562424,-6.58 C 19.957572,12.066667 20,11.842667 20,11.6 V 9.8173331 l -0.0085,-0.0093 z"/></g></svg>