<svg xmlns="http://www.w3.org/2000/svg" xmlns:svg="http://www.w3.org/2000/svg" id="svg7384" width="16" height="16" version="1.1" viewBox="0 0 16 16"><metadata id="metadata90"/><title id="title9167">Gnome Symbolic Icon Theme</title><g id="g4251"><g id="layer12" transform="translate(-60,-606)"><g id="g3940" transform="translate(40,119)"><path style="color:#000;text-indent:0;text-transform:none;fill:#bebebe" id="path3807-1-1-4-7-2" d="m 34,491 c -0.17738,0.008 -0.35117,0.0592 -0.5,0.15625 l -5,3 c -0.2824,0.17971 -0.4375,0.51173 -0.4375,0.84375 0,0.33202 0.1551,0.66404 0.4375,0.84375 l 5,3 c 0.14883,0.097 0.32262,0.14825 0.5,0.15625 H 34.15625 35 v -8 h -0.84375 z"/><path style="color:#000;text-indent:0;text-transform:none;fill:#bebebe" id="path3807-1-1-4-7-2-0" d="m 27,491 c -0.17738,0.008 -0.35117,0.0592 -0.5,0.15625 l -5,3 c -0.2824,0.17971 -0.4375,0.51173 -0.4375,0.84375 0,0.33202 0.1551,0.66404 0.4375,0.84375 l 5,3 c 0.14883,0.097 0.32262,0.14825 0.5,0.15625 H 27.15625 28 v -8 h -0.84375 z"/></g></g></g></svg>