<svg xmlns="http://www.w3.org/2000/svg" xmlns:svg="http://www.w3.org/2000/svg" id="svg7384" width="16" height="16" version="1.1" viewBox="0 0 16 16"><metadata id="metadata90"/><g id="g4243"><g id="layer10" transform="matrix(0.99936469,0,0,0.99936469,298.81398,-446.71538)"><path style="color:#bebebe;text-indent:0;text-transform:none;fill:#bebebe" id="path5050" d="m -291.01,448 c -3.8423,0 -6.9933,3.151 -6.9933,6.9933 0,3.8423 3.151,7.0156 6.9933,7.0156 3.8423,0 7.0156,-3.1733 7.0156,-7.0156 0,-3.8423 -3.1733,-6.9933 -7.0156,-6.9933 z m 0,4.0089 c 1.6805,0 3.0067,1.3039 3.0067,2.9844 0,1.6805 -1.3261,3.0067 -3.0067,3.0067 -1.6806,0 -2.9844,-1.3261 -2.9844,-3.0067 0,-1.6805 1.3039,-2.9844 2.9844,-2.9844 z"/><path style="color:#bebebe;text-indent:0;text-transform:none;fill:#bebebe" id="path5052" d="m -290.99,453.01 c -1.0986,0 -2.0132,0.89789 -2.0132,1.9965 0,1.09861 0.91452,1.9965 2.0132,1.9965 1.0986,0 1.9965,-0.89789 1.9965,-1.9965 0,-1.09861 -0.89789,-1.9965 -1.9965,-1.9965 z m 0,0.99827 c 0.55821,0 0.99827,0.44006 0.99827,0.99827 0,0.5582 -0.44006,0.99826 -0.99827,0.99826 -0.55821,0 -0.99827,-0.44006 -0.99827,-0.99826 0,-0.55821 0.44006,-0.99827 0.99827,-0.99827 z"/></g></g></svg>