<svg xmlns="http://www.w3.org/2000/svg" xmlns:osb="http://www.openswatchbook.org/uri/2009/osb" xmlns:svg="http://www.w3.org/2000/svg" xmlns:xlink="http://www.w3.org/1999/xlink" id="svg7384" width="16" height="16" version="1.1" viewBox="0 0 16 16"><metadata id="metadata90"/><defs id="defs7386"><linearGradient id="linearGradient8074" osb:paint="solid"><stop id="stop8072" offset="0" style="stop-color:#be00be;stop-opacity:1"/></linearGradient><linearGradient id="linearGradient7561" osb:paint="solid"><stop id="stop7558" offset="0" style="stop-color:#a5a5a5;stop-opacity:1"/></linearGradient><linearGradient id="linearGradient7548" osb:paint="solid"><stop id="stop7546" offset="0" style="stop-color:#ebebeb;stop-opacity:1"/></linearGradient><linearGradient id="linearGradient7542" osb:paint="solid"><stop id="stop7538" offset="0" style="stop-color:#c9c9c9;stop-opacity:1"/></linearGradient><linearGradient id="linearGradient19282" gradientTransform="matrix(0,-735328.32,170712.69,0,2464326300,577972450)" osb:paint="solid"><stop id="stop19284" offset="0" style="stop-color:#b4b4b4;stop-opacity:1"/></linearGradient><linearGradient id="linearGradient19282-4" gradientTransform="matrix(0.34682586,0,0,0.30620888,-93.351872,402.03851)" osb:paint="solid"><stop id="stop19284-0" offset="0" style="stop-color:#bebebe;stop-opacity:1"/></linearGradient><linearGradient id="linearGradient7173" x1="439.293" x2="455.293" y1="114.777" y2="114.777" gradientTransform="translate(442.85393,107.27737)" gradientUnits="userSpaceOnUse" xlink:href="#linearGradient19282-4"/></defs><g style="display:inline" id="stock" transform="translate(14.957217,59.75387)"><g id="gimp-rotate-270" transform="translate(-75.957416,-418.75387)" style="display:inline"><path id="path15888" d="m 448.79297,109.27734 c -3.58986,0 -6.5,2.91015 -6.5,6.5 0,0.17107 0.0182,0.33226 0.0312,0.5 l -3.03125,0 4,4 4,-4 -2.9375,0 c -0.0187,-0.16677 -0.0625,-0.32822 -0.0625,-0.5 0,-2.48528 2.01472,-4.5 4.5,-4.5 2.48528,0 4.5,2.01472 4.5,4.5 0,0.17178 -0.0438,0.33323 -0.0625,0.5 l 2.03125,0 c 0.013,-0.16774 0.0312,-0.32893 0.0312,-0.5 0,-3.58985 -2.91014,-6.5 -6.5,-6.5 z" transform="translate(-378.29269,251.72263)" style="fill:url(#linearGradient7173);fill-opacity:1;stroke:none"/></g></g></svg>