<svg xmlns="http://www.w3.org/2000/svg" xmlns:svg="http://www.w3.org/2000/svg" id="svg7384" width="16" height="16" version="1.1" viewBox="0 0 16 16"><metadata id="metadata90"/><title id="title9167">Gnome Symbolic Icon Theme</title><g id="g4245"><g id="layer12" transform="translate(-261,-747)"><path style="color:#bebebe;text-indent:0;text-transform:none;fill:#bebebe" id="rect4631" d="m 266.69,749 -0.3125,0.28125 -3.0938,3.0625 -0.28125,0.3125 v 0.40625 3.8125 0.40625 l 0.28125,0.3125 3.0938,3.125 L 266.69,761 h 0.40625 3.8125 0.40625 l 0.3125,-0.28125 3.0938,-3.125 0.28125,-0.3125 v -0.40625 -3.8125 -0.40625 l -0.28125,-0.3125 -3.0938,-3.0625 L 271.315,749 h -0.40625 -3.8125 z m 0.84375,2 h 2.9688 l 2.5,2.5 v 2.9688 L 270.47135,759 h -2.9375 l -2.53,-2.53 v -2.97 l 2.53,-2.5 z"/><path style="color:#bebebe;fill:#bebebe" id="rect4631-4" d="m 267.86,752 -1.8562,1.8392 v 2.2892 L 267.86,758 h 2.2892 l 1.8545,-1.8716 v -2.2892 L 270.1492,752 Z"/></g></g></svg>