<svg xmlns="http://www.w3.org/2000/svg" xmlns:svg="http://www.w3.org/2000/svg" id="svg7384" width="16" height="16" version="1.1" viewBox="0 0 16 16"><metadata id="metadata90"/><title id="title9167">Gnome Symbolic Icon Theme</title><g id="g4292"><path id="path12113" d="M 6.5039062,8.5 C 6.4515452,8.500406 6.3992978,8.50498 6.3476562,8.513672 6.1257158,8.538254 5.9185553,8.6373606 5.7597656,8.794922 l -2.75,2.759766 V 10.001953 C 3.0234006,9.4402107 2.5607908,8.9961002 2,9 H 1 v 6 h 6 v -1 0 C 7.0103655,13.43821 6.5490178,12.979184 5.9882812,12.986328 H 4.4296875 L 7.1835938,10.222656 C 7.8445429,9.6057506 7.4064634,8.4954458 6.5039062,8.5 Z" style="color:#000;text-indent:0;text-transform:none;fill:#bebebe;stroke-width:.99427736;enable-background:new"/><path id="path12113-6" d="m 9.4975356,7.499986 c 0.052347,-4.06e-4 0.104581,-0.005 0.1562091,-0.01367 C 9.875627,7.461736 10.082733,7.362627 10.241482,7.205066 L 12.990761,4.4453 v 1.552735 c -0.01363,0.56174 0.448857,1.005851 1.009501,1.001951 H 15 V 0.99998603 H 9.0015718 v 0.99999997 0 c -0.010362,0.56179 0.4508641,1.020816 1.0114542,1.013672 h 1.558185 L 8.8180261,5.77733 C 8.1572501,6.394235 8.5952149,7.50454 9.4975356,7.499986 Z" style="color:#000;text-indent:0;text-transform:none;fill:#bebebe;stroke-width:.99414712;enable-background:new"/></g></svg>