<svg xmlns="http://www.w3.org/2000/svg" xmlns:cc="http://web.resource.org/cc/" xmlns:svg="http://www.w3.org/2000/svg" xmlns:xlink="http://www.w3.org/1999/xlink" id="svg1" width="16" height="16" x="0" y="0" version="1.0"><metadata id="metadata162"/><defs id="defs3"><linearGradient id="linearGradient3040"><stop style="stop-color:#555753;stop-opacity:1" id="stop3042" offset="0"/><stop style="stop-color:#eeeeec;stop-opacity:1" id="stop3044" offset="1"/></linearGradient><linearGradient id="linearGradient3018"><stop style="stop-color:#888a85;stop-opacity:1" id="stop3020" offset="0"/><stop style="stop-color:#babdb6;stop-opacity:1" id="stop3022" offset="1"/></linearGradient><linearGradient id="linearGradient3150"><stop id="stop3152" offset="0" style="stop-color:#2e3436;stop-opacity:1"/><stop id="stop3154" offset="1" style="stop-color:#888a85;stop-opacity:1"/></linearGradient><linearGradient id="linearGradient3123"><stop style="stop-color:#eeeeec;stop-opacity:1" id="stop3125" offset="0"/><stop style="stop-color:#d3d7cf;stop-opacity:1" id="stop3127" offset="1"/></linearGradient><linearGradient id="linearGradient3074"><stop style="stop-color:#888a85;stop-opacity:1" id="stop3076" offset="0"/><stop style="stop-color:#d3d7cf;stop-opacity:1" id="stop3078" offset="1"/></linearGradient><linearGradient id="linearGradient3058"><stop style="stop-color:#2e3436;stop-opacity:1" id="stop3060" offset="0"/><stop style="stop-color:#888a85;stop-opacity:1" id="stop3062" offset="1"/></linearGradient><linearGradient id="linearGradient3037"><stop style="stop-color:#4a4c49;stop-opacity:1" id="stop3039" offset="0"/><stop id="stop3045" offset=".5" style="stop-color:#c9cac8;stop-opacity:1"/><stop style="stop-color:#4b4c49;stop-opacity:1" id="stop3041" offset="1"/></linearGradient><linearGradient id="linearGradient2986"><stop style="stop-color:#eef;stop-opacity:1" id="stop2988" offset="0"/><stop style="stop-color:#eef;stop-opacity:0" id="stop2990" offset="1"/></linearGradient><linearGradient id="linearGradient2060"><stop style="stop-color:#555753;stop-opacity:1" id="stop2062" offset="0"/><stop style="stop-color:#555753;stop-opacity:0" id="stop2064" offset="1"/></linearGradient><linearGradient id="linearGradient2869"><stop style="stop-color:#babdb6;stop-opacity:1" id="stop2871" offset="0"/><stop id="stop2877" offset=".333" style="stop-color:#eeeeec;stop-opacity:1"/><stop style="stop-color:#babdb6;stop-opacity:1" id="stop2873" offset="1"/></linearGradient><linearGradient id="linearGradient2857"><stop style="stop-color:#eeeeec;stop-opacity:1" id="stop2859" offset="0"/><stop style="stop-color:#babdb6;stop-opacity:1" id="stop2861" offset="1"/></linearGradient><linearGradient id="linearGradient2843"><stop style="stop-color:#555753;stop-opacity:1" id="stop2845" offset="0"/><stop id="stop2851" offset=".298" style="stop-color:#babdb6;stop-opacity:1"/><stop style="stop-color:#555753;stop-opacity:1" id="stop2847" offset="1"/></linearGradient><linearGradient id="linearGradient2068" x1="36.762" x2="38.975" y1="27.032" y2="43.218" gradientUnits="userSpaceOnUse" xlink:href="#linearGradient2060"/><linearGradient id="linearGradient2002" x1="68.125" x2="69.094" y1="31" y2="31.031" gradientUnits="userSpaceOnUse" xlink:href="#linearGradient3123"/><linearGradient id="linearGradient2004" x1="59.438" x2="59.438" y1="40.399" y2="28.687" gradientUnits="userSpaceOnUse" xlink:href="#linearGradient3150"/><linearGradient id="linearGradient2006" x1="59.375" x2="67.969" y1="30.281" y2="42.719" gradientUnits="userSpaceOnUse" xlink:href="#linearGradient3074"/><linearGradient id="linearGradient2008" x1="61.5" x2="69.25" y1="39.281" y2="39.25" gradientUnits="userSpaceOnUse" xlink:href="#linearGradient3037"/><linearGradient id="linearGradient2010" x1="65.031" x2="65.031" y1="35.75" y2="42.046" gradientUnits="userSpaceOnUse" xlink:href="#linearGradient3058"/><linearGradient id="linearGradient2012" x1="78.262" x2="77.037" y1="42.251" y2="25.792" gradientUnits="userSpaceOnUse" xlink:href="#linearGradient2986"/><linearGradient id="linearGradient2943" x1="35.062" x2="39.213" y1="27.688" y2="27.688" gradientTransform="matrix(0.8,0,0,1,-24.1,-29)" gradientUnits="userSpaceOnUse" xlink:href="#linearGradient2869"/><linearGradient id="linearGradient2948" x1="31.844" x2="41.906" y1="41.281" y2="41.281" gradientTransform="matrix(0.72332,0,0,0.847619,-21.28459,-23.28571)" gradientUnits="userSpaceOnUse" xlink:href="#linearGradient2843"/><linearGradient id="linearGradient2950" x1="36.762" x2="38.975" y1="27.032" y2="43.218" gradientUnits="userSpaceOnUse" xlink:href="#linearGradient2060"/><linearGradient id="linearGradient2952" x1="36.762" x2="38.975" y1="27.032" y2="43.218" gradientUnits="userSpaceOnUse" xlink:href="#linearGradient2060"/><linearGradient id="linearGradient2954" x1="36.762" x2="38.975" y1="27.032" y2="43.218" gradientUnits="userSpaceOnUse" xlink:href="#linearGradient2060"/><linearGradient id="linearGradient2956" x1="36.762" x2="38.975" y1="27.032" y2="43.218" gradientUnits="userSpaceOnUse" xlink:href="#linearGradient2060"/><linearGradient id="linearGradient2958" x1="36.762" x2="38.975" y1="27.032" y2="43.218" gradientUnits="userSpaceOnUse" xlink:href="#linearGradient2060"/><linearGradient id="linearGradient2960" x1="35.161" x2="42.91" y1="42.113" y2="42.815" gradientUnits="userSpaceOnUse" xlink:href="#linearGradient2857"/><linearGradient id="linearGradient2975" x1="31.844" x2="41.906" y1="41.281" y2="41.281" gradientTransform="matrix(0.72332,0,0,0.847619,-21.28459,-23.28571)" gradientUnits="userSpaceOnUse" xlink:href="#linearGradient2843"/><linearGradient id="linearGradient2977" x1="35.161" x2="42.91" y1="42.113" y2="42.815" gradientUnits="userSpaceOnUse" xlink:href="#linearGradient2857"/><linearGradient id="linearGradient2979" x1="35.062" x2="39.213" y1="27.688" y2="27.688" gradientTransform="matrix(0.8,0,0,1,-24.1,-29)" gradientUnits="userSpaceOnUse" xlink:href="#linearGradient2869"/><linearGradient id="linearGradient2981" x1="36.762" x2="38.975" y1="27.032" y2="43.218" gradientUnits="userSpaceOnUse" xlink:href="#linearGradient2060"/><linearGradient id="linearGradient2983" x1="36.762" x2="38.975" y1="27.032" y2="43.218" gradientUnits="userSpaceOnUse" xlink:href="#linearGradient2060"/><linearGradient id="linearGradient2985" x1="36.762" x2="38.975" y1="27.032" y2="43.218" gradientUnits="userSpaceOnUse" xlink:href="#linearGradient2060"/><linearGradient id="linearGradient2987" x1="36.762" x2="38.975" y1="27.032" y2="43.218" gradientUnits="userSpaceOnUse" xlink:href="#linearGradient2060"/><linearGradient id="linearGradient2989" x1="36.762" x2="38.975" y1="27.032" y2="43.218" gradientUnits="userSpaceOnUse" xlink:href="#linearGradient2060"/><linearGradient id="linearGradient2993" x1="65.031" x2="65.031" y1="35.75" y2="42.046" gradientTransform="translate(-27,-29)" gradientUnits="userSpaceOnUse" xlink:href="#linearGradient3058"/><linearGradient id="linearGradient2996" x1="61.5" x2="69.25" y1="39.281" y2="39.25" gradientTransform="translate(-27,-29)" gradientUnits="userSpaceOnUse" xlink:href="#linearGradient3037"/><linearGradient id="linearGradient2999" x1="59.375" x2="67.969" y1="30.281" y2="42.719" gradientTransform="translate(-27,-29)" gradientUnits="userSpaceOnUse" xlink:href="#linearGradient3074"/><linearGradient id="linearGradient3002" x1="68.125" x2="69.094" y1="31" y2="31.031" gradientTransform="translate(-27,-29)" gradientUnits="userSpaceOnUse" xlink:href="#linearGradient3123"/><linearGradient id="linearGradient3004" x1="59.438" x2="59.438" y1="40.399" y2="28.687" gradientTransform="translate(-27,-29)" gradientUnits="userSpaceOnUse" xlink:href="#linearGradient3150"/><linearGradient id="linearGradient3026" x1="7.469" x2="10.188" y1="3.313" y2="11.688" gradientTransform="translate(0,-1)" gradientUnits="userSpaceOnUse" xlink:href="#linearGradient3018"/><linearGradient id="linearGradient3030" x1="80.538" x2="79.196" y1="39.842" y2="25.664" gradientUnits="userSpaceOnUse" xlink:href="#linearGradient2986"/><linearGradient id="linearGradient3046" x1="10.313" x2="10.313" y1="7.563" y2="10.125" gradientUnits="userSpaceOnUse" xlink:href="#linearGradient3040"/></defs><g id="layer1" style="display:none"><image style="display:inline" id="image1995" width="48" height="48" x="43" y="0" xlink:href="folders-modules-alt2.png"/></g><g id="layer2" style="display:inline"><path style="opacity:1;color:#000;fill:none;fill-opacity:1;fill-rule:evenodd;stroke:#555753;stroke-width:1;stroke-linecap:round;stroke-linejoin:round;marker:none;marker-start:none;marker-mid:none;marker-end:none;stroke-miterlimit:4;stroke-dasharray:none;stroke-dashoffset:0;stroke-opacity:1;visibility:visible;display:inline;overflow:visible" id="path3048" d="M 12 8 A 2.5 2.5 0 1 1 7,8 A 2.5 2.5 0 1 1 12 8 z" transform="translate(-0.5,-2)"/><path style="opacity:1;color:#000;fill:#eeeeec;fill-opacity:1;fill-rule:evenodd;stroke:#555753;stroke-width:.99999982;stroke-linecap:round;stroke-linejoin:miter;marker:none;marker-start:none;marker-mid:none;marker-end:none;stroke-miterlimit:4;stroke-dasharray:none;stroke-dashoffset:0;stroke-opacity:1;visibility:visible;display:inline;overflow:visible" id="path2014" d="M 5.78125,0.5 L 2.59375,6 L 2.59375,7 L 5.78125,12.5 L 12.21875,12.5 L 15.40625,7 L 15.40625,6 L 12.21875,0.5 L 5.78125,0.5 z M 9,4.5 C 10.38,4.4999998 11.5,5.62 11.5,7 C 11.5,8.38 10.38,9.5 9,9.5 C 7.6200001,9.5 6.5,8.38 6.5,7 C 6.5000001,5.6199998 7.62,4.5 9,4.5 z"/><path style="opacity:.78431373;color:#000;fill:url(#linearGradient3026);fill-opacity:1;fill-rule:evenodd;stroke:none;stroke-width:1.26920354;stroke-linecap:round;stroke-linejoin:miter;marker:none;marker-start:none;marker-mid:none;marker-end:none;stroke-miterlimit:4;stroke-dasharray:none;stroke-dashoffset:0;stroke-opacity:1;visibility:visible;display:inline;overflow:visible" id="path3006" d="M 6.09375,2 L 3.15625,7 L 6.09375,12 L 11.90625,12 L 14.84375,7 L 11.90625,2 L 6.09375,2 z M 9,4.5 C 10.38,4.4999998 11.5,5.62 11.5,7 C 11.5,8.38 10.38,9.5 9,9.5 C 7.6200001,9.5 6.5,8.38 6.5,7 C 6.5000001,5.6199998 7.62,4.5 9,4.5 z"/><path style="opacity:1;color:#000;fill:none;fill-opacity:1;fill-rule:evenodd;stroke:url(#linearGradient3046);stroke-width:1;stroke-linecap:round;stroke-linejoin:round;marker:none;marker-start:none;marker-mid:none;marker-end:none;stroke-miterlimit:4;stroke-dasharray:none;stroke-dashoffset:0;stroke-opacity:1;visibility:visible;display:inline;overflow:visible" id="path3013" d="M 12 8 A 2.5 2.5 0 1 1 7,8 A 2.5 2.5 0 1 1 12 8 z" transform="translate(-0.5,-1)"/><path style="opacity:.78431373;color:#000;fill:none;fill-opacity:1;fill-rule:evenodd;stroke:url(#linearGradient3030);stroke-width:1.40921474;stroke-linecap:round;stroke-linejoin:miter;marker:none;marker-start:none;marker-mid:none;marker-end:none;stroke-miterlimit:4;stroke-dasharray:none;stroke-dashoffset:0;stroke-opacity:1;visibility:visible;display:inline;overflow:visible" id="path3028" d="M 82.879751,39.133522 L 75.51217,39.133522 L 71.82838,32.753009 L 75.512171,26.372497 L 82.879752,26.372498 L 86.563542,32.75301 L 82.879751,39.133522 z" transform="matrix(0.713987,0,0,0.70527,-47.54489,-16.09974)"/><g id="g2962" transform="translate(-1,1)"><path id="path1990" d="M 5.4782615,8.4999995 C 3.2822607,8.4999995 1.5000004,9.4493336 1.5000004,10.619047 L 1.5000004,12.314285 C 1.5000004,13.483998 3.2822614,14.433332 5.4782615,14.433333 C 7.6742624,14.433333 9.4565221,13.483999 9.4565229,12.314285 L 9.4565229,10.619047 C 9.4565229,9.4493336 7.6742632,8.5000003 5.4782615,8.4999995 z" style="color:#000;fill:url(#linearGradient2975);fill-opacity:1;fill-rule:evenodd;stroke:#2e3436;stroke-width:1.00000012;stroke-linecap:round;stroke-linejoin:round;marker:none;marker-start:none;marker-mid:none;marker-end:none;stroke-miterlimit:4;stroke-dasharray:none;stroke-dashoffset:0;stroke-opacity:1;visibility:visible;display:inline;overflow:visible"/><path id="path1992" d="M 38.8125,41.03125 C 37.432772,41.03125 36.184608,41.222752 35.3125,41.53125 C 34.876446,41.685499 34.521327,41.856704 34.3125,42.03125 C 34.103673,42.205796 34.0625,42.359367 34.0625,42.46875 C 34.0625,42.578133 34.103673,42.731704 34.3125,42.90625 C 34.521327,43.080796 34.876446,43.252001 35.3125,43.40625 C 36.184607,43.714748 37.432772,43.90625 38.8125,43.90625 C 40.192228,43.90625 41.440392,43.714748 42.3125,43.40625 C 42.748554,43.252001 43.103673,43.080796 43.3125,42.90625 C 43.521327,42.731704 43.5625,42.578133 43.5625,42.46875 C 43.5625,42.359367 43.521327,42.205796 43.3125,42.03125 C 43.103673,41.856704 42.748554,41.685499 42.3125,41.53125 C 41.440393,41.222752 40.192228,41.03125 38.8125,41.03125 z" transform="matrix(0.745824,0,0,1.37972,-23.48994,-47.60461)" style="color:#000;fill:url(#linearGradient2977);fill-opacity:1;fill-rule:evenodd;stroke:none;stroke-width:.82192957;stroke-linecap:round;stroke-linejoin:miter;marker:none;marker-start:none;marker-mid:none;marker-end:none;stroke-miterlimit:4;stroke-dasharray:none;stroke-dashoffset:0;stroke-opacity:1;visibility:visible;display:inline;overflow:visible"/><path id="path1994" d="M 37,38.5 C 35.605283,38.5 34.351989,38.783187 33.53125,39.15625 C 33.120881,39.342782 32.810628,39.552937 32.65625,39.71875 C 32.501872,39.884563 32.5,39.953346 32.5,40 L 32.5,42 C 32.5,42.046654 32.501872,42.115437 32.65625,42.28125 C 32.810628,42.447063 33.12088,42.657218 33.53125,42.84375 C 34.351989,43.216813 35.605283,43.5 37,43.5 C 38.394717,43.5 39.648011,43.216813 40.46875,42.84375 C 40.879119,42.657218 41.189372,42.447063 41.34375,42.28125 C 41.498128,42.115437 41.5,42.046655 41.5,42 L 41.5,40 C 41.5,39.953346 41.498127,39.884563 41.34375,39.71875 C 41.189373,39.552937 40.879119,39.342782 40.46875,39.15625 C 39.648011,38.783187 38.394718,38.5 37,38.5 z" transform="matrix(0.672514,0,0,0.8,-19.40933,-21.3)" style="opacity:.2;color:#000;fill:none;fill-opacity:1;fill-rule:evenodd;stroke:#fff;stroke-width:1.36334074;stroke-linecap:round;stroke-linejoin:round;marker:none;marker-start:none;marker-mid:none;marker-end:none;stroke-miterlimit:4;stroke-dasharray:none;stroke-dashoffset:0;stroke-opacity:1;visibility:visible;display:inline;overflow:visible"/><path id="path1996" d="M 5.5,0.5 C 4.396,0.5 3.5,0.948 3.5,1.5 L 3.5,10.5 C 3.5,11.051999 4.396,11.500001 5.5,11.5 C 6.604,11.5 7.5000008,11.051998 7.5,10.5 C 7.4910616,4.002347 7.5,7.037008 7.5,1.5 C 7.5,0.948001 6.6040008,0.499999 5.5,0.5 z" style="color:#000;fill:url(#linearGradient2979);fill-opacity:1;fill-rule:evenodd;stroke:#6d706b;stroke-width:1;stroke-linecap:round;stroke-linejoin:miter;marker:none;marker-start:none;marker-mid:none;marker-end:none;stroke-miterlimit:4;stroke-dasharray:none;stroke-dashoffset:0;stroke-opacity:1;visibility:visible;display:inline;overflow:visible"/><g style="opacity:.6;fill-opacity:1;stroke:url(#linearGradient2068);stroke-width:1.20604539;display:inline" id="g1998" transform="matrix(0.6875,0,0,1,-19.8125,-24)"><path style="opacity:1;color:#000;fill:none;fill-opacity:1;fill-rule:evenodd;stroke:url(#linearGradient2981);stroke-width:1.20604503;stroke-linecap:round;stroke-linejoin:miter;marker:none;marker-start:none;marker-mid:none;marker-end:none;stroke-miterlimit:4;stroke-dasharray:none;stroke-dashoffset:0;stroke-opacity:1;visibility:visible;display:inline;overflow:visible" id="path2004" d="M 35,34.938004 C 35.318714,34.975778 35.653896,35 36,35 C 37.226889,35 38.305086,34.752339 39,34.359375"/><path style="opacity:1;color:#000;fill:none;fill-opacity:1;fill-rule:evenodd;stroke:url(#linearGradient2983);stroke-width:1.20604503;stroke-linecap:round;stroke-linejoin:miter;marker:none;marker-start:none;marker-mid:none;marker-end:none;stroke-miterlimit:4;stroke-dasharray:none;stroke-dashoffset:0;stroke-opacity:1;visibility:visible;display:inline;overflow:visible" id="path2006" d="M 35,32.938004 C 35.318714,32.975778 35.653896,33 36,33 C 37.226889,33 38.305086,32.752339 39,32.359375"/><path style="opacity:1;color:#000;fill:none;fill-opacity:1;fill-rule:evenodd;stroke:url(#linearGradient2985);stroke-width:1.20604503;stroke-linecap:round;stroke-linejoin:miter;marker:none;marker-start:none;marker-mid:none;marker-end:none;stroke-miterlimit:4;stroke-dasharray:none;stroke-dashoffset:0;stroke-opacity:1;visibility:visible;display:inline;overflow:visible" id="path2008" d="M 35,30.938004 C 35.318714,30.975778 35.653896,31 36,31 C 37.226889,31 38.305086,30.752339 39,30.359375"/><path style="opacity:1;color:#000;fill:none;fill-opacity:1;fill-rule:evenodd;stroke:url(#linearGradient2987);stroke-width:1.20604503;stroke-linecap:round;stroke-linejoin:miter;marker:none;marker-start:none;marker-mid:none;marker-end:none;stroke-miterlimit:4;stroke-dasharray:none;stroke-dashoffset:0;stroke-opacity:1;visibility:visible;display:inline;overflow:visible" id="path2010" d="M 35,28.938004 C 35.318714,28.975778 35.653896,29 36,29 C 37.226889,29 38.305086,28.752339 39,28.359375"/><path style="opacity:1;color:#000;fill:none;fill-opacity:1;fill-rule:evenodd;stroke:url(#linearGradient2989);stroke-width:1.20604503;stroke-linecap:round;stroke-linejoin:miter;marker:none;marker-start:none;marker-mid:none;marker-end:none;stroke-miterlimit:4;stroke-dasharray:none;stroke-dashoffset:0;stroke-opacity:1;visibility:visible;display:inline;overflow:visible" id="path2012" d="M 35,26.938004 C 35.318714,26.975778 35.653896,27 36,27 C 37.226889,27 38.305086,26.752339 39,26.359375"/></g><path id="path2022" d="M 43.92901 42.475727 A 5.126524 1.8119612 0 1 1 33.675962,42.475727 A 5.126524 1.8119612 0 1 1 43.92901 42.475727 z" transform="matrix(0.298692,0,0,0.448408,-6.121244,-17.23396)" style="color:#000;fill:#eeeeec;fill-opacity:1;fill-rule:evenodd;stroke:none;stroke-width:1.92759895;stroke-linecap:round;stroke-linejoin:miter;marker:none;marker-start:none;marker-mid:none;marker-end:none;stroke-miterlimit:4;stroke-dasharray:none;stroke-dashoffset:0;stroke-opacity:1;visibility:visible;display:inline;overflow:visible"/></g></g></svg>