<svg xmlns="http://www.w3.org/2000/svg" xmlns:cc="http://web.resource.org/cc/" xmlns:svg="http://www.w3.org/2000/svg" xmlns:xlink="http://www.w3.org/1999/xlink" id="svg7854" width="16" height="16" version="1.0"><defs id="defs7856"><linearGradient id="linearGradient5140"><stop style="stop-color:#eeeeec;stop-opacity:1" id="stop5142" offset="0"/><stop style="stop-color:#d4d4cf;stop-opacity:1" id="stop5144" offset="1"/></linearGradient><linearGradient id="linearGradient5146" x1="12" x2="12" y1="1.268" y2="21.252" gradientTransform="matrix(0.6532053,0,0,0.6433918,0.1615355,0.8097897)" gradientUnits="userSpaceOnUse" xlink:href="#linearGradient5140"/></defs><metadata id="metadata7859"/><g id="layer1"><rect style="opacity:1;color:#000;fill:url(#linearGradient5146);fill-opacity:1;fill-rule:evenodd;stroke:#888a85;stroke-width:.98378372;stroke-linecap:butt;stroke-linejoin:miter;marker:none;marker-start:none;marker-mid:none;marker-end:none;stroke-miterlimit:4;stroke-dasharray:none;stroke-dashoffset:0;stroke-opacity:1;visibility:visible;display:inline;overflow:visible;enable-background:accumulate" id="rect4559" width="15.03" height="15.03" x=".485" y=".485" rx="1.406" ry="1.541"/><rect style="opacity:1;color:#000;fill:#2e3436;fill-opacity:1;fill-rule:evenodd;stroke:none;stroke-width:3;stroke-linecap:butt;stroke-linejoin:miter;marker:none;marker-start:none;marker-mid:none;marker-end:none;stroke-miterlimit:4;stroke-dasharray:none;stroke-dashoffset:0;stroke-opacity:1;visibility:visible;display:inline;overflow:visible;enable-background:accumulate" id="rect4547" width="1.998" height="1.998" x="2.014" y="11.97"/><rect id="rect4549" width="1.998" height="1.998" x="4.012" y="11.97" style="opacity:1;color:#000;fill:#555753;fill-opacity:1;fill-rule:evenodd;stroke:none;stroke-width:3;stroke-linecap:butt;stroke-linejoin:miter;marker:none;marker-start:none;marker-mid:none;marker-end:none;stroke-miterlimit:4;stroke-dasharray:none;stroke-dashoffset:0;stroke-opacity:1;visibility:visible;display:inline;overflow:visible;enable-background:accumulate"/><rect style="opacity:1;color:#000;fill:#888a85;fill-opacity:1;fill-rule:evenodd;stroke:none;stroke-width:3;stroke-linecap:butt;stroke-linejoin:miter;marker:none;marker-start:none;marker-mid:none;marker-end:none;stroke-miterlimit:4;stroke-dasharray:none;stroke-dashoffset:0;stroke-opacity:1;visibility:visible;display:inline;overflow:visible;enable-background:accumulate" id="rect4551" width="1.998" height="1.998" x="6.01" y="11.97"/><rect id="rect4553" width="1.998" height="1.998" x="8.008" y="11.97" style="opacity:1;color:#000;fill:#babdb6;fill-opacity:1;fill-rule:evenodd;stroke:none;stroke-width:3;stroke-linecap:butt;stroke-linejoin:miter;marker:none;marker-start:none;marker-mid:none;marker-end:none;stroke-miterlimit:4;stroke-dasharray:none;stroke-dashoffset:0;stroke-opacity:1;visibility:visible;display:inline;overflow:visible;enable-background:accumulate"/><rect style="opacity:1;color:#000;fill:#d3d7cf;fill-opacity:1;fill-rule:evenodd;stroke:none;stroke-width:3;stroke-linecap:butt;stroke-linejoin:miter;marker:none;marker-start:none;marker-mid:none;marker-end:none;stroke-miterlimit:4;stroke-dasharray:none;stroke-dashoffset:0;stroke-opacity:1;visibility:visible;display:inline;overflow:visible;enable-background:accumulate" id="rect4555" width="1.998" height="1.998" x="10.006" y="11.97"/><rect id="rect4557" width="1.998" height="1.998" x="12.004" y="11.97" style="opacity:1;color:#000;fill:#eeeeec;fill-opacity:1;fill-rule:evenodd;stroke:none;stroke-width:3;stroke-linecap:butt;stroke-linejoin:miter;marker:none;marker-start:none;marker-mid:none;marker-end:none;stroke-miterlimit:4;stroke-dasharray:none;stroke-dashoffset:0;stroke-opacity:1;visibility:visible;display:inline;overflow:visible;enable-background:accumulate"/><path style="opacity:1;color:#000;fill:none;fill-opacity:1;fill-rule:evenodd;stroke:#000;stroke-width:1;stroke-linecap:round;stroke-linejoin:miter;marker:none;marker-start:none;marker-mid:none;marker-end:none;stroke-miterlimit:4;stroke-dasharray:none;stroke-dashoffset:0;stroke-opacity:1;visibility:visible;display:inline;overflow:visible;enable-background:accumulate" id="path4561" d="M 3.7209656,9.6670259 C 7.7370926,8.534546 10.807859,6.218676 12.552865,2.4149618"/><rect id="rect5148" width="13.093" height="13.075" x="1.454" y="1.463" rx=".64" ry=".63" style="opacity:1;color:#000;fill:none;fill-opacity:1;fill-rule:evenodd;stroke:#fff;stroke-width:.90239257;stroke-linecap:butt;stroke-linejoin:miter;marker:none;marker-start:none;marker-mid:none;marker-end:none;stroke-miterlimit:4;stroke-dasharray:none;stroke-dashoffset:0;stroke-opacity:1;visibility:visible;display:inline;overflow:visible;enable-background:accumulate"/><path style="color:#000;fill:#555753;fill-opacity:1;fill-rule:evenodd;stroke:none;stroke-width:1;stroke-linecap:round;stroke-linejoin:miter;marker:none;marker-start:none;marker-mid:none;marker-end:none;stroke-miterlimit:4;stroke-dasharray:none;stroke-dashoffset:0;stroke-opacity:1;visibility:visible;display:inline;overflow:visible;enable-background:accumulate" id="path5150" d="M 20.815455,2.5216315 A 0.30935922,0.30935922 0 1 1 20.196737,2.5216315 A 0.30935922,0.30935922 0 1 1 20.815455,2.5216315 z" transform="matrix(1.6162441,0,0,1.6162441,-30.642856,-1.5755719)"/><path id="path4597" d="M 20.815455,2.5216315 A 0.30935922,0.30935922 0 1 1 20.196737,2.5216315 A 0.30935922,0.30935922 0 1 1 20.815455,2.5216315 z" transform="matrix(1.6162441,0,0,1.6162441,-30.642856,0.4244281)" style="color:#000;fill:#555753;fill-opacity:1;fill-rule:evenodd;stroke:none;stroke-width:1;stroke-linecap:round;stroke-linejoin:miter;marker:none;marker-start:none;marker-mid:none;marker-end:none;stroke-miterlimit:4;stroke-dasharray:none;stroke-dashoffset:0;stroke-opacity:1;visibility:visible;display:inline;overflow:visible;enable-background:accumulate"/><path style="color:#000;fill:#555753;fill-opacity:1;fill-rule:evenodd;stroke:none;stroke-width:1;stroke-linecap:round;stroke-linejoin:miter;marker:none;marker-start:none;marker-mid:none;marker-end:none;stroke-miterlimit:4;stroke-dasharray:none;stroke-dashoffset:0;stroke-opacity:1;visibility:visible;display:inline;overflow:visible;enable-background:accumulate" id="path4599" d="M 20.815455,2.5216315 A 0.30935922,0.30935922 0 1 1 20.196737,2.5216315 A 0.30935922,0.30935922 0 1 1 20.815455,2.5216315 z" transform="matrix(1.6162441,0,0,1.6162441,-30.642856,2.4244281)"/><path id="path4601" d="M 20.815455,2.5216315 A 0.30935922,0.30935922 0 1 1 20.196737,2.5216315 A 0.30935922,0.30935922 0 1 1 20.815455,2.5216315 z" transform="matrix(1.6162441,0,0,1.6162441,-30.642856,4.4244281)" style="color:#000;fill:#555753;fill-opacity:1;fill-rule:evenodd;stroke:none;stroke-width:1;stroke-linecap:round;stroke-linejoin:miter;marker:none;marker-start:none;marker-mid:none;marker-end:none;stroke-miterlimit:4;stroke-dasharray:none;stroke-dashoffset:0;stroke-opacity:1;visibility:visible;display:inline;overflow:visible;enable-background:accumulate"/><path style="color:#000;fill:#555753;fill-opacity:1;fill-rule:evenodd;stroke:none;stroke-width:1;stroke-linecap:round;stroke-linejoin:miter;marker:none;marker-start:none;marker-mid:none;marker-end:none;stroke-miterlimit:4;stroke-dasharray:none;stroke-dashoffset:0;stroke-opacity:1;visibility:visible;display:inline;overflow:visible;enable-background:accumulate" id="path4603" d="M 20.815455,2.5216315 A 0.30935922,0.30935922 0 1 1 20.196737,2.5216315 A 0.30935922,0.30935922 0 1 1 20.815455,2.5216315 z" transform="matrix(1.6162441,0,0,1.6162441,-30.642856,6.4244281)"/><path id="path4605" d="M 20.815455,2.5216315 A 0.30935922,0.30935922 0 1 1 20.196737,2.5216315 A 0.30935922,0.30935922 0 1 1 20.815455,2.5216315 z" transform="matrix(1.6162441,0,0,1.6162441,-28.642856,6.4244281)" style="color:#000;fill:#555753;fill-opacity:1;fill-rule:evenodd;stroke:none;stroke-width:1;stroke-linecap:round;stroke-linejoin:miter;marker:none;marker-start:none;marker-mid:none;marker-end:none;stroke-miterlimit:4;stroke-dasharray:none;stroke-dashoffset:0;stroke-opacity:1;visibility:visible;display:inline;overflow:visible;enable-background:accumulate"/><path style="color:#000;fill:#555753;fill-opacity:1;fill-rule:evenodd;stroke:none;stroke-width:1;stroke-linecap:round;stroke-linejoin:miter;marker:none;marker-start:none;marker-mid:none;marker-end:none;stroke-miterlimit:4;stroke-dasharray:none;stroke-dashoffset:0;stroke-opacity:1;visibility:visible;display:inline;overflow:visible;enable-background:accumulate" id="path4607" d="M 20.815455,2.5216315 A 0.30935922,0.30935922 0 1 1 20.196737,2.5216315 A 0.30935922,0.30935922 0 1 1 20.815455,2.5216315 z" transform="matrix(1.6162441,0,0,1.6162441,-26.642856,6.4244281)"/><path id="path4609" d="M 20.815455,2.5216315 A 0.30935922,0.30935922 0 1 1 20.196737,2.5216315 A 0.30935922,0.30935922 0 1 1 20.815455,2.5216315 z" transform="matrix(1.6162441,0,0,1.6162441,-24.642856,6.4244281)" style="color:#000;fill:#555753;fill-opacity:1;fill-rule:evenodd;stroke:none;stroke-width:1;stroke-linecap:round;stroke-linejoin:miter;marker:none;marker-start:none;marker-mid:none;marker-end:none;stroke-miterlimit:4;stroke-dasharray:none;stroke-dashoffset:0;stroke-opacity:1;visibility:visible;display:inline;overflow:visible;enable-background:accumulate"/><path style="color:#000;fill:#555753;fill-opacity:1;fill-rule:evenodd;stroke:none;stroke-width:1;stroke-linecap:round;stroke-linejoin:miter;marker:none;marker-start:none;marker-mid:none;marker-end:none;stroke-miterlimit:4;stroke-dasharray:none;stroke-dashoffset:0;stroke-opacity:1;visibility:visible;display:inline;overflow:visible;enable-background:accumulate" id="path4611" d="M 20.815455,2.5216315 A 0.30935922,0.30935922 0 1 1 20.196737,2.5216315 A 0.30935922,0.30935922 0 1 1 20.815455,2.5216315 z" transform="matrix(1.6162441,0,0,1.6162441,-22.642856,6.4244281)"/><path id="path4613" d="M 20.815455,2.5216315 A 0.30935922,0.30935922 0 1 1 20.196737,2.5216315 A 0.30935922,0.30935922 0 1 1 20.815455,2.5216315 z" transform="matrix(1.6162441,0,0,1.6162441,-20.642856,6.4244281)" style="color:#000;fill:#555753;fill-opacity:1;fill-rule:evenodd;stroke:none;stroke-width:1;stroke-linecap:round;stroke-linejoin:miter;marker:none;marker-start:none;marker-mid:none;marker-end:none;stroke-miterlimit:4;stroke-dasharray:none;stroke-dashoffset:0;stroke-opacity:1;visibility:visible;display:inline;overflow:visible;enable-background:accumulate"/></g></svg>