<svg xmlns="http://www.w3.org/2000/svg" xmlns:svg="http://www.w3.org/2000/svg" xmlns:xlink="http://www.w3.org/1999/xlink" id="svg1" width="16" height="16" x="0" y="0" version="1.0"><metadata id="metadata162"/><defs id="defs3"><linearGradient id="linearGradient2846"><stop style="stop-color:#3465a4;stop-opacity:1" id="stop2848" offset="0"/><stop style="stop-color:#729fcf;stop-opacity:1" id="stop2850" offset="1"/></linearGradient><linearGradient id="linearGradient1906" x1="8" x2="8" y1=".563" y2="11.438" gradientUnits="userSpaceOnUse" xlink:href="#linearGradient2846"/><filter style="color-interpolation-filters:sRGB" id="filter16829"><feColorMatrix id="feColorMatrix16831" result="colormatrix" values="1 0 0 0 0 0 1 0 0 0 0 0 1 0 0 0 0 0 5 -1"/><feComposite id="feComposite16833" in2="colormatrix" k2=".57" operator="arithmetic" result="fbSourceGraphic"/><feColorMatrix id="feColorMatrix16835" in="fbSourceGraphic" result="fbSourceGraphicAlpha" values="0 0 0 -1 0 0 0 0 -1 0 0 0 0 -1 0 0 0 0 1 0"/><feColorMatrix id="feColorMatrix16837" in="fbSourceGraphic" result="colormatrix" values="1 0 0 0 0 0 1 0 0 0 0 0 1 0 0 0 0 0 5 -1"/><feComposite id="feComposite16839" in2="colormatrix" k2=".57" operator="arithmetic" result="composite"/></filter></defs><g id="layer2" style="display:inline"><path style="color:#000;fill:url(#linearGradient1906);fill-opacity:1;fill-rule:evenodd;stroke:#204a87;stroke-width:.99999964;stroke-linecap:round;stroke-linejoin:round;marker:none;marker-start:none;marker-mid:none;marker-end:none;stroke-miterlimit:4;stroke-dasharray:none;stroke-dashoffset:0;stroke-opacity:1;visibility:visible;display:inline;overflow:visible" id="rect1927" d="M 5.4999976,0.4999914 C 3.4912384,0.4999914 1.8764691,0.72027076 0.4999996,1.0613557 L 0.4999996,15.4697 L 15.499994,15.4697 L 15.499994,1.0613557 C 14.124852,0.72268687 12.519772,0.4999914 10.499996,0.4999914 L 5.4999976,0.4999914 z"/><path style="opacity:.35;color:#000;fill:none;fill-opacity:1;fill-rule:evenodd;stroke:#fff;stroke-width:1.30871499;stroke-linecap:round;stroke-linejoin:miter;marker:none;marker-start:none;marker-mid:none;marker-end:none;stroke-miterlimit:4;stroke-dasharray:none;stroke-dashoffset:0;stroke-opacity:1;visibility:visible;display:inline;overflow:visible" id="path2941" d="M 24.5,28.46875 C 22.459316,28.46875 20.904224,28.749808 19.46875,29.09375 L 19.46875,46.53125 L 35.53125,46.53125 L 35.53125,29.09375 C 34.097014,28.750791 32.551878,28.46875 30.5,28.46875 L 24.5,28.46875 z" transform="matrix(0.809206,0,0,0.721524,-14.28547,-19.07216)"/><g id="COPY" transform="matrix(0.14453125,0,0,0.14453125,3.149495,3.533563)" style="filter:url(#filter16829)"><g id="g16738"><path style="clip-rule:evenodd;fill-rule:evenodd" id="path16740" d="M 41,20 3,20 c -1.657,0 -3,1.343 -3,3 l 0,38 c 0,1.657 1.343,3 3,3 l 38,0 c 1.657,0 3,-1.343 3,-3 l 0,-38 c 0,-1.657 -1.343,-3 -3,-3 z m -3,38 -32,0 0,-32 9,0 0,0 13,0 0,0 10,0 0,32 z M 61,0 23,0 c -1.657,0 -3,1.343 -3,3 l 0,14 6,0 0,-11 9,0 0,0 13,0 0,0 10,0 0,32 -11,0 0,6 14,0 c 1.657,0 3,-1.343 3,-3 L 64,3 C 64,1.344 62.657,0 61,0 Z"/></g></g></g></svg>