<svg xmlns="http://www.w3.org/2000/svg" xmlns:cc="http://web.resource.org/cc/" xmlns:svg="http://www.w3.org/2000/svg" xmlns:xlink="http://www.w3.org/1999/xlink" id="svg3081" width="16" height="16" version="1.0"><defs id="defs3083"><linearGradient id="linearGradient2225"><stop style="stop-color:#435d83;stop-opacity:1" id="stop2227" offset="0"/><stop style="stop-color:#395071;stop-opacity:1" id="stop2229" offset="1"/></linearGradient><linearGradient id="linearGradient2275"><stop style="stop-color:#cacaca;stop-opacity:1" id="stop2277" offset="0"/><stop style="stop-color:#555753;stop-opacity:1" id="stop2279" offset="1"/></linearGradient><linearGradient id="linearGradient2244"><stop style="stop-color:#729fcf;stop-opacity:1" id="stop2246" offset="0"/><stop style="stop-color:#cdddee;stop-opacity:1" id="stop2248" offset="1"/></linearGradient><linearGradient id="linearGradient3116"><stop style="stop-color:#fff;stop-opacity:.79607844" id="stop3118" offset="0"/><stop style="stop-color:#fff;stop-opacity:.21568628" id="stop3120" offset="1"/></linearGradient><linearGradient id="linearGradient1377" x1="10.414" x2="12.212" y1="12.995" y2="14.611" gradientTransform="matrix(0.727273,0,0,0.76087,7.090907,9.749995)" gradientUnits="userSpaceOnUse" xlink:href="#linearGradient2275"/><linearGradient id="linearGradient1383" x1="11.273" x2="8.677" y1="2" y2="-1.364" gradientTransform="matrix(0.932996,0,0,0.728177,-2.295108,0.135911)" gradientUnits="userSpaceOnUse" xlink:href="#linearGradient2244"/><linearGradient id="linearGradient1386" x1="7.219" x2="5.667" y1="13.535" y2="11.251" gradientTransform="scale(0.727273,0.76087)" gradientUnits="userSpaceOnUse" xlink:href="#linearGradient2244"/><linearGradient id="linearGradient1388" x1="5.97" x2="6.863" y1="17.482" y2="10.563" gradientTransform="scale(0.727273,0.76087)" gradientUnits="userSpaceOnUse" xlink:href="#linearGradient2225"/><linearGradient id="linearGradient1391" x1="6.524" x2="8.18" y1="11.212" y2="9.279" gradientTransform="matrix(-0.727273,0,0,0.76087,16.00001,4.535138e-8)" gradientUnits="userSpaceOnUse" xlink:href="#linearGradient2244"/><linearGradient id="linearGradient1393" x1="16.5" x2="13.82" y1="17.179" y2="9.279" gradientTransform="scale(0.727273,0.76087)" gradientUnits="userSpaceOnUse" xlink:href="#linearGradient2225"/><linearGradient id="linearGradient1397" x1="33.057" x2=".744" y1="20.64" y2="-24.036" gradientUnits="userSpaceOnUse" xlink:href="#linearGradient3116"/><linearGradient id="linearGradient2220" x1="41.882" x2="44.118" y1="35.125" y2="37.616" gradientUnits="userSpaceOnUse" xlink:href="#linearGradient2275"/></defs><metadata id="metadata3086"/><g id="layer1"><rect style="color:#000;fill:#555753;fill-opacity:1;fill-rule:nonzero;stroke:none;stroke-width:.99999928;stroke-linecap:round;stroke-linejoin:miter;marker:none;marker-start:none;marker-mid:none;marker-end:none;stroke-miterlimit:4;stroke-dasharray:none;stroke-dashoffset:17.85;stroke-opacity:1;visibility:visible;display:block;overflow:visible" id="rect3094" width="14" height="1" x="1" y="9" rx=".468" ry=".283"/><path style="color:#000;fill:url(#linearGradient1391);fill-opacity:1;fill-rule:nonzero;stroke:url(#linearGradient1393);stroke-width:1.00000036;stroke-linecap:round;stroke-linejoin:miter;marker:none;marker-start:none;marker-mid:none;marker-end:none;stroke-miterlimit:4;stroke-dashoffset:17.85;stroke-opacity:1;visibility:visible;display:block;overflow:visible" id="path1348" d="M 12.5,8.52174 L 10.5,5.5 L 9,7 L 10.5,9.02174 L 10.5,12.52174 L 11.5,14.5 L 11.5,16.02174 L 11.5,14.5 L 13.5,12.5 L 12.5,8.52174 z"/><path style="color:#000;fill:url(#linearGradient1386);fill-opacity:1;fill-rule:nonzero;stroke:url(#linearGradient1388);stroke-width:1.00000036;stroke-linecap:round;stroke-linejoin:miter;marker:none;marker-start:none;marker-mid:none;marker-end:none;stroke-miterlimit:4;stroke-dashoffset:17.85;stroke-opacity:1;visibility:visible;display:block;overflow:visible" id="path3226" d="M 3.5,8.5 L 5.5,5.5 L 7,7 L 5.5,9.02174 L 5.5,12.52174 L 4.5,14.5 L 4.5,16.02174 L 4.5,14.5 L 2.5,12.5 L 3.5,8.5 z"/><rect style="color:#000;fill:url(#linearGradient1383);fill-opacity:1;fill-rule:nonzero;stroke:#435d83;stroke-width:1.00000072;stroke-linecap:round;stroke-linejoin:miter;marker:none;marker-start:none;marker-mid:none;marker-end:none;stroke-miterlimit:4;stroke-dasharray:none;stroke-dashoffset:17.85;stroke-opacity:1;visibility:visible;display:block;overflow:visible" id="rect3078" width="1" height="2" x="7.5" y=".5" rx=".5" ry=".437"/><path style="color:#000;fill:#6f6f6f;fill-opacity:1;fill-rule:nonzero;stroke:#555753;stroke-width:3.2038722;stroke-linecap:round;stroke-linejoin:miter;marker:none;marker-start:none;marker-mid:none;marker-end:none;stroke-miterlimit:4;stroke-dasharray:none;stroke-dashoffset:17.85;stroke-opacity:1;visibility:visible;display:block;overflow:visible" id="path1317" d="M 32.591014 10 A 7.8410139 8.1819277 0 1 1 16.908986,10 A 7.8410139 8.1819277 0 1 1 32.591014 10 z" transform="matrix(0.318836,0,0,0.305551,0.108811,1.944487)"/><path style="color:#000;fill:none;fill-opacity:1;fill-rule:nonzero;stroke:url(#linearGradient1397);stroke-width:6.22286272;stroke-linecap:round;stroke-linejoin:miter;marker:none;marker-start:none;marker-mid:none;marker-end:none;stroke-miterlimit:4;stroke-dasharray:none;stroke-dashoffset:17.85;stroke-opacity:1;visibility:visible;display:block;overflow:visible" id="path3112" d="M 33.791409 10 A 9.0414085 9.636549 0 1 1 15.708591,10 A 9.0414085 9.636549 0 1 1 33.791409 10 z" transform="matrix(0.165903,0,0,0.155657,3.893902,3.443432)"/><path style="color:#000;fill:url(#linearGradient2220);fill-opacity:1;fill-rule:nonzero;stroke:#555753;stroke-width:1.33333397;stroke-linecap:round;stroke-linejoin:miter;marker:none;marker-start:none;marker-mid:none;marker-end:none;stroke-miterlimit:4;stroke-dasharray:none;stroke-dashoffset:17.85;stroke-opacity:1;visibility:visible;display:block;overflow:visible" id="path3413" d="M 45 36 A 2 2 0 1 1 41,36 A 2 2 0 1 1 45 36 z" transform="matrix(0.75,0,0,0.75,-19.25,-14)"/></g></svg>