<svg xmlns="http://www.w3.org/2000/svg" xmlns:svg="http://www.w3.org/2000/svg" xmlns:xlink="http://www.w3.org/1999/xlink" id="svg2" width="16" height="16" version="1.1"><defs id="defs4"><linearGradient id="linearGradient4737"><stop style="stop-color:#a4a6a3;stop-opacity:1" id="stop4739" offset="0"/><stop style="stop-color:#545652;stop-opacity:1" id="stop4741" offset="1"/></linearGradient><linearGradient id="linearGradient4589"><stop style="stop-color:#884300;stop-opacity:1" id="stop4591" offset="0"/><stop style="stop-color:#cd5b00;stop-opacity:1" id="stop4593" offset="1"/></linearGradient><linearGradient id="linearGradient4581"><stop id="stop4583" offset="0" style="stop-color:#fbaf3d;stop-opacity:1"/><stop style="stop-color:#fbaf3d;stop-opacity:1" id="stop4585" offset=".288"/><stop id="stop4587" offset="1" style="stop-color:#f47900;stop-opacity:1"/></linearGradient><linearGradient id="linearGradient4375"><stop style="stop-color:#f49c4d;stop-opacity:1" id="stop4377" offset="0"/><stop id="stop4379" offset=".288" style="stop-color:#ed9c54;stop-opacity:1"/><stop style="stop-color:#9e4f08;stop-opacity:1" id="stop4381" offset="1"/></linearGradient><linearGradient id="linearGradient5444"><stop id="stop5446" offset="0" style="stop-color:#ffc286;stop-opacity:1"/><stop style="stop-color:#fa9d43;stop-opacity:1" id="stop5448" offset=".646"/><stop id="stop5450" offset="1" style="stop-color:#f57900;stop-opacity:1"/></linearGradient><linearGradient id="linearGradient3976"><stop id="stop3978" offset="0" style="stop-color:#878985;stop-opacity:1"/><stop id="stop3980" offset="1" style="stop-color:#545652;stop-opacity:1"/></linearGradient><linearGradient id="linearGradient3970"><stop style="stop-color:#ededeb;stop-opacity:1" id="stop3972" offset="0"/><stop style="stop-color:#d3d6cf;stop-opacity:1" id="stop3974" offset="1"/></linearGradient><linearGradient id="linearGradient3666"><stop style="stop-color:#2d3436;stop-opacity:1" id="stop3668" offset="0"/><stop style="stop-color:#2d3436;stop-opacity:0" id="stop3670" offset="1"/></linearGradient><linearGradient id="linearGradient4589-5"><stop style="stop-color:#884300;stop-opacity:1" id="stop4591-8" offset="0"/><stop style="stop-color:#cd5b00;stop-opacity:1" id="stop4593-4" offset="1"/></linearGradient><linearGradient id="linearGradient4718" x1="4.139" x2="1.501" y1="14.526" y2="10.431" gradientUnits="userSpaceOnUse" xlink:href="#linearGradient4589-5"/><linearGradient id="linearGradient4589-9"><stop style="stop-color:#884300;stop-opacity:1" id="stop4591-4" offset="0"/><stop style="stop-color:#cd5b00;stop-opacity:1" id="stop4593-1" offset="1"/></linearGradient><linearGradient id="linearGradient4718-4" x1="4.139" x2="1.501" y1="14.526" y2="10.431" gradientUnits="userSpaceOnUse" xlink:href="#linearGradient4589-9"/><linearGradient id="linearGradient4589-59"><stop style="stop-color:#884300;stop-opacity:1" id="stop4591-7" offset="0"/><stop style="stop-color:#cd5b00;stop-opacity:1" id="stop4593-9" offset="1"/></linearGradient><linearGradient id="linearGradient4718-5" x1="4.139" x2="1.501" y1="14.526" y2="10.431" gradientUnits="userSpaceOnUse" xlink:href="#linearGradient4589-59"/><linearGradient id="linearGradient4589-6"><stop style="stop-color:#884300;stop-opacity:1" id="stop4591-2" offset="0"/><stop style="stop-color:#cd5b00;stop-opacity:1" id="stop4593-8" offset="1"/></linearGradient><linearGradient id="linearGradient4718-9" x1="4.139" x2="1.501" y1="14.526" y2="10.431" gradientUnits="userSpaceOnUse" xlink:href="#linearGradient4589-6"/><radialGradient id="radialGradient4825" cx="2.969" cy="13" r="1.563" fx="2.284" fy="12.158" gradientUnits="userSpaceOnUse" xlink:href="#linearGradient4581"/><radialGradient id="radialGradient4833" cx="2.969" cy="13" r="1.563" fx="2.284" fy="12.158" gradientUnits="userSpaceOnUse" xlink:href="#linearGradient4581"/><radialGradient id="radialGradient4837" cx="2.969" cy="13" r="1.563" fx="2.284" fy="12.158" gradientUnits="userSpaceOnUse" xlink:href="#linearGradient4581"/><radialGradient id="radialGradient3851" cx="2.969" cy="14.026" r="1.823" fx="2.969" fy="14.026" gradientTransform="matrix(0.99999742,-0.00227153,0.00132959,0.58532608,-0.01864095,5.8228999)" gradientUnits="userSpaceOnUse" xlink:href="#linearGradient3845"/><linearGradient id="linearGradient3845"><stop style="stop-color:#a3bedd;stop-opacity:1" id="stop3847" offset="0"/><stop style="stop-color:#487cbc;stop-opacity:1" id="stop3849" offset="1"/></linearGradient><radialGradient id="radialGradient4164" cx="2.969" cy="14.026" r="1.823" fx="2.969" fy="14.026" gradientTransform="matrix(0.99999742,-0.00227153,0.00132959,0.58532608,-0.01864095,5.8228999)" gradientUnits="userSpaceOnUse" xlink:href="#linearGradient3845"/><radialGradient id="radialGradient4172" cx="2.969" cy="14.026" r="1.823" fx="2.969" fy="14.026" gradientTransform="matrix(0.99999742,-0.00227153,0.00132959,0.58532608,-0.01864095,5.8228999)" gradientUnits="userSpaceOnUse" xlink:href="#linearGradient3845"/><radialGradient id="radialGradient4180" cx="2.969" cy="14.026" r="1.823" fx="2.969" fy="14.026" gradientTransform="matrix(0.99999742,-0.00227153,0.00132959,0.58532608,-0.01864095,5.8228999)" gradientUnits="userSpaceOnUse" xlink:href="#linearGradient3845"/><radialGradient id="radialGradient4188" cx="2.969" cy="14.026" r="1.823" fx="2.969" fy="14.026" gradientTransform="matrix(0.99999742,-0.00227153,0.00132959,0.58532608,-0.01864095,5.8228999)" gradientUnits="userSpaceOnUse" xlink:href="#linearGradient3845"/><linearGradient id="linearGradient4717" x1="3.095" x2="19.299" y1="1041.409" y2="1041.409" gradientTransform="matrix(0.70876784,0,0,0.73268904,0.10473793,281.30027)" gradientUnits="userSpaceOnUse" xlink:href="#linearGradient3970"/><linearGradient id="linearGradient4497-7" x1="13.961" x2="13.961" y1="1037.36" y2="1048.278" gradientTransform="matrix(0.70876784,0,0,0.73268904,0.10473793,281.30027)" gradientUnits="userSpaceOnUse" xlink:href="#linearGradient4737"/><linearGradient id="linearGradient3976-1"><stop id="stop3978-2" offset="0" style="stop-color:#878985;stop-opacity:1"/><stop id="stop3980-3" offset="1" style="stop-color:#545652;stop-opacity:1"/></linearGradient><linearGradient id="linearGradient4713" x1="3.095" x2="19.299" y1="1041.409" y2="1041.409" gradientTransform="matrix(0.70876784,0,0,0.73268904,-0.80444225,-756.58973)" gradientUnits="userSpaceOnUse" xlink:href="#linearGradient3976-1"/></defs><metadata id="metadata7"/><g id="layer1" transform="translate(0,-1036.3622)"><path style="fill:none;stroke:url(#linearGradient4497-7);stroke-width:3;stroke-linecap:butt;stroke-linejoin:round;stroke-miterlimit:4;stroke-opacity:1;stroke-dasharray:none;color:#000;stroke-dashoffset:0;marker:none;visibility:visible;display:inline;overflow:visible;enable-background:accumulate" id="path4715" d="m 3.5625,1039.875 -0.09375,8.5312 4.71875,-3.7187 5.21875,4.8437 0.03125,-7.9062 -9.875,-1.75 z" xlink:href="#path4383"/><path id="path4383" d="m 3.4779302,1048.42 0.073572,-8.555 9.8649908,0.095 0.04324,10.2147 -5.0618211,-5.7505 z" style="fill:none;stroke:url(#linearGradient4717);stroke-width:1;stroke-linecap:butt;stroke-linejoin:miter;stroke-miterlimit:4;stroke-opacity:1;stroke-dasharray:none"/><g id="g3857" transform="matrix(0.67292042,0,0,0.67292042,0.41397731,344.15214)"><path id="path4537" d="m 4.53125,13 c 0,0.862945 -0.6995551,1.5625 -1.5625,1.5625 -0.8629449,0 -1.5625,-0.699555 -1.5625,-1.5625 0,-0.862945 0.6995551,-1.5625 1.5625,-1.5625 0.8629449,0 1.5625,0.699555 1.5625,1.5625 z" transform="matrix(1.9170741,0,0,1.9170741,-1.128608,1008.9448)" style="fill:url(#radialGradient3851);fill-opacity:1;stroke:#154384;stroke-width:.77517074;stroke-miterlimit:4;stroke-opacity:1;stroke-dasharray:none"/><path id="path3843" d="m 6.4081552,2.300447 c 0,0.6651117 -0.7865096,1.2042912 -1.7567184,1.2042912 -0.9702088,0 -1.7567184,-0.5391795 -1.7567184,-1.2042912 0,-0.6651117 0.7865096,-1.2042912 1.7567184,-1.2042912 0.9702088,0 1.7567184,0.5391795 1.7567184,1.2042912 z" transform="translate(-0.09337855,1030.2827)" style="color:#bebebe;fill:#adc5e1;fill-opacity:1;fill-rule:nonzero;stroke:none;stroke-width:1;marker:none;visibility:visible;display:inline;overflow:visible;enable-background:accumulate"/></g><g id="g4158" transform="matrix(0.69471204,0,0,0.69471204,10.249273,321.70344)"><path style="fill:url(#radialGradient4164);fill-opacity:1;stroke:#154384;stroke-width:.78125006;stroke-miterlimit:4;stroke-opacity:1;stroke-dasharray:none" id="path4160" d="m 4.53125,13 c 0,0.862945 -0.6995551,1.5625 -1.5625,1.5625 -0.8629449,0 -1.5625,-0.699555 -1.5625,-1.5625 0,-0.862945 0.6995551,-1.5625 1.5625,-1.5625 0.8629449,0 1.5625,0.699555 1.5625,1.5625 z" transform="matrix(1.8424899,0,0,1.8424899,-0.79064828,1009.7979)"/><path style="color:#bebebe;fill:#adc5e1;fill-opacity:1;fill-rule:nonzero;stroke:none;stroke-width:1;marker:none;visibility:visible;display:inline;overflow:visible;enable-background:accumulate" id="path4162" d="m 6.4081552,2.300447 c 0,0.6651117 -0.7865096,1.2042912 -1.7567184,1.2042912 -0.9702088,0 -1.7567184,-0.5391795 -1.7567184,-1.2042912 0,-0.6651117 0.7865096,-1.2042912 1.7567184,-1.2042912 0.9702088,0 1.7567184,0.5391795 1.7567184,1.2042912 z" transform="translate(-0.09337855,1030.2827)"/></g><g id="g4166" transform="matrix(0.69471204,0,0,0.69471204,10.249273,331.70347)"><path id="path4168" d="m 4.53125,13 a 1.5625,1.5625 0 1 1 -3.125,0 1.5625,1.5625 0 1 1 3.125,0 z" transform="matrix(1.8424909,0,0,1.8424909,-0.79065246,1009.7978)" style="fill:url(#radialGradient4172);fill-opacity:1;stroke:#154384;stroke-width:.78124964;stroke-miterlimit:4;stroke-opacity:1;stroke-dasharray:none"/><path id="path4170" d="m 6.4081552,2.300447 c 0,0.6651117 -0.7865096,1.2042912 -1.7567184,1.2042912 -0.9702088,0 -1.7567184,-0.5391795 -1.7567184,-1.2042912 0,-0.6651117 0.7865096,-1.2042912 1.7567184,-1.2042912 0.9702088,0 1.7567184,0.5391795 1.7567184,1.2042912 z" transform="translate(-0.09337855,1030.2827)" style="color:#bebebe;fill:#adc5e1;fill-opacity:1;fill-rule:nonzero;stroke:none;stroke-width:1;marker:none;visibility:visible;display:inline;overflow:visible;enable-background:accumulate"/></g><g id="g4174" transform="matrix(0.67292017,0,0,0.67292017,5.4296633,349.1524)"><path style="fill:url(#radialGradient4180);fill-opacity:1;stroke:#154384;stroke-width:.77517104;stroke-miterlimit:4;stroke-opacity:1;stroke-dasharray:none" id="path4176" d="m 4.53125,13 c 0,0.862945 -0.6995551,1.5625 -1.5625,1.5625 -0.8629449,0 -1.5625,-0.699555 -1.5625,-1.5625 0,-0.862945 0.6995551,-1.5625 1.5625,-1.5625 0.8629449,0 1.5625,0.699555 1.5625,1.5625 z" transform="matrix(1.9170741,0,0,1.9170741,-1.128608,1008.9448)"/><path style="color:#bebebe;fill:#adc5e1;fill-opacity:1;fill-rule:nonzero;stroke:none;stroke-width:1;marker:none;visibility:visible;display:inline;overflow:visible;enable-background:accumulate" id="path4178" d="m 6.4081552,2.300447 c 0,0.6651117 -0.7865096,1.2042912 -1.7567184,1.2042912 -0.9702088,0 -1.7567184,-0.5391795 -1.7567184,-1.2042912 0,-0.6651117 0.7865096,-1.2042912 1.7567184,-1.2042912 0.9702088,0 1.7567184,0.5391795 1.7567184,1.2042912 z" transform="translate(-0.09337855,1030.2827)"/></g><g id="g4182" transform="matrix(0.67292017,0,0,0.67292017,0.44534737,353.13672)"><path id="path4184" d="m 4.53125,13 c 0,0.862945 -0.6995551,1.5625 -1.5625,1.5625 -0.8629449,0 -1.5625,-0.699555 -1.5625,-1.5625 0,-0.862945 0.6995551,-1.5625 1.5625,-1.5625 0.8629449,0 1.5625,0.699555 1.5625,1.5625 z" transform="matrix(1.9170741,0,0,1.9170741,-1.128608,1008.9448)" style="fill:url(#radialGradient4188);fill-opacity:1;stroke:#154384;stroke-width:.77517104;stroke-miterlimit:4;stroke-opacity:1;stroke-dasharray:none"/><path id="path4186" d="m 6.4081552,2.300447 c 0,0.6651117 -0.7865096,1.2042912 -1.7567184,1.2042912 -0.9702088,0 -1.7567184,-0.5391795 -1.7567184,-1.2042912 0,-0.6651117 0.7865096,-1.2042912 1.7567184,-1.2042912 0.9702088,0 1.7567184,0.5391795 1.7567184,1.2042912 z" transform="translate(-0.09337855,1030.2827)" style="color:#bebebe;fill:#adc5e1;fill-opacity:1;fill-rule:nonzero;stroke:none;stroke-width:1;marker:none;visibility:visible;display:inline;overflow:visible;enable-background:accumulate"/></g></g></svg>