<svg xmlns="http://www.w3.org/2000/svg" xmlns:cc="http://web.resource.org/cc/" xmlns:svg="http://www.w3.org/2000/svg" xmlns:xlink="http://www.w3.org/1999/xlink" id="svg1" width="16" height="16" x="0" y="0" version="1.0"><metadata id="metadata162"/><defs id="defs3"><linearGradient id="linearGradient3606"><stop style="stop-color:black;stop-opacity:0" id="stop3608" offset="0"/><stop id="stop3614" offset=".5" style="stop-color:black;stop-opacity:1"/><stop style="stop-color:black;stop-opacity:0" id="stop3610" offset="1"/></linearGradient><linearGradient id="linearGradient3444"><stop style="stop-color:white;stop-opacity:1" id="stop3446" offset="0"/><stop id="stop3452" offset=".5" style="stop-color:white;stop-opacity:1"/><stop style="stop-color:white;stop-opacity:0" id="stop3448" offset="1"/></linearGradient><linearGradient id="linearGradient3434"><stop style="stop-color:#204a87;stop-opacity:1" id="stop3436" offset="0"/><stop id="stop3442" offset=".5" style="stop-color:#babdb6;stop-opacity:1"/><stop style="stop-color:#babdb6;stop-opacity:0" id="stop3438" offset="1"/></linearGradient><linearGradient id="linearGradient3415"><stop style="stop-color:#2e3436;stop-opacity:1" id="stop3417" offset="0"/><stop id="stop3423" offset=".536" style="stop-color:#2e3436;stop-opacity:1"/><stop style="stop-color:#2e3436;stop-opacity:0" id="stop3419" offset="1"/></linearGradient><linearGradient id="linearGradient2962"><stop id="stop2964" offset="0" style="stop-color:#888a85;stop-opacity:1"/><stop id="stop2966" offset="1" style="stop-color:#888a85;stop-opacity:1"/></linearGradient><linearGradient id="linearGradient2931"><stop style="stop-color:#babdb6;stop-opacity:1" id="stop2933" offset="0"/><stop style="stop-color:#888a85;stop-opacity:1" id="stop2935" offset="1"/></linearGradient><linearGradient id="linearGradient2915"><stop style="stop-color:white;stop-opacity:1" id="stop2917" offset="0"/><stop style="stop-color:white;stop-opacity:0" id="stop2919" offset="1"/></linearGradient><linearGradient id="linearGradient2896"><stop style="stop-color:#d3d7cf;stop-opacity:1" id="stop2898" offset="0"/><stop style="stop-color:white;stop-opacity:1" id="stop2900" offset="1"/></linearGradient><linearGradient id="linearGradient2888"><stop style="stop-color:#d3d7cf;stop-opacity:1" id="stop2890" offset="0"/><stop style="stop-color:white;stop-opacity:1" id="stop2892" offset="1"/></linearGradient><linearGradient id="linearGradient3284" x1="30.063" x2="30.063" y1="44.563" y2="43.306" gradientTransform="translate(-23,-30)" gradientUnits="userSpaceOnUse" xlink:href="#linearGradient2896"/><linearGradient id="linearGradient3286" x1="28.969" x2="27.938" y1="40.312" y2="44" gradientTransform="translate(-23,-30)" gradientUnits="userSpaceOnUse" xlink:href="#linearGradient2931"/><linearGradient id="linearGradient3289" x1="44.125" x2="44.188" y1="26.813" y2="50.188" gradientTransform="translate(-23,-23)" gradientUnits="userSpaceOnUse" xlink:href="#linearGradient2915"/><linearGradient id="linearGradient3292" x1="36.438" x2="36.438" y1="23.437" y2="42.628" gradientTransform="translate(-23,-23)" gradientUnits="userSpaceOnUse" xlink:href="#linearGradient2888"/><linearGradient id="linearGradient3294" x1="45.785" x2="45.785" y1="26.345" y2="20.511" gradientTransform="translate(-23,-23)" gradientUnits="userSpaceOnUse" xlink:href="#linearGradient2962"/><radialGradient id="radialGradient2991" cx="16.188" cy="26.563" r="15.313" fx="16.188" fy="26.563" gradientTransform="matrix(1,0,0,0.322449,0,17.99745)" gradientUnits="userSpaceOnUse" xlink:href="#linearGradient2981"/><radialGradient id="radialGradient2987" cx="16.188" cy="26.563" r="15.313" fx="16.188" fy="26.563" gradientTransform="matrix(1,0,0,0.322449,0,17.99745)" gradientUnits="userSpaceOnUse" xlink:href="#linearGradient2981"/><linearGradient id="linearGradient2981"><stop id="stop2983" offset="0" style="stop-color:black;stop-opacity:1"/><stop id="stop2985" offset="1" style="stop-color:black;stop-opacity:0"/></linearGradient><radialGradient id="radialGradient2133" cx="16.188" cy="26.563" r="15.313" fx="16.188" fy="26.563" gradientTransform="matrix(1,0,0,0.322449,0,17.99745)" gradientUnits="userSpaceOnUse" xlink:href="#linearGradient2981"/><radialGradient id="radialGradient2131" cx="16.188" cy="26.563" r="15.313" fx="16.188" fy="26.563" gradientTransform="matrix(1,0,0,0.322449,0,17.99745)" gradientUnits="userSpaceOnUse" xlink:href="#linearGradient2981"/></defs><g id="layer2" style="display:inline"><path style="color:#000;fill:url(#linearGradient3292);fill-opacity:1;fill-rule:evenodd;stroke:url(#linearGradient3294);stroke-width:1.00000012;stroke-linecap:round;stroke-linejoin:round;marker:none;marker-start:none;marker-mid:none;marker-end:none;stroke-miterlimit:4;stroke-dasharray:none;stroke-dashoffset:0;stroke-opacity:1;visibility:visible;display:inline;overflow:visible" id="rect1934" d="M 4,0.5 C 3.172697,0.5 2.499999,1.62 2.5,3 L 2.5,12.5 L 2.46875,12.5 L 0.53125,12.5 C 0.51124,12.662695 0.5,12.8275 0.5,13 C 0.5,14.38 1.172698,15.5 2,15.5 L 12,15.5 C 12.827303,15.5 13.5,14.38 13.5,13 L 13.5,3.5 L 15.46875,3.5 C 15.48876,3.337305 15.5,3.1725 15.5,3 C 15.5,1.62 14.827303,0.5 14,0.5 C 8.305328,0.624755 9.694672,0.5 4,0.5 z"/><path style="color:#000;fill:none;fill-opacity:1;fill-rule:evenodd;stroke:url(#linearGradient3289);stroke-width:1;stroke-linecap:round;stroke-linejoin:miter;marker:none;marker-start:none;marker-mid:none;marker-end:none;stroke-miterlimit:4;stroke-dasharray:none;stroke-dashoffset:0;stroke-opacity:1;visibility:visible;display:inline;overflow:visible" id="path2904" d="M 4.28125,1.5 C 3.890006,1.5 3.5,1.868273 3.5,3 L 3.5,12.5 L 3.46875,12.5 L 1.53125,12.5 C 1.51124,12.662695 1.5,12.8275 1.5,13 C 1.5,14.38 2.172698,14.5 3,14.5 L 11,14.5 C 11.827303,14.5 12.5,14.38 12.5,13 C 12.500645,6.360737 12.5,9.576325 12.5,3 C 12.5,2.513244 12.515466,2.028728 12.955806,1.5 L 4.28125,1.5 z"/><path style="opacity:.5;color:#000;fill:#888a85;fill-opacity:1;fill-rule:evenodd;stroke:none;stroke-width:2;stroke-linecap:round;stroke-linejoin:round;marker:none;marker-start:none;marker-mid:none;marker-end:none;stroke-miterlimit:4;stroke-dasharray:none;stroke-dashoffset:0;stroke-opacity:1;visibility:visible;display:inline;overflow:visible" id="rect2179" d="M 7.7879628,3.500001 L 6.2442486,3.9054348 L 6.553107,5.1288702 C 6.1628528,5.356063 5.8222588,5.6762779 5.5791832,6.0635247 L 4.4156798,5.7609364 L 4,7.2666366 L 5.1635034,7.5692251 C 5.176133,8.0249064 5.3009303,8.4642444 5.5254542,8.8512962 L 4.6277162,9.760935 L 5.7557508,10.861202 L 6.6808083,9.936252 C 6.8634607,10.029037 7.0536264,10.122866 7.2610133,10.176801 C 7.4676983,10.230553 7.6821072,10.241642 7.8874045,10.250048 L 8.2120362,11.5 L 9.7557504,11.094566 L 9.4411184,9.892043 C 9.8464074,9.664933 10.169576,9.333763 10.420815,8.9364768 L 11.584319,9.239065 L 11.999999,7.733364 L 10.836495,7.4307759 C 10.825348,6.9720877 10.727663,6.5228718 10.501864,6.1333961 L 11.372282,5.2390651 L 10.244248,4.1387986 L 9.3191904,5.0637478 C 9.1370674,4.9713983 8.9456702,4.8769517 8.7389856,4.8232 C 8.5315993,4.7692656 8.3185746,4.7582378 8.1125945,4.7499523 L 7.7879628,3.500001 z M 8.2771196,6.4962003 C 8.8506498,6.6453565 9.1879024,7.2123088 9.0342254,7.768968 C 8.8805476,8.3256275 8.2964117,8.6529573 7.7228796,8.5038009 C 7.149348,8.3546444 6.8120968,7.7876922 6.9657741,7.231033 C 7.1194514,6.674374 7.7035877,6.347044 8.2771196,6.4962003 z"/><path style="color:#000;fill:url(#linearGradient3284);fill-opacity:1;fill-rule:evenodd;stroke:url(#linearGradient3286);stroke-width:1.06991291;stroke-linecap:round;stroke-linejoin:round;marker:none;marker-start:none;marker-mid:none;marker-end:none;stroke-miterlimit:4;stroke-dasharray:none;stroke-dashoffset:0;stroke-opacity:1;visibility:visible;display:inline;overflow:visible" id="path2872" d="M 0.53125,12.5 C 0.51124,12.662695 0.5,12.8275 0.5,13 C 0.5,14.38 1.172698,15.5 2,15.5 L 12,15.5 C 11.172696,15.5 10.5,14.38 10.5,13 C 10.5,12.8275 10.51124,12.662695 10.53125,12.5 L 0.53125,12.5 z"/></g></svg>