<svg xmlns="http://www.w3.org/2000/svg" xmlns:cc="http://web.resource.org/cc/" xmlns:svg="http://www.w3.org/2000/svg" xmlns:xlink="http://www.w3.org/1999/xlink" id="svg11300" width="16" height="16" version="1.0"><defs id="defs3"><linearGradient id="linearGradient3832"><stop style="stop-color:#fff;stop-opacity:1" id="stop3834" offset="0"/><stop style="stop-color:#e0e0e0;stop-opacity:1" id="stop3836" offset="1"/></linearGradient><linearGradient id="linearGradient2791" x1="17.881" x2="17.881" y1="11.073" y2="21.768" gradientTransform="matrix(1.018156,0,0,1,-9.9856e-2,-0.441941)" gradientUnits="userSpaceOnUse" xlink:href="#linearGradient3832"/><linearGradient id="linearGradient2034" x1="17.881" x2="17.881" y1="11.073" y2="21.768" gradientTransform="matrix(0.812182,0,0,0.818433,-1.967,-4.040862)" gradientUnits="userSpaceOnUse" xlink:href="#linearGradient3832"/></defs><metadata id="metadata4"/><g id="layer1"><rect id="rect3862" width="13.065" height="13" x="2.5" y="2.5" rx=".536" ry=".553" style="color:#000;fill:url(#linearGradient2034);fill-opacity:1;fill-rule:evenodd;stroke:#3465a4;stroke-width:1.00000024;stroke-linecap:butt;stroke-linejoin:miter;marker:none;marker-start:none;marker-mid:none;marker-end:none;stroke-miterlimit:4;stroke-dasharray:none;stroke-dashoffset:0;stroke-opacity:1;visibility:visible;display:inline;overflow:visible"/><rect id="rect3864" width="9" height="1" x="5" y="4" rx=".083" ry=".111" style="color:#000;fill:#204a87;fill-opacity:1;fill-rule:evenodd;stroke:none;stroke-width:1;stroke-linecap:butt;stroke-linejoin:miter;marker:none;marker-start:none;marker-mid:none;marker-end:none;stroke-miterlimit:4;stroke-dasharray:none;stroke-dashoffset:0;stroke-opacity:1;visibility:visible;display:inline;overflow:visible"/><g id="g2785" transform="matrix(0.487472,0,0,1.007086,-2.173189,-8.100172)"><rect style="opacity:1;color:#000;fill:url(#linearGradient2791);fill-opacity:1;fill-rule:evenodd;stroke:#888a85;stroke-width:1.42722273;stroke-linecap:butt;stroke-linejoin:miter;marker:none;marker-start:none;marker-mid:none;marker-end:none;stroke-miterlimit:4;stroke-dasharray:none;stroke-dashoffset:0;stroke-opacity:1;visibility:visible;display:inline;overflow:visible" id="rect2787" width="16.379" height="12.92" x="5.5" y="8.56" rx="2.305" ry="1.106"/><rect style="opacity:1;color:#000;fill:#555753;fill-opacity:1;fill-rule:evenodd;stroke:none;stroke-width:1;stroke-linecap:butt;stroke-linejoin:miter;marker:none;marker-start:none;marker-mid:none;marker-end:none;stroke-miterlimit:4;stroke-dasharray:none;stroke-dashoffset:0;stroke-opacity:1;visibility:visible;display:inline;overflow:visible" id="rect2789" width="10.419" height="1.096" x="8.561" y="9.927" rx=".463" ry=".122"/></g><path id="path6940" d="M 4.9375 7.0625 A 0.875 0.875 0 1 1 3.1875,7.0625 A 0.875 0.875 0 1 1 4.9375 7.0625 z" transform="matrix(1.142857,0,0,1.142857,1.357143,-3.071429)" style="opacity:1;color:#000;fill:#ef2929;fill-opacity:1;fill-rule:evenodd;stroke:none;stroke-width:.5;stroke-linecap:round;stroke-linejoin:round;marker:none;marker-start:none;marker-mid:none;marker-end:none;stroke-miterlimit:10;stroke-dasharray:none;stroke-dashoffset:0;stroke-opacity:1;visibility:visible;display:inline;overflow:visible"/><path style="opacity:1;color:#000;fill:#4e9a06;fill-opacity:1;fill-rule:evenodd;stroke:none;stroke-width:.5;stroke-linecap:round;stroke-linejoin:round;marker:none;marker-start:none;marker-mid:none;marker-end:none;stroke-miterlimit:10;stroke-dasharray:none;stroke-dashoffset:0;stroke-opacity:1;visibility:visible;display:inline;overflow:visible" id="path6942" d="M 4.9375 7.0625 A 0.875 0.875 0 1 1 3.1875,7.0625 A 0.875 0.875 0 1 1 4.9375 7.0625 z" transform="matrix(1.142857,0,0,1.142857,-1.642856,-3.071428)"/><path id="path6944" d="M 4.9375 7.0625 A 0.875 0.875 0 1 1 3.1875,7.0625 A 0.875 0.875 0 1 1 4.9375 7.0625 z" transform="matrix(1.142857,0,0,1.142857,-1.642856,-7.1428e-2)" style="opacity:1;color:#000;fill:#3465a4;fill-opacity:1;fill-rule:evenodd;stroke:none;stroke-width:.5;stroke-linecap:round;stroke-linejoin:round;marker:none;marker-start:none;marker-mid:none;marker-end:none;stroke-miterlimit:10;stroke-dasharray:none;stroke-dashoffset:0;stroke-opacity:1;visibility:visible;display:inline;overflow:visible"/><path style="opacity:1;color:#000;fill:#888a85;fill-opacity:1;fill-rule:evenodd;stroke:none;stroke-width:.5;stroke-linecap:round;stroke-linejoin:round;marker:none;marker-start:none;marker-mid:none;marker-end:none;stroke-miterlimit:10;stroke-dasharray:none;stroke-dashoffset:0;stroke-opacity:1;visibility:visible;display:inline;overflow:visible" id="path6946" d="M 4.9375 7.0625 A 0.875 0.875 0 1 1 3.1875,7.0625 A 0.875 0.875 0 1 1 4.9375 7.0625 z" transform="matrix(1.142857,0,0,1.142857,1.357143,-7.1427e-2)"/><path id="path6948" d="M 4.9375 7.0625 A 0.875 0.875 0 1 1 3.1875,7.0625 A 0.875 0.875 0 1 1 4.9375 7.0625 z" transform="matrix(1.142857,0,0,1.142857,1.357144,2.928572)" style="opacity:1;color:#000;fill:#c4a000;fill-opacity:1;fill-rule:evenodd;stroke:none;stroke-width:.5;stroke-linecap:round;stroke-linejoin:round;marker:none;marker-start:none;marker-mid:none;marker-end:none;stroke-miterlimit:10;stroke-dasharray:none;stroke-dashoffset:0;stroke-opacity:1;visibility:visible;display:inline;overflow:visible"/><path style="opacity:1;color:#000;fill:#f57900;fill-opacity:1;fill-rule:evenodd;stroke:none;stroke-width:.5;stroke-linecap:round;stroke-linejoin:round;marker:none;marker-start:none;marker-mid:none;marker-end:none;stroke-miterlimit:10;stroke-dasharray:none;stroke-dashoffset:0;stroke-opacity:1;visibility:visible;display:inline;overflow:visible" id="path6950" d="M 4.9375 7.0625 A 0.875 0.875 0 1 1 3.1875,7.0625 A 0.875 0.875 0 1 1 4.9375 7.0625 z" transform="matrix(1.142857,0,0,1.142857,-1.642856,2.928572)"/></g></svg>