<svg xmlns="http://www.w3.org/2000/svg" xmlns:svg="http://www.w3.org/2000/svg" xmlns:xlink="http://www.w3.org/1999/xlink" id="svg1" width="16" height="16" x="0" y="0" version="1.0"><metadata id="metadata162"/><defs id="defs3"><linearGradient id="linearGradient2846"><stop style="stop-color:#3465a4;stop-opacity:1" id="stop2848" offset="0"/><stop style="stop-color:#729fcf;stop-opacity:1" id="stop2850" offset="1"/></linearGradient><linearGradient id="linearGradient1906" x1="8" x2="8" y1=".563" y2="11.438" gradientTransform="matrix(0.99993706,0,0,1.0019602,-7.0962343,-0.05050075)" gradientUnits="userSpaceOnUse" xlink:href="#linearGradient2846"/><filter style="color-interpolation-filters:sRGB" id="filter16829"><feColorMatrix id="feColorMatrix16831" result="colormatrix" values="1 0 0 0 0 0 1 0 0 0 0 0 1 0 0 0 0 0 5 -1"/><feComposite id="feComposite16833" in2="colormatrix" k2=".57" operator="arithmetic" result="fbSourceGraphic"/><feColorMatrix id="feColorMatrix16835" in="fbSourceGraphic" result="fbSourceGraphicAlpha" values="0 0 0 -1 0 0 0 0 -1 0 0 0 0 -1 0 0 0 0 1 0"/><feColorMatrix id="feColorMatrix16837" in="fbSourceGraphic" result="colormatrix" values="1 0 0 0 0 0 1 0 0 0 0 0 1 0 0 0 0 0 5 -1"/><feComposite id="feComposite16839" in2="colormatrix" k2=".57" operator="arithmetic" result="composite"/></filter></defs><g id="layer2" style="display:inline"><g id="g17376" transform="translate(7.09674,0.05000383)"><path id="rect1927" d="m -1.5965826,0.45047035 c -2.0086329,0 -3.6233007,0.22071202 -4.9996835,0.56246475 l 0,14.4365869 14.9990521,0 0,-14.4365869 C 7.0277305,0.67360245 5.4227514,0.45047035 3.4031018,0.45047035 l -4.9996844,0 z" style="color:#000;display:inline;overflow:visible;visibility:visible;fill:url(#linearGradient1906);fill-opacity:1;fill-rule:evenodd;stroke:#204a87;stroke-width:1.00094795;stroke-linecap:round;stroke-linejoin:round;stroke-miterlimit:4;stroke-dasharray:none;stroke-dashoffset:0;stroke-opacity:1;marker:none;marker-start:none;marker-mid:none;marker-end:none"/><path id="path2941" d="m 24.5,28.458984 c -2.046906,0 -3.602578,0.281183 -5.041016,0.626954 l 0,17.455078 16.082032,0 0,-17.453125 C 34.1041,28.74332 32.557458,28.458984 30.5,28.458984 l -6,0 z" transform="matrix(0.80915515,0,0,0.72293828,-21.380808,-19.160045)" style="color:#000;display:inline;overflow:visible;visibility:visible;opacity:.35;fill:none;fill-opacity:1;fill-rule:evenodd;stroke:#fff;stroke-width:1.30871499;stroke-linecap:round;stroke-linejoin:miter;stroke-miterlimit:4;stroke-dasharray:none;stroke-dashoffset:0;stroke-opacity:1;marker:none;marker-start:none;marker-mid:none;marker-end:none"/><g style="filter:url(#filter16829)" id="COPY" transform="matrix(0.14452216,0,0,0.14481456,-3.9469375,3.4899879)"><g id="g16738"><path id="path16740" d="M 41,20 3,20 c -1.657,0 -3,1.343 -3,3 l 0,38 c 0,1.657 1.343,3 3,3 l 38,0 c 1.657,0 3,-1.343 3,-3 l 0,-38 c 0,-1.657 -1.343,-3 -3,-3 z m -3,38 -32,0 0,-32 9,0 0,0 13,0 0,0 10,0 0,32 z M 61,0 23,0 c -1.657,0 -3,1.343 -3,3 l 0,14 6,0 0,-11 9,0 0,0 13,0 0,0 10,0 0,32 -11,0 0,6 14,0 c 1.657,0 3,-1.343 3,-3 L 64,3 C 64,1.344 62.657,0 61,0 Z" style="clip-rule:evenodd;fill-rule:evenodd"/></g></g></g></g></svg>