<svg xmlns="http://www.w3.org/2000/svg" xmlns:cc="http://web.resource.org/cc/" xmlns:svg="http://www.w3.org/2000/svg" xmlns:xlink="http://www.w3.org/1999/xlink" id="svg1" width="22" height="22" x="0" y="0" version="1.0"><metadata id="metadata162"/><defs id="defs3"><linearGradient id="linearGradient2983"><stop id="stop2985" offset="0" style="stop-color:#888a85;stop-opacity:1"/><stop id="stop2987" offset="1" style="stop-color:#d3d7cf;stop-opacity:1"/></linearGradient><linearGradient id="linearGradient2977"><stop id="stop2979" offset="0" style="stop-color:#babdb6;stop-opacity:1"/><stop id="stop2981" offset="1" style="stop-color:#888a85;stop-opacity:1"/></linearGradient><linearGradient id="linearGradient2862"><stop style="stop-color:#3465a4;stop-opacity:1" id="stop2864" offset="0"/><stop style="stop-color:#204a87;stop-opacity:1" id="stop2866" offset="1"/></linearGradient><linearGradient id="linearGradient2846"><stop style="stop-color:#3465a4;stop-opacity:1" id="stop2848" offset="0"/><stop style="stop-color:#729fcf;stop-opacity:1" id="stop2850" offset="1"/></linearGradient><linearGradient id="linearGradient1957" x1="27.375" x2="27.375" y1="15.326" y2="41.876" gradientTransform="matrix(0.944444,0,0,0.800001,-20.74999,-14.90002)" gradientUnits="userSpaceOnUse" xlink:href="#linearGradient2846"/><linearGradient id="linearGradient1961" x1="31.116" x2="31.116" y1="27.866" y2="30.773" gradientUnits="userSpaceOnUse" xlink:href="#linearGradient2862"/><linearGradient id="linearGradient1939" x1="27.375" x2="27.375" y1="15.326" y2="41.876" gradientTransform="matrix(0.944445,0,0,0.799999,-16.75,-19.89999)" gradientUnits="userSpaceOnUse" xlink:href="#linearGradient2983"/><linearGradient id="linearGradient1941" x1="31.116" x2="31.116" y1="26.601" y2="29.698" gradientUnits="userSpaceOnUse" xlink:href="#linearGradient2977"/></defs><g id="layer2" style="display:inline"><path style="color:#000;fill:url(#linearGradient1939);fill-opacity:1;fill-rule:evenodd;stroke:#888a85;stroke-width:.99999958;stroke-linecap:round;stroke-linejoin:round;marker:none;marker-start:none;marker-mid:none;marker-end:none;stroke-miterlimit:4;stroke-dasharray:none;stroke-dashoffset:0;stroke-opacity:1;visibility:visible;display:inline;overflow:visible" id="path2945" d="M 10.166665,0.50000077 C 7.8900694,0.50000077 6.0599967,0.73544169 4.4999981,1.1000015 L 4.4999981,16.499993 L 21.499999,16.499993 L 21.499999,1.1000015 C 19.941504,0.73802408 18.122414,0.50000077 15.833332,0.50000077 L 10.166665,0.50000077 z"/><path style="color:#000;fill:#d3d7cf;fill-opacity:1;fill-rule:evenodd;stroke:#888a85;stroke-width:1.00000024;stroke-linecap:round;stroke-linejoin:miter;marker:none;marker-start:none;marker-mid:none;marker-end:none;stroke-miterlimit:4;stroke-dashoffset:0;stroke-opacity:1;visibility:visible;display:inline;overflow:visible" id="path2947" d="M 18.500015,2.092596 C 18.500015,3.421484 16.036012,4.500001 13.000008,4.500001 C 9.9640051,4.500001 7.5000015,3.421484 7.5000015,2.092596 C 7.5000015,0.763709 8.0444018,0.437506 13.000008,0.437506 C 18.041302,0.437506 18.500015,0.763709 18.500015,2.092596 z"/><path style="opacity:.50196078;color:#000;fill:none;fill-opacity:1;fill-rule:evenodd;stroke:#fff;stroke-width:1.17408979;stroke-linecap:round;stroke-linejoin:miter;marker:none;marker-start:none;marker-mid:none;marker-end:none;stroke-miterlimit:4;stroke-dasharray:none;stroke-dashoffset:0;stroke-opacity:1;visibility:visible;display:inline;overflow:visible" id="path2949" d="M 24.5,28.46875 C 22.459316,28.46875 20.904224,28.749808 19.46875,29.09375 L 19.46875,46.53125 L 35.53125,46.53125 L 35.53125,29.09375 C 34.097014,28.750791 32.551878,28.46875 30.5,28.46875 L 24.5,28.46875 z" transform="matrix(0.933853,0,0,0.776817,-12.68095,-20.64626)"/><path style="color:#000;fill:url(#linearGradient1941);fill-opacity:1;fill-rule:evenodd;stroke:#888a85;stroke-width:1.29720914;stroke-linecap:round;stroke-linejoin:miter;marker:none;marker-start:none;marker-mid:none;marker-end:none;stroke-miterlimit:4;stroke-dasharray:none;stroke-dashoffset:0;stroke-opacity:1;visibility:visible;display:inline;overflow:visible" id="path2951" d="M 36.6875 28.15625 A 5.09375 1.15625 0 1 1 26.5,28.15625 A 5.09375 1.15625 0 1 1 36.6875 28.15625 z" transform="matrix(0.687119,0,0,0.864864,-8.70866,-22.85134)"/><path style="color:#000;fill:url(#linearGradient1957);fill-opacity:1;fill-rule:evenodd;stroke:#204a87;stroke-width:.99999982;stroke-linecap:round;stroke-linejoin:round;marker:none;marker-start:none;marker-mid:none;marker-end:none;stroke-miterlimit:4;stroke-dasharray:none;stroke-dashoffset:0;stroke-opacity:1;visibility:visible;display:inline;overflow:visible" id="rect1927" d="M 6.1666638,5.4999913 C 3.8900702,5.4999913 2.0599984,5.7354316 0.49999978,6.0999921 L 0.49999978,21.500005 L 17.499992,21.500005 L 17.499992,6.0999921 C 15.941498,5.738014 14.122408,5.4999913 11.833328,5.4999913 L 6.1666638,5.4999913 z"/><g id="g2794" style="fill:#204a87;stroke:#204a87;opacity:.5"><path id="path1899" d="M 3.5,9 L 3.5,20.5" style="fill:#204a87;fill-opacity:.75;fill-rule:evenodd;stroke:#204a87;stroke-width:1px;stroke-linecap:round;stroke-linejoin:miter;stroke-opacity:1"/><path id="path2788" d="M 5.5,10 L 5.5,20.5" style="fill:#204a87;fill-opacity:.75;fill-rule:evenodd;stroke:#204a87;stroke-width:1px;stroke-linecap:round;stroke-linejoin:miter;stroke-opacity:1;display:inline"/><path id="path2790" d="M 14.5,9 L 14.5,20.5" style="fill:#204a87;fill-opacity:.75;fill-rule:evenodd;stroke:#204a87;stroke-width:1px;stroke-linecap:round;stroke-linejoin:miter;stroke-opacity:1;display:inline"/><path id="path2792" d="M 12.5,10 L 12.5,20.5" style="fill:#204a87;fill-opacity:.75;fill-rule:evenodd;stroke:#204a87;stroke-width:1px;stroke-linecap:round;stroke-linejoin:miter;stroke-opacity:1;display:inline"/></g><path style="color:#000;fill:#729fcf;fill-opacity:1;fill-rule:evenodd;stroke:#204a87;stroke-width:1;stroke-linecap:round;stroke-linejoin:miter;marker:none;marker-start:none;marker-mid:none;marker-end:none;stroke-miterlimit:4;stroke-dashoffset:0;stroke-opacity:1;visibility:visible;display:inline;overflow:visible" id="path2829" d="M 14.500004,7.0559719 C 14.500004,8.3554558 12.036002,9.410109 8.9999979,9.410109 C 5.963995,9.410109 3.4999913,8.3554558 3.4999913,7.0559719 C 3.4999913,5.7564889 4.0443916,5.4375034 8.9999979,5.4375034 C 14.041291,5.4375034 14.500004,5.7564889 14.500004,7.0559719 z"/><path style="opacity:.35;color:#000;fill:none;fill-opacity:1;fill-rule:evenodd;stroke:#fff;stroke-width:1.17287004;stroke-linecap:round;stroke-linejoin:miter;marker:none;marker-start:none;marker-mid:none;marker-end:none;stroke-miterlimit:4;stroke-dasharray:none;stroke-dashoffset:0;stroke-opacity:1;visibility:visible;display:inline;overflow:visible" id="path2941" d="M 24.5,28.46875 C 22.459316,28.46875 20.904224,28.749808 19.46875,29.09375 L 19.46875,46.53125 L 35.53125,46.53125 L 35.53125,29.09375 C 34.097014,28.750791 32.551878,28.46875 30.5,28.46875 L 24.5,28.46875 z" transform="matrix(0.935798,0,0,0.776816,-16.75006,-15.64624)"/><path style="color:#000;fill:url(#linearGradient1961);fill-opacity:1;fill-rule:evenodd;stroke:#204a87;stroke-width:1.29721129;stroke-linecap:round;stroke-linejoin:miter;marker:none;marker-start:none;marker-mid:none;marker-end:none;stroke-miterlimit:4;stroke-dasharray:none;stroke-dashoffset:0;stroke-opacity:1;visibility:visible;display:inline;overflow:visible" id="path2823" d="M 36.6875 28.15625 A 5.09375 1.15625 0 1 1 26.5,28.15625 A 5.09375 1.15625 0 1 1 36.6875 28.15625 z" transform="matrix(0.687117,0,0,0.864864,-12.7086,-17.85134)"/></g></svg>