<svg xmlns="http://www.w3.org/2000/svg" xmlns:cc="http://web.resource.org/cc/" xmlns:svg="http://www.w3.org/2000/svg" xmlns:xlink="http://www.w3.org/1999/xlink" id="svg2928" width="22" height="22"><defs id="defs2930"><linearGradient id="linearGradient16370"><stop style="stop-color:#50534b;stop-opacity:.46391752" id="stop16372" offset="0"/><stop style="stop-color:#50534b;stop-opacity:0" id="stop16374" offset="1"/></linearGradient><radialGradient id="radialGradient16376" cx="27.125" cy="45.625" r="22.5" fx="27.125" fy="45.625" gradientTransform="matrix(1.000000,0.000000,0.000000,0.200000,7.099627e-16,36.50000)" gradientUnits="userSpaceOnUse" xlink:href="#linearGradient16370"/><linearGradient id="linearGradient5737"><stop style="stop-color:#c0d5f0;stop-opacity:1" id="stop5739" offset="0"/><stop style="stop-color:#77a4df;stop-opacity:1" id="stop5741" offset="1"/></linearGradient><linearGradient id="linearGradient5003"><stop style="stop-color:#d5d5d5;stop-opacity:1" id="stop5005" offset="0"/><stop style="stop-color:#878787;stop-opacity:1" id="stop5007" offset="1"/></linearGradient><linearGradient id="linearGradient10456"><stop style="stop-color:#8cbeff;stop-opacity:1" id="stop10458" offset="0"/><stop style="stop-color:#6489b8;stop-opacity:1" id="stop10460" offset="1"/></linearGradient><radialGradient id="radialGradient11228" cx="14.546" cy="33.181" r="4.427" fx="11.331" fy="32.097" gradientTransform="matrix(0.790569,0.000000,0.000000,1.264911,-14.50000,-14.07143)" gradientUnits="userSpaceOnUse" xlink:href="#linearGradient10456"/><linearGradient id="linearGradient4394"><stop style="stop-color:#818181;stop-opacity:1" id="stop5137" offset="0"/><stop id="stop5139" offset=".5" style="stop-color:#fff;stop-opacity:1"/><stop style="stop-color:#bebebe;stop-opacity:1" id="stop4398" offset="1"/></linearGradient><linearGradient id="linearGradient4275" x1="83.844" x2="119" y1="27.094" y2="27.094" gradientTransform="matrix(0.866025,-0.500000,0.500000,0.866025,-20.60402,84.55905)" gradientUnits="userSpaceOnUse" xlink:href="#linearGradient4394"/><radialGradient id="radialGradient5009" cx="24.66" cy="21.218" r="4.301" fx="24.66" fy="21.218" gradientUnits="userSpaceOnUse" xlink:href="#linearGradient5003"/><linearGradient id="linearGradient5743" x1="2" x2="8.918" y1="27.182" y2="27.182" gradientTransform="translate(57.62920,27.93072)" gradientUnits="userSpaceOnUse" xlink:href="#linearGradient5737"/><linearGradient id="linearGradient1344" x1="2" x2="8.918" y1="27.182" y2="27.182" gradientTransform="matrix(0.438799,0.000000,0.000000,0.438799,0.565693,-0.279792)" gradientUnits="userSpaceOnUse" xlink:href="#linearGradient5737"/><linearGradient id="linearGradient1346" x1="83.844" x2="119" y1="27.094" y2="27.094" gradientTransform="matrix(0.373813,-0.222635,0.215821,0.385616,-33.16474,24.90046)" gradientUnits="userSpaceOnUse" xlink:href="#linearGradient4394"/><radialGradient id="radialGradient1348" cx="24.66" cy="21.218" r="4.301" fx="24.66" fy="21.218" gradientUnits="userSpaceOnUse" xlink:href="#linearGradient5003"/></defs><metadata id="metadata2933"/><g id="layer1"><path style="opacity:1;fill:url(#radialGradient16376);fill-opacity:1;fill-rule:evenodd;stroke:none;stroke-width:1;stroke-linecap:round;stroke-linejoin:round;stroke-miterlimit:4;stroke-dasharray:none;stroke-dashoffset:0;stroke-opacity:1" id="path15634" d="M 49.625000 45.625000 A 22.500000 4.5000000 0 1 1 4.6250000,45.625000 A 22.500000 4.5000000 0 1 1 49.625000 45.625000 z" transform="matrix(0.488889,0.000000,0.000000,0.555555,-2.261111,-5.847192)"/><path style="fill:url(#linearGradient1344);fill-opacity:1;fill-rule:evenodd;stroke:#586a9a;stroke-width:1.0000004;stroke-linecap:butt;stroke-linejoin:miter;stroke-miterlimit:4;stroke-dasharray:none;stroke-opacity:1" id="path1334" d="M 7.6966835,7.4844713 C 7.6966835,7.4844713 2.4520657,7.5396173 2.4520657,7.5396173 C 1.1185084,7.4675988 0.53591579,8.0221779 0.51380729,8.875623 L 0.51380729,15.166273 C 0.35912768,16.924005 2.6411901,16.998345 2.5175425,15.183492 L 2.5369348,9.6090528 L 7.6966835,7.4844713 z"/><path style="fill:url(#linearGradient1346);fill-opacity:1;fill-rule:evenodd;stroke:#555753;stroke-width:1;stroke-linecap:butt;stroke-linejoin:miter;stroke-miterlimit:4;stroke-dasharray:none;stroke-opacity:1" id="path1336" d="M 2.8794048,9.4360099 L 4.1118753,10.38119 L 9.317844,19.68288 C 9.7716442,20.419493 10.501225,20.702644 11.204533,20.326613 L 19.778876,15.219914 C 20.431083,14.761849 20.733544,13.901525 20.317039,13.148058 L 14.402183,2.579777 L 2.8794048,9.4360099 z"/><path style="opacity:1;fill:url(#radialGradient1348);fill-opacity:1;fill-rule:evenodd;stroke:#555753;stroke-width:2.0692811;stroke-linecap:round;stroke-linejoin:miter;stroke-miterlimit:4;stroke-dasharray:none;stroke-dashoffset:0;stroke-opacity:1" id="path1338" d="M 28.461048 21.218330 A 3.8006990 3.8006990 0 1 1 20.859650,21.218330 A 3.8006990 3.8006990 0 1 1 28.461048 21.218330 z" transform="matrix(0.440329,-0.251438,0.253871,0.434898,-4.734555,7.454736)"/><path style="fill:none;fill-opacity:1;fill-rule:evenodd;stroke:#fff;stroke-width:.93590623;stroke-linecap:butt;stroke-linejoin:miter;stroke-miterlimit:4;stroke-dasharray:none;stroke-opacity:1" id="path1340" d="M 4.5660192,9.6274785 L 5.0642225,10.077347 L 9.68299,18.640642 C 10.203348,19.569435 10.594425,19.757156 11.451679,19.247114 L 18.737825,14.87548 C 19.591056,14.367831 19.769873,13.880837 19.239132,12.933504 L 14.117721,3.8676268 L 4.5660192,9.6274785 z"/><path style="fill:none;fill-opacity:.75;fill-rule:evenodd;stroke:#555753;stroke-width:1.0000004;stroke-linecap:round;stroke-linejoin:miter;stroke-miterlimit:4;stroke-dasharray:none;stroke-opacity:1" id="path1342" d="M 11.537072,8.5980236 L 11.537072,2.8537641 C 11.537072,-0.33059987 17.579519,-0.23248461 17.579519,2.9863466 L 17.579519,7.8446529"/><path style="opacity:1;color:#000;fill:#fff;fill-opacity:1;fill-rule:nonzero;stroke:none;stroke-width:.2;stroke-linecap:round;stroke-linejoin:miter;marker:none;marker-start:none;marker-mid:none;marker-end:none;stroke-miterlimit:4;stroke-dasharray:none;stroke-dashoffset:0;stroke-opacity:1;visibility:visible;display:inline;overflow:visible" id="path1333" d="M 2.34375 7.65625 A 0.75 0.75 0 1 1 0.84375,7.65625 A 0.75 0.75 0 1 1 2.34375 7.65625 z" transform="translate(0.125,1.09375)"/></g></svg>