<svg xmlns="http://www.w3.org/2000/svg" xmlns:svg="http://www.w3.org/2000/svg" xmlns:xlink="http://www.w3.org/1999/xlink" id="svg1" width="22" height="22" x="0" y="0" version="1.0"><metadata id="metadata162"/><defs id="defs3"><linearGradient id="linearGradient2983"><stop id="stop2985" offset="0" style="stop-color:#888a85;stop-opacity:1"/><stop id="stop2987" offset="1" style="stop-color:#d3d7cf;stop-opacity:1"/></linearGradient><linearGradient id="linearGradient2977"><stop id="stop2979" offset="0" style="stop-color:#babdb6;stop-opacity:1"/><stop id="stop2981" offset="1" style="stop-color:#888a85;stop-opacity:1"/></linearGradient><linearGradient id="linearGradient2862"><stop style="stop-color:#3465a4;stop-opacity:1" id="stop2864" offset="0"/><stop style="stop-color:#204a87;stop-opacity:1" id="stop2866" offset="1"/></linearGradient><linearGradient id="linearGradient2846"><stop style="stop-color:#3465a4;stop-opacity:1" id="stop2848" offset="0"/><stop style="stop-color:#729fcf;stop-opacity:1" id="stop2850" offset="1"/></linearGradient><linearGradient id="linearGradient4734"><stop style="stop-color:#cccdbc;stop-opacity:1" id="stop4736" offset="0"/><stop style="stop-color:#b9baa4;stop-opacity:1" id="stop4738" offset="1"/></linearGradient><linearGradient id="linearGradient2339"><stop style="stop-color:#fff;stop-opacity:1" id="stop2341" offset="0"/><stop style="stop-color:#fff;stop-opacity:0" id="stop2343" offset="1"/></linearGradient><linearGradient id="linearGradient2345" x1="25.851" x2="24.996" y1="37.625" y2="25.25" gradientUnits="userSpaceOnUse" xlink:href="#linearGradient2339"/><linearGradient id="linearGradient356"><stop style="stop-color:#fffff3;stop-opacity:1" id="stop357" offset="0"/><stop style="stop-color:#fffff3;stop-opacity:0" id="stop358" offset="1"/></linearGradient><linearGradient id="linearGradient311"><stop style="stop-color:#cfcfc4;stop-opacity:1" id="stop312" offset="0"/><stop style="stop-color:#cfcfc4;stop-opacity:1" id="stop335" offset=".327"/><stop style="stop-color:#cfcfc4;stop-opacity:0" id="stop313" offset="1"/></linearGradient><linearGradient id="linearGradient235"><stop style="stop-color:#59594a;stop-opacity:1" id="stop236" offset="0"/><stop style="stop-color:#a2a491;stop-opacity:1" id="stop237" offset="1"/></linearGradient><linearGradient id="linearGradient253" x1="24.983" x2="24.983" y1="22.828" y2="8.374" gradientTransform="scale(1.068312,0.936056)" gradientUnits="userSpaceOnUse" xlink:href="#linearGradient235"/><linearGradient id="linearGradient320" x1="32.828" x2="60.071" y1="7.921" y2="7.868" gradientTransform="scale(0.750458,1.33252)" gradientUnits="userSpaceOnUse" xlink:href="#linearGradient311"/><linearGradient id="linearGradient355" x1="23.643" x2="28.443" y1="12.818" y2="25.232" gradientTransform="scale(0.806859,1.239374)" gradientUnits="userSpaceOnUse" xlink:href="#linearGradient356"/><linearGradient id="linearGradient4740" x1="24.588" x2="24.588" y1="1.899" y2="40.859" gradientUnits="userSpaceOnUse" xlink:href="#linearGradient4734"/><linearGradient id="linearGradient2973" x1="27.375" x2="27.375" y1="15.326" y2="41.876" gradientTransform="translate(5,-5)" gradientUnits="userSpaceOnUse" xlink:href="#linearGradient2983"/><linearGradient id="linearGradient2975" x1="31.116" x2="31.116" y1="26.601" y2="29.698" gradientUnits="userSpaceOnUse" xlink:href="#linearGradient2977"/><linearGradient id="linearGradient2893" x1="27.375" x2="27.375" y1="15.326" y2="41.876" gradientTransform="translate(5,-5)" gradientUnits="userSpaceOnUse" xlink:href="#linearGradient2983"/><linearGradient id="linearGradient2895" x1="31.116" x2="31.116" y1="26.601" y2="29.698" gradientUnits="userSpaceOnUse" xlink:href="#linearGradient2977"/><linearGradient id="linearGradient2898" x1="27.375" x2="27.375" y1="15.326" y2="41.876" gradientTransform="translate(1,2)" gradientUnits="userSpaceOnUse" xlink:href="#linearGradient2846"/><linearGradient id="linearGradient2900" x1="31.116" x2="31.116" y1="27.866" y2="30.773" gradientUnits="userSpaceOnUse" xlink:href="#linearGradient2862"/></defs><g id="layer2" style="display:inline"><g id="g2957" transform="matrix(0.787868,0,0,0.787868,-15.377149,-15.481219)"><path id="path2945" d="M 33.5,20.5 C 31.089488,20.5 29.151764,20.7943 27.5,21.25 L 27.5,40.5 L 45.5,40.5 L 45.5,21.25 C 43.849829,20.797528 41.923733,20.5 39.5,20.5 L 33.5,20.5 z" style="color:#000;fill:url(#linearGradient2973);fill-opacity:1;fill-rule:evenodd;stroke:#888a85;stroke-width:1.26924837;stroke-linecap:round;stroke-linejoin:round;marker:none;marker-start:none;marker-mid:none;marker-end:none;stroke-miterlimit:4;stroke-dasharray:none;stroke-dashoffset:0;stroke-opacity:1;visibility:visible;display:inline;overflow:visible"/><path id="path2947" d="M 42.5,22.500005 C 42.5,24.156006 39.811998,25.500006 36.499995,25.500006 C 33.187993,25.500006 30.49999,24.156006 30.49999,22.500005 C 30.49999,20.844005 31.093881,20.437505 36.499995,20.437505 C 41.999586,20.437505 42.5,20.844005 42.5,22.500005 z" style="color:#000;fill:#d3d7cf;fill-opacity:1;fill-rule:evenodd;stroke:#888a85;stroke-width:1.26924837;stroke-linecap:round;stroke-linejoin:miter;marker:none;marker-start:none;marker-mid:none;marker-end:none;stroke-miterlimit:4;stroke-dashoffset:0;stroke-opacity:1;visibility:visible;display:inline;overflow:visible"/><path id="path2949" d="M 24.5,28.46875 C 22.459316,28.46875 20.904224,28.749808 19.46875,29.09375 L 19.46875,46.53125 L 35.53125,46.53125 L 35.53125,29.09375 C 34.097014,28.750791 32.551878,28.46875 30.5,28.46875 L 24.5,28.46875 z" transform="matrix(0.976796,0,0,0.976796,9.6381103,-6.1298495)" style="opacity:.50196078;color:#000;fill:none;fill-opacity:1;fill-rule:evenodd;stroke:#fff;stroke-width:1.2993995;stroke-linecap:round;stroke-linejoin:miter;marker:none;marker-start:none;marker-mid:none;marker-end:none;stroke-miterlimit:4;stroke-dasharray:none;stroke-dashoffset:0;stroke-opacity:1;visibility:visible;display:inline;overflow:visible"/><path id="path2951" d="M 36.6875,28.15625 A 5.09375,1.15625 0 1 1 26.5,28.15625 A 5.09375,1.15625 0 1 1 36.6875,28.15625 z" transform="matrix(0.785278,0,0,1.297293,11.69013,-14.52691)" style="color:#000;fill:url(#linearGradient2975);fill-opacity:1;fill-rule:evenodd;stroke:#888a85;stroke-width:1.2575227;stroke-linecap:round;stroke-linejoin:miter;marker:none;marker-start:none;marker-mid:none;marker-end:none;stroke-miterlimit:4;stroke-dasharray:none;stroke-dashoffset:0;stroke-opacity:1;visibility:visible;display:inline;overflow:visible"/></g><g id="g2868" transform="matrix(0.7684413,0,0,0.7684413,-16.454098,-15.076832)"><path id="rect1927" d="M 29.5,27.5 C 27.089488,27.5 25.151764,27.7943 23.5,28.25 L 23.5,47.5 L 41.5,47.5 L 41.5,28.25 C 39.849829,27.797528 37.923733,27.5 35.5,27.5 L 29.5,27.5 z" style="color:#000;fill:url(#linearGradient2898);fill-opacity:1;fill-rule:evenodd;stroke:#204a87;stroke-width:1.30133593;stroke-linecap:round;stroke-linejoin:round;marker:none;marker-start:none;marker-mid:none;marker-end:none;stroke-miterlimit:4;stroke-dasharray:none;stroke-dashoffset:0;stroke-opacity:1;visibility:visible;display:inline;overflow:visible"/><path id="path2829" d="M 38.5,29.500005 C 38.5,31.156006 35.811998,32.500006 32.499995,32.500006 C 29.187993,32.500006 26.49999,31.156006 26.49999,29.500005 C 26.49999,27.844005 27.093881,27.437505 32.499995,27.437505 C 37.999586,27.437505 38.5,27.844005 38.5,29.500005 z" style="color:#000;fill:#729fcf;fill-opacity:1;fill-rule:evenodd;stroke:#204a87;stroke-width:1.30133593;stroke-linecap:round;stroke-linejoin:miter;marker:none;marker-start:none;marker-mid:none;marker-end:none;stroke-miterlimit:4;stroke-dashoffset:0;stroke-opacity:1;visibility:visible;display:inline;overflow:visible"/><g style="opacity:.3" id="g2852"><path style="fill:none;fill-opacity:.75;fill-rule:evenodd;stroke:#204a87;stroke-width:1.30133569px;stroke-linecap:round;stroke-linejoin:miter;stroke-opacity:1" id="path2836" d="M 26.07511,28.5 L 26.07511,46.5"/><path style="fill:none;fill-opacity:.75;fill-rule:evenodd;stroke:#204a87;stroke-width:1.30133569px;stroke-linecap:round;stroke-linejoin:miter;stroke-opacity:1;display:inline" id="path2840" d="M 28.535206,32 L 28.535206,46.5"/><path style="fill:none;fill-opacity:.75;fill-rule:evenodd;stroke:#204a87;stroke-width:1.30133569px;stroke-linecap:round;stroke-linejoin:miter;stroke-opacity:1;display:inline" id="path2842" d="M 31.167832,33 L 31.167832,46.5"/><path style="fill:none;fill-opacity:.75;fill-rule:evenodd;stroke:#204a87;stroke-width:1.30133569px;stroke-linecap:round;stroke-linejoin:miter;stroke-opacity:1;display:inline" id="path2844" d="M 33.742947,33.5 L 33.742947,46.5"/><path id="path4749" d="M 36.388474,32.786368 L 36.388474,46.465986" style="fill:none;fill-opacity:.75;fill-rule:evenodd;stroke:#204a87;stroke-width:1.30133569px;stroke-linecap:round;stroke-linejoin:miter;stroke-opacity:1;display:inline"/><path style="fill:none;fill-opacity:.75;fill-rule:evenodd;stroke:#204a87;stroke-width:1.30133569px;stroke-linecap:round;stroke-linejoin:miter;stroke-opacity:1;display:inline" id="path4751" d="M 38.976489,30.695853 L 38.976489,46.371066"/></g><path id="path2941" d="M 24.5,28.46875 C 22.459316,28.46875 20.904224,28.749808 19.46875,29.09375 L 19.46875,46.53125 L 35.53125,46.53125 L 35.53125,29.09375 C 34.097014,28.750791 32.551878,28.46875 30.5,28.46875 L 24.5,28.46875 z" transform="matrix(0.9643884,0,0,0.9643884,5.9793176,1.3354331)" style="opacity:.35;color:#000;fill:none;fill-opacity:1;fill-rule:evenodd;stroke:#fff;stroke-width:1.34938943;stroke-linecap:round;stroke-linejoin:miter;marker:none;marker-start:none;marker-mid:none;marker-end:none;stroke-miterlimit:4;stroke-dasharray:none;stroke-dashoffset:0;stroke-opacity:1;visibility:visible;display:inline;overflow:visible"/><path id="path2823" d="M 36.6875,28.15625 A 5.09375,1.15625 0 1 1 26.5,28.15625 A 5.09375,1.15625 0 1 1 36.6875,28.15625 z" transform="matrix(0.785278,0,0,1.297293,7.690127,-7.526911)" style="color:#000;fill:url(#linearGradient2900);fill-opacity:1;fill-rule:evenodd;stroke:#204a87;stroke-width:1.28931379;stroke-linecap:round;stroke-linejoin:miter;marker:none;marker-start:none;marker-mid:none;marker-end:none;stroke-miterlimit:4;stroke-dasharray:none;stroke-dashoffset:0;stroke-opacity:1;visibility:visible;display:inline;overflow:visible"/></g></g></svg>