<svg xmlns="http://www.w3.org/2000/svg" xmlns:cc="http://web.resource.org/cc/" xmlns:svg="http://www.w3.org/2000/svg" xmlns:xlink="http://www.w3.org/1999/xlink" id="svg11300" width="22" height="22" version="1.0"><defs id="defs3"><linearGradient id="linearGradient5060"><stop style="stop-color:black;stop-opacity:1" id="stop5062" offset="0"/><stop style="stop-color:black;stop-opacity:0" id="stop5064" offset="1"/></linearGradient><linearGradient id="linearGradient5048"><stop style="stop-color:black;stop-opacity:0" id="stop5050" offset="0"/><stop id="stop5056" offset=".5" style="stop-color:black;stop-opacity:1"/><stop style="stop-color:black;stop-opacity:0" id="stop5052" offset="1"/></linearGradient><linearGradient id="linearGradient3832"><stop style="stop-color:#fff;stop-opacity:1" id="stop3834" offset="0"/><stop style="stop-color:#e0e0e0;stop-opacity:1" id="stop3836" offset="1"/></linearGradient><linearGradient id="linearGradient2065"><stop id="stop2067" offset="0" style="stop-color:#555753"/><stop id="stop2069" offset="1" style="stop-color:#fcaf3e"/></linearGradient><linearGradient id="linearGradient4928"><stop style="stop-color:#fce94f;stop-opacity:1" id="stop4930" offset="0"/><stop style="stop-color:#fce94f;stop-opacity:0" id="stop4932" offset="1"/></linearGradient><linearGradient id="linearGradient4616"><stop id="stop4618" offset="0" style="stop-color:#2e3436;stop-opacity:1"/><stop id="stop4620" offset="1" style="stop-color:#2e3436;stop-opacity:0"/></linearGradient><linearGradient id="linearGradient7384" x1="-11.986" x2="-11.986" y1="13.123" y2="29.727" gradientTransform="matrix(0.748925,0,0,0.748925,83.42059,16.65945)" gradientUnits="userSpaceOnUse" xlink:href="#linearGradient2065"/><radialGradient id="radialGradient7386" cx="-6.007" cy="32.837" r="9.906" fx="-6.007" fy="32.837" gradientTransform="matrix(0.748925,-1.113789e-8,1.067619e-8,0.717879,73.47172,17.83974)" gradientUnits="userSpaceOnUse" xlink:href="#linearGradient4928"/><linearGradient id="linearGradient7388" x1="25.355" x2="25.355" y1="34.007" y2="32.409" gradientTransform="matrix(0.748925,0,0,0.748925,56.45929,16.65945)" gradientUnits="userSpaceOnUse" xlink:href="#linearGradient4616"/><linearGradient id="linearGradient7404" x1="302.857" x2="302.857" y1="366.648" y2="609.505" gradientTransform="matrix(2.774389,0,0,1.969706,-1892.179,-872.8854)" gradientUnits="userSpaceOnUse" xlink:href="#linearGradient5048"/><radialGradient id="radialGradient7406" cx="605.714" cy="486.648" r="117.143" fx="605.714" fy="486.648" gradientTransform="matrix(2.774389,0,0,1.969706,-1891.633,-872.8854)" gradientUnits="userSpaceOnUse" xlink:href="#linearGradient5060"/><radialGradient id="radialGradient7408" cx="605.714" cy="486.648" r="117.143" fx="605.714" fy="486.648" gradientTransform="matrix(-2.774389,0,0,1.969706,112.7623,-872.8854)" gradientUnits="userSpaceOnUse" xlink:href="#linearGradient5060"/><linearGradient id="linearGradient7410" x1="17.881" x2="17.881" y1="11.073" y2="21.768" gradientTransform="translate(0,-0.441941)" gradientUnits="userSpaceOnUse" xlink:href="#linearGradient3832"/><linearGradient id="linearGradient2090" x1="17.881" x2="17.881" y1="11.073" y2="21.768" gradientTransform="matrix(1.181102,0,0,1.133216,-4.996059,-7.55659)" gradientUnits="userSpaceOnUse" xlink:href="#linearGradient3832"/></defs><metadata id="metadata4"/><g id="layer1"><g id="g7390" transform="matrix(1.136884e-2,0,0,1.091343e-2,21.13984,17.64462)" style="display:inline"><rect style="opacity:.40206185;color:#000;fill:url(#linearGradient7404);fill-opacity:1;fill-rule:nonzero;stroke:none;stroke-width:1;stroke-linecap:round;stroke-linejoin:miter;marker:none;marker-start:none;marker-mid:none;marker-end:none;stroke-miterlimit:4;stroke-dasharray:none;stroke-dashoffset:0;stroke-opacity:1;visibility:visible;display:inline;overflow:visible" id="rect7392" width="1339.633" height="478.357" x="-1559.252" y="-150.697"/><path style="opacity:.40206185;color:#000;fill:url(#radialGradient7406);fill-opacity:1;fill-rule:nonzero;stroke:none;stroke-width:1;stroke-linecap:round;stroke-linejoin:miter;marker:none;marker-start:none;marker-mid:none;marker-end:none;stroke-miterlimit:4;stroke-dasharray:none;stroke-dashoffset:0;stroke-opacity:1;visibility:visible;display:inline;overflow:visible" id="path7394" d="M -219.61876,-150.68038 C -219.61876,-150.68038 -219.61876,327.65041 -219.61876,327.65041 C -76.744594,328.55086 125.78146,220.48075 125.78138,88.454235 C 125.78138,-43.572302 -33.655436,-150.68036 -219.61876,-150.68038 z"/><path id="path7396" d="M -1559.2523,-150.68038 C -1559.2523,-150.68038 -1559.2523,327.65041 -1559.2523,327.65041 C -1702.1265,328.55086 -1904.6525,220.48075 -1904.6525,88.454235 C -1904.6525,-43.572302 -1745.2157,-150.68036 -1559.2523,-150.68038 z" style="opacity:.40206185;color:#000;fill:url(#radialGradient7408);fill-opacity:1;fill-rule:nonzero;stroke:none;stroke-width:1;stroke-linecap:round;stroke-linejoin:miter;marker:none;marker-start:none;marker-mid:none;marker-end:none;stroke-miterlimit:4;stroke-dasharray:none;stroke-dashoffset:0;stroke-opacity:1;visibility:visible;display:inline;overflow:visible"/></g><rect style="color:#000;fill:url(#linearGradient2090);fill-opacity:1;fill-rule:evenodd;stroke:#888a85;stroke-width:.99999982;stroke-linecap:butt;stroke-linejoin:miter;marker:none;marker-start:none;marker-mid:none;marker-end:none;stroke-miterlimit:4;stroke-dasharray:none;stroke-dashoffset:0;stroke-opacity:1;visibility:visible;display:inline;overflow:visible" id="rect7400" width="19" height="18" x="1.5" y="1.5" rx=".779" ry=".765"/><rect style="color:#000;fill:#204a87;fill-opacity:1;fill-rule:evenodd;stroke:none;stroke-width:1;stroke-linecap:butt;stroke-linejoin:miter;marker:none;marker-start:none;marker-mid:none;marker-end:none;stroke-miterlimit:4;stroke-dasharray:none;stroke-dashoffset:0;stroke-opacity:1;visibility:visible;display:inline;overflow:visible" id="rect7402" width="16" height="1" x="3" y="3" rx=".148" ry=".111"/><g id="g7376" transform="matrix(0.574251,0,0,0.671647,-31.74209,-11.4962)"><rect id="rect2063" width="26.233" height="17.974" x="61.327" y="25.272" rx=".496" ry=".415" style="fill:url(#linearGradient7384);fill-opacity:1;stroke:#babdb6;stroke-width:1.61019588;stroke-linecap:round;stroke-linejoin:round;stroke-miterlimit:4;stroke-dasharray:none;stroke-dashoffset:0;stroke-opacity:1"/><path id="path4898" d="M 68.504842,33.54904 C 64.633814,33.794653 61.553881,37.035426 61.553881,40.968078 C 61.553881,41.119949 61.568268,41.263136 61.577285,41.412752 L 76.368554,41.412752 C 76.377572,41.263136 76.391958,41.119949 76.391958,40.968078 C 76.391958,36.875561 73.065436,33.54904 68.97292,33.54904 C 68.813056,33.54904 68.662201,33.539056 68.504842,33.54904 z" style="color:#000;fill:url(#radialGradient7386);fill-opacity:1;fill-rule:evenodd;stroke:none;stroke-width:1;stroke-linecap:round;stroke-linejoin:round;marker:none;marker-start:none;marker-mid:none;marker-end:none;stroke-miterlimit:4;stroke-dasharray:none;stroke-dashoffset:0;stroke-opacity:1;visibility:visible;display:inline;overflow:visible"/><rect id="rect1324" width="25.463" height="1.498" x="61.702" y="41.374" rx="0" ry="0" style="fill:url(#linearGradient7388);fill-opacity:1;stroke:none;stroke-width:1;stroke-linecap:round;stroke-linejoin:round;stroke-miterlimit:4;stroke-dasharray:none;stroke-dashoffset:0;stroke-opacity:1"/><path id="path2079" d="M 78.594206,42.102134 C 78.594206,42.102134 78.178115,39.792932 78.178115,38.378275 C 78.189655,37.732927 84.009775,32.705461 84.02479,31.9566 L 82.671665,33.1358 L 81.724151,30.558044 L 84.91844,30.889025 L 86.41629,29.391175 L 84.719851,30.636572 L 84.136417,30.504179 L 83.42059,27.893325 L 83.784669,30.437983 L 81.140717,30.305591 L 81.96817,32.411539 L 79.675965,30.1401 L 82.100563,33.30166 C 82.100626,34.006794 77.321766,38.311371 77.329895,37.569134 L 75.347906,34.910766 L 75.182415,31.316982 L 76.680265,30.889025 L 77.992498,27.653204 L 76.262691,30.643897 L 74.912253,30.582707 L 71.889301,28.029615 L 67.738595,26.440905 L 71.284631,28.389797 L 68.44209,28.64225 L 72.186715,28.64225 L 74.43349,30.889025 L 74.698275,34.76994 L 70.688865,30.889025 L 72.374921,32.916445 L 69.93994,34.63365 L 72.614672,33.1358 L 76.845756,38.465238 L 76.680265,42.102134 L 78.594206,42.102134 z" style="fill:#000;fill-opacity:1;fill-rule:evenodd;stroke:none;stroke-width:1px;stroke-linecap:butt;stroke-linejoin:miter;stroke-opacity:1"/><path style="color:#000;fill:#fef39e;fill-opacity:1;fill-rule:evenodd;stroke:none;stroke-width:1;stroke-linecap:round;stroke-linejoin:round;marker:none;marker-start:none;marker-mid:none;marker-end:none;stroke-miterlimit:4;stroke-dasharray:none;stroke-dashoffset:0;stroke-opacity:1;visibility:visible;display:inline;overflow:visible" id="path4924" d="M 68.717495,38.055881 C 66.605123,38.158661 64.924442,39.514806 64.924442,41.160476 C 64.924442,41.224029 64.932292,41.283947 64.937212,41.346556 L 73.008626,41.346556 C 73.013548,41.283947 73.021398,41.224029 73.021398,41.160476 C 73.021398,39.447909 71.206156,38.055881 68.97292,38.055881 C 68.885684,38.055881 68.803364,38.051703 68.717495,38.055881 z"/><path id="path4926" d="M 68.778119,38.614411 C 67.167116,38.698306 65.885342,39.805247 65.885342,41.148511 C 65.885342,41.200384 65.891329,41.249292 65.895081,41.300396 L 72.050757,41.300396 C 72.05451,41.249292 72.060498,41.200384 72.060498,41.148511 C 72.060498,39.750642 70.676101,38.614411 68.97292,38.614411 C 68.906389,38.614411 68.843608,38.611002 68.778119,38.614411 z" style="color:#000;fill:#fffbd7;fill-opacity:.55681817;fill-rule:evenodd;stroke:none;stroke-width:1;stroke-linecap:round;stroke-linejoin:round;marker:none;marker-start:none;marker-mid:none;marker-end:none;stroke-miterlimit:4;stroke-dasharray:none;stroke-dashoffset:0;stroke-opacity:1;visibility:visible;display:inline;overflow:visible"/></g></g></svg>