<svg xmlns="http://www.w3.org/2000/svg" xmlns:cc="http://web.resource.org/cc/" xmlns:svg="http://www.w3.org/2000/svg" xmlns:xlink="http://www.w3.org/1999/xlink" id="svg3081" width="22" height="22" version="1.0"><defs id="defs3083"><linearGradient id="linearGradient2225"><stop style="stop-color:#435d83;stop-opacity:1" id="stop2227" offset="0"/><stop style="stop-color:#395071;stop-opacity:1" id="stop2229" offset="1"/></linearGradient><linearGradient id="linearGradient2275"><stop style="stop-color:#cacaca;stop-opacity:1" id="stop2277" offset="0"/><stop style="stop-color:#555753;stop-opacity:1" id="stop2279" offset="1"/></linearGradient><linearGradient id="linearGradient2244"><stop style="stop-color:#729fcf;stop-opacity:1" id="stop2246" offset="0"/><stop style="stop-color:#cdddee;stop-opacity:1" id="stop2248" offset="1"/></linearGradient><linearGradient id="linearGradient3204"><stop style="stop-color:#000;stop-opacity:1" id="stop3206" offset="0"/><stop style="stop-color:#000;stop-opacity:0" id="stop3208" offset="1"/></linearGradient><linearGradient id="linearGradient3116"><stop style="stop-color:#fff;stop-opacity:.79607844" id="stop3118" offset="0"/><stop style="stop-color:#fff;stop-opacity:.21568628" id="stop3120" offset="1"/></linearGradient><linearGradient id="linearGradient3200" x1="33.057" x2=".744" y1="20.64" y2="-24.036" gradientUnits="userSpaceOnUse" xlink:href="#linearGradient3116"/><radialGradient id="radialGradient3210" cx="11" cy="22" r="8" fx="11" fy="22" gradientTransform="matrix(1,0,0,0.25,4.163357e-17,16.5)" gradientUnits="userSpaceOnUse" xlink:href="#linearGradient3204"/><linearGradient id="linearGradient2271" x1="6.626" x2="5.111" y1="14" y2="10.919" gradientUnits="userSpaceOnUse" xlink:href="#linearGradient2244"/><linearGradient id="linearGradient2281" x1="10.414" x2="12.212" y1="12.995" y2="14.611" gradientUnits="userSpaceOnUse" xlink:href="#linearGradient2275"/><linearGradient id="linearGradient2289" x1="11.273" x2="8.677" y1="2" y2="-1.364" gradientUnits="userSpaceOnUse" xlink:href="#linearGradient2244"/><linearGradient id="linearGradient1350" x1="6.626" x2="5.111" y1="14" y2="10.919" gradientTransform="matrix(-1,0,0,1,22,5.960464e-8)" gradientUnits="userSpaceOnUse" xlink:href="#linearGradient2244"/><linearGradient id="linearGradient2231" x1="16.5" x2="15.306" y1="17.179" y2="10.411" gradientUnits="userSpaceOnUse" xlink:href="#linearGradient2225"/><linearGradient id="linearGradient2239" x1="5.97" x2="6.863" y1="17.482" y2="10.563" gradientUnits="userSpaceOnUse" xlink:href="#linearGradient2225"/></defs><metadata id="metadata3086"/><g id="layer1"><path style="opacity:.2;color:#000;fill:url(#radialGradient3210);fill-opacity:1;fill-rule:nonzero;stroke:none;stroke-width:1;stroke-linecap:round;stroke-linejoin:miter;marker:none;marker-start:none;marker-mid:none;marker-end:none;stroke-miterlimit:4;stroke-dasharray:none;stroke-dashoffset:17.85;stroke-opacity:1;visibility:visible;display:block;overflow:visible" id="path3202" d="M 19 22 A 8 2 0 1 1 3,22 A 8 2 0 1 1 19 22 z" transform="matrix(1.375,0,0,1.5,-4.125,-13)"/><rect style="opacity:1;color:#000;fill:#555753;fill-opacity:1;fill-rule:nonzero;stroke:none;stroke-width:.99999928;stroke-linecap:round;stroke-linejoin:miter;marker:none;marker-start:none;marker-mid:none;marker-end:none;stroke-miterlimit:4;stroke-dasharray:none;stroke-dashoffset:17.85;stroke-opacity:1;visibility:visible;display:block;overflow:visible" id="rect3094" width="18" height="1" x="2" y="13" rx=".623" ry=".5"/><path style="color:#000;fill:url(#linearGradient1350);fill-opacity:1;fill-rule:nonzero;stroke:url(#linearGradient2231);stroke-width:.99999994;stroke-linecap:round;stroke-linejoin:miter;marker:none;marker-start:none;marker-mid:none;marker-end:none;stroke-miterlimit:4;stroke-dashoffset:17.85;stroke-opacity:1;visibility:visible;display:block;overflow:visible" id="path1348" d="M 16.5,9.5 L 13,7.5 L 12,8.5 L 14,11 L 15,17 L 16.5,19 L 16.5,21 L 16.5,19 L 17.5,15.5 L 16.5,9.5 z"/><path style="color:#000;fill:url(#linearGradient2271);fill-opacity:1;fill-rule:nonzero;stroke:url(#linearGradient2239);stroke-width:.99999994;stroke-linecap:round;stroke-linejoin:miter;marker:none;marker-start:none;marker-mid:none;marker-end:none;stroke-miterlimit:4;stroke-dashoffset:17.85;stroke-opacity:1;visibility:visible;display:block;overflow:visible" id="path3226" d="M 5.5,9.5 L 9,7.5 L 10,8.5 L 8,11 L 7,17 L 5.5,19 L 5.5,21 L 5.5,19 L 4.5,15.5 L 5.5,9.5 z"/><rect style="opacity:1;color:#000;fill:url(#linearGradient2289);fill-opacity:1;fill-rule:nonzero;stroke:#435d83;stroke-width:1;stroke-linecap:round;stroke-linejoin:miter;marker:none;marker-start:none;marker-mid:none;marker-end:none;stroke-miterlimit:4;stroke-dasharray:none;stroke-dashoffset:17.85;stroke-opacity:1;visibility:visible;display:block;overflow:visible" id="rect3078" width="3" height="3" x="9.5" y=".5" rx=".75" ry=".6"/><path style="opacity:1;color:#000;fill:#555753;fill-opacity:1;fill-rule:nonzero;stroke:#555753;stroke-width:3.18151546;stroke-linecap:round;stroke-linejoin:miter;marker:none;marker-start:none;marker-mid:none;marker-end:none;stroke-miterlimit:4;stroke-dasharray:none;stroke-dashoffset:17.85;stroke-opacity:1;visibility:visible;display:block;overflow:visible" id="path1317" d="M 32.591014 10 A 7.8410139 8.1819277 0 1 1 16.908986,10 A 7.8410139 8.1819277 0 1 1 32.591014 10 z" transform="matrix(0.321337,0,0,0.307448,3.046913,2.930374)"/><path style="opacity:1;color:#000;fill:none;fill-opacity:1;fill-rule:nonzero;stroke:url(#linearGradient3200);stroke-width:6.07203341;stroke-linecap:round;stroke-linejoin:miter;marker:none;marker-start:none;marker-mid:none;marker-end:none;stroke-miterlimit:4;stroke-dasharray:none;stroke-dashoffset:17.85;stroke-opacity:1;visibility:visible;display:block;overflow:visible" id="path3112" d="M 33.791409 10 A 9.0414085 9.636549 0 1 1 15.708591,10 A 9.0414085 9.636549 0 1 1 33.791409 10 z" transform="matrix(0.170383,0,0,0.159187,6.783027,4.39783)"/><path style="opacity:1;color:#000;fill:#d3d7cf;fill-opacity:1;fill-rule:nonzero;stroke:#555753;stroke-width:1.33333337;stroke-linecap:round;stroke-linejoin:miter;marker:none;marker-start:none;marker-mid:none;marker-end:none;stroke-miterlimit:4;stroke-dasharray:none;stroke-dashoffset:17.85;stroke-opacity:1;visibility:visible;display:block;overflow:visible" id="path3413" d="M 45 36 A 2 2 0 1 1 41,36 A 2 2 0 1 1 45 36 z" transform="matrix(0.75,0,0,0.75,-15.25,-10)"/><rect style="opacity:1;color:#000;fill:url(#linearGradient2281);fill-opacity:1;fill-rule:nonzero;stroke:#555753;stroke-width:1;stroke-linecap:round;stroke-linejoin:miter;marker:none;marker-start:none;marker-mid:none;marker-end:none;stroke-miterlimit:4;stroke-dasharray:none;stroke-dashoffset:17.85;stroke-opacity:1;visibility:visible;display:block;overflow:visible" id="rect1344" width="3" height="4" x="9.5" y="11.5" rx="1.056" ry="1.106"/></g></svg>