<svg xmlns="http://www.w3.org/2000/svg" xmlns:svg="http://www.w3.org/2000/svg" id="svg30571" width="24" height="24" version="1.1" viewBox="0 0 24 24"><metadata id="metadata30576"/><g id="layer1" transform="translate(0,-1028.3622)"><g id="g3950" transform="matrix(1.5000679,0,0,1.5000593,-8.3563217e-4,-526.24351)"><path style="color:#bebebe;display:inline;overflow:visible;visibility:visible;fill:#bebebe;fill-opacity:1;fill-rule:nonzero;stroke:none;stroke-width:2.75991654;marker:none;enable-background:new" id="path18112" d="M 11.902344,0.00390625 C 11.109475,-0.04259375 10.336789,0.45865007 9.734375,1.5625 L 0.3046875,20.226562 C -0.50020645,21.777412 0.37758976,24 1.9550781,24 H 21.804688 c 1.481207,0 2.870447,-1.866938 1.83789,-3.773438 L 14.119141,1.6640625 C 13.517556,0.62381257 12.695213,0.04980625 11.902344,0.00390625 Z M 12,6 c 1.380171,0.0225 1.484542,0.8790532 1.552734,2.0019531 V 14.339844 C 13.563294,15.190344 12.797199,16 12,16 11.202816,16 10.523886,15.190344 10.535156,14.339844 V 8.0019531 C 10.554331,6.8756032 10.745871,5.9844 12,6 Z m 0,11 c 1.098795,0 2.000018,0.9012 2,2 1.8e-5,1.0988 -0.901205,2 -2,2 -1.098795,0 -2.0000182,-0.9012 -2,-2 -1.82e-5,-1.0988 0.901205,-2 2,-2 z" transform="matrix(0.66666671,0,0,0.66666671,0,1036.3622)"/></g></g></svg>