<svg xmlns="http://www.w3.org/2000/svg" xmlns:osb="http://www.openswatchbook.org/uri/2009/osb" xmlns:svg="http://www.w3.org/2000/svg" xmlns:xlink="http://www.w3.org/1999/xlink" id="svg7384" width="24" height="24" version="1.1" viewBox="0 0 24 24"><metadata id="metadata90"/><defs id="defs7386"><linearGradient id="linearGradient19282-4" gradientTransform="matrix(0.34682586,0,0,0.30620888,-154.35207,-275.32368)" osb:paint="solid"><stop id="stop19284-0" offset="0" style="stop-color:#bebebe;stop-opacity:1"/></linearGradient><linearGradient id="linearGradient7528" x1="874.227" x2="894.227" y1="111.881" y2="111.881" gradientTransform="matrix(1.1,0,0,1.2499999,3.816227,-3.2510284)" gradientUnits="userSpaceOnUse" xlink:href="#linearGradient19282-4"/><linearGradient id="linearGradient7534" x1="13" x2="21" y1="1037.362" y2="1037.362" gradientTransform="matrix(1.1283577,0,0,1.0986755,988.64705,-1028.9887)" gradientUnits="userSpaceOnUse" xlink:href="#linearGradient19282-4"/><linearGradient id="linearGradient7540" x1="1" x2="9" y1="1037.862" y2="1037.862" gradientTransform="matrix(1.1269786,0,0,1.1093616,987.98498,-1039.1081)" gradientUnits="userSpaceOnUse" xlink:href="#linearGradient19282-4"/></defs><g id="g4268"><path id="path18497-9-8-1" d="m 5.580462,13.000008 c -0.282568,0 -0.50369,0.122876 -0.685344,0.356451 l -3.895122,4.643548 c 1.291741,1.33225 2.593283,3.294863 3.895122,4.641113 0.181654,0.247125 0.402776,0.358888 0.685344,0.358888 h 0.534963 0.384571 v -1.25 c 0,-0.315875 -0.112035,-0.659925 -0.283591,-0.89355 L 4.826368,19 h 14.345111 l -1.390037,1.856458 c -0.171556,0.233625 -0.281446,0.577675 -0.281446,0.89355 v 1.25 h 0.382426 0.534963 c 0.282568,0 0.503701,-0.111751 0.685344,-0.358888 1.301839,-1.34625 2.605526,-3.308863 3.897267,-4.641113 l -3.897267,-4.643548 c -0.181643,-0.233625 -0.402776,-0.356451 -0.685344,-0.356451 h -0.534963 l -0.382426,0.02688 v 1.25 c 0,0.316 0.119977,0.660187 0.281446,0.893562 L 19.149996,17 H 4.847851 l 1.368554,-1.82955 c 0.161469,-0.233375 0.283591,-0.577562 0.283591,-0.893562 v -1.25 l -0.384571,-0.02688 z" style="color:#000;font-size:medium;line-height:normal;font-family:Sans;-inkscape-font-specification:Sans;text-indent:0;text-align:start;text-decoration:none;text-decoration-line:none;letter-spacing:normal;word-spacing:normal;text-transform:none;writing-mode:lr-tb;direction:ltr;baseline-shift:baseline;text-anchor:start;display:inline;overflow:visible;fill:url(#linearGradient7528);fill-opacity:1;stroke-width:.90267092;enable-background:accumulate"/><path id="path18616-0-4-7-3" d="m 2.99821,3.000696 h 4.0007292 c 1.0551375,0 2.0003649,0.9903271 2.0003649,2.0023978 V 10.999304 H 3.9874013 c -2.6158616,0 -2.6818077,-4.0046843 0,-4.0046843 h 5.0119028" style="color:#000;display:inline;overflow:visible;fill:none;stroke:url(#linearGradient7540);stroke-width:2.00139165;stroke-miterlimit:4;stroke-opacity:1;enable-background:accumulate"/><path id="path18618-3-4-3-9" d="M 15.000954,0.99999961 V 10.999046 h 5.25743 c 2.287754,0 2.353746,-5.0050167 0,-5.0050167 h -5.25743" style="color:#000;display:inline;overflow:visible;fill:none;stroke:url(#linearGradient7534);stroke-width:2.00190878;stroke-miterlimit:4;stroke-opacity:1;enable-background:accumulate"/></g></svg>