<svg xmlns="http://www.w3.org/2000/svg" xmlns:osb="http://www.openswatchbook.org/uri/2009/osb" xmlns:svg="http://www.w3.org/2000/svg" xmlns:xlink="http://www.w3.org/1999/xlink" id="svg7384" width="24" height="24" version="1.1" viewBox="0 0 24 24"><metadata id="metadata90"/><defs id="defs7386"><linearGradient id="linearGradient19282-4" gradientTransform="matrix(0.34682586,0,0,0.30620888,-79.35207,741.03851)" osb:paint="solid"><stop id="stop19284-0" offset="0" style="stop-color:#bebebe;stop-opacity:1"/></linearGradient><linearGradient id="linearGradient8310" x1="75" x2="91" y1="28" y2="28" gradientTransform="translate(811.48816,399.52469)" gradientUnits="userSpaceOnUse" xlink:href="#linearGradient19282-4"/></defs><g style="display:inline" id="preferences" transform="matrix(1.5,0,0,1.5,-297.25132,-362.28703)"><g id="gimp-prefs-folders-environ" transform="translate(123.16755,221.52469)"><g id="g749" transform="translate(20)"><g id="g751" transform="translate(40,60)"><path style="display:inline;fill:url(#linearGradient8310);fill-opacity:1;stroke:none" id="path7541" d="M 75.53125,20 C 75.24212,20 75,20.24212 75,20.53125 v 14.9375 C 75,35.76725 75.23264,36 75.53125,36 h 14.9375 C 90.76735,36 91,35.76735 91,35.46875 v -9.9375 c 0,-0.2891 -0.242223,-0.190193 -0.53125,-0.19792 H 78.33333 V 33.5 c 0,0.277 -0.389667,0.5 -0.666667,0.5 C 77.389663,34 77,33.777 77,33.5 v -9 C 77,24.223 77.223,24 77.5,24 H 80.46875 89 V 22.59375 C 89,22.26655 88.73334,22 88.40625,22 H 81 V 20.53125 C 81,20.2421 80.75788,20 80.46875,20 Z M 83,26 h 1 v 2 h -1 z m 2,0 h 1 v 2 h -1 z m -5,3 h 2 v 1 h -2 z m 4,0 h 1 c 0.554,0 1,0.446 1,1 v 1 c 0,0.554 -0.446,1 -1,1 h -1 c -0.554,0 -1,-0.446 -1,-1 v -1 c 0,-0.554 0.446,-1 1,-1 z m 3,0 h 2 v 1 h -2 z m -7,2 h 2 v 1 h -2 z m 7,0 h 2 v 1 h -2 z m -4,2 h 1 v 2 h -1 z m 2,0 h 1 v 2 h -1 z" transform="translate(-60,-60)"/></g></g></g></g></svg>