<svg xmlns="http://www.w3.org/2000/svg" xmlns:osb="http://www.openswatchbook.org/uri/2009/osb" xmlns:svg="http://www.w3.org/2000/svg" xmlns:xlink="http://www.w3.org/1999/xlink" id="svg7384" width="24" height="24" version="1.1" viewBox="0 0 24 24"><metadata id="metadata90"/><defs id="defs7386"><linearGradient id="linearGradient8074" osb:paint="solid"><stop id="stop8072" offset="0" style="stop-color:#be00be;stop-opacity:1"/></linearGradient><linearGradient id="linearGradient7561" osb:paint="solid"><stop id="stop7558" offset="0" style="stop-color:#a5a5a5;stop-opacity:1"/></linearGradient><linearGradient id="linearGradient7548" osb:paint="solid"><stop id="stop7546" offset="0" style="stop-color:#ebebeb;stop-opacity:1"/></linearGradient><linearGradient id="linearGradient7542" osb:paint="solid"><stop id="stop7538" offset="0" style="stop-color:#c9c9c9;stop-opacity:1"/></linearGradient><linearGradient id="linearGradient19282" gradientTransform="matrix(0,-735328.32,170712.69,0,2464326300,577972450)" osb:paint="solid"><stop id="stop19284" offset="0" style="stop-color:#b4b4b4;stop-opacity:1"/></linearGradient><linearGradient id="linearGradient19282-4" gradientTransform="matrix(0.34682586,0,0,0.30620888,-139.35207,801.03851)" osb:paint="solid"><stop id="stop19284-0" offset="0" style="stop-color:#bebebe;stop-opacity:1"/></linearGradient><linearGradient id="linearGradient8340" x1="0" x2="16" y1="8" y2="8" gradientTransform="translate(898.1551,422.06734)" gradientUnits="userSpaceOnUse" xlink:href="#linearGradient19282-4"/></defs><g style="display:inline" id="preferences" transform="matrix(1.5,0,0,1.5,-427.25174,-396.10101)"><g id="gimp-prefs-folders-tool-plug-ins" transform="translate(269.83449,304.06734)" style="display:inline"><path id="rect3845-5" d="M 0.53125,0 C 0.24212,0 0,0.24212 0,0.53125 v 14.9375 C 0,15.76725 0.23264,16 0.53125,16 h 14.9375 C 15.76735,16 16,15.76735 16,15.46875 V 5.8333333 c 0,-0.2891 -0.242229,-0.4920612 -0.53125,-0.5 H 3.3333367 V 13.5 C 3.3333367,13.777 2.94367,14 2.66667,14 2.38967,14 2,13.777 2,13.5 v -9 C 2,4.223 2.223,4 2.5,4 H 5.46875 14 V 2.59375 C 14,2.26655 13.73334,2 13.40625,2 H 6 V 0.53125 C 6,0.2421 5.75788,0 5.46875,0 Z M 9.3333367,6 H 12.65625 c 1.101472,0 1.316594,0.7984449 1.343753,1.6035156 V 14.666667 H 9.3333367 Z m 0.6490852,0.6666667 v 0.5462239 c 0.00885,-0.0011 0.014286,-0.00977 0.023437,-0.00977 h 1.392579 c 0.118736,0 0.214843,0.094153 0.214843,0.2128906 0,0.1187375 -0.09611,0.2148438 -0.214843,0.2148438 h -1.392579 c -0.00915,0 -0.014591,-0.00866 -0.023437,-0.00977 v 0.4609374 c 0.018241,-0.00502 0.030902,-0.021484 0.050781,-0.021484 h 0.507813 c 0.118737,0 0.214843,0.094153 0.214843,0.2128906 0,0.1187375 -0.09611,0.2148437 -0.214843,0.2148437 h -0.507813 c -0.01988,0 -0.03254,-0.016466 -0.050781,-0.021484 v 0.4726562 c 0.018241,-0.00502 0.030902,-0.021484 0.050781,-0.021484 h 0.507813 c 0.118737,0 0.214843,0.094153 0.214843,0.2128906 0,0.1187374 -0.09611,0.2148437 -0.214843,0.2148437 h -0.507813 c -0.01988,0 -0.03254,-0.016466 -0.050781,-0.021484 V 9.796875 c 0.018241,-0.00502 0.030902,-0.021484 0.050781,-0.021484 h 0.507813 c 0.118737,0 0.214843,0.094153 0.214843,0.2128906 0,0.1187374 -0.09611,0.2148434 -0.214843,0.2148434 h -0.507813 c -0.01988,0 -0.03254,-0.01647 -0.050781,-0.02148 v 0.458984 c 0.00881,-0.0011 0.014326,-0.0098 0.023437,-0.0098 h 1.392579 c 0.118736,0 0.214843,0.09611 0.214843,0.214844 0,0.118738 -0.09611,0.214844 -0.214843,0.214844 h -1.392579 c -0.00915,0 -0.014591,-0.0087 -0.023437,-0.0098 v 0.458985 c 0.018241,-0.005 0.030902,-0.02149 0.050781,-0.02149 h 0.507813 c 0.118737,0 0.214843,0.09611 0.214843,0.214844 0,0.118737 -0.09611,0.214844 -0.214843,0.214844 h -0.507813 c -0.01988,0 -0.03254,-0.01647 -0.050781,-0.02149 v 0.470704 c 0.018241,-0.005 0.030902,-0.02149 0.050781,-0.02149 h 0.507813 c 0.118737,0 0.214843,0.09611 0.214843,0.214844 0,0.118737 -0.09611,0.214844 -0.214843,0.214844 h -0.507813 c -0.01988,0 -0.03254,-0.01647 -0.050781,-0.02149 v 0.470703 c 0.018241,-0.005 0.030902,-0.02148 0.050781,-0.02148 h 0.507813 c 0.118737,0 0.214843,0.09611 0.214843,0.214844 0,0.118737 -0.09611,0.214844 -0.214843,0.214843 h -0.507813 c -0.01988,0 -0.03254,-0.01647 -0.050781,-0.02148 v 0.462891 H 13.384766 V 7.6308594 c 0,-0.4830086 -0.214734,-0.9641927 -0.777344,-0.9641927 z" transform="translate(15,-40)" style="display:inline;fill:url(#linearGradient8340);fill-opacity:1;stroke:none"/></g></g></svg>