<svg xmlns="http://www.w3.org/2000/svg" xmlns:osb="http://www.openswatchbook.org/uri/2009/osb" xmlns:svg="http://www.w3.org/2000/svg" xmlns:xlink="http://www.w3.org/1999/xlink" id="svg30571" width="24" height="24" version="1.1" viewBox="0 0 24 24"><defs id="defs30573"><linearGradient id="linearGradient19282-4" gradientTransform="matrix(0.34682586,0,0,0.30620888,-482.61525,330.965)" osb:paint="solid"><stop style="stop-color:#bebebe;stop-opacity:1" id="stop19284-0" offset="0"/></linearGradient><linearGradient id="linearGradient10420-7" x1="-372.5" x2="-350.509" y1="128.999" y2="128.999" gradientTransform="matrix(1.0913366,0,0,1.0588134,406.52292,901.77659)" gradientUnits="userSpaceOnUse" xlink:href="#linearGradient19282-4"/><linearGradient id="linearGradient10414-0" x1="-371.771" x2="-351.268" y1="140" y2="140" gradientTransform="matrix(1.0730153,0,0,0.97725195,399.91705,913.08202)" gradientUnits="userSpaceOnUse" xlink:href="#linearGradient19282-4"/><linearGradient id="linearGradient8577" x1="316" x2="327.199" y1="881.358" y2="881.358" gradientUnits="userSpaceOnUse" xlink:href="#linearGradient19282-4"/></defs><metadata id="metadata30576"/><g id="layer1" transform="translate(0,-1028.3622)"><g id="g9828"><path id="rect23745-5" d="m 1.7121335,1029.3622 c -0.94852447,0 -1.71213272363278,0.6491 -1.71213272363278,1.4553 v 15.0894 c 0,0.8064 0.76360825363278,1.4553 1.71213272363278,1.4553 H 22.257722 c 0.948527,0 1.742279,-0.6489 1.742279,-1.4553 v -15.0528 c -0.69587,0.7134 -1.383783,1.776 -1.9563,2.3156 -0.517184,0.4875 -1.018869,0.9454 -1.498109,1.3644 h -0.05337 c -1.533001,1.381 -3.873841,3.3085 -6.795022,5.412 0.123158,0.7356 0.170522,1.5111 -0.267519,2.2282 -0.527367,0.8637 -1.551815,1.5464 -2.835718,1.8194 -1.1034945,0.2344 -2.3467561,0.3849 -3.531271,0.3183 -0.5922576,-0.033 -1.1651876,-0.1035 -1.7656409,-0.3183 -0.6004426,-0.2147 -1.3712317,-0.6869 -1.6051162,-1.5011 -0.2666352,-0.919 0.5449699,-1.809 1.6586244,-1.8189 0.3335235,2e-4 0.3501336,-0.038 0.4280223,-0.091 0.077813,-0.054 0.2124069,-0.2211 0.3745357,-0.5002 0.3242253,-0.5583 0.4458221,-1.67 1.9261547,-2.5014 0.645733,-0.3626 1.382778,-0.4605 2.086668,-0.4548 1.721758,-2.0844 3.627505,-4.7019 5.671415,-6.627 -0.0011,10e-4 0.04998,-0.041 0.05337,-0.045 l 0.855934,-0.7733 c 0.02269,-0.021 0.03132,-0.023 0.05337,-0.045 0.1341,-0.1245 0.207594,-0.1707 0.321027,-0.2728 H 1.7118714 Z" style="color:#000;display:inline;overflow:visible;visibility:visible;fill:url(#linearGradient10420-7);fill-opacity:1;fill-rule:nonzero;stroke:none;stroke-width:2.14990401;marker:none;enable-background:accumulate"/><path id="path23225-6" d="m 1.7009702,1048.4303 -0.5150689,0.8219 a 1.8430398,1.4705824 0 1 0 3.3194046,1.2788 l 1.3163,-2.1007 z m 16.4825338,0 1.316309,2.1007 a 1.8430393,1.4705821 0 0 0 3.319404,-1.2788 l -0.5151,-0.8219 z" style="color:#000;font-style:normal;font-variant:normal;font-weight:400;font-stretch:normal;font-size:medium;line-height:normal;font-family:Sans;-inkscape-font-specification:Sans;text-indent:0;text-align:start;text-decoration:none;text-decoration-line:none;letter-spacing:normal;word-spacing:normal;text-transform:none;writing-mode:lr-tb;direction:ltr;baseline-shift:baseline;text-anchor:start;display:inline;overflow:visible;visibility:visible;fill:url(#linearGradient10414-0);fill-opacity:1;stroke:none;stroke-width:2.04802966;marker:none;enable-background:accumulate"/><path id="path9274-5-7-8" d="m 325.26895,876.36192 c -0.4596,0.44205 -0.90731,0.89265 -1.33145,1.34416 -0.17324,0.18442 -0.36758,0.34657 -0.53125,0.53125 l -0.5,0.5625 c -1.30467,1.44196 -2.58769,3.12635 -3.65625,4.6875 -0.30993,-0.15117 -0.6844,-0.17668 -1.09375,0.0937 -0.75359,0.49786 -0.60416,2.28185 -2.15625,2.28125 0.14696,0.60185 1.73914,0.58086 2.8125,0.3125 1.01313,-0.25331 1.31779,-1.13266 1.125,-1.875 -0.0273,-0.10506 -0.0928,-0.20745 -0.15625,-0.3125 1.9784,-1.63945 3.41529,-3.01293 4.375,-4.03125 0.2404,-0.24587 0.52201,-0.58075 0.84375,-0.9375 0.60807,-0.67423 1.34529,-1.54185 2.19908,-2.65179 z" clip-path="url(#clipPath23756-5)" transform="matrix(1.6354727,0,0,1.4511516,-511.30938,-243.37215)" style="fill:url(#linearGradient8577);fill-opacity:1;stroke:none"/></g></g></svg>