<svg xmlns="http://www.w3.org/2000/svg" xmlns:osb="http://www.openswatchbook.org/uri/2009/osb" xmlns:svg="http://www.w3.org/2000/svg" xmlns:xlink="http://www.w3.org/1999/xlink" id="svg30571" width="24" height="24" version="1.1" viewBox="0 0 24 24"><defs id="defs30573"><linearGradient id="linearGradient19282-4" gradientTransform="matrix(0.34682586,0,0,0.30620888,-482.61525,330.965)" osb:paint="solid"><stop style="stop-color:#bebebe;stop-opacity:1" id="stop19284-0" offset="0"/></linearGradient><linearGradient id="linearGradient10746" x1="67.656" x2="75.99" y1="222.229" y2="222.229" gradientTransform="matrix(1.0221744,0,0,1.0221744,-1.4898239,-5.1572234)" gradientUnits="userSpaceOnUse" xlink:href="#linearGradient19282-4"/><linearGradient id="linearGradient10752" x1="63.998" x2="70.5" y1="226.607" y2="226.607" gradientTransform="translate(-0.33126952,0.33828811)" gradientUnits="userSpaceOnUse" xlink:href="#linearGradient19282-4"/><linearGradient id="linearGradient10758" x1="69" x2="76" y1="231.5" y2="231.5" gradientTransform="matrix(1.1428572,0,0,1.1428572,-10.523842,-32.809534)" gradientUnits="userSpaceOnUse" xlink:href="#linearGradient19282-4"/><linearGradient id="linearGradient10764" x1="62" x2="65" y1="231.5" y2="231.5" gradientTransform="matrix(1.3333333,0,0,1.3333333,-21.000066,-76.999999)" gradientUnits="userSpaceOnUse" xlink:href="#linearGradient19282-4"/></defs><metadata id="metadata30576"/><g id="layer1" transform="translate(0,-1028.3622)"><g id="g10504"><g id="gimp-tool-eraser" transform="matrix(1.5,0,0,1.5,-91.5003,702.8622)" style="display:inline"><path id="path4066" d="m 72.266652,217.67679 c -0.0806,0.0165 -0.163037,0.0711 -0.223601,0.12777 L 67.666867,222 l 4,4.33333 4.369053,-3.96093 c 0.242245,-0.22635 0.307346,-0.7813 -0.0028,-1.13744 l -2.967922,-3.2068 c -0.232586,-0.26711 -0.556769,-0.40078 -0.798574,-0.35137 z" style="fill:url(#linearGradient10746);fill-opacity:1;stroke:none;stroke-width:1.02217436"/><path id="rect34152" d="m 66.16893,223.55704 -2.34375,2.1875 c -0.23699,0.22144 -0.20964,0.68283 0.09375,1.03125 l 2.8125,3.21875 c 0.30339,0.34842 0.73176,0.44019 0.96875,0.21875 l 2.46875,-2.3125 z" style="opacity:.5;fill:url(#linearGradient10752);fill-opacity:1;stroke:none"/><path style="fill:url(#linearGradient10758);fill-opacity:1;stroke:none;stroke-width:1.14285719" id="rect34161" d="m 69.133533,231.19048 c -0.4432,0 -0.8,0.25485 -0.8,0.57142 0,0.31658 0.3568,0.57143 0.8,0.57143 h 1.6 4.8 0.8 v -0.57143 -0.57142 h -0.8 -4.8 z"/><path id="path34166" d="m 64.733534,231 c 0.517066,0 0.933333,0.29733 0.933333,0.66666 0,0.36934 -0.416267,0.66667 -0.933333,0.66667 -2.8,0 -2.666667,0 -3.066667,0 V 231.66666 231 c 0,0 0.266667,0 3.066667,0 z" style="fill:url(#linearGradient10764);fill-opacity:1;stroke:none;stroke-width:1.33333337"/></g></g></g></svg>