<svg xmlns="http://www.w3.org/2000/svg" xmlns:osb="http://www.openswatchbook.org/uri/2009/osb" xmlns:svg="http://www.w3.org/2000/svg" id="svg30571" width="24" height="24" version="1.1" viewBox="0 0 24 24"><defs id="defs30573"><linearGradient id="linearGradient19282" gradientTransform="matrix(1.2178615,0,0,1.043881,378.84797,1794.4958)" osb:paint="solid"><stop id="stop19284" offset="0" style="stop-color:#505050;stop-opacity:1"/></linearGradient><linearGradient id="linearGradient19282-1" gradientTransform="matrix(1.2178615,0,0,1.043881,356.69172,1794.4958)" osb:paint="solid"><stop id="stop19284-8" offset="0" style="stop-color:#505050;stop-opacity:1"/></linearGradient><linearGradient id="linearGradient19282-2" gradientTransform="matrix(0,0.96442025,-0.82725123,0,-577.54676,-1036.7064)" osb:paint="solid"><stop id="stop19284-1" offset="0" style="stop-color:#bebebe;stop-opacity:1"/></linearGradient></defs><metadata id="metadata30576"/><g id="layer1" transform="translate(0,-1028.3622)"><g id="g4272"><g id="g3152" transform="matrix(-0.99633454,0,0,0.99853616,77.670479,383.24872)" style="display:inline"><path id="path12113-8" d="m 71.723856,647.0848 a 0.99479957,0.99479957 0 0 0 -0.777109,0.9947 v 3.9788 a 0.99479957,0.99479957 0 0 0 0.9947,0.9947 h 3.9788 a 0.99479957,0.99479957 0 1 0 0,-1.9894 h -2.9841 v -2.9841 a 0.99479957,0.99479957 0 0 0 -1.212291,-0.9947 z" style="color:#000;font-style:normal;font-variant:normal;font-weight:400;font-stretch:normal;font-size:medium;line-height:normal;font-family:Sans;-inkscape-font-specification:Sans;text-indent:0;text-align:start;text-decoration:none;text-decoration-line:none;letter-spacing:normal;word-spacing:normal;text-transform:none;writing-mode:lr-tb;direction:ltr;baseline-shift:baseline;text-anchor:start;display:inline;overflow:visible;visibility:visible;fill:#bebebe;fill-opacity:1;stroke:none;stroke-width:2;marker:none;enable-background:new"/><path style="color:#000;font-style:normal;font-variant:normal;font-weight:400;font-stretch:normal;font-size:medium;line-height:normal;font-family:Sans;-inkscape-font-specification:Sans;text-indent:0;text-align:start;text-decoration:none;text-decoration-line:none;letter-spacing:normal;word-spacing:normal;text-transform:none;writing-mode:lr-tb;direction:ltr;baseline-shift:baseline;text-anchor:start;display:inline;overflow:visible;visibility:visible;fill:#bebebe;fill-opacity:1;stroke:none;stroke-width:2;marker:none;enable-background:new" id="path12147-8" d="M 14.996094,0.09570312 A 0.99479957,0.99479957 0 0 0 14.84375,0.109375 0.99479957,0.99479957 0 0 0 14.253906,0.38867188 L 10.273438,4.3671875 A 1.0110788,1.0110788 0 0 0 9.9941406,5.2597656 V 6.078125 H 10.8125 a 1.0110788,1.0110788 0 0 0 0.892578,-0.28125 l 3.978516,-3.9785156 a 0.99479957,0.99479957 0 0 0 -0.6875,-1.72265628 z M 9.9941406,0.109375 V 1.1035156 H 10.990234 V 0.109375 Z M 14.96875,5.0820312 V 6.078125 h 0.994141 V 5.0820312 Z" transform="translate(60.952227,646.97574)"/></g><g id="g3172" transform="matrix(1.1428571,0,0,1.1347519,-155.28595,604.26997)"><path style="fill:#bebebe;fill-opacity:1;stroke:none" id="rect5882" d="M 142.0002,379.9 V 394 h 14 v -14.1 z m 1.4,1.5 h 11.2 v 8.4 h -11.2 z"/><path style="opacity:.3;fill:#bebebe;fill-opacity:1;stroke:none" id="rect10683" d="m -96.9,165.1 v 7 L -96,172 c 0,-0.75515 0.671573,-1.375 1.5,-1.375 0.828427,0 1.5,0.61985 1.5,1.375 h 1 v -1.5 c 1.4e-4,-0.98573 -0.7274,-1.47402 -2,-2.0625 0,0 0.02947,3.7e-4 0.25,0 0.40803,0.0835 1.38212,0.3501 1.75,0.59375 -0.09819,-0.35554 -0.14101,-0.89353 -0.4375,-1.34375 C -92.73401,167.23732 -94,166.34375 -94,166.34375 l 0.0625,-0.0312 c 0.05568,-0.0402 0.9453,0.7655 1.25,0.6875 -0.13515,-0.32497 -0.25949,-0.63468 -0.40625,-0.8125 l 0.1875,-0.0312 c 0.35629,0.59147 0.46684,0.72309 0.84375,1.15625 0.12472,0.0571 -0.03108,-0.0423 1.0625,-0.59375 V 167 c 0,0 -1.0625,0.30993 -0.75,0.90625 0.22248,0.30573 0.39823,1.01025 0.75,1.09375 0,0 0.85009,-1.22532 1.5,-1.625 0,0 -0.21923,-0.50879 -0.21875,-0.78125 3.7e-4,-0.20918 0.15625,-0.59375 0.15625,-0.59375 0.02319,0.39561 -0.0029,0.83091 0.28125,1.21875 L -88.34375,166 H -88 c 0,0 -2.25088,2.3886 -2,2.78125 0.39455,-0.048 2,-0.34375 2,-0.34375 V 168.5 c -1.04689,0.34884 -1.67111,0.68872 -2,1.5 v 2 l 3,0.1 -0.1,-7 z" transform="translate(241.0002,217)"/></g></g></g></svg>