<svg xmlns="http://www.w3.org/2000/svg" xmlns:osb="http://www.openswatchbook.org/uri/2009/osb" xmlns:svg="http://www.w3.org/2000/svg" xmlns:xlink="http://www.w3.org/1999/xlink" id="svg7384" width="24" height="24" version="1.1" viewBox="0 0 24 24"><metadata id="metadata90"/><defs id="defs7386"><linearGradient id="linearGradient19282-4" gradientTransform="matrix(0.34682586,0,0,0.30620888,-154.35207,-275.32368)" osb:paint="solid"><stop id="stop19284-0" offset="0" style="stop-color:#bebebe;stop-opacity:1"/></linearGradient><linearGradient id="linearGradient7501" x1="-21" x2="-9" y1="1047.362" y2="1047.362" gradientTransform="translate(-877.0512,-902.56964)" gradientUnits="userSpaceOnUse" xlink:href="#linearGradient19282-4"/><linearGradient id="linearGradient7501-3" x1="-21" x2="-9" y1="1047.362" y2="1047.362" gradientTransform="translate(-877.0512,-916.56964)" gradientUnits="userSpaceOnUse" xlink:href="#linearGradient19282-4"/><linearGradient id="linearGradient7501-5" x1="-21" x2="-9" y1="1047.362" y2="1047.362" gradientTransform="translate(-877.0512,-909.56964)" gradientUnits="userSpaceOnUse" xlink:href="#linearGradient19282-4"/><linearGradient id="linearGradient7528" x1="874.227" x2="894.227" y1="111.881" y2="111.881" gradientTransform="matrix(0,1.1,-1.2499999,0,26.251028,3.816231)" gradientUnits="userSpaceOnUse" xlink:href="#linearGradient19282-4"/></defs><g id="g4310"><rect id="rect5996-2-1-0-7-8-0-9" width="12" height="2" x="-23" y="18" transform="scale(-1,1)" style="color:#555753;display:inline;overflow:visible;fill:url(#linearGradient7501);fill-opacity:1;stroke-width:.90909088"/><rect id="rect5996-2-1-0-7-8-0-9-2" width="12" height="2" x="-23" y="4" transform="scale(-1,1)" style="color:#555753;display:inline;overflow:visible;fill:url(#linearGradient7501-3);fill-opacity:1;stroke-width:.90909088"/><rect id="rect5996-2-1-0-7-8-0-9-5" width="12" height="2" x="-23" y="11" transform="scale(-1,1)" style="color:#555753;display:inline;overflow:visible;fill:url(#linearGradient7501-5);fill-opacity:1;stroke-width:.90909088"/><path id="path18497-9-8-1" d="m 9.999992,5.580466 c 0,-0.282568 -0.122876,-0.50369 -0.356451,-0.685344 L 4.999993,1 C 3.667743,2.291741 1.70513,3.593283 0.35888,4.895122 0.111755,5.076776 -8e-6,5.297898 -8e-6,5.580466 V 6.115429 6.5 h 1.25 c 0.315875,0 0.659925,-0.112035 0.89355,-0.283591 L 4,4.826372 V 19.171483 L 2.143542,17.781446 C 1.909917,17.60989 1.565867,17.5 1.249992,17.5 h -1.25 v 0.382426 0.534963 c 0,0.282568 0.111751,0.503701 0.358888,0.685344 C 1.70513,20.404572 3.667743,21.708259 4.999993,23 L 9.643541,19.102733 C 9.877166,18.92109 9.999992,18.699957 9.999992,18.417389 V 17.882426 L 9.973112,17.5 h -1.25 c -0.316,0 -0.660187,0.119977 -0.893562,0.281446 L 6,19.15 V 4.847855 L 7.82955,6.216409 C 8.062925,6.377878 8.407112,6.5 8.723112,6.5 h 1.25 l 0.02688,-0.384571 z" style="color:#000;font-size:medium;line-height:normal;font-family:Sans;-inkscape-font-specification:Sans;text-indent:0;text-align:start;text-decoration:none;text-decoration-line:none;letter-spacing:normal;word-spacing:normal;text-transform:none;writing-mode:lr-tb;direction:ltr;baseline-shift:baseline;text-anchor:start;display:inline;overflow:visible;fill:url(#linearGradient7528);fill-opacity:1;stroke-width:.90267092;enable-background:accumulate"/></g></svg>