<svg xmlns="http://www.w3.org/2000/svg" xmlns:osb="http://www.openswatchbook.org/uri/2009/osb" xmlns:svg="http://www.w3.org/2000/svg" xmlns:xlink="http://www.w3.org/1999/xlink" id="svg7384" width="24" height="24" version="1.1" viewBox="0 0 24 24"><metadata id="metadata90"/><defs id="defs7386"><linearGradient id="linearGradient19282-4" gradientTransform="matrix(0.34682586,0,0,0.30620888,-113.35187,202.03851)" osb:paint="solid"><stop id="stop19284-0" offset="0" style="stop-color:#bebebe;stop-opacity:1"/></linearGradient><linearGradient id="linearGradient7726" x1="41.977" x2="45" y1="565.502" y2="565.502" gradientTransform="matrix(1.653618,0,0,1.6691677,596.17524,-537.38036)" gradientUnits="userSpaceOnUse" xlink:href="#linearGradient19282-4"/><linearGradient id="linearGradient7728" x1="42" x2="45" y1="561.5" y2="561.5" gradientTransform="matrix(1.3333337,0,0,1.3333331,481.86596,-427.51233)" gradientUnits="userSpaceOnUse" xlink:href="#linearGradient19282-4"/><linearGradient id="linearGradient7732" x1="46" x2="55" y1="568.5" y2="568.5" gradientTransform="matrix(1.5555555,0,0,1.5555555,560.62124,-500.32)" gradientUnits="userSpaceOnUse" xlink:href="#linearGradient19282-4"/><linearGradient id="linearGradient7726-7" x1="41.977" x2="45" y1="565.502" y2="565.502" gradientTransform="matrix(1.653618,0,0,1.6691677,602.17524,-543.38036)" gradientUnits="userSpaceOnUse" xlink:href="#linearGradient19282-4"/></defs><g id="g69"><path id="path3997" d="M 2.7055081,5.5242935 C 3.5471016,6.2394934 4.809482,6.1362401 5.5244541,5.2954536 6.2397677,4.4534804 6.1360543,3.1906806 5.2945648,2.4757873 4.4527112,1.7604941 3.1904362,1.8637474 2.4755787,2.7045206 1.7603305,3.5462272 1.8637879,4.8091603 2.7055081,5.5242935 Z" style="fill:url(#linearGradient7728);fill-opacity:1;stroke:none;stroke-width:1.33333337"/><path id="path4045" d="M 18.216987,9.9517911 21,7 V 21 H 7 l 3.204398,-3.082411 c 0,0 -6.2932864,-4.364873 -1.2408964,-9.1178734 C 14.015892,4.0467 17.915542,10.211538 17.915542,10.211538 Z" style="fill:url(#linearGradient7732);fill-opacity:1;stroke:none;stroke-width:1.55555558"/><path id="path3771" d="M 1.9074386,11.427342 C 2.9714045,12.306726 4.5472595,12.156485 5.4268387,11.09239 6.3070182,10.028246 6.1563306,8.4519672 5.0926227,7.572683 4.0285658,6.6931818 2.4526166,6.8435738 1.5731151,7.9077517 0.69315393,8.9716625 0.84345789,10.547941 1.9074386,11.427342 Z" style="fill:url(#linearGradient7726);fill-opacity:1;stroke:none;stroke-width:1.66137469"/><path id="path3771-4" d="M 7.9074386,5.4273435 C 8.9714045,6.3067275 10.54726,6.1564865 11.426839,5.0923915 12.307019,4.0282475 12.156331,2.4519691 11.092623,1.5726849 10.028566,0.69318369 8.4526166,0.84357569 7.5731151,1.9077536 6.6931539,2.9716644 6.8434579,4.5479425 7.9074386,5.4273435 Z" style="fill:url(#linearGradient7726-7);fill-opacity:1;stroke:none;stroke-width:1.66137469"/></g></svg>