<svg xmlns="http://www.w3.org/2000/svg" xmlns:osb="http://www.openswatchbook.org/uri/2009/osb" xmlns:svg="http://www.w3.org/2000/svg" xmlns:xlink="http://www.w3.org/1999/xlink" id="svg9286" width="24" height="24" version="1.1" viewBox="0 0 6.35 6.35"><title id="title13765">GIMP Clip-Warning Display Filter (24px)</title><defs id="defs9280"><linearGradient id="linearGradient7569" x1="0" x2="16" y1="1044.362" y2="1044.362" gradientTransform="matrix(0.26458333,0,0,0.26458333,158.42384,85.500708)" gradientUnits="userSpaceOnUse" xlink:href="#linearGradient19282-4"/><linearGradient id="linearGradient19282-4" gradientTransform="matrix(0.34682586,0,0,0.30620888,-154.35207,-275.32445)" osb:paint="solid"><stop id="stop19284-0" offset="0" style="stop-color:#bebebe;stop-opacity:1"/></linearGradient></defs><metadata id="metadata9283"/><g id="layer1" transform="translate(0,-290.64998)"><g id="gimp-display-filter-clip-warning-24"><g id="g51743"><path style="fill:#bebebe;fill-opacity:1;stroke:none;stroke-width:.39685607" id="rect28283-2" d="M 0.396875,290.6503 C 0.13714016,290.6503 0,290.62464 0,291.04712 v 5.55572 c 0,0.42249 0.13714016,0.39685 0.396875,0.39685 H 3.175 5.953125 c 0.25141,0 0.3839112,0.006 0.396875,-0.39685 v 0 -2.77786 -2.77786 0 C 6.337038,290.64406 6.204535,290.6503 5.953125,290.6503 H 3.175 Z m 0.79375,0.26427 H 3.175 5.159375 c 0.6339123,0 0.9260417,0.3025 0.9260417,1.0056 v 3.80963 c 0,0.71482 -0.2453574,1.0056 -0.9260417,1.0056 H 3.175 1.190625 c -0.64018745,0 -0.92604167,-0.30528 -0.92604167,-1.12464 v -3.57153 c 0,-0.84344 0.28043841,-1.12466 0.92604167,-1.12466 z"/><g id="g51672" transform="translate(0,290.64998)"><g id="g51611"><path style="fill:#bebebe;fill-opacity:1;fill-rule:evenodd;stroke:none;stroke-width:.26458332px;stroke-linecap:butt;stroke-linejoin:miter;stroke-opacity:1" id="path51593" d="M 0.26458333,0.26458333 0.79374999,0.79374999 0.26458333,1.3229166 Z"/><path style="fill:#bebebe;fill-opacity:1;fill-rule:evenodd;stroke:none;stroke-width:.26458332px;stroke-linecap:butt;stroke-linejoin:miter;stroke-opacity:1" id="path51595" d="m 1.3229166,1.3229166 0.5291667,0.5291667 -1.58749997,1.5875 V 2.38125 Z"/><path style="fill:#bebebe;fill-opacity:1;fill-rule:evenodd;stroke:none;stroke-width:.26458332px;stroke-linecap:butt;stroke-linejoin:miter;stroke-opacity:1" id="path51597" d="M 2.38125,2.38125 2.9104166,2.9104166 0.26458333,5.5562499 V 4.4979166 Z"/><path style="fill:#bebebe;fill-opacity:1;fill-rule:evenodd;stroke:none;stroke-width:.26458332px;stroke-linecap:butt;stroke-linejoin:miter;stroke-opacity:1" id="path51599" d="M 3.4395833,3.4395833 3.96875,3.96875 1.8520833,6.0854166 H 0.79374999 Z"/><path style="fill:#bebebe;fill-opacity:1;fill-rule:evenodd;stroke:none;stroke-width:.26458332px;stroke-linecap:butt;stroke-linejoin:miter;stroke-opacity:1" id="path51601" d="M 4.4979166,4.4979166 5.0270833,5.0270833 3.96875,6.0854166 H 2.9104166 Z"/><path style="fill:#bebebe;fill-opacity:1;fill-rule:evenodd;stroke:none;stroke-width:.26458332px;stroke-linecap:butt;stroke-linejoin:miter;stroke-opacity:1" id="path51603" d="M 5.5562499,5.5562499 6.0854166,6.0854166 H 5.0270833 Z"/></g><g id="g51643"><path style="fill:#bebebe;fill-opacity:1;fill-rule:evenodd;stroke:none;stroke-width:.26458332px;stroke-linecap:butt;stroke-linejoin:miter;stroke-opacity:1" id="path51613" d="M 0.79374999,0.79374999 1.3229166,1.3229166 2.38125,0.26458333 H 1.3229166 Z"/><path style="fill:#bebebe;fill-opacity:1;fill-rule:evenodd;stroke:none;stroke-width:.26458332px;stroke-linecap:butt;stroke-linejoin:miter;stroke-opacity:1" id="path51615" d="M 1.8520833,1.8520833 2.38125,2.38125 4.4979166,0.26458333 H 3.4395833 Z"/><path style="fill:#bebebe;fill-opacity:1;fill-rule:evenodd;stroke:none;stroke-width:.26458332px;stroke-linecap:butt;stroke-linejoin:miter;stroke-opacity:1" id="path51632" d="M 2.9104166,2.9104166 3.4395833,3.4395833 6.0854166,0.79374999 V 0.26458333 H 5.5562499 Z"/><path style="fill:#bebebe;fill-opacity:1;fill-rule:evenodd;stroke:none;stroke-width:.26458332px;stroke-linecap:butt;stroke-linejoin:miter;stroke-opacity:1" id="path51634" d="m 3.96875,3.96875 0.5291666,0.5291666 1.5875,-1.5875 V 1.8520833 Z"/><path style="fill:#bebebe;fill-opacity:1;fill-rule:evenodd;stroke:none;stroke-width:.26458332px;stroke-linecap:butt;stroke-linejoin:miter;stroke-opacity:1" id="path51636" d="M 5.0270833,5.0270833 5.5562499,5.5562499 6.0854166,5.0270833 V 3.96875 Z"/></g></g></g></g></g></svg>