<svg xmlns="http://www.w3.org/2000/svg" xmlns:osb="http://www.openswatchbook.org/uri/2009/osb" xmlns:svg="http://www.w3.org/2000/svg" id="svg30571" width="24" height="24" version="1.1" viewBox="0 0 24 24"><defs id="defs30573"><linearGradient id="linearGradient19282-4" gradientTransform="matrix(0.34682586,0,0,0.30620888,-482.61525,330.965)" osb:paint="solid"><stop style="stop-color:#bebebe;stop-opacity:1" id="stop19284-0" offset="0"/></linearGradient></defs><metadata id="metadata30576"/><g id="layer1" transform="translate(0,-1028.3622)"><g id="g4281"><g id="g4270" transform="matrix(0.95206622,0,0,0.9540017,31.653783,-126.84026)"><path id="path4593-9-9" d="m -21.30245,1222.1246 c -0.27852,-0.263 -0.55539,-0.7006 -0.8284,-1.3138 -1.33326,-3.0661 -3.0603,-7.6587 -6.00269,-8.4844 -0.99768,-0.2799 -1.88893,-0.3087 -2.85937,-0.375 l -1.5e-4,-6e-4 c -0.23436,-0.016 -0.82373,0.2521 -0.89063,0.375 -0.72444,2.9327 -0.0337,7.4225 0.47144,9.7968 0.49432,0.9574 1.7896,1.3493 3.32812,1.3125 0.68732,-0.024 0.75,0 2.25,0 -1.9117,0.1346 -3.84375,0.5157 -4.59375,1.2657 -1.5,1.5 -0.44739,4.7851 0.75,6.75 0.76566,1.2564 2.23154,3.9046 3.65625,3.5 1.57529,-1.0954 0.0937,-5 4.59375,-8.75 v 0.1405 c -0.25,0.6094 -0.25,0.8595 -0.25,1.8595 v 0.75 c -0.0105,0.7924 0.20745,2 1,2 0.79256,0 1.0112,-1.2076 0.99999,-2 v -0.75 c 0,-1 0,-1.2501 -0.29686,-1.8595 0.0105,-0.074 0.0346,-0.052 0.0468,-0.1405 4.5,3.75 3.01846,7.6546 4.59375,8.75 1.42471,0.4046 2.89059,-1.3217 3.65625,-2.5782 1.19739,-1.9649 2.25,-6.1718 0.75,-7.6718 -0.75,-0.75 -2.68205,-1.1311 -4.59375,-1.2657 1.5,0 1.56268,-0.024 2.25,0 1.53852,0.037 2.8338,-0.3551 3.32812,-1.3125 0.50522,-2.3743 1.28426,-6.8641 0.55982,-9.7968 -0.0669,-0.1229 -0.65627,-0.3911 -0.89063,-0.375 -0.97044,0.066 -1.86169,0.095 -2.85937,0.375 -2.95427,0.829 -4.75583,5.4623 -6.09107,8.5312 -0.26353,0.579 -0.53067,0.9978 -0.79939,1.2556 -0.21789,-0.3873 -0.43577,-0.7746 -0.65366,-1.1619 z" style="color:#000;display:inline;overflow:visible;visibility:visible;fill:#bebebe;fill-opacity:1;stroke:none;stroke-width:2;marker:none;enable-background:accumulate"/><circle id="path23899" cx="-20.678" cy="1220.951" r="1" style="color:#000;display:inline;overflow:visible;visibility:visible;fill:#bebebe;fill-opacity:1;fill-rule:nonzero;stroke:none;stroke-width:2;marker:none;enable-background:accumulate"/><path id="path23901" d="m -22.17788,1217.4508 c 1,1 1,2 1.5,3.5 0.5,-1.5 0.5,-2.5 1.5,-3.5" style="color:#000;display:inline;overflow:visible;visibility:visible;fill:none;stroke:#bebebe;stroke-width:1px;stroke-linecap:butt;stroke-linejoin:miter;stroke-miterlimit:4;stroke-dasharray:none;stroke-dashoffset:0;stroke-opacity:1;marker:none;enable-background:accumulate"/><circle id="path23903" cx="-22.178" cy="1217.451" r=".75" style="color:#000;display:inline;overflow:visible;visibility:visible;fill:#bebebe;fill-opacity:1;fill-rule:nonzero;stroke:none;stroke-width:6;marker:none;enable-background:accumulate"/><circle id="path23903-6" cx="-19.178" cy="1217.451" r=".75" style="color:#000;display:inline;overflow:visible;visibility:visible;fill:#bebebe;fill-opacity:1;fill-rule:nonzero;stroke:none;stroke-width:6;marker:none;enable-background:accumulate"/></g></g></g></svg>