<svg xmlns="http://www.w3.org/2000/svg" xmlns:osb="http://www.openswatchbook.org/uri/2009/osb" xmlns:svg="http://www.w3.org/2000/svg" xmlns:xlink="http://www.w3.org/1999/xlink" id="svg30571" width="24" height="24" version="1.1" viewBox="0 0 24 24"><defs id="defs30573"><linearGradient id="linearGradient19282-4" gradientTransform="matrix(0.34682586,0,0,0.30620888,-482.61525,330.965)" osb:paint="solid"><stop style="stop-color:#bebebe;stop-opacity:1" id="stop19284-0" offset="0"/></linearGradient><linearGradient id="linearGradient7206" x1="-80" x2="-76" y1="164" y2="164" gradientUnits="userSpaceOnUse" xlink:href="#linearGradient19282-4"/><linearGradient id="linearGradient7216" x1="-76" x2="-72" y1="168" y2="168" gradientUnits="userSpaceOnUse" xlink:href="#linearGradient19282-4"/><linearGradient id="linearGradient7202" x1="-72" x2="-68" y1="164" y2="164" gradientUnits="userSpaceOnUse" xlink:href="#linearGradient19282-4"/><linearGradient id="linearGradient7212" x1="-68" x2="-64" y1="168" y2="168" gradientUnits="userSpaceOnUse" xlink:href="#linearGradient19282-4"/><linearGradient id="linearGradient7226" x1="-72" x2="-68" y1="172" y2="172" gradientUnits="userSpaceOnUse" xlink:href="#linearGradient19282-4"/><linearGradient id="linearGradient7230" x1="-80" x2="-76" y1="172" y2="172" gradientUnits="userSpaceOnUse" xlink:href="#linearGradient19282-4"/><linearGradient id="linearGradient7240" x1="-76" x2="-72" y1="176" y2="176" gradientUnits="userSpaceOnUse" xlink:href="#linearGradient19282-4"/><linearGradient id="linearGradient7236" x1="-68" x2="-64" y1="176" y2="176" gradientUnits="userSpaceOnUse" xlink:href="#linearGradient19282-4"/><linearGradient id="linearGradient7218" x1="-80" x2="-76" y1="168" y2="168" gradientUnits="userSpaceOnUse" xlink:href="#linearGradient19282-4"/><linearGradient id="linearGradient7204" x1="165" x2="169" y1="381" y2="381" gradientUnits="userSpaceOnUse" xlink:href="#linearGradient19282-4"/><linearGradient id="linearGradient7200" x1="173" x2="177" y1="381" y2="381" gradientUnits="userSpaceOnUse" xlink:href="#linearGradient19282-4"/><linearGradient id="linearGradient7214" x1="169" x2="173" y1="385" y2="385" gradientUnits="userSpaceOnUse" xlink:href="#linearGradient19282-4"/><linearGradient id="linearGradient7224" x1="173" x2="177" y1="389" y2="389" gradientUnits="userSpaceOnUse" xlink:href="#linearGradient19282-4"/><linearGradient id="linearGradient7228" x1="165" x2="169" y1="389" y2="389" gradientUnits="userSpaceOnUse" xlink:href="#linearGradient19282-4"/><linearGradient id="linearGradient7238" x1="169" x2="173" y1="393" y2="393" gradientUnits="userSpaceOnUse" xlink:href="#linearGradient19282-4"/><linearGradient id="linearGradient7242" x1="161" x2="165" y1="393" y2="393" gradientUnits="userSpaceOnUse" xlink:href="#linearGradient19282-4"/></defs><metadata id="metadata30576"/><g id="layer1" transform="translate(0,-1028.3622)"><g style="display:inline" id="gimp-transparency" transform="matrix(1.4999998,0,0,1.5,-241.50027,459.8622)"><g id="g4282"><rect style="fill:url(#linearGradient7206);fill-opacity:1;stroke:none" id="rect10732" width="4" height="4" x="-80" y="162" transform="translate(241.0002,217)"/><rect style="fill:url(#linearGradient7216);fill-opacity:1;stroke:none" id="rect10734" width="4" height="4" x="-76" y="166" transform="translate(241.0002,217)"/><rect style="fill:url(#linearGradient7202);fill-opacity:1;stroke:none" id="rect10736" width="4" height="4" x="-72" y="162" transform="translate(241.0002,217)"/><rect style="fill:url(#linearGradient7212);fill-opacity:1;stroke:none" id="rect10738" width="4" height="4" x="-68" y="166" transform="translate(241.0002,217)"/><rect style="fill:url(#linearGradient7226);fill-opacity:1;stroke:none" id="rect10740" width="4" height="4" x="-72" y="170" transform="translate(241.0002,217)"/><rect style="fill:url(#linearGradient7230);fill-opacity:1;stroke:none" id="rect10742" width="4" height="4" x="-80" y="170" transform="translate(241.0002,217)"/><rect style="fill:url(#linearGradient7240);fill-opacity:1;stroke:none" id="rect10744" width="4" height="4" x="-76" y="174" transform="translate(241.0002,217)"/><rect style="fill:url(#linearGradient7236);fill-opacity:1;stroke:none" id="rect10746" width="4" height="4" x="-68" y="174" transform="translate(241.0002,217)"/><rect style="opacity:.3;fill:url(#linearGradient7218);fill-opacity:1;stroke:none" id="rect10748" width="4" height="4" x="-80" y="166" transform="translate(241.0002,217)"/><rect id="rect10750" width="4" height="4" x="165" y="379" style="opacity:.3;fill:url(#linearGradient7204);fill-opacity:1;stroke:none"/><rect style="opacity:.3;fill:url(#linearGradient7200);fill-opacity:1;stroke:none" id="rect10752" width="4" height="4" x="173" y="379"/><rect id="rect10754" width="4" height="4" x="169" y="383" style="opacity:.3;fill:url(#linearGradient7214);fill-opacity:1;stroke:none"/><rect style="opacity:.3;fill:url(#linearGradient7224);fill-opacity:1;stroke:none" id="rect10756" width="4" height="4" x="173" y="387"/><rect id="rect10758" width="4" height="4" x="165" y="387" style="opacity:.3;fill:url(#linearGradient7228);fill-opacity:1;stroke:none"/><rect style="opacity:.3;fill:url(#linearGradient7238);fill-opacity:1;stroke:none" id="rect10760" width="4" height="4" x="169" y="391"/><rect id="rect10762" width="4" height="4" x="161" y="391" style="opacity:.3;fill:url(#linearGradient7242);fill-opacity:1;stroke:none"/></g></g></g></svg>