<svg xmlns="http://www.w3.org/2000/svg" xmlns:osb="http://www.openswatchbook.org/uri/2009/osb" xmlns:svg="http://www.w3.org/2000/svg" xmlns:xlink="http://www.w3.org/1999/xlink" id="svg30571" width="24" height="24" version="1.1" viewBox="0 0 24 24"><defs id="defs30573"><linearGradient id="linearGradient7922" x1="142" x2="149" y1="445.992" y2="445.992" gradientTransform="matrix(1.5,0,0,1.4878815,-212.0003,375.27917)" gradientUnits="userSpaceOnUse" xlink:href="#linearGradient19282-4"/><linearGradient id="linearGradient19282-4" gradientTransform="matrix(0.23667958,0,0,0.20304569,-212.51307,96.938703)" osb:paint="solid"><stop style="stop-color:#bebebe;stop-opacity:1" id="stop19284-0" offset="0"/></linearGradient><linearGradient id="linearGradient7924" x1="147" x2="151" y1="446" y2="446" gradientTransform="matrix(1.5,0,0,1.5,-211.5003,369.8622)" gradientUnits="userSpaceOnUse" xlink:href="#linearGradient19282-4"/><linearGradient id="linearGradient7926" x1="148" x2="154" y1="446" y2="446" gradientTransform="matrix(1.8333333,0,0,1.625,-262.3337,314.11219)" gradientUnits="userSpaceOnUse" xlink:href="#linearGradient19282-4"/><linearGradient id="linearGradient7918" x1="-97" x2="-95" y1="226" y2="226" gradientTransform="matrix(1.5,0,0,1.5,149.5,694.86222)" gradientUnits="userSpaceOnUse" xlink:href="#linearGradient19282-4"/><linearGradient id="linearGradient7920" x1="144" x2="146" y1="449" y2="449" gradientTransform="matrix(1.5,0,0,1.5,-212.0003,370.36222)" gradientUnits="userSpaceOnUse" xlink:href="#linearGradient19282-4"/><linearGradient id="linearGradient7928" x1="-99" x2="-85" y1="229" y2="229" gradientTransform="matrix(1.5714285,0,0,1.5833334,156.57142,676.2789)" gradientUnits="userSpaceOnUse" xlink:href="#linearGradient19282-4"/><linearGradient id="linearGradient7930" x1="145" x2="153" y1="453.5" y2="453.5" gradientTransform="matrix(1.5,0,0,2,-211.5003,143.36222)" gradientUnits="userSpaceOnUse" xlink:href="#linearGradient19282-4"/></defs><metadata id="metadata30576"/><g id="layer1" transform="translate(0,-1028.3622)"><g id="g4321"><path style="fill:url(#linearGradient7922);fill-opacity:1;stroke:none;stroke-width:1.49392843" id="path11885" d="m 11.5,1040.3622 v -2.9758 c -5.98446,-0.011 -4.515705,-0.049 -10.5,0 v 2.9758 c 5.98245,-0.1534 4.51428,-0.021 10.5,0 z"/><path id="path11889" d="m 15,1038.8622 -6,-4.5 v 9 z" style="fill:url(#linearGradient7924);fill-opacity:1;stroke:none;stroke-width:1.5"/><path id="rect11909" d="m 9,1032.3622 9.166666,6.5 -9.166666,6.5 h 11 v -13 z" style="opacity:.3;fill:url(#linearGradient7926);fill-opacity:1;stroke:none;stroke-width:1.72602618"/><rect id="rect11917" width="3" height="3" x="4" y="1032.362" rx=".703" ry="0" style="opacity:.3;fill:url(#linearGradient7918);fill-opacity:1;stroke:none;stroke-width:1.5"/><rect style="opacity:.3;fill:url(#linearGradient7920);fill-opacity:1;stroke:none;stroke-width:1.5" id="rect11919" width="3" height="3" x="4" y="1042.362" rx=".75" ry="0"/><path id="rect11926" d="M 2.8660714,1029.3622 C 1.824692,1029.3622 1,1030.1931 1,1031.2425 v 15.2395 c 0,1.0493 0.824692,1.8802 1.8660714,1.8802 H 21.133929 c 1.041379,0 1.866071,-0.8309 1.866071,-1.8802 v -15.2395 c 0,-1.0494 -0.824692,-1.8803 -1.866071,-1.8803 z m 1.5714286,1 h 15.125 c 1.041379,0 2.4375,1.4143 2.4375,2.4636 v 12.0729 c 0,1.0492 -1.396121,2.4635 -2.4375,2.4635 H 4.4375 C 3.3961206,1047.3622 2,1045.9479 2,1044.8987 v -12.0729 c 0,-1.0493 1.3961206,-2.4636 2.4375,-2.4636 z" style="fill:url(#linearGradient7928);fill-opacity:1;stroke:none;stroke-width:1.57736969"/><rect id="rect11931" width="12" height="2" x="6" y="1049.362" rx="1.5" ry="1" style="fill:url(#linearGradient7930);fill-opacity:1;stroke:none;stroke-width:1.73205078"/></g></g></svg>