<svg xmlns="http://www.w3.org/2000/svg" xmlns:osb="http://www.openswatchbook.org/uri/2009/osb" xmlns:svg="http://www.w3.org/2000/svg" xmlns:xlink="http://www.w3.org/1999/xlink" id="svg7384" width="24" height="24" version="1.1" viewBox="0 0 24 24"><metadata id="metadata90"/><defs id="defs7386"><linearGradient id="linearGradient19282-4" gradientTransform="matrix(0.34682586,0,0,0.30620888,-99.352104,761.03849)" osb:paint="solid"><stop id="stop19284-0" offset="0" style="stop-color:#bebebe;stop-opacity:1"/></linearGradient><linearGradient id="linearGradient7476" x1="241" x2="246.047" y1="555.013" y2="555.013" gradientTransform="matrix(1.3867458,0,0,1.5049904,730.1133,-281.55957)" gradientUnits="userSpaceOnUse" xlink:href="#linearGradient19282-4"/><linearGradient id="linearGradient7478" x1="249" x2="254.547" y1="548" y2="548" gradientTransform="matrix(1.4996541,0,0,1.4999968,789.55839,-281.0457)" gradientUnits="userSpaceOnUse" xlink:href="#linearGradient19282-4"/><linearGradient id="linearGradient7480" x1="2" x2="16" y1="334" y2="334" gradientTransform="matrix(1.4996541,0,0,1.4999968,1150.9753,44.453611)" gradientUnits="userSpaceOnUse" xlink:href="#linearGradient19282-4"/></defs><g id="g4278"><path id="path13779" d="m 17.291177,1.0000252 c 0,0 -1.984163,4.1751361 -3.675427,7.499984 l -0.714331,1.4999968 v 1.499997 L 12.002767,13 h 1.499654 l 1.15025,-1.499997 1.198208,-0.632819 0.184338,-0.867178 4.285935,-8.9999808 z" style="color:#000;font-style:normal;font-variant:normal;font-weight:400;font-stretch:normal;font-size:medium;line-height:normal;font-family:Sans;-inkscape-font-specification:Sans;text-indent:0;text-align:start;text-decoration:none;text-decoration-line:none;letter-spacing:normal;word-spacing:normal;text-transform:none;writing-mode:lr-tb;direction:ltr;baseline-shift:baseline;text-anchor:start;display:inline;overflow:visible;visibility:visible;fill:url(#linearGradient7478);fill-opacity:1;stroke:none;stroke-width:2.99965072;marker:none;enable-background:new"/><path id="rect7357-4" d="m 1.7063879,12.000005 c -0.92285156,-0.0015 -1.69643327,0.834261 -1.70091246,1.882141 0.0180277,0.811461 0.00762715,2.287222 0,3.118022 l 2.99934226,-3.36e-4 -5.56e-5,-4.99163 -1.2998303,-0.0072 z M 4.0045614,12 l -2.78e-5,5.000188 2.9350029,-3.77e-4 c 0.014145,-0.834049 0.057828,-2.274494 0.064345,-3.076654 0.00137,-1.047834 -0.7347396,-1.89555 -1.6576604,-1.900712 L 4.0045892,12.00893 Z m -3.99908596,5.999985 c -0.01248072,0.906636 3.1841e-4,1.188591 4.107e-5,2.023124 -0.00832048,2.192365 1.56819889,3.966041 3.49915919,3.976847 1.9309325,0.01053 3.462346,-1.745563 3.4718592,-3.937988 -0.035085,-0.911949 -0.045625,-1.197231 -0.037027,-2.061953 z" style="fill:url(#linearGradient7476);fill-opacity:1;stroke:none;stroke-width:1.44465888"/><path id="path13869" d="M 4.5044964,4.0000322 3.0048423,10.000019 h 2.1088885 c 0.2040839,10e-4 -0.023717,0 1.5933824,0 L 7.5038045,7.0000258 h 4.9988145 l 1.499658,-2.9999936 z m 16.4961946,0 -2.624394,5.3437386 1.12474,6.6562362 H 9.0034585 V 19 H 24 Z" style="fill:url(#linearGradient7480);fill-opacity:1;stroke:none;stroke-width:1.49982536"/></g></svg>