<svg xmlns="http://www.w3.org/2000/svg" xmlns:osb="http://www.openswatchbook.org/uri/2009/osb" xmlns:svg="http://www.w3.org/2000/svg" xmlns:xlink="http://www.w3.org/1999/xlink" id="svg7384" width="24" height="24" version="1.1" viewBox="0 0 24 24"><metadata id="metadata90"/><defs id="defs7386"><linearGradient id="linearGradient19282-4" gradientTransform="matrix(0.34682586,0,0,0.30620888,-139.35207,801.03851)" osb:paint="solid"><stop id="stop19284-0" offset="0" style="stop-color:#bebebe;stop-opacity:1"/></linearGradient><linearGradient id="linearGradient8328" x1="0" x2="16" y1="8" y2="8" gradientTransform="translate(877.5614,399.10288)" gradientUnits="userSpaceOnUse" xlink:href="#linearGradient19282-4"/></defs><g style="display:inline" id="preferences" transform="matrix(1.5,0,0,1.5,-396.36118,-361.65432)"><g id="gimp-prefs-folders-icon-themes" transform="translate(249.24079,281.10288)" style="display:inline"><path id="rect3845-9" d="M 0.53125,0 C 0.24212,0 0,0.24212 0,0.53125 v 14.9375 C 0,15.76725 0.23264,16 0.53125,16 h 14.9375 C 15.76735,16 16,15.76735 16,15.46875 V 5.8333333 c 0,-0.2891 -0.242229,-0.4920612 -0.53125,-0.5 H 3.33333 V 13.5 c 0,0.277 -0.3896667,0.5 -0.6666667,0.5 C 2.3896633,14 2,13.777 2,13.5 v -9 C 2,4.223 2.223,4 2.5,4 H 5.46875 14 V 2.59375 C 14,2.26655 13.73334,2 13.40625,2 H 6 V 0.53125 C 6,0.2421 5.75788,0 5.46875,0 Z m 13.837891,5.8164062 c 0.2873,2.9816271 0.221464,6.5824898 -1.44336,6.9882818 -0.389607,-0.259753 -0.523426,-0.38889 -0.949219,-0.607422 0.185706,-0.18408 0.314454,-0.314449 0.314454,-0.314454 0,0 -0.03182,-0.03897 0.291015,0.328126 0.04618,-0.767759 -0.658184,-1.336574 -1.199219,-1.34961 l 0.5,0.539063 c -0.952733,1.456556 -3.3574214,0.314453 -3.3574214,0.314453 0,0 1.0788724,1.064821 2.3554684,1.058594 0.0515,-5.32e-4 0.0076,0.0027 0.05664,-0.0039 0.185515,0.203655 0.32962,0.433177 0.652344,0.671875 C 9.8845656,13.859721 7.873989,12.740442 6.7109375,11.734375 6.1411218,11.871254 5.4518297,11.496058 5.1464844,10.882812 4.8320364,10.249792 5.0427024,9.5994378 5.6171875,9.4296875 6.1916808,9.2597953 6.9128843,9.6348211 7.2285156,10.267578 c 0.051844,0.106488 0.089968,0.216261 0.1132813,0.326172 0.00295,-0.0085 0.013672,-0.02734 0.013672,-0.02734 0,0 0.908246,-1.1874844 0.59375,-4.1562498 0,0 0.06263,1.783048 2.9511721,1.7988282 3.402219,0.018699 3.46875,-2.392578 3.46875,-2.3925782 z m -2.429688,2.671875 c -0.569893,0 -1.039062,0.4674597 -1.039062,1.0390626 0,0.5715872 0.469169,1.0390622 1.039062,1.0390622 0.569893,0 1.039063,-0.467475 1.039063,-1.0390622 0,-0.5716032 -0.46917,-1.0390626 -1.039063,-1.0390626 z m -2.4687499,0.296875 c -0.4904269,0 -0.890625,0.3987573 -0.890625,0.890625 0,0.4918888 0.4001981,0.8906248 0.890625,0.8906248 0.4904111,0 0.8730469,-0.398736 0.8730469,-0.8906248 0,-0.4918677 -0.3826358,-0.890625 -0.8730469,-0.890625 z m 1.8691409,0.3945313 c 0.220268,1.791e-4 0.398669,0.1759567 0.398437,0.3925781 2.32e-4,0.2166214 -0.178169,0.3923991 -0.398437,0.3925782 -0.220269,-1.786e-4 -0.39867,-0.1759564 -0.398438,-0.3925782 -2.32e-4,-0.2166218 0.17817,-0.3923995 0.398438,-0.3925781 z M 9.1464844,9.3613281 c 0.1725954,0 0.3125,0.1366995 0.3125,0.3046875 0,0.1679775 -0.1399046,0.3046875 -0.3125,0.3046875 -0.1725902,0 -0.3125,-0.13671 -0.3125,-0.3046875 0,-0.167988 0.1399098,-0.3046875 0.3125,-0.3046875 z m 2.2773436,2.8984379 c 0.03734,0.002 0.08181,0.02056 0.13086,0.0625 0,0 1.037131,0.639173 1.632812,1.318359 0.493414,0.204619 0.759128,0.863006 0.783203,1.609375 0,0 0.05688,-0.376071 -1.121094,-0.560547 -0.613512,-0.09609 -0.684436,-0.704651 -0.380859,-0.980469 -0.592296,-0.519232 -1.115234,-1.175781 -1.115234,-1.175781 -0.09023,-0.134545 -0.04171,-0.279489 0.07031,-0.273437 z" transform="translate(15,-40)" style="display:inline;fill:url(#linearGradient8328);fill-opacity:1;stroke:none"/></g></g></svg>