<svg xmlns="http://www.w3.org/2000/svg" xmlns:osb="http://www.openswatchbook.org/uri/2009/osb" xmlns:svg="http://www.w3.org/2000/svg" xmlns:xlink="http://www.w3.org/1999/xlink" id="svg7384" width="24" height="24" version="1.1" viewBox="0 0 24 24"><metadata id="metadata90"/><defs id="defs7386"><linearGradient id="linearGradient19282-4" gradientTransform="matrix(0.34682586,0,0,0.30620888,-159.35206,741.03851)" osb:paint="solid"><stop id="stop19284-0" offset="0" style="stop-color:#bebebe;stop-opacity:1"/></linearGradient><linearGradient id="linearGradient8137" x1="1.982" x2="4" y1="30" y2="30" gradientTransform="matrix(0.99999747,0,0,1.047619,897.4869,348.10277)" gradientUnits="userSpaceOnUse" xlink:href="#linearGradient19282-4"/><linearGradient id="linearGradient8141" x1="16" x2="30" y1="8" y2="8" gradientTransform="matrix(1.047619,0,0,1.047619,939.11799,348.96051)" gradientUnits="userSpaceOnUse" xlink:href="#linearGradient19282-4"/></defs><g style="display:inline" id="preferences" transform="matrix(1.5,0,0,1.5,-426.23351,-263.19348)"><g id="gimp-prefs-image-title" transform="translate(289.15566,155.46232)"><g id="g724" transform="translate(-20,20)"><path style="fill:url(#linearGradient8141);fill-opacity:1;stroke:none;stroke-width:1.0476191" id="path15296" d="M 15.66668,0.66666666 V 15.333333 H 30.333347 V 0.66666666 Z M 17.000013,2 h 12 v 2 h -12 z m 0,2.6666667 h 12 V 14 h -12 z"/></g><path id="path12109-0" d="m 2.9785234,26 -3.97851007,4 H 2.0410257 c 0.01,1.049012 0.005,2.288783 -0.0469,3.333333 h 1.999995 c 0.0163,-1.044874 0.004,-2.284352 0.002,-3.333333 H 7.0000133 L 4.0000208,27.063993 c -10e-6,-0.0052 2e-5,-0.0109 0,-0.01634 h -0.0156 z" style="fill:url(#linearGradient8137);fill-opacity:1;stroke:none;stroke-width:1.02353144"/></g></g></svg>