<svg xmlns="http://www.w3.org/2000/svg" xmlns:osb="http://www.openswatchbook.org/uri/2009/osb" xmlns:svg="http://www.w3.org/2000/svg" xmlns:xlink="http://www.w3.org/1999/xlink" id="svg30571" width="24" height="24" version="1.1" viewBox="0 0 24 24"><defs id="defs30573"><linearGradient id="linearGradient19282-4" gradientTransform="matrix(0.34682586,0,0,0.30620888,-482.61525,330.965)" osb:paint="solid"><stop style="stop-color:#bebebe;stop-opacity:1" id="stop19284-0" offset="0"/></linearGradient><linearGradient id="linearGradient10598" x1="104" x2="114.283" y1="225" y2="225" gradientTransform="matrix(1.4587606,0,0,1.5,-148.2114,702.8622)" gradientUnits="userSpaceOnUse" xlink:href="#linearGradient19282-4"/><linearGradient id="linearGradient10604" x1="-131" x2="-125" y1="13" y2="13" gradientTransform="matrix(1.5,0,0,1.5,209,1028.3622)" gradientUnits="userSpaceOnUse" xlink:href="#linearGradient19282-4"/><linearGradient id="linearGradient10610" x1="102" x2="108" y1="230" y2="230" gradientTransform="matrix(1.5,0,0,1.5,-152.5003,702.8622)" gradientUnits="userSpaceOnUse" xlink:href="#linearGradient19282-4"/><linearGradient id="linearGradient10628" x1="-133" x2="-132" y1="5.5" y2="5.5" gradientTransform="matrix(2,0,0,2,275.99999,1025.3622)" gradientUnits="userSpaceOnUse" xlink:href="#linearGradient19282-4"/><linearGradient id="linearGradient10626" x1="108" x2="109" y1="220.5" y2="220.5" gradientTransform="matrix(2,0,0,2,-206.00039,592.36219)" gradientUnits="userSpaceOnUse" xlink:href="#linearGradient19282-4"/><linearGradient id="linearGradient10624" x1="-133" x2="-132" y1="1.5" y2="1.5" gradientTransform="matrix(2,0,0,2,275.99999,1027.3622)" gradientUnits="userSpaceOnUse" xlink:href="#linearGradient19282-4"/><linearGradient id="linearGradient10622" x1="-131" x2="-130" y1="1.5" y2="1.5" gradientTransform="matrix(2,0,0,2,274.99999,1027.3622)" gradientUnits="userSpaceOnUse" xlink:href="#linearGradient19282-4"/><linearGradient id="linearGradient10620" x1="-129" x2="-128" y1="1.5" y2="1.5" gradientTransform="matrix(2,0,0,2,273.99999,1027.3622)" gradientUnits="userSpaceOnUse" xlink:href="#linearGradient19282-4"/><linearGradient id="linearGradient10618" x1="-127" x2="-126" y1="1.5" y2="1.5" gradientTransform="matrix(2,0,0,2,272.99999,1027.3622)" gradientUnits="userSpaceOnUse" xlink:href="#linearGradient19282-4"/><linearGradient id="linearGradient10616" x1="-125" x2="-124" y1="1.5" y2="1.5" gradientTransform="matrix(2,0,0,2,271.99999,1027.3622)" gradientUnits="userSpaceOnUse" xlink:href="#linearGradient19282-4"/></defs><metadata id="metadata30576"/><g id="layer1" transform="translate(0,-1028.3622)"><g id="g10586"><path id="rect4875" d="m 4.8701409,1032.8622 c -1.325532,0.575 -1.758142,1.8258 -0.9928616,2.8216 l 5.5255081,7.5568 -2.1828748,2.4575 1.767624,2.1641 2.0124624,-2.5784 1.973411,2.5784 1.751432,-2.0723 -2.127631,-2.5493 5.525508,-7.5568 c 0.765295,-0.9958 0.332655,-2.2466 -0.992877,-2.8216 l -6.129843,8.3027 z" style="fill:url(#linearGradient10598);fill-opacity:1;stroke:none;stroke-width:1.4792366"/><path id="path12605" d="m 17,1043.3622 c -2.485275,0 -4.5,2.0147 -4.5,4.5 0,2.4853 2.014725,4.5 4.5,4.5 2.485275,0 4.5,-2.0147 4.5,-4.5 0,-2.4853 -2.014725,-4.5 -4.5,-4.5 z m 0,2.5 a 2,2 0 0 1 2,2 2,2 0 0 1 -2,2 2,2 0 0 1 -2,-2 2,2 0 0 1 2,-2 z" style="fill:url(#linearGradient10604);fill-opacity:1;stroke:none;stroke-width:1.5"/><path id="path12608" d="m 5,1043.3622 c -2.485275,0 -4.5,2.0147 -4.5,4.5 0,2.4853 2.014725,4.5 4.5,4.5 2.485275,0 4.5,-2.0147 4.5,-4.5 0,-2.4853 -2.014725,-4.5 -4.5,-4.5 z m 0,2.5 a 2,2 0 0 1 2,2 2,2 0 0 1 -2,2 2,2 0 0 1 -2,-2 2,2 0 0 1 2,-2 z" style="fill:url(#linearGradient10610);fill-opacity:1;stroke:none;stroke-width:1.5"/><rect id="rect12610" width="2" height="2" x="10" y="1035.362" style="fill:url(#linearGradient10628);fill-opacity:1;stroke:none;stroke-width:2"/><rect id="rect12612" width="2" height="2" x="10" y="1032.362" style="fill:url(#linearGradient10626);fill-opacity:1;stroke:none;stroke-width:2"/><rect id="rect12614" width="2" height="2" x="10" y="1029.362" style="fill:url(#linearGradient10624);fill-opacity:1;stroke:none;stroke-width:2"/><rect id="rect12616" width="2" height="2" x="13" y="1029.362" style="fill:url(#linearGradient10622);fill-opacity:1;stroke:none;stroke-width:2"/><rect id="rect12618" width="2" height="2" x="16" y="1029.362" style="fill:url(#linearGradient10620);fill-opacity:1;stroke:none;stroke-width:2"/><rect id="rect12620" width="2" height="2" x="19" y="1029.362" style="fill:url(#linearGradient10618);fill-opacity:1;stroke:none;stroke-width:2"/><rect id="rect12622" width="2" height="2" x="22" y="1029.362" style="fill:url(#linearGradient10616);fill-opacity:1;stroke:none;stroke-width:2"/></g></g></svg>