<svg xmlns="http://www.w3.org/2000/svg" xmlns:osb="http://www.openswatchbook.org/uri/2009/osb" xmlns:svg="http://www.w3.org/2000/svg" xmlns:xlink="http://www.w3.org/1999/xlink" id="svg7384" width="24" height="24" version="1.1" viewBox="0 0 24 24"><metadata id="metadata90"/><defs id="defs7386"><linearGradient id="linearGradient19282-4" gradientTransform="matrix(0.34682586,0,0,0.30620888,-159.35207,801.03851)" osb:paint="solid"><stop id="stop19284-0" offset="0" style="stop-color:#bebebe;stop-opacity:1"/></linearGradient><linearGradient id="linearGradient8264" x1="-2" x2="8" y1="-26" y2="-26" gradientTransform="matrix(1.6000001,0,0,1.5,1339.1733,560.69348)" gradientUnits="userSpaceOnUse" xlink:href="#linearGradient19282-4"/><linearGradient id="linearGradient8270" x1="-5" x2="11" y1="-33" y2="-33" gradientTransform="matrix(1.5,0,0,1.7000001,1256.2249,633.48596)" gradientUnits="userSpaceOnUse" xlink:href="#linearGradient19282-4"/><linearGradient id="linearGradient8276" x1="-2" x2="0" y1="-33" y2="-33" gradientTransform="matrix(2,0,0,1.8333333,1672.9665,682.34758)" gradientUnits="userSpaceOnUse" xlink:href="#linearGradient19282-4"/><linearGradient id="linearGradient8278" x1="2" x2="4" y1="-33" y2="-33" gradientTransform="matrix(2,0,0,1.8333333,1670.9665,682.34757)" gradientUnits="userSpaceOnUse" xlink:href="#linearGradient19282-4"/><linearGradient id="linearGradient8280" x1="6" x2="8" y1="-33" y2="-33" gradientTransform="matrix(2,0,0,1.8333333,1668.9665,682.34757)" gradientUnits="userSpaceOnUse" xlink:href="#linearGradient19282-4"/></defs><g id="g4273"><path id="rect28283-2" d="M 1.781255,2 C 0.79958,2 5e-6,2.887553 5e-6,4.01875 v 12.9625 C 5e-6,18.112447 0.79958,19 1.781255,19 h 11.34375 8.90625 c 0.950211,0 1.919753,-0.620819 1.96875,-1.7 v 0 l -0.09375,-6.8 0.09375,-6.8 v 0 C 23.951015,2.6208179 22.981466,2 22.031255,2 h -8.90625 z m 1.6171825,1 h 8.7187495 8.484375 C 21.583237,3 23,4.268803 23,5.4 v 10.2 c 0,1.131197 -1.537269,2.480718 -2.51562,2.4 H 12.000005 3.281255 C 2.29958,18 1,16.412447 1,15.28125 V 5.71875 C 1,4.587553 2.4167625,3 3.3984375,3 Z" style="fill:url(#linearGradient8270);fill-opacity:1;stroke:none;stroke-width:1.59687197"/><rect id="rect28290-7" width="16" height="3" x="4" y="20" rx="1.914" ry="1.794" style="fill:url(#linearGradient8264);fill-opacity:1;stroke:none;stroke-width:1.54919338"/><rect id="rect67589" width="4" height="11" x="4" y="5" rx="2.392" ry="2.193" style="opacity:.3;fill:url(#linearGradient8276);fill-opacity:1;stroke:none;stroke-width:1.91485417"/><rect style="opacity:.3;fill:url(#linearGradient8278);fill-opacity:1;stroke:none;stroke-width:1.91485429" id="rect67591" width="4" height="11" x="10" y="5" rx="2.392" ry="2.193"/><rect id="rect67593" width="4" height="11" x="16" y="5" rx="2.392" ry="2.193" style="opacity:.3;fill:url(#linearGradient8280);fill-opacity:1;stroke:none;stroke-width:1.91485417"/></g></svg>