<svg xmlns="http://www.w3.org/2000/svg" xmlns:osb="http://www.openswatchbook.org/uri/2009/osb" xmlns:svg="http://www.w3.org/2000/svg" xmlns:xlink="http://www.w3.org/1999/xlink" id="svg30571" width="24" height="24" version="1.1" viewBox="0 0 24 24"><defs id="defs30573"><linearGradient id="linearGradient19282-4" gradientTransform="matrix(0.34682586,0,0,0.30620888,-482.61525,330.965)" osb:paint="solid"><stop style="stop-color:#bebebe;stop-opacity:1" id="stop19284-0" offset="0"/></linearGradient><linearGradient id="linearGradient7060" x1="295.703" x2="311.703" y1="305.369" y2="305.369" gradientUnits="userSpaceOnUse" xlink:href="#linearGradient19282-4"/></defs><metadata id="metadata30576"/><g id="layer1" transform="translate(0,-1028.3622)"><g style="display:inline" id="gimp-tool-move" transform="matrix(1.4999514,0,0,1.4999514,-151.49461,732.87254)"><path style="fill:url(#linearGradient7060);fill-opacity:1;stroke:none" id="path74740" d="m 303.70338,297.3695 -3.33336,2.66678 h 2.66667 v 4.67756 c -1.34341,-0.0101 -3.32302,-0.0211 -4.66682,-0.0293 v -2.64822 l -2.66675,3.33344 2.66675,3.33344 v -2.66675 c 1.34376,-9e-5 3.32305,-0.003 4.66682,0 0,1.5556 0,3.11121 0,4.66681 h -2.66683 l 3.33352,2.66676 3.33344,-2.66676 h -2.66675 c 0,-1.5556 0,-3.11121 0,-4.66681 1.33334,9e-4 3.33349,0.004 4.66681,0 v 2.66675 l 2.66676,-3.33344 -2.66676,-3.33344 v 2.65018 c -1.33322,0.0235 -3.33298,0.0388 -4.66681,0.0351 v -4.68537 h 2.66675 z" transform="translate(-194.70344,-100.37001)"/></g></g></svg>