<svg xmlns="http://www.w3.org/2000/svg" xmlns:osb="http://www.openswatchbook.org/uri/2009/osb" xmlns:svg="http://www.w3.org/2000/svg" xmlns:xlink="http://www.w3.org/1999/xlink" id="svg30571" width="24" height="24" version="1.1" viewBox="0 0 24 24"><defs id="defs30573"><linearGradient id="linearGradient7105" x1="-100" x2="-84" y1="392.5" y2="392.5" gradientUnits="userSpaceOnUse" xlink:href="#linearGradient19282-4"/><linearGradient id="linearGradient19282-4" gradientTransform="matrix(0.23667958,0,0,0.20304569,-212.51307,96.938703)" osb:paint="solid"><stop style="stop-color:#bebebe;stop-opacity:1" id="stop19284-0" offset="0"/></linearGradient><linearGradient id="linearGradient7107" x1="140.956" x2="148.075" y1="604.648" y2="604.648" gradientUnits="userSpaceOnUse" xlink:href="#linearGradient19282-4"/><linearGradient id="linearGradient7103" x1="149.956" x2="157" y1="604.648" y2="604.648" gradientUnits="userSpaceOnUse" xlink:href="#linearGradient19282-4"/></defs><metadata id="metadata30576"/><g id="layer1" transform="translate(0,-1028.3622)"><g style="display:inline" id="gimp-display-filter" transform="matrix(1.5,0,0,1.5,-211.5003,129.8622)"><path id="path8303" d="m -96.5,389 c -1.933,0 -3.5,1.567 -3.5,3.5 0,1.933 1.567,3.5 3.5,3.5 1.765268,0 3.228659,-1.301 3.46875,-3 0.01078,3.4e-4 0.02039,-0.33333 0.03125,-0.33333 h 2 c 0.01086,0 0.02047,0.33367 0.03125,0.33333 0.240091,1.699 1.703482,3 3.46875,3 1.933,0 3.5,-1.567 3.5,-3.5 0,-1.933 -1.567,-3.5 -3.5,-3.5 -1.424592,0 -2.641241,0.84103 -3.1875,2.0625 -0.131452,0.245 -0.156658,0.22917 -0.270717,0.22917 h -2 c -0.114059,0 -0.237558,0.0305 -0.3986,-0.37648 C -93.903076,389.69372 -95.075408,389 -96.5,389 Z m 0.0625,1.40625 c 1.17613,0 2.125,0.93497 2.125,2.09375 0,1.15878 -0.94887,2.16667 -2.125,2.16667 -1.17613,0 -2.125,-1.00789 -2.125,-2.16667 0,-1.15878 0.94887,-2.09375 2.125,-2.09375 z m 9,0 c 1.17613,0 2.125,0.93497 2.125,2.09375 0,1.15878 -0.94887,2.16667 -2.125,2.16667 -1.17613,0 -2.125,-1.00789 -2.125,-2.16667 0,-1.15878 0.94887,-2.09375 2.125,-2.09375 z" transform="translate(241.0002,217)" style="fill:url(#linearGradient7105);fill-opacity:1;stroke:none"/><path id="path8315" d="m 147.5,600 c -0.86837,0 -1.5145,0.30761 -1.9375,0.61363 -0.423,0.30602 -0.65625,0.64773 -0.65625,0.64773 -0.0109,0.0109 -0.0213,0.0222 -0.0313,0.0341 l -3.60739,7.02647 c -0.1507,0.25054 -0.30326,0.76421 -0.0648,0.9129 0.2385,0.14868 0.58202,0.034 0.70339,-0.23483 l 3.8125,-7.12496 c 0.594,-1.25004 1.7813,-0.7841 1.7813,-0.7841 0.28493,0.0434 0.57471,-0.2316 0.57471,-0.54545 0,-0.31385 -0.28978,-0.58888 -0.57471,-0.54545 z" style="color:#000;font-style:normal;font-variant:normal;font-weight:400;font-stretch:normal;font-size:medium;line-height:normal;font-family:Sans;-inkscape-font-specification:Sans;text-indent:0;text-align:start;text-decoration:none;text-decoration-line:none;letter-spacing:normal;word-spacing:normal;text-transform:none;writing-mode:lr-tb;direction:ltr;baseline-shift:baseline;text-anchor:start;display:inline;overflow:visible;visibility:visible;fill:url(#linearGradient7107);fill-opacity:1;stroke:none;stroke-width:1.00960875;marker:none;enable-background:accumulate"/><path style="color:#000;font-style:normal;font-variant:normal;font-weight:400;font-stretch:normal;font-size:medium;line-height:normal;font-family:Sans;-inkscape-font-specification:Sans;text-indent:0;text-align:start;text-decoration:none;text-decoration-line:none;letter-spacing:normal;word-spacing:normal;text-transform:none;writing-mode:lr-tb;direction:ltr;baseline-shift:baseline;text-anchor:start;display:inline;overflow:visible;visibility:visible;fill:url(#linearGradient7103);fill-opacity:1;stroke:none;stroke-width:1.00960875;marker:none;enable-background:accumulate" id="path8321" d="m 150.52437,600 c 0.85928,0 1.49864,0.30761 1.91722,0.61363 0.41857,0.30602 0.64938,0.64773 0.64938,0.64773 0.0108,0.0109 0.0211,0.0222 0.031,0.0341 l 3.58193,6.79077 c 0.14913,0.25054 0.28779,0.99991 0.0518,1.1486 -0.236,0.14868 -0.57593,0.034 -0.69603,-0.23483 l -3.7726,-7.12496 c -0.58778,-1.25004 -1.76265,-0.7841 -1.76265,-0.7841 -0.28195,0.0434 -0.5687,-0.2316 -0.5687,-0.54545 0,-0.31385 0.28675,-0.58888 0.5687,-0.54545 z"/></g></g></svg>