<svg xmlns="http://www.w3.org/2000/svg" xmlns:osb="http://www.openswatchbook.org/uri/2009/osb" xmlns:svg="http://www.w3.org/2000/svg" xmlns:xlink="http://www.w3.org/1999/xlink" id="svg30571" width="24" height="24" version="1.1" viewBox="0 0 24 24"><defs id="defs30573"><linearGradient id="linearGradient19282-4" gradientTransform="matrix(0.34682586,0,0,0.30620888,-482.61525,330.965)" osb:paint="solid"><stop style="stop-color:#bebebe;stop-opacity:1" id="stop19284-0" offset="0"/></linearGradient><linearGradient id="linearGradient10538-0" x1="83" x2="95" y1="249.5" y2="249.5" gradientTransform="matrix(1.6641419,0,0,1.6666667,-136.12411,632.02891)" gradientUnits="userSpaceOnUse" xlink:href="#linearGradient19282-4"/><linearGradient id="linearGradient10526-8" x1="84" x2="94" y1="245.5" y2="245.5" gradientTransform="matrix(1.6000001,0,0,1.6024275,-130.40033,647.96024)" gradientUnits="userSpaceOnUse" xlink:href="#linearGradient19282-4"/><linearGradient id="linearGradient10532-7" x1="-155" x2="-148" y1="24" y2="24" gradientTransform="matrix(0.85584525,0,0,1.5,141.65601,999.36226)" gradientUnits="userSpaceOnUse" xlink:href="#linearGradient19282-4"/></defs><metadata id="metadata30576"/><g id="layer1" transform="translate(55.699693,-1023.6168)"><g style="display:inline" id="gimp-tool-clone-24" transform="translate(-55.699693,-4.7453569)"><rect id="rect5537-4" width="24" height="24" x="0" y="1028.362" rx="1.125" ry="0" style="opacity:0;fill:none;fill-opacity:1;stroke:none;stroke-width:1.50113726"/><path id="rect5543-0" d="m 2,1045.3622 v 5 h 9.984852 L 9,1045.3622 Z m 9.984852,5 h 9.98485 v -5 H 15 Z" style="fill:url(#linearGradient10538-0);fill-opacity:1;stroke:none;stroke-width:1.66540396"/><path id="rect5545-9" d="m 4,1044.1189 c 0,0 6.400003,0 6.400003,-6.2163 1.600001,-1.2433 3.200001,0 3.200001,0 0,6.2163 6.399996,6.2163 6.399996,6.2163 v 1.2433 H 4 Z" style="fill:url(#linearGradient10526-8);fill-opacity:1;stroke:none;stroke-width:1.60121334"/><path style="fill:url(#linearGradient10532-7);fill-opacity:1;stroke:none;stroke-width:1.13303483" id="path5547-9" d="m 14.990915,1035.3622 a 2.9954584,3 0 0 1 -2.995458,3 2.9954584,3 0 0 1 -2.9954587,-3 2.9954584,3 0 0 1 2.9954587,-3 2.9954584,3 0 0 1 2.995458,3 z"/></g></g></svg>