<svg xmlns="http://www.w3.org/2000/svg" xmlns:osb="http://www.openswatchbook.org/uri/2009/osb" xmlns:svg="http://www.w3.org/2000/svg" xmlns:xlink="http://www.w3.org/1999/xlink" id="svg30571" width="24" height="24" version="1.1" viewBox="0 0 24 24"><defs id="defs30573"><linearGradient id="linearGradient19282-4" gradientTransform="matrix(0.34682586,0,0,0.30620888,-482.61525,330.965)" osb:paint="solid"><stop style="stop-color:#bebebe;stop-opacity:1" id="stop19284-0" offset="0"/></linearGradient><linearGradient id="linearGradient7345-8" x1="-178.031" x2="-174" y1="-39.984" y2="-39.984" gradientTransform="matrix(1.4883721,0,0,1.4883721,264.97678,1093.8973)" gradientUnits="userSpaceOnUse" xlink:href="#linearGradient19282-4"/><linearGradient id="linearGradient7363-5" x1="-178.031" x2="-174" y1="-39.984" y2="-39.984" gradientTransform="matrix(1.4883721,0,0,1.4883721,264.97674,1108.8738)" gradientUnits="userSpaceOnUse" xlink:href="#linearGradient19282-4"/><linearGradient id="linearGradient7357-3" x1="-178.031" x2="-174" y1="-39.984" y2="-39.984" gradientTransform="matrix(1.488372,0,0,1.4883721,282.97674,1105.8739)" gradientUnits="userSpaceOnUse" xlink:href="#linearGradient19282-4"/><linearGradient id="linearGradient7351-7" x1="-178.031" x2="-174" y1="-39.984" y2="-39.984" gradientTransform="matrix(1.4883721,0,0,1.4883721,281.97674,1090.8738)" gradientUnits="userSpaceOnUse" xlink:href="#linearGradient19282-4"/><linearGradient id="linearGradient7333-2" x1="82.25" x2="95.882" y1="225.359" y2="225.359" gradientTransform="matrix(1.4970767,0,0,1.4999996,-121.2401,702.86229)" gradientUnits="userSpaceOnUse" xlink:href="#linearGradient19282-4"/><linearGradient id="linearGradient7339-4" x1="-178.031" x2="-174" y1="-39.984" y2="-39.984" gradientTransform="matrix(1.4883721,0,0,1.4883721,273.97674,1101.8738)" gradientUnits="userSpaceOnUse" xlink:href="#linearGradient19282-4"/></defs><metadata id="metadata30576"/><g id="layer1" transform="translate(21.437509,-1030.1747)"><g style="display:inline" id="gimp-tool-cage-24" transform="translate(-21.437503,1.8125)"><path style="color:#000;display:inline;overflow:visible;visibility:visible;fill:url(#linearGradient7345-8);fill-opacity:1;stroke:none;stroke-width:1.48837185;marker:none;enable-background:new" id="path3908-1" d="m 6.0000274,1034.3856 a 3,3 0 0 1 -3,3 3,3 0 0 1 -2.999999981863,-3 3,3 0 0 1 2.999999981863,-3 3,3 0 0 1 3,3 z"/><path style="color:#000;display:inline;overflow:visible;visibility:visible;fill:url(#linearGradient7363-5);fill-opacity:1;fill-rule:nonzero;stroke:none;stroke-width:1.48837173;marker:none;enable-background:new" id="path3910-5" d="m 5.999994,1049.3622 a 3,3 0 0 1 -3,3 3,3 0 0 1 -2.9999999604645,-3 3,3 0 0 1 2.9999999604645,-3 3,3 0 0 1 3,3 z"/><path style="color:#000;display:inline;overflow:visible;visibility:visible;fill:url(#linearGradient7357-3);fill-opacity:1;fill-rule:nonzero;stroke:none;stroke-width:1.48837173;marker:none;enable-background:new" id="path3912-2" d="m 24,1046.3622 a 3,3 0 0 1 -3,3 3,3 0 0 1 -3,-3 3,3 0 0 1 3,-3 3,3 0 0 1 3,3 z"/><path style="color:#000;display:inline;overflow:visible;visibility:visible;fill:url(#linearGradient7351-7);fill-opacity:1;fill-rule:nonzero;stroke:none;stroke-width:1.48837173;marker:none;enable-background:new" id="path3914-1" d="m 23,1031.3622 a 3,3 0 0 1 -3,3 3,3 0 0 1 -3,-3 3,3 0 0 1 3,-3 3,3 0 0 1 3,3 z"/><path style="color:#000;font-style:normal;font-variant:normal;font-weight:400;font-stretch:normal;font-size:medium;line-height:normal;font-family:sans-serif;font-variant-ligatures:normal;font-variant-position:normal;font-variant-caps:normal;font-variant-numeric:normal;font-variant-alternates:normal;font-feature-settings:normal;text-indent:0;text-align:start;text-decoration:none;text-decoration-line:none;text-decoration-style:solid;text-decoration-color:#000;letter-spacing:normal;word-spacing:normal;text-transform:none;writing-mode:lr-tb;direction:ltr;text-orientation:mixed;dominant-baseline:auto;baseline-shift:baseline;text-anchor:start;white-space:normal;shape-padding:0;clip-rule:nonzero;display:inline;overflow:visible;visibility:visible;opacity:1;isolation:auto;mix-blend-mode:normal;color-interpolation:sRGB;color-interpolation-filters:linearRGB;solid-color:#000;solid-opacity:1;vector-effect:none;fill:url(#linearGradient7333-2);fill-opacity:1;fill-rule:nonzero;stroke:none;stroke-width:2.24780607;stroke-linecap:butt;stroke-linejoin:miter;stroke-miterlimit:4;stroke-dasharray:none;stroke-dashoffset:0;stroke-opacity:1;marker:none;color-rendering:auto;image-rendering:auto;shape-rendering:auto;text-rendering:auto;enable-background:new" id="rect3916-8" d="m 21.039062,1030.0371 -19.1621089,3.3828 v 0.9414 17.2989 l 10.2812499,-7.9981 10.087891,4.4844 z m -2.076171,2.6484 0.792968,11.8946 -7.914062,-3.5176 -7.7187501,6.002 v -11.7598 z"/><path style="color:#000;display:inline;overflow:visible;visibility:visible;fill:url(#linearGradient7339-4);fill-opacity:1;stroke:none;stroke-width:1.48837173;marker:none;enable-background:new" id="path38587-3" d="m 15,1042.3622 a 3,3 0 0 1 -3,3 3,3 0 0 1 -3,-3 3,3 0 0 1 3,-3 3,3 0 0 1 3,3 z"/></g></g></svg>