<svg xmlns="http://www.w3.org/2000/svg" xmlns:svg="http://www.w3.org/2000/svg" id="svg30571" width="24" height="24" version="1.1" viewBox="0 0 24 24"><metadata id="metadata30576"/><g id="layer1" transform="translate(0,-1028.3622)"><g id="g4766"><path id="path2" d="m 10.580078,1042.3661 c -0.318412,-10e-5 -1.0595543,0 -1.580078,0 v 1.9643 h 2 v -1.9682 c -0.06781,0 -0.353208,0 -0.419922,0 z M 13,1042.372 v 1.9623 h 2 v -1.9584 c -0.390555,-7e-4 -1.629665,0 -2,0 z m -6,0 c -0.7571058,0 -1.3966717,0 -2,0.01 v 1.9545 h 2 z m 10,0.01 v 1.9545 h 2 v -1.9506 c -0.442413,-9e-4 -1.523571,0 -2,0 z m -14,0.01 c -1.2278557,0 -1.0749419,0 -3,0.01 l 0.00390625,7.9627 c 4.8801e-4,1.095 -0.14951124,1.9975 1.49999995,1.9975 H 22.496094 c 1.649511,0 1.499512,-0.9022 1.5,-1.9975 L 24,1042.3934 c -1.940993,0 -2.066277,0 -3,-0.01 v 1.9467 h 2 v 2.0268 h -2 v -1.9975 h -2 v 1.9975 h -2 v -1.9975 h -2 v 1.9975 h -2 v -1.9975 h -2 v 1.9975 H 9 v -1.9975 H 7 v 1.9975 H 5 v -1.9975 H 3 v 1.9975 H 1 v -2.0268 h 2 z m 0,4.9742 h 2 v 1.9975 H 3 Z m 4,0 h 2 v 1.9975 H 7 Z m 4,0 h 2 v 1.9975 h -2 z m 4,0 h 2 v 1.9975 h -2 z m 4,0 h 2 v 1.9975 h -2 z" style="fill:#bebebe;fill-opacity:1;stroke-width:1.22178757"/><rect id="rect4403-51-2" width="2" height="2.029" x="3" y="1040.334" style="opacity:.85;fill:#bebebe;fill-opacity:1;stroke:none;stroke-width:.92088717;stroke-miterlimit:4;stroke-dasharray:none;stroke-opacity:1;paint-order:stroke fill markers"/><rect id="rect4403-51-2-8" width="2" height="2.029" x="7" y="1040.334" style="opacity:.85;fill:#bebebe;fill-opacity:1;stroke:none;stroke-width:.92088717;stroke-miterlimit:4;stroke-dasharray:none;stroke-opacity:1;paint-order:stroke fill markers"/><rect id="rect4403-51-2-1" width="2" height="2.029" x="11" y="1040.334" style="opacity:.85;fill:#bebebe;fill-opacity:1;stroke:none;stroke-width:.92088717;stroke-miterlimit:4;stroke-dasharray:none;stroke-opacity:1;paint-order:stroke fill markers"/><rect id="rect4403-51-2-8-0" width="2" height="2.029" x="15" y="1040.334" style="opacity:.85;fill:#bebebe;fill-opacity:1;stroke:none;stroke-width:.92088717;stroke-miterlimit:4;stroke-dasharray:none;stroke-opacity:1;paint-order:stroke fill markers"/><rect id="rect4403-51-2-8-0-7" width="2" height="2.029" x="19" y="1040.334" style="opacity:.85;fill:#bebebe;fill-opacity:1;stroke:none;stroke-width:.92088717;stroke-miterlimit:4;stroke-dasharray:none;stroke-opacity:1;paint-order:stroke fill markers"/><rect id="rect4403-51-2-9" width="2" height="2.029" x="1" y="1038.334" style="opacity:.75;fill:#bebebe;fill-opacity:1;stroke:none;stroke-width:.92088717;stroke-miterlimit:4;stroke-dasharray:none;stroke-opacity:1;paint-order:stroke fill markers"/><rect id="rect4403-51-2-8-2" width="2" height="2.029" x="5" y="1038.334" style="opacity:.75;fill:#bebebe;fill-opacity:1;stroke:none;stroke-width:.92088717;stroke-miterlimit:4;stroke-dasharray:none;stroke-opacity:1;paint-order:stroke fill markers"/><rect id="rect4403-51-2-1-1" width="2" height="2.029" x="9" y="1038.334" style="opacity:.75;fill:#bebebe;fill-opacity:1;stroke:none;stroke-width:.92088717;stroke-miterlimit:4;stroke-dasharray:none;stroke-opacity:1;paint-order:stroke fill markers"/><rect id="rect4403-51-2-8-0-6" width="2" height="2.029" x="13" y="1038.334" style="opacity:.75;fill:#bebebe;fill-opacity:1;stroke:none;stroke-width:.92088717;stroke-miterlimit:4;stroke-dasharray:none;stroke-opacity:1;paint-order:stroke fill markers"/><rect id="rect4403-51-2-8-0-7-8" width="2" height="2.029" x="17" y="1038.334" style="opacity:.75;fill:#bebebe;fill-opacity:1;stroke:none;stroke-width:.92088717;stroke-miterlimit:4;stroke-dasharray:none;stroke-opacity:1;paint-order:stroke fill markers"/><rect id="rect4403-51-2-8-0-7-8-9" width="2" height="2.029" x="21" y="1038.334" style="opacity:.75;fill:#bebebe;fill-opacity:1;stroke:none;stroke-width:.92088717;stroke-miterlimit:4;stroke-dasharray:none;stroke-opacity:1;paint-order:stroke fill markers"/><rect id="rect4403-51-2-98" width="2" height="2.029" x="3" y="1036.334" style="opacity:.6;fill:#bebebe;fill-opacity:1;stroke:none;stroke-width:.92088717;stroke-miterlimit:4;stroke-dasharray:none;stroke-opacity:1;paint-order:stroke fill markers"/><rect id="rect4403-51-2-8-7" width="2" height="2.029" x="7" y="1036.334" style="opacity:.6;fill:#bebebe;fill-opacity:1;stroke:none;stroke-width:.92088717;stroke-miterlimit:4;stroke-dasharray:none;stroke-opacity:1;paint-order:stroke fill markers"/><rect id="rect4403-51-2-1-8" width="2" height="2.029" x="11" y="1036.334" style="opacity:.6;fill:#bebebe;fill-opacity:1;stroke:none;stroke-width:.92088717;stroke-miterlimit:4;stroke-dasharray:none;stroke-opacity:1;paint-order:stroke fill markers"/><rect id="rect4403-51-2-8-0-5" width="2" height="2.029" x="15" y="1036.334" style="opacity:.6;fill:#bebebe;fill-opacity:1;stroke:none;stroke-width:.92088717;stroke-miterlimit:4;stroke-dasharray:none;stroke-opacity:1;paint-order:stroke fill markers"/><rect id="rect4403-51-2-8-0-7-2" width="2" height="2.029" x="19" y="1036.334" style="opacity:.6;fill:#bebebe;fill-opacity:1;stroke:none;stroke-width:.92088717;stroke-miterlimit:4;stroke-dasharray:none;stroke-opacity:1;paint-order:stroke fill markers"/><rect id="rect4403-51-2-9-6" width="2" height="2.029" x="1" y="1034.334" style="opacity:.45;fill:#bebebe;fill-opacity:1;stroke:none;stroke-width:.92088717;stroke-miterlimit:4;stroke-dasharray:none;stroke-opacity:1;paint-order:stroke fill markers"/><rect id="rect4403-51-2-8-2-6" width="2" height="2.029" x="5" y="1034.334" style="opacity:.45;fill:#bebebe;fill-opacity:1;stroke:none;stroke-width:.92088717;stroke-miterlimit:4;stroke-dasharray:none;stroke-opacity:1;paint-order:stroke fill markers"/><rect id="rect4403-51-2-1-1-2" width="2" height="2.029" x="9" y="1034.334" style="opacity:.45;fill:#bebebe;fill-opacity:1;stroke:none;stroke-width:.92088717;stroke-miterlimit:4;stroke-dasharray:none;stroke-opacity:1;paint-order:stroke fill markers"/><rect id="rect4403-51-2-8-0-6-7" width="2" height="2.029" x="13" y="1034.334" style="opacity:.45;fill:#bebebe;fill-opacity:1;stroke:none;stroke-width:.92088717;stroke-miterlimit:4;stroke-dasharray:none;stroke-opacity:1;paint-order:stroke fill markers"/><rect id="rect4403-51-2-8-0-7-8-2" width="2" height="2.029" x="17" y="1034.334" style="opacity:.45;fill:#bebebe;fill-opacity:1;stroke:none;stroke-width:.92088717;stroke-miterlimit:4;stroke-dasharray:none;stroke-opacity:1;paint-order:stroke fill markers"/><rect id="rect4403-51-2-8-0-7-8-9-4" width="2" height="2.029" x="21" y="1034.334" style="opacity:.45;fill:#bebebe;fill-opacity:1;stroke:none;stroke-width:.92088717;stroke-miterlimit:4;stroke-dasharray:none;stroke-opacity:1;paint-order:stroke fill markers"/><rect id="rect4403-51-2-3" width="2" height="2.029" x="3" y="1032.334" style="opacity:.3;fill:#bebebe;fill-opacity:1;stroke:none;stroke-width:.92088717;stroke-miterlimit:4;stroke-dasharray:none;stroke-opacity:1;paint-order:stroke fill markers"/><rect id="rect4403-51-2-8-71" width="2" height="2.029" x="7" y="1032.334" style="opacity:.3;fill:#bebebe;fill-opacity:1;stroke:none;stroke-width:.92088717;stroke-miterlimit:4;stroke-dasharray:none;stroke-opacity:1;paint-order:stroke fill markers"/><rect id="rect4403-51-2-1-6" width="2" height="2.029" x="11" y="1032.334" style="opacity:.3;fill:#bebebe;fill-opacity:1;stroke:none;stroke-width:.92088717;stroke-miterlimit:4;stroke-dasharray:none;stroke-opacity:1;paint-order:stroke fill markers"/><rect id="rect4403-51-2-8-0-1" width="2" height="2.029" x="15" y="1032.334" style="opacity:.3;fill:#bebebe;fill-opacity:1;stroke:none;stroke-width:.92088717;stroke-miterlimit:4;stroke-dasharray:none;stroke-opacity:1;paint-order:stroke fill markers"/><rect id="rect4403-51-2-8-0-7-5" width="2" height="2.029" x="19" y="1032.334" style="opacity:.3;fill:#bebebe;fill-opacity:1;stroke:none;stroke-width:.92088717;stroke-miterlimit:4;stroke-dasharray:none;stroke-opacity:1;paint-order:stroke fill markers"/><rect id="rect4403-51-2-9-9" width="2" height="2.029" x="1" y="1030.334" style="opacity:.2;fill:#bebebe;fill-opacity:1;stroke:none;stroke-width:.92088717;stroke-miterlimit:4;stroke-dasharray:none;stroke-opacity:1;paint-order:stroke fill markers"/><rect id="rect4403-51-2-8-2-7" width="2" height="2.029" x="5" y="1030.334" style="opacity:.2;fill:#bebebe;fill-opacity:1;stroke:none;stroke-width:.92088717;stroke-miterlimit:4;stroke-dasharray:none;stroke-opacity:1;paint-order:stroke fill markers"/><rect id="rect4403-51-2-1-1-9" width="2" height="2.029" x="9" y="1030.334" style="opacity:.2;fill:#bebebe;fill-opacity:1;stroke:none;stroke-width:.92088717;stroke-miterlimit:4;stroke-dasharray:none;stroke-opacity:1;paint-order:stroke fill markers"/><rect id="rect4403-51-2-8-0-6-78" width="2" height="2.029" x="13" y="1030.334" style="opacity:.2;fill:#bebebe;fill-opacity:1;stroke:none;stroke-width:.92088717;stroke-miterlimit:4;stroke-dasharray:none;stroke-opacity:1;paint-order:stroke fill markers"/><rect id="rect4403-51-2-8-0-7-8-97" width="2" height="2.029" x="17" y="1030.334" style="opacity:.2;fill:#bebebe;fill-opacity:1;stroke:none;stroke-width:.92088717;stroke-miterlimit:4;stroke-dasharray:none;stroke-opacity:1;paint-order:stroke fill markers"/><rect id="rect4403-51-2-8-0-7-8-9-7" width="2" height="2.029" x="21" y="1030.334" style="opacity:.2;fill:#bebebe;fill-opacity:1;stroke:none;stroke-width:.92088717;stroke-miterlimit:4;stroke-dasharray:none;stroke-opacity:1;paint-order:stroke fill markers"/><rect id="rect4403-51-2-3-3" width="2" height="2" x="3" y="1028.362" style="opacity:.1;fill:#bebebe;fill-opacity:1;stroke:none;stroke-width:.91437906;stroke-miterlimit:4;stroke-dasharray:none;stroke-opacity:1;paint-order:stroke fill markers"/><rect id="rect4403-51-2-8-71-8" width="2" height="2" x="7" y="1028.362" style="opacity:.1;fill:#bebebe;fill-opacity:1;stroke:none;stroke-width:.91437906;stroke-miterlimit:4;stroke-dasharray:none;stroke-opacity:1;paint-order:stroke fill markers"/><rect id="rect4403-51-2-1-6-5" width="2" height="2" x="11" y="1028.362" style="opacity:.1;fill:#bebebe;fill-opacity:1;stroke:none;stroke-width:.91437906;stroke-miterlimit:4;stroke-dasharray:none;stroke-opacity:1;paint-order:stroke fill markers"/><rect id="rect4403-51-2-8-0-1-4" width="2" height="2" x="15" y="1028.362" style="opacity:.1;fill:#bebebe;fill-opacity:1;stroke:none;stroke-width:.91437906;stroke-miterlimit:4;stroke-dasharray:none;stroke-opacity:1;paint-order:stroke fill markers"/><rect id="rect4403-51-2-8-0-7-5-8" width="2" height="2" x="19" y="1028.362" style="opacity:.1;fill:#bebebe;fill-opacity:1;stroke:none;stroke-width:.91437906;stroke-miterlimit:4;stroke-dasharray:none;stroke-opacity:1;paint-order:stroke fill markers"/></g></g></svg>