<svg xmlns="http://www.w3.org/2000/svg" xmlns:svg="http://www.w3.org/2000/svg" id="svg7384" width="24" height="24" version="1.1" viewBox="0 0 24 24"><metadata id="metadata90"/><title id="title9167">Gnome Symbolic Icon Theme</title><g id="g4239" transform="scale(1.5)"><g id="layer10" transform="translate(-161,-447)"><path style="fill:#bebebe" id="rect3773-3" d="m 164,447.66667 c -1.662,0 -3,1.338 -3,3 V 458 c 0,1.662 1.338,3 3,3 h 10 c 1.662,0 3,-1.338 3,-3 v -7.33333 c 0,-1.662 -1.338,-3 -3,-3 z m 0,2 h 10 c 0.554,0 1,0.446 1,1 V 458 c 0,0.554 -0.446,1 -1,1 h -10 c -0.554,0 -1,-0.446 -1,-1 v -7.33333 c 0,-0.554 0.446,-1 1,-1 z"/><path style="fill:#bebebe" id="rect3778-2" d="m 169,463 c 3,0 4,-1.33333 4,-1.33333 h -1 -6 -1 c 0,0 1,1.33333 4,1.33333 z"/></g></g></svg>