<svg xmlns="http://www.w3.org/2000/svg" xmlns:svg="http://www.w3.org/2000/svg" id="svg11300" width="24" height="24" version="1.0" viewBox="0 0 24 24"><metadata id="metadata4"/><g id="layer1" transform="translate(0,8)"><g id="g4430"><path id="rect4014" d="M 2,-5 H 21 V 14 H 2 Z" style="opacity:.3;fill:#bebebe;fill-opacity:1;stroke:none;stroke-width:.90495855;stroke-miterlimit:4;stroke-dasharray:none;stroke-opacity:1"/><path id="rect4014-3" d="M 0,1 V 1.5 2 H 1 V 1 Z M 2,1 V 2 H 3 V 1 Z M 4,1 V 2 H 5 V 1 Z M 6,1 V 2 H 7 V 1 Z M 8,1 V 2 H 9 V 1 Z m 2,0 v 1 h 1 V 1 Z m 2,0 v 1 h 1 V 1 Z m 2,0 v 1 h 1 V 1 Z m 2,0 v 1 h 1 V 1 Z m 2,0 v 1 h 1 V 1 Z m 2,0 v 1 h 1 V 1 Z m 2,0 v 1 h 1 V 1 Z M 0,3 V 4 H 1 V 3 Z m 22,0 v 1 h 1 V 3 Z M 0,5 V 6 H 1 V 5 Z m 22,0 v 1 h 1 V 5 Z M 0,7 V 8 H 1 V 7 Z m 22,0 v 1 h 1 V 7 Z M 0,9 v 1 H 1 V 9 Z m 22,0 v 1 h 1 V 9 Z M 0,11 v 1 h 1 v -1 z m 22,0 v 1 h 1 V 11 Z M 0,13 v 1 h 1 v -1 z m 22,0 v 1 h 1 V 13 Z M 0,15 v 1 h 1 v -1 z m 22,0 v 1 h 1 V 15 Z M 0,17 v 1 h 1 v -1 z m 22,0 v 1 h 1 V 17 Z M 0,19 v 1 h 1 v -1 z m 22,0 v 1 h 1 V 19 Z M 0,21 v 1 h 1 v -1 z m 22,0 v 1 h 1 V 21 Z M 0,23 v 1 h 1 v -1 z m 2,0 v 1 h 1 v -1 z m 2,0 v 1 h 1 v -1 z m 2,0 v 1 h 1 v -1 z m 2,0 v 1 h 1 v -1 z m 2,0 v 1 h 1 v -1 z m 2,0 v 1 h 1 v -1 z m 2,0 v 1 h 1 v -1 z m 2,0 v 1 h 1 v -1 z m 2,0 v 1 h 1 v -1 z m 2,0 v 1 h 1 v -1 z m 2,0 v 1 h 1 v -1 z" transform="translate(0,-8)" style="color:#000;font-style:normal;font-variant:normal;font-weight:400;font-stretch:normal;font-size:medium;line-height:normal;font-family:sans-serif;font-variant-ligatures:normal;font-variant-position:normal;font-variant-caps:normal;font-variant-numeric:normal;font-variant-alternates:normal;font-feature-settings:normal;text-indent:0;text-align:start;text-decoration:none;text-decoration-line:none;text-decoration-style:solid;text-decoration-color:#000;letter-spacing:normal;word-spacing:normal;text-transform:none;writing-mode:lr-tb;direction:ltr;text-orientation:mixed;dominant-baseline:auto;baseline-shift:baseline;text-anchor:start;white-space:normal;shape-padding:0;clip-rule:nonzero;display:inline;overflow:visible;visibility:visible;opacity:1;isolation:auto;mix-blend-mode:normal;color-interpolation:sRGB;color-interpolation-filters:linearRGB;solid-color:#000;solid-opacity:1;fill:#bebebe;fill-opacity:1;fill-rule:nonzero;stroke:none;stroke-width:.99992293;stroke-linecap:butt;stroke-linejoin:miter;stroke-miterlimit:4;stroke-dasharray:none;stroke-dashoffset:0;stroke-opacity:1;color-rendering:auto;image-rendering:auto;shape-rendering:auto;text-rendering:auto;enable-background:accumulate"/></g></g></svg>