<svg xmlns="http://www.w3.org/2000/svg" xmlns:osb="http://www.openswatchbook.org/uri/2009/osb" xmlns:svg="http://www.w3.org/2000/svg" xmlns:xlink="http://www.w3.org/1999/xlink" id="svg7384" width="24" height="24" version="1.1" viewBox="0 0 24 24"><metadata id="metadata90"/><defs id="defs7386"><linearGradient id="linearGradient19282-4" gradientTransform="matrix(0.34682586,0,0,0.30620888,-154.35207,-275.32369)" osb:paint="solid"><stop id="stop19284-0" offset="0" style="stop-color:#bebebe;stop-opacity:1"/></linearGradient><linearGradient id="linearGradient8148" x1="0" x2="6.151" y1="1040.3" y2="1040.3" gradientTransform="matrix(1.5445302,0,0,1.4999999,1353.4279,-1053.6407)" gradientUnits="userSpaceOnUse" xlink:href="#linearGradient19282-4"/><linearGradient id="linearGradient8154" x1="0" x2="7" y1="1048.862" y2="1048.862" gradientTransform="matrix(1.5714285,0,0,1.5714285,1376.9981,-1104.5315)" gradientUnits="userSpaceOnUse" xlink:href="#linearGradient19282-4"/><linearGradient id="linearGradient8160" x1="10" x2="16" y1="1049.362" y2="1049.362" gradientTransform="matrix(1.5,0,0,1.4999999,1314.4073,-1053.2345)" gradientUnits="userSpaceOnUse" xlink:href="#linearGradient19282-4"/><linearGradient id="linearGradient8166" x1="264.758" x2="281.001" y1="201.436" y2="201.436" gradientTransform="translate(1660.3397,633.24575)" gradientUnits="userSpaceOnUse" xlink:href="#linearGradient19282-4"/><linearGradient id="linearGradient8172" x1="276.812" x2="279.999" y1="210.408" y2="210.408" gradientTransform="translate(1660.3397,633.24575)" gradientUnits="userSpaceOnUse" xlink:href="#linearGradient19282-4"/><linearGradient id="linearGradient8178" x1="274.951" x2="278.749" y1="208.106" y2="208.106" gradientTransform="translate(1660.3397,633.24575)" gradientUnits="userSpaceOnUse" xlink:href="#linearGradient19282-4"/><linearGradient id="linearGradient8184" x1="33" x2="34.471" y1="-15.5" y2="-15.5" gradientTransform="translate(1616.727,426.10341)" gradientUnits="userSpaceOnUse" xlink:href="#linearGradient19282-4"/><linearGradient id="linearGradient8190" x1="270.264" x2="271.448" y1="201.423" y2="201.423" gradientTransform="translate(1660.3397,633.24575)" gradientUnits="userSpaceOnUse" xlink:href="#linearGradient19282-4"/><linearGradient id="linearGradient8196" x1="147.075" x2="151.188" y1="274.206" y2="274.206" gradientTransform="translate(1222.4629,1094.8359)" gradientUnits="userSpaceOnUse" xlink:href="#linearGradient19282-4"/></defs><g id="g4303"><g id="gimp-wilber-9" transform="matrix(0.80553821,0,0,0.81119426,-104.08105,-517.6434)" style="display:inline"><g style="display:inline" id="gimp-8" transform="translate(-122.00001,443.99848)"><g id="applications-gimp-75"><path style="display:inline;overflow:visible;visibility:visible;fill:url(#linearGradient8166);fill-opacity:1;fill-rule:evenodd;stroke:none;stroke-width:.67424625;marker:none;enable-background:new" id="path7016-072" d="m 280.75245,194.1276 c 0,0 -0.12716,4.57029 -6.57361,4.53486 -5.47314,-0.0299 -5.58935,-3.40992 -5.58935,-3.40992 0.5959,5.62515 -1.12488,7.87449 -1.12488,7.87449 0,0 -0.12236,0.80515 -2.7068,0.66795 1.36808,1.95101 6.55047,5.80632 10.73047,4.78094 -0.61149,-0.45228 -0.88762,-0.88845 -1.23913,-1.27433 -0.0929,0.0125 -0.008,0.007 -0.10557,0.008 -2.41887,0.0118 -4.46443,-2.00379 -4.46443,-2.00379 0,0 4.55746,2.16223 6.36268,-0.59762 l -0.94917,-1.01968 c 1.02514,0.0247 2.35955,1.09972 2.27204,2.55445 -0.6117,-0.69555 -0.54955,-0.62097 -0.54955,-0.62097 0,0 -0.24574,0.24882 -0.59761,0.59761 0.80678,0.41407 1.06215,0.65737 1.80037,1.14954 3.15447,-0.76888 3.27877,-7.59301 2.7344,-13.24253 z m -4.60506,5.06218 c 1.07982,0 1.96859,0.88558 1.96859,1.96864 0,1.08303 -0.88877,1.96861 -1.96859,1.96861 -1.07982,0 -1.96855,-0.88558 -1.96855,-1.96861 0,-1.08306 0.88873,-1.96864 1.96855,-1.96864 z m -4.67534,0.56246 c 0.92922,0 1.65219,0.75541 1.65219,1.68739 0,0.93202 -0.72297,1.6874 -1.65219,1.6874 -0.92925,0 -1.68736,-0.75538 -1.68736,-1.6874 0,-0.93198 0.75811,-1.68739 1.68736,-1.68739 z"/><path style="fill:url(#linearGradient8190);fill-opacity:1;stroke:none" id="path5373-7" d="m 270.85598,200.84636 c -0.32702,0 -0.59215,0.25801 -0.59215,0.57631 0,0.31828 0.26513,0.57629 0.59215,0.57629 0.32703,0 0.59215,-0.25801 0.59215,-0.57629 0,-0.3183 -0.26512,-0.57631 -0.59215,-0.57631 z"/><ellipse style="fill:url(#linearGradient8184);fill-opacity:1;stroke:none" id="path5375-83" cx="33.736" cy="-15.5" rx=".736" ry=".5" transform="matrix(1.0269759,0,0,1.4861317,240.36743,224.27989)"/><ellipse id="path7023-6" cx="149.131" cy="274.206" rx="2.057" ry="2.427" transform="matrix(0.95892326,-0.28366563,0.44581251,0.89512636,0,0)" style="display:inline;overflow:visible;visibility:visible;fill:url(#linearGradient8196);fill-opacity:1;fill-rule:evenodd;stroke:none;stroke-width:1.55635607;marker:none;enable-background:new"/><path id="path6937-84" d="m 278.2032,209.87663 0.54552,-0.68088 c -1.06979,-1.37618 -3.32953,-2.74122 -3.32953,-2.74122 -0.37175,-0.31784 -0.60678,0.0615 -0.37882,0.40141 0,0 1.69468,2.13626 3.16283,3.02069 z" style="display:inline;overflow:visible;visibility:visible;fill:url(#linearGradient8178);fill-opacity:1;fill-rule:nonzero;stroke:none;stroke-width:.27392486;marker:none"/><path id="path7040-0" d="m 279.99861,212.00148 c -0.0572,-1.77333 -0.82318,-3.30923 -2.27379,-3.17924 -1.16903,0.10472 -1.31385,1.88771 0.14898,2.11682 2.23199,0.34954 2.12481,1.06242 2.12481,1.06242 z" style="display:inline;overflow:visible;visibility:visible;fill:url(#linearGradient8172);fill-opacity:1;fill-rule:nonzero;stroke:none;stroke-width:.2;marker:none"/></g></g></g><path style="display:inline;fill:url(#linearGradient8154);fill-opacity:1;stroke:none;stroke-width:1.57142854" id="path5785" d="m 5.49999,12.999953 c -3.0375636,0 -5.5,2.462428 -5.5,5.5 0,3.037572 2.4624364,5.5 5.5,5.5 3.0375636,0 5.5,-2.462428 5.5,-5.5 0,-3.037572 -2.4624364,-5.5 -5.5,-5.5 z m -1.9397321,2.921915 c 0.577005,0 1.1540178,0.350428 1.1540178,1.031171 -1.1785714,-0.265886 -2.4553571,1.361643 -2.3571428,0 0.049107,-0.680743 0.62612,-1.031171 1.203125,-1.031171 z m 3.8794642,0 c 0.577005,0 1.1540179,0.350428 1.203125,1.031171 0.098214,1.361643 -1.1785714,-0.265886 -2.3571428,0 0,-0.680743 0.5770128,-1.031171 1.1540178,-1.031171 z m -5.8683035,3.388313 c 1.5714285,1.024101 6.2755471,1.024101 7.8816964,0 l -0.024514,0.417528 c -0.0286,0.337544 -0.7857048,2.651629 -3.9285698,2.676301 -3.1428509,0.02514 -3.928573,-2.184286 -3.928573,-2.602599 v -0.49123 z"/><path style="display:inline;opacity:.4;fill:url(#linearGradient8160);fill-opacity:1;stroke:none;stroke-width:1.49999988" id="path4894" d="m 19.49999,14.999953 c -2.48528,0 -4.5,2.014651 -4.5,4.5 0,2.48535 2.01472,4.5 4.5,4.5 2.485279,0 4.5,-2.01465 4.5,-4.5 0,-2.485349 -2.014721,-4.5 -4.5,-4.5 z m -3.716518,2.59155 c 2.515217,-0.024 5.124626,0 7.433036,0 0,1.0557 -0.803385,1.90845 -1.787947,1.90845 -0.81988,0 -1.499496,-0.5982 -1.70759,-1.40625 h -0.441963 c -0.208093,0.8082 -0.887709,1.40625 -1.707589,1.40625 -0.984563,0 -1.787947,-0.8529 -1.787947,-1.90845 z m 0.502233,2.59155 c 0.459841,0.69075 1.436933,1.24545 3.214285,1.24545 1.576459,0 2.706955,-0.4824 3.214285,-1.24545 v 0.32145 c 0,0.4377 -0.53865,1.5468 -3.214285,1.5468 -2.494832,0 -3.214285,-1.2045 -3.214285,-1.5468 z"/><path style="display:inline;opacity:.5;fill:url(#linearGradient8148);fill-opacity:1;stroke:none;stroke-width:1.52210224" id="path5619-4" d="M 4.739875,1 C 3.6462426,1 2.6364304,1.3690001 1.843881,1.9843 1.0933459,1.699 0.45814707,1.3741 0.06491324,1.0400501 l -0.06202833,0.38175 C -0.01921731,1.5961 0.07123037,2.39455 0.76825474,3.18985 0.35009329,3.8658999 0.10631438,4.6538499 0.10631438,5.4999998 0.10631438,7.9853497 2.1808449,10 4.7399044,10 7.2989638,10 9.3734949,7.9853497 9.3734949,5.4999998 9.3734949,4.6703499 9.1355075,3.8973999 8.73224,3.2298999 9.4014617,2.44675 9.5194005,1.69375 9.4976087,1.52245 L 9.4355804,1.1407001 C 9.0525292,1.4659001 8.4435688,1.76485 7.7186698,2.0446 c -0.00401,-0.015 -0.016944,0 -0.020651,0 C 6.8937008,1.39195 5.8697637,1 4.7398689,1 Z M 3.4159933,3.5714499 c 0.3695799,0 0.6826268,0.3039 0.6826268,0.66285 v 0.6227999 c 0,0.35895 -0.3130469,0.6429 -0.6826268,0.6429 -0.3695828,0 -0.6619423,-0.28395 -0.6619423,-0.6429 V 4.2342999 c 0,-0.35895 0.2923595,-0.66285 0.6619423,-0.66285 z m 2.647765,0 c 0.3695813,0 0.6619424,0.3039 0.6619424,0.66285 v 0.6227999 c 0,0.35895 -0.2923611,0.6429 -0.6619424,0.6429 -0.3695814,0 -0.6619409,-0.28395 -0.6619409,-0.6429 V 4.2342999 c 0,-0.35895 0.2923595,-0.66285 0.6619409,-0.66285 z M 7.3876415,6.7715498 C 7.3683808,6.9926498 6.7752862,8.7023497 4.739875,8.7062497 2.8939854,8.7212497 2.0921086,7.0616498 2.0921086,6.7875998 Z"/></g></svg>