<svg xmlns="http://www.w3.org/2000/svg" xmlns:osb="http://www.openswatchbook.org/uri/2009/osb" xmlns:svg="http://www.w3.org/2000/svg" xmlns:xlink="http://www.w3.org/1999/xlink" id="svg30571" width="24" height="24" version="1.1" viewBox="0 0 24 24"><defs id="defs30573"><linearGradient id="linearGradient7248" x1="461.041" x2="477.041" y1="117.557" y2="117.557" gradientTransform="matrix(1.5000001,0,0,1.500001,-690.56156,863.02716)" gradientUnits="userSpaceOnUse" xlink:href="#linearGradient19282-4"/><linearGradient id="linearGradient19282-4" gradientTransform="matrix(0.23667958,0,0,0.20304569,-212.51307,96.938703)" osb:paint="solid"><stop style="stop-color:#bebebe;stop-opacity:1" id="stop19284-0" offset="0"/></linearGradient></defs><metadata id="metadata30576"/><g id="layer1" transform="translate(0,-1028.3622)"><g id="g4274"><path style="fill:url(#linearGradient7248);fill-opacity:1;stroke:none;stroke-width:1.50000036" id="rect6300" d="m 1,1029.3622 v 1.25 5.75 1 6 0.5 7.5 h 1.5 20.500008 v -1.5 -12.5 -1 -7 H 2.5 Z m 1.0000079,1 h 6 v 6 h -6 z m 7,0 h 6.0000001 v 6 H 9.0000079 Z m 7.0000001,0 h 6 v 6 h -6 z m -14.0000001,7 h 6 v 6 h -6 z m 7,0 h 6.0000001 v 6 H 9.0000079 Z m 7.0000001,0 h 6 v 6 h -6 z m -14.0000001,7 h 6 v 6 h -6 z m 7,0 h 6.0000001 v 6 H 9.0000079 Z m 7.0000001,0 h 6 v 6 h -6 z"/></g></g></svg>