<svg xmlns="http://www.w3.org/2000/svg" xmlns:svg="http://www.w3.org/2000/svg" id="svg30571" width="24" height="24" version="1.1" viewBox="0 0 24 24"><metadata id="metadata30576"/><g id="layer1" transform="translate(0,-1028.3622)"><g id="g4260"><text style="font-style:normal;font-weight:400;font-size:72.67647552px;line-height:125%;font-family:sans-serif;letter-spacing:0;word-spacing:0;fill:#000;fill-opacity:1;stroke:none;stroke-width:1.81691182px;stroke-linecap:butt;stroke-linejoin:miter;stroke-opacity:1" id="text3137" x="5.634" y="1043.261" transform="scale(0.99890718,1.001094)" xml:space="preserve"><tspan id="tspan3139" x="5.634" y="1043.261" style="font-size:23.8187027px;fill:#bebebe;fill-opacity:1;stroke-width:1.81691182px">γ</tspan></text><path style="fill:#bebebe;fill-opacity:1;stroke:none;stroke-width:1.49992847" id="rect28283-2" d="m 1.5,1028.3634 c -0.981675,0 -1.5,-0.097 -1.5,1.4998 v 20.998 c 0,1.5968 0.518325,1.4999 1.5,1.4999 H 12 22.5 c 0.950211,0 1.451003,0.024 1.5,-1.4999 v 0 -10.499 -10.499 0 c -0.04899,-1.5234 -0.549789,-1.4998 -1.5,-1.4998 H 12 Z m 3,0.9988 h 7.5 7.5 c 2.395889,0 3.5,1.1433 3.5,3.8007 v 14.3986 c 0,2.7017 -0.927335,3.8007 -3.5,3.8007 H 12 4.5 c -2.4196061,0 -3.5,-1.1538 -3.5,-4.2506 v -13.4987 c 0,-3.1878 1.0599247,-4.2507 3.5,-4.2507 z"/></g></g></svg>