<svg xmlns="http://www.w3.org/2000/svg" xmlns:osb="http://www.openswatchbook.org/uri/2009/osb" xmlns:svg="http://www.w3.org/2000/svg" xmlns:xlink="http://www.w3.org/1999/xlink" id="svg7384" width="24" height="24" version="1.1" viewBox="0 0 24 24"><metadata id="metadata90"/><defs id="defs7386"><linearGradient id="linearGradient8074" osb:paint="solid"><stop id="stop8072" offset="0" style="stop-color:#be00be;stop-opacity:1"/></linearGradient><linearGradient id="linearGradient7561" osb:paint="solid"><stop id="stop7558" offset="0" style="stop-color:#a5a5a5;stop-opacity:1"/></linearGradient><linearGradient id="linearGradient7548" osb:paint="solid"><stop id="stop7546" offset="0" style="stop-color:#ebebeb;stop-opacity:1"/></linearGradient><linearGradient id="linearGradient7542" osb:paint="solid"><stop id="stop7538" offset="0" style="stop-color:#c9c9c9;stop-opacity:1"/></linearGradient><linearGradient id="linearGradient19282" gradientTransform="matrix(0,-735328.32,170712.69,0,2464326300,577972450)" osb:paint="solid"><stop id="stop19284" offset="0" style="stop-color:#b4b4b4;stop-opacity:1"/></linearGradient><linearGradient id="linearGradient19282-4" gradientTransform="matrix(0.34682586,0,0,0.30620888,-119.35207,741.03851)" osb:paint="solid"><stop id="stop19284-0" offset="0" style="stop-color:#bebebe;stop-opacity:1"/></linearGradient><linearGradient id="linearGradient8334" x1="35" x2="51" y1="28" y2="28" gradientTransform="translate(898.14554,399.52469)" gradientUnits="userSpaceOnUse" xlink:href="#linearGradient19282-4"/><linearGradient id="linearGradient7379" x1="43" x2="46" y1="30.734" y2="30.734" gradientTransform="matrix(1.1111111,0,0,1.3168724,993.1617,433.7764)" gradientUnits="userSpaceOnUse" xlink:href="#linearGradient19282-4"/></defs><g style="display:inline" id="preferences" transform="matrix(1.5,0,0,1.5,-427.23739,-362.28703)"><g id="gimp-prefs-folders-interp" transform="translate(249.82493,221.52469)"><g id="g736" transform="translate(20)"><g id="g738" transform="translate(0,60)"><path style="display:inline;fill:url(#linearGradient8334);fill-opacity:1;stroke:none" id="path15678" d="M 35.53125,20 C 35.24212,20 35,20.24212 35,20.53125 v 14.9375 C 35,35.76725 35.23264,36 35.53125,36 h 14.9375 C 50.76735,36 51,35.76735 51,35.46875 v -9.602087 c 0,-0.2891 -0.241939,-0.525394 -0.53096,-0.533333 H 38.33362 L 38.33333,33.5 C 38.33332,33.777 37.943663,34 37.666663,34 37.389663,34 37,33.777 37,33.5 v -9 C 37,24.223 37.223,24 37.5,24 H 40.46875 49 V 22.59375 C 49,22.26655 48.73334,22 48.40625,22 H 41 V 20.53125 C 41,20.2421 40.75788,20 40.46875,20 Z m 6.53125,6 1.5,1.21875 c 0.627744,-0.184403 1.58042,-0.184403 2.208163,0 l 1.5,-1.21875 2.062667,2.09375 -1.218667,1.46875 c 0.182958,0.632699 0.182958,1.304801 0,1.9375 l 1.218667,1.46875 -2.062667,2.09375 -1.5,-1.21875 c -0.627744,0.184403 -1.58042,0.184402 -2.208163,0 l -1.5,1.21875 L 40,32.96875 41.21875,31.5 c -0.182958,-0.632699 -0.182958,-1.304801 0,-1.9375 L 40,28.09375 Z" transform="translate(-20,-60)"/></g></g><ellipse style="fill:url(#linearGradient7379);fill-opacity:1;stroke:none;stroke-width:1.20962453" id="path15832" cx="44.667" cy="30.333" rx="1.667" ry="1.667"/></g></g></svg>