<svg xmlns="http://www.w3.org/2000/svg" xmlns:osb="http://www.openswatchbook.org/uri/2009/osb" xmlns:svg="http://www.w3.org/2000/svg" xmlns:xlink="http://www.w3.org/1999/xlink" id="svg30571" width="24" height="24" version="1.1" viewBox="0 0 24 24"><defs id="defs30573"><linearGradient id="linearGradient19282-4" gradientTransform="matrix(0.34682586,0,0,0.30620888,-482.61525,330.965)" osb:paint="solid"><stop style="stop-color:#bebebe;stop-opacity:1" id="stop19284-0" offset="0"/></linearGradient><linearGradient id="linearGradient10172" x1="167" x2="168" y1="240.5" y2="240.5" gradientTransform="matrix(2,0,0,2,-325.0004,552.36217)" gradientUnits="userSpaceOnUse" xlink:href="#linearGradient19282-4"/><linearGradient id="linearGradient10174" x1="171" x2="172" y1="240.5" y2="240.5" gradientTransform="matrix(2,0,0,2,-329.00039,552.36217)" gradientUnits="userSpaceOnUse" xlink:href="#linearGradient19282-4"/><linearGradient id="linearGradient10228" x1="167" x2="168" y1="240.5" y2="240.5" gradientTransform="matrix(2,0,0,2,-325.0004,552.36217)" gradientUnits="userSpaceOnUse" xlink:href="#linearGradient19282-4"/><linearGradient id="linearGradient10230" x1="171" x2="172" y1="240.5" y2="240.5" gradientTransform="matrix(2,0,0,2,-329.00039,552.36217)" gradientUnits="userSpaceOnUse" xlink:href="#linearGradient19282-4"/><linearGradient id="linearGradient11265" x1="167" x2="168" y1="240.5" y2="240.5" gradientTransform="matrix(2,0,0,2,-325.0004,552.36217)" gradientUnits="userSpaceOnUse" xlink:href="#linearGradient19282-4"/><linearGradient id="linearGradient11267" x1="171" x2="172" y1="240.5" y2="240.5" gradientTransform="matrix(2,0,0,2,-329.00039,552.36217)" gradientUnits="userSpaceOnUse" xlink:href="#linearGradient19282-4"/><linearGradient id="linearGradient11738" x1="163" x2="164" y1="240.5" y2="240.5" gradientTransform="translate(-184.24742,783.34098)" gradientUnits="userSpaceOnUse" xlink:href="#linearGradient19282-4"/><linearGradient id="linearGradient11740" x1="165" x2="166" y1="240.5" y2="240.5" gradientTransform="translate(-184.24742,783.34098)" gradientUnits="userSpaceOnUse" xlink:href="#linearGradient19282-4"/><linearGradient id="linearGradient11742" x1="167" x2="168" y1="240.5" y2="240.5" gradientTransform="translate(-184.24742,783.34098)" gradientUnits="userSpaceOnUse" xlink:href="#linearGradient19282-4"/><linearGradient id="linearGradient11744" x1="169" x2="170" y1="240.5" y2="240.5" gradientTransform="translate(-184.24742,783.34098)" gradientUnits="userSpaceOnUse" xlink:href="#linearGradient19282-4"/><linearGradient id="linearGradient11746" x1="171" x2="172" y1="240.5" y2="240.5" gradientTransform="translate(-184.24742,783.34098)" gradientUnits="userSpaceOnUse" xlink:href="#linearGradient19282-4"/><linearGradient id="linearGradient11748" x1="173" x2="174" y1="240.5" y2="240.5" gradientTransform="translate(-184.24742,783.34098)" gradientUnits="userSpaceOnUse" xlink:href="#linearGradient19282-4"/><linearGradient id="linearGradient11854" x1="163" x2="164" y1="240.5" y2="240.5" gradientTransform="translate(-184.24742,783.34098)" gradientUnits="userSpaceOnUse" xlink:href="#linearGradient19282-4"/><linearGradient id="linearGradient11856" x1="165" x2="166" y1="240.5" y2="240.5" gradientTransform="translate(-184.24742,783.34098)" gradientUnits="userSpaceOnUse" xlink:href="#linearGradient19282-4"/><linearGradient id="linearGradient11858" x1="167" x2="168" y1="240.5" y2="240.5" gradientTransform="translate(-184.24742,783.34098)" gradientUnits="userSpaceOnUse" xlink:href="#linearGradient19282-4"/><linearGradient id="linearGradient11860" x1="169" x2="170" y1="240.5" y2="240.5" gradientTransform="translate(-184.24742,783.34098)" gradientUnits="userSpaceOnUse" xlink:href="#linearGradient19282-4"/><linearGradient id="linearGradient11862" x1="171" x2="172" y1="240.5" y2="240.5" gradientTransform="translate(-184.24742,783.34098)" gradientUnits="userSpaceOnUse" xlink:href="#linearGradient19282-4"/><linearGradient id="linearGradient11864" x1="173" x2="174" y1="240.5" y2="240.5" gradientTransform="translate(-184.24742,783.34098)" gradientUnits="userSpaceOnUse" xlink:href="#linearGradient19282-4"/><linearGradient id="linearGradient11921" x1="163" x2="164" y1="240.5" y2="240.5" gradientTransform="translate(-184.24742,783.34098)" gradientUnits="userSpaceOnUse" xlink:href="#linearGradient19282-4"/><linearGradient id="linearGradient11923" x1="165" x2="166" y1="240.5" y2="240.5" gradientTransform="translate(-184.24742,783.34098)" gradientUnits="userSpaceOnUse" xlink:href="#linearGradient19282-4"/><linearGradient id="linearGradient11925" x1="167" x2="168" y1="240.5" y2="240.5" gradientTransform="translate(-184.24742,783.34098)" gradientUnits="userSpaceOnUse" xlink:href="#linearGradient19282-4"/><linearGradient id="linearGradient11927" x1="169" x2="170" y1="240.5" y2="240.5" gradientTransform="translate(-184.24742,783.34098)" gradientUnits="userSpaceOnUse" xlink:href="#linearGradient19282-4"/><linearGradient id="linearGradient11929" x1="171" x2="172" y1="240.5" y2="240.5" gradientTransform="translate(-184.24742,783.34098)" gradientUnits="userSpaceOnUse" xlink:href="#linearGradient19282-4"/><linearGradient id="linearGradient11931" x1="173" x2="174" y1="240.5" y2="240.5" gradientTransform="translate(-184.24742,783.34098)" gradientUnits="userSpaceOnUse" xlink:href="#linearGradient19282-4"/><linearGradient id="linearGradient11988" x1="163" x2="164" y1="240.5" y2="240.5" gradientTransform="translate(-184.24742,783.34098)" gradientUnits="userSpaceOnUse" xlink:href="#linearGradient19282-4"/><linearGradient id="linearGradient11990" x1="165" x2="166" y1="240.5" y2="240.5" gradientTransform="translate(-184.24742,783.34098)" gradientUnits="userSpaceOnUse" xlink:href="#linearGradient19282-4"/><linearGradient id="linearGradient11992" x1="167" x2="168" y1="240.5" y2="240.5" gradientTransform="translate(-184.24742,783.34098)" gradientUnits="userSpaceOnUse" xlink:href="#linearGradient19282-4"/><linearGradient id="linearGradient11994" x1="169" x2="170" y1="240.5" y2="240.5" gradientTransform="translate(-184.24742,783.34098)" gradientUnits="userSpaceOnUse" xlink:href="#linearGradient19282-4"/><linearGradient id="linearGradient11996" x1="171" x2="172" y1="240.5" y2="240.5" gradientTransform="translate(-184.24742,783.34098)" gradientUnits="userSpaceOnUse" xlink:href="#linearGradient19282-4"/><linearGradient id="linearGradient11998" x1="173" x2="174" y1="240.5" y2="240.5" gradientTransform="translate(-184.24742,783.34098)" gradientUnits="userSpaceOnUse" xlink:href="#linearGradient19282-4"/><linearGradient id="linearGradient12115" x1="171" x2="172" y1="240.5" y2="240.5" gradientTransform="translate(-161.0002,793.36218)" gradientUnits="userSpaceOnUse" xlink:href="#linearGradient19282-4"/><linearGradient id="linearGradient12117" x1="173" x2="174" y1="240.5" y2="240.5" gradientTransform="translate(-161.0002,793.36218)" gradientUnits="userSpaceOnUse" xlink:href="#linearGradient19282-4"/><linearGradient id="linearGradient12168" x1="173" x2="174" y1="240.5" y2="240.5" gradientTransform="translate(-155.0002,793.36218)" gradientUnits="userSpaceOnUse" xlink:href="#linearGradient19282-4"/><linearGradient id="linearGradient12190" x1="173" x2="174" y1="240.5" y2="240.5" gradientTransform="translate(-155.0002,793.36218)" gradientUnits="userSpaceOnUse" xlink:href="#linearGradient19282-4"/><linearGradient id="linearGradient10710" x1="-199.508" x2="-184.585" y1="45.466" y2="45.466" gradientTransform="matrix(1.4742393,0,0,1.5099921,295.12311,968.20869)" gradientUnits="userSpaceOnUse" xlink:href="#linearGradient19282-4"/><linearGradient id="linearGradient10722" x1="43" x2="47" y1="266" y2="266" gradientTransform="matrix(1.4742393,0,0,1.4837955,-60.392586,647.70502)" gradientUnits="userSpaceOnUse" xlink:href="#linearGradient19282-4"/><linearGradient id="linearGradient10716" x1="45" x2="48.652" y1="270" y2="270" gradientTransform="matrix(1.3690348,0,0,1.4999954,-55.606841,642.86343)" gradientUnits="userSpaceOnUse" xlink:href="#linearGradient19282-4"/></defs><metadata id="metadata30576"/><g id="layer1" transform="translate(0,-1028.3622)"><g id="g9266"><path id="path4672" d="m 13.727681,1029.3634 c -0.722731,-0.01 -1.498269,0.044 -2.257429,0.1415 -6.0733059,0.7752 -10.74270832,4.7012 -10.4578853,8.7769 0.284823,4.0756 5.3981189,6.7207 11.4714253,5.9456 6.073305,-0.7753 10.788778,-4.7012 10.503955,-8.7769 -0.24922,-3.5662 -4.200978,-6.0387 -9.260066,-6.0871 z m -0.27642,2.265 c 2.033581,0.017 3.82745,0.4712 5.159838,1.2269 1.332403,0.7556 2.203324,1.8128 2.303499,3.0671 0.228979,2.8668 -3.548288,5.6363 -8.430806,6.1815 -4.882519,0.5453 -9.0310875,-1.3328 -9.2600663,-4.1996 -0.2289789,-2.8669 3.5482876,-5.6363 8.4308063,-6.1816 0.61032,-0.068 1.215702,-0.1 1.796729,-0.095 z" style="fill:url(#linearGradient10710);fill-opacity:1;stroke:none;stroke-width:1.49200869"/><path id="path4660" d="M 5.9484786,1039.427 C 4.3200781,1039.427 3,1040.7556 3,1042.3946 c 0,1.639 1.3200781,2.9676 2.9484786,2.9676 1.6284006,0 2.9484787,-1.3286 2.9484787,-2.9676 0,-1.639 -1.3200781,-2.9676 -2.9484787,-2.9676 z m 0,1.4838 c 0.8141929,0 1.4742394,0.6644 1.4742394,1.4838 0,0.8195 -0.6600465,1.4838 -1.4742394,1.4838 -0.8141929,0 -1.4742393,-0.6643 -1.4742393,-1.4838 0,-0.8194 0.6600464,-1.4838 1.4742393,-1.4838 z" style="fill:url(#linearGradient10722);fill-opacity:1;stroke:none;stroke-width:1.47900975"/><path id="path4664" d="m 6,1043.3622 c 0,0 6.032311,4.5 0,9 h 2.7808521 c 5.0055339,-3.8177 -0.021398,-9 -0.021398,-9 z" style="fill:url(#linearGradient10716);fill-opacity:1;stroke:none;stroke-width:1.43302"/></g></g></svg>