<svg xmlns="http://www.w3.org/2000/svg" xmlns:svg="http://www.w3.org/2000/svg" id="svg7384" width="24" height="24" version="1.1" viewBox="0 0 24 24"><metadata id="metadata90"/><title id="title9167">Gnome Symbolic Icon Theme</title><g id="g4239" transform="scale(1.5)"><g id="layer10" transform="translate(199,-447)"><path style="fill:#bebebe;stroke-width:1.65188575" id="path5068" d="M 7.5507812 1 C 6.1252113 1 5 2.0183537 5 3.3085938 L 5 20.691406 C 5 21.981571 6.1251213 23 7.5507812 23 L 16.449219 23 C 17.874804 23 19 21.981646 19 20.691406 L 19 3.3085938 C 19 2.0184287 17.874879 1 16.449219 1 L 7.5507812 1 z M 7 3 L 17 3 L 17 20 L 7 20 L 7 3 z M 12 21 A 0.5 0.5 0 0 1 12.5 21.5 A 0.5 0.5 0 0 1 12 22 A 0.5 0.5 0 0 1 11.5 21.5 A 0.5 0.5 0 0 1 12 21 z" transform="matrix(0.66666667,0,0,0.66666667,-199,447)"/></g></g></svg>