<svg xmlns="http://www.w3.org/2000/svg" xmlns:osb="http://www.openswatchbook.org/uri/2009/osb" xmlns:svg="http://www.w3.org/2000/svg" xmlns:xlink="http://www.w3.org/1999/xlink" id="svg7384" width="24" height="24" version="1.1" viewBox="0 0 24 24"><metadata id="metadata90"/><defs id="defs7386"><linearGradient id="linearGradient8074" osb:paint="solid"><stop id="stop8072" offset="0" style="stop-color:#be00be;stop-opacity:1"/></linearGradient><linearGradient id="linearGradient7561" osb:paint="solid"><stop id="stop7558" offset="0" style="stop-color:#a5a5a5;stop-opacity:1"/></linearGradient><linearGradient id="linearGradient7548" osb:paint="solid"><stop id="stop7546" offset="0" style="stop-color:#ebebeb;stop-opacity:1"/></linearGradient><linearGradient id="linearGradient7542" osb:paint="solid"><stop id="stop7538" offset="0" style="stop-color:#c9c9c9;stop-opacity:1"/></linearGradient><linearGradient id="linearGradient19282" gradientTransform="matrix(0,-735328.32,170712.69,0,2464326300,577972450)" osb:paint="solid"><stop id="stop19284" offset="0" style="stop-color:#b4b4b4;stop-opacity:1"/></linearGradient><linearGradient id="linearGradient19282-4" gradientTransform="matrix(0.34682586,0,0,0.30620888,-59.35207,741.03851)" osb:paint="solid"><stop id="stop19284-0" offset="0" style="stop-color:#bebebe;stop-opacity:1"/></linearGradient><linearGradient id="linearGradient8382" x1="95" x2="111" y1="28" y2="28" gradientTransform="translate(746.49512,421.87401)" gradientUnits="userSpaceOnUse" xlink:href="#linearGradient19282-4"/></defs><g style="display:inline" id="preferences" transform="matrix(1.5,0,0,1.5,-199.76176,-395.81101)"><g id="gimp-prefs-folders-modules" transform="translate(38.174507,243.87401)"><path style="display:inline;fill:url(#linearGradient8382);fill-opacity:1;stroke:none" id="path7616" d="M 95.53125,20 C 95.24212,20 95,20.24212 95,20.53125 v 14.9375 C 95,35.76725 95.23264,36 95.53125,36 h 14.9375 C 110.76735,36 111,35.76735 111,35.46875 v -9.63542 c 0,-0.2891 -0.24212,-0.5 -0.53125,-0.5 H 98.333333 V 33.5 c 0,0.277 -0.389667,0.5 -0.666667,0.5 C 97.389666,34 97,33.777 97,33.5 v -9 C 97,24.223 97.223,24 97.5,24 H 100.46875 109 V 22.59375 C 109,22.26655 108.73334,22 108.40625,22 H 101 V 20.53125 C 101,20.2421 100.75788,20 100.46875,20 Z M 103,26.666663 h 6 v 2 h -2 v 2 h -2 v -2 h -2 z M 101.66667,30 h 2 v 2 h 2 v 2 h -6.000004 v -2 h 2.000004 z"/></g></g></svg>