<svg xmlns="http://www.w3.org/2000/svg" xmlns:osb="http://www.openswatchbook.org/uri/2009/osb" xmlns:svg="http://www.w3.org/2000/svg" xmlns:xlink="http://www.w3.org/1999/xlink" id="svg30571" width="24" height="24" version="1.1" viewBox="0 0 24 24"><defs id="defs30573"><linearGradient id="linearGradient19282-4" gradientTransform="matrix(0.34682586,0,0,0.30620888,-482.61525,330.965)" osb:paint="solid"><stop style="stop-color:#bebebe;stop-opacity:1" id="stop19284-0" offset="0"/></linearGradient><linearGradient id="linearGradient8672" x1="4" x2="20" y1="1040.362" y2="1040.362" gradientUnits="userSpaceOnUse" xlink:href="#linearGradient19282-4"/><linearGradient id="linearGradient9738-5" x1="-177" x2="-166" y1="48" y2="48" gradientTransform="matrix(1.6363636,0,0,1.6666557,350.65142,52.715289)" gradientUnits="userSpaceOnUse" xlink:href="#linearGradient19282-4"/></defs><metadata id="metadata30576"/><g id="layer1" transform="translate(15.031147,-1044.454)"><g style="display:inline" id="gimp-tool-ellipse-select-24" transform="translate(-15.031147,16.091824)"><rect id="rect4708-2" width="24" height="24" x="0" y="1028.362" style="opacity:0;fill:none;fill-opacity:1;stroke:none;stroke-width:1.5"/><path style="fill:url(#linearGradient8672);fill-opacity:1;stroke:none;stroke-width:1.29099452" id="path4710-9" d="m 20,1040.3623 a 8,5 0 0 1 -8,5 8,5 0 0 1 -8,-5 8,5 0 0 1 8,-5 8,5 0 0 1 8,5 z"/><path style="fill:url(#linearGradient9738-5);fill-opacity:1;stroke:none;stroke-width:1.65144014" id="path4760-1" d="m 69.197266,122.71484 c -0.554613,0 -1.09883,0.0513 -1.636719,0.10352 v 1.66797 c 0.54054,-0.061 1.072828,-0.10547 1.636719,-0.10547 z m 1.636718,0 v 1.66602 c 0.56389,0 1.094226,0.0445 1.634766,0.10547 v -1.66797 c -0.53788,-0.0522 -1.080156,-0.10352 -1.634766,-0.10352 z m -4.910156,0.3125 c -0.560651,0.1112 -1.109171,0.25322 -1.636719,0.41602 v 1.77148 c 0.527679,-0.1829 1.070046,-0.34095 1.636719,-0.46875 z m 8.181641,0 v 1.71875 c 0.56667,0.1278 1.109039,0.28585 1.636719,0.46875 v -1.77148 c -0.527541,-0.1628 -1.076069,-0.30482 -1.636719,-0.41602 z m -11.453125,1.04102 c -0.584117,0.2587 -1.113835,0.56297 -1.636719,0.88476 v 1.98047 c 0.506405,-0.3787 1.041361,-0.73731 1.636719,-1.04101 z m 14.726562,0 v 1.82422 c 0.59535,0.3037 1.130309,0.66231 1.636719,1.04101 v -1.97851 c -0.52288,-0.3218 -1.052609,-0.62802 -1.636719,-0.88672 z m -16.363281,14.48047 v 1.92578 c 0.522982,0.3219 1.052373,0.62792 1.636719,0.88672 v -1.77149 c -0.598222,-0.3051 -1.129397,-0.65941 -1.636719,-1.04101 z m 18,0 c -0.50732,0.3816 -1.038499,0.73591 -1.636719,1.04101 v 1.77149 c 0.58434,-0.2588 1.113739,-0.56482 1.636719,-0.88672 z m -14.728516,1.71875 v 1.71875 c 0.532637,0.165 1.071781,0.30501 1.636719,0.41601 v -1.66601 c -0.575853,-0.1239 -1.103051,-0.28285 -1.636719,-0.46875 z m 11.455079,0 c -0.53366,0.1859 -1.060869,0.34485 -1.636719,0.46875 v 1.66601 c 0.56494,-0.111 1.104089,-0.25101 1.636719,-0.41601 z m -8.181641,0.67578 v 1.66797 c 0.538461,0.05 1.079963,0.10351 1.636719,0.10351 v -1.66601 c -0.557427,0 -1.100581,-0.0482 -1.636719,-0.10547 z m 4.908203,0 c -0.53613,0.0573 -1.077336,0.10547 -1.634766,0.10547 v 1.66601 c 0.55676,0 1.096306,-0.0535 1.634766,-0.10351 z" transform="translate(-58.01505,907.64723)"/></g></g></svg>