<svg xmlns="http://www.w3.org/2000/svg" xmlns:svg="http://www.w3.org/2000/svg" id="svg30571" width="24" height="24" version="1.1" viewBox="0 0 24 24"><metadata id="metadata30576"/><g id="layer1" transform="translate(0,-1028.3622)"><g id="g4390"><rect id="rect4257" width="22.893" height="22.893" x=".554" y="1028.916" style="color:#000;clip-rule:nonzero;display:inline;overflow:visible;visibility:visible;opacity:.00199998;isolation:auto;mix-blend-mode:normal;color-interpolation:sRGB;color-interpolation-filters:linearRGB;solid-color:#000;solid-opacity:1;fill:#555753;fill-opacity:1;fill-rule:nonzero;stroke:#555759;stroke-width:1.10716772;stroke-linecap:square;stroke-linejoin:miter;stroke-miterlimit:4;stroke-dasharray:none;stroke-dashoffset:0;stroke-opacity:1;color-rendering:auto;image-rendering:auto;shape-rendering:auto;text-rendering:auto;enable-background:accumulate"/><path id="rect33604" d="m 20,1048.3682 c 0,0.8275 -0.566618,1.494 -1.394165,1.494 v 0 c -0.827546,0 -1.577479,-0.2327 -1.577479,-1.0603 l -0.02799,-13.423 L 3.5,1035.3455 c -0.8275538,0 -1.3582674,-1.1199 -1.3582674,-1.9474 L 2.1,1034.5788 c 0,-0.8275 0.5724523,-2.2151 1.4,-2.2166 l 15.105835,-0.027 v 0.027 c 0.827547,0 1.494165,0.2083 1.494165,1.0359 H 20 Z" style="opacity:1;fill:#bebebe;fill-opacity:1;stroke:none;stroke-width:1.4970088"/><path id="rect33606" d="M 16,1049.3623 H 4.4999997 v 0 c -0.8290499,0 -1.4999999,-1.3259 -1.4999999,-2.1549 v 0 -10.8452 h 2.9999998 v 10.0001 H 16 Z" style="fill:#bebebe;fill-opacity:1;stroke:none;stroke-width:1.49999988"/><path id="path4368" d="m 5.9990892,-1031.3405 a 1.4999999,1.4286562 0 0 1 -0.7405679,1.2823 1.4999999,1.4286562 0 0 1 -1.5365229,-0.011 1.4999999,1.4286562 0 0 1 -0.7201273,-1.2928" transform="scale(1,-1)" style="opacity:1;fill:#bebebe;fill-opacity:1;stroke:none;stroke-width:1.10291278;stroke-miterlimit:4;stroke-dasharray:none;stroke-opacity:1"/><path id="path4368-0" d="m 1049.3613,21.021581 a 1.4999999,1.4286562 0 0 1 -0.7406,1.282292 1.4999999,1.4286562 0 0 1 -1.5365,-0.01106 1.4999999,1.4286562 0 0 1 -0.7201,-1.29281" transform="matrix(0,1,1,0,0,0)" style="opacity:1;fill:#bebebe;fill-opacity:1;stroke:none;stroke-width:1.10291278;stroke-miterlimit:4;stroke-dasharray:none;stroke-opacity:1"/></g></g></svg>