<svg xmlns="http://www.w3.org/2000/svg" xmlns:osb="http://www.openswatchbook.org/uri/2009/osb" xmlns:svg="http://www.w3.org/2000/svg" xmlns:xlink="http://www.w3.org/1999/xlink" id="svg30571" width="24" height="24" version="1.1" viewBox="0 0 24 24"><defs id="defs30573"><linearGradient id="linearGradient6878" x1="40.406" x2="81.401" y1="78.405" y2="78.405" gradientTransform="matrix(0.53665396,0,0,0.53573075,-20.684174,998.35832)" gradientUnits="userSpaceOnUse" xlink:href="#linearGradient19282-4"/><linearGradient id="linearGradient19282-4" gradientTransform="matrix(0.34682586,0,0,0.30620888,251.84197,595.54394)" osb:paint="solid"><stop style="stop-color:#bebebe;stop-opacity:1" id="stop19284-0" offset="0"/></linearGradient></defs><metadata id="metadata30576"/><g id="layer1" transform="translate(0,-1028.3622)"><g id="g3984"><path id="path3189" d="M 11.347359,1029.3638 C 5.6907799,1029.4428 1,1034.304 1,1040.681 c 0,3.2417 1.136795,5.8931 3.119301,7.7514 1.982506,1.8583 4.8290167,2.9298 8.318136,2.9298 6.768398,0 11.619755,-6.4975 10.364129,-13.3765 H 12.454207 c -1.550528,0 -2.341791,1.1219 -2.414942,2.2433 -0.03657,0.5608 0.134297,1.1 0.469572,1.4734 0.335274,0.3733 0.85004,0.6233 1.693814,0.5858 0.735258,-0.032 0.907264,-0.2648 1.224241,-0.6361 0.316978,-0.3714 0.776401,-0.9557 1.643503,-1.038 0.356982,-0.034 0.787453,0.038 1.190702,0.2845 0.403247,0.2469 0.752855,0.7111 0.80498,1.3394 0.107481,1.2957 -0.44311,2.4164 -1.324864,3.1474 -0.881755,0.7311 -2.073878,1.1124 -3.354087,1.105 -4.1824834,-0.024 -6.492916,-3.0921 -6.574011,-6.1274 -0.040549,-1.5177 0.4576291,-3.0471 1.5093393,-4.2022 1.0517102,-1.1551 2.664155,-1.9085 4.7460327,-1.9085 h 9.156658 c -1.659957,-2.4443 -4.597621,-4.9618 -9.877786,-4.8885 z" style="display:inline;overflow:visible;visibility:visible;fill:url(#linearGradient6878);fill-opacity:1;stroke:none;stroke-width:.53619218;marker:none;enable-background:accumulate"/></g></g></svg>