<svg xmlns="http://www.w3.org/2000/svg" xmlns:osb="http://www.openswatchbook.org/uri/2009/osb" xmlns:svg="http://www.w3.org/2000/svg" xmlns:xlink="http://www.w3.org/1999/xlink" id="svg30571" width="24" height="24" version="1.1" viewBox="0 0 24 24"><defs id="defs30573"><linearGradient id="linearGradient19282-4" gradientTransform="matrix(0.34682586,0,0,0.30620888,-482.61525,330.965)" osb:paint="solid"><stop style="stop-color:#bebebe;stop-opacity:1" id="stop19284-0" offset="0"/></linearGradient><linearGradient id="linearGradient10586" x1="-187.618" x2="-184" y1="45" y2="45" gradientUnits="userSpaceOnUse" xlink:href="#linearGradient19282-4"/><linearGradient id="linearGradient10592" x1="-37.269" x2="-27.948" y1="197.306" y2="197.306" gradientTransform="matrix(1.5020349,0,0,1.5833471,65.978905,732.45875)" gradientUnits="userSpaceOnUse" xlink:href="#linearGradient19282-4"/></defs><metadata id="metadata30576"/><g id="layer1" transform="translate(0,-1028.3622)"><g id="g9658"><path id="path106146" d="m -184,45 -1.19098,0.587785 -0.19099,1.314328 -0.92705,-0.951056 -1.30901,0.224514 L -187,45 l -0.61803,-1.175571 1.30901,0.224514 0.92705,-0.951056 0.19099,1.314328 z" transform="matrix(2.763932,0,0,2.8915211,520.56349,905.74375)" style="fill:url(#linearGradient10586);fill-opacity:1;stroke:none"/><path id="path6038" d="m 11.850842,1038.3989 c 0,0 -0.857257,-0.2549 -1.475514,0.5781 -0.6182559,0.8332 -0.28635,1.5615 -0.28635,1.5615 l 11.967961,10.7995 c 0,0 0.950781,0.1842 1.50468,-0.4647 0.5539,-0.6489 0.425497,-1.4419 0.425497,-1.4419 z" style="fill:url(#linearGradient10592);fill-opacity:1;fill-rule:evenodd;stroke:none;stroke-width:1.54215527px;stroke-linecap:butt;stroke-linejoin:miter;stroke-opacity:1"/></g></g></svg>