<svg xmlns="http://www.w3.org/2000/svg" xmlns:svg="http://www.w3.org/2000/svg" id="svg11300" width="24" height="24" version="1.0" viewBox="0 0 24 24"><metadata id="metadata4"/><g id="layer1" transform="translate(0,8)"><g id="g4296"><path id="rect8481" d="M 1,-7 V 3 H 7.6354167 L 13.234809,-2.999349 15,-1.108073 V -7 Z" style="display:inline;overflow:visible;visibility:visible;opacity:1;fill:#bebebe;fill-opacity:1;fill-rule:evenodd;stroke:none;stroke-width:1.41421366;stroke-linecap:square;stroke-linejoin:round;stroke-miterlimit:0;stroke-dasharray:none;stroke-dashoffset:0;stroke-opacity:1;marker:none;marker-start:none;marker-mid:none;marker-end:none;enable-background:accumulate"/><path style="fill:#bebebe;fill-opacity:1;fill-rule:evenodd;stroke:none;stroke-width:1.269382px;stroke-linecap:butt;stroke-linejoin:miter;stroke-opacity:1" id="path8487-9" d="M 21,-2.0376006 C 20.979746,-5.985634 20.964086,-5.972438 16.00544,-6.0000007 L 16,-4 c 2.996507,0.00956 2.981673,0.058528 3,2.0000017 L 16.015659,-1.9623993 16,-1 19.750278,2 24,-1 v -0.9999983 z"/><rect style="display:inline;overflow:visible;visibility:visible;opacity:1;fill:#bebebe;fill-opacity:1;fill-rule:evenodd;stroke:none;stroke-width:1.23077261;stroke-linecap:square;stroke-linejoin:round;stroke-miterlimit:0;stroke-dasharray:none;stroke-dashoffset:0;stroke-opacity:1;marker:none;marker-start:none;marker-mid:none;marker-end:none;enable-background:accumulate" id="rect8467-2" width="13.054" height="9.573" x="9.029" y="-10.443" transform="rotate(45)"/><path style="fill:#bebebe;fill-opacity:1;fill-rule:evenodd;stroke:none;stroke-width:1.269382px;stroke-linecap:butt;stroke-linejoin:miter;stroke-opacity:1" id="path8487-9-8" d="m 3.0000387,11.0376 c 0.02025,3.948033 0.03591,3.934837 4.99456,3.9624 l 0.0054,-2 c -2.996507,-0.0096 -2.981673,-0.05853 -3,-2.000002 l 2.984341,-0.0376 0.01566,-0.962399 L 4.2497217,6.9999986 0,9.999999 v 0.999998 z"/></g></g></svg>