<svg xmlns="http://www.w3.org/2000/svg" xmlns:osb="http://www.openswatchbook.org/uri/2009/osb" xmlns:svg="http://www.w3.org/2000/svg" xmlns:xlink="http://www.w3.org/1999/xlink" id="svg7384" width="24" height="24" version="1.1" viewBox="0 0 24 24"><metadata id="metadata90"/><defs id="defs7386"><linearGradient id="linearGradient19282-4" gradientTransform="matrix(0.34682586,0,0,0.30620888,-93.351872,162.03851)" osb:paint="solid"><stop id="stop19284-0" offset="0" style="stop-color:#bebebe;stop-opacity:1"/></linearGradient><linearGradient id="linearGradient7816" x1="64.069" x2="73" y1="602.5" y2="602.5" gradientTransform="matrix(1.4999998,0,0,1.4999998,772.24573,-669.31995)" gradientUnits="userSpaceOnUse" xlink:href="#linearGradient19282-4"/><linearGradient id="linearGradient7818" x1="-180" x2="-164" y1="393.5" y2="393.5" gradientTransform="matrix(1.4999998,0,0,1.4999998,1133.746,-343.81999)" gradientUnits="userSpaceOnUse" xlink:href="#linearGradient19282-4"/><linearGradient id="linearGradient7824" x1="66" x2="67" y1="609.5" y2="609.5" gradientTransform="matrix(2.0000001,0,0,1.9999998,1028.6612,-898.42665)" gradientUnits="userSpaceOnUse" xlink:href="#linearGradient19282-4"/><linearGradient id="linearGradient7826" x1="64" x2="65" y1="609.5" y2="609.5" gradientTransform="matrix(2.0000001,0,0,1.9999998,1028.6612,-898.42665)" gradientUnits="userSpaceOnUse" xlink:href="#linearGradient19282-4"/><linearGradient id="linearGradient7828" x1="63" x2="64" y1="610.5" y2="610.5" gradientTransform="matrix(2.0000001,0,0,1.9999998,1028.6612,-898.42665)" gradientUnits="userSpaceOnUse" xlink:href="#linearGradient19282-4"/><linearGradient id="linearGradient7830" x1="63" x2="71" y1="612.5" y2="612.5" gradientTransform="matrix(1.4999999,0,0,2,771.24584,-898.42675)" gradientUnits="userSpaceOnUse" xlink:href="#linearGradient19282-4"/><linearGradient id="linearGradient7832" x1="67" x2="68" y1="610.5" y2="610.5" gradientTransform="matrix(2.0000001,0,0,1.9999998,1028.6612,-898.42665)" gradientUnits="userSpaceOnUse" xlink:href="#linearGradient19282-4"/><linearGradient id="linearGradient7838" x1="63" x2="64" y1="608.5" y2="608.5" gradientTransform="matrix(2.0000001,0,0,1.9999998,1028.6612,-898.42665)" gradientUnits="userSpaceOnUse" xlink:href="#linearGradient19282-4"/><linearGradient id="linearGradient7840" x1="65" x2="66" y1="610.5" y2="610.5" gradientTransform="matrix(2.0000001,0,0,1.9999998,1028.6612,-898.42665)" gradientUnits="userSpaceOnUse" xlink:href="#linearGradient19282-4"/><linearGradient id="linearGradient7842" x1="65" x2="66" y1="608.5" y2="608.5" gradientTransform="matrix(2.0000001,0,0,1.9999998,1028.6612,-898.42665)" gradientUnits="userSpaceOnUse" xlink:href="#linearGradient19282-4"/><linearGradient id="linearGradient7844" x1="67" x2="68" y1="608.5" y2="608.5" gradientTransform="matrix(2.0000001,0,0,1.9999998,1028.6612,-898.42665)" gradientUnits="userSpaceOnUse" xlink:href="#linearGradient19282-4"/><linearGradient id="linearGradient7848" x1="68" x2="69" y1="609.5" y2="609.5" gradientTransform="matrix(2.0000001,0,0,1.9999998,1028.6612,-898.42665)" gradientUnits="userSpaceOnUse" xlink:href="#linearGradient19282-4"/><linearGradient id="linearGradient7852" x1="-169" x2="-168" y1="391.5" y2="391.5" gradientTransform="matrix(1.9999989,0,0,2.0000009,1505.6607,-465.42693)" gradientUnits="userSpaceOnUse" xlink:href="#linearGradient19282-4"/><linearGradient id="linearGradient7854" x1="-167" x2="-166" y1="391.5" y2="391.5" gradientTransform="matrix(1.9999989,0,0,2.0000009,1505.6607,-465.42693)" gradientUnits="userSpaceOnUse" xlink:href="#linearGradient19282-4"/><linearGradient id="linearGradient7856" x1="73" x2="74" y1="609.5" y2="609.5" gradientTransform="matrix(1.9999989,0,0,2.0000009,1023.6606,-899.42713)" gradientUnits="userSpaceOnUse" xlink:href="#linearGradient19282-4"/><linearGradient id="linearGradient7858" x1="74" x2="75" y1="610.5" y2="610.5" gradientTransform="matrix(1.9999989,0,0,2.0000009,1023.6606,-899.42713)" gradientUnits="userSpaceOnUse" xlink:href="#linearGradient19282-4"/><linearGradient id="linearGradient7860" x1="72" x2="73" y1="610.5" y2="610.5" gradientTransform="matrix(1.9999989,0,0,2.0000009,1023.6606,-899.42713)" gradientUnits="userSpaceOnUse" xlink:href="#linearGradient19282-4"/><linearGradient id="linearGradient7862" x1="73" x2="74" y1="611.5" y2="611.5" gradientTransform="matrix(1.9999989,0,0,2.0000009,1023.6606,-899.42713)" gradientUnits="userSpaceOnUse" xlink:href="#linearGradient19282-4"/><linearGradient id="linearGradient7860-5" x1="72" x2="73" y1="610.5" y2="610.5" gradientTransform="matrix(1.9999989,0,0,2.0000009,1023.6606,-894.42712)" gradientUnits="userSpaceOnUse" xlink:href="#linearGradient19282-4"/><linearGradient id="linearGradient7860-5-8" x1="72" x2="73" y1="610.5" y2="610.5" gradientTransform="matrix(1.9999989,0,0,2.0000009,1027.6606,-894.42712)" gradientUnits="userSpaceOnUse" xlink:href="#linearGradient19282-4"/></defs><g id="g4353"><path id="rect18257" d="m 2.4843707,10.000007 c -1.3771948,0 -2.4843747,1.607175 -2.4843747,2.98437 l 0,8.531249 C -4e-6,22.892821 1.1071759,24 2.4843707,24 l 19.0312473,0 c 1.377195,0 2.484375,-1.107179 2.484375,-2.484374 l 0,-8.531249 c 0,-1.377195 -1.10718,-2.98437 -2.484375,-2.98437 z m 0.5156283,0.99999 18,0 c 1.377195,0 1.999999,0.622808 2,2.000003 l 4e-6,8 c 1e-6,1.377195 -0.622809,1.999996 -2.000004,1.999996 l -18,0 C 1.6228042,22.999996 1.0000009,22.377195 1.0000009,21 l 0,-8 c 0,-1.377195 0.6228033,-2.000003 1.9999981,-2.000003 z" style="fill:url(#linearGradient7818);fill-opacity:1;stroke:none"/><rect id="rect18269" width="12" height="2" x="2" y="20" ry="0" style="fill:url(#linearGradient7830);fill-opacity:1;stroke:none"/><g id="g4342" transform="translate(-0.99999619,0)"><rect style="fill:url(#linearGradient7838);fill-opacity:1;stroke:none" id="rect18271" width="2" height="2" x="3" y="12"/><rect style="fill:url(#linearGradient7828);fill-opacity:1;stroke:none" id="rect18273" width="2" height="2" x="3" y="16"/><rect style="fill:url(#linearGradient7826);fill-opacity:1;stroke:none" id="rect18275" width="2" height="2" x="5" y="14"/><rect id="rect18279" width="2" height="2" x="7" y="12" style="fill:url(#linearGradient7842);fill-opacity:1;stroke:none"/><rect id="rect18281" width="2" height="2" x="7" y="16" style="fill:url(#linearGradient7840);fill-opacity:1;stroke:none"/><rect id="rect18283" width="2" height="2" x="9" y="14" style="fill:url(#linearGradient7824);fill-opacity:1;stroke:none"/><rect style="fill:url(#linearGradient7844);fill-opacity:1;stroke:none" id="rect18285" width="2" height="2" x="11" y="12"/><rect style="fill:url(#linearGradient7832);fill-opacity:1;stroke:none" id="rect18287" width="2" height="2" x="11" y="16"/><rect style="fill:url(#linearGradient7848);fill-opacity:1;stroke:none" id="rect18289" width="2" height="2" x="13" y="14"/></g><g id="g4272" transform="translate(0,1.0000031)"><rect style="fill:url(#linearGradient7858);fill-opacity:1;stroke:none" id="rect18297" width="2" height="2" x="20" y="15"/><rect style="fill:url(#linearGradient7860);fill-opacity:1;stroke:none" id="rect18299" width="2" height="2" x="16" y="15"/><rect style="fill:url(#linearGradient7856);fill-opacity:1;stroke:none" id="rect18301" width="2" height="2" x="18" y="13"/><rect style="fill:url(#linearGradient7852);fill-opacity:1;stroke:none" id="rect18303" width="2" height="2" x="16" y="11"/><rect style="fill:url(#linearGradient7854);fill-opacity:1;stroke:none" id="rect18305" width="2" height="2" x="20" y="11"/><rect id="rect18309" width="2" height="2" x="18" y="17" style="fill:url(#linearGradient7862);fill-opacity:1;stroke:none"/></g><path id="path18333" d="m 8.5781217,5.9999994 4.2336223,0 0.688252,0 0,0 c 0.964114,0 3,-0.5218799 3,2.9999996 l 0,1.5 1.499999,0 0,-2.9999998 c 0,0 0,-2.9999996 -2.999999,-2.9999996 -0.405765,0.012 -0.931872,-7.5e-4 -1.078125,0 l -1.921875,0 -3.8039408,0 c -0.3674924,0 -2.5606602,0.349425 -1.4082013,-1.4999998 L 8.3953332,2.0000004e-7 6.3977444,0.0010502 4.8867751,2.9999998 c -0.8591473,2.0946447 0.3648945,2.9999996 1.9252063,2.9999996 0.4057649,-0.012 1.6198873,7.5e-4 1.7661403,0" style="color:#000;font-style:normal;font-variant:normal;font-weight:400;font-stretch:normal;font-size:medium;line-height:normal;font-family:Sans;-inkscape-font-specification:Sans;text-indent:0;text-align:start;text-decoration:none;text-decoration-line:none;letter-spacing:normal;word-spacing:normal;text-transform:none;direction:ltr;writing-mode:lr-tb;baseline-shift:baseline;text-anchor:start;display:inline;overflow:visible;visibility:visible;fill:url(#linearGradient7816);fill-opacity:1;stroke:none;stroke-width:1;marker:none;enable-background:accumulate;stroke-miterlimit:4;stroke-dasharray:none"/><rect style="fill:url(#linearGradient7860-5);fill-opacity:1;stroke:none" id="rect18299-7" width="2" height="2" x="16" y="20"/><rect style="fill:url(#linearGradient7860-5-8);fill-opacity:1;stroke:none" id="rect18299-7-4" width="2" height="2" x="20" y="20"/></g></svg>