<svg xmlns="http://www.w3.org/2000/svg" xmlns:osb="http://www.openswatchbook.org/uri/2009/osb" xmlns:svg="http://www.w3.org/2000/svg" xmlns:xlink="http://www.w3.org/1999/xlink" id="svg7384" width="24" height="24" version="1.1" viewBox="0 0 24 24"><metadata id="metadata90"/><defs id="defs7386"><linearGradient id="linearGradient19282-4" gradientTransform="matrix(0.34682586,0,0,0.30620888,-99.35207,781.03851)" osb:paint="solid"><stop id="stop19284-0" offset="0" style="stop-color:#bebebe;stop-opacity:1"/></linearGradient><linearGradient id="linearGradient8023" x1="55.011" x2="71" y1="-13.985" y2="-13.985" gradientTransform="matrix(1.5,0,0,1.5,1068.7727,530.19348)" gradientUnits="userSpaceOnUse" xlink:href="#linearGradient19282-4"/><linearGradient id="linearGradient8025" x1="63" x2="65" y1="-14" y2="-14" gradientTransform="matrix(1.5,0,0,1.5,1068.7727,529.69348)" gradientUnits="userSpaceOnUse" xlink:href="#linearGradient19282-4"/><linearGradient id="linearGradient8027" x1="104" x2="114" y1="478" y2="478" gradientTransform="matrix(1.2,0,0,1.2000001,1032.4727,-53.468386)" gradientUnits="userSpaceOnUse" xlink:href="#linearGradient19282-4"/></defs><g id="g4263"><circle id="path12374" cx="12" cy="16" r="6" style="fill:url(#linearGradient8027);fill-opacity:1;stroke:none;stroke-width:1.20000005"/><path id="path12620" d="M 11.71875,0.09375 C 10.057005,0.09825 8.38833,0.41646 6.890625,1.125 c -5.99085,2.834175 -8.55291,9.993525 -5.71875,15.984375 0.13635,0.288135 0.31305,0.571695 0.46875,0.84375 C -0.137565,12.93705 2.163765,7.29366 7.078125,4.96875 9.28404,3.92517 11.790875,3.71652 14,4.21875 L 15.3,0.3 C 14.47461,0.119715 13.830975,0.18981 12.9375,0.140625 12.617145,0.110775 12.320115,0.099825 12,0.093825 c -0.09585,-0.0015 -0.18552,-2.85e-4 -0.28125,0 z M 17.7,1 16,5 c 1.43544,0.85383 3.61868,2.499775 4.53125,4 L 24,7.5 C 23.39469,5.0139 20.44683,2.32276 17.7,1 Z" style="fill:url(#linearGradient8023);fill-opacity:1;stroke:none;stroke-width:1.5"/><path id="path12636" d="M 15,11.5 V 5 l -3,5 z" style="fill:url(#linearGradient8025);fill-opacity:1;stroke:none;stroke-width:1.5"/></g></svg>