<svg xmlns="http://www.w3.org/2000/svg" xmlns:osb="http://www.openswatchbook.org/uri/2009/osb" xmlns:svg="http://www.w3.org/2000/svg" xmlns:xlink="http://www.w3.org/1999/xlink" id="svg30571" width="24" height="24" version="1.1" viewBox="0 0 24 24"><defs id="defs30573"><linearGradient id="linearGradient19282-4" gradientTransform="matrix(0.34682586,0,0,0.30620888,-482.61525,330.965)" osb:paint="solid"><stop style="stop-color:#bebebe;stop-opacity:1" id="stop19284-0" offset="0"/></linearGradient><linearGradient id="linearGradient10544" x1="104" x2="113.957" y1="205" y2="205" gradientTransform="matrix(1.5064773,0,0,1.5714259,-152.17394,718.21989)" gradientUnits="userSpaceOnUse" xlink:href="#linearGradient19282-4"/><linearGradient id="linearGradient10550" x1="-138.998" x2="-124.939" y1="-12.001" y2="-12.001" gradientTransform="matrix(1.5648286,0,0,1.4998037,218.50848,1058.3617)" gradientUnits="userSpaceOnUse" xlink:href="#linearGradient19282-4"/></defs><metadata id="metadata30576"/><g id="layer1" transform="translate(0,-1028.3622)"><g id="g9817"><path style="display:inline;fill:url(#linearGradient10544);fill-opacity:1;stroke:none;stroke-width:1.53860891" id="path82132" d="m 12.689557,1030.1179 c -0.324917,0.2813 -0.613905,0.6419 -0.819027,1.0621 l -7.0170201,14.3371 c -0.8205781,1.6807 -0.1626844,3.7541 1.4570347,4.6525 l 1.4245399,0.7813 c 1.6197192,0.8985 3.5738005,0.2778 4.3943795,-1.4029 l 7.017035,-14.3371 c 0.820563,-1.6807 0.162684,-3.7541 -1.45705,-4.6525 l -1.424525,-0.7813 c -1.214793,-0.6738 -2.600707,-0.5033 -3.575367,0.3408 z m -2.215516,7.0169 c 0.496655,-0.3856 1.221437,-0.2867 1.600602,0.2185 0.379165,0.5051 0.281937,1.2422 -0.214733,1.6278 -0.496671,0.3857 -1.221452,0.2868 -1.600617,-0.2184 -0.3791657,-0.505 -0.2819376,-1.2422 0.214748,-1.6279 z m -1.4965496,3.1103 c 0.4966554,-0.3856 1.2214366,-0.2867 1.6006166,0.2184 0.379151,0.5051 0.281938,1.2422 -0.214718,1.6278 -0.4966703,0.3856 -1.2214516,0.2868 -1.6006168,-0.2183 -0.3791803,-0.5052 -0.2819523,-1.2423 0.2147182,-1.6279 z m 4.5546226,-1.5882 c 0.496641,-0.3856 1.221437,-0.2867 1.600617,0.2184 0.379151,0.5051 0.281938,1.2423 -0.214733,1.6279 -0.49667,0.3857 -1.221452,0.2868 -1.600602,-0.2184 -0.37918,-0.5052 -0.281952,-1.2423 0.214718,-1.6279 z m -1.496534,3.1102 c 0.49667,-0.3856 1.221437,-0.2868 1.600617,0.2184 0.379165,0.5052 0.281952,1.2423 -0.214718,1.6279 -0.496671,0.3856 -1.221467,0.2867 -1.600632,-0.2184 -0.379166,-0.5051 -0.281953,-1.2423 0.214733,-1.6279 z"/><path id="path82165" d="m 5.0560682,1032.8651 c -1.314503,-0.053 -2.5174024,0.6533 -3.0807564,1.9216 l -0.6846125,1.4998 c -0.75118039,1.6911 6.102e-4,3.7053 1.7115313,4.4994 l 1.3692251,0.6093 3.8142699,-7.3584 -1.8093332,-0.8437 c -0.4277459,-0.1984 -0.8821565,-0.3109 -1.3203242,-0.328 z m 14.5235658,6.421 -3.86317,7.3585 1.907134,0.8904 c 1.710906,0.7941 3.649901,0.097 4.401081,-1.5935 l 0.684613,-1.4999 c 0.751196,-1.691 -5.95e-4,-3.7053 -1.711532,-4.4994 z" style="display:inline;opacity:.5;fill:url(#linearGradient10550);fill-opacity:1;stroke:none;stroke-width:1.53197122"/></g></g></svg>