<svg xmlns="http://www.w3.org/2000/svg" xmlns:osb="http://www.openswatchbook.org/uri/2009/osb" xmlns:svg="http://www.w3.org/2000/svg" xmlns:xlink="http://www.w3.org/1999/xlink" id="svg7384" width="24" height="24" version="1.1" viewBox="0 0 24 24"><metadata id="metadata90"/><defs id="defs7386"><linearGradient id="linearGradient8074" osb:paint="solid"><stop id="stop8072" offset="0" style="stop-color:#be00be;stop-opacity:1"/></linearGradient><linearGradient id="linearGradient7561" osb:paint="solid"><stop id="stop7558" offset="0" style="stop-color:#a5a5a5;stop-opacity:1"/></linearGradient><linearGradient id="linearGradient7548" osb:paint="solid"><stop id="stop7546" offset="0" style="stop-color:#ebebeb;stop-opacity:1"/></linearGradient><linearGradient id="linearGradient7542" osb:paint="solid"><stop id="stop7538" offset="0" style="stop-color:#c9c9c9;stop-opacity:1"/></linearGradient><linearGradient id="linearGradient19282" gradientTransform="matrix(0,-735328.32,170712.69,0,2464326300,577972450)" osb:paint="solid"><stop id="stop19284" offset="0" style="stop-color:#b4b4b4;stop-opacity:1"/></linearGradient><linearGradient id="linearGradient19282-4" gradientTransform="matrix(0.34682586,0,0,0.30620888,26.648128,242.03851)" osb:paint="solid"><stop id="stop19284-0" offset="0" style="stop-color:#bebebe;stop-opacity:1"/></linearGradient><linearGradient id="linearGradient7150" x1="188" x2="190" y1="-533" y2="-533" gradientTransform="matrix(1.4999998,0,0,1.4999998,366.57465,618.49925)" gradientUnits="userSpaceOnUse" xlink:href="#linearGradient19282-4"/><linearGradient id="linearGradient7152" x1="526" x2="528" y1="-183" y2="-183" gradientTransform="matrix(1.4999998,0,0,1.4999998,-618.49925,-366.57465)" gradientUnits="userSpaceOnUse" xlink:href="#linearGradient19282-4"/><linearGradient id="linearGradient7154" x1="188" x2="190" y1="521" y2="521" gradientTransform="matrix(1.4999998,0,0,1.4999998,366.57465,-618.49925)" gradientUnits="userSpaceOnUse" xlink:href="#linearGradient19282-4"/><linearGradient id="linearGradient7156" x1="-57" x2="-47" y1="310" y2="310" gradientTransform="matrix(1.6,0,0,1.6,775.81335,-313.33263)" gradientUnits="userSpaceOnUse" xlink:href="#linearGradient19282-4"/><linearGradient id="linearGradient7158" x1="526" x2="528" y1="195" y2="195" gradientTransform="matrix(1.4999998,0,0,1.4999998,-618.49925,366.57465)" gradientUnits="userSpaceOnUse" xlink:href="#linearGradient19282-4"/><linearGradient id="linearGradient7164" x1="192" x2="196" y1="534.5" y2="534.5" gradientTransform="matrix(1.75,0,0,1.4999998,424.42048,-618.49925)" gradientUnits="userSpaceOnUse" xlink:href="#linearGradient19282-4"/><linearGradient id="linearGradient7166" x1="192" x2="195" y1="532.5" y2="532.5" gradientTransform="matrix(1.6666668,0,0,1.6,404.97192,-661.33262)" gradientUnits="userSpaceOnUse" xlink:href="#linearGradient19282-4"/></defs><g id="g4180"><rect id="rect28130" width="3" height="6" x="10.5" y="0" rx="1.5" ry="1.5" style="fill:url(#linearGradient7154);fill-opacity:1;stroke:none"/><rect style="fill:url(#linearGradient7150);fill-opacity:1;stroke:none" id="rect28132" width="3" height="6" x="10.5" y="-24" rx="1.5" ry="1.5" transform="scale(1,-1)"/><rect style="fill:url(#linearGradient7152);fill-opacity:1;stroke:none" id="rect28134" width="3" height="6" x="10.5" y="-6" rx="1.5" ry="1.5" transform="matrix(0,1,-1,0,0,0)"/><rect id="rect28136" width="3" height="6" x="10.5" y="18" rx="1.5" ry="1.5" transform="matrix(0,1,1,0,0,0)" style="fill:url(#linearGradient7158);fill-opacity:1;stroke:none"/><path id="path28141" d="m 11.999999,4 c -4.4182783,0 -8,3.5817281 -8,8 0,4.418272 3.5817217,8 8,8 0.552285,0 0.97922,-0.04352 1.5,-0.14992 l 0,-3.10008 c -0.506355,0.181632 -0.931146,0.25 -1.5,0.25 -2.6509663,0 -5,-2.34896 -5,-4.99992 0,-2.65096 2.3490337,-5.00008 5,-5.00008 2.650967,0 5,2.34912 5,5.00008 0,0.568848 -0.06837,0.993568 -0.25,1.49992 l 3.1,0 c 0.10656,-0.520784 0.15,-0.947632 0.15,-1.49992 0,-4.4182719 -3.581721,-8 -8,-8 z" style="fill:url(#linearGradient7156);fill-opacity:1;stroke:none"/><path id="path28149" d="m 15.999999,18 0,-1.999997 5,0 0,8 -3,0 0,-6.4 0,0.399997 z" style="fill:url(#linearGradient7166);fill-opacity:1;stroke:none"/><rect id="rect28151" width="7" height="1.5" x="16" y="22.5" rx="1.75" ry="1.5" style="fill:url(#linearGradient7164);fill-opacity:1;stroke:none"/></g></svg>