<svg xmlns="http://www.w3.org/2000/svg" xmlns:osb="http://www.openswatchbook.org/uri/2009/osb" xmlns:svg="http://www.w3.org/2000/svg" xmlns:xlink="http://www.w3.org/1999/xlink" id="svg30571" width="24" height="24" version="1.1" viewBox="0 0 24 24"><defs id="defs30573"><linearGradient id="linearGradient19282-4" gradientTransform="matrix(0.34682586,0,0,0.30620888,-482.61525,330.965)" osb:paint="solid"><stop style="stop-color:#bebebe;stop-opacity:1" id="stop19284-0" offset="0"/></linearGradient><linearGradient id="linearGradient9726-9" x1="189" x2="190" y1="237.5" y2="237.5" gradientTransform="matrix(1.9999967,0,0,1.9999542,-367.99977,554.3731)" gradientUnits="userSpaceOnUse" xlink:href="#linearGradient19282-4"/><linearGradient id="linearGradient9724-0" x1="191" x2="192" y1="237.5" y2="237.5" gradientTransform="matrix(1.9999967,0,0,1.9999542,-367.99976,554.3731)" gradientUnits="userSpaceOnUse" xlink:href="#linearGradient19282-4"/><linearGradient id="linearGradient9722-3" x1="193" x2="194" y1="237.5" y2="237.5" gradientTransform="matrix(1.9999967,0,0,1.9999542,-367.99974,554.3731)" gradientUnits="userSpaceOnUse" xlink:href="#linearGradient19282-4"/><linearGradient id="linearGradient9718-0" x1="193" x2="194" y1="-241.5" y2="-241.5" gradientTransform="matrix(1.9999967,0,0,2,-367.99974,-550.36218)" gradientUnits="userSpaceOnUse" xlink:href="#linearGradient19282-4"/><linearGradient id="linearGradient9716-3" x1="193" x2="194" y1="-243.5" y2="-243.5" gradientTransform="matrix(1.9999967,0,0,2,-367.99974,-550.36229)" gradientUnits="userSpaceOnUse" xlink:href="#linearGradient19282-4"/><linearGradient id="linearGradient9714-9" x1="193" x2="194" y1="-245.5" y2="-245.5" gradientTransform="matrix(1.9999967,0,0,2,-367.99974,-550.36218)" gradientUnits="userSpaceOnUse" xlink:href="#linearGradient19282-4"/><linearGradient id="linearGradient9698-9" x1="183" x2="184" y1="-239.5" y2="-239.5" gradientTransform="matrix(1.9999967,0,0,2,-363.99979,-554.36225)" gradientUnits="userSpaceOnUse" xlink:href="#linearGradient19282-4"/><linearGradient id="linearGradient9732-3" x1="183" x2="184" y1="-237.5" y2="-237.5" gradientTransform="matrix(1.9999967,0,0,1.9999542,-363.99979,-554.3731)" gradientUnits="userSpaceOnUse" xlink:href="#linearGradient19282-4"/><linearGradient id="linearGradient10740-5" x1="-54" x2="-51" y1="23.5" y2="23.5" gradientTransform="matrix(2.6666666,0,0,2.6666667,150.99999,972.69558)" gradientUnits="userSpaceOnUse" xlink:href="#linearGradient19282-4"/><linearGradient id="linearGradient10734-1" x1="190" x2="195" y1="250.525" y2="250.525" gradientTransform="matrix(1.6000001,0,0,1.5841588,-292.00033,651.49081)" gradientUnits="userSpaceOnUse" xlink:href="#linearGradient19282-4"/><linearGradient id="linearGradient10728-5" x1="-58" x2="-54" y1="32" y2="32" gradientTransform="matrix(2.0000001,0,0,2,118,984.36227)" gradientUnits="userSpaceOnUse" xlink:href="#linearGradient19282-4"/><linearGradient id="linearGradient9702-6" x1="183" x2="184" y1="-243.5" y2="-243.5" gradientTransform="matrix(1.9999967,0,0,2,-363.99979,-550.36223)" gradientUnits="userSpaceOnUse" xlink:href="#linearGradient19282-4"/><linearGradient id="linearGradient9704-5" x1="183" x2="184" y1="-245.5" y2="-245.5" gradientTransform="matrix(1.9999967,0,0,2,-363.99979,-550.36218)" gradientUnits="userSpaceOnUse" xlink:href="#linearGradient19282-4"/><linearGradient id="linearGradient9706-5" x1="185" x2="186" y1="-245.5" y2="-245.5" gradientTransform="matrix(1.9991272,0,0,2,-363.83806,-550.36218)" gradientUnits="userSpaceOnUse" xlink:href="#linearGradient19282-4"/><linearGradient id="linearGradient9710-0" x1="189" x2="190" y1="-245.5" y2="-245.5" gradientTransform="matrix(1.9999967,0,0,2,-367.99977,-550.36218)" gradientUnits="userSpaceOnUse" xlink:href="#linearGradient19282-4"/><linearGradient id="linearGradient9712-7" x1="191" x2="192" y1="-245.5" y2="-245.5" gradientTransform="matrix(1.9999967,0,0,2,-367.99976,-550.36218)" gradientUnits="userSpaceOnUse" xlink:href="#linearGradient19282-4"/><linearGradient id="linearGradient9732-6-4" x1="183" x2="184" y1="-237.5" y2="-237.5" gradientTransform="matrix(1.9991272,0,0,1.9999542,-359.84067,-554.37311)" gradientUnits="userSpaceOnUse" xlink:href="#linearGradient19282-4"/></defs><metadata id="metadata30576"/><g id="layer1" transform="translate(-0.1249999,-1033.2372)"><g style="display:inline" id="gimp-tool-by-color-select-24" transform="translate(0.12499235,4.8750259)"><rect id="rect22454-9" width="24" height="23.925" x="0" y="1028.362" rx="2.892" ry="0" style="opacity:0;fill:none;stroke:none;stroke-width:1.49766171"/><g id="g10794" transform="translate(1)"><rect id="rect29817-7" width="2" height="2" x="10" y="1028.362" rx=".177" ry="0" style="fill:url(#linearGradient9726-9);fill-opacity:1;stroke:none;stroke-width:1.99997544"/><rect style="fill:url(#linearGradient9724-0);fill-opacity:1;stroke:none;stroke-width:1.99997544" id="rect29819-4" width="2" height="2" x="14" y="1028.362" rx=".177" ry="0"/><rect id="rect29821-7" width="2" height="2" x="18" y="1028.362" rx=".177" ry="0" style="fill:url(#linearGradient9722-3);fill-opacity:1;stroke:none;stroke-width:1.99997544"/><rect id="rect29825-5" width="2" height="2" x="18" y="-1034.362" rx=".177" ry="0" transform="scale(1,-1)" style="fill:url(#linearGradient9718-0);fill-opacity:1;stroke:none;stroke-width:1.99999833"/><rect style="fill:url(#linearGradient9716-3);fill-opacity:1;stroke:none;stroke-width:1.99999833" id="rect29827-0" width="2" height="2" x="18" y="-1038.362" rx=".177" ry="0" transform="scale(1,-1)"/><rect id="rect29829-5" width="2" height="2" x="18" y="-1042.362" rx=".177" ry="0" transform="scale(1,-1)" style="fill:url(#linearGradient9714-9);fill-opacity:1;stroke:none;stroke-width:1.99999833"/><rect id="rect29833-6" width="2" height="2" x="2" y="-1034.362" rx=".177" ry="0" transform="scale(1,-1)" style="fill:url(#linearGradient9698-9);fill-opacity:1;stroke:none;stroke-width:1.99999833"/><rect style="fill:url(#linearGradient9732-3);fill-opacity:1;stroke:none;stroke-width:1.99997544" id="rect29835-6" width="2" height="2" x="2" y="-1030.362" rx=".177" ry="0" transform="scale(1,-1)"/><path style="fill:url(#linearGradient10740-5);fill-opacity:1;stroke:none;stroke-width:2.66666675" id="path29837-5" d="m 15,1035.3622 a 4,4 0 0 1 -4,4 4,4 0 0 1 -4,-4 4,4 0 0 1 4,-4 4,4 0 0 1 4,4 z"/><path style="color:#000;font-style:normal;font-variant:normal;font-weight:400;font-stretch:normal;font-size:medium;line-height:normal;font-family:Sans;-inkscape-font-specification:Sans;text-indent:0;text-align:start;text-decoration:none;text-decoration-line:none;letter-spacing:normal;word-spacing:normal;text-transform:none;writing-mode:lr-tb;direction:ltr;baseline-shift:baseline;text-anchor:start;display:inline;overflow:visible;visibility:visible;fill:url(#linearGradient10734-1);fill-opacity:1;stroke:none;stroke-width:1.59205961;marker:none;enable-background:accumulate" id="path29839-8" d="m 16,1044.3622 c -2.199664,0 -4,1.8004 -4,4 0,2.1996 1.800336,4 4,4 2.199664,0 4,-1.8004 4,-4 0,-2.1996 -1.800336,-4 -4,-4 z m 0,1.6 c 1.334976,0 2.4,1.065 2.4,2.4 0,1.335 -1.065024,2.4 -2.4,2.4 -1.334976,0 -2.4,-1.065 -2.4,-2.4 0,-1.335 1.065024,-2.4 2.4,-2.4 z"/><path style="opacity:.5;fill:url(#linearGradient10728-5);fill-opacity:1;stroke:none;stroke-width:2" id="path29841-2" d="m 10,1048.3622 a 4,4 0 0 1 -4,4 4,4 0 0 1 -4,-4 4,4 0 0 1 4,-4 4,4 0 0 1 4,4 z"/><rect style="fill:url(#linearGradient9702-6);fill-opacity:1;stroke:none;stroke-width:1.99999833" id="rect29843-4" width="2" height="2" x="2" y="-1038.362" rx=".177" ry="0" transform="scale(1,-1)"/><rect id="rect29845-9" width="2" height="2" x="2" y="-1042.362" rx=".177" ry="0" transform="scale(1,-1)" style="fill:url(#linearGradient9704-5);fill-opacity:1;stroke:none;stroke-width:1.99999833"/><rect style="fill:url(#linearGradient9706-5);fill-opacity:1;stroke:none;stroke-width:1.99956357" id="rect29847-0" width="1.999" height="2" x="6.001" y="-1042.362" rx=".177" ry="0" transform="scale(1,-1)"/><rect style="fill:url(#linearGradient9710-0);fill-opacity:1;stroke:none;stroke-width:1.99999833" id="rect29851-4" width="2" height="2" x="10" y="-1042.362" rx=".177" ry="0" transform="scale(1,-1)"/><rect id="rect29853-3" width="2" height="2" x="14" y="-1042.362" rx=".177" ry="0" transform="scale(1,-1)" style="fill:url(#linearGradient9712-7);fill-opacity:1;stroke:none;stroke-width:1.99999833"/><rect id="rect29835-1-0" width="1.999" height="2" x="6" y="-1030.362" rx=".177" ry="0" transform="scale(1,-1)" style="display:inline;fill:url(#linearGradient9732-6-4);fill-opacity:1;stroke:none;stroke-width:1.99954069"/></g></g></g></svg>