<svg xmlns="http://www.w3.org/2000/svg" xmlns:osb="http://www.openswatchbook.org/uri/2009/osb" xmlns:svg="http://www.w3.org/2000/svg" xmlns:xlink="http://www.w3.org/1999/xlink" id="svg7384" width="24" height="24" version="1.1" viewBox="0 0 24 24"><metadata id="metadata90"/><defs id="defs7386"><linearGradient id="linearGradient8074" osb:paint="solid"><stop id="stop8072" offset="0" style="stop-color:#be00be;stop-opacity:1"/></linearGradient><linearGradient id="linearGradient7561" osb:paint="solid"><stop id="stop7558" offset="0" style="stop-color:#a5a5a5;stop-opacity:1"/></linearGradient><linearGradient id="linearGradient7548" osb:paint="solid"><stop id="stop7546" offset="0" style="stop-color:#ebebeb;stop-opacity:1"/></linearGradient><linearGradient id="linearGradient7542" osb:paint="solid"><stop id="stop7538" offset="0" style="stop-color:#c9c9c9;stop-opacity:1"/></linearGradient><linearGradient id="linearGradient19282" gradientTransform="matrix(0,-735328.32,170712.69,0,2464326300,577972450)" osb:paint="solid"><stop id="stop19284" offset="0" style="stop-color:#b4b4b4;stop-opacity:1"/></linearGradient><linearGradient id="linearGradient19282-4" gradientTransform="matrix(0.34682586,0,0,0.30620888,-19.35207,801.03851)" osb:paint="solid"><stop id="stop19284-0" offset="0" style="stop-color:#bebebe;stop-opacity:1"/></linearGradient><linearGradient id="linearGradient8364" x1="135" x2="151" y1="-32" y2="-32" gradientTransform="translate(811.48816,421.87401)" gradientUnits="userSpaceOnUse" xlink:href="#linearGradient19282-4"/></defs><g style="display:inline" id="preferences" transform="matrix(1.5,0,0,1.5,-297.25132,-395.81101)"><g id="gimp-prefs-folders-plug-ins" transform="translate(63.167547,303.87401)"><g id="g612" transform="translate(120)"><path style="display:inline;fill:url(#linearGradient8364);fill-opacity:1;stroke:none" id="path29116" d="M 135.53125,-40 C 135.24212,-40 135,-39.75788 135,-39.46875 v 14.9375 c 0,0.2985 0.23264,0.53125 0.53125,0.53125 h 14.9375 C 150.76735,-24 151,-24.23265 151,-24.53125 v -9.63542 c 0,-0.2891 -0.24223,-0.492061 -0.53125,-0.5 H 138.33333 V -26.5 c 0,0.277 -0.38966,0.5 -0.66666,0.5 C 137.38967,-26 137,-26.223 137,-26.5 v -9 c 0,-0.277 0.223,-0.5 0.5,-0.5 H 140.46875 149 v -1.40625 C 149,-37.73345 148.73334,-38 148.40625,-38 H 141 v -1.46875 C 141,-39.7579 140.75788,-40 140.46875,-40 Z m 9.13542,6 c 0.5,0 0.83333,0.166667 0.83333,0.5 v 1.5 h 2.16667 v 2 l -1.16667,-3e-6 c -0.66609,-0.02775 -0.66667,1.999998 0,2 l 1.16667,3e-6 v 2 l -6,-3e-6 v -2 L 140.5625,-28 c -0.66667,2e-6 -0.66667,-2 0,-2 l 1.10417,-3e-6 v -2 l 2,3e-6 v -1.5 c 0,-0.333333 0.5,-0.5 1,-0.5 z" transform="translate(-120)"/></g></g></g></svg>