<svg xmlns="http://www.w3.org/2000/svg" xmlns:osb="http://www.openswatchbook.org/uri/2009/osb" xmlns:svg="http://www.w3.org/2000/svg" xmlns:xlink="http://www.w3.org/1999/xlink" id="svg30571" width="24" height="24" version="1.1" viewBox="0 0 24 24"><defs id="defs30573"><linearGradient id="linearGradient19282-4" gradientTransform="matrix(0.34682586,0,0,0.30620888,-73.351872,584.03851)" osb:paint="solid"><stop id="stop19284-0" offset="0" style="stop-color:#bebebe;stop-opacity:1"/></linearGradient><linearGradient id="linearGradient10390" x1="82" x2="94" y1="187" y2="187" gradientTransform="translate(246.52189,191.51971)" gradientUnits="userSpaceOnUse" xlink:href="#linearGradient19282-4"/><linearGradient id="linearGradient10396-3" x1="-148.719" x2="-144" y1="-36.782" y2="-36.782" gradientTransform="translate(246.52189,191.51971)" gradientUnits="userSpaceOnUse" xlink:href="#linearGradient19282-4"/></defs><metadata id="metadata30576"/><g id="layer1" transform="translate(0,-1028.3622)"><g id="g67"><path id="path2" d="M 12,0 C 11.561656,0 10.677902,0.47588125 10.595703,0.80078125 L 9.3300781,3 H 0 V 18 H 3 L 1.5,24 H 3 l 0.75,-3 h 16.5 L 21,24 h 1.5 L 21,18 h 3 V 5 L 23,6 V 17 H 1 V 4 H 17 L 18,3 H 14.824219 L 13.310547,0.65039062 C 13.030484,0.28469062 12.431369,0 12,0 Z m 0,1.5 0.75,1.5 h -1.5 z M 4.5,18 h 15 v 1.5 h -15 z" transform="translate(0,1028.3622)" style="fill:#bebebe;fill-opacity:1;stroke-width:.13086028"/><g id="tools-7" transform="translate(52.111792,772.31901)" style="display:inline"><g style="display:inline" id="gimp-tool-pencil-5" transform="translate(-125.11199,79.04319)"><path id="path69005" d="m -146.84375,-39 -1.875,2 c 1.32873,0.02586 2.66512,1.211567 2.71875,2.4375 l 2,-2 c -0.0554,-1.26532 -1.47439,-2.4884 -2.84375,-2.4375 z" transform="translate(241.0002,217)" style="fill:url(#linearGradient10396-3);fill-opacity:1;fill-rule:evenodd;stroke:none"/><path id="path2273-6-2" d="m 83.63056,189.03603 7.520215,-8.03448 c 1.369356,-0.0509 2.794069,1.16344 2.849425,2.42876 l -7.490043,7.79401 -4.509957,1.77567 z" style="fill:url(#linearGradient10390);fill-opacity:1;fill-rule:evenodd;stroke:none"/></g></g></g></g></svg>