<svg xmlns="http://www.w3.org/2000/svg" xmlns:osb="http://www.openswatchbook.org/uri/2009/osb" xmlns:svg="http://www.w3.org/2000/svg" xmlns:xlink="http://www.w3.org/1999/xlink" id="svg30571" width="24" height="24" version="1.1" viewBox="0 0 24 24"><title id="title4296">GIMP Offset Tool</title><defs id="defs30573"><linearGradient id="linearGradient19282-4" gradientTransform="matrix(0.34682586,0,0,0.30620888,-482.61525,330.965)" osb:paint="solid"><stop style="stop-color:#bebebe;stop-opacity:1" id="stop19284-0" offset="0"/></linearGradient><linearGradient id="linearGradient9850" x1="-139" x2="-125" y1="68" y2="68" gradientTransform="matrix(1.5714285,0,0,1.5714285,219.42856,933.50501)" gradientUnits="userSpaceOnUse" xlink:href="#linearGradient19282-4"/><linearGradient id="linearGradient7060" x1="295.703" x2="311.703" y1="305.369" y2="305.369" gradientUnits="userSpaceOnUse" xlink:href="#linearGradient19282-4"/></defs><metadata id="metadata30576"/><g id="layer1" transform="translate(0,-1028.3622)"><g id="gimp-tool-offset"><path style="color:#000;font-style:normal;font-variant:normal;font-weight:400;font-stretch:normal;font-size:medium;line-height:normal;font-family:sans-serif;font-variant-ligatures:normal;font-variant-position:normal;font-variant-caps:normal;font-variant-numeric:normal;font-variant-alternates:normal;font-feature-settings:normal;text-indent:0;text-align:start;text-decoration:none;text-decoration-line:none;text-decoration-style:solid;text-decoration-color:#000;letter-spacing:normal;word-spacing:normal;text-transform:none;writing-mode:lr-tb;direction:ltr;text-orientation:mixed;dominant-baseline:auto;baseline-shift:baseline;text-anchor:start;white-space:normal;shape-padding:0;clip-rule:nonzero;display:inline;overflow:visible;visibility:visible;opacity:1;isolation:auto;mix-blend-mode:normal;color-interpolation:sRGB;color-interpolation-filters:linearRGB;solid-color:#000;solid-opacity:1;vector-effect:none;fill:#bebebe;fill-opacity:1;fill-rule:evenodd;stroke:none;stroke-width:1px;stroke-linecap:butt;stroke-linejoin:miter;stroke-miterlimit:4;stroke-dasharray:none;stroke-dashoffset:0;stroke-opacity:1;color-rendering:auto;image-rendering:auto;shape-rendering:auto;text-rendering:auto;enable-background:accumulate" id="rect3623" d="m 1,1029.3613 v 0.5 21.5 h 22 v -22 z m 1,1 h 20 v 20 H 2 Z"/><g id="gimp-tool-move" transform="matrix(0.9999675,0,0,0.9999675,-96.996396,835.36912)" style="display:inline;stroke-width:1.50000012"><path id="path74740" d="m 303.70338,297.3695 -3.33336,2.66678 h 2.66667 v 4.67756 c -1.34341,-0.0101 -3.32302,-0.0211 -4.66682,-0.0293 v -2.64822 l -2.66675,3.33344 2.66675,3.33344 v -2.66675 c 1.34376,-9e-5 3.32305,-0.003 4.66682,0 0,1.5556 0,3.11121 0,4.66681 h -2.66683 l 3.33352,2.66676 3.33344,-2.66676 h -2.66675 c 0,-1.5556 0,-3.11121 0,-4.66681 1.33334,9e-4 3.33349,0.004 4.66681,0 v 2.66675 l 2.66676,-3.33344 -2.66676,-3.33344 v 2.65018 c -1.33322,0.0235 -3.33298,0.0388 -4.66681,0.0351 v -4.68537 h 2.66675 z" transform="translate(-194.70344,-100.37001)" style="fill:url(#linearGradient7060);fill-opacity:1;stroke:none;stroke-width:1.50000012"/></g></g></g></svg>