<svg xmlns="http://www.w3.org/2000/svg" xmlns:osb="http://www.openswatchbook.org/uri/2009/osb" xmlns:svg="http://www.w3.org/2000/svg" xmlns:xlink="http://www.w3.org/1999/xlink" id="svg30571" width="24" height="24" version="1.1" viewBox="0 0 24 24"><defs id="defs30573"><linearGradient id="linearGradient19282-4" gradientTransform="matrix(0.34682586,0,0,0.30620888,-482.61525,330.965)" osb:paint="solid"><stop style="stop-color:#bebebe;stop-opacity:1" id="stop19284-0" offset="0"/></linearGradient><linearGradient id="linearGradient10432" x1="167.011" x2="177.02" y1="188.5" y2="188.5" gradientTransform="matrix(1.4987435,0,0,1.5555539,-241.30693,752.14018)" gradientUnits="userSpaceOnUse" xlink:href="#linearGradient19282-4"/><linearGradient id="linearGradient10438" x1="160.957" x2="168" y1="185" y2="185" gradientTransform="matrix(1.4907634,0,0,1.4966094,-239.94856,763.51654)" gradientUnits="userSpaceOnUse" xlink:href="#linearGradient19282-4"/></defs><metadata id="metadata30576"/><g id="layer1" transform="translate(0,-1028.3622)"><g id="g9084"><path id="rect18742" d="m 13.479761,1038.3622 c -0.830304,0 -1.498743,0.396 -1.498743,0.8749 v 1.3612 c 0,0.4791 0.668439,0.7639 1.498743,0.7639 h -2.997487 c -0.8267218,0 -1.6522147,0.9364 -1.4519076,1.9098 l 1.4519076,7.2916 c 0.200292,0.9733 0.672066,1.7986 1.498744,1.7986 h 8.992461 c 0.826707,0 1.298467,-0.8253 1.498744,-1.7986 l 1.498742,-7.2916 c 0.200293,-0.9734 -0.672035,-1.9098 -1.498742,-1.9098 h -2.997488 c 0.830304,0 1.498744,-0.2848 1.498744,-0.7639 v -1.3612 c 0,-0.4789 -0.66844,-0.8749 -1.498744,-0.8749 z" style="fill:url(#linearGradient10432);fill-opacity:1;stroke:none;stroke-width:1.52688468"/><path style="fill:url(#linearGradient10438);fill-opacity:1;stroke:none;stroke-width:1.49368358" id="path23470" d="m 10.5,1028.4164 c 0,0 -1.9300765,0.2647 -3.9753741,1.4967 -4.9692065,2.9932 -6.45996996,8.2003 -6.45996996,10.4762 -0.51244993,6.1267 2.18955876,7.4831 2.18955876,7.4831 0.1396846,2.9932 0.7919681,4.4898 0.7919681,4.4898 1.4907634,-1.4966 1.4907634,-1.4966 1.4907634,-1.4966 0,0 -1.4907634,-3.7415 1.4907635,-4.4898 C 5.282328,1038.8927 5.8724169,1032.9063 10.5,1028.4164 Z"/></g></g></svg>