<svg xmlns="http://www.w3.org/2000/svg" xmlns:osb="http://www.openswatchbook.org/uri/2009/osb" xmlns:svg="http://www.w3.org/2000/svg" xmlns:xlink="http://www.w3.org/1999/xlink" id="svg7384" width="24" height="24" version="1.1" viewBox="0 0 24 24"><metadata id="metadata90"/><defs id="defs7386"><linearGradient id="linearGradient19282-4" gradientTransform="matrix(0.34682586,0,0,0.30620888,-79.35207,761.03846)" osb:paint="solid"><stop id="stop19284-0" offset="0" style="stop-color:#bebebe;stop-opacity:1"/></linearGradient><linearGradient id="linearGradient8202" x1="222.031" x2="228" y1="551.031" y2="551.031" gradientTransform="matrix(1.507853,0,0,1.5,986.80484,-280.16337)" gradientUnits="userSpaceOnUse" xlink:href="#linearGradient19282-4"/><linearGradient id="linearGradient8208" x1="-16.75" x2="-5.994" y1="335.277" y2="335.277" gradientTransform="matrix(1.5,0,0,1.5,1342.843,44.540659)" gradientUnits="userSpaceOnUse" xlink:href="#linearGradient19282-4"/><linearGradient id="linearGradient8214" x1="-17.969" x2="-4.031" y1="339.016" y2="339.016" gradientTransform="matrix(1.5067265,0,0,1.5078403,1348.683,44.997805)" gradientUnits="userSpaceOnUse" xlink:href="#linearGradient19282-4"/></defs><g id="g4290"><path id="path13641" d="M 2.3193714,1 C 1.5692597,1 1,1.3606 1,1.796875 V 19.375 C 1,20.82925 2.9759961,22 5.4764386,22 7.9768056,22 9.999998,20.82925 9.999998,19.375 v -5.296875 l -0.04704,-3.84375 0.04704,-8.4375 C 10.00143,1.3606 9.3836324,1 8.6335057,1 Z M 2.4602941,2 H 8.491706 l 3.631e-4,3 H 2.4606572 Z m 3.631e-4,5 h 6.0314119 v 3 H 2.4606572 Z m 0,5 h 6.0314119 v 3 H 2.4606572 Z M 5.5,17.5 C 6.3327721,17.5 7,18.171565 7,19 7,19.828435 6.3327721,20.5 5.5,20.5 4.6672278,20.5 4,19.828435 4,19 4,18.171565 4.6672278,17.5 5.5,17.5 Z" style="color:#000;display:inline;overflow:visible;visibility:visible;fill:url(#linearGradient8202);fill-opacity:1;stroke:none;stroke-width:.46143043;marker:none;enable-background:accumulate"/><path id="path13710" d="m 14.17188,3.1571594 c -0.11,0.01965 -0.205511,0.0663 -0.28125,0.14055 l -4.3125,4.21875 v 1.9218748 0.04695 l 1.734375,-1.6406248 4.078125,4.1718746 -2.109375,2.0625 -3.703125,-3.84375 0.04687,2.15625 2.625,2.71875 -2.0625,2.015625 -0.5625,-0.5625 v 2.015625 c 0,1.45425 -2.012655,2.625 -4.5,2.625 -0.397763,0 -0.759824,-0.0375 -1.125,-0.09375 1.432005,0.970605 2.95593,1.20111 3.75,0.421875 l 3.703125,-3.609375 2.625,-2.671875 5.90625,-5.7187498 c 0.30393,-0.296295 0.131085,-0.9325198 -0.375,-1.4531248 l -4.26562,-4.40625 C 14.964146,3.2824094 14.501876,3.0981494 14.17188,3.1571594 Z m 0.28125,1.59375 4.03125,4.21875 -2.0625,2.0156246 -4.078125,-4.1718746 z" style="color:#000;display:inline;overflow:visible;visibility:visible;opacity:.6;fill:url(#linearGradient8208);fill-opacity:1;stroke:none;stroke-width:.46022728;marker:none;enable-background:accumulate"/><path id="path13662" d="m 15,14 -0.946188,1.460721 H 17 v 6.031361 H 14 L 14.0067,15.507841 14,15.555041 12,16 v 5.492163 H 9 L 9.4865521,20.031437 7,21 C 5.9856115,21.99617 4.4009385,22.247028 2.706278,20.502637 2.4259953,20.214127 2.2133344,19.911443 2,19.607357 c 0.2968191,1.939098 1.3154219,3.392641 2.5426009,3.392641 H 9.863229 l 3.860986,-0.04719 8.475337,0.04719 C 22.637783,23.001398 23,22.383638 23,21.633518 v -6.314082 c 0,-0.750105 -0.362217,-1.31936 -0.800448,-1.31936 H 15 Z m 4,1.460721 h 3 v 6.031361 h -3 z" style="color:#000;display:inline;overflow:visible;visibility:visible;opacity:.3;fill:url(#linearGradient8214);fill-opacity:1;stroke:none;stroke-width:.46246192;marker:none;enable-background:accumulate"/></g></svg>