<svg xmlns="http://www.w3.org/2000/svg" xmlns:svg="http://www.w3.org/2000/svg" id="svg7384" width="24" height="24" version="1.1" viewBox="0 0 24 24"><metadata id="metadata90"/><g id="g4273"><g id="g4251" transform="translate(0,8)"><g id="g4283" transform="matrix(1.7143347,0,0,1.7143347,-1.7150376,-10.286351)"><g id="g4249" transform="translate(0,-2.00005)"><g id="layer10" transform="rotate(90,120.53188,342.46813)"><path id="path23868" d="m -214.81098,448 c -0.82099,0 -1.45829,0.64776 -1.45829,1.4688 v 11.062 c 0,0.82099 0.63725,1.4688 1.45829,1.4688 h 6.41649 c 0.82099,0 1.45829,-0.64776 1.45829,-1.4688 v -11.062 c 0,-0.82099 -0.63725,-1.4688 -1.45829,-1.4688 z m -0.29165,1.16663 h 6.9998 v 11.66634 h -6.9998 z" style="fill:#bebebe"/></g><g id="layer9" transform="matrix(0.39999997,0,0,0.38472814,-14.600118,-122.42284)"><path id="path3940-5" d="m 52.189429,344.58927 c -0.822924,0.72743 -1.795614,1.05726 -2.980285,1.05726 -1.184671,0 -2.161923,-0.33894 -2.984835,-1.06637 -1.294213,0.42381 -2.84181,1.50239 -2.84356,3.38592 l -0.0046,3.51354 c -8.4e-4,0.64632 0.520299,1.16664 1.166589,1.16664 H 53.8755 c 0.64629,0 1.166589,-0.52035 1.166589,-1.16664 v -3.49989 c 0,-1.61777 -1.285931,-2.98169 -2.85266,-3.39047 z" style="fill:#bebebe;stroke-width:1.16661119"/><path id="path3942-6" d="m 52.708561,340.98437 a 3.499767,3.4999003 0 1 1 -6.999534,0 3.499767,3.4999003 0 1 1 6.999534,0 z" style="color:#bebebe;fill:#bebebe;stroke-width:1.39993334"/></g></g><rect id="rect4251-6" width="4.083" height="1.167" x="9.167" y="10.083" style="opacity:1;fill:#bebebe;fill-opacity:1;stroke:none;stroke-width:1.35031343;stroke-linecap:square;stroke-linejoin:round;stroke-miterlimit:4;stroke-dasharray:none;stroke-opacity:1;paint-order:stroke fill markers"/></g></g><rect id="rect4251-6-3" width="7" height="2" x="14" y="11" style="opacity:1;fill:#bebebe;fill-opacity:1;stroke:none;stroke-width:2.31488919;stroke-linecap:square;stroke-linejoin:round;stroke-miterlimit:4;stroke-dasharray:none;stroke-opacity:1;paint-order:stroke fill markers"/><rect id="rect4251-6-6" width="7" height="2" x="14" y="7" style="opacity:1;fill:#bebebe;fill-opacity:1;stroke:none;stroke-width:2.31488919;stroke-linecap:square;stroke-linejoin:round;stroke-miterlimit:4;stroke-dasharray:none;stroke-opacity:1;paint-order:stroke fill markers"/></g></svg>