<svg xmlns="http://www.w3.org/2000/svg" xmlns:osb="http://www.openswatchbook.org/uri/2009/osb" xmlns:svg="http://www.w3.org/2000/svg" xmlns:xlink="http://www.w3.org/1999/xlink" id="svg7384" width="24" height="24" version="1.1" viewBox="0 0 24 24"><metadata id="metadata90"/><defs id="defs7386"><linearGradient id="linearGradient19282-4" gradientTransform="matrix(0.34682586,0,0,0.30620888,-154.35207,-275.32368)" osb:paint="solid"><stop id="stop19284-0" offset="0" style="stop-color:#bebebe;stop-opacity:1"/></linearGradient><linearGradient id="linearGradient7483" x1="222.984" x2="237.031" y1="390.016" y2="390.016" gradientTransform="translate(614.97003,108.01812)" gradientUnits="userSpaceOnUse" xlink:href="#linearGradient19282-4"/><linearGradient id="linearGradient7489" x1="9" x2="16.549" y1="1042.514" y2="1042.514" gradientTransform="matrix(1.0634747,0,0,1.0357951,931.63398,-907.35129)" gradientUnits="userSpaceOnUse" xlink:href="#linearGradient19282-4"/><linearGradient id="linearGradient7495" x1="11" x2="15.596" y1="1035.631" y2="1035.631" gradientTransform="matrix(1.0879669,0,0,1.0879669,952.59548,-953.10375)" gradientUnits="userSpaceOnUse" xlink:href="#linearGradient19282-4"/></defs><g style="display:inline" id="gimp-char-picker-24" transform="translate(-3.0198744e-6,1.8687049e-5)"><rect id="rect6639-0-4-8" width="24" height="24" x="0" y="0" style="display:inline;opacity:0;fill:none;fill-opacity:1;fill-rule:nonzero;stroke:none;stroke-width:.30000001;stroke-miterlimit:4;stroke-dasharray:none;stroke-opacity:1"/><g id="g4934-4-6" transform="matrix(1.5678714,0,0,1.5679288,-191.82061,-626.17152)"><path style="color:#bebebe;font-style:normal;font-variant:normal;font-weight:400;font-stretch:normal;font-size:medium;line-height:normal;font-family:'Bitstream Vera Sans';-inkscape-font-specification:'Bitstream Vera Sans';text-indent:0;text-align:start;text-decoration:none;text-decoration-line:none;letter-spacing:normal;word-spacing:normal;text-transform:none;writing-mode:lr-tb;direction:ltr;text-anchor:start;display:inline;overflow:visible;visibility:visible;fill:url(#linearGradient7483);fill-opacity:1;fill-rule:nonzero;stroke:none;stroke-width:2;marker:none;enable-background:accumulate" id="rect11749-5-9-2-7-3-5" d="m 225.70228,383 c -1.53288,0 -2.71875,1.31948 -2.71875,2.84375 v 8.34375 c 0,1.52427 1.18587,2.84375 2.71875,2.84375 h 8.57897 c 1.53288,0 2.75,-1.31948 2.75,-2.84375 v -8.34375 c 0,-1.52427 -1.21712,-2.84375 -2.75,-2.84375 z m 0.78125,1.40312 c 3.52668,0.25598 5.31717,0.13378 7.04772,0 0.75419,-0.0583 1.5844,0.24397 1.5844,1.06563 v 7.55357 c 0,0.66541 -0.58434,1.11085 -1.24065,1.20268 -2.83642,0.39685 -4.75306,0.44007 -7.67272,0 -0.65529,-0.0988 -1.30315,-0.53727 -1.30315,-1.20268 V 385.5 c 0,-0.82166 0.82994,-1.15164 1.5844,-1.09688 z" transform="matrix(0.99886409,0,0,1,-99.747824,17)"/></g><path style="color:#000;font-style:normal;font-variant:normal;font-weight:400;font-stretch:normal;font-size:medium;line-height:normal;font-family:sans-serif;font-variant-ligatures:normal;font-variant-position:normal;font-variant-caps:normal;font-variant-numeric:normal;font-variant-alternates:normal;font-feature-settings:normal;text-indent:0;text-align:start;text-decoration:none;text-decoration-line:none;text-decoration-style:solid;text-decoration-color:#000;letter-spacing:normal;word-spacing:normal;text-transform:none;writing-mode:lr-tb;direction:ltr;text-orientation:mixed;dominant-baseline:auto;baseline-shift:baseline;text-anchor:start;white-space:normal;shape-padding:0;clip-rule:nonzero;display:inline;overflow:visible;visibility:visible;opacity:1;isolation:auto;mix-blend-mode:normal;color-interpolation:sRGB;color-interpolation-filters:linearRGB;solid-color:#000;solid-opacity:1;vector-effect:none;fill:url(#linearGradient7489);fill-opacity:1;fill-rule:nonzero;stroke:none;stroke-width:2.09907413;stroke-linecap:butt;stroke-linejoin:miter;stroke-miterlimit:4;stroke-dasharray:none;stroke-dashoffset:0;stroke-opacity:1;marker:none;color-rendering:auto;image-rendering:auto;shape-rendering:auto;text-rendering:auto;enable-background:accumulate" id="path11643-7-7" d="m 15.666016,9 -4.300782,0.066406 0.0332,2.097656 4.171874,-0.0625 c 0.227279,0.02287 0.349166,0.0882 0.378907,0.115235 0.03113,0.0283 0.05078,0.01462 0.05078,0.195312 l 0.002,-0.01563 -0.0078,0.585938 h -3.324219 l 0.08008,0.0039 c -0.765504,-0.0581 -1.499847,0.242508 -1.957031,0.728516 -0.457184,0.486008 -0.669874,1.099973 -0.691407,1.707031 -0.02153,0.607058 0.148276,1.242076 0.587891,1.757813 0.439615,0.515736 1.171677,0.841752 1.947266,0.818359 L 12.605469,17 h 5.416015 l 0.07813,-5.580078 v -0.0078 c 0,-0.662025 -0.270215,-1.324567 -0.738281,-1.7499996 C 16.893262,9.236677 16.302557,9.0497107 15.714844,9.0039062 Z m -3.074219,5.078125 0.03906,0.0039 h 3.332032 l -0.01172,0.81836 h -3.361328 -0.01563 c -0.237268,0.0072 -0.245712,-0.03347 -0.28711,-0.08203 -0.0414,-0.04856 -0.09315,-0.173919 -0.08789,-0.322265 0.0053,-0.148346 0.06771,-0.285051 0.121093,-0.341797 0.05338,-0.05675 0.06669,-0.09172 0.271485,-0.07617 z"/><path style="color:#000;font-style:normal;font-variant:normal;font-weight:400;font-stretch:normal;font-size:medium;line-height:normal;font-family:sans-serif;font-variant-ligatures:normal;font-variant-position:normal;font-variant-caps:normal;font-variant-numeric:normal;font-variant-alternates:normal;font-feature-settings:normal;text-indent:0;text-align:start;text-decoration:none;text-decoration-line:none;text-decoration-style:solid;text-decoration-color:#000;letter-spacing:normal;word-spacing:normal;text-transform:none;writing-mode:lr-tb;direction:ltr;text-orientation:mixed;dominant-baseline:auto;baseline-shift:baseline;text-anchor:start;white-space:normal;shape-padding:0;clip-rule:nonzero;display:inline;overflow:visible;visibility:visible;opacity:1;isolation:auto;mix-blend-mode:normal;color-interpolation:sRGB;color-interpolation-filters:linearRGB;solid-color:#000;solid-opacity:1;vector-effect:none;fill:url(#linearGradient7495);fill-opacity:1;fill-rule:nonzero;stroke:none;stroke-width:2.17593384;stroke-linecap:butt;stroke-linejoin:miter;stroke-miterlimit:4;stroke-dasharray:none;stroke-dashoffset:0;stroke-opacity:1;marker:none;color-rendering:auto;image-rendering:auto;shape-rendering:auto;text-rendering:auto;enable-background:accumulate" id="path11645-5-2" d="M 16.605469,4.2324219 12,5.9628906 12.765625,8 17,6.4082031 H 16.95117 V 4.2324219 Z"/></g></svg>