<svg xmlns="http://www.w3.org/2000/svg" xmlns:osb="http://www.openswatchbook.org/uri/2009/osb" xmlns:svg="http://www.w3.org/2000/svg" xmlns:xlink="http://www.w3.org/1999/xlink" id="svg30571" width="24" height="24" version="1.1" viewBox="0 0 24 24"><defs id="defs30573"><linearGradient id="linearGradient19282-4" gradientTransform="matrix(0.34682586,0,0,0.30620888,-482.61525,330.965)" osb:paint="solid"><stop style="stop-color:#bebebe;stop-opacity:1" id="stop19284-0" offset="0"/></linearGradient><linearGradient id="linearGradient9912" x1="-79" x2="-65" y1="68" y2="68" gradientTransform="matrix(1.5714285,0,0,1.5714285,125.14285,933.50501)" gradientUnits="userSpaceOnUse" xlink:href="#linearGradient19282-4"/><linearGradient id="linearGradient9898" x1="-186" x2="-184" y1="284" y2="284" gradientTransform="matrix(1.9999966,0,0,1.9999966,364.99978,470.36319)" gradientUnits="userSpaceOnUse" xlink:href="#linearGradient19282-4"/><linearGradient id="linearGradient9900" x1="184" x2="187" y1="281.5" y2="281.5" gradientTransform="matrix(1.6666658,0,0,1.6666658,-303.66684,564.69578)" gradientUnits="userSpaceOnUse" xlink:href="#linearGradient19282-4"/><linearGradient id="linearGradient9906" x1="-283" x2="-280" y1="-192.5" y2="-192.5" gradientTransform="matrix(1.6666658,0,0,1.6666658,-564.69577,302.33349)" gradientUnits="userSpaceOnUse" xlink:href="#linearGradient19282-4"/><linearGradient id="linearGradient9902" x1="280" x2="282" y1="-188" y2="-188" gradientTransform="matrix(1.9999984,0,0,1.9999984,471.36271,366.00011)" gradientUnits="userSpaceOnUse" xlink:href="#linearGradient19282-4"/><linearGradient id="linearGradient9892" x1="192" x2="194" y1="286.5" y2="286.5" gradientTransform="matrix(1.9999984,0,0,2.0000001,-367.00009,469.3622)" gradientUnits="userSpaceOnUse" xlink:href="#linearGradient19282-4"/><linearGradient id="linearGradient9904" x1="283" x2="285" y1="-190" y2="-190" gradientTransform="matrix(2.0000017,0,0,2.0000017,471.36179,365.00072)" gradientUnits="userSpaceOnUse" xlink:href="#linearGradient19282-4"/><linearGradient id="linearGradient9890" x1="-290" x2="-288" y1="-193" y2="-193" gradientTransform="matrix(1.9999984,0,0,1.9999984,-469.36268,367.00009)" gradientUnits="userSpaceOnUse" xlink:href="#linearGradient19282-4"/><linearGradient id="linearGradient9894" x1="-288" x2="-285" y1="-188.501" y2="-188.501" gradientTransform="matrix(1.6666704,0,0,1.6666704,-566.3611,303.66583)" gradientUnits="userSpaceOnUse" xlink:href="#linearGradient19282-4"/><linearGradient id="linearGradient9896" x1="-285" x2="-283" y1="-187.5" y2="-187.5" gradientTransform="matrix(2.0000001,0,0,2.0000001,-470.36224,365.00041)" gradientUnits="userSpaceOnUse" xlink:href="#linearGradient19282-4"/><linearGradient id="linearGradient9888" x1="288" x2="290" y1="-191" y2="-191" gradientTransform="matrix(2.0000017,0,0,2.0000017,469.36169,367.00072)" gradientUnits="userSpaceOnUse" xlink:href="#linearGradient19282-4"/><linearGradient id="linearGradient9886" x1="184" x2="187" y1="288.5" y2="288.5" gradientTransform="matrix(1.6666658,0,0,1.6666658,-303.66684,566.02911)" gradientUnits="userSpaceOnUse" xlink:href="#linearGradient19282-4"/></defs><metadata id="metadata30576"/><g id="layer1" transform="translate(0,-1028.3622)"><g id="g11983"><g id="g11052"><path style="fill:url(#linearGradient9912);fill-opacity:1;stroke:none;stroke-width:1.57142854" id="rect5204" d="m 1,1029.3622 v 22 h 22 v -22 z m 1,1 h 20 v 20 H 2 Z"/></g><rect style="fill:url(#linearGradient9898);fill-opacity:1;stroke:none;stroke-width:1.99999666" id="rect5249" width="4" height="4" x="-7" y="1036.362" transform="scale(-1,1)"/><rect id="rect5265" width="5" height="5" x="3" y="1031.362" style="opacity:.3;fill:url(#linearGradient9900);fill-opacity:1;stroke:none;stroke-width:1.66666579"/><rect style="opacity:1;fill:url(#linearGradient9906);fill-opacity:1;stroke:none;stroke-width:1.66666579" id="rect5286" width="5" height="5" x="-1036.362" y="-21" transform="matrix(0,-1,-1,0,0,0)"/><rect id="rect5353" width="4" height="4" x="1031.362" y="-12" transform="rotate(90)" style="fill:url(#linearGradient9902);fill-opacity:1;stroke:none;stroke-width:1.99999845"/><rect style="fill:url(#linearGradient9892);fill-opacity:1;stroke:none;stroke-width:1.99999917" id="rect5355" width="4" height="6" x="17" y="1039.362"/><rect style="fill:url(#linearGradient9904);fill-opacity:1;stroke:none;stroke-width:2.00000167" id="rect5373" width="4" height="4" x="1037.362" y="-17" transform="rotate(90)"/><rect style="opacity:.3;fill:url(#linearGradient9890);fill-opacity:1;stroke:none;stroke-width:1.99999845" id="rect5375" width="4" height="4" x="-1049.362" y="-21" transform="matrix(0,-1,-1,0,0,0)"/><rect id="rect5377" width="5" height="5" x="-1046.362" y="-13.003" transform="matrix(3.3046512e-6,-1,-1,0,0,0)" style="opacity:.3;fill:url(#linearGradient9894);fill-opacity:1;stroke:none;stroke-width:1.66667044"/><rect style="opacity:.3;fill:url(#linearGradient9896);fill-opacity:1;stroke:none;stroke-width:2" id="rect5379" width="4" height="6" x="-1040.362" y="-13" transform="matrix(0,-1,-1,0,0,0)"/><rect id="rect5382" width="4" height="4" x="1045.362" y="-17" transform="rotate(90)" style="fill:url(#linearGradient9888);fill-opacity:1;stroke:none;stroke-width:2.00000167"/><rect style="opacity:1;fill:url(#linearGradient9886);fill-opacity:1;stroke:none;stroke-width:1.66666579" id="rect5384" width="5" height="5" x="3" y="1044.362"/></g></g></svg>