<svg xmlns="http://www.w3.org/2000/svg" xmlns:osb="http://www.openswatchbook.org/uri/2009/osb" xmlns:svg="http://www.w3.org/2000/svg" xmlns:xlink="http://www.w3.org/1999/xlink" id="svg30571" width="24" height="24" version="1.1" viewBox="0 0 24 24"><defs id="defs30573"><linearGradient id="linearGradient19282-4" gradientTransform="matrix(0.34682586,0,0,0.30620888,-482.61525,330.965)" osb:paint="solid"><stop style="stop-color:#bebebe;stop-opacity:1" id="stop19284-0" offset="0"/></linearGradient><linearGradient id="linearGradient10384" x1="-28.5" x2="-20.499" y1="25.738" y2="25.738" gradientUnits="userSpaceOnUse" xlink:href="#linearGradient19282-4"/><linearGradient id="linearGradient10378" x1="67.26" x2="76.514" y1="183.231" y2="183.231" gradientTransform="matrix(1.5129026,0,0,1.5338414,-92.758245,756.44128)" gradientUnits="userSpaceOnUse" xlink:href="#linearGradient19282-4"/></defs><metadata id="metadata30576"/><g id="layer1" transform="translate(0,-1028.3622)"><g id="g9134"><g style="fill:#bebebe;fill-opacity:1;stroke:none" id="g9272" transform="matrix(1.3748443,0,0,1.4226056,40.183063,1011.7472)"><path style="fill:url(#linearGradient10384);fill-opacity:1;stroke:none" id="path9274" d="m -28.5,27.5711 c 3.111145,0.0011 2.79359,-3.323359 4.304166,-4.248979 1.750479,-1.072622 3.284496,0.256475 3.590759,1.350292 0.386445,1.380184 -0.337829,2.508685 -1.300323,3.118949 -1.846361,1.170674 -6.300039,0.898712 -6.594602,-0.220262 z"/></g><path id="path9264" d="m 22.852515,1030.0121 c 0.466524,-1.0212 -0.247692,-1.4129 -1.108083,-0.5471 -6.049703,6.0877 -7.086286,5.9984 -12.744432,13.8972 1.518274,0.057 2.823067,1.0638 3.5,2.5 6.698265,-7.3202 7.451812,-11.1222 10.352515,-15.8501 z" style="fill:url(#linearGradient10378);fill-opacity:1;stroke:none;stroke-width:1.52333605"/></g></g></svg>