<svg xmlns="http://www.w3.org/2000/svg" xmlns:osb="http://www.openswatchbook.org/uri/2009/osb" xmlns:svg="http://www.w3.org/2000/svg" xmlns:xlink="http://www.w3.org/1999/xlink" id="svg30571" width="24" height="24" version="1.1" viewBox="0 0 24 24"><defs id="defs30573"><linearGradient id="linearGradient19282-4" gradientTransform="matrix(0.34682586,0,0,0.30620888,-482.61525,330.965)" osb:paint="solid"><stop style="stop-color:#bebebe;stop-opacity:1" id="stop19284-0" offset="0"/></linearGradient><linearGradient id="linearGradient9213" x1="0" x2="24" y1="1040.362" y2="1040.362" gradientUnits="userSpaceOnUse" xlink:href="#linearGradient19282-4"/><linearGradient id="linearGradient8165-9" x1="0" x2="24" y1="1040.362" y2="1040.362" gradientTransform="translate(0,-0.3267621)" gradientUnits="userSpaceOnUse" xlink:href="#linearGradient19282-4"/><linearGradient id="linearGradient10574-2" x1="5" x2="16" y1="1046.862" y2="1046.862" gradientTransform="matrix(1.5454546,0,0,1.5454546,-0.72727271,-573.47027)" gradientUnits="userSpaceOnUse" xlink:href="#linearGradient19282-4"/><linearGradient id="linearGradient21139" x1="0" x2="24" y1="1040.362" y2="1040.362" gradientTransform="translate(0,-0.3267621)" gradientUnits="userSpaceOnUse" xlink:href="#linearGradient19282-4"/><linearGradient id="linearGradient21141" x1="0" x2="24" y1="1040.362" y2="1040.362" gradientTransform="translate(0,-0.3267621)" gradientUnits="userSpaceOnUse" xlink:href="#linearGradient19282-4"/></defs><metadata id="metadata30576"/><g id="layer1" transform="translate(15,-1032.0497)"><g style="display:inline" id="gimp-tool-perspective-clone-24" transform="translate(-15,3.6875174)"><rect id="rect8986" width="24" height="24" x="0" y="1028.362" style="opacity:0;fill:#bebebe;fill-opacity:1;stroke:none;stroke-width:.8282882;stroke-miterlimit:4;stroke-dasharray:none;stroke-opacity:1;paint-order:stroke fill markers"/><g id="g8993"><g style="fill:url(#linearGradient9213);fill-opacity:1" id="g11306-7-1-1" transform="matrix(1.0000001,0,0,0.99939486,-11.000001,-3.0384246)"><path id="rect5543-4-2-5" d="m 11,1045.0293 v 4.0061 h 7.999999 l -2.666666,-4.0061 z m 7.999999,4.0061 h 8 v -4.0061 h -5.333333 z" style="fill:url(#linearGradient21139);fill-opacity:1;stroke:none;stroke-width:1.33434427"/><path id="rect5545-8-8-5" d="m 12,1043.9431 c 0,0 5.600003,0 5.600003,-5.4311 1.4,-1.0861 2.8,0 2.8,0 0,5.4311 5.599997,5.4311 5.599997,5.4311 v 1.0862 H 12 Z" style="fill:url(#linearGradient21141);fill-opacity:1;stroke:none;stroke-width:1.40000367"/><path style="fill:url(#linearGradient8165-9);fill-opacity:1;stroke:none;stroke-width:1.13475263" id="path5547-1-0-2" d="m 22,1037.0309 a 3,3.0045485 0 0 1 -3,3.0045 3,3.0045485 0 0 1 -3,-3.0045 3,3.0045485 0 0 1 3,-3.0046 3,3.0045485 0 0 1 3,3.0046 z"/></g><path style="fill:url(#linearGradient10574-2);fill-opacity:1;stroke:none;stroke-width:1.54545069" id="path5659-3-9" d="m 15,1036.3622 -2,3 h 4 v 7 c -2.275097,0 -4.82044,0 -6.909091,0 l -3.090909,5 h 17 l -4,-15 z"/></g></g></g></svg>