<svg xmlns="http://www.w3.org/2000/svg" xmlns:osb="http://www.openswatchbook.org/uri/2009/osb" xmlns:svg="http://www.w3.org/2000/svg" xmlns:xlink="http://www.w3.org/1999/xlink" id="svg30571" width="24" height="24.074" version="1.1" viewBox="0 0 24 24.074"><defs id="defs30573"><linearGradient id="linearGradient19282-4" gradientTransform="matrix(0.34682586,0,0,0.30620888,-482.61525,330.965)" osb:paint="solid"><stop style="stop-color:#bebebe;stop-opacity:1" id="stop19284-0" offset="0"/></linearGradient><linearGradient id="linearGradient7016-2" x1="10" x2="15" y1="1042.362" y2="1042.362" gradientTransform="matrix(1.5999998,0,0,1.4999187,-0.99999865,-1554.9585)" gradientUnits="userSpaceOnUse" xlink:href="#linearGradient19282-4"/><linearGradient id="linearGradient7049-6" x1="11.5" x2="13.5" y1="1038.362" y2="1038.362" gradientTransform="matrix(1.5000177,0,0,1.4999187,0.24977882,-1554.459)" gradientUnits="userSpaceOnUse" xlink:href="#linearGradient19282-4"/><linearGradient id="linearGradient7040-9" x1="102.868" x2="105.843" y1="184.438" y2="184.438" gradientTransform="matrix(1,0,0,1.0000542,-8.8715362e-7,-0.01046229)" gradientUnits="userSpaceOnUse" xlink:href="#linearGradient19282-4"/><linearGradient id="linearGradient6998-1" x1="9" x2="16" y1="1048.362" y2="1048.362" gradientTransform="matrix(1.4285716,0,0,1.5,1.1428556,-1554.5433)" gradientUnits="userSpaceOnUse" xlink:href="#linearGradient19282-4"/><linearGradient id="linearGradient7004-1" x1="2.709" x2="13.501" y1="1039.361" y2="1039.361" gradientTransform="matrix(1.5000177,0,0,1.4999187,-2.8375891e-4,-1554.459)" gradientUnits="userSpaceOnUse" xlink:href="#linearGradient19282-4"/></defs><metadata id="metadata30576"/><g style="display:inline" id="gimp-tool-path-24" transform="translate(4.3650821e-6,0.07413369)"><path style="opacity:.66000001;fill:url(#linearGradient7016-2);fill-opacity:1;fill-rule:evenodd;stroke-width:1.8120153" id="path5211-7-3" d="M 15,10 V 7.0001623 h 8 V 10 Z"/><rect style="display:inline;overflow:visible;visibility:visible;opacity:1;fill:url(#linearGradient7049-6);fill-opacity:1;fill-rule:evenodd;stroke:none;stroke-width:1.02027094;stroke-linecap:square;stroke-linejoin:round;stroke-miterlimit:4;stroke-dasharray:none;stroke-dashoffset:0;stroke-opacity:1;marker:none;marker-start:none;marker-mid:none;marker-end:none;enable-background:accumulate" id="rect14212-7-8" width="2.788" height="5.564" x="17.202" y="-.074" rx=".758" ry="1.161"/><g id="g6670-1-9" transform="matrix(1.6808063,0,1.9147641e-8,1.4999187,-172.90156,-265.48557)" style="display:inline;fill:#bebebd;fill-opacity:1"><path style="fill:url(#linearGradient7040-9);fill-opacity:1;stroke:none;stroke-width:.49790594" id="path82013-7-7" d="m 102.86822,176.99997 v 3.33283 h 1.18991 v 3.00183 c -0.59356,0.21164 -1.18982,0.95454 -1.18991,1.66578 -9e-5,0.7115 0.59635,1.45511 1.18991,1.66675 v 2.99999 h -1.18991 v 3.33369 h 2.97477 v -3.33369 h -1.18991 v -2.99999 c 0.59356,-0.21164 1.18982,-0.95525 1.18991,-1.66675 9e-5,-0.71175 -0.59568,-1.45586 -1.18991,-1.66774 v -2.99987 h 1.18991 v -3.33283 z"/></g><path id="path6315-5-3" d="M 14,13.48485 15,11 h 8 L 23.885472,13.48485 24,24 14.062998,23.97 Z" style="fill:url(#linearGradient6998-1);fill-opacity:1;fill-rule:evenodd;stroke-width:1.4796654"/><path style="color:#000;font-style:normal;font-variant:normal;font-weight:400;font-stretch:normal;font-size:medium;line-height:normal;font-family:sans-serif;font-variant-ligatures:normal;font-variant-position:normal;font-variant-caps:normal;font-variant-numeric:normal;font-variant-alternates:normal;font-feature-settings:normal;text-indent:0;text-align:start;text-decoration:none;text-decoration-line:none;text-decoration-style:solid;text-decoration-color:#000;letter-spacing:normal;word-spacing:normal;text-transform:none;writing-mode:lr-tb;direction:ltr;text-orientation:mixed;dominant-baseline:auto;baseline-shift:baseline;text-anchor:start;white-space:normal;shape-padding:0;clip-rule:nonzero;display:inline;overflow:visible;visibility:visible;opacity:1;isolation:auto;mix-blend-mode:normal;color-interpolation:sRGB;color-interpolation-filters:linearRGB;solid-color:#000;solid-opacity:1;vector-effect:none;fill:url(#linearGradient7004-1);fill-opacity:1;fill-rule:evenodd;stroke:none;stroke-width:1;stroke-linecap:butt;stroke-linejoin:miter;stroke-miterlimit:4;stroke-dasharray:none;stroke-dashoffset:0;stroke-opacity:1;color-rendering:auto;image-rendering:auto;shape-rendering:auto;text-rendering:auto;enable-background:accumulate" id="path13886-4-6" d="M 13.474609,1 C 13.134589,1.0169495 12.875598,1.1501942 12.519531,1.3300781 12.163465,1.509962 11.748233,1.7534134 11.289062,2.0410156 10.370722,2.61622 9.2829582,3.3679873 8.234375,4.1171875 7.1857918,4.8663877 6.177818,5.6129547 5.4316406,6.171875 5.0585519,6.4513352 4.7499865,6.6830018 4.5351562,6.8457031 4.4277411,6.9270538 4.3440624,6.992069 4.2871094,7.0351562 c -0.028477,0.021544 -0.051022,0.036826 -0.064453,0.046875 -0.00363,0.00272 -0.00368,0.00424 -0.00586,0.00586 0.0027,-0.00187 0.00623,-0.00457 0.017578,-0.011719 C 4.2457273,7.0690249 4.5000527,7 4.5,7 v 1 c 5.27e-5,0 0.2556526,-0.070617 0.2675781,-0.078125 0.011926,-0.00751 0.015796,-0.00913 0.019531,-0.011719 0.00747,-0.00518 0.010052,-0.00908 0.013672,-0.011719 0.00724,-0.00528 0.013187,-0.00942 0.021484,-0.015625 0.016595,-0.012416 0.03935,-0.028834 0.068359,-0.050781 0.058019,-0.043894 0.1429416,-0.1083725 0.25,-0.1894531 C 5.3547419,7.480417 5.6600874,7.2487206 6.03125,6.9707031 6.7735753,6.4146682 7.7749235,5.672419 8.8144531,4.9296875 9.8539827,4.186956 10.933072,3.4443968 11.820312,2.8886719 12.263933,2.6108094 12.660014,2.3796154 12.970703,2.2226562 13.281392,2.0656971 13.544958,1.9990246 13.525391,2 h 2.988281 0.01172 c 0.292083,-0.01544 1.041932,0.294978 1.599609,0.828125 0.557677,0.533147 0.92699,1.2255148 0.869141,1.8027344 l 0.99414,0.099609 C 20.091398,3.7015754 19.517875,2.7760816 18.816406,2.1054688 18.114938,1.4348559 17.287211,0.95694256 16.472656,1 h -2.984375 z"/></g></svg>