<svg xmlns="http://www.w3.org/2000/svg" xmlns:osb="http://www.openswatchbook.org/uri/2009/osb" xmlns:svg="http://www.w3.org/2000/svg" xmlns:xlink="http://www.w3.org/1999/xlink" id="svg7384" width="24" height="24" version="1.1" viewBox="0 0 24 24"><metadata id="metadata90"/><defs id="defs7386"><linearGradient id="linearGradient8074" osb:paint="solid"><stop id="stop8072" offset="0" style="stop-color:#be00be;stop-opacity:1"/></linearGradient><linearGradient id="linearGradient7561" osb:paint="solid"><stop id="stop7558" offset="0" style="stop-color:#a5a5a5;stop-opacity:1"/></linearGradient><linearGradient id="linearGradient7548" osb:paint="solid"><stop id="stop7546" offset="0" style="stop-color:#ebebeb;stop-opacity:1"/></linearGradient><linearGradient id="linearGradient7542" osb:paint="solid"><stop id="stop7538" offset="0" style="stop-color:#c9c9c9;stop-opacity:1"/></linearGradient><linearGradient id="linearGradient19282" gradientTransform="matrix(0,-735328.32,170712.69,0,2464326300,577972450)" osb:paint="solid"><stop id="stop19284" offset="0" style="stop-color:#b4b4b4;stop-opacity:1"/></linearGradient><linearGradient id="linearGradient19282-4" gradientTransform="matrix(0.34682586,0,0,0.30620888,-53.35187,162.03851)" osb:paint="solid"><stop id="stop19284-0" offset="0" style="stop-color:#bebebe;stop-opacity:1"/></linearGradient><linearGradient id="linearGradient7128" x1="101" x2="117" y1="608.109" y2="608.109" gradientTransform="translate(633.82833,152.78664)" gradientUnits="userSpaceOnUse" xlink:href="#linearGradient19282-4"/><linearGradient id="linearGradient7135" x1="107" x2="111" y1="605" y2="605" gradientTransform="translate(633.82833,152.78664)" gradientUnits="userSpaceOnUse" xlink:href="#linearGradient19282-4"/></defs><g style="display:inline" id="stock" transform="matrix(1.5,0,0,1.5,-264.02577,21.3669)"><g id="gimp-controller-wheel" transform="translate(75.016984,-613.2446)" style="display:inline"><path style="fill:none;stroke:none" id="rect5916" d="m -140,382 16,0 0,16 -16,0 z" transform="translate(241.0002,217)"/><path style="fill:url(#linearGradient7128);fill-opacity:1;stroke:none" id="path6687" d="m 105.66686,603 c -2.38792,1.5571 -4.66666,4.6715 -4.66666,8 l 0,2 7.33333,0 0,-3.33333 -2.66667,0 z m 6.66667,0 0,6.66667 -2.66667,0 0,3.33333 7.33334,0 0,-2 c 0,-3.3285 -2.27875,-6.4429 -4.66667,-8 z"/><rect style="fill:url(#linearGradient7135);fill-opacity:1;stroke:none" id="rect6693" width="4" height="8" x="107" y="601" rx="2" ry="2"/></g></g></svg>