<svg xmlns="http://www.w3.org/2000/svg" xmlns:osb="http://www.openswatchbook.org/uri/2009/osb" xmlns:svg="http://www.w3.org/2000/svg" xmlns:xlink="http://www.w3.org/1999/xlink" id="svg7384" width="24" height="24" version="1.1" viewBox="0 0 24 24"><metadata id="metadata90"/><defs id="defs7386"><linearGradient id="linearGradient19282-4" gradientTransform="matrix(0.34682586,0,0,0.30620888,104.68548,827.80686)" osb:paint="solid"><stop id="stop19284-0" offset="0" style="stop-color:#bebebe;stop-opacity:1"/></linearGradient><linearGradient id="linearGradient7484" x1="807.258" x2="823.258" y1="341.463" y2="341.463" gradientTransform="translate(810.53908,333.59289)" gradientUnits="userSpaceOnUse" xlink:href="#linearGradient19282-4"/><linearGradient id="linearGradient7493" x1="265.048" x2="269.048" y1="-58.756" y2="-58.756" gradientTransform="translate(810.53908,333.59289)" gradientUnits="userSpaceOnUse" xlink:href="#linearGradient19282-4"/></defs><g id="g4260"><g id="preferences" transform="matrix(1.4999944,0,0,1.499941,-295.82659,-263.3789)" style="display:inline"><g id="gimp-prefs-default-grid" transform="translate(-61.819084,242.36181)"><g id="g6669" transform="translate(164.03761,-46.768919)"><g style="display:inline" id="g6196" transform="translate(-26.000198,-399)"><path style="fill:url(#linearGradient7484);fill-opacity:1;stroke:none" id="rect6300-3" d="m 807.92447,334.12896 v 0.33393 4 1 4 1 c 0,1.44444 0,2.88888 0,4.33332 4.88891,0 9.77782,0 14.66673,0 0,-4.88908 0,-9.77817 0,-14.66725 z m 0.66667,0.6667 h 4.00002 v 4.00015 h -4.00002 z m 4.66667,0 h 4 v 4.00015 h -4 z m 4.6667,0 h 4.00002 v 4.00015 h -4.00002 z m -9.33337,4.66723 h 4.00002 v 4 h -4.00002 z m 4.66667,0 h 4 v 4 h -4 z m 4.6667,0 h 4.00002 v 4 h -4.00002 z m -9.33337,4.66647 h 4.00002 v 4.00015 h -4.00002 z m 4.66667,0 h 4 v 4.00015 h -4 z m 4.6667,0 h 4.00002 v 4.00015 h -4.00002 z" transform="translate(-686.25767,45.537679)"/></g></g><rect id="rect5825" width="4" height="4" x="265.048" y="-60.756" style="color:#000;clip-rule:nonzero;display:inline;overflow:visible;visibility:visible;opacity:.5;isolation:auto;mix-blend-mode:normal;color-interpolation:sRGB;color-interpolation-filters:linearRGB;solid-color:#000;solid-opacity:1;fill:url(#linearGradient7493);fill-opacity:1;fill-rule:nonzero;stroke:none;stroke-width:.16485044;stroke-linecap:round;stroke-linejoin:round;stroke-miterlimit:4;stroke-dasharray:none;stroke-dashoffset:0;stroke-opacity:1;color-rendering:auto;image-rendering:auto;shape-rendering:auto;text-rendering:auto;enable-background:accumulate"/></g></g><rect id="rect4250" width="22.835" height="22.835" x=".583" y=".583" style="opacity:0;fill:#e9b96e;fill-opacity:1;stroke:#888a85;stroke-width:1.16527939;stroke-linejoin:miter;stroke-miterlimit:4;stroke-dasharray:none;stroke-opacity:1"/></g></svg>