<svg xmlns="http://www.w3.org/2000/svg" xmlns:osb="http://www.openswatchbook.org/uri/2009/osb" xmlns:svg="http://www.w3.org/2000/svg" xmlns:xlink="http://www.w3.org/1999/xlink" id="svg30571" width="24" height="24" version="1.1" viewBox="0 0 24 24"><defs id="defs30573"><linearGradient id="linearGradient19282-4" gradientTransform="matrix(0.34682586,0,0,0.30620888,-482.61525,330.965)" osb:paint="solid"><stop style="stop-color:#bebebe;stop-opacity:1" id="stop19284-0" offset="0"/></linearGradient><linearGradient id="linearGradient6890" x1="-380.645" x2="-364.645" y1="86.599" y2="86.599" gradientTransform="matrix(1,0,0,0.990373,0,0.90497201)" gradientUnits="userSpaceOnUse" xlink:href="#linearGradient19282-4"/></defs><metadata id="metadata30576"/><g id="layer1" transform="translate(0,-1028.3622)"><g style="display:inline" id="gimp-tool-warp" transform="matrix(1.5,0,0,1.5,570.96794,911.35684)"><path style="color:#000;clip-rule:nonzero;display:inline;overflow:visible;visibility:visible;opacity:1;isolation:auto;mix-blend-mode:normal;color-interpolation:sRGB;color-interpolation-filters:linearRGB;solid-color:#000;solid-opacity:1;fill:url(#linearGradient6890);fill-opacity:1;fill-rule:nonzero;stroke:none;stroke-width:1.99034965;stroke-linecap:butt;stroke-linejoin:miter;stroke-miterlimit:4;stroke-dasharray:none;stroke-dashoffset:0;stroke-opacity:1;marker:none;color-rendering:auto;image-rendering:auto;shape-rendering:auto;text-rendering:auto;enable-background:accumulate" id="path19600" d="m -370.61649,79.342287 c -0.83064,-0.03367 -1.59636,0.09012 -2.07827,0.385849 -4.15779,2.515053 -1.79368,8.654177 -7.90043,7.514555 l -0.0501,6.76088 h 15.94988 l 0.0501,-6.76088 c -4.15803,0.910549 -5.90442,0 -6.72026,-1.782771 -0.72332,-1.580734 -0.14651,-2.98538 0.82165,-3.154734 1.91376,-0.336232 1.71484,0.910549 2.85161,1.22321 1.08061,0.296715 1.40962,-0.69851 0.65247,-2.254485 -0.63561,-1.305411 -2.1922,-1.869527 -3.57665,-1.931624 z"/></g></g></svg>