<svg xmlns="http://www.w3.org/2000/svg" xmlns:svg="http://www.w3.org/2000/svg" id="svg30571" width="24" height="24" version="1.1" viewBox="0 0 24 24"><metadata id="metadata30576"/><g id="layer1" transform="translate(0,-1028.3622)"><g id="g4272"><rect id="rect3975" width="5" height="11" x="1046.362" y="-12" transform="rotate(90)" style="fill:#5d5d5d;fill-opacity:1;stroke:none;stroke-width:1.91681421;stroke-miterlimit:4;stroke-dasharray:none;stroke-opacity:1"/><rect id="rect3975-5" width="5" height="11" x="1029.362" y="-12" transform="rotate(90)" style="fill:#7a7a7a;fill-opacity:1;stroke:none;stroke-width:1.91678941;stroke-miterlimit:4;stroke-dasharray:none;stroke-opacity:1"/><rect id="rect3975-1" width="4" height="11" x="1034.362" y="-12" transform="rotate(90)" style="fill:#a5a5a5;fill-opacity:1;stroke:none;stroke-width:1.71445084;stroke-miterlimit:4;stroke-dasharray:none;stroke-opacity:1"/><rect id="rect3975-2" width="4" height="11" x="1038.362" y="-12" transform="rotate(90)" style="fill:#f8f8f8;fill-opacity:1;stroke:none;stroke-width:1.71445084;stroke-miterlimit:4;stroke-dasharray:none;stroke-opacity:1"/><rect id="rect3975-50" width="4" height="11" x="1042.362" y="-12" transform="rotate(90)" style="fill:#696969;fill-opacity:1;stroke:none;stroke-width:1.71445084;stroke-miterlimit:4;stroke-dasharray:none;stroke-opacity:1"/><rect id="rect3975-23" width="5" height="11" x="1046.362" y="-23" transform="rotate(90)" style="fill:#828282;fill-opacity:1;stroke:none;stroke-width:1.91681421;stroke-miterlimit:4;stroke-dasharray:none;stroke-opacity:1"/><rect id="rect3975-5-4" width="5" height="11" x="1029.362" y="-23" transform="rotate(90)" style="fill:#959595;fill-opacity:1;stroke:none;stroke-width:1.91678941;stroke-miterlimit:4;stroke-dasharray:none;stroke-opacity:1"/><rect id="rect3975-1-1" width="4" height="11" x="1034.362" y="-23" transform="rotate(90)" style="fill:#c9c9c9;fill-opacity:1;stroke:none;stroke-width:1.71445084;stroke-miterlimit:4;stroke-dasharray:none;stroke-opacity:1"/><rect id="rect3975-2-4" width="4" height="11" x="1038.362" y="-23" transform="rotate(90)" style="fill:#ebebeb;fill-opacity:1;stroke:none;stroke-width:1.71445084;stroke-miterlimit:4;stroke-dasharray:none;stroke-opacity:1"/><rect id="rect3975-50-4" width="4" height="11" x="1042.362" y="-23" transform="rotate(90)" style="fill:#aaa;fill-opacity:1;stroke:none;stroke-width:1.71445084;stroke-miterlimit:4;stroke-dasharray:none;stroke-opacity:1"/><path id="rect28283-2" d="m 1.5,1028.3634 c -0.981675,0 -1.5,-0.097 -1.5,1.4998 v 20.998 c 0,1.5968 0.518325,1.4999 1.5,1.4999 H 12 22.5 c 0.950211,0 1.451003,0.024 1.5,-1.4999 v 0 -10.499 -10.499 0 c -0.04899,-1.5234 -0.549789,-1.4998 -1.5,-1.4998 H 12 Z m 3,0.9988 h 7.5 7.5 c 2.395889,0 3.5,1.1433 3.5,3.8007 v 14.3986 c 0,2.7017 -0.927335,3.8007 -3.5,3.8007 H 12 4.5 c -2.4196061,0 -3.5,-1.1538 -3.5,-4.2506 v -13.4987 c 0,-3.1878 1.0599247,-4.2507 3.5,-4.2507 z" style="fill:#bebebe;fill-opacity:1;stroke:none;stroke-width:1.49992847"/></g></g></svg>