<svg xmlns="http://www.w3.org/2000/svg" xmlns:osb="http://www.openswatchbook.org/uri/2009/osb" xmlns:svg="http://www.w3.org/2000/svg" xmlns:xlink="http://www.w3.org/1999/xlink" id="svg7384" width="24" height="24" version="1.1" viewBox="0 0 24 24"><metadata id="metadata90"/><defs id="defs7386"><linearGradient id="linearGradient19282-4" gradientTransform="matrix(0.34682586,0,0,0.30620888,-159.35206,741.03851)" osb:paint="solid"><stop id="stop19284-0" offset="0" style="stop-color:#bebebe;stop-opacity:1"/></linearGradient><linearGradient id="linearGradient8137" x1="1.982" x2="4" y1="30" y2="30" gradientTransform="matrix(0.99999747,0,0,1.047619,897.4869,348.10277)" gradientUnits="userSpaceOnUse" xlink:href="#linearGradient19282-4"/><linearGradient id="linearGradient8141" x1="16" x2="30" y1="8" y2="8" gradientTransform="matrix(1.047619,0,0,1.047619,939.11799,348.96051)" gradientUnits="userSpaceOnUse" xlink:href="#linearGradient19282-4"/><linearGradient id="linearGradient7486" x1="19" x2="22" y1="6.5" y2="6.5" gradientTransform="matrix(1.6666666,0,0,1.6666666,1219.3764,592.9485)" gradientUnits="userSpaceOnUse" xlink:href="#linearGradient19282-4"/><linearGradient id="linearGradient7488" x1="18" x2="28" y1="9.864" y2="9.864" gradientTransform="matrix(1.6000001,0,0,1.6382298,1168.5214,582.50044)" gradientUnits="userSpaceOnUse" xlink:href="#linearGradient19282-4"/></defs><g id="g4372"><g id="g43"><g style="display:inline" id="preferences" transform="matrix(1.5,0,0,1.5,-426.23351,-263.19348)"><g id="gimp-prefs-image-title" transform="translate(289.15566,155.46232)"><g id="g724" transform="translate(-20,20)"><path style="fill:url(#linearGradient8141);fill-opacity:1;stroke:none;stroke-width:1.0476191" id="path15296" d="M 15.66668,0.66666666 V 15.333333 H 30.333347 V 0.66666666 Z M 17.000013,2 h 12 v 2 h -12 z m 0,2.6666667 h 12 V 14 h -12 z"/></g></g></g></g><path id="rect4242" d="M 4 8 L 4 20 L 6 20 L 6 19 L 5 19 L 5 18 L 6 18 L 6 17 L 5 17 L 5 16 L 6 16 L 6 15 L 5 15 L 5 14 L 6 14 L 6 13 L 5 13 L 5 12 L 6 12 L 6 8 L 4 8 z" style="opacity:.83300003;fill:#bebebe;fill-opacity:1;stroke-width:1;stroke-miterlimit:4;stroke-dasharray:none"/><path id="rect4242-2" d="M 6 8 L 6 10 L 8 10 L 8 9 L 9 9 L 9 10 L 10 10 L 10 9 L 11 9 L 11 10 L 12 10 L 12 9 L 13 9 L 13 10 L 14 10 L 14 9 L 15 9 L 15 10 L 16 10 L 16 9 L 17 9 L 17 10 L 18 10 L 18 9 L 19 9 L 19 10 L 20 10 L 20 8 L 6 8 z" style="opacity:.83300003;fill:#bebebe;fill-opacity:1;stroke-width:1.08012342;stroke-miterlimit:4;stroke-dasharray:none"/></g></svg>