<svg xmlns="http://www.w3.org/2000/svg" xmlns:osb="http://www.openswatchbook.org/uri/2009/osb" xmlns:svg="http://www.w3.org/2000/svg" xmlns:xlink="http://www.w3.org/1999/xlink" id="svg7384" width="24" height="24" version="1.1" viewBox="0 0 24 24"><metadata id="metadata90"/><defs id="defs7386"><linearGradient id="linearGradient8074" osb:paint="solid"><stop id="stop8072" offset="0" style="stop-color:#be00be;stop-opacity:1"/></linearGradient><linearGradient id="linearGradient7561" osb:paint="solid"><stop id="stop7558" offset="0" style="stop-color:#a5a5a5;stop-opacity:1"/></linearGradient><linearGradient id="linearGradient7548" osb:paint="solid"><stop id="stop7546" offset="0" style="stop-color:#ebebeb;stop-opacity:1"/></linearGradient><linearGradient id="linearGradient7542" osb:paint="solid"><stop id="stop7538" offset="0" style="stop-color:#c9c9c9;stop-opacity:1"/></linearGradient><linearGradient id="linearGradient19282" gradientTransform="matrix(0,-735328.32,170712.69,0,2464326300,577972450)" osb:paint="solid"><stop id="stop19284" offset="0" style="stop-color:#b4b4b4;stop-opacity:1"/></linearGradient><linearGradient id="linearGradient19282-4" gradientTransform="matrix(0.34682586,0,0,0.30620888,-39.35207,801.03851)" osb:paint="solid"><stop id="stop19284-0" offset="0" style="stop-color:#bebebe;stop-opacity:1"/></linearGradient><linearGradient id="linearGradient8358" x1="115" x2="131" y1="-32" y2="-32" gradientTransform="translate(833.15251,421.87401)" gradientUnits="userSpaceOnUse" xlink:href="#linearGradient19282-4"/></defs><g style="display:inline" id="preferences" transform="matrix(1.5,0,0,1.5,-329.74785,-395.81101)"><g id="gimp-prefs-folders-scripts" transform="translate(104.8319,303.87401)"><g id="g607" transform="translate(100)"><path style="display:inline;fill:url(#linearGradient8358);fill-opacity:1;stroke:none" id="path29078" d="M 115.53125,-40 C 115.24212,-40 115,-39.75788 115,-39.46875 v 14.9375 c 0,0.2985 0.23264,0.53125 0.53125,0.53125 h 14.9375 C 130.76735,-24 131,-24.23265 131,-24.53125 v -9.63542 c 0,-0.2891 -0.24223,-0.492061 -0.53125,-0.5 H 118.33333 V -26.5 c 0,0.277 -0.38966,0.5 -0.66666,0.5 C 117.38967,-26 117,-26.223 117,-26.5 v -9 c 0,-0.277 0.223,-0.5 0.5,-0.5 H 120.46875 129 v -1.40625 C 129,-37.73345 128.73334,-38 128.40625,-38 H 121 v -1.46875 C 121,-39.7579 120.75788,-40 120.46875,-40 Z m 4.80208,6 5.33334,4 -5.33334,3.999997 v -1.333334 L 124,-30 120.33333,-32.66667 Z M 125,-27.333337 h 4.66667 V -26 H 125 Z" transform="translate(-100)"/></g></g></g></svg>