<svg xmlns="http://www.w3.org/2000/svg" xmlns:osb="http://www.openswatchbook.org/uri/2009/osb" xmlns:svg="http://www.w3.org/2000/svg" xmlns:xlink="http://www.w3.org/1999/xlink" id="svg7384" width="24" height="24" version="1.1" viewBox="0 0 24 24"><metadata id="metadata90"/><defs id="defs7386"><linearGradient id="linearGradient19282-4" gradientTransform="matrix(0.34682586,0,0,0.30620888,6.6481284,342.03851)" osb:paint="solid"><stop id="stop19284-0" offset="0" style="stop-color:#bebebe;stop-opacity:1"/></linearGradient><linearGradient id="linearGradient7662" x1="161" x2="165" y1="425" y2="425" gradientTransform="translate(485.91995,238.83038)" gradientUnits="userSpaceOnUse" xlink:href="#linearGradient19282-4"/><linearGradient id="linearGradient7666" x1="-73" x2="-70" y1="206.5" y2="206.5" gradientTransform="translate(364.43997,179.12307)" gradientUnits="userSpaceOnUse" xlink:href="#linearGradient19282-4"/><linearGradient id="linearGradient7668" x1="173" x2="177" y1="425" y2="425" gradientTransform="translate(485.91995,238.83038)" gradientUnits="userSpaceOnUse" xlink:href="#linearGradient19282-4"/><linearGradient id="linearGradient7674" x1="163" x2="175" y1="425" y2="425" gradientTransform="matrix(0.66666676,0,0,0.66666676,380.28006,300.8869)" gradientUnits="userSpaceOnUse" xlink:href="#linearGradient19282-4"/><linearGradient id="linearGradient7676" x1="-79" x2="-65" y1="213" y2="213" gradientTransform="translate(485.91995,238.83038)" gradientUnits="userSpaceOnUse" xlink:href="#linearGradient19282-4"/></defs><g style="display:inline" id="gimp-paths-24" transform="matrix(1.4999998,0,0,1.4999998,-42.163192,-107.6987)"><g id="gimp-paths-2" transform="translate(-132.8914,-347.20086)" style="display:inline"><rect style="opacity:0;fill:none;stroke:none" id="rect11834-8" width="16" height="16" x="-80" y="202" transform="translate(241.0002,217)"/><rect style="fill:url(#linearGradient7662);fill-opacity:1;stroke:none" id="rect11849-8" width="4" height="4" x="161" y="423"/><rect id="rect11851-6" width="4" height="4" x="173" y="423" style="fill:url(#linearGradient7668);fill-opacity:1;stroke:none"/><rect style="fill:url(#linearGradient7674);fill-opacity:1;stroke:none;stroke-width:.66666675" id="rect11853-0" width="8" height="1.333" x="165" y="424.333"/><path style="fill:url(#linearGradient7666);fill-opacity:1;stroke:none" id="path11855-6" d="m -70,206.5 a 1.5,1.5 0 0 1 -1.5,1.5 1.5,1.5 0 0 1 -1.5,-1.5 1.5,1.5 0 0 1 1.5,-1.5 1.5,1.5 0 0 1 1.5,1.5 z" transform="matrix(1.3333333,0,0,1.3333312,264.33353,149.66712)"/><path style="fill:url(#linearGradient7676);fill-opacity:1;stroke:none" id="path11857-9" d="m -65,216 c 0,-3.31371 -3.13401,-6 -7,-6 -3.86599,0 -7,2.68629 -7,6 h 2.015625 c 0.287851,-2.25391 2.407621,-4 4.984375,-4 2.576754,0 4.696524,1.74609 4.984375,4 z" transform="translate(241.0002,217)"/></g></g></svg>