<svg xmlns="http://www.w3.org/2000/svg" xmlns:osb="http://www.openswatchbook.org/uri/2009/osb" xmlns:svg="http://www.w3.org/2000/svg" xmlns:xlink="http://www.w3.org/1999/xlink" id="svg7384" width="24" height="24" version="1.1" viewBox="0 0 24 24"><metadata id="metadata90"/><defs id="defs7386"><linearGradient id="linearGradient8074" osb:paint="solid"><stop id="stop8072" offset="0" style="stop-color:#be00be;stop-opacity:1"/></linearGradient><linearGradient id="linearGradient7561" osb:paint="solid"><stop id="stop7558" offset="0" style="stop-color:#a5a5a5;stop-opacity:1"/></linearGradient><linearGradient id="linearGradient7548" osb:paint="solid"><stop id="stop7546" offset="0" style="stop-color:#ebebeb;stop-opacity:1"/></linearGradient><linearGradient id="linearGradient7542" osb:paint="solid"><stop id="stop7538" offset="0" style="stop-color:#c9c9c9;stop-opacity:1"/></linearGradient><linearGradient id="linearGradient19282" gradientTransform="matrix(0,-735328.32,170712.69,0,2464326300,577972450)" osb:paint="solid"><stop id="stop19284" offset="0" style="stop-color:#b4b4b4;stop-opacity:1"/></linearGradient><linearGradient id="linearGradient19282-4" gradientTransform="matrix(0.34682586,0,0,0.30620888,-59.28957,801.06976)" osb:paint="solid"><stop id="stop19284-0" offset="0" style="stop-color:#bebebe;stop-opacity:1"/></linearGradient><linearGradient id="linearGradient8370" x1="95.063" x2="111.063" y1="-32.031" y2="-32.031" gradientTransform="translate(789.82382,421.87401)" gradientUnits="userSpaceOnUse" xlink:href="#linearGradient19282-4"/><linearGradient id="linearGradient7422" x1="106" x2="107" y1="-31.5" y2="-31.5" gradientTransform="translate(789.82382,421.87401)" gradientUnits="userSpaceOnUse" xlink:href="#linearGradient19282-4"/><linearGradient id="linearGradient7424" x1="109" x2="110" y1="-31.5" y2="-31.5" gradientTransform="translate(789.82382,421.87401)" gradientUnits="userSpaceOnUse" xlink:href="#linearGradient19282-4"/><linearGradient id="linearGradient7426" x1="108" x2="109" y1="-30.5" y2="-30.5" gradientTransform="translate(789.82382,421.87401)" gradientUnits="userSpaceOnUse" xlink:href="#linearGradient19282-4"/><linearGradient id="linearGradient7428" x1="107" x2="108" y1="-29.5" y2="-29.5" gradientTransform="translate(789.82382,421.87401)" gradientUnits="userSpaceOnUse" xlink:href="#linearGradient19282-4"/><linearGradient id="linearGradient7430" x1="106" x2="107" y1="-28.5" y2="-28.5" gradientTransform="translate(789.82382,421.87401)" gradientUnits="userSpaceOnUse" xlink:href="#linearGradient19282-4"/><linearGradient id="linearGradient7432" x1="105" x2="106" y1="-29.5" y2="-29.5" gradientTransform="translate(789.82382,421.87401)" gradientUnits="userSpaceOnUse" xlink:href="#linearGradient19282-4"/><linearGradient id="linearGradient7434" x1="104" x2="105" y1="-30.5" y2="-30.5" gradientTransform="translate(789.82382,421.87401)" gradientUnits="userSpaceOnUse" xlink:href="#linearGradient19282-4"/><linearGradient id="linearGradient7436" x1="103" x2="104" y1="-31.5" y2="-31.5" gradientTransform="translate(789.82382,421.87401)" gradientUnits="userSpaceOnUse" xlink:href="#linearGradient19282-4"/><linearGradient id="linearGradient7438" x1="102" x2="103" y1="-30.5" y2="-30.5" gradientTransform="translate(789.82382,421.87401)" gradientUnits="userSpaceOnUse" xlink:href="#linearGradient19282-4"/><linearGradient id="linearGradient7440" x1="101" x2="102" y1="-29.5" y2="-29.5" gradientTransform="translate(789.82382,421.87401)" gradientUnits="userSpaceOnUse" xlink:href="#linearGradient19282-4"/><linearGradient id="linearGradient7442" x1="100" x2="101" y1="-28.5" y2="-28.5" gradientTransform="translate(789.82382,421.87401)" gradientUnits="userSpaceOnUse" xlink:href="#linearGradient19282-4"/><linearGradient id="linearGradient7444" x1="100" x2="101" y1="-31.5" y2="-31.5" gradientTransform="translate(789.82382,421.87401)" gradientUnits="userSpaceOnUse" xlink:href="#linearGradient19282-4"/></defs><g style="display:inline" id="preferences" transform="matrix(1.5,0,0,1.5,-264.75481,-395.81101)"><g id="gimp-prefs-folders-patterns" transform="translate(81.440707,303.90526)"><path id="path28949" d="m 95.59375,-40.03125 c -0.28913,0 -0.53125,0.24212 -0.53125,0.53125 v 14.9375 c 0,0.2985 0.23264,0.53125 0.53125,0.53125 h 14.9375 c 0.2986,0 0.53125,-0.23265 0.53125,-0.53125 v -9.63542 c 0,-0.2891 -0.24223,-0.492061 -0.53125,-0.5 H 98.395833 v 8.16667 c 0,0.277 -0.389667,0.5 -0.666667,0.5 -0.277,0 -0.666666,-0.223 -0.666666,-0.5 v -9 c 0,-0.277 0.223,-0.5 0.5,-0.5 h 2.96875 8.53125 v -1.40625 c 0,-0.3272 -0.26666,-0.59375 -0.59375,-0.59375 H 101.0625 V -39.5 c 0,-0.28915 -0.24212,-0.53125 -0.53125,-0.53125 z m 3.46875,7.33333 h 11.33333 v 5.333335 l -11.33333,-3e-6 z" style="display:inline;fill:url(#linearGradient8370);fill-opacity:1;stroke:none"/><rect style="fill:url(#linearGradient7430);fill-opacity:1;stroke:none" id="rect28998" width="1" height="1" x="106" y="-29"/><rect style="fill:url(#linearGradient7434);fill-opacity:1;stroke:none" id="rect29000" width="1" height="1" x="104" y="-31"/><rect style="fill:url(#linearGradient7428);fill-opacity:1;stroke:none" id="rect29002" width="1" height="1" x="107" y="-30"/><rect style="fill:url(#linearGradient7432);fill-opacity:1;stroke:none" id="rect29004" width="1" height="1" x="105" y="-30"/><rect style="fill:url(#linearGradient7422);fill-opacity:1;stroke:none" id="rect29006" width="1" height="1" x="106" y="-32"/><rect style="fill:url(#linearGradient7426);fill-opacity:1;stroke:none" id="rect29008" width="1" height="1" x="108" y="-31"/><rect style="fill:url(#linearGradient7436);fill-opacity:1;stroke:none" id="rect29010" width="1" height="1" x="103" y="-32"/><rect style="fill:url(#linearGradient7444);fill-opacity:1;stroke:none" id="rect29012" width="1" height="1" x="100" y="-32"/><rect style="fill:url(#linearGradient7442);fill-opacity:1;stroke:none" id="rect29014" width="1" height="1" x="100" y="-29"/><rect style="fill:url(#linearGradient7438);fill-opacity:1;stroke:none" id="rect29016" width="1" height="1" x="102" y="-31"/><rect style="fill:url(#linearGradient7440);fill-opacity:1;stroke:none" id="rect29018" width="1" height="1" x="101" y="-30"/><rect style="fill:url(#linearGradient7424);fill-opacity:1;stroke:none" id="rect29020" width="1" height="1" x="109" y="-32"/></g></g></svg>