<svg xmlns="http://www.w3.org/2000/svg" xmlns:osb="http://www.openswatchbook.org/uri/2009/osb" xmlns:svg="http://www.w3.org/2000/svg" xmlns:xlink="http://www.w3.org/1999/xlink" id="svg30571" width="24" height="24" version="1.1" viewBox="0 0 24 24"><defs id="defs30573"><linearGradient id="linearGradient19282-4" gradientTransform="matrix(0.34682586,0,0,0.30620888,-482.61525,330.965)" osb:paint="solid"><stop style="stop-color:#bebebe;stop-opacity:1" id="stop19284-0" offset="0"/></linearGradient><linearGradient id="linearGradient10076" x1="202" x2="216" y1="287.5" y2="287.5" gradientTransform="matrix(1.5714285,0,0,2,-316.42887,468.36221)" gradientUnits="userSpaceOnUse" xlink:href="#linearGradient19282-4"/><linearGradient id="linearGradient10080" x1="202" x2="206" y1="290.5" y2="290.5" gradientTransform="matrix(1.5,0,0,1.6666666,-302.0003,564.69553)" gradientUnits="userSpaceOnUse" xlink:href="#linearGradient19282-4"/><linearGradient id="linearGradient10078" x1="212" x2="216" y1="290.5" y2="290.5" gradientTransform="matrix(1.5,0,0,1.6666666,-301.0003,564.69553)" gradientUnits="userSpaceOnUse" xlink:href="#linearGradient19282-4"/><linearGradient id="linearGradient10064" x1="202" x2="216" y1="281" y2="281" gradientTransform="matrix(1.5714285,0,0,1.5,-316.42887,612.8622)" gradientUnits="userSpaceOnUse" xlink:href="#linearGradient19282-4"/><linearGradient id="linearGradient10070" x1="203" x2="215" y1="282.5" y2="282.5" gradientTransform="matrix(1.6666666,0,0,1.6666666,-336.33366,566.02886)" gradientUnits="userSpaceOnUse" xlink:href="#linearGradient19282-4"/></defs><metadata id="metadata30576"/><g id="layer1" transform="translate(0,-1028.3622)"><g id="g9783"><rect id="rect5422" width="22" height="2" x="1" y="1042.362" style="fill:url(#linearGradient10076);fill-opacity:1;stroke:none;stroke-width:1.77281046"/><path id="path5424" d="m 4,1046.3622 -3,5 h 6 z" style="fill:url(#linearGradient10080);fill-opacity:1;stroke:none;stroke-width:1.58113885"/><path id="path5424-6" d="m 20,1046.3622 -3,5 h 6 z" style="display:inline;fill:url(#linearGradient10078);fill-opacity:1;stroke:none;stroke-width:1.58113885"/><path id="rect5444" d="m 1,1028.3622 v 12 h 22 v -12 z m 1,1 h 20 v 10 H 2 Z" style="fill:url(#linearGradient10064);fill-opacity:1;stroke:none;stroke-width:1.53529894"/><path id="path5449" d="m 2,1039.3622 1.0416667,-0.8854 0.625,-0.7813 h 1.6666666 v 0 L 7,1036.0289 h 1.6666667 l 1.6666663,1.6666 H 12 l 0.78125,1.6667 h 1.510417 l 1.041666,-1.6667 L 17,1036.0289 v -1.6667 0 0 0 l 1.666667,1.6667 1.666666,1.6666 v 0 L 22,1038.3726 v 0.9896 z" style="fill:url(#linearGradient10070);fill-opacity:1;stroke:none;stroke-width:1.66666675"/></g></g></svg>