<svg xmlns="http://www.w3.org/2000/svg" xmlns:osb="http://www.openswatchbook.org/uri/2009/osb" xmlns:svg="http://www.w3.org/2000/svg" xmlns:xlink="http://www.w3.org/1999/xlink" id="svg30571" width="24" height="24" version="1.1" viewBox="0 0 24 24"><defs id="defs30573"><linearGradient id="linearGradient19282-4" gradientTransform="matrix(0.34682586,0,0,0.30620888,-482.61525,330.965)" osb:paint="solid"><stop style="stop-color:#bebebe;stop-opacity:1" id="stop19284-0" offset="0"/></linearGradient><linearGradient id="linearGradient6944" x1="185" x2="191.612" y1="185.422" y2="185.422" gradientTransform="matrix(1.5,0,0,1.4958686,-271.5003,763.59346)" gradientUnits="userSpaceOnUse" xlink:href="#linearGradient19282-4"/><linearGradient id="linearGradient6950" x1="183.535" x2="186.279" y1="191.309" y2="191.309" gradientTransform="matrix(1.4573878,0,0,1.4410336,-263.48124,774.17904)" gradientUnits="userSpaceOnUse" xlink:href="#linearGradient19282-4"/><linearGradient id="linearGradient6938" x1="187.647" x2="195.203" y1="180.979" y2="180.979" gradientTransform="matrix(1.5,0,0,1.4958686,-271.5003,763.59346)" gradientUnits="userSpaceOnUse" xlink:href="#linearGradient19282-4"/></defs><metadata id="metadata30576"/><g id="layer1" transform="translate(0,-1028.3622)"><g id="g8953"><path id="path4352" d="m 6.1358015,1047.3622 c 0,0 -2.1528242,0.9634 -2.1356999,2.9971 0.021424,2.5334 3.8767828,2.6563 3.9980812,0.4098 0.069226,-1.284 -1.8623813,-3.4069 -1.8623813,-3.4069 z" style="fill:url(#linearGradient6950);fill-opacity:1;fill-rule:evenodd;stroke:none;stroke-width:1.44918776"/><g id="g8946" transform="matrix(1.0112209,0,0,1.0112209,0.93267462,-11.539178)"><path style="fill:url(#linearGradient6944);fill-opacity:1;fill-rule:evenodd;stroke:none;stroke-width:1.49793291" id="path3620" d="m 15.917925,1036.447 -6.330285,8.4716 -2.54106,2.2328 L 6,1046.3126 l 1.49448,-3.0714 6.330315,-8.4717 z"/><path style="fill:url(#linearGradient6938);fill-opacity:1;fill-rule:evenodd;stroke:none;stroke-width:1.49793291" id="path3583" d="m 9.969525,1034.9895 6.9738,5.2765 1.056675,-1.3848 -2.092095,-1.5829 c 4.205565,-1.1865 7.07991,-6.245 4.290405,-8.3556 -2.789505,-2.1106 -7.05861,1.8925 -7.07991,6.245 l -2.092155,-1.5829 z"/></g></g></g></svg>