<svg xmlns="http://www.w3.org/2000/svg" xmlns:osb="http://www.openswatchbook.org/uri/2009/osb" xmlns:svg="http://www.w3.org/2000/svg" xmlns:xlink="http://www.w3.org/1999/xlink" id="svg7384" width="24" height="24" version="1.1" viewBox="0 0 24 24"><metadata id="metadata90"/><defs id="defs7386"><linearGradient id="linearGradient19282-4" gradientTransform="matrix(0.34682586,0,0,0.30620888,-159.35206,741.03851)" osb:paint="solid"><stop id="stop19284-0" offset="0" style="stop-color:#bebebe;stop-opacity:1"/></linearGradient><linearGradient id="linearGradient8137" x1="1.982" x2="4" y1="30" y2="30" gradientTransform="matrix(0.99999747,0,0,1.047619,897.4869,348.10277)" gradientUnits="userSpaceOnUse" xlink:href="#linearGradient19282-4"/><linearGradient id="linearGradient8141" x1="16" x2="30" y1="8" y2="8" gradientTransform="matrix(1.047619,0,0,1.047619,939.11799,348.96051)" gradientUnits="userSpaceOnUse" xlink:href="#linearGradient19282-4"/><linearGradient id="linearGradient7486" x1="19" x2="22" y1="6.5" y2="6.5" gradientTransform="matrix(1.6666666,0,0,1.6666666,1219.3764,592.9485)" gradientUnits="userSpaceOnUse" xlink:href="#linearGradient19282-4"/><linearGradient id="linearGradient7488" x1="18" x2="28" y1="9.864" y2="9.864" gradientTransform="matrix(1.6000001,0,0,1.6382298,1168.5214,582.50044)" gradientUnits="userSpaceOnUse" xlink:href="#linearGradient19282-4"/></defs><g id="g4270"><g id="g43"><g style="display:inline" id="preferences" transform="matrix(1.5,0,0,1.5,-426.23351,-263.19348)"><g id="gimp-prefs-image-title" transform="translate(289.15566,155.46232)"><g id="g724" transform="translate(-20,20)"><path style="fill:url(#linearGradient8141);fill-opacity:1;stroke:none;stroke-width:1.0476191" id="path15296" d="M 15.66668,0.66666666 V 15.333333 H 30.333347 V 0.66666666 Z M 17.000013,2 h 12 v 2 h -12 z m 0,2.6666667 h 12 V 14 h -12 z"/></g></g></g></g><g id="g4171" transform="matrix(1.9446104,0,0,1.9853075,68.438992,-1994.9003)"><g id="snap" transform="matrix(0.28107138,-0.24237435,0.26879059,0.25344821,-326.38151,1018.9568)" style="stroke:none;stroke-opacity:1"><g id="g22410" style="stroke:none;stroke-opacity:1"><path style="fill:#bebebe;fill-opacity:1;stroke:none;stroke-opacity:1" id="rect22373" d="m 562.5,505.36212 c 0.831,0 1.5,0.669 1.5,1.5 0,0.831 -0.669,1.5 -1.5,1.5 -0.831,0 -1.5,-0.669 -1.5,-1.5 0,-0.831 0.669,-1.5 1.5,-1.5 z"/><path style="fill:#bebebe;fill-opacity:1;stroke:none;stroke-opacity:1" id="rect22375" d="m 562.5,518.36212 c 0.831,0 1.5,0.669 1.5,1.5 0,0.831 -0.669,1.5 -1.5,1.5 -0.831,0 -1.5,-0.669 -1.5,-1.5 0,-0.831 0.669,-1.5 1.5,-1.5 z"/><path style="color:#000;font-style:normal;font-variant:normal;font-weight:400;font-stretch:normal;font-size:medium;line-height:normal;font-family:Sans;-inkscape-font-specification:Sans;text-indent:0;text-align:start;text-decoration:none;text-decoration-line:none;letter-spacing:normal;word-spacing:normal;text-transform:none;writing-mode:lr-tb;direction:ltr;baseline-shift:baseline;text-anchor:start;display:inline;overflow:visible;visibility:visible;fill:#bebebe;fill-opacity:1;stroke:none;stroke-width:3;stroke-opacity:1;marker:none;enable-background:new" id="path14123" d="m 565,505.34375 v 3 h 1.53125 c 3.11834,0 5.53125,2.31067 5.53125,5.03125 0,2.72057 -2.41291,5 -5.53125,5 -0.11744,0 -0.23004,-0.0246 -0.34375,-0.0312 h -0.0312 -0.0312 -1.15625 v 3 h 1.0625 0.0937 c 0.14249,0.007 0.26588,0.0312 0.40625,0.0312 4.62356,0 8.53125,-3.53305 8.53125,-8 0,-4.46696 -3.90769,-8.03125 -8.53125,-8.03125 h -1.53125 z"/></g></g></g></g></svg>