<svg xmlns="http://www.w3.org/2000/svg" xmlns:svg="http://www.w3.org/2000/svg" id="svg8" width="24" height="24" version="1.1" viewBox="0 0 6.35 6.35"><metadata id="metadata5"/><g id="layer1" transform="translate(0,-290.64999)"><g id="gimp-tool-shadows-highlights-24"><path style="color:#000;overflow:visible;opacity:.5;fill:#bebebe;fill-opacity:1;fill-rule:evenodd;stroke:none;stroke-width:.26458335;stroke-linecap:round;stroke-linejoin:miter;stroke-opacity:1;paint-order:normal" id="path3648" d="m 3.1750002,291.17916 a 2.6458337,2.6458337 0 0 0 -2.64583343,2.64583 2.6458337,2.6458337 0 0 0 2.64583343,2.64583 2.6458337,2.6458337 0 0 0 2.6458334,-2.64583 2.6458337,2.6458337 0 0 0 -2.6458334,-2.64583 z m 0,0.52916 a 2.1166669,2.1166669 0 0 1 2.1166667,2.11667 2.1166669,2.1166669 0 0 1 -2.1166667,2.11667 2.1166669,2.1166669 0 0 1 -0.79375,-0.15607 v -0.3731 c 0,-0.14117 0.1287774,-0.26458 0.2604492,-0.26458 h 1.0624675 c 0.146577,0 0.2645833,-0.11801 0.2645833,-0.26459 0,-0.14657 -0.1180063,-0.26458 -0.2645833,-0.26458 H 2.6458335 c -0.1465826,0 -0.2645833,-0.118 -0.2645833,-0.26458 0,-0.14659 0.1180007,-0.26459 0.2645833,-0.26459 h 1.0583334 c 0.146582,0 0.2645833,-0.118 0.2645833,-0.26458 0,-0.14658 -0.1180013,-0.26458 -0.2645833,-0.26458 H 2.6458335 c -0.1465826,0 -0.2645833,-0.118 -0.2645833,-0.26459 0,-0.14658 0.1180007,-0.26458 0.2645833,-0.26458 h 1.0583334 c 0.1465781,0 0.2645833,-0.11801 0.2645833,-0.26458 0,-0.14658 -0.1180052,-0.26459 -0.2645833,-0.26459 H 2.653585 c -0.1426419,0 -0.2723348,-0.12408 -0.2723348,-0.26716 v -0.37104 a 2.1166669,2.1166669 0 0 1 0.79375,-0.15555 z"/></g></g></svg>