<svg xmlns="http://www.w3.org/2000/svg" xmlns:svg="http://www.w3.org/2000/svg" id="svg30571" width="24" height="24" version="1.1" viewBox="0 0 24 24"><metadata id="metadata30576"/><g id="layer1" transform="translate(0,-1028.3622)"><g style="display:inline" id="gimp-undo-history" transform="matrix(1.4999813,0,0,1.4999081,-151.49841,399.93531)"><path style="fill:#bebebe;fill-opacity:1;stroke:none" id="path11633" d="m 101.0002,429 4.00001,-4.02308 0,8 z"/><path style="color:#000;font-style:normal;font-variant:normal;font-weight:400;font-stretch:normal;font-size:medium;line-height:normal;font-family:sans-serif;font-variant-ligatures:normal;font-variant-position:normal;font-variant-caps:normal;font-variant-numeric:normal;font-variant-alternates:normal;font-feature-settings:normal;text-indent:0;text-align:start;text-decoration:none;text-decoration-line:none;text-decoration-style:solid;text-decoration-color:#000;letter-spacing:normal;word-spacing:normal;text-transform:none;writing-mode:lr-tb;direction:ltr;text-orientation:mixed;dominant-baseline:auto;baseline-shift:baseline;text-anchor:start;white-space:normal;shape-padding:0;clip-rule:nonzero;display:inline;overflow:visible;visibility:visible;opacity:1;isolation:auto;mix-blend-mode:normal;color-interpolation:sRGB;color-interpolation-filters:linearRGB;solid-color:#000;solid-opacity:1;vector-effect:none;fill:#bebebe;fill-opacity:1;fill-rule:nonzero;stroke:none;stroke-width:2;stroke-linecap:butt;stroke-linejoin:miter;stroke-miterlimit:4;stroke-dasharray:none;stroke-dashoffset:0;stroke-opacity:1;marker:none;color-rendering:auto;image-rendering:auto;shape-rendering:auto;text-rendering:auto;enable-background:accumulate" id="path35770-4-9" d="m 110.49609,427.97852 -5.5,0.0215 0.008,2 5.5,-0.0215 c 0.83541,-0.003 1.49609,0.65973 1.49609,1.5 0,0.84026 -0.65973,1.5 -1.5,1.5 H 110 v 2 h 0.5 c 1.92115,0 3.5,-1.57885 3.5,-3.5 0,-1.92116 -1.57792,-3.50775 -3.50391,-3.5 z"/><path style="color:#000;font-style:normal;font-variant:normal;font-weight:400;font-stretch:normal;font-size:medium;line-height:normal;font-family:sans-serif;font-variant-ligatures:normal;font-variant-position:normal;font-variant-caps:normal;font-variant-numeric:normal;font-variant-alternates:normal;font-feature-settings:normal;text-indent:0;text-align:start;text-decoration:none;text-decoration-line:none;text-decoration-style:solid;text-decoration-color:#000;letter-spacing:normal;word-spacing:normal;text-transform:none;writing-mode:lr-tb;direction:ltr;text-orientation:mixed;dominant-baseline:auto;baseline-shift:baseline;text-anchor:start;white-space:normal;shape-padding:0;clip-rule:nonzero;display:inline;overflow:visible;visibility:visible;opacity:.3;isolation:auto;mix-blend-mode:normal;color-interpolation:sRGB;color-interpolation-filters:linearRGB;solid-color:#000;solid-opacity:1;vector-effect:none;fill:#bebebe;fill-opacity:1;fill-rule:nonzero;stroke:none;stroke-width:2;stroke-linecap:butt;stroke-linejoin:miter;stroke-miterlimit:4;stroke-dasharray:none;stroke-dashoffset:0;stroke-opacity:1;marker:none;color-rendering:auto;image-rendering:auto;shape-rendering:auto;text-rendering:auto;enable-background:accumulate" id="path11692" d="m 113.0006,428.9779 v -2 h 0.5 c 0.84027,0 1.5,-0.65973 1.5,-1.5 0,-0.84026 -0.66068,-1.50336 -1.49609,-1.5 l -5.5,0.0215 -0.008,-2 5.5,-0.0215 c 1.92599,-0.008 3.50391,1.57884 3.50391,3.5 0,1.92115 -1.57885,3.5 -3.5,3.5 z"/><path id="path11690" d="m 104.0002,423 4.00001,-4.02308 0,8 z" style="opacity:.3;fill:#bebebe;fill-opacity:1;stroke:none"/></g></g></svg>