<svg xmlns="http://www.w3.org/2000/svg" xmlns:osb="http://www.openswatchbook.org/uri/2009/osb" xmlns:svg="http://www.w3.org/2000/svg" xmlns:xlink="http://www.w3.org/1999/xlink" id="svg30571" width="24" height="24" version="1.1" viewBox="0 0 24 24"><defs id="defs30573"><linearGradient id="linearGradient19282-4" gradientTransform="matrix(0.34682586,0,0,0.30620888,-482.61525,330.965)" osb:paint="solid"><stop style="stop-color:#bebebe;stop-opacity:1" id="stop19284-0" offset="0"/></linearGradient><linearGradient id="linearGradient10444-3" x1="25" x2="35.901" y1="183.782" y2="183.782" gradientTransform="matrix(1.4700775,0,0,1.4893336,-28.751937,763.16456)" gradientUnits="userSpaceOnUse" xlink:href="#linearGradient19282-4"/><linearGradient id="linearGradient10456-3" x1="30.021" x2="35.03" y1="189.021" y2="189.021" gradientTransform="matrix(1.6034898,0,0,1.4484545,-33.185437,770.57367)" gradientUnits="userSpaceOnUse" xlink:href="#linearGradient19282-4"/><linearGradient id="linearGradient10514-7" x1="24" x2="25" y1="188.5" y2="188.5" gradientTransform="matrix(1.5,0,0,1.5,-30,761.3622)" gradientUnits="userSpaceOnUse" xlink:href="#linearGradient19282-4"/><linearGradient id="linearGradient10482-2" x1="23" x2="24" y1="189.5" y2="189.5" gradientTransform="matrix(1.5,0,0,1.5,-30,761.3622)" gradientUnits="userSpaceOnUse" xlink:href="#linearGradient19282-4"/><linearGradient id="linearGradient10470-7" x1="24" x2="25" y1="190.5" y2="190.5" gradientTransform="matrix(1.5,0,0,1.5,-30,761.3622)" gradientUnits="userSpaceOnUse" xlink:href="#linearGradient19282-4"/><linearGradient id="linearGradient10502-3" x1="23" x2="24" y1="191.5" y2="191.5" gradientTransform="matrix(1.5,0,0,1.5,-30,761.3622)" gradientUnits="userSpaceOnUse" xlink:href="#linearGradient19282-4"/><linearGradient id="linearGradient10462-5" x1="22" x2="23" y1="190.5" y2="190.5" gradientTransform="matrix(1.5,0,0,1.5,-30,761.3622)" gradientUnits="userSpaceOnUse" xlink:href="#linearGradient19282-4"/><linearGradient id="linearGradient10520-5" x1="21" x2="22" y1="191.5" y2="191.5" gradientTransform="matrix(1.5,0,0,1.5,-30,761.3622)" gradientUnits="userSpaceOnUse" xlink:href="#linearGradient19282-4"/><linearGradient id="linearGradient10494-4" x1="20" x2="21" y1="190.5" y2="190.5" gradientTransform="matrix(1.5,0,0,1.5,-30,761.3622)" gradientUnits="userSpaceOnUse" xlink:href="#linearGradient19282-4"/><linearGradient id="linearGradient10488-6" x1="21" x2="22" y1="189.5" y2="189.5" gradientTransform="matrix(1.5,0,0,1.5,-30,761.3622)" gradientUnits="userSpaceOnUse" xlink:href="#linearGradient19282-4"/><linearGradient id="linearGradient10464-4" x1="22" x2="23" y1="192.5" y2="192.5" gradientTransform="matrix(1.5,0,0,1.5,-30,761.3622)" gradientUnits="userSpaceOnUse" xlink:href="#linearGradient19282-4"/><linearGradient id="linearGradient10468-6" x1="20" x2="21" y1="192.5" y2="192.5" gradientTransform="matrix(1.5,0,0,1.5,-30,761.3622)" gradientUnits="userSpaceOnUse" xlink:href="#linearGradient19282-4"/><linearGradient id="linearGradient10500-7" x1="21" x2="22" y1="193.5" y2="193.5" gradientTransform="matrix(1.5,0,0,1.5,-30,761.3622)" gradientUnits="userSpaceOnUse" xlink:href="#linearGradient19282-4"/><linearGradient id="linearGradient10466-5" x1="23" x2="24" y1="193.5" y2="193.5" gradientTransform="matrix(1.5,0,0,1.5,-30,761.3622)" gradientUnits="userSpaceOnUse" xlink:href="#linearGradient19282-4"/></defs><metadata id="metadata30576"/><g id="layer1" transform="translate(0.50000001,-1031.3622)"><g style="display:inline" id="gimp-tool-airbrush-24" transform="translate(-0.50000001,3.0000174)"><rect style="color:#bebebe;display:inline;overflow:visible;visibility:visible;opacity:0;fill:none;stroke:none;stroke-width:1.5;marker:none" id="rect2941-2" width="24" height="24" x="-1052.362" y="0" transform="rotate(-90)"/><path style="display:inline;fill:url(#linearGradient10444-3);fill-opacity:1;stroke:none;stroke-width:1.4796741" id="path2948-2" d="m 23.023806,1030.4546 c 0,0 -6.25601,2.8876 -8.978258,4.956 l -3.606432,2.7403 -1.676107,2.7189 c -0.6402274,0.2249 -0.7630095,1.3858 -0.7630095,1.7202 0,0.4224 0.3441473,0.7722 0.7621952,0.7722 0.330961,0 1.4133543,-0.067 1.5985213,-0.6045 l 2.599465,0.2527 0.697371,-0.5125 0.633633,0.7701 1.704648,-1.3393 -0.620588,-0.7572 1.445221,-0.9909 c 2.843968,-1.9498 7.00461,-8.7331 7.00461,-8.7331 0.480126,-0.5657 -0.107701,-1.357 -0.80127,-0.9929 z"/><path style="color:#000;font-style:normal;font-variant:normal;font-weight:400;font-stretch:normal;font-size:medium;line-height:normal;font-family:sans-serif;font-variant-ligatures:normal;font-variant-position:normal;font-variant-caps:normal;font-variant-numeric:normal;font-variant-alternates:normal;font-feature-settings:normal;text-indent:0;text-align:start;text-decoration:none;text-decoration-line:none;text-decoration-style:solid;text-decoration-color:#000;letter-spacing:normal;word-spacing:normal;text-transform:none;writing-mode:lr-tb;direction:ltr;text-orientation:mixed;dominant-baseline:auto;baseline-shift:baseline;text-anchor:start;white-space:normal;shape-padding:0;clip-rule:nonzero;display:inline;overflow:visible;visibility:visible;opacity:1;isolation:auto;mix-blend-mode:normal;color-interpolation:sRGB;color-interpolation-filters:linearRGB;solid-color:#000;solid-opacity:1;vector-effect:none;fill:url(#linearGradient10456-3);fill-opacity:1;fill-rule:nonzero;stroke:none;stroke-width:1.52400196px;stroke-linecap:butt;stroke-linejoin:miter;stroke-miterlimit:4;stroke-dasharray:none;stroke-dashoffset:0;stroke-opacity:1;color-rendering:auto;image-rendering:auto;shape-rendering:auto;text-rendering:auto;enable-background:accumulate" id="path4595-9" d="m 23,1041.3633 c -0.70747,-0.019 -1.410638,0.1571 -2.025391,0.5078 -0.614672,0.3507 -1.122966,0.8657 -1.466797,1.4844 -0.415851,0.7482 -0.543588,1.447 -0.796874,1.9004 -0.124557,0.2229 -0.276421,0.3936 -0.423829,0.4863 -0.133308,0.084 -0.294892,0.1061 -0.376953,0.084 -0.04486,-0.013 -0.109907,-0.047 -0.173828,-0.1035 -0.06556,-0.058 -0.135062,-0.1421 -0.201172,-0.25 -0.133211,-0.2176 -0.248022,-0.5334 -0.417968,-0.9102 v 0 c -0.24524,-0.5437 -0.564255,-1.0526 -0.945313,-1.5117 L 15,1044.0234 c 0.293132,0.3532 0.539783,0.7456 0.728516,1.1641 0.131047,0.2906 0.256806,0.6733 0.505859,1.0801 0.12503,0.2042 0.28165,0.4131 0.490234,0.5976 0.210227,0.1861 0.469512,0.3442 0.777344,0.4297 0.581387,0.1614 1.148997,0.019 1.597656,-0.2637 0.434479,-0.2736 0.730491,-0.6557 0.941407,-1.0332 0.418097,-0.7482 0.546002,-1.4474 0.798828,-1.9023 0.206056,-0.3707 0.522099,-0.6901 0.890625,-0.9004 0.368445,-0.2101 0.804465,-0.3199 1.228515,-0.3086 z"/><rect style="color:#000;display:inline;overflow:visible;visibility:visible;opacity:.5;fill:url(#linearGradient10514-7);fill-opacity:1;fill-rule:evenodd;stroke:none;stroke-width:1.5;marker:none;enable-background:new" id="rect3269-9" width="1.5" height="1.5" x="6" y="1043.362"/><rect id="rect3271-0" width="1.5" height="1.5" x="4.5" y="1044.862" style="color:#000;display:inline;overflow:visible;visibility:visible;opacity:.4;fill:url(#linearGradient10482-2);fill-opacity:1;fill-rule:evenodd;stroke:none;stroke-width:1.5;marker:none;enable-background:new"/><rect style="color:#000;display:inline;overflow:visible;visibility:visible;opacity:.3;fill:url(#linearGradient10470-7);fill-opacity:1;fill-rule:evenodd;stroke:none;stroke-width:1.5;marker:none;enable-background:new" id="rect3273-0" width="1.5" height="1.5" x="6" y="1046.362"/><rect id="rect3275-0" width="1.5" height="1.5" x="4.5" y="1047.862" style="color:#000;display:inline;overflow:visible;visibility:visible;opacity:.1;fill:url(#linearGradient10502-3);fill-opacity:1;fill-rule:evenodd;stroke:none;stroke-width:1.5;marker:none;enable-background:new"/><rect style="color:#000;display:inline;overflow:visible;visibility:visible;opacity:.28395063;fill:url(#linearGradient10462-5);fill-opacity:1;fill-rule:evenodd;stroke:none;stroke-width:1.5;marker:none;enable-background:new" id="rect3277-0" width="1.5" height="1.5" x="3" y="1046.362"/><rect style="color:#000;display:inline;overflow:visible;visibility:visible;opacity:.23868312;fill:url(#linearGradient10520-5);fill-opacity:1;fill-rule:evenodd;stroke:none;stroke-width:1.5;marker:none;enable-background:new" id="rect4084-8" width="1.5" height="1.5" x="1.5" y="1047.862"/><rect id="rect4086-9" width="1.5" height="1.5" x="0" y="1046.362" style="color:#000;display:inline;overflow:visible;visibility:visible;opacity:.05;fill:url(#linearGradient10494-4);fill-opacity:1;fill-rule:evenodd;stroke:none;stroke-width:1.5;marker:none;enable-background:new"/><rect style="color:#000;display:inline;overflow:visible;visibility:visible;opacity:.05;fill:url(#linearGradient10488-6);fill-opacity:1;fill-rule:evenodd;stroke:none;stroke-width:1.5;marker:none;enable-background:new" id="rect4088-0" width="1.5" height="1.5" x="1.5" y="1044.862"/><rect id="rect4090-9" width="1.5" height="1.5" x="3" y="1049.362" style="color:#000;display:inline;overflow:visible;visibility:visible;opacity:.05;fill:url(#linearGradient10464-4);fill-opacity:1;fill-rule:evenodd;stroke:none;stroke-width:1.5;marker:none;enable-background:new"/><rect style="color:#000;display:inline;overflow:visible;visibility:visible;opacity:.05;fill:url(#linearGradient10468-6);fill-opacity:1;fill-rule:evenodd;stroke:none;stroke-width:1.5;marker:none;enable-background:new" id="rect4092-2" width="1.5" height="1.5" x="0" y="1049.362"/><rect id="rect4094-7" width="1.5" height="1.5" x="1.5" y="1050.862" style="color:#000;display:inline;overflow:visible;visibility:visible;opacity:.05;fill:url(#linearGradient10500-7);fill-opacity:1;fill-rule:evenodd;stroke:none;stroke-width:1.5;marker:none;enable-background:new"/><rect style="color:#000;display:inline;overflow:visible;visibility:visible;opacity:.05;fill:url(#linearGradient10466-5);fill-opacity:1;fill-rule:evenodd;stroke:none;stroke-width:1.5;marker:none;enable-background:new" id="rect4096-3" width="1.5" height="1.5" x="4.5" y="1050.862"/></g></g></svg>