<svg xmlns="http://www.w3.org/2000/svg" xmlns:osb="http://www.openswatchbook.org/uri/2009/osb" xmlns:svg="http://www.w3.org/2000/svg" xmlns:xlink="http://www.w3.org/1999/xlink" id="svg7384" width="24" height="24" version="1.1" viewBox="0 0 24 24"><metadata id="metadata90"/><defs id="defs7386"><linearGradient id="linearGradient19282-4" gradientTransform="matrix(0.34682586,0,0,0.30620888,-19.35207,761.03851)" osb:paint="solid"><stop id="stop19284-0" offset="0" style="stop-color:#bebebe;stop-opacity:1"/></linearGradient><linearGradient id="linearGradient7468" x1="135" x2="142" y1="6" y2="6" gradientTransform="matrix(1.4285714,0,0,1.5,934.50651,533.95367)" gradientUnits="userSpaceOnUse" xlink:href="#linearGradient19282-4"/><linearGradient id="linearGradient7470" x1="138" x2="151" y1="10" y2="10" gradientTransform="matrix(1.5384615,0,0,1.5833334,1005.7762,562.28445)" gradientUnits="userSpaceOnUse" xlink:href="#linearGradient19282-4"/></defs><g id="g4258"><path id="rect28732-9" d="M 11,4 V 6 H 22 V 8 H 11 V 19 H 4 v 5.000005 H 24 V 4 Z" style="fill:url(#linearGradient7470);fill-opacity:1;stroke:none;stroke-width:1.56073618"/><path id="rect15227" d="m 0,5e-6 v 18 h 10 v -18 z M 1,1 H 9 V 3.000005 H 1 Z m 1.2321429,3.500005 h 1.25 c 0.4451714,0 0.8035714,0.3763125 0.8035714,0.84375 v 1.3125 c 0,0.4674375 -0.3584,0.84375 -0.8035714,0.84375 h -1.25 c -0.4451715,0 -0.8035715,-0.3763125 -0.8035715,-0.84375 v -1.3125 c 0,-0.4674375 0.3584,-0.84375 0.8035715,-0.84375 z m 4.2857142,0 h 1.25 c 0.4451715,0 0.8035715,0.3763125 0.8035715,0.84375 v 1.3125 c 0,0.4674375 -0.3584,0.84375 -0.8035715,0.84375 h -1.25 c -0.4451714,0 -0.8035714,-0.3763125 -0.8035714,-0.84375 v -1.3125 c 0,-0.4674375 0.3584,-0.84375 0.8035714,-0.84375 z m -4.2857142,4.5 h 1.25 c 0.4451714,0 0.8035714,0.3763125 0.8035714,0.84375 v 1.3125 c 0,0.467438 -0.3584,0.84375 -0.8035714,0.84375 h -1.25 c -0.4451715,0 -0.8035715,-0.376312 -0.8035715,-0.84375 v -1.3125 c 0,-0.4674375 0.3584,-0.84375 0.8035715,-0.84375 z m 4.2857142,0 h 1.25 c 0.4451715,0 0.8035715,0.3763125 0.8035715,0.84375 v 1.3125 c 0,0.467438 -0.3584,0.84375 -0.8035715,0.84375 h -1.25 c -0.4451714,0 -0.8035714,-0.376312 -0.8035714,-0.84375 v -1.3125 c 0,-0.4674375 0.3584,-0.84375 0.8035714,-0.84375 z m -4.2857142,4.5 h 1.25 c 0.4451714,0 0.8035714,0.376313 0.8035714,0.84375 v 1.3125 c 0,0.467437 -0.3584,0.84375 -0.8035714,0.84375 h -1.25 c -0.4451715,0 -0.8035715,-0.376313 -0.8035715,-0.84375 v -1.3125 c 0,-0.467437 0.3584,-0.84375 0.8035715,-0.84375 z m 4.2857142,0 h 1.25 c 0.4451715,0 0.8035715,0.376313 0.8035715,0.84375 v 1.3125 c 0,0.467437 -0.3584,0.84375 -0.8035715,0.84375 h -1.25 c -0.4451714,0 -0.8035714,-0.376313 -0.8035714,-0.84375 v -1.3125 c 0,-0.467437 0.3584,-0.84375 0.8035714,-0.84375 z" style="fill:url(#linearGradient7468);fill-opacity:1;stroke:none;stroke-width:1.46385014"/></g></svg>