<svg xmlns="http://www.w3.org/2000/svg" xmlns:osb="http://www.openswatchbook.org/uri/2009/osb" xmlns:svg="http://www.w3.org/2000/svg" xmlns:xlink="http://www.w3.org/1999/xlink" id="svg30571" width="24" height="24" version="1.1" viewBox="0 0 24 24"><defs id="defs30573"><linearGradient id="linearGradient19282-4" gradientTransform="matrix(0.34682586,0,0,0.30620888,-482.61525,330.965)" osb:paint="solid"><stop style="stop-color:#bebebe;stop-opacity:1" id="stop19284-0" offset="0"/></linearGradient><linearGradient id="linearGradient7127" x1="83" x2="94" y1="279" y2="279" gradientTransform="matrix(1.545456,0,0,1.545456,-125.27316,600.08908)" gradientUnits="userSpaceOnUse" xlink:href="#linearGradient19282-4"/><linearGradient id="linearGradient7114" x1="85" x2="88" y1="290" y2="290" gradientTransform="matrix(1.6666657,0,0,1.6666657,-136.66692,564.02912)" gradientUnits="userSpaceOnUse" xlink:href="#linearGradient19282-4"/></defs><metadata id="metadata30576"/><g id="layer1" transform="translate(0,-1028.3622)"><g id="g9807"><rect id="rect5063" width="17" height="6.182" x="3" y="1028.18" rx="1.545" ry="1.545" style="fill:url(#linearGradient7127);fill-opacity:1;stroke:none;stroke-width:1.54545593"/><rect id="rect5073" width="5" height="10" x="5" y="1042.362" rx="1.667" ry="0" style="fill:url(#linearGradient7114);fill-opacity:1;stroke:none;stroke-width:1.66666579"/><path id="rect9675" d="m 20.0625,1030.3622 v 2 h 1 v 4 c 0,0 -7.746522,0.029 -13,0 -0.4713972,0 -1.0067642,0.3892 -1,1 0.042306,3.8204 -0.0625,5 -0.0625,5 h 1 l 0.0625,-5 c 0,0 8.047075,-0.01 13.5,0 0.372677,6e-4 0.501426,-0.6273 0.5,-1 -0.0062,-1.6102 -0.11475,-3.2057 -0.0625,-5 0.01372,-0.4712 -0.9375,-1 -0.9375,-1 z" style="opacity:1;fill:#bebebe;fill-opacity:1;stroke:none;stroke-width:.29956973;stroke-linecap:square;stroke-linejoin:round;stroke-miterlimit:4;stroke-dasharray:none;stroke-opacity:1;paint-order:stroke fill markers"/></g></g></svg>