<svg xmlns="http://www.w3.org/2000/svg" xmlns:osb="http://www.openswatchbook.org/uri/2009/osb" xmlns:svg="http://www.w3.org/2000/svg" xmlns:xlink="http://www.w3.org/1999/xlink" id="svg7384" width="24" height="24" version="1.1" viewBox="0 0 24 24"><metadata id="metadata90"/><defs id="defs7386"><linearGradient id="linearGradient8074" osb:paint="solid"><stop id="stop8072" offset="0" style="stop-color:#be00be;stop-opacity:1"/></linearGradient><linearGradient id="linearGradient7561" osb:paint="solid"><stop id="stop7558" offset="0" style="stop-color:#a5a5a5;stop-opacity:1"/></linearGradient><linearGradient id="linearGradient7548" osb:paint="solid"><stop id="stop7546" offset="0" style="stop-color:#ebebeb;stop-opacity:1"/></linearGradient><linearGradient id="linearGradient7542" osb:paint="solid"><stop id="stop7538" offset="0" style="stop-color:#c9c9c9;stop-opacity:1"/></linearGradient><linearGradient id="linearGradient19282" gradientTransform="matrix(0,-735328.32,170712.69,0,2464326300,577972450)" osb:paint="solid"><stop id="stop19284" offset="0" style="stop-color:#b4b4b4;stop-opacity:1"/></linearGradient><linearGradient id="linearGradient19282-4" gradientTransform="matrix(0.34682586,0,0,0.30620888,-39.35207,741.03851)" osb:paint="solid"><stop id="stop19284-0" offset="0" style="stop-color:#bebebe;stop-opacity:1"/></linearGradient><linearGradient id="linearGradient8376" x1="115" x2="131" y1="28" y2="28" gradientTransform="translate(768.15947,421.87401)" gradientUnits="userSpaceOnUse" xlink:href="#linearGradient19282-4"/><linearGradient id="linearGradient7450" x1="127" x2="129" y1="28" y2="28" gradientTransform="matrix(1.3333333,0,0,1.3333333,981.21262,553.16533)" gradientUnits="userSpaceOnUse" xlink:href="#linearGradient19282-4"/><linearGradient id="linearGradient7452" x1="120" x2="122" y1="28" y2="28" gradientTransform="matrix(1.3333333,0,0,1.3333333,983.8793,553.16532)" gradientUnits="userSpaceOnUse" xlink:href="#linearGradient19282-4"/></defs><g style="display:inline" id="preferences" transform="matrix(1.5,0,0,1.5,-232.25829,-395.81101)"><g id="gimp-prefs-folders-palettes" transform="translate(39.838857,243.87401)"><g id="g759" transform="translate(100,60)"><path style="display:inline;fill:url(#linearGradient8376);fill-opacity:1;stroke:none" id="path7651" d="M 115.53125,20 C 115.24212,20 115,20.24212 115,20.53125 v 14.9375 C 115,35.76725 115.23264,36 115.53125,36 h 14.9375 C 130.76735,36 131,35.76735 131,35.46875 v -9.63542 c 0,-0.2891 -0.24223,-0.492061 -0.53125,-0.5 H 118.33334 V 33.5 c 0,0.277 -0.38967,0.5 -0.66667,0.5 C 117.38967,34 117,33.777 117,33.5 v -9 c 0,-0.277 0.223,-0.5 0.5,-0.5 H 120.46875 129 V 22.59375 C 129,22.26655 128.73334,22 128.40625,22 H 121 V 20.53125 C 121,20.2421 120.75788,20 120.46875,20 Z M 121,26 c 1.10457,0 2,0.895431 2,2 0,1.104569 -0.89543,2 -2,2 -1.10457,0 -2,-0.895431 -2,-2 0,-1.104569 0.89543,-2 2,-2 z m 6.66667,0 c 1.10457,0 2,0.895431 2,2 0,1.104569 -0.89543,2 -2,2 -1.10457,0 -2,-0.895431 -2,-2 0,-1.104569 0.89543,-2 2,-2 z m -3.33333,4 c 1.10457,0 2,0.895431 2,2 0,1.104569 -0.89543,2 -2,2 -1.10457,0 -2,-0.895431 -2,-2 0,-1.104569 0.89543,-2 2,-2 z" transform="translate(-100,-60)"/></g><circle style="fill:url(#linearGradient7452);fill-opacity:1;stroke:none;stroke-width:1.33333337" id="path7664" cx="121" cy="28" r="1.333"/><circle style="opacity:.3;fill:url(#linearGradient7450);fill-opacity:1;stroke:none;stroke-width:1.33333337" id="path7666" cx="127.667" cy="28" r="1.333"/></g></g></svg>