<svg xmlns="http://www.w3.org/2000/svg" xmlns:svg="http://www.w3.org/2000/svg" id="svg30571" width="24" height="24" version="1.1" viewBox="0 0 24 24"><metadata id="metadata30576"/><g id="layer1" transform="translate(0,-1028.3622)"><g id="g4256"><rect id="rect3975" width="5" height="22" x="18" y="1029.362" style="fill:#505050;fill-opacity:1;stroke:none;stroke-width:2.46430302;stroke-miterlimit:4;stroke-dasharray:none;stroke-opacity:1"/><rect id="rect3975-5" width="5" height="22" x="1" y="1029.362" style="fill:#fff;fill-opacity:1;stroke:none;stroke-width:2.46430349;stroke-miterlimit:4;stroke-dasharray:none;stroke-opacity:1"/><rect id="rect3975-1" width="4" height="22" x="6" y="1029.362" style="fill:#c8c8c8;fill-opacity:1;stroke:none;stroke-width:2.20413995;stroke-miterlimit:4;stroke-dasharray:none;stroke-opacity:1"/><rect id="rect3975-2" width="4" height="22" x="10" y="1029.362" style="fill:#969696;fill-opacity:1;stroke:none;stroke-width:2.20413995;stroke-miterlimit:4;stroke-dasharray:none;stroke-opacity:1"/><rect id="rect3975-50" width="4" height="22" x="14" y="1029.362" style="fill:#646464;fill-opacity:1;stroke:none;stroke-width:2.20413995;stroke-miterlimit:4;stroke-dasharray:none;stroke-opacity:1"/><path style="fill:#bebebe;fill-opacity:1;stroke:none;stroke-width:1.49992847" id="rect28283-2" d="m 1.5,1028.3634 c -0.981675,0 -1.5,-0.097 -1.5,1.4998 v 20.998 c 0,1.5968 0.518325,1.4999 1.5,1.4999 H 12 22.5 c 0.950211,0 1.451003,0.024 1.5,-1.4999 v 0 -10.499 -10.499 0 c -0.04899,-1.5234 -0.549789,-1.4998 -1.5,-1.4998 H 12 Z m 3,0.9988 h 7.5 7.5 c 2.395889,0 3.5,1.1433 3.5,3.8007 v 14.3986 c 0,2.7017 -0.927335,3.8007 -3.5,3.8007 H 12 4.5 c -2.4196061,0 -3.5,-1.1538 -3.5,-4.2506 v -13.4987 c 0,-3.1878 1.0599247,-4.2507 3.5,-4.2507 z"/></g></g></svg>