<svg xmlns="http://www.w3.org/2000/svg" xmlns:svg="http://www.w3.org/2000/svg" id="svg7384" width="24" height="24" version="1.1" viewBox="0 0 24 24"><metadata id="metadata90"/><g id="g4245" transform="matrix(1.5000001,0,0,1.5000001,0,-1.4536744e-6)"><g id="layer10" transform="matrix(1.047619,0,0,1.047619,-127.14411,-489.61929)"><path style="color:#bebebe;text-indent:0;text-transform:none;fill:#bebebe;stroke-width:.99997145" id="rect2860" d="m 123.97,468.0008 c -1.0753,0 -1.9688,0.89336 -1.9688,1.96869 v 9.03068 0.43748 l 0.3125,0.28123 1.6875,1.6874 v -11.40534 h 10 v 9.99942 h -1.81818 v 1.99989 h 1.84938 c 1.0753,0 1.9688,-0.89336 1.9688,-1.96869 v -10.06142 c 0,-1.07994 -0.89,-1.96989 -1.97,-1.96989 z"/><path style="color:#bebebe;fill:#bebebe;stroke-width:.95454544" id="rect2880" d="m 126.13757,476.27273 c -0.52882,0 -0.95455,0.42572 -0.95455,0.95454 v 3.81818 c 0,0.52882 0.42573,0.95455 0.95455,0.95455 h 3.81818 c 0.52882,0 0.95454,-0.42573 0.95454,-0.95455 v -3.81818 c 0,-0.52882 -0.42572,-0.95454 -0.95454,-0.95454 z m 0,0.95454 h 1.90909 v 3.81818 h -1.90909 z"/></g></g></svg>